<svg width="202" height="203" viewBox="0 0 202 203" fill="none" xmlns="http://www.w3.org/2000/svg">
<rect x="1" y="182" width="20" height="20" stroke="#D0D0D0" stroke-width="0.5"/>
<rect x="21" y="182" width="20" height="20" stroke="#D0D0D0" stroke-width="0.5"/>
<rect x="41" y="182" width="20" height="20" stroke="#D0D0D0" stroke-width="0.5"/>
<rect x="61" y="182" width="20" height="20" stroke="#D0D0D0" stroke-width="0.5"/>
<rect x="81" y="182" width="20" height="20" stroke="#D0D0D0" stroke-width="0.5"/>
<rect x="101" y="182" width="20" height="20" stroke="#D0D0D0" stroke-width="0.5"/>
<rect x="121" y="182" width="20" height="20" stroke="#D0D0D0" stroke-width="0.5"/>
<rect x="141" y="182" width="20" height="20" stroke="#D0D0D0" stroke-width="0.5"/>
<rect x="161" y="182" width="20" height="20" stroke="#D0D0D0" stroke-width="0.5"/>
<rect x="181" y="182" width="20" height="20" stroke="#D0D0D0" stroke-width="0.5"/>
<rect x="1" y="162" width="20" height="20" stroke="#D0D0D0" stroke-width="0.5"/>
<rect x="21" y="162" width="20" height="20" stroke="#D0D0D0" stroke-width="0.5"/>
<rect x="41" y="162" width="20" height="20" stroke="#D0D0D0" stroke-width="0.5"/>
<rect x="61" y="162" width="20" height="20" stroke="#D0D0D0" stroke-width="0.5"/>
<rect x="81" y="162" width="20" height="20" stroke="#D0D0D0" stroke-width="0.5"/>
<rect x="101" y="162" width="20" height="20" stroke="#D0D0D0" stroke-width="0.5"/>
<rect x="121" y="162" width="20" height="20" stroke="#D0D0D0" stroke-width="0.5"/>
<rect x="141" y="162" width="20" height="20" stroke="#D0D0D0" stroke-width="0.5"/>
<rect x="161" y="162" width="20" height="20" stroke="#D0D0D0" stroke-width="0.5"/>
<rect x="181" y="162" width="20" height="20" stroke="#D0D0D0" stroke-width="0.5"/>
<rect x="1" y="142" width="20" height="20" stroke="#D0D0D0" stroke-width="0.5"/>
<rect x="21" y="142" width="20" height="20" stroke="#D0D0D0" stroke-width="0.5"/>
<rect x="41" y="142" width="20" height="20" stroke="#D0D0D0" stroke-width="0.5"/>
<rect x="61" y="142" width="20" height="20" stroke="#D0D0D0" stroke-width="0.5"/>
<rect x="81" y="142" width="20" height="20" stroke="#D0D0D0" stroke-width="0.5"/>
<rect x="101" y="142" width="20" height="20" stroke="#D0D0D0" stroke-width="0.5"/>
<rect x="121" y="142" width="20" height="20" stroke="#D0D0D0" stroke-width="0.5"/>
<rect x="141" y="142" width="20" height="20" stroke="#D0D0D0" stroke-width="0.5"/>
<rect x="161" y="142" width="20" height="20" stroke="#D0D0D0" stroke-width="0.5"/>
<rect x="181" y="142" width="20" height="20" stroke="#D0D0D0" stroke-width="0.5"/>
<rect x="1" y="122" width="20" height="20" stroke="#D0D0D0" stroke-width="0.5"/>
<rect x="21" y="122" width="20" height="20" stroke="#D0D0D0" stroke-width="0.5"/>
<rect x="41" y="122" width="20" height="20" stroke="#D0D0D0" stroke-width="0.5"/>
<rect x="61" y="122" width="20" height="20" stroke="#D0D0D0" stroke-width="0.5"/>
<rect x="81" y="122" width="20" height="20" stroke="#D0D0D0" stroke-width="0.5"/>
<rect x="101" y="122" width="20" height="20" stroke="#D0D0D0" stroke-width="0.5"/>
<rect x="121" y="122" width="20" height="20" stroke="#D0D0D0" stroke-width="0.5"/>
<rect x="141" y="122" width="20" height="20" stroke="#D0D0D0" stroke-width="0.5"/>
<rect x="161" y="122" width="20" height="20" stroke="#D0D0D0" stroke-width="0.5"/>
<rect x="181" y="122" width="20" height="20" stroke="#D0D0D0" stroke-width="0.5"/>
<rect x="1" y="102" width="20" height="20" stroke="#D0D0D0" stroke-width="0.5"/>
<rect x="21" y="102" width="20" height="20" stroke="#D0D0D0" stroke-width="0.5"/>
<rect x="41" y="102" width="20" height="20" stroke="#D0D0D0" stroke-width="0.5"/>
<rect x="61" y="102" width="20" height="20" stroke="#D0D0D0" stroke-width="0.5"/>
<rect x="81" y="102" width="20" height="20" stroke="#D0D0D0" stroke-width="0.5"/>
<rect x="101" y="102" width="20" height="20" stroke="#D0D0D0" stroke-width="0.5"/>
<rect x="121" y="102" width="20" height="20" stroke="#D0D0D0" stroke-width="0.5"/>
<rect x="141" y="102" width="20" height="20" stroke="#D0D0D0" stroke-width="0.5"/>
<rect x="161" y="102" width="20" height="20" stroke="#D0D0D0" stroke-width="0.5"/>
<rect x="181" y="102" width="20" height="20" stroke="#D0D0D0" stroke-width="0.5"/>
<rect x="1" y="82" width="20" height="20" stroke="#D0D0D0" stroke-width="0.5"/>
<rect x="21" y="82" width="20" height="20" stroke="#D0D0D0" stroke-width="0.5"/>
<rect x="41" y="82" width="20" height="20" stroke="#D0D0D0" stroke-width="0.5"/>
<rect x="61" y="82" width="20" height="20" stroke="#D0D0D0" stroke-width="0.5"/>
<rect x="81" y="82" width="20" height="20" stroke="#D0D0D0" stroke-width="0.5"/>
<rect x="101" y="82" width="20" height="20" stroke="#D0D0D0" stroke-width="0.5"/>
<rect x="121" y="82" width="20" height="20" stroke="#D0D0D0" stroke-width="0.5"/>
<rect x="141" y="82" width="20" height="20" stroke="#D0D0D0" stroke-width="0.5"/>
<rect x="161" y="82" width="20" height="20" stroke="#D0D0D0" stroke-width="0.5"/>
<rect x="181" y="82" width="20" height="20" stroke="#D0D0D0" stroke-width="0.5"/>
<rect x="1" y="62" width="20" height="20" stroke="#D0D0D0" stroke-width="0.5"/>
<rect x="21" y="62" width="20" height="20" stroke="#D0D0D0" stroke-width="0.5"/>
<rect x="41" y="62" width="20" height="20" stroke="#D0D0D0" stroke-width="0.5"/>
<rect x="61" y="62" width="20" height="20" stroke="#D0D0D0" stroke-width="0.5"/>
<rect x="81" y="62" width="20" height="20" stroke="#D0D0D0" stroke-width="0.5"/>
<rect x="101" y="62" width="20" height="20" stroke="#D0D0D0" stroke-width="0.5"/>
<rect x="121" y="62" width="20" height="20" stroke="#D0D0D0" stroke-width="0.5"/>
<rect x="141" y="62" width="20" height="20" stroke="#D0D0D0" stroke-width="0.5"/>
<rect x="161" y="62" width="20" height="20" stroke="#D0D0D0" stroke-width="0.5"/>
<rect x="181" y="62" width="20" height="20" stroke="#D0D0D0" stroke-width="0.5"/>
<rect x="1" y="42" width="20" height="20" stroke="#D0D0D0" stroke-width="0.5"/>
<rect x="21" y="42" width="20" height="20" stroke="#D0D0D0" stroke-width="0.5"/>
<rect x="41" y="42" width="20" height="20" stroke="#D0D0D0" stroke-width="0.5"/>
<rect x="61" y="42" width="20" height="20" stroke="#D0D0D0" stroke-width="0.5"/>
<rect x="81" y="42" width="20" height="20" stroke="#D0D0D0" stroke-width="0.5"/>
<rect x="101" y="42" width="20" height="20" stroke="#D0D0D0" stroke-width="0.5"/>
<rect x="121" y="42" width="20" height="20" stroke="#D0D0D0" stroke-width="0.5"/>
<rect x="141" y="42" width="20" height="20" stroke="#D0D0D0" stroke-width="0.5"/>
<rect x="161" y="42" width="20" height="20" stroke="#D0D0D0" stroke-width="0.5"/>
<rect x="181" y="42" width="20" height="20" stroke="#D0D0D0" stroke-width="0.5"/>
<rect x="1" y="22" width="20" height="20" stroke="#D0D0D0" stroke-width="0.5"/>
<rect x="21" y="22" width="20" height="20" stroke="#D0D0D0" stroke-width="0.5"/>
<rect x="41" y="22" width="20" height="20" stroke="#D0D0D0" stroke-width="0.5"/>
<rect x="61" y="22" width="20" height="20" stroke="#D0D0D0" stroke-width="0.5"/>
<rect x="81" y="22" width="20" height="20" stroke="#D0D0D0" stroke-width="0.5"/>
<rect x="101" y="22" width="20" height="20" stroke="#D0D0D0" stroke-width="0.5"/>
<rect x="121" y="22" width="20" height="20" stroke="#D0D0D0" stroke-width="0.5"/>
<rect x="141" y="22" width="20" height="20" stroke="#D0D0D0" stroke-width="0.5"/>
<rect x="161" y="22" width="20" height="20" stroke="#D0D0D0" stroke-width="0.5"/>
<rect x="181" y="22" width="20" height="20" stroke="#D0D0D0" stroke-width="0.5"/>
<rect x="1" y="2" width="20" height="20" stroke="#D0D0D0" stroke-width="0.5"/>
<rect x="21" y="2" width="20" height="20" stroke="#D0D0D0" stroke-width="0.5"/>
<rect x="41" y="2" width="20" height="20" stroke="#D0D0D0" stroke-width="0.5"/>
<rect x="61" y="2" width="20" height="20" stroke="#D0D0D0" stroke-width="0.5"/>
<rect x="81" y="2" width="20" height="20" stroke="#D0D0D0" stroke-width="0.5"/>
<rect x="101" y="2" width="20" height="20" stroke="#D0D0D0" stroke-width="0.5"/>
<rect x="121" y="2" width="20" height="20" stroke="#D0D0D0" stroke-width="0.5"/>
<rect x="141" y="2" width="20" height="20" stroke="#D0D0D0" stroke-width="0.5"/>
<rect x="161" y="2" width="20" height="20" stroke="#D0D0D0" stroke-width="0.5"/>
<rect x="181" y="2" width="20" height="20" stroke="#D0D0D0" stroke-width="0.5"/>
<path d="M1 202C44 80 68 2 201 2" stroke="black" stroke-width="2" stroke-linecap="round"/>
<circle cx="70" cy="2" r="2" fill="#2F80ED"/>
<circle cx="44" cy="80" r="2" fill="#2F80ED"/>
<path d="M44 80L1 202" stroke="#2F80ED"/>
<path d="M70 2H201" stroke="#2F80ED"/>
</svg>
