<svg width="100" height="100" viewBox="0 0 100 100" fill="none" xmlns="http://www.w3.org/2000/svg">
<rect width="100" height="100" fill="white"/>
<path d="M83.5045 65.0947C83.1898 67.1403 81.6162 68.8712 79.4133 69.5006C69.9721 72.0182 62.5765 70.4447 57.2265 67.927C55.3383 66.9829 53.6074 66.0388 52.1913 64.9373C48.4148 62.2623 46.5266 59.43 46.5266 59.43C46.5266 59.43 47.4707 47.1565 50.7751 44.0094C54.0795 40.705 61.003 40.0756 61.003 40.0756L70.9162 40.3903L76.4236 44.3241C84.9206 49.202 84.4486 59.5873 83.5045 65.0947Z" fill="#EAEAEC"/>
<path d="M54.2368 66.1961C53.6074 65.7241 52.8206 65.4094 52.3485 64.9373C48.5721 62.2623 46.6838 59.43 46.6838 59.43C46.6838 59.43 47.628 47.1564 50.9324 44.0094C52.3485 42.5932 54.5515 41.6491 56.4397 41.0197C57.2265 40.8623 57.8559 40.5476 58.4853 40.5476C57.8559 42.4359 55.8103 50.1461 54.2368 66.1961ZM72.9618 41.6491C71.3882 44.6388 62.8912 59.902 54.2368 66.1961C55.1809 66.8255 56.125 67.2976 57.2265 67.927C62.5765 70.4447 69.9721 71.8608 79.2559 69.5006C81.3015 69.0285 82.875 67.2976 83.3471 65.0947C86.8088 46.2123 74.2206 43.6947 72.9618 41.6491Z" fill="#1F95D3"/>
<path d="M71.8603 35.5123C72.0177 35.355 72.6471 41.6491 72.6471 41.6491C72.6471 41.6491 66.0383 52.1917 60.5309 48.4153L59.5868 47.6285L60.8456 38.9741L71.8603 35.5123Z" fill="#DD9A76"/>
<path d="M72.4896 39.9182C72.4896 39.9182 67.6117 44.3241 60.6882 46.9991L63.6779 53.4506L73.9058 42.4359L72.4896 39.9182ZM60.5308 46.9991C60.5308 46.9991 59.5867 44.4814 60.5308 41.0197L58.6426 40.0756C57.2264 42.5932 56.4397 45.7403 55.8102 49.202L60.5308 46.9991Z" fill="#F6F6F8"/>
<path d="M60.5309 46.9991L57.6985 48.2579L57.8559 51.5623L60.2162 52.5065L62.4191 50.9329L60.5309 46.9991Z" fill="#5A6268"/>
<path d="M60.2162 52.5064L58.3279 62.7344L58.0132 63.9932C55.9677 65.0947 54.5515 66.1961 54.2368 66.1961C54.2368 66.0388 53.9221 64.4653 53.6074 62.105L55.1809 58.1711L58.0132 51.5623L60.2162 52.5064Z" fill="#5A6268"/>
<path d="M72.647 51.2476L69.5 53.2932L69.6573 55.6535C65.4088 60.0594 60.8456 62.8918 57.8559 64.4653C55.8103 65.5668 54.3941 66.1962 54.0794 66.1962C55.4956 65.252 56.7544 63.9932 58.0132 62.7344C63.8353 56.9124 69.0279 48.4153 72.9617 41.1771L75.0073 43.2226L72.647 51.2476Z" fill="#1EA9EE"/>
<path d="M58.4853 40.5476C58.0132 42.1212 56.4397 47.4712 55.1809 58.1711C54.8662 60.5314 54.5515 63.2064 54.2368 66.1961C54.2368 66.0388 53.7647 64.4653 53.45 62.2623C52.978 59.2726 52.6632 54.8667 53.2927 50.3035L54.3941 48.73L53.7647 46.8417L56.5971 41.0197L56.7544 40.705L58.8 39.9182C58.6427 39.9182 58.6427 40.0756 58.4853 40.5476Z" fill="#1EA9EE"/>
<path d="M58.8 18.833C58.8 18.833 52.1911 37.7153 59.5867 41.4918C66.9823 45.2682 74.0632 34.4109 75.322 29.0609C76.5808 23.7109 70.2867 13.0109 58.8 18.833Z" fill="#F3AC7E"/>
<path d="M59.2721 16.7874C58.328 18.0462 57.3838 22.9241 58.328 24.0256C59.2721 25.1271 61.475 24.9697 63.9927 25.2844C69.1853 25.7565 69.9721 21.98 70.7588 25.4418C71.5456 28.9035 70.2868 31.2638 70.2868 31.2638L71.3882 31.4212C71.3882 31.4212 72.4897 28.1168 73.9059 28.5888C75.3221 29.0609 74.2206 33.9388 72.175 34.883C70.1294 35.6697 72.175 36.6138 72.175 36.6138C72.175 36.6138 75.9515 36.7712 77.3677 33.4668C80.5147 26.2285 79.4132 19.305 75.7941 15.5286C72.3324 11.9094 63.678 10.808 59.2721 16.7874Z" fill="#4F565C"/>
<path d="M66.0383 71.2314V80.9873L53.7648 88.0682L53.9221 78.3123L66.0383 71.2314Z" fill="#F3AC7E"/>
<path d="M53.9221 78.3123L53.7647 88.0682L22.7662 70.13V60.3741L53.9221 78.3123Z" fill="#DD9A76"/>
<path d="M66.0382 71.2314L53.9221 78.3123L22.7662 60.3741L35.0397 53.2932L66.0382 71.2314Z" fill="#D6B961"/>
<path d="M74.6926 68.5565V73.277L58.1706 82.8756V73.5918L74.6926 68.5565Z" fill="#DD9A76"/>
<path d="M58.1706 73.5918V82.8756L16 58.4859V49.2021L58.1706 73.5918Z" fill="#CE896B"/>
<path d="M74.6926 68.5564L58.1706 73.5917L16 49.202L32.5221 44.1667L74.6926 68.5564Z" fill="#F3AC7E"/>
<path d="M31.2632 50.6182C30.6338 50.6182 30.1617 50.1462 30.1617 49.5168C30.1617 49.2021 30.0044 43.6947 33.6235 40.0756C35.6691 38.03 38.6588 37.0859 42.2779 37.2433C42.9073 37.2433 43.3794 37.8727 43.3794 38.5021C43.3794 39.1315 42.75 39.6035 42.1206 39.6035C39.1309 39.4462 36.7706 40.0756 35.197 41.6491C32.3647 44.4815 32.522 49.3594 32.522 49.3594C32.3647 49.9888 31.8926 50.6182 31.2632 50.6182Z" fill="#5A6268"/>
<path d="M42.5927 41.4918C44.2438 41.4918 45.5824 40.1532 45.5824 38.502C45.5824 36.8509 44.2438 35.5123 42.5927 35.5123C40.9415 35.5123 39.603 36.8509 39.603 38.502C39.603 40.1532 40.9415 41.4918 42.5927 41.4918Z" fill="#FF5766"/>
</svg>
