<svg width="100" height="100" viewBox="0 0 100 100" fill="none" xmlns="http://www.w3.org/2000/svg">
<path d="M67.441 86.236C64.1015 89.2624 60.2844 86.8056 58.2773 86.5147L37.4418 80.6788C34.5239 79.8592 32.2781 77.5477 31.4911 74.6298C28.0398 61.5362 31.2387 47.2203 34.4255 44.942C35.0951 44.4678 36.0711 43.94 37.0484 43.6142C38.9094 42.9736 38.4477 43.3187 43.2285 43.893C68.5305 46.8475 69.6316 47.9831 70.9163 68.5152C71.1414 72.1246 70.1498 83.8962 67.441 86.236Z" fill="#F74457"/>
<path opacity="0.5" d="M70.9164 68.5151C70.3826 59.9841 70.2341 49.9092 62.5068 47.4174C54.1262 44.6682 41.3156 43.9 39.9172 43.4339C38.2143 42.7995 34.7359 44.2052 33.6879 45.7781C33.8703 45.7911 45.3586 47.4527 52.0644 49.6305C56.0806 50.9255 58.0314 54.3353 58.9167 57.7613C59.4576 59.8105 60.5068 69.2692 60.5232 72.0725C60.556 73.6461 60.474 75.2035 60.3101 76.7608C60.0969 78.8755 58.9986 84.3016 58.2773 86.5147C62.0366 87.5506 62.0389 87.6118 62.7035 87.6949C63.8851 88.2875 67.467 87.1781 68.6377 84.5475C70.0269 80.0301 71.3496 73.141 70.9164 68.5151Z" fill="#FF5766"/>
<path d="M43.2471 40.8546C43.2887 42.06 42.8 51.2566 44.5992 51.7951C49.3595 53.22 55.0392 48.6883 55.1799 48.6136C57.5167 47.3726 56.0926 45.2455 56.5173 33.0049L43.2471 40.8546Z" fill="#DD9A76"/>
<path d="M38.1497 26.0669C38.1497 26.0669 36.4761 45.7613 43.6963 46.2316C50.7008 46.6879 54.4573 42.7722 56.4565 38.9644C58.4556 35.1565 59.8545 25.7813 57.2842 19.4983C54.7139 13.2154 40.3392 13.6914 38.1497 26.0669Z" fill="#EAA178"/>
<path d="M39.1001 22.9567C39.1001 22.9567 37.4264 42.6511 44.6466 43.1214C51.6511 43.5777 55.4076 39.6621 57.4068 35.8542C59.4059 32.0463 60.8048 22.6711 58.2345 16.3882C55.6642 10.1052 41.2896 10.5812 39.1001 22.9567Z" fill="#F3AC7E"/>
<path d="M59.7875 17.1033C55.7357 10.9708 42.5 7.79416 37.2776 22.8368C36.8242 24.1425 37.2298 25.6122 38.3178 26.4645C39.4912 27.3839 43.6944 30.7677 46.2702 29.7314C51.0436 27.8111 52.3973 27.0571 51.8011 35.8054C51.7663 36.3153 52.159 36.7564 52.6701 36.7564C53.1212 36.7564 53.4978 36.4199 53.5402 35.9709C53.6987 34.2967 54.2594 30.5402 56.0954 30.6787C58.6994 30.8752 56.808 34.5887 56.8649 36.4063C56.9217 38.2239 59.7307 36.1884 60.4123 34.8252C61.0939 33.462 63.9908 23.465 59.7875 17.1033Z" fill="#3C4349"/>
<path opacity="0.25" d="M60.4867 26.058C60.0978 24.5906 60.7527 19.4623 57.6846 16.7809C49.7783 9.87114 43.415 15.9982 42.4796 16.6001C41.0128 17.5441 38.2993 23.168 41.6026 23.7301C43.7147 24.0895 45.0028 23.55 46.1503 23.4038C48.2072 23.1416 50.3713 23.9511 51.7513 25.4987C53.9603 27.9767 56.4617 25.1328 58.6045 28.5134C58.8128 28.842 59.0142 29.2348 59.3899 29.3355C59.8966 29.4714 60.3597 28.9743 60.532 28.4787C60.801 27.7049 60.6966 26.85 60.4867 26.058Z" fill="#5A6268"/>
<path opacity="0.1" d="M44.2217 18.3951C43.5462 19.2762 44.1736 20.5761 45.2837 20.5562C50.695 20.4597 54.0874 22.3059 55.7957 23.6057C56.8073 24.3755 58.2879 23.6546 58.2709 22.3835C58.181 15.629 48.9533 12.2245 44.2217 18.3951Z" fill="#7E858B"/>
<path d="M33.5016 32.9843L37.8651 30.7348C37.8765 31.0143 38.0728 31.3062 38.3038 31.3873L33.9403 33.6367C33.7093 33.5557 33.5131 33.2638 33.5016 32.9843Z" fill="#EAEAEC"/>
<path d="M33.2691 27.2875L37.6328 25.0386L37.8648 30.7344L33.5011 32.9849L33.2691 27.2875Z" fill="#EAEAEC"/>
<path d="M37.7998 24.6703C37.6923 24.7257 37.625 24.86 37.6323 25.0381L33.2688 27.2876C33.2615 27.1095 33.3288 26.9752 33.4363 26.9197C34.7454 26.2449 36.4908 25.3451 37.7998 24.6703Z" fill="#EAEAEC"/>
<path d="M33.4363 26.9197L37.7998 24.6703C37.8531 24.6428 37.9162 24.6347 37.985 24.6501C40.3275 25.1965 42.7199 25.9047 45.0738 26.7306L40.7103 28.98C38.3564 28.1542 35.964 27.446 33.6216 26.8996C33.5527 26.8842 33.4896 26.8923 33.4363 26.9197Z" fill="#3C4349"/>
<path d="M52.6629 36.3352L48.2995 38.5847C48.234 38.6184 48.1527 38.6232 48.0634 38.5919L52.4269 36.3424C52.5161 36.3737 52.5974 36.369 52.6629 36.3352Z" fill="#EAEAEC"/>
<path d="M52.663 36.3352L48.2995 38.5847C48.4035 38.531 48.4678 38.4043 48.4608 38.2328L52.8242 35.9833C52.8312 36.1548 52.767 36.2816 52.663 36.3352Z" fill="#3C4349"/>
<path d="M48.2273 32.5367L52.591 30.2861L52.8246 35.9835L48.4609 38.2324L48.2273 32.5367Z" fill="#3C4349"/>
<path d="M33.9398 33.6367L38.3036 31.3877L52.4269 36.3417L48.0632 38.5922L33.9398 33.6367Z" fill="#EAEAEC"/>
<path d="M53.1886 37.3334L48.8251 39.5829C49.1376 39.4218 49.3286 39.0424 49.3077 38.5299L53.6711 36.2804C53.6921 36.793 53.501 37.1723 53.1886 37.3334Z" fill="#F1F1F3"/>
<path d="M40.7102 28.9801L45.0737 26.7306C47.4275 27.5564 49.8308 28.5308 52.1961 29.6362C52.4062 29.7362 52.5804 30.0203 52.5913 30.2865L48.2279 32.536C48.217 32.2698 48.0427 31.9856 47.8327 31.8857C45.4674 30.7803 43.0641 29.8059 40.7102 28.9801Z" fill="#3C4349"/>
<path d="M47.8678 30.8878C48.52 31.1954 49.0422 32.0346 49.0749 32.8332L49.3078 38.5299C49.342 39.3685 48.8088 39.8505 48.1049 39.6035L33.9817 34.6483C33.2777 34.4013 32.689 33.5257 32.6547 32.6871L32.4218 26.9904C32.3892 26.1918 32.8569 25.6999 33.5026 25.8478C35.8836 26.4076 38.273 27.1082 40.6681 27.9485C43.0632 28.7889 45.464 29.7689 47.8678 30.8878ZM48.4608 38.2328L48.2279 32.536C48.217 32.2698 48.0428 31.9857 47.8327 31.8857C45.4675 30.7804 43.0641 29.8059 40.7103 28.9801C38.3564 28.1542 35.964 27.446 33.6215 26.8996C33.4136 26.853 33.2579 27.0213 33.2688 27.2875L33.5017 32.9843C33.5131 33.2638 33.7094 33.5557 33.9403 33.6367L48.0635 38.5919C48.2945 38.673 48.4722 38.5123 48.4608 38.2328Z" fill="#D9D9DB"/>
<path d="M48.4579 38.2374C48.4743 38.516 48.2939 38.6799 48.0645 38.598L39.7697 35.6801L38.5893 35.2703L35.8025 34.2866L33.9338 33.631C33.8845 33.6145 33.8354 33.5817 33.7862 33.549C33.6223 33.4178 33.5075 33.2047 33.5075 32.9916L33.2616 27.2869C33.2616 27.0245 33.4092 26.8606 33.6223 26.8934C35.9665 27.4508 38.3598 28.1557 40.704 28.9753C40.9171 29.0572 41.1466 29.1393 41.3597 29.2212C42.0319 29.4508 42.6876 29.6966 43.3597 29.9753C44.2285 30.3031 45.1137 30.6802 45.999 31.0572C46.3432 31.2047 46.6875 31.3687 47.0317 31.5326C47.294 31.6474 47.5726 31.7621 47.835 31.8933C48.0481 31.9917 48.212 32.2703 48.2284 32.5326L48.4579 38.2374Z" fill="#3C4349"/>
<path d="M32.9156 25.9072L37.279 23.6577C38.4898 23.0336 48.8139 27.0476 52.2313 28.6384L47.8678 30.8878C45.464 29.7689 43.0632 28.7889 40.6681 27.9485C38.273 27.1082 35.8836 26.4076 33.5026 25.8478C33.2819 25.7972 33.0819 25.8214 32.9156 25.9072Z" fill="#F1F1F3"/>
<path d="M49.0749 32.8334L53.4386 30.5844L53.6706 36.2802L49.3085 38.5307L49.0749 32.8334Z" fill="#F1F1F3"/>
<path d="M47.8679 30.8879L52.2313 28.6384C52.8836 28.9459 53.4057 29.7851 53.4384 30.5837L49.0749 32.8332C49.0423 32.0346 48.5201 31.1954 47.8679 30.8879Z" fill="#F1F1F3"/>
<path d="M50.4683 33.1176L50.584 36.8615C64.0264 28.7906 61.669 32.4579 62.1321 27.9498C62.1654 27.4489 61.8035 27.9879 50.4683 33.1176Z" fill="#EAEAEC"/>
<path d="M52.5968 33.3012L53.1745 33.637C53.0562 33.5682 52.8928 33.5771 52.7137 33.6805L52.136 33.3448C52.3151 33.2414 52.4785 33.2325 52.5968 33.3012Z" fill="#1EA9EE"/>
<path d="M52.2558 35.2192L51.6781 34.8835C51.5611 34.8154 51.4898 34.6697 51.4892 34.4651C51.488 34.0562 51.7697 33.5563 52.136 33.3448L52.7137 33.6805C52.3474 33.892 52.0657 34.3919 52.0669 34.8008C52.0675 35.0055 52.1388 35.1512 52.2558 35.2192Z" fill="#1EA9EE"/>
<path d="M52.7137 33.6805C53.0696 33.4751 53.3636 33.6426 53.3647 34.0515C53.3659 34.4604 53.0738 34.9664 52.7179 35.1718C52.3516 35.3833 52.0681 35.2097 52.0669 34.8008C52.0657 34.3919 52.3474 33.892 52.7137 33.6805Z" fill="#1F95D3"/>
<g opacity="0.1">
<path opacity="0.1" d="M43.3597 29.9752L35.8025 34.2866L33.9338 33.6309C33.8845 33.6145 33.8354 33.5817 33.7862 33.549L41.3597 29.2212C42.0319 29.4507 42.6876 29.6966 43.3597 29.9752ZM47.0318 31.5326L39.7697 35.6801L38.5893 35.2702L45.999 31.0572C46.3432 31.2047 46.6875 31.3687 47.0318 31.5326Z" fill="#F1F1F3"/>
</g>
<path d="M37.9311 66.6701L38.6776 81.0254L40.9486 81.6615L37.9311 66.6701Z" fill="#D72F40"/>
<path d="M58.0391 71.8119L57.2894 86.2383L55.2236 85.6591L58.0391 71.8119Z" fill="#D72F40"/>
</svg>
