<svg width="100" height="100" viewBox="0 0 100 100" fill="none" xmlns="http://www.w3.org/2000/svg">
<path d="M53.55 82.2L70.35 72.45V75.75L53.55 85.5V82.2Z" fill="#454C51"/>
<path d="M31.35 69.45L48.3 59.7L70.35 72.45L53.55 82.2L31.35 69.45Z" fill="#4F545A"/>
<path d="M53.55 82.2V85.5L31.35 72.75V69.45L53.55 82.2Z" fill="#303538"/>
<path d="M55.5 72.6L58.35 70.95V76.5L55.5 78.3V72.6Z" fill="#61686B"/>
<path d="M40.5 63.9L43.5 62.25L58.35 70.95L55.5 72.6L40.5 63.9Z" fill="#6E7378"/>
<path d="M55.5 72.6V78.3L40.5 69.6V63.9L55.5 72.6Z" fill="#45474C"/>
<path d="M25.05 16.6875L24.9078 50.0998L71.25 76.7535V78.9375C71.25 80.4375 70.2 81.0375 68.85 80.2875L55.65 72.4875L40.65 63.7875L27.3 55.9875C25.95 55.2375 24.6562 53.3438 24.6562 51.8438L25.05 16.6875Z" fill="#5A6269"/>
<path d="M28.65 20.85L31.5 19.2V45.9L28.5 47.7L28.65 20.85Z" fill="#61686B"/>
<path d="M24.75 50.1L27.75 48.3L74.1 75.15L71.25 76.8L24.75 50.1Z" fill="#4F545A"/>
<path d="M28.5 47.7L31.5 45.9L70.35 68.4L67.5 70.2L28.5 47.7Z" fill="#6E7378"/>
<path d="M67.5 43.35V70.2L28.5 47.7V20.9062L67.5 43.35Z" fill="#EE4659"/>
<path d="M68.55 42.9V69.6L29.55 47.25L29.8125 21.375L68.55 42.9Z" fill="#EF5967"/>
<path d="M67.5 43.35L70.5 41.7L70.35 68.4L67.5 70.2V43.35Z" fill="#1693BA"/>
<path d="M28.65 20.85L31.5 19.2L70.5 41.7L67.5 43.35L28.65 20.85Z" fill="#15A4D0"/>
<path d="M69 39.6C70.35 40.35 71.4 42.15 71.4 43.65L71.25 76.8L24.75 50.1L24.9 16.8C24.9 15.3 25.95 14.7 27.3 15.45L69 39.6ZM67.5 70.2V43.35L28.5 20.85V47.7L67.5 70.2Z" fill="#5A6269"/>
<path d="M71.25 76.6875L74.3438 74.8125L74.3438 77.1563L71.25 78.975V76.6875Z" fill="#7E848A"/>
<path d="M71.25 43.65L74.8125 42L74.3438 74.8125L71.25 76.6875V43.65Z" fill="#7E848A"/>
<path d="M25.5 15.3L28.5 13.65C28.95 13.35 29.55 13.5 30.15 13.8L27.15 15.45C26.55 15.15 25.95 15.15 25.5 15.3Z" fill="#7E848A"/>
<path d="M27.15 15.45L30.15 13.8L71.85 37.95L69 39.6L27.15 15.45Z" fill="#7E848A"/>
<path d="M69 39.6L71.85 37.95C73.2 38.7 74.8125 40.5 74.8125 42L71.25 43.65C71.1 42.15 70.2 40.35 69 39.6Z" fill="#7E848A"/>
<path d="M70.5938 80.4375L73.5 78.75C73.8 78.45 74.1938 77.9063 74.3438 77.1563L71.25 78.975C71.1876 79.625 71.0645 79.9535 70.5938 80.4375Z" fill="#7E848A"/>
<path d="M57.15 50.55L58.65 49.65C59.25 49.35 60 49.35 60.9 49.8L59.4 50.7C58.5 50.25 57.75 50.25 57.15 50.55ZM63.15 57.45L61.65 58.35C62.25 58.05 62.55 57.3 62.55 56.25C62.55 54.3 61.2 51.75 59.4 50.7L60.9 49.8C62.7 50.85 64.05 53.25 64.05 55.35C64.05 56.4 63.6 57.15 63.15 57.45Z" fill="#91CA83"/>
<path d="M59.4 50.85C61.2 51.9 62.55 54.3 62.55 56.4C62.55 58.35 61.05 59.25 59.4 58.2C57.6 57.15 56.25 54.75 56.25 52.65C56.25 50.7 57.6 49.8 59.4 50.85Z" fill="#4CA56A"/>
<path d="M46.05 69.9L44.55 70.8C43.8 71.25 42.9 71.1 41.85 70.5C39.75 69.3 38.1 66.45 38.1 64.05L39.6 63.15C39.6 65.55 41.25 68.4 43.35 69.6C44.4 70.35 45.45 70.35 46.05 69.9Z" fill="#E9E9EA"/>
<path d="M46.8 71.25L45.3 72.15C46.2 71.7 46.65 70.5 46.65 69L48.15 68.1C48.3 69.75 47.7 70.8 46.8 71.25Z" fill="#D8D8D9"/>
<path d="M38.55 52.05C38.7 52.2 38.85 52.35 39.15 52.35C38.7 52.65 38.25 52.95 37.65 53.25C37.5 53.1 37.35 53.1 37.05 52.95C37.5 52.65 38.1 52.35 38.55 52.05Z" fill="#7E848A"/>
<path d="M38.25 53.55L39.6 52.65V63.15L38.25 64.05V53.55Z" fill="#E9E9EA"/>
<path d="M39.15 52.5C39.3 52.65 39.45 52.65 39.75 52.8L38.25 53.7C38.1 53.55 37.95 53.55 37.65 53.4C38.1 52.95 38.7 52.65 39.15 52.5Z" fill="#7E848A"/>
<path d="M30.0002 37.05L31.5002 36.15L31.6502 36.3L30.1502 37.2L30.0002 37.05Z" fill="#26BEEF"/>
<path d="M30.15 37.2L31.65 36.3L32.7 36.9L31.35 37.8L30.15 37.2Z" fill="#26BEEF"/>
<path d="M31.35 37.8L32.7 36.9L33 37.05L31.5 37.8H31.35Z" fill="#26BEEF"/>
<path d="M46.8 62.7L48.3 61.8V68.25L46.8 69V62.7Z" fill="#D8D8D9"/>
<path d="M43.05 51.15L41.55 52.05C40.5 52.65 39.3 52.5 37.65 51.6C33.3 49.05 31.5 43.2 31.5 38.4C31.5 38.25 31.5 37.95 31.5 37.8L33 36.9C33 37.05 33 37.35 33 37.5C33 42.3 34.95 48.15 39.15 50.7C40.8 51.75 42.15 51.75 43.05 51.15Z" fill="#2CA9E1"/>
<path d="M47.55 61.05L49.05 60.15C48.6 60.45 48.3 61.05 48.3 61.8L46.8 62.7C46.8 61.8 47.1 61.2 47.55 61.05Z" fill="#D8D8D9"/>
<path d="M53.25 66.45L54.75 65.55V67.05L53.25 67.8V66.45Z" fill="#E9E9EA"/>
<path d="M57.75 70.2L56.25 71.1C55.95 71.25 55.5 71.25 54.9 70.95C53.85 70.35 53.1 69 53.1 67.8L54.6 66.9C54.6 68.1 55.35 69.45 56.4 70.05C57 70.35 57.45 70.35 57.75 70.2ZM46.8 59.7L48.3 58.8C49.05 58.35 49.95 58.5 51 59.1C53.1 60.3 54.75 63.15 54.75 65.55L53.25 66.45C53.25 64.05 51.6 61.2 49.5 60C48.45 59.25 47.55 59.25 46.8 59.7ZM58.5 71.55L57 72.45C57.45 72.15 57.9 71.55 57.9 70.65L59.4 69.75C59.4 70.65 59.1 71.25 58.5 71.55Z" fill="#E9E9EA"/>
<path d="M43.95 45L45.45 44.25L45.6 44.4L44.1 45.15L43.95 45Z" fill="#26BEEF"/>
<path d="M44.1 45.15L45.6 44.4L46.65 45L45.3 45.75L44.1 45.15Z" fill="#26BEEF"/>
<path d="M45.3 45.75L46.65 45H46.8L45.45 45.9L45.3 45.75Z" fill="#26BEEF"/>
<path d="M44.1 52.95L42.6 53.85C44.25 52.8 45.3 50.4 45.3 46.5C45.3 46.35 45.3 46.05 45.3 45.9L46.8 45C46.8 45.15 46.8 45.45 46.8 45.6C46.8 49.5 45.9 52.05 44.1 52.95Z" fill="#26BEEF"/>
<path d="M45.45 45.9C45.45 46.05 45.45 46.35 45.45 46.5C45.45 52.95 42.6 55.65 38.25 53.55C38.1 53.4 37.95 53.4 37.65 53.25C37.35 53.1 37.35 53.1 37.05 52.95C32.7 50.1 29.85 44.1 30 37.65C30 37.5 30 37.2 30 37.05L30.15 37.2L31.2 37.8L31.35 37.95C31.35 38.1 31.35 38.4 31.35 38.55C31.35 43.35 33.3 49.2 37.5 51.75C41.85 54.3 43.8 50.55 43.8 45.75C43.8 45.6 43.8 45.3 43.8 45.15L43.95 45.3L45 45.9H45.45Z" fill="#26BEEF"/>
<path d="M57.9 56.85L59.4 56.1V69.75L57.9 70.5V56.85Z" fill="#E9E9EA"/>
<path d="M57.9 56.85V70.5C57.9 72.3 56.55 73.05 55.05 72.15C53.4 71.25 52.2 69 52.2 67.2V65.7C52.2 64.05 51 61.95 49.5 61.05C48 60.15 46.8 60.9 46.8 62.55V68.85C46.8 71.85 44.55 73.2 42 71.55C39.3 70.05 37.2 66.3 37.2 63.15V52.65C37.35 52.8 37.5 52.95 37.8 52.95C38.1 52.95 38.1 53.1 38.4 53.25V63.75C38.4 66.15 40.05 69 42.15 70.2C44.25 71.4 45.9 70.5 45.9 68.1V61.8C45.9 59.4 47.55 58.5 49.65 59.7C51.75 60.9 53.4 63.75 53.4 66.15V67.65C53.4 68.85 54.15 70.2 55.2 70.8C56.25 71.4 57 70.95 57 69.75V56.1L57.9 56.85Z" fill="#D2D2D2"/>
<path d="M56.85 56.25L58.35 55.35L59.4 56.1L57.9 56.85L56.85 56.25Z" fill="#7E848A"/>
<path d="M39.6 32.25L41.1 31.35C46.05 34.8 46.65 37.8 46.65 44.85L45.15 45.75C45.15 38.7 44.7 35.85 39.6 32.25Z" fill="#F0F0F2"/>
<path d="M39.6 32.25C44.55 35.7 45.15 38.7 45.15 45.75L44.1 45.15C44.1 38.25 43.65 36.3 39.45 33.45L39.6 32.25Z" fill="#D8D8D9"/>
<path d="M32.55 30.9L34.05 30C33 30.6 32.85 32.7 32.7 36.9L31.2 37.8C31.35 33.6 31.5 31.5 32.55 30.9Z" fill="#E9E9EA"/>
<path d="M35.85 30.15L37.2 29.25L37.35 30.6L36 31.35L35.85 30.15Z" fill="#D8D8D9"/>
<path d="M31.8 29.55L33.3 28.65C34.2 28.2 35.4 28.35 37.35 29.25L35.85 30.15C33.9 29.25 32.55 28.95 31.8 29.55Z" fill="#F0F0F2"/>
<path d="M30.15 37.2C30.15 30.15 30.75 27.9 35.85 30.15L36 31.5C31.95 29.7 31.35 30.9 31.35 37.8L30.15 37.2Z" fill="#D8D8D9"/>
<path d="M55.8 53.4L56.7 52.95C57 52.8 57.45 52.8 58.05 53.1L57.15 53.55C56.55 53.25 56.1 53.25 55.8 53.4Z" fill="#7DC071"/>
<path d="M59.25 57.45L58.35 57.9C58.65 57.75 58.95 57.3 58.95 56.7C58.95 55.5 58.2 54.15 57.15 53.55L58.05 53.1C59.1 53.7 59.85 55.05 59.85 56.25C59.7 56.85 59.55 57.15 59.25 57.45Z" fill="#7DC071"/>
<path d="M57.15 53.55C58.2 54.15 58.95 55.5 58.95 56.7C58.95 57.9 58.2 58.35 57.15 57.75C56.1 57.15 55.35 55.8 55.35 54.6C55.35 53.4 56.1 52.95 57.15 53.55Z" fill="#91CA83"/>
<path d="M36.15 32.25C37.227 32.25 38.1 31.3769 38.1 30.3C38.1 29.223 37.227 28.35 36.15 28.35C35.073 28.35 34.2 29.223 34.2 30.3C34.2 31.3769 35.073 32.25 36.15 32.25Z" fill="#7E848A"/>
<path d="M38.1 30.3C38.1 31.35 37.2 32.25 36.15 32.25C35.1 32.25 34.35 31.5 34.2 30.45C34.5 31.2 35.25 31.65 36 31.65C37.05 31.65 37.95 30.75 37.95 29.7V29.55C37.95 29.85 38.1 30.15 38.1 30.3Z" fill="#5A6269"/>
<path d="M40.8 34.65C41.877 34.65 42.75 33.777 42.75 32.7C42.75 31.623 41.877 30.75 40.8 30.75C39.723 30.75 38.85 31.623 38.85 32.7C38.85 33.777 39.723 34.65 40.8 34.65Z" fill="#7E848A"/>
<path d="M42.6 33.3C42.3 34.05 41.7 34.65 40.8 34.65C39.75 34.65 38.85 33.75 38.85 32.7C38.85 32.25 39 31.95 39.15 31.65C39 31.8 39 32.1 39 32.25C39 33.3 39.9 34.2 40.95 34.2C41.7 34.2 42.3 33.9 42.6 33.3Z" fill="#5A6269"/>
<path d="M43.2 33.6L42.3 34.65L41.85 35.1L41.1 34.65L41.4 33.6L42.75 32.7L43.2 33.6Z" fill="#D8D8D9"/>
<path d="M43.2 33.6L42.3 34.5C42.3 34.5 41.7 33.75 41.4 33.6L42.75 32.7L43.2 33.6Z" fill="#F0F0F2"/>
</svg>
