<svg width="100" height="100" viewBox="0 0 100 100" fill="none" xmlns="http://www.w3.org/2000/svg">
<path d="M9.168 47.008C9.168 45.424 9.696 44.368 10.576 43.84L48.592 21.664C47.712 22.192 47.184 23.248 47.184 24.832C47.184 27.12 48.24 29.584 50 31.52L11.984 53.696C10.224 51.76 9.168 49.296 9.168 47.008Z" fill="#69C4EF"/>
<path d="M50 31.52C50.704 32.224 51.408 32.928 52.288 33.456L92.24 56.688L54.224 78.864L14.096 55.632C13.216 55.104 12.512 54.576 11.808 53.696L50 31.52Z" fill="#7BD3F7"/>
<path d="M14.096 42.608C14.448 42.784 14.8 43.312 14.8 43.84C14.8 44.192 14.448 44.368 14.096 44.192C11.28 42.608 9.168 43.84 9.168 47.008C9.168 50.176 11.456 54.048 14.096 55.632L54.224 78.864V80.448L14.096 57.216C10.576 55.28 7.76 50.352 7.76 46.304C7.76 42.256 10.576 40.672 14.096 42.608Z" fill="#0092BF"/>
<path d="M9.696 42.256C10.928 41.552 12.512 41.728 14.272 42.608C14.624 42.784 14.976 43.312 14.976 43.84C14.976 44.016 14.976 44.192 14.8 44.192L52.64 22.192C52.816 22.192 52.816 22.016 52.816 21.84C52.816 21.488 52.464 20.96 52.112 20.608C50.352 19.552 48.768 19.552 47.536 20.256L9.696 42.256Z" fill="#69C4EF"/>
<path d="M92.24 56.688V58.272L54.224 80.448V78.864L92.24 56.688Z" fill="#69C4EF"/>
<path d="M14.448 42.784L52.464 20.784C52.64 20.96 52.816 21.488 52.816 21.84C52.816 22.016 52.816 22.192 52.64 22.192L14.624 44.368C14.8 44.368 14.8 44.192 14.8 44.016C14.8 43.488 14.624 43.136 14.448 42.784Z" fill="#14A0DB"/>
<path d="M74.464 52.288C74.288 52.464 73.936 52.464 73.76 52.288L68.656 49.296C68.48 49.12 68.48 48.944 68.656 48.944C68.832 48.768 69.184 48.768 69.36 48.944C73.584 51.408 75.168 51.76 74.464 52.288ZM72.88 52.816C73.056 52.992 73.056 53.168 72.88 53.168C72.704 53.344 72.352 53.344 72.176 53.168L67.072 50.176C66.896 50 66.896 49.824 67.072 49.824C67.248 49.648 67.6 49.648 67.776 49.824L72.88 52.816ZM71.296 53.696C71.472 53.872 71.472 54.048 71.296 54.048C70.592 54.4 70.416 53.696 65.488 51.056C65.312 50.88 65.312 50.704 65.488 50.704C65.664 50.528 66.016 50.528 66.192 50.704L71.296 53.696Z" fill="#14A0DB"/>
<path d="M26.064 50.704C26.24 50.528 26.592 50.528 26.768 50.704L30.112 52.64L40.32 46.656L38.736 45.776L37.152 44.896C36.976 44.72 36.976 44.544 37.152 44.544C37.328 44.368 37.68 44.368 37.856 44.544L39.44 45.424L55.28 47.536C55.456 47.536 55.456 47.536 55.632 47.536L55.808 47.712L59.504 56.864C60.912 57.744 62.32 58.096 61.616 58.448C61.44 58.624 61.088 58.624 60.912 58.448L58.624 57.216L57.04 56.336L46.832 62.32C49.824 64.256 51.408 64.608 50.704 64.96C50 65.312 49.472 64.608 46.128 62.672L41.904 65.136C41.728 65.312 41.376 65.312 41.2 65.136C41.024 64.96 41.024 64.784 41.2 64.784L45.424 62.32L39.968 59.152L35.744 56.688L30.288 53.52L26.064 55.984C25.888 56.16 25.536 56.16 25.36 55.984C25.184 55.808 25.184 55.632 25.36 55.632L29.584 53.168L26.24 51.232C25.888 51.056 25.888 50.88 26.064 50.704ZM58.096 55.984L54.928 47.888L40.848 45.952L58.096 55.984ZM39.968 58.448L43.488 56.336L40.144 54.4L36.624 56.512L39.968 58.448ZM35.92 55.984L39.792 53.696C39.968 53.52 40.32 53.52 40.496 53.696L44.72 56.16C44.896 56.336 44.896 56.512 44.72 56.688L40.848 58.976L45.952 61.968L56.16 55.984L41.2 47.36L30.992 53.344L35.92 55.984Z" fill="#14A0DB"/>
<path d="M46.304 71.648L81.328 51.408L87.312 54.928L52.288 74.992L46.304 71.648Z" fill="#F1F1F1"/>
<path d="M52.288 74.992V76.048L87.312 55.808V54.928L52.288 74.992Z" fill="#B0AFB0"/>
<path d="M46.304 71.648V72.704L52.288 76.048V74.992L46.304 71.648Z" fill="#686868"/>
<path d="M47.888 70.768L49.648 71.824L50 71.648L48.24 70.592L47.888 70.768Z" fill="#686868"/>
<path d="M50.352 69.36L51.408 69.888L51.936 69.712L50.88 69.008L50.352 69.36Z" fill="#686868"/>
<path d="M49.12 70.064L50.176 70.592L50.528 70.416L49.472 69.712L49.12 70.064Z" fill="#686868"/>
<path d="M52.992 67.776L54.752 68.832L55.28 68.656L53.52 67.6L52.992 67.776Z" fill="#686868"/>
<path d="M51.76 68.48L52.816 69.184L53.168 68.832L52.112 68.304L51.76 68.48Z" fill="#686868"/>
<path d="M56.864 65.488L57.92 66.192L58.448 65.84L57.392 65.312L56.864 65.488Z" fill="#686868"/>
<path d="M55.632 66.368L56.688 66.896L57.04 66.72L55.984 66.016L55.632 66.368Z" fill="#686868"/>
<path d="M54.4 67.072L55.28 67.6L55.808 67.424L54.752 66.72L54.4 67.072Z" fill="#686868"/>
<path d="M58.272 64.784L60.032 65.84L60.384 65.488L58.624 64.608L58.272 64.784Z" fill="#686868"/>
<path d="M60.736 63.2L61.792 63.904L62.32 63.728L61.264 63.024L60.736 63.2Z" fill="#686868"/>
<path d="M59.504 64.08L60.56 64.608L60.912 64.432L59.856 63.728L59.504 64.08Z" fill="#686868"/>
<path d="M62.144 62.496L63.2 63.2L63.552 62.848L62.496 62.32L62.144 62.496Z" fill="#686868"/>
<path d="M64.608 61.088L65.664 61.616L66.192 61.44L65.136 60.736L64.608 61.088Z" fill="#686868"/>
<path d="M63.376 61.792L65.136 62.848L65.664 62.496L63.728 61.616L63.376 61.792Z" fill="#686868"/>
<path d="M67.248 59.504L68.304 60.208L68.832 59.856L67.776 59.328L67.248 59.504Z" fill="#686868"/>
<path d="M66.016 60.208L67.072 60.912L67.424 60.736L66.368 60.032L66.016 60.208Z" fill="#686868"/>
<path d="M68.656 58.8L70.416 59.856L70.768 59.504L69.008 58.624L68.656 58.8Z" fill="#686868"/>
<path d="M71.12 57.216L72.176 57.92L72.704 57.744L71.648 57.04L71.12 57.216Z" fill="#686868"/>
<path d="M69.888 58.096L70.944 58.624L71.296 58.448L70.24 57.744L69.888 58.096Z" fill="#686868"/>
<path d="M73.76 55.808L75.52 56.864L75.872 56.512L74.112 55.632L73.76 55.808Z" fill="#686868"/>
<path d="M72.528 56.512L73.584 57.216L73.936 56.864L72.88 56.336L72.528 56.512Z" fill="#686868"/>
<path d="M74.992 55.104L76.048 55.632L76.576 55.456L75.52 54.752L74.992 55.104Z" fill="#686868"/>
<path d="M77.632 53.52L78.688 54.224L79.04 53.872L78.16 53.344L77.632 53.52Z" fill="#686868"/>
<path d="M76.4 54.224L77.456 54.928L77.808 54.752L76.752 54.048L76.4 54.224Z" fill="#686868"/>
<path d="M79.04 52.816L80.8 53.872L81.152 53.52L79.392 52.64L79.04 52.816Z" fill="#686868"/>
</svg>
