<svg width="100" height="100" viewBox="0 0 100 100" fill="none" xmlns="http://www.w3.org/2000/svg">
<rect width="100" height="100" fill="white"/>
<path d="M60.3907 67.6617C60.5321 67.6617 60.6735 67.5204 60.8148 67.5204L58.6943 68.7927C58.5529 68.9341 58.4115 68.9341 58.2701 68.9341C58.1288 68.9341 57.9874 68.9341 57.846 69.0754C57.1392 69.0754 56.4323 68.9341 55.8668 68.51C54.4531 67.6617 53.0394 66.1066 52.3325 64.1274C51.4843 62.0068 51.6256 60.0276 52.6153 59.1794C52.7566 59.038 52.898 59.038 53.0394 58.8967L55.16 57.6243C55.4427 57.4829 55.7254 57.3416 56.0082 57.3416C56.715 57.3416 57.2805 57.4829 57.9874 57.9071L55.8668 59.1794C55.3013 58.8967 54.7358 58.6139 54.3117 58.6139C53.8876 59.6035 53.8876 61.1586 54.4531 62.8551C55.16 64.8343 56.5737 66.3894 57.9874 67.2376C58.6943 67.6617 59.4011 67.8031 59.9666 67.8031C60.108 67.6617 60.2493 67.6617 60.3907 67.6617ZM53.8876 40.801C51.9084 38.3977 51.3429 35.1462 52.4739 33.5911C52.6153 33.3083 52.898 33.1669 53.0394 33.0256L55.16 31.7532C51.3429 34.0152 57.1392 43.7698 60.9562 41.6493L58.8356 42.7802C58.1288 43.2044 56.9978 43.063 56.0082 42.4975C55.1599 42.0734 54.4531 41.5079 53.8876 40.801ZM67.3179 58.3312C65.7629 59.038 64.7733 60.7345 62.3699 59.3208C60.108 58.0484 58.2701 54.9382 58.2701 52.2522C58.2701 50.9798 58.6943 50.1316 59.4011 49.7075L61.5217 48.4351C62.2286 48.011 63.2182 48.011 64.3491 48.7179L62.3699 49.8488C61.8044 49.5661 61.2389 49.2834 60.6735 49.2834C60.3907 49.7075 60.3907 50.273 60.3907 50.9798C60.3907 53.5245 62.2286 56.6347 64.4905 58.0484C65.6215 58.6139 66.6111 58.7553 67.3179 58.3312ZM46.9604 60.169C47.2431 60.169 47.5259 60.0276 47.8086 59.8863C47.6672 60.0276 47.5259 60.0276 47.3845 60.169L46.819 60.4518L45.688 61.1586C45.4053 61.3 45.1225 61.4414 44.8398 61.4414C44.2743 61.4414 43.5674 61.3 42.8606 60.8759C42.1537 60.4518 41.4469 59.8863 40.8814 59.038C38.9022 56.6347 38.3367 53.3831 39.4677 51.8281C39.609 51.5453 39.8918 51.4039 40.0331 51.2626L42.1537 49.9902C43.002 49.5661 43.9916 49.7075 45.1225 50.273L42.8606 51.5453C42.2951 51.2626 41.7296 50.9798 41.1641 50.9798C40.3159 52.6763 41.0227 55.6451 42.8606 57.9071C43.4261 58.7553 44.1329 59.3208 44.8398 59.7449C45.688 60.0276 46.3949 60.3104 46.9604 60.169ZM39.3263 44.4767C38.6194 44.9008 37.6298 44.9008 36.4988 44.194C34.2369 42.9216 32.399 39.8114 32.399 37.1254C32.399 36.4185 32.5404 35.9944 32.6818 35.4289C32.8232 35.2875 32.8232 35.1462 32.9645 35.0048C33.1059 34.8634 33.3887 34.5807 33.53 34.5807L35.6506 33.3083C35.6506 33.3083 35.6506 33.3083 35.5092 33.3083H35.6506C36.3575 32.8842 37.3471 32.8842 38.478 33.5911L36.3575 34.8634C35.792 34.5807 35.2265 34.2979 34.8024 34.2979C34.661 34.722 34.5196 35.2875 34.5196 35.9944C34.5196 38.5391 36.3575 41.6493 38.6194 43.063C39.7504 43.7698 40.74 43.7698 41.4469 43.3457L39.3263 44.4767ZM47.95 34.1565L45.8294 35.4289C45.5467 35.5703 45.2639 35.5703 44.9812 35.7116C44.2743 35.7116 43.7088 35.5703 43.002 35.1462C41.5882 34.2979 40.1745 32.7428 39.4677 30.7636C38.6194 28.643 38.7608 26.6638 39.7504 25.8156C39.8918 25.6742 40.0331 25.6742 40.1745 25.5329C43.1433 23.8364 42.1537 24.2605 41.871 24.5432C40.8814 25.3915 40.74 27.3707 41.5882 29.4913C42.2951 31.4705 43.7088 33.0256 45.1225 33.8738C45.9708 34.2979 46.9604 34.5807 47.95 34.1565Z" fill="#BC2B3B"/>
<path d="M49.5051 21.1503C37.0644 13.9404 27.027 19.7366 26.8856 34.0152C26.8856 48.2938 36.923 65.6825 49.3638 72.8925C61.8045 80.1025 71.8419 74.3062 71.9833 60.0277C71.9833 45.7491 61.9459 28.3603 49.5051 21.1503ZM49.3638 71.3374C37.6299 64.5516 28.158 48.2938 28.2993 34.8634C28.2993 21.4331 37.7713 16.0609 49.5051 22.7054C61.239 29.4913 70.5696 45.7491 70.5696 59.1794C70.5696 72.6098 60.9563 78.1233 49.3638 71.3374Z" fill="#BC2B3B"/>
<path d="M49.5051 22.7054C61.239 29.4913 70.5695 45.7491 70.5695 59.1794C70.5695 72.6098 61.0976 77.9819 49.3637 71.3374C37.6298 64.5516 28.1579 48.2938 28.2993 34.8634C28.2993 21.4331 37.7712 15.9196 49.5051 22.7054ZM46.3949 60.5931C47.5259 59.038 46.819 55.7865 44.9812 53.3832C44.2743 52.5349 43.7088 51.9694 43.002 51.5453C41.5883 50.6971 40.1745 50.8385 39.4677 51.8281C38.3367 53.3832 39.0436 56.6347 40.8814 59.038C41.5883 59.8863 42.1538 60.4518 42.8606 60.8759C44.2743 61.7241 45.6881 61.5827 46.3949 60.5931ZM57.8461 68.9341C59.8253 68.7927 60.5321 66.248 59.4011 63.4206C58.6943 61.4414 57.2806 59.8863 55.8668 59.038C55.16 58.6139 54.4531 58.4726 53.8876 58.4726C51.9084 58.6139 51.2016 61.1586 52.3325 63.9861C53.0394 65.9653 54.4531 67.5204 55.8668 68.3686C56.5737 68.7927 57.2806 68.9341 57.8461 68.9341ZM44.9812 35.5703C49.6465 35.1462 45.5467 24.6846 40.8814 25.1087C38.9022 25.2501 38.1953 27.7948 39.3263 30.6223C40.0332 32.6015 41.4469 34.1566 42.8606 35.0048C43.5675 35.4289 44.2743 35.7117 44.9812 35.5703ZM52.3325 33.4497C50.7774 35.7117 52.7567 40.6597 55.8668 42.4975C57.2806 43.3457 58.6943 43.2044 59.4011 42.2148C62.2286 38.3977 55.0186 29.774 52.3325 33.4497ZM62.37 59.1794C67.7421 62.2896 67.8835 52.959 62.37 49.8489C60.108 48.5765 58.2702 49.5661 58.2702 52.1108C58.2702 54.7969 60.108 57.9071 62.37 59.1794ZM32.3991 37.1254C32.3991 39.6701 34.2369 42.7803 36.4989 44.194C38.7608 45.4663 40.5987 44.4767 40.5987 41.932C40.5987 39.3873 38.7608 36.1358 36.4989 34.8634C34.2369 33.5911 32.3991 34.5807 32.3991 37.1254Z" fill="#DD454D"/>
<path d="M35.5093 18.4643L33.3887 19.7366C37.4885 17.3333 43.1433 17.7574 49.3637 21.2917C69.1558 32.7428 79.3346 66.3894 65.1974 74.589L67.318 73.3166C71.4178 70.9133 73.8211 65.9653 73.8211 58.8967C74.1038 35.853 49.7878 10.1233 35.5093 18.4643Z" fill="#EF5A5A"/>
<path d="M55.1599 61.5827C55.1599 71.196 48.374 75.1544 39.8917 70.2064C31.5508 65.3997 24.7649 53.6659 24.7649 44.0526C24.7649 34.4393 31.5508 30.4808 40.0331 35.4289C48.374 40.2355 55.1599 51.9694 55.1599 61.5827Z" fill="#4F4D4D"/>
<path d="M49.6463 29.774C45.4051 27.3707 41.5881 27.0879 38.902 28.7844L29.2887 34.4393C32.1161 32.8842 35.9332 33.0255 40.033 35.4289C48.3739 40.2355 55.1598 51.9694 55.1598 61.5827C55.1598 66.3894 53.4633 69.7823 50.7773 71.3374L60.3906 65.6825C69.8625 60.169 63.0766 37.5495 49.6463 29.774Z" fill="#686868"/>
<path d="M74.5282 66.3894L83.7174 61.0172L83.576 61.5827L74.3868 66.8135L74.5282 66.3894Z" fill="#3D3D3D"/>
<path d="M80.8898 56.7761C79.3347 54.2314 77.6382 51.6867 75.5176 49.7075C74.2453 48.5765 73.1143 47.5869 71.842 46.88C70.4283 46.0318 69.0145 45.4663 67.6008 44.9008C67.0353 44.6181 66.4698 44.4767 66.0457 44.194C65.1975 43.7698 64.4906 43.4871 63.7838 43.063C59.5426 40.6597 58.8357 38.6804 57.422 36.984C57.422 36.984 57.422 36.984 57.422 36.8426C53.0395 31.1877 44.9813 25.2501 38.9023 28.7844L37.0645 29.9154V34.0152C38.0541 34.2979 39.0437 34.8634 40.1746 35.4289C44.8399 38.115 55.1601 48.5765 55.1601 48.5765C55.7256 49.0006 56.4324 49.2833 57.1393 49.5661C57.7048 49.8488 58.2703 49.9902 58.6944 50.2729C60.1081 50.8384 61.5218 51.5453 62.9355 52.2522C68.8732 55.7865 70.711 60.8759 74.8108 66.3894L84 61.0172C82.7276 59.6035 81.8794 58.1898 80.8898 56.7761Z" fill="#BFBFBF"/>
<path d="M48.3743 42.0733C50.3535 45.4663 53.4637 47.8696 56.998 49.4247C57.5635 49.7074 57.9876 49.8488 58.5531 50.1316C59.9668 50.697 61.3805 51.4039 62.7943 52.1108C68.7319 55.5037 70.7111 60.8758 74.6695 66.248L74.3868 66.8135C70.287 61.1586 68.4491 56.0692 62.6529 52.6763C61.2392 51.828 59.8254 51.2625 58.5531 50.697C57.9876 50.4143 57.4221 50.2729 56.998 49.9902C56.1498 49.5661 55.4429 49.2833 54.7361 48.8592C51.6259 47.1627 49.5053 44.9008 47.9502 42.2147L48.3743 42.0733Z" fill="#4F4D4D"/>
<path d="M49.6466 74.589C49.788 74.589 49.9293 74.4476 50.0707 74.4476L47.9501 75.72C47.8088 75.8614 47.6674 75.8614 47.526 75.8614C47.3846 75.8614 47.2433 75.8614 47.1019 76.0027C46.395 76.0027 45.6882 75.8614 45.1227 75.4372C43.709 74.589 42.2952 73.0339 41.5884 71.0547C40.7402 68.9341 40.8815 66.9549 41.8711 66.1067C42.0125 65.9653 42.1539 65.9653 42.2952 65.8239L44.4158 64.5516C44.6986 64.4102 44.9813 64.2689 45.2641 64.2689C45.9709 64.2689 46.5364 64.4102 47.2433 64.8343L45.1227 66.1067C44.5572 65.8239 43.9917 65.5412 43.5676 65.5412C43.1435 66.5308 43.1435 68.0859 43.709 69.7824C44.4158 71.7616 45.8295 73.3167 47.2433 74.1649C47.9501 74.589 48.657 74.7304 49.2225 74.7304C49.3638 74.589 49.5052 74.589 49.6466 74.589ZM43.1435 47.5869C41.1643 45.1836 40.5988 41.9321 41.7298 40.377C41.8711 40.0942 42.1539 39.9529 42.2952 39.8115L44.4158 38.5391C44.1331 38.6805 43.9917 38.8219 43.8503 39.1046C42.7194 40.6597 43.4262 43.9113 45.2641 46.3146C45.9709 47.1628 46.5364 47.7283 47.2433 48.1524C48.3742 48.7179 49.3638 48.8593 50.0707 48.4352L47.9501 49.7075C47.2433 50.1316 46.1123 49.9903 45.1227 49.4248C44.4158 49.0007 43.709 48.4352 43.1435 47.5869ZM56.5738 65.1171L54.4532 66.3894C53.7464 66.8135 52.7568 66.8135 51.6258 66.1067C49.3638 64.8343 47.526 61.7242 47.526 59.0381C47.526 57.7657 47.9501 56.9175 48.657 56.4934L50.7776 55.221C51.4844 54.7969 52.474 54.7969 53.605 55.5038L51.4844 56.7761C50.9189 56.4934 50.3535 56.2106 49.788 56.2106C49.5052 56.6348 49.5052 57.2002 49.5052 57.9071C49.5052 60.4518 51.3431 63.562 53.605 64.9757C54.8774 65.5412 55.867 65.5412 56.5738 65.1171ZM36.2162 67.0963C36.499 67.0963 36.7817 66.9549 37.0645 66.8135C36.9231 66.9549 36.7817 66.9549 36.6404 67.0963L36.0749 67.379L35.0853 67.9445C34.8025 68.0859 34.5198 68.2273 34.237 68.2273C33.6715 68.2273 32.9647 68.0859 32.2578 67.6618C31.551 67.2377 30.8441 66.6722 30.2786 65.8239C28.2994 63.4206 27.7339 60.1691 28.8649 58.614C29.0063 58.3312 29.289 58.1899 29.4304 58.0485L31.551 56.7761C32.3992 56.352 33.3888 56.4934 34.5198 57.0589L32.3992 58.3312C31.8337 58.0485 31.2682 57.7657 30.7027 57.7657C29.8545 59.4622 30.5614 62.431 32.3992 64.693C32.9647 65.5412 33.6715 66.1067 34.3784 66.5308C34.8025 66.9549 35.5094 67.0963 36.2162 67.0963ZM28.4408 51.404C27.7339 51.8281 26.7443 51.8281 25.6133 51.1212C23.3514 49.8489 21.5135 46.7387 21.5135 44.0526C21.5135 43.3458 21.6549 42.9217 21.7963 42.3562C21.9377 42.2148 21.9377 42.0734 22.079 41.9321C22.2204 41.7907 22.5032 41.508 22.6445 41.508L24.7651 40.2356C24.7651 40.2356 24.7651 40.2356 24.6237 40.2356H24.7651C25.472 39.8115 26.4616 39.8115 27.5925 40.5183L25.472 41.7907C25.0479 41.3666 24.4824 41.2252 24.0582 41.2252C23.9169 41.6493 23.7755 42.2148 23.7755 42.9217C23.7755 45.4664 25.6133 48.5766 27.8753 49.9903C29.0063 50.6971 29.9959 50.6971 30.7027 50.273L28.4408 51.404ZM36.2162 41.2252C36.499 41.2252 36.7817 41.0838 37.0645 40.9425L34.9439 42.2148C34.6612 42.3562 34.3784 42.3562 34.0957 42.4976C33.3888 42.4976 32.8233 42.3562 32.1165 41.9321C30.7027 41.0838 29.289 39.5287 28.5822 37.5495C27.7339 35.429 27.8753 33.4497 28.8649 32.6015C29.0063 32.4601 29.1476 32.4601 29.289 32.3188C29.8545 31.8947 30.7027 31.4705 31.4096 31.0464C31.2682 31.1878 31.1269 31.1878 30.9855 31.3292C29.9959 32.1774 29.8545 34.1566 30.7027 36.2772C31.4096 38.2564 32.8233 39.8115 34.237 40.6597C34.9439 41.0838 35.6508 41.3666 36.2162 41.2252Z" fill="#BC2B3B"/>
<path d="M38.6195 28.0776C26.1788 20.8676 16.1414 26.6639 16 40.9424C16 55.221 26.0374 72.6098 38.4782 79.8198C50.9189 87.0297 60.9563 81.2335 61.0977 66.9549C61.0977 52.6763 51.0603 35.2876 38.6195 28.0776ZM38.4782 78.2647C26.8856 71.4788 17.4137 55.221 17.4137 41.7907C17.4137 28.3603 26.8856 22.9882 38.6195 29.6327C50.3534 36.4185 59.8253 52.6763 59.684 66.1067C59.684 79.537 50.212 85.0505 38.4782 78.2647Z" fill="#BC2B3B"/>
<path d="M38.6195 29.6327C50.3534 36.4185 59.8253 52.6763 59.6839 66.1067C59.6839 79.537 50.212 84.9091 38.4781 78.2647C26.8856 71.4788 17.4137 55.221 17.4137 41.7907C17.5551 28.3603 27.027 22.8468 38.6195 29.6327ZM35.6507 67.5204C36.7817 65.9653 36.0748 62.7137 34.237 60.3104C33.5301 59.4622 32.9646 58.8967 32.2578 58.4726C30.844 57.6243 29.4303 57.7657 28.7235 58.7553C27.5925 60.3104 28.2993 63.562 30.1372 65.9653C30.844 66.8135 31.4095 67.379 32.1164 67.8031C33.3887 68.6514 34.8025 68.51 35.6507 67.5204ZM47.1018 75.8613C49.081 75.72 49.7879 73.1753 48.6569 70.3478C47.9501 68.3686 46.5363 66.8135 45.1226 65.9653C44.4158 65.5412 43.7089 65.3998 43.1434 65.3998C41.1642 65.5412 40.4573 68.0859 41.5883 70.9133C42.2952 72.8925 43.7089 74.4476 45.1226 75.2959C45.6881 75.72 46.395 75.8613 47.1018 75.8613ZM34.237 42.4975C36.2162 42.3562 36.923 39.8115 35.7921 36.984C35.0852 35.0048 33.6715 33.4497 32.2578 32.6015C31.5509 32.1774 30.844 32.036 30.2786 32.036C28.2993 32.1774 27.5925 34.7221 28.7235 37.5495C29.4303 39.5287 30.844 41.0838 32.2578 41.932C32.8232 42.3562 33.5301 42.4975 34.237 42.4975ZM41.5883 40.3769C40.4573 41.932 41.1642 45.1836 43.002 47.5869C43.7089 48.4352 44.2744 49.0006 44.9812 49.4248C46.395 50.273 47.8087 50.1316 48.5155 49.142C49.6465 47.5869 48.9397 44.3354 47.1018 41.932C46.395 41.0838 45.8295 40.5183 45.1226 40.0942C43.7089 39.246 42.4365 39.3873 41.5883 40.3769ZM51.6257 66.1067C53.8877 67.379 55.7255 66.3894 55.7255 63.8447C55.7255 61.3 53.8877 58.0485 51.6257 56.7761C49.3638 55.5038 47.5259 56.4934 47.5259 59.0381C47.5259 61.7241 49.3638 64.8343 51.6257 66.1067ZM21.5135 44.0526C21.5135 46.5973 23.3513 49.7075 25.6133 51.1212C27.8752 52.3936 29.7131 51.404 29.7131 48.8593C29.7131 46.3146 27.8752 43.063 25.6133 41.7907C23.3513 40.5183 21.5135 41.5079 21.5135 44.0526Z" fill="#EF5A5A"/>
<path d="M40.74 26.8052C34.5197 23.2709 28.8648 22.9882 24.765 25.2501L22.6444 26.5225C26.7442 24.1192 32.3991 24.5433 38.6195 28.0776C51.0602 35.2876 61.0976 52.6763 61.0976 66.9549C61.0976 74.0235 58.5529 78.9715 54.5945 81.3748L56.7151 80.1025C60.8149 77.6992 63.2182 72.7511 63.2182 65.6825C63.2182 51.404 53.1808 34.0152 40.74 26.8052Z" fill="#EF5A5A"/>
</svg>
