<?xml version="1.0" encoding="utf-8"?>
<!-- Generator: Adobe Illustrator 23.0.2, SVG Export Plug-In . SVG Version: 6.00 Build 0)  -->
<svg version="1.1" id="Layer_1" xmlns="http://www.w3.org/2000/svg" xmlns:xlink="http://www.w3.org/1999/xlink" x="0px" y="0px"
	 viewBox="0 0 97.2 145" style="enable-background:new 0 0 97.2 128.5;" xml:space="preserve">
<style type="text/css">
	.st0{fill:#E5535C;}
	.st1{fill:#F3D77F;}
	.st2{opacity:8.000000e-02;enable-background:new    ;}
	.st3{fill:#303538;}
	.st4{fill:#BCBBBB;}
	.st5{fill:#50565C;}
	.st6{fill:#8ED1F2;}
	.st7{fill:#D9D9DB;}
	.st8{fill:#393F42;}
	.st9{fill:#ADDFF7;}
	.st10{fill:#59ACDD;}
	.st11{fill:#3795C4;}
	.st12{fill:#9E9E9E;}
</style>
<rect y="54.2" class="st0" width="7.9" height="42"/>
<rect y="7.2" class="st0" width="7.9" height="56.1"/>
<polygon class="st1" points="7.9,96.5 4,107.2 0,96.5 "/>
<ellipse class="st0" cx="4" cy="96.2" rx="4" ry="3.8"/>
<ellipse class="st1" cx="4" cy="7.2" rx="4" ry="3.8"/>
<rect y="7.2" class="st1" width="7.9" height="3.8"/>
<rect y="63.2" class="st1" width="7.9" height="3.4"/>
<polygon class="st1" points="7.9,16.5 11,20.5 11,39.7 9.5,39.7 9.5,24.7 7.9,25.6 "/>
<ellipse class="st1" cx="10.2" cy="39.7" rx="1.3" ry="1.8"/>
<path class="st2" d="M5.7,3.8v95.7c0,0-5.3,1.8-5.7-3.4v-89C0,7.2,0.3,2.3,5.7,3.8z"/>
<path class="st2" d="M5.7,99.5L4,107.2L0,96.3C0,96.2,0.3,101.2,5.7,99.5z"/>
<path class="st3" d="M94.6,125.7L35.7,98.7c-1.5-0.7-2.8-2.6-2.8-4.4L32.8,5c0-1.8,1.2-2.5,2.8-1.9l58.7,27.1
	c1.5,0.7,2.8,2.6,2.8,4.4l0.1,89.3C97.2,125.6,96,126.5,94.6,125.7z"/>
<polygon class="st4" points="43,17.1 49.5,8.9 78.3,22.7 84.8,37 "/>
<ellipse transform="matrix(0.8687 -0.4953 0.4953 0.8687 0.5063 33.8432)" class="st4" cx="64.1" cy="16" rx="4.7" ry="7.3"/>
<path class="st3" d="M36.2,0"/>
<polygon class="st4" points="57.4,10.8 61,9.5 63.8,11.4 60.6,13.2 "/>
<polygon class="st3" points="29.9,5.6 34.1,3.1 34.1,8.5 "/>
<polygon class="st3" points="92.2,128.2 96.5,125.7 92.2,122.7 "/>
<polygon class="st4" points="45.8,10.2 49.5,8.9 50.2,16.5 "/>
<path class="st5" d="M90.3,128.2l-58.6-27.1c-1.5-0.7-2.8-2.6-2.8-4.4L28.8,7.5c0-1.8,1.2-2.5,2.8-1.9l58.7,27.1
	c1.5,0.7,2.8,2.6,2.8,4.4l0.1,89.3C93.1,128.1,91.9,129,90.3,128.2z"/>
<polygon class="st6" points="88.1,121.9 34.1,97.1 34.1,11.9 88,36.7 "/>
<polygon class="st7" points="39.1,18.4 45.8,10.2 76.1,24.3 83,38.8 "/>
<ellipse transform="matrix(0.8687 -0.4953 0.4953 0.8687 -0.5427 32.4888)" class="st7" cx="61" cy="17.3" rx="4.7" ry="7.3"/>
<ellipse transform="matrix(0.8687 -0.4953 0.4953 0.8687 -0.5427 32.4888)" class="st8" cx="61" cy="17.3" rx="1.9" ry="3.1"/>
<polygon class="st4" points="39.1,18.4 40,17.1 82,36.5 83,38.8 "/>
<ellipse transform="matrix(0.8687 -0.4953 0.4953 0.8687 -13.0341 30.1351)" class="st9" cx="50.3" cy="39.7" rx="8.5" ry="13.3"/>
<polygon class="st10" points="79.6,74.5 40.4,56.4 40.4,54.3 79.6,72.5 "/>
<polygon class="st10" points="79.6,81.7 40.4,63.5 40.4,61.5 79.6,79.6 "/>
<polygon class="st10" points="79.6,88.7 40.4,70.7 40.4,68.7 79.6,86.8 "/>
<polygon class="st10" points="79.6,95.9 40.4,77.9 40.4,75.7 79.6,94 "/>
<polygon class="st10" points="59.1,93.5 40.4,85.1 40.4,82.9 59.1,91.6 "/>
<g id="srteEo.tif">
	<path class="st11" d="M55.3,46.6c-0.1,0.1-0.3,0.1-0.4,0.1c-3.1-1.5-6.3-2.9-9.4-4.4c-0.3-0.1-0.4-0.4-0.4-0.9
		c0.1-0.9,0.4-1.8,1.2-2.5c0.4-0.4,0.9-0.6,1.5-0.7c0.1,0,0.1,0,0.3,0.1c0.4,0.7,1.2,1.3,1.8,1.8c1.2,0.7,2,0.7,2.8,0.3
		c0.1,0,0.1,0,0.1,0.1c1.2,1.2,1.9,2.6,2.3,4.2c0.1,0.4,0.1,0.9,0.3,1.3C55.3,46.3,55.3,46.6,55.3,46.6z"/>
	<path class="st11" d="M47.3,35c0-1.9,1.3-2.8,2.9-2c1.6,0.7,2.9,2.8,2.9,4.7c0,1.8-1.3,2.8-2.9,2C48.6,39.1,47.3,36.9,47.3,35z"/>
</g>
<path d="M29.9,5.6"/>
<path class="st4" d="M82,36.5"/>
<polygon class="st4" points="83,38.8 84.8,37 78.3,22.7 76.1,24.3 "/>
<polygon class="st12" points="82,36.5 83.7,34.8 84.8,37 83,38.8 "/>
</svg>
