<svg width="100" height="100" viewBox="0 0 100 100" fill="none" xmlns="http://www.w3.org/2000/svg">
<rect width="100" height="100" fill="white"/>
<path d="M43.608 24.9723C43.6055 24.9552 43.6055 24.9378 43.608 24.9206V13.0572C43.6086 12.1095 44.024 11.3262 44.7489 10.9089C45.4739 10.4892 46.36 10.5219 47.1797 10.9951L57.3699 16.8788C58.5526 17.5619 59.4086 19.0486 59.408 20.4105L59.4086 32.1822C59.4172 32.2331 59.4172 32.2851 59.4086 32.336V32.4677H59.3748C59.3096 32.6283 59.1754 32.7809 58.9619 32.9046C58.3496 33.2566 57.3446 33.2566 56.7317 32.9046C56.3083 32.6585 56.1834 32.3089 56.3434 31.9988V20.4099C56.3434 20.1477 56.064 19.6646 55.8363 19.5329L46.672 14.2419V24.6702C46.8455 24.9852 46.7237 25.3428 46.2929 25.5902C45.6819 25.9428 44.6775 25.9428 44.064 25.5902C43.832 25.456 43.688 25.2899 43.632 25.1157H43.6086V24.9723H43.608Z" fill="#03896F"/>
<path d="M43.9225 11.7575C44.4012 11.7317 44.904 11.8517 45.3852 12.1305L55.5742 18.0123C56.7569 18.6966 57.6142 20.1822 57.6135 21.5465L57.6142 33.1545C57.2905 33.128 56.9785 33.0449 56.7317 32.9034C56.3083 32.6572 56.1834 32.3077 56.3434 31.9975V20.4098C56.3434 20.1477 56.064 19.6646 55.8363 19.5329L46.672 14.2418V23.9342L44.8775 25.8055C44.8843 25.8178 44.8874 25.8289 44.8917 25.8412C44.5883 25.8092 44.2972 25.7255 44.0634 25.5908C43.8314 25.4566 43.6874 25.2905 43.6314 25.1163H43.608V24.9723C43.6055 24.9552 43.6055 24.9378 43.608 24.9206V13.0572C43.608 12.5711 43.7188 12.1311 43.9225 11.7575V11.7575Z" fill="#0D9E6A"/>
<path d="M62.7313 86.5178C55.7027 89.8213 44.234 89.8275 37.2371 86.5356C33.5083 84.7844 31.7732 82.4439 32.0237 80.1459V71.6625L48.3358 64L58.0362 68.4316L50.0724 72.173C54.346 72.1736 58.6113 72.8737 61.9928 74.2697L67.9886 71.4501L67.9947 80.2733L67.9917 80.2758C68.1369 82.5221 66.386 84.8004 62.7313 86.5178V86.5178Z" fill="#0CAF71"/>
<path d="M37.4145 86.5511C37.2731 86.4856 37.1384 86.4153 37.0015 86.3461L37 71.244L50.2984 65L58.0937 68.5595L50.1757 72.2775C54.4247 72.2781 58.6654 72.9739 62.0274 74.3611L67.9886 71.5591L67.9946 80.3273L67.9916 80.3297C68.1368 82.562 66.396 84.8261 62.7624 86.5327C55.7743 89.8163 44.371 89.8224 37.4145 86.5511V86.5511Z" fill="#0D9E6A"/>
<path d="M67.9917 80.55C68.1361 82.7261 66.4046 84.9333 62.7905 86.597C59.0185 88.3341 53.9513 89.1287 49.0007 88.9831L49 74.6492L53.0099 72.8035C56.2866 73.0332 59.4428 73.6727 62.0594 74.7315L67.9887 72L67.9909 72.9467L62.1036 75.6567C64.0999 75.6567 66.0911 75.8142 67.9917 76.116L67.9947 80.5482L67.9917 80.55V80.55Z" fill="#03896F"/>
<path d="M62.7556 66.4608C55.7594 63.1734 44.288 63.1815 37.2789 66.4745C30.2501 69.7775 30.2456 75.1902 37.2342 78.513C44.238 81.8372 55.7102 81.826 62.7239 78.4975C69.7428 75.164 69.764 69.7495 62.7556 66.4608V66.4608Z" fill="#88C420"/>
<path d="M37 78.4342C44.0573 81.8637 55.6173 81.8521 62.6845 78.4182C69.7555 74.9797 69.7777 69.3929 62.7158 66" fill="#12AF51"/>
<path d="M59.9238 67.025C54.479 64.3195 45.56 64.3253 40.1026 67.0405C34.6422 69.7562 34.6319 74.2164 40.0752 76.9528C45.5193 79.6879 54.4383 79.6814 59.8979 76.9392C65.356 74.1938 65.3701 69.733 59.9238 67.025Z" fill="#1E3951"/>
<path d="M40.4258 77.0684C38.7851 76.2863 37.6449 75.3565 37 74.3659C37.5027 73.1022 38.7814 71.8963 40.8385 70.9252C46.2727 68.3632 55.1526 68.3577 60.5757 70.9124C62.2141 71.6865 63.3544 72.6109 64 73.5978C63.4966 74.8639 62.2178 76.0753 60.1615 77.0562C54.7258 79.6432 45.846 79.6486 40.4258 77.0684V77.0684Z" fill="#132C3F"/>
<path d="M40 76.9485C45.4612 79.6893 54.4082 79.6829 59.885 76.9349C65.3603 74.1838 65.3744 69.7137 59.911 67" fill="#102433"/>
<path d="M60.514 70.4412C62.182 71.2602 63.3427 72.2382 64 73.2811C64 73.2811 64 73.2824 63.9985 73.2824C63.9286 73.4655 63.8449 73.6446 63.7479 73.8184C63.6648 73.9734 63.5718 74.1243 63.4695 74.2707C63.468 74.272 63.468 74.2732 63.468 74.2745C63.3595 74.4271 63.2429 74.5752 63.1184 74.7185L63.0501 74.7963C62.9222 74.9425 62.7867 75.0838 62.6442 75.2197C62.6427 75.2229 62.6397 75.2242 62.6359 75.2267C62.4903 75.3664 62.329 75.5034 62.1617 75.6385C62.1264 75.6688 62.0889 75.6971 62.0506 75.726C61.8848 75.8573 61.7092 75.9872 61.5239 76.1146L61.5119 76.1223C61.3221 76.2504 61.1202 76.3758 60.9109 76.4968C60.8606 76.527 60.8088 76.556 60.7571 76.5862C60.5455 76.7078 60.3241 76.8275 60.0915 76.9427C54.5579 79.6803 45.5179 79.6867 40 76.9562L56.1561 69C57.7393 69.3346 59.2242 69.812 60.514 70.4412V70.4412Z" fill="#1E3951"/>
<path d="M57.7964 68.4479C53.5198 66.5132 46.5096 66.5183 42.2226 68.4574C37.9349 70.3972 37.9237 73.5834 42.2018 75.5371C46.48 77.4895 53.4886 77.4889 57.778 75.5276C62.0673 73.5682 62.0745 70.3813 57.7964 68.4479V68.4479Z" fill="#284A63"/>
<path d="M57.9113 76C62.0231 73.9321 62.0301 70.5687 57.929 68.5281C53.8295 66.4863 47.1095 66.4916 43 68.5382" fill="#335A72"/>
<path d="M43 75.6315C47.0965 77.4579 53.8075 77.4573 57.9148 75.6227C62.022 73.7897 62.0289 70.8086 57.9324 69" fill="#143F59"/>
<path d="M67.4526 69.0628H67.008C66.2975 67.5951 64.7333 66.2013 62.3068 65.0591C55.4759 61.8449 44.4392 61.8449 37.6528 65.0591C35.2415 66.2006 33.6976 67.5951 33.0076 69.0628H32.5787V70.8493H32.5908C32.5901 72.9649 34.3053 75.0831 37.7359 76.6985C44.5637 79.9126 55.6028 79.9139 62.3868 76.6985C65.797 75.0843 67.4821 72.9662 67.4511 70.8493H67.4526V69.0628V69.0628Z" fill="#0D9E6A"/>
<path d="M62.3076 65.0591C55.5031 61.856 44.5283 61.845 37.7359 65.0216V76.6985C44.5638 79.9126 55.6028 79.9139 62.3869 76.6985C65.797 75.0843 67.4821 72.9662 67.4511 70.8493H67.4526V69.0628H67.008C66.2976 67.5951 64.7333 66.2006 62.3076 65.0591V65.0591Z" fill="#03896F"/>
<path d="M62.3118 63.4966C55.4809 60.2813 44.4442 60.2813 37.6578 63.4966C30.8737 66.7108 30.9092 71.9219 37.7401 75.136C44.568 78.349 55.607 78.3508 62.3911 75.1373C69.1774 71.9219 69.1397 66.7102 62.3118 63.4966Z" fill="#88C420"/>
<path d="M62.3076 63.4966L37.7359 75.136C44.5638 78.349 55.6028 78.3508 62.3869 75.1373C69.1732 71.9219 69.1355 66.7102 62.3076 63.4966Z" fill="#12AF51"/>
<path opacity="0.3" d="M64.0583 67.4H35.9828V74.1754C36.5385 74.5289 37.124 74.8499 37.7351 75.136C44.563 78.349 55.602 78.3508 62.3861 75.1373C62.9681 74.8624 63.5266 74.5557 64.0576 74.2191V67.4H64.0583Z" fill="#D6931D"/>
<path d="M63.9239 68.1877V32.8271H35.7993V68.1871C35.6823 69.9563 37.0375 71.7422 39.8905 73.0849C45.376 75.6653 54.348 75.6653 59.8328 73.0849C62.6843 71.7422 64.0387 69.9563 63.9239 68.1877Z" fill="#FFA300"/>
<path d="M63.9224 68.1877V32.8271H39.889V73.0849C45.3745 75.6653 54.3465 75.6653 59.8313 73.0849C62.6828 71.7422 64.0372 69.9563 63.9224 68.1877Z" fill="#E27310"/>
<path opacity="0.3" d="M59.9113 73.0431C62.7047 71.704 64.0365 69.9373 63.9225 68.1871V32.8271H59.9113V73.0431Z" fill="#9E5A00"/>
<path d="M59.829 63.6825C54.3465 61.1046 45.373 61.1046 39.889 63.6825C34.4057 66.2658 34.4057 70.488 39.889 73.0683C45.3746 75.6498 54.3465 75.6498 59.8313 73.0683C65.3146 70.488 65.3146 66.2665 59.829 63.6825Z" fill="#FFB600"/>
<path opacity="0.1" d="M39.889 73.0683C45.3745 75.6498 54.3465 75.6498 59.8313 73.0683C65.3146 70.488 65.3146 66.2659 59.829 63.6825" fill="#993D14"/>
<path d="M54.6047 66.1416C51.9955 64.9151 47.7247 64.9151 45.1141 66.1416C42.5027 67.3705 42.5027 69.3822 45.1141 70.6105C47.7247 71.8388 51.9955 71.8388 54.607 70.6105C57.2169 69.3822 57.2169 67.3711 54.6047 66.1416Z" fill="#DBB516"/>
<path d="M67.4526 32.9902H67.008C66.2975 31.5231 64.7333 30.1286 62.3068 28.9865C55.4759 25.7723 44.4392 25.7723 37.6528 28.9865C35.2415 30.128 33.6976 31.5231 33.0076 32.9902H32.5787V34.7773H32.5908C32.5901 36.8936 34.3053 39.0105 37.7359 40.6259C44.5637 43.84 55.6028 43.8413 62.3868 40.6259C65.797 39.0117 67.4821 36.8942 67.4511 34.7773H67.4526V32.9902V32.9902Z" fill="#0D9E6A"/>
<path d="M62.3076 28.9871C55.5031 25.7846 44.5283 25.7729 37.7359 28.9496V40.6265C44.5638 43.8406 55.6028 43.8419 62.3869 40.6265C65.797 39.0123 67.4821 36.8948 67.4511 34.7779H67.4526V32.9908H67.008C66.2976 31.5237 64.7333 30.1286 62.3076 28.9871Z" fill="#03896F"/>
<path d="M62.3118 27.424C55.4809 24.2086 44.4442 24.2086 37.6578 27.424C30.8737 30.6382 30.9092 35.8492 37.7401 39.0634C44.568 42.2769 55.607 42.2788 62.3911 39.0646C69.1774 35.8498 69.1397 30.6382 62.3118 27.424" fill="#88C420"/>
<path d="M62.3076 27.424L37.7359 39.064C44.5638 42.2775 55.6028 42.2794 62.3869 39.0652C69.1732 35.8499 69.1355 30.6382 62.3076 27.424V27.424Z" fill="#12AF51"/>
<path opacity="0.3" d="M64.0583 31.328H35.9828V38.1034C36.5381 38.4572 37.1237 38.7782 37.7351 39.064C44.563 42.2775 55.602 42.2794 62.3861 39.0652C62.9684 38.7908 63.5269 38.484 64.0576 38.1471V31.328H64.0583Z" fill="#D6931D"/>
<path d="M64.0583 30.896C64.0583 35.3028 57.774 38.4037 50.0206 38.4037C42.2687 38.4037 35.9828 35.3028 35.9828 30.896C35.9828 26.4898 42.2687 21.0911 50.0206 21.0911C57.774 21.0911 64.0583 26.4898 64.0583 30.896V30.896Z" fill="#D18813"/>
<path d="M64.1351 30.9391C64.1351 35.3453 57.8508 38.4462 50.0974 38.4462C42.3447 38.4462 36.0596 35.3453 36.0596 30.9391C36.0596 26.533 42.3447 21.1348 50.0974 21.1348C57.8508 21.1354 64.1351 26.533 64.1351 30.9391Z" fill="#88C420"/>
<path d="M54.5737 22.6026C53.1461 21.6629 51.6135 21.0943 50.0206 21.0943C42.2686 21.0943 35.9828 26.4925 35.9828 30.8992C35.9828 35.306 42.2686 38.4069 50.0206 38.4069C50.9356 38.4069 51.8272 38.3534 52.6924 38.258" fill="#B6ED2F"/>
<path d="M54.5738 22.6C53.1461 21.6603 51.6136 21.0917 50.0206 21.0917C49.0127 21.0917 48.0298 21.32 47.0815 21.7237C43.115 27.3305 41.2691 29.9157 41.2691 33.1095C41.2691 34.9175 42.3275 36.504 44.11 37.7477C45.9068 38.1717 47.9075 38.4037 50.0206 38.4037C50.9356 38.4037 51.8272 38.3502 52.6924 38.2548" fill="#9DD82A"/>
<path opacity="0.3" d="M50.0206 36.6794C42.2687 36.6794 35.9828 35.3034 35.9828 30.8966C35.9828 35.3034 42.2687 38.4043 50.0206 38.4043C57.774 38.4043 64.0583 35.3034 64.0583 30.8966C64.0583 35.3028 57.774 36.6794 50.0206 36.6794V36.6794Z" fill="#27AD1F"/>
<path d="M39.1742 79.6849C40.3994 80.3914 41.4 82.1212 41.3994 83.5299C41.3994 84.28 41.1169 84.792 40.6683 85.0012L39.0954 85.9096L36.2529 84.2683L36.2302 82.3311L37.6173 83.1317C37.2456 82.4868 37.0031 81.768 36.9674 81.1089L35.9225 80.5058L37.5582 79.56V79.5612C37.9631 79.2966 38.5385 79.3175 39.1742 79.6849V79.6849Z" fill="#03896F"/>
<path d="M41.3994 83.5298C41.3994 83.5588 41.3982 83.5865 41.3975 83.6154L38.5791 85.2418L36.2486 83.8966L36.2308 82.3305L37.6179 83.1311C37.2462 82.4861 37.0037 81.7674 36.968 81.1083L35.9231 80.5052L37.5588 79.5594V79.5606C37.9631 79.2972 38.5385 79.3175 39.1742 79.6855C40.3994 80.392 41.4 82.1212 41.3994 83.5298V83.5298Z" fill="#0D9E6A"/>
<path d="M37.5588 79.56C37.9631 79.2966 38.5385 79.3169 39.1742 79.6849C39.84 80.0683 40.4382 80.7545 40.8462 81.5255L38.1034 83.1095L37.3969 82.7015C37.1526 82.176 36.9963 81.6234 36.9686 81.1077L35.9237 80.5046L36.1046 80.4L37.1428 80.9994C36.9683 80.6975 36.8238 80.3793 36.7114 80.0492L37.56 79.5588V79.56H37.5588Z" fill="#12AF51"/>
<path d="M35.3237 81.912C35.3305 83.3157 36.3311 85.0468 37.5465 85.7557C38.7643 86.4658 39.7588 85.8942 39.7594 84.4868C39.7594 83.0782 38.7575 81.3471 37.536 80.6418C36.3126 79.936 35.3175 80.5058 35.3237 81.912V81.912Z" fill="#9DD82A"/>
<path d="M39.7594 84.4868C39.7594 83.0782 38.7575 81.3471 37.536 80.6419C36.3126 79.9366 35.3175 80.5059 35.3237 81.912" fill="#88C420"/>
<path d="M52.3219 64.112H47.4597V68.0917H47.4622C47.4923 68.4271 47.728 68.7581 48.1693 69.0123C49.1157 69.5594 50.6653 69.5594 51.6129 69.0123C52.0542 68.7581 52.2899 68.4271 52.3188 68.0917H52.3219V64.112Z" fill="#A4BCBB"/>
<path d="M47.6862 68.3772V68.4714H47.6898C47.6954 68.5348 47.7077 68.5969 47.7262 68.6609C47.8388 68.7871 47.9865 68.9065 48.1699 69.0117C49.1163 69.5588 50.6659 69.5588 51.6136 69.0117C52.0548 68.7575 52.2905 68.4265 52.3194 68.0911H52.3225V64.1114H47.6862V68.3772V68.3772Z" fill="#74918E"/>
<path d="M47.9809 68.68V68.8037H47.9858C47.9883 68.8363 47.9932 68.8689 47.9988 68.9022C48.0523 68.9397 48.1089 68.9766 48.1698 69.0117C49.1163 69.5588 50.6658 69.5588 51.6135 69.0117C52.0548 68.7575 52.2905 68.4265 52.3194 68.0911H52.3225V64.1114H47.9809V68.68Z" fill="#526D6A"/>
<path d="M49.8499 69.1446C49.8492 69.1569 49.8492 69.1692 49.8499 69.1815V69.296H49.8548C49.8585 69.3354 49.8634 69.3754 49.8702 69.4154L49.8812 69.4227C50.5083 69.4246 51.1366 69.2874 51.6129 69.0123C52.0542 68.7581 52.2899 68.4271 52.3188 68.0917H52.3219V64.112H49.8492V69.1446H49.8499Z" fill="#3C5652"/>
<path d="M51.6129 63.0197C50.6652 62.4726 49.1157 62.4726 48.1692 63.0197C47.2222 63.5662 47.2222 64.4603 48.1692 65.0068C48.9791 65.4745 50.2289 65.5422 51.1649 65.2105C51.3243 65.1533 51.4751 65.0862 51.6129 65.0068C52.5581 64.4603 52.5581 63.5662 51.6129 63.0197V63.0197Z" fill="#BCCECC"/>
<path d="M48.1693 65.0074C48.9791 65.4751 50.2289 65.5428 51.1649 65.2111C51.3243 65.1539 51.4751 65.0868 51.6129 65.0074C52.5582 64.4603 52.5582 63.5662 51.6129 63.0203" fill="#A4BCBB"/>
<path d="M53.2794 63.304H46.5022V63.8271L46.5071 63.9483C46.5348 64.4277 46.8609 64.9015 47.4923 65.2671C48.8117 66.0283 50.9699 66.0283 52.2899 65.2671C52.9206 64.9015 53.2468 64.4283 53.2745 63.9483L53.28 63.8271V63.304H53.2794Z" fill="#232B2A"/>
<path d="M47.4923 65.2671C48.8117 66.0283 50.9699 66.0283 52.2899 65.2671C52.9206 64.9015 53.2468 64.4283 53.2745 63.9483L53.28 63.8271V63.304H47.493V65.2671H47.4923Z" fill="black"/>
<path d="M52.2899 61.9748C50.9699 61.2129 48.8117 61.2129 47.4923 61.9748C46.1717 62.7366 46.1717 63.9834 47.4923 64.7452C48.8117 65.5058 50.9699 65.5058 52.2899 64.7452C53.6092 63.9834 53.6092 62.7366 52.2899 61.9748Z" fill="#2D3534"/>
<path d="M52.2899 61.9748C50.9699 61.2129 48.8117 61.2129 47.4923 61.9748Z" fill="#C7D8D5"/>
<path d="M47.4923 64.7452C48.8117 65.5059 50.9699 65.5059 52.2899 64.7452C53.6099 63.9834 53.6099 62.7366 52.2899 61.9748" fill="#232B2A"/>
<path d="M51.9385 62.1779C50.8117 61.5274 48.9699 61.5274 47.8437 62.1779C46.7163 62.8283 46.7163 63.8905 47.8437 64.541C48.9699 65.1926 50.8117 65.1926 51.9385 64.541C53.0646 63.8905 53.0646 62.8283 51.9385 62.1779Z" fill="#90AFAD"/>
<path d="M51.816 62.3471C50.7563 61.7366 49.0252 61.7366 47.9655 62.3471C46.9058 62.9587 46.9058 63.9587 47.9655 64.5704C49.0252 65.1821 50.7563 65.1821 51.816 64.5704C52.8751 63.9594 52.8751 62.9594 51.816 62.3471Z" fill="#7A9E9A"/>
<path d="M47.9655 64.5711C49.0252 65.1828 50.7563 65.1828 51.816 64.5711C52.8751 63.9594 52.8751 62.9594 51.816 62.3477" fill="#6A918B"/>
<path d="M52.8326 62.8474H46.9502V63.3009L46.9539 63.4055C46.9785 63.8215 47.2616 64.2351 47.8093 64.5502C48.9545 65.2111 50.8283 65.2111 51.9742 64.5502C52.5213 64.2345 52.8037 63.8209 52.8277 63.4055L52.8332 63.3009V62.8474H52.8326Z" fill="#232B2A"/>
<path d="M47.8086 64.5502C48.9539 65.2111 50.8277 65.2111 51.9735 64.5502C52.5206 64.2345 52.8031 63.821 52.8271 63.4056L52.8326 63.3009V62.848H47.8092V64.5502H47.8086Z" fill="black"/>
<path d="M51.9736 61.6923C50.8283 61.0314 48.9545 61.0314 47.8086 61.6923C46.6628 62.3545 46.6628 63.4351 47.8086 64.0966C48.9539 64.7581 50.8277 64.7581 51.9736 64.0966C53.1194 63.4351 53.1188 62.3545 51.9736 61.6923Z" fill="#2D3534"/>
<path d="M51.9735 61.6923C50.8283 61.0314 48.9545 61.0314 47.8086 61.6923Z" fill="#414C4A"/>
<path d="M47.8086 64.0966C48.9539 64.7581 50.8277 64.7581 51.9736 64.0966C53.1194 63.4351 53.1188 62.3545 51.9736 61.6923" fill="#232B2A"/>
<path d="M51.6683 61.8689C50.6911 61.3046 49.0911 61.3046 48.1139 61.8689C47.1366 62.4333 47.136 63.357 48.1139 63.9207C49.0917 64.4856 50.6911 64.4856 51.6683 63.9207C52.6462 63.357 52.6462 62.4333 51.6683 61.8689Z" fill="black"/>
<path d="M51.5625 62.016C50.6431 61.4862 49.1391 61.4862 48.2191 62.016C47.2997 62.5471 47.2997 63.4154 48.2191 63.9458C49.1391 64.4769 50.6425 64.4769 51.5625 63.9458C52.4806 63.416 52.4806 62.5477 51.5625 62.016Z" fill="#2B3332"/>
<path d="M48.2191 63.9459C49.1391 64.4769 50.6425 64.4769 51.5625 63.9459C52.4807 63.416 52.4807 62.5477 51.5625 62.016" fill="#232B2A"/>
<path d="M43.3575 55.6092C43.3575 52.0012 46.2831 49.0757 49.8911 49.0757C53.4985 49.0757 56.4234 52.0012 56.4234 55.6092C56.4234 59.2172 53.4985 64.3619 49.8911 64.3619C46.2831 64.3619 43.3575 59.2179 43.3575 55.6092Z" fill="#FFA300"/>
<path d="M50.7902 63.7348C51.9834 63.7348 52.5576 63.4135 53.6899 62.3292C55.1311 61.1311 56.4234 57.6308 56.4234 55.6092C56.4234 52.0012 53.4985 49.0757 49.8911 49.0757C48.6973 49.0757 47.5797 49.3975 46.6166 49.9569C45.8777 50.5694 45.2831 51.3374 44.8752 52.2062C44.4674 53.0749 44.2564 54.023 44.2573 54.9828C44.2573 58.5908 47.1822 63.7348 50.7902 63.7348V63.7348Z" fill="#FFB600"/>
<path d="M53.6899 62.3292C55.1311 61.1311 56.4234 57.6308 56.4234 55.6092C56.4234 52.0012 53.4985 49.0757 49.8911 49.0757C48.6973 49.0757 47.5797 49.3975 46.6166 49.9569" fill="#FFC200"/>
<path opacity="0.7" d="M56.4234 55.6092C56.4234 52.0012 53.4985 49.0757 49.8911 49.0757C48.6973 49.0757 47.5797 49.3975 46.6166 49.9569" fill="#FFD400"/>
<path d="M44.4819 59.9816C45.6572 62.3619 47.6412 64.3619 49.8911 64.3619C52.1403 64.3619 54.1243 62.3619 55.2991 59.9816C55.0431 59.4763 54.5742 59.0006 53.8868 58.6037C51.6892 57.3342 48.0929 57.3342 45.8929 58.6037C45.2062 59.0006 44.7379 59.4757 44.4819 59.9816Z" fill="#FFA300"/>
<path opacity="0.5" d="M46.9354 59.2178C46.9354 58.4338 47.2468 57.682 47.8012 57.1276C48.3556 56.5733 49.1074 56.2618 49.8914 56.2618C50.6754 56.2618 51.4273 56.5733 51.9816 57.1276C52.536 57.682 52.8474 58.4338 52.8474 59.2178C52.8474 60.8498 51.5243 63.1772 49.8917 63.1772C48.2579 63.1766 46.9354 60.8498 46.9354 59.2178V59.2178Z" fill="#FFD400"/>
<path opacity="0.5" d="M49.8911 56.2609C50.2793 56.261 50.6637 56.3375 51.0223 56.4862C51.381 56.6348 51.7068 56.8526 51.9813 57.1272C52.2558 57.4018 52.4734 57.7277 52.6219 58.0865C52.7704 58.4452 52.8468 58.8296 52.8467 59.2178C52.8467 60.8498 51.5237 63.1772 49.8911 63.1772" fill="#FFD400"/>
<path opacity="0.5" d="M47.672 60.2043C47.6671 59.9098 47.7209 59.6173 47.8302 59.3438C47.9395 59.0703 48.1021 58.8213 48.3086 58.6114C48.5152 58.4014 48.7614 58.2346 49.033 58.1207C49.3047 58.0069 49.5963 57.9483 49.8908 57.9483C50.1853 57.9483 50.4769 58.0069 50.7485 58.1207C51.0201 58.2346 51.2664 58.4014 51.4729 58.6114C51.6794 58.8213 51.8421 59.0703 51.9514 59.3438C52.0607 59.6173 52.1145 59.9098 52.1095 60.2043C52.1095 61.4295 51.1163 63.1772 49.8911 63.1772C48.6646 63.1772 47.672 61.4295 47.672 60.2043V60.2043Z" fill="#FFD400"/>
<path opacity="0.5" d="M49.8911 57.9846C50.1825 57.9847 50.471 58.0422 50.7402 58.1537C51.0094 58.2653 51.254 58.4289 51.46 58.635C51.666 58.8411 51.8294 59.0858 51.9408 59.355C52.0523 59.6243 52.1096 59.9129 52.1095 60.2043C52.1095 61.4295 51.1163 63.1772 49.8911 63.1772" fill="#FFD400"/>
<path d="M59.408 20.4098C59.4086 19.048 58.552 17.5612 57.3699 16.8782L52.4548 14.0412V17.5809L55.8369 19.5335C56.0646 19.6652 56.344 20.1483 56.344 20.4105V31.9988C56.184 32.3089 56.3089 32.6578 56.7323 32.9046C57.3452 33.2566 58.3502 33.2566 58.9625 32.9046C59.176 32.7809 59.3095 32.6283 59.3754 32.4677H59.4092V32.336C59.4178 32.2851 59.4178 32.2331 59.4092 32.1821L59.408 20.4098V20.4098Z" fill="#03896F"/>
<path d="M57.6135 21.5471C57.6142 20.1828 56.7563 18.6972 55.5742 18.0129L52.4548 16.2117V17.5809L55.8369 19.5335C56.0646 19.6652 56.344 20.1483 56.344 20.4105V31.9988C56.184 32.3089 56.3089 32.6578 56.7323 32.9046C56.9785 33.0462 57.2905 33.1292 57.6148 33.1557L57.6135 21.5471V21.5471Z" fill="#0D9E6A"/>
</svg>
