<svg width="100" height="100" viewBox="0 0 100 100" fill="none" xmlns="http://www.w3.org/2000/svg">
<rect width="100" height="100" fill="white"/>
<path d="M81.1666 57.9385L65.8667 66.8635C67.5667 65.8719 68.7 63.6052 68.7 60.4885C68.7 54.2552 64.3083 46.6052 58.925 43.4885L74.225 34.5636C79.6083 37.6802 84 45.3302 84 51.5635C84 54.6802 82.8666 56.8052 81.1666 57.9385Z" fill="#1EA9EE"/>
<path d="M51.8416 42.7802L67.1416 33.8552C68.9833 32.8635 71.3916 33.0052 74.0833 34.5635L58.7833 43.4885C56.0916 41.9302 53.6833 41.7885 51.8416 42.7802ZM83.9999 51.5635C83.9999 54.6802 82.8666 56.8052 81.1666 57.9385L65.8666 66.8635C67.7083 65.8719 68.6999 63.6052 68.6999 60.4885C68.6999 54.2552 64.3083 46.6052 58.9249 43.4885L74.2249 34.5635C79.6083 37.6802 83.8583 45.0469 83.9999 51.1385C83.9999 51.2802 83.9999 51.4219 83.9999 51.5635Z" fill="#1CC0F3"/>
<path d="M58.7834 43.4885C64.1667 46.6052 68.5584 54.2552 68.5584 60.4885C68.5584 66.7219 64.1667 69.2719 58.6417 66.1552C53.1167 63.0385 48.8667 55.3885 48.8667 49.1552C49.0084 42.9219 53.4 40.3719 58.7834 43.4885Z" fill="#006A9E"/>
<path d="M58.7833 45.1885C63.4583 47.8802 67.1416 54.2552 67.1416 59.6385C67.1416 65.0219 63.3167 67.1469 58.7833 64.4552C54.1083 61.7635 50.425 55.3885 50.425 50.0052C50.425 44.6219 54.25 42.4969 58.7833 45.1885Z" fill="#FDC68D"/>
<path d="M39.3749 55.1052V59.4969L34.8416 60.2052V55.8135L39.3749 55.1052Z" fill="#DD975E"/>
<path d="M34.8416 55.8135V60.2052L31.0166 62.4719V58.0802L34.8416 55.8135Z" fill="#DD975E"/>
<path d="M25.2083 61.1968V56.8052C25.2083 57.3718 25.4916 57.7968 26.2 58.2218C27.475 58.9302 29.6 58.9302 31.0166 58.2218V62.6135C29.7416 63.3218 27.6166 63.3218 26.2 62.6135C25.4916 62.1885 25.2083 61.6218 25.2083 61.1968Z" fill="#F7B376"/>
<path d="M66.4333 57.3719V61.7636L60.7666 67.8552V63.4636L66.4333 57.3719Z" fill="#F7B376"/>
<path d="M33.1416 64.3135V68.7052L32.7166 68.4218V64.0302L33.1416 64.3135Z" fill="#DD9A76"/>
<path d="M37.9583 67.0052V71.5385L37.5333 71.2552V66.7218L37.9583 67.0052Z" fill="#DD9A76"/>
<path d="M42.6333 69.6968V74.0885L42.35 73.9468V69.5552L42.6333 69.6968Z" fill="#DD9A76"/>
<path d="M60.7666 63.4635V67.8552L49.0083 74.6552L49.15 70.2635L60.7666 63.4635Z" fill="#F7B376"/>
<path d="M32.7167 64.0302V68.4218L21.2417 75.0802V70.6885L32.7167 64.0302Z" fill="#DD975E"/>
<path d="M16 73.8052V69.4135C16 69.8385 16.2833 70.2635 16.85 70.6885C17.9833 71.3969 19.9667 71.3969 21.2417 70.6885V75.0802C20.1083 75.7885 18.125 75.7885 16.85 75.0802C16.2833 74.7969 16 74.3719 16 73.8052Z" fill="#F7B376"/>
<path d="M49.15 70.2635L49.0084 74.6552L46.3167 76.3552V71.8218L49.15 70.2635Z" fill="#F7B376"/>
<path d="M37.5334 66.7218V71.2552L23.65 79.1885V74.7968L37.5334 66.7218Z" fill="#DD975E"/>
<path d="M18.4083 78.0552V73.6635C18.4083 74.0885 18.6917 74.5135 19.2583 74.9385C20.3917 75.6469 22.375 75.6469 23.65 74.9385V79.3302C22.5167 80.0385 20.5333 80.0385 19.2583 79.3302C18.6917 78.9052 18.4083 78.4802 18.4083 78.0552Z" fill="#F7B376"/>
<path d="M46.3167 71.8219V76.3552L39.375 80.3218V75.9302L46.3167 71.8219Z" fill="#F7B376"/>
<path d="M42.35 69.5552V73.9468L30.875 80.6052V76.2135L42.35 69.5552Z" fill="#DD975E"/>
<path d="M34.8416 79.3302V74.9385C34.8416 75.3635 35.125 75.6469 35.55 76.0719C36.5416 76.6385 38.2416 76.6385 39.2333 76.0719V80.4635C38.2416 81.0302 36.5416 81.0302 35.55 80.4635C35.125 80.0385 34.8416 79.6135 34.8416 79.3302ZM25.6333 79.3302V74.9385C25.6333 75.3635 25.9166 75.7885 26.4833 76.2135C27.6166 76.9219 29.6 76.9219 30.875 76.2135V80.6052C29.7416 81.3135 27.7583 81.3135 26.4833 80.6052C25.9166 80.3219 25.6333 79.8969 25.6333 79.3302Z" fill="#F7B376"/>
<path d="M66.4333 57.3719L60.7667 63.4635L49.15 70.2635L46.4583 71.8219L39.5167 75.9302C38.525 76.4969 36.825 76.4969 35.8333 75.9302C34.8417 75.3635 34.8417 74.3719 35.8333 73.8052L42.775 69.6969L42.4917 69.5552L31.0167 76.2135C29.8833 76.9219 27.9 76.9219 26.625 76.2135C25.4917 75.5052 25.35 74.3719 26.625 73.6635L38.1 67.0052L37.675 66.7219L23.7917 74.7969C22.6583 75.5052 20.675 75.5052 19.4 74.7969C18.125 74.0885 18.125 72.9552 19.4 72.2469L33.2833 64.1719L32.8583 63.8885L21.3833 70.5469C20.25 71.2552 18.2667 71.2552 16.9917 70.5469C15.8583 69.8385 15.7167 68.7052 16.9917 67.9969L28.4667 61.3385L39.375 54.9635L34.8417 55.6719L31.0167 57.9385C29.7417 58.6469 27.6167 58.6469 26.2 57.9385C24.925 57.2302 24.925 55.9552 26.2 55.1052L32.4333 51.4219L51.7 48.5885L66.4333 57.3719Z" fill="#FDC68D"/>
<path d="M33 59.9219C33 59.9219 42.775 59.6385 48.725 65.5885C48.725 65.5885 44.05 61.4802 33 59.9219ZM53.5417 52.1302C53.5417 52.1302 50.85 59.0719 42.775 59.7802C42.775 59.9219 51.4167 61.0552 53.5417 52.1302Z" fill="#F7B376"/>
<path d="M84 51.5635C84 54.6802 82.8666 56.8052 81.1666 57.9385L65.8666 66.8635C67.7083 65.8718 68.7 63.6052 68.7 60.4885L84 51.1385C84 51.2802 84 51.4219 84 51.5635Z" fill="#1EA9EE"/>
<path d="M53.2583 61.7635C53.2583 64.7385 50.5667 67.7135 47.3083 67.7135C46.8833 67.7135 43.7667 68.2802 42.4917 68.2802C41.075 68.2802 36.6833 67.9968 35.975 67.9968C32.7167 67.9968 30.875 64.8802 30.875 61.9052C30.875 60.7718 31.3 59.2135 32.2917 57.6552C33.85 55.1052 37.1083 52.5552 42.4917 52.2718C47.45 51.9885 50.2833 54.3968 51.7 56.9468C52.8333 58.7885 53.2583 60.6302 53.2583 61.7635Z" fill="#846249"/>
<path d="M50.4249 55.1052C48.7249 53.4052 46.3166 51.9885 42.4916 52.2719C38.3833 52.5552 35.5499 53.9719 33.7083 55.9552C32.7166 56.9469 32.8583 58.5052 33.9916 59.3552C35.6916 60.6302 38.0999 60.7719 41.4999 60.6302C45.4666 60.4885 48.2999 59.9219 50.1416 58.3635C51.2749 57.5135 51.2749 55.9552 50.4249 55.1052Z" fill="#966F4E"/>
<path d="M31.4417 40.9386C30.7333 47.5969 35.6917 52.4135 42.35 51.7052C43.0583 45.1886 38.1 40.2302 31.4417 40.9386Z" fill="#ABDA32"/>
<path d="M31.4417 40.9386C30.7333 47.5969 35.6917 52.4135 42.35 51.7052L31.4417 40.9386Z" fill="#61A01D"/>
<path d="M44.05 31.1636V56.0969C44.05 56.3802 43.9083 56.6636 43.4833 56.8052C42.775 57.2302 41.5 57.2302 40.7916 56.8052C40.3666 56.5219 40.225 56.2386 40.225 55.9552V31.0219C40.225 31.3052 40.3666 31.5886 40.7916 31.8719C41.5 32.2969 42.775 32.2969 43.4833 31.8719C43.9083 31.7302 44.05 31.4469 44.05 31.1636Z" fill="#73BD1E"/>
<path d="M43.4834 30.4552C44.1917 30.8802 44.1917 31.5886 43.4834 32.0136C42.775 32.4386 41.5 32.4386 40.7917 32.0136C40.0834 31.5886 40.0834 30.8802 40.7917 30.4552C41.5 30.0302 42.775 30.0302 43.4834 30.4552Z" fill="#ABDA32"/>
<path d="M53.8251 36.9719C54.5334 43.6302 49.5751 48.4469 42.7751 47.8802C42.2084 41.2219 47.1667 36.4052 53.8251 36.9719Z" fill="#ABDA32"/>
<path d="M53.825 36.9719C54.5334 43.6302 49.575 48.4469 42.775 47.8802L53.825 36.9719Z" fill="#73BD1E"/>
<path d="M42.4916 18.8385C50.85 24.2219 50.85 32.8635 42.35 38.2469C33.85 33.0052 33.9916 24.2219 42.4916 18.8385Z" fill="#ABDA32"/>
<path d="M42.4916 18.8385C50.85 24.2219 50.85 32.8635 42.35 38.2469L42.4916 18.8385Z" fill="#73BD1E"/>
<path d="M75.9248 50.5719L74.9331 50.4302C74.9331 50.4302 75.0748 50.4302 75.0748 50.2885L76.0664 50.4302C75.9248 50.5719 75.9248 50.5719 75.9248 50.5719Z" fill="#33373B"/>
<path d="M76.0665 50.5719L75.0748 50.4302C75.2165 50.4302 75.2165 50.4302 75.3582 50.2885L76.3498 50.4302C76.2082 50.4302 76.0665 50.5719 76.0665 50.5719Z" fill="#313539"/>
<path d="M76.3498 50.4302L75.3582 50.2885H75.4998L76.4915 50.4302H76.3498Z" fill="#2F3437"/>
<path d="M76.4915 50.4302L75.4999 50.2885H75.6415L76.4915 50.4302C76.4915 50.4302 76.6332 50.4302 76.4915 50.4302Z" fill="#2E3235"/>
<path d="M76.2083 54.3969L75.2166 54.2552C74.7916 54.2552 74.3666 53.8302 74.0833 53.1219C74.0833 52.9802 74.0833 52.9802 74.0833 52.8385L75.0749 52.9802C75.0749 53.1219 75.0749 53.1219 75.0749 53.2635C75.3583 53.9719 75.7833 54.3969 76.2083 54.3969Z" fill="#292D30"/>
<path d="M75.0749 53.1219L74.0833 52.9802C74.0833 52.8385 74.0833 52.6969 74.0833 52.6969L75.0749 52.8385C75.0749 52.8385 75.0749 52.9802 75.0749 53.1219Z" fill="#2B2E32"/>
<path d="M75.0749 52.6969L74.0833 52.5552C74.0833 52.4135 74.0833 52.4135 74.0833 52.2719L75.0749 52.4135C75.0749 52.5552 75.0749 52.6969 75.0749 52.6969Z" fill="#2C3034"/>
<path d="M75.0749 52.4135L74.0833 52.2719C74.0833 52.1302 74.0833 52.1302 74.0833 51.9885L75.0749 52.1302C75.0749 52.2719 75.0749 52.4135 75.0749 52.4135Z" fill="#2E3235"/>
<path d="M75.0749 52.1302L74.0833 51.9885C74.0833 51.8469 74.0833 51.8469 74.0833 51.7052L75.0749 51.8469C75.0749 51.9885 75.0749 51.9885 75.0749 52.1302Z" fill="#2F3437"/>
<path d="M75.0749 51.8469L74.0833 51.7052C74.0833 51.5635 74.0832 51.4219 74.2249 51.4219L75.2166 51.5635C75.2166 51.5635 75.0749 51.7052 75.0749 51.8469Z" fill="#313539"/>
<path d="M75.2165 51.5635L74.2249 51.4219C74.3665 50.9969 74.6499 50.7135 74.9332 50.5719L75.9249 50.7135C75.6415 50.8552 75.3582 51.1385 75.2165 51.5635Z" fill="#33373B"/>
<path d="M75.9248 50.5719C76.6332 50.1469 77.4832 50.5719 77.7665 51.5635C78.0498 52.5552 77.6248 53.6885 76.9165 54.2552C76.2082 54.6802 75.3582 54.2552 75.0748 53.2635C74.7915 52.2719 75.2165 51.1385 75.9248 50.5719Z" fill="#484E54"/>
</svg>
