<svg width="100" height="100" viewBox="0 0 100 100" fill="none" xmlns="http://www.w3.org/2000/svg">
<path d="M70.644 27.6628C72.7204 28.8605 74.4179 31.8028 74.4179 34.1995V82.1376C74.4179 84.5343 72.7204 85.5144 70.644 84.3168L51.7725 73.4211C49.6969 72.2235 47.9993 69.2818 47.9993 66.8851V18.947C47.9993 16.5503 49.6969 15.5695 51.7725 16.7672L70.644 27.6628Z" fill="#182228"/>
<path d="M49.3181 16.4088L73.4399 84.49L69.621 86.6741L45.3231 18.6745L49.3181 16.4088Z" fill="#182228"/>
<path d="M47.9592 18.947L66.8314 29.842C68.907 31.0403 70.6046 33.982 70.6046 36.3787V84.3168C70.6046 86.7135 68.907 87.6943 66.8314 86.4959L47.9592 75.6009C45.8843 74.4026 44.186 71.4602 44.186 69.0635V21.1254C44.1853 18.7287 45.8843 17.7493 47.9592 18.947Z" fill="#3F5761"/>
<path d="M44.1853 21.1254C44.1853 18.7287 45.8836 17.7493 47.9585 18.947L66.8314 29.842C68.907 31.0403 70.6046 33.982 70.6046 36.3787V84.3168C70.6046 86.7135 68.907 87.6943 66.8314 86.4959" fill="#2F3E45"/>
<path d="M66.8314 34.2192V77.7794L63.0434 79.9655L47.9592 71.2575V23.325L66.8314 34.2192Z" fill="#FFF144"/>
<path d="M66.8314 77.7794L63.0568 79.9585V75.601L66.8314 77.7794Z" fill="#FEEA35"/>
<path d="M64.1467 37.144C64.1757 37.144 64.2042 37.1364 64.2293 37.1221C64.2545 37.1078 64.2755 37.0872 64.2904 37.0623C64.3121 37.0241 64.3179 36.9788 64.3064 36.9364C64.2949 36.8939 64.2672 36.8577 64.2291 36.8356L50.4263 28.9013C50.4077 28.89 50.387 28.8827 50.3655 28.8796C50.3439 28.8765 50.322 28.8778 50.3009 28.8834C50.2799 28.889 50.2602 28.8987 50.2431 28.9121C50.2259 28.9255 50.2116 28.9421 50.201 28.9612C50.1901 28.9799 50.1829 29.0006 50.1801 29.0221C50.1772 29.0436 50.1786 29.0655 50.1842 29.0865C50.1899 29.1074 50.1996 29.127 50.2129 29.1442C50.2261 29.1614 50.2427 29.1757 50.2616 29.1865L64.0644 37.1215C64.0894 37.1361 64.1178 37.1439 64.1467 37.144Z" fill="#BB8B2D"/>
<path d="M64.1467 39.8329C64.1757 39.833 64.2041 39.8256 64.2293 39.8114C64.2544 39.7972 64.2755 39.7767 64.2904 39.7519C64.3121 39.7137 64.3179 39.6684 64.3064 39.626C64.2949 39.5835 64.2672 39.5473 64.2291 39.5252L50.4263 31.5909C50.4077 31.5797 50.387 31.5723 50.3655 31.5692C50.3439 31.5661 50.322 31.5674 50.3009 31.573C50.2799 31.5786 50.2602 31.5883 50.2431 31.6017C50.2259 31.6151 50.2116 31.6317 50.201 31.6508C50.1901 31.6695 50.1829 31.6902 50.1801 31.7117C50.1772 31.7332 50.1786 31.7551 50.1842 31.7761C50.1899 31.797 50.1996 31.8166 50.2129 31.8338C50.2261 31.851 50.2427 31.8653 50.2616 31.8761L64.0644 39.8111C64.0894 39.8255 64.1178 39.833 64.1467 39.8329Z" fill="#BB8B2D"/>
<path d="M64.1467 42.5225C64.1756 42.5224 64.204 42.515 64.2292 42.5008C64.2543 42.4866 64.2754 42.4662 64.2904 42.4415C64.3121 42.4033 64.3179 42.358 64.3064 42.3156C64.2949 42.2731 64.2672 42.2369 64.2291 42.2148L50.4263 34.2805C50.4077 34.2692 50.387 34.2619 50.3655 34.2588C50.3439 34.2557 50.322 34.257 50.3009 34.2626C50.2799 34.2682 50.2602 34.2779 50.2431 34.2913C50.2259 34.3047 50.2116 34.3213 50.201 34.3404C50.1901 34.3591 50.1829 34.3798 50.1801 34.4013C50.1772 34.4228 50.1786 34.4447 50.1842 34.4656C50.1899 34.4866 50.1996 34.5062 50.2129 34.5234C50.2261 34.5406 50.2427 34.5549 50.2616 34.5657L64.0644 42.5007C64.0893 42.5154 64.1178 42.5229 64.1467 42.5225Z" fill="#BB8B2D"/>
<path d="M64.1468 45.2128C64.1757 45.2127 64.2042 45.2052 64.2293 45.1909C64.2545 45.1765 64.2755 45.156 64.2904 45.1311C64.3012 45.1122 64.3082 45.0914 64.311 45.0699C64.3138 45.0483 64.3123 45.0264 64.3066 45.0054C64.3009 44.9844 64.2912 44.9647 64.2779 44.9475C64.2646 44.9303 64.248 44.9159 64.2291 44.9051L50.4263 36.9701C50.4077 36.9589 50.387 36.9516 50.3655 36.9486C50.3439 36.9455 50.322 36.9469 50.301 36.9524C50.28 36.958 50.2603 36.9678 50.2432 36.9811C50.226 36.9944 50.2117 37.011 50.201 37.0299C50.1901 37.0487 50.1829 37.0695 50.18 37.0911C50.1771 37.1126 50.1786 37.1345 50.1842 37.1555C50.1898 37.1766 50.1996 37.1962 50.2128 37.2135C50.2261 37.2307 50.2427 37.2451 50.2616 37.2559L64.0644 45.1909C64.0894 45.2053 64.1179 45.2129 64.1468 45.2128Z" fill="#BB8B2D"/>
<path d="M64.1468 47.9024C64.1757 47.9023 64.2042 47.8948 64.2293 47.8805C64.2545 47.8661 64.2755 47.8456 64.2904 47.8207C64.3012 47.8018 64.3082 47.781 64.311 47.7595C64.3138 47.7379 64.3123 47.716 64.3066 47.695C64.3009 47.674 64.2912 47.6543 64.2779 47.6371C64.2646 47.6199 64.248 47.6055 64.2291 47.5947L50.4263 39.6597C50.4077 39.6484 50.387 39.641 50.3655 39.638C50.3439 39.6349 50.322 39.6362 50.3009 39.6417C50.2799 39.6473 50.2602 39.6571 50.2431 39.6705C50.2259 39.6838 50.2116 39.7005 50.201 39.7195C50.19 39.7382 50.1828 39.759 50.1798 39.7805C50.1769 39.802 50.1783 39.8239 50.184 39.8449C50.1896 39.8659 50.1994 39.8855 50.2127 39.9027C50.226 39.9198 50.2426 39.9342 50.2616 39.9448L64.0644 47.8805C64.0894 47.8949 64.1179 47.9025 64.1468 47.9024Z" fill="#BB8B2D"/>
<path d="M64.1467 50.592C64.1757 50.5918 64.2041 50.5842 64.2292 50.5699C64.2544 50.5556 64.2754 50.5351 64.2904 50.5103C64.3121 50.4721 64.3179 50.4268 64.3064 50.3843C64.2949 50.3419 64.2672 50.3057 64.2291 50.2836L50.4263 42.3493C50.4077 42.338 50.387 42.3306 50.3655 42.3275C50.3439 42.3245 50.322 42.3258 50.3009 42.3313C50.2799 42.3369 50.2602 42.3467 50.2431 42.3601C50.2259 42.3734 50.2116 42.3901 50.201 42.4091C50.19 42.4278 50.1828 42.4486 50.1798 42.4701C50.1769 42.4916 50.1783 42.5135 50.184 42.5345C50.1896 42.5555 50.1994 42.5751 50.2127 42.5923C50.226 42.6094 50.2426 42.6238 50.2616 42.6344L64.0644 50.5701C64.0894 50.5845 64.1178 50.5921 64.1467 50.592Z" fill="#BB8B2D"/>
<path d="M64.1468 53.2822C64.1758 53.2821 64.2042 53.2744 64.2294 53.2599C64.2546 53.2455 64.2756 53.2248 64.2904 53.1999C64.3121 53.1617 64.3178 53.1166 64.3063 53.0742C64.2949 53.0319 64.2671 52.9958 64.2291 52.9739L50.4263 45.0396C50.4078 45.0283 50.3871 45.0208 50.3656 45.0177C50.3441 45.0146 50.3221 45.0158 50.3011 45.0213C50.2801 45.0268 50.2604 45.0365 50.2432 45.0498C50.226 45.0631 50.2117 45.0798 50.201 45.0987C50.1901 45.1175 50.1829 45.1383 50.18 45.1598C50.1772 45.1814 50.1786 45.2033 50.1842 45.2243C50.1898 45.2453 50.1996 45.265 50.2128 45.2823C50.2261 45.2995 50.2427 45.3139 50.2616 45.3247L64.0644 53.2597C64.0894 53.2743 64.1178 53.2821 64.1468 53.2822Z" fill="#BB8B2D"/>
<path d="M64.1468 55.9719C64.1758 55.9717 64.2042 55.964 64.2294 55.9496C64.2546 55.9351 64.2756 55.9144 64.2904 55.8895C64.3121 55.8514 64.3178 55.8062 64.3063 55.7638C64.2949 55.7215 64.2671 55.6854 64.2291 55.6635L50.4263 47.7292C50.4077 47.7178 50.387 47.7103 50.3655 47.7072C50.3439 47.7041 50.3219 47.7053 50.3009 47.7109C50.2798 47.7165 50.2601 47.7263 50.2429 47.7398C50.2258 47.7532 50.2115 47.7699 50.201 47.789C50.19 47.8077 50.1828 47.8284 50.1799 47.8498C50.177 47.8713 50.1784 47.8931 50.184 47.9141C50.1897 47.935 50.1994 47.9546 50.2127 47.9717C50.2261 47.9888 50.2427 48.003 50.2616 48.0136L64.0644 55.9493C64.0894 55.9639 64.1178 55.9717 64.1468 55.9719Z" fill="#BB8B2D"/>
<path d="M64.1467 58.6614C64.1758 58.6613 64.2042 58.6536 64.2294 58.6391C64.2546 58.6247 64.2756 58.604 64.2904 58.5791C64.3121 58.5408 64.3179 58.4956 64.3064 58.4531C64.2949 58.4107 64.2672 58.3744 64.2291 58.3524L50.4263 50.4188C50.4077 50.4075 50.3871 50.4 50.3656 50.3969C50.344 50.3938 50.3221 50.395 50.3011 50.4005C50.2801 50.406 50.2604 50.4157 50.2432 50.429C50.226 50.4423 50.2116 50.4589 50.201 50.4779C50.19 50.4966 50.1828 50.5173 50.1798 50.5389C50.1769 50.5604 50.1783 50.5823 50.184 50.6033C50.1896 50.6243 50.1994 50.6439 50.2127 50.6611C50.226 50.6782 50.2426 50.6925 50.2616 50.7032L64.0644 58.6389C64.0894 58.6535 64.1178 58.6613 64.1467 58.6614Z" fill="#BB8B2D"/>
<path d="M64.1467 61.3517C64.1758 61.3516 64.2042 61.3439 64.2294 61.3294C64.2546 61.315 64.2756 61.2943 64.2904 61.2694C64.3121 61.2311 64.3179 61.1859 64.3064 61.1434C64.2949 61.101 64.2672 61.0647 64.2291 61.0426L50.4263 53.1091C50.4077 53.0978 50.3871 53.0903 50.3656 53.0872C50.344 53.0841 50.3221 53.0853 50.3011 53.0908C50.2801 53.0963 50.2604 53.106 50.2432 53.1193C50.226 53.1326 50.2116 53.1492 50.201 53.1682C50.1901 53.1869 50.1829 53.2077 50.1801 53.2292C50.1772 53.2507 50.1786 53.2725 50.1842 53.2935C50.1899 53.3144 50.1996 53.3341 50.2129 53.3512C50.2261 53.3684 50.2427 53.3828 50.2616 53.3935L64.0644 61.3285C64.0893 61.3433 64.1177 61.3514 64.1467 61.3517Z" fill="#BB8B2D"/>
<path d="M64.1467 64.0406C64.1757 64.0406 64.2042 64.033 64.2293 64.0187C64.2545 64.0044 64.2755 63.9838 64.2904 63.959C64.3121 63.9207 64.3179 63.8755 64.3064 63.833C64.2949 63.7905 64.2672 63.7543 64.2291 63.7322L50.4263 55.7986C50.4077 55.7874 50.3871 55.7799 50.3656 55.7768C50.344 55.7737 50.3221 55.7749 50.3011 55.7804C50.2801 55.7859 50.2604 55.7956 50.2432 55.8089C50.226 55.8222 50.2116 55.8388 50.201 55.8578C50.1901 55.8765 50.1829 55.8972 50.1801 55.9188C50.1772 55.9403 50.1786 55.9621 50.1842 55.9831C50.1899 56.004 50.1996 56.0237 50.2129 56.0408C50.2261 56.058 50.2427 56.0724 50.2616 56.0831L64.0644 64.0181C64.0894 64.0327 64.1178 64.0405 64.1467 64.0406Z" fill="#BB8B2D"/>
<path d="M64.1467 66.7302C64.1757 66.7302 64.2042 66.7226 64.2293 66.7083C64.2545 66.694 64.2755 66.6734 64.2904 66.6486C64.3121 66.6103 64.3179 66.565 64.3064 66.5226C64.2949 66.4801 64.2672 66.4439 64.2291 66.4218L50.4263 58.4875C50.4077 58.4763 50.387 58.4689 50.3655 58.4658C50.3439 58.4627 50.322 58.464 50.3009 58.4696C50.2799 58.4752 50.2602 58.485 50.2431 58.4983C50.2259 58.5117 50.2116 58.5284 50.201 58.5474C50.1901 58.5661 50.1829 58.5868 50.1801 58.6083C50.1772 58.6299 50.1786 58.6517 50.1842 58.6727C50.1899 58.6936 50.1996 58.7133 50.2129 58.7304C50.2261 58.7476 50.2427 58.762 50.2616 58.7727L64.0644 66.7077C64.0892 66.7226 64.1177 66.7304 64.1467 66.7302Z" fill="#BB8B2D"/>
<path d="M64.1467 69.4205C64.1757 69.4205 64.2042 69.4129 64.2293 69.3986C64.2545 69.3843 64.2755 69.3637 64.2904 69.3389C64.3121 69.3006 64.3179 69.2554 64.3064 69.2129C64.2949 69.1704 64.2672 69.1342 64.2291 69.1121L50.4263 61.1778C50.4077 61.1666 50.387 61.1592 50.3655 61.1561C50.3439 61.153 50.322 61.1543 50.3009 61.1599C50.2799 61.1655 50.2602 61.1753 50.2431 61.1886C50.2259 61.202 50.2116 61.2187 50.201 61.2377C50.1901 61.2564 50.1829 61.2772 50.1801 61.2987C50.1772 61.3202 50.1786 61.342 50.1842 61.363C50.1899 61.3839 50.1996 61.4036 50.2129 61.4207C50.2261 61.4379 50.2427 61.4523 50.2616 61.463L64.0644 69.398C64.0894 69.4126 64.1178 69.4204 64.1467 69.4205Z" fill="#BB8B2D"/>
<path d="M64.1467 72.1094C64.1757 72.1095 64.2041 72.1021 64.2293 72.0879C64.2544 72.0737 64.2755 72.0532 64.2904 72.0284C64.3121 71.9902 64.3179 71.9449 64.3064 71.9025C64.2949 71.86 64.2672 71.8238 64.2291 71.8017L50.4263 63.8674C50.4077 63.8562 50.387 63.8488 50.3655 63.8457C50.3439 63.8426 50.322 63.8439 50.3009 63.8495C50.2799 63.8551 50.2602 63.8648 50.2431 63.8782C50.2259 63.8916 50.2116 63.9083 50.201 63.9273C50.1901 63.946 50.1829 63.9667 50.1801 63.9882C50.1772 64.0098 50.1786 64.0316 50.1842 64.0526C50.1899 64.0735 50.1996 64.0932 50.2129 64.1103C50.2261 64.1275 50.2427 64.1419 50.2616 64.1526L64.0644 72.0876C64.0894 72.102 64.1178 72.1095 64.1467 72.1094Z" fill="#BB8B2D"/>
<path d="M64.1468 74.799C64.1756 74.7989 64.204 74.7915 64.2292 74.7773C64.2543 74.7631 64.2754 74.7427 64.2904 74.718C64.3123 74.6798 64.3182 74.6345 64.3067 74.592C64.2952 74.5495 64.2673 74.5133 64.2291 74.4913L50.4263 66.5563C50.4076 66.5453 50.3869 66.5381 50.3654 66.5351C50.3438 66.5322 50.3219 66.5336 50.301 66.5393C50.28 66.5449 50.2603 66.5547 50.2432 66.568C50.226 66.5813 50.2117 66.5979 50.201 66.6169C50.1901 66.6356 50.183 66.6563 50.1801 66.6778C50.1772 66.6993 50.1786 66.7212 50.1843 66.7421C50.1899 66.7631 50.1996 66.7827 50.2129 66.7999C50.2262 66.8171 50.2427 66.8314 50.2616 66.8422L64.0644 74.7772C64.0894 74.7916 64.1179 74.7991 64.1468 74.799Z" fill="#BB8B2D"/>
<path d="M32.2649 74.8259L29.3451 86.4355L26.4288 74.8259H32.2649Z" fill="#B7994D"/>
<path d="M26.4288 74.8259H32.2649L31.6658 77.2107C31.0616 77.7894 30.2491 78.1513 29.3472 78.1513C28.4453 78.1513 27.63 77.7894 27.0287 77.2107L26.4288 74.8259Z" fill="#A8822D"/>
<path d="M29.3472 76.7079C30.2348 76.7076 31.0859 76.3548 31.7134 75.7271C32.3409 75.0995 32.6935 74.2483 32.6937 73.3607V15.3479C32.6935 14.4603 32.3409 13.6091 31.7134 12.9813C31.0859 12.3535 30.2348 12.0006 29.3472 12C28.4595 12.0004 27.6082 12.3532 26.9806 12.981C26.3529 13.6088 26.0002 14.4602 26 15.3479V73.3614C26.0002 74.2491 26.3529 75.1002 26.9806 75.7278C27.6083 76.3554 28.4596 76.7079 29.3472 76.7079Z" fill="#FD9808"/>
<path d="M29.3472 80.9303C29.8586 80.9275 30.3623 80.806 30.8188 80.5755L29.3451 86.4355L27.8722 80.5741C28.3299 80.8048 28.8347 80.9267 29.3472 80.9303Z" fill="#182228"/>
<path d="M29.3472 12C29.6845 12 30.0048 12.0662 30.3118 12.1584V76.5516C30.0041 76.6425 29.6845 76.7086 29.3472 76.7086C28.4595 76.7085 27.6083 76.3558 26.9806 75.7281C26.3529 75.1004 26.0002 74.2491 26 73.3614V15.3479C26.0002 14.4602 26.3529 13.6088 26.9805 12.981C27.6082 12.3532 28.4595 12.0004 29.3472 12Z" fill="#F90404" fill-opacity="0.1"/>
<path d="M29.3472 12C30.2348 12.0006 31.0859 12.3535 31.7134 12.9813C32.3409 13.6091 32.6935 14.4603 32.6937 15.3479V19.2175C32.6934 20.105 32.3407 20.9561 31.7132 21.5837C31.0857 22.2113 30.2347 22.5642 29.3472 22.5647C28.4596 22.5646 27.6083 22.2119 26.9806 21.5842C26.3529 20.9565 26.0002 20.1052 26 19.2175V15.3479C26.0002 14.4602 26.3529 13.6088 26.9806 12.981C27.6082 12.3532 28.4595 12.0004 29.3472 12Z" fill="#C0942D"/>
<path d="M29.3472 12C29.67 12.0063 29.9903 12.0585 30.2985 12.1549C30.3041 12.1556 30.3083 12.1584 30.3125 12.1598V22.4063C30.0048 22.5 29.6859 22.5655 29.3479 22.5655C28.4603 22.5653 27.609 22.2126 26.9813 21.5849C26.3536 20.9572 26.0009 20.1059 26.0007 19.2182V15.3479C26.0006 14.9083 26.0871 14.4731 26.2553 14.0669C26.4234 13.6608 26.6699 13.2918 26.9806 12.9809C27.2914 12.67 27.6603 12.4234 28.0664 12.2551C28.4724 12.0868 28.9077 12.0001 29.3472 12Z" fill="#A4822E"/>
</svg>
