<svg width="100" height="100" viewBox="0 0 100 100" fill="none" xmlns="http://www.w3.org/2000/svg">
<path d="M88.8377 22.4354L77.3101 34.7747L78.9337 35.5865L88.8377 22.4354Z" fill="#FF5766"/>
<path d="M51.8195 59.6158L50.0336 61.5641C50.1959 62.2136 55.3914 73.0917 66.2696 76.1765L66.5943 75.8518C55.7162 72.6046 52.1442 60.2653 51.8195 59.6158Z" fill="#FF5766"/>
<path d="M66.5943 75.8518C66.2696 75.3647 59.7752 66.5973 62.5353 62.3759L51.8196 59.6158C52.1443 60.2653 55.7162 72.6046 66.5943 75.8518Z" fill="#FD465C"/>
<path d="M53.4432 49.0624C53.4432 48.9001 53.1185 48.7377 52.9561 48.7377L35.0965 54.5827C34.7718 54.5827 34.7718 54.9074 34.9342 55.2321L40.6168 61.5641C40.7791 61.7265 40.7791 61.8889 40.6168 61.8889C37.0448 70.0069 33.7976 75.04 35.4212 74.2282L47.7606 68.5456C47.7606 68.5456 47.7606 68.5456 47.923 68.5456L55.2291 62.2136C55.3915 62.0512 55.3915 62.0512 55.3915 61.8889L53.4432 49.0624Z" fill="#FF5766"/>
<path d="M88.6753 22.7601L79.5832 36.3984L78.7714 36.0736" fill="#F74457"/>
<path d="M85.5904 36.0736L89 22.5978L79.096 35.7489C77.1477 33.963 75.037 32.8265 72.764 31.8523H72.6016C68.3803 30.3911 63.9966 30.3911 59.2881 32.0147L51.8196 35.9113C45.8123 39.9703 40.1297 46.3023 34.7718 54.745C35.4212 54.9074 36.0707 55.3945 37.2072 55.8816C40.7791 57.3428 48.8971 59.6158 51.0078 61.5642C50.3583 64.4866 38.6684 70.981 35.0965 74.2282C40.4544 76.5013 45.9746 76.5013 51.9819 73.5788L59.4505 68.708C66.2696 63.1878 72.764 54.745 78.4466 43.7046L89 45.6529L85.5904 36.0736Z" fill="#F74457"/>
<path d="M41.5909 61.7265L37.6942 56.531L49.7089 61.8889L37.0448 71.7928L41.5909 61.7265Z" fill="#D72F40"/>
<path d="M59.2882 32.0146L51.8196 35.9112C45.8123 39.9702 40.2921 46.3023 34.9342 54.745C35.5836 54.9074 36.2331 55.3944 37.3696 55.7192C38.6685 53.7708 52.9562 31.8523 72.6017 31.8523C68.3803 30.2287 63.9966 30.391 59.2882 32.0146Z" fill="#FF5766"/>
<path d="M52.6314 38.9961L51.0078 39.1585L50.5208 37.8596C50.5208 37.2101 52.3067 26.0073 61.3989 20L61.7236 20.3247C52.6314 26.0073 53.6056 37.8596 52.6314 38.9961Z" fill="#FF5766"/>
<path d="M61.7236 20.1624C61.5612 20.6494 57.9893 30.391 61.7236 33.4759L52.7938 38.9961C52.6314 38.3467 52.6314 26.0073 61.7236 20.1624Z" fill="#FD465C"/>
<path d="M46.9488 51.1731C47.7606 50.686 48.2477 51.0107 48.2477 51.9849C48.2477 52.7967 47.5982 53.9332 46.9488 54.2579C46.137 54.745 45.6499 54.4203 45.6499 53.4461C45.6499 52.6343 46.137 51.4978 46.9488 51.1731Z" fill="#464C50"/>
<path d="M23.2443 64.3243C23.2443 64.3243 13.9898 66.7597 11.0673 77.8001L23.2443 64.3243Z" fill="#F2CA5C"/>
<path d="M32.4988 65.4608C33.7976 62.7006 34.4471 61.077 36.233 59.7782C35.9083 59.9405 35.4212 60.1029 35.0965 60.2652C33.4729 61.2394 32.0117 62.863 30.5504 64.9737C23.4066 60.1029 14.9639 69.5198 11.0673 77.4754C10.9049 77.8001 11.0673 78.1248 11.2296 78.2872C13.9897 80.7226 17.724 80.7226 21.2959 78.6119C24.5431 76.6636 27.7903 73.0917 30.5504 68.2209C32.4988 69.0327 34.6094 68.2209 36.233 66.922C34.4471 67.5714 33.96 66.7596 32.4988 65.4608Z" fill="#F8D770"/>
<path d="M15.1262 74.2282C15.451 74.0659 15.7757 74.2282 15.7757 74.5529C15.7757 74.8777 15.451 75.3647 15.1262 75.6895C14.8015 75.8518 14.4768 75.6894 14.4768 75.3647C14.4768 75.04 14.8015 74.5529 15.1262 74.2282Z" fill="#464C50"/>
</svg>
