<svg width="100" height="100" viewBox="0 0 100 100" fill="none" xmlns="http://www.w3.org/2000/svg">
<path d="M56.5949 40.0741L56.5394 53.0006C56.5381 53.4485 56.2432 53.8959 55.6557 54.2374C54.483 54.9188 52.5621 54.9227 51.3751 54.2374C50.7769 53.892 50.4786 53.4372 50.4799 52.9836L50.5354 40.0572C50.5288 42.3627 56.5884 42.3774 56.5949 40.0741Z" fill="#7E858B"/>
<path d="M55.7113 41.3109C52.865 42.965 48.6096 40.455 51.41 38.8276C52.5893 38.1422 58.5273 39.6744 55.7113 41.3109Z" fill="#7E858B"/>
<path d="M46.5196 71.9742L46.5106 75.1626C44.0757 73.7568 40.1179 73.7569 37.6989 75.1627L37.7079 71.9743C40.1269 70.5685 44.0848 70.5684 46.5196 71.9742ZM76 70.1625L75.991 73.3509C75.9883 74.2898 75.3496 75.212 74.1695 75.8978L74.1785 72.7094C75.3587 72.0236 75.9974 71.1014 76 70.1625Z" fill="#BCBBBB"/>
<path d="M47.7677 72.6944L47.7593 75.8843L46.5104 75.1623L46.5187 71.974L47.7677 72.6944Z" fill="#BCBBBB"/>
<path d="M37.7078 71.974L37.6994 75.1623L32.7236 78.0537L32.7336 74.8655L37.7078 71.974Z" fill="#BCBBBB"/>
<path d="M49.6074 75.264L49.5984 78.4525C49.601 77.5241 48.9891 76.5936 47.7592 75.8835L47.7682 72.6951C48.9981 73.4052 49.61 74.3356 49.6074 75.264ZM22.0733 75.4829L22.0823 72.2945C22.0731 75.5596 28.8733 77.1083 32.7333 74.8652L32.7242 78.0536C28.8771 80.2893 22.064 78.7364 22.0733 75.4829Z" fill="#BCBBBB"/>
<path d="M74.1791 72.7094L74.1691 75.8976L51.653 88.9824L51.663 85.7942L74.1791 72.7094Z" fill="#BCBBBB"/>
<path d="M40.9981 86.4128L41.0071 83.2243C40.9977 86.564 47.8893 87.987 51.6627 85.7941L51.6537 88.9825C47.8221 91.2092 40.9888 89.6661 40.9981 86.4128Z" fill="#BCBBBB"/>
<path d="M66.8807 60.8648C70.6641 63.0492 73.5792 65.7382 75.6258 68.9318C76.4547 70.2439 75.8781 71.7217 74.1785 72.7094L51.6628 85.7941C45.8403 89.1777 37.0232 84.0602 42.8223 80.6901L47.7969 77.7992C53.7402 74.3453 43.6283 68.5336 37.7078 71.9742L32.7333 74.8651C26.8986 78.2559 18.1053 73.1245 23.8929 69.7611C44.9108 58.4442 46.4906 54.4756 52.9254 55.8257C58.4455 57.0008 63.0973 58.6805 66.8807 60.8648Z" fill="#D9D9DB"/>
<path d="M66.5136 57.8487L62.1064 55.2891L63.0402 54.7505L67.4457 57.3101L66.5136 57.8487Z" fill="#EAEAEC"/>
<path d="M58.1678 62.6678L53.7623 60.1065L62.1065 55.2891L66.5136 57.8487L58.1678 62.6678Z" fill="#EAEAEC"/>
<path d="M52.8969 65.7109L48.4897 63.1497L53.7624 60.1065L58.1679 62.6678L52.8969 65.7109Z" fill="#BCBBBB"/>
<path d="M52.9119 71.2387L48.5064 68.6774L48.4897 63.1497L52.8969 65.7109L52.9119 71.2387Z" fill="#EAEAEC"/>
<path d="M67.4466 57.3106L67.4623 62.8377L52.9125 71.238L52.8969 65.7109C53.1885 65.5425 67.0939 57.5143 66.5134 57.8494L67.4466 57.3106Z" fill="#EAEAEC"/>
<path d="M58.8928 34.6921L63.2992 37.2528C65.3989 38.473 66.7009 41.0633 66.7113 44.7563C66.7288 50.9365 63.1102 58.2234 58.1684 62.6674L53.762 60.1067C58.7038 55.6627 62.3225 48.3758 62.3049 42.1956C62.2945 38.5026 60.9925 35.9123 58.8928 34.6921Z" fill="#BCBBBB"/>
<path d="M66.1384 27.832C63.859 26.5073 61.166 24.8066 57.8579 26.0173L53.4515 23.4566C60.4947 20.8789 66.3052 27.9185 66.1384 27.832Z" fill="#EAEAEC"/>
<path d="M57.8727 36.8L53.4655 34.2387L53.4521 29.0795L57.8577 31.6408L57.8727 36.8Z" fill="#BCBBBB"/>
<path d="M57.8727 25.352C68.1767 25.1673 71.0764 33.1395 71.1022 42.2213C71.1165 47.2707 69.3627 52.8636 66.5134 57.8494L58.1684 62.6674C63.1102 58.2235 66.7288 50.9365 66.7113 44.7564C66.6935 38.4725 62.9364 35.3812 57.8727 36.8001V25.352Z" fill="#D3D3D3"/>
<path d="M59.9203 19.0704L59.8044 46.0561C59.8018 46.9911 59.1861 47.9253 57.9596 48.638C55.5115 50.0607 51.5013 50.0687 49.0233 48.6381C47.7746 47.9171 47.1517 46.9675 47.1544 46.0207L47.2703 19.0351C47.2568 23.8205 59.9065 23.9317 59.9203 19.0704Z" fill="#D9D9DB"/>
<path d="M58.0603 16.4681C63.942 19.8639 55.1327 25.1127 49.1394 21.6524C43.2249 18.2377 52.0689 13.0089 58.0603 16.4681Z" fill="#F1F1F3"/>
<path d="M60.3239 61.9092L60.3166 64.4704C60.2962 71.6958 41.0579 71.7945 41.0789 64.3969L41.0861 61.8358C41.072 66.8171 51.5386 69.2996 57.5367 65.8139C59.3931 64.7351 60.3199 63.3237 60.3239 61.9092Z" fill="#00ADEF"/>
<path d="M57.4717 57.9267C61.243 60.1041 61.283 63.6365 57.5361 65.8139C53.7895 67.9913 47.6908 67.9797 43.9196 65.8024C40.1683 63.6366 40.1285 60.1041 43.8752 57.9268C47.6221 55.7494 53.7205 55.7609 57.4717 57.9267Z" fill="#1CC0F3"/>
<path d="M64.7765 29.3583L65.9135 30.0191C65.5334 29.7982 65.008 29.8296 64.4287 30.164L63.2917 29.5032C63.871 29.1688 64.3964 29.1374 64.7765 29.3583Z" fill="#5A6268"/>
<path d="M62.9448 35.126L61.8077 34.4653C61.4327 34.2473 61.1993 33.7863 61.1974 33.1308C61.1936 31.7934 62.1381 30.1692 63.2917 29.5032L64.4287 30.164C63.2751 30.83 62.3306 32.4542 62.3344 33.7915C62.3363 34.4471 62.5697 34.908 62.9448 35.126Z" fill="#5A6268"/>
<path d="M64.4288 30.164C65.5824 29.4979 66.5228 30.0339 66.5265 31.3712C66.5303 32.6968 65.5961 34.315 64.4425 34.981C63.2889 35.647 62.3382 35.1171 62.3345 33.7915C62.3307 32.4542 63.2752 30.83 64.4288 30.164Z" fill="#3C4349"/>
<path d="M56.8981 11.9845L56.8355 18.8183C56.8281 21.4857 49.9979 21.3424 50.0051 18.7992L50.0677 11.9654C50.0663 12.4766 50.4026 12.9894 51.0768 13.3787C52.4148 14.1512 54.5802 14.1468 55.902 13.3787C56.5643 12.9938 56.8967 12.4894 56.8981 11.9845Z" fill="#7E858B"/>
<path d="M55.8937 10.5794C57.2317 11.3519 57.2313 12.6061 55.902 13.3786C54.5801 14.1468 52.4148 14.1512 51.0767 13.3787C49.7387 12.6062 49.7316 11.3476 51.0535 10.5794C52.3828 9.80687 54.5557 9.80688 55.8937 10.5794Z" fill="#3C4349"/>
</svg>
