<svg width="100" height="100" viewBox="0 0 100 100" fill="none" xmlns="http://www.w3.org/2000/svg">
<path d="M50.8 12.4L50.64 61.2L26.32 75.28L26.48 26.64L50.8 12.4Z" fill="#0092BF"/>
<path d="M56.08 16.72L31.92 30.8L26.48 27.76L50.8 13.52L56.08 16.72Z" fill="#F1F1F1"/>
<path d="M31.92 29.68L31.76 78.32L26.32 75.28L26.48 26.64L31.92 29.68Z" fill="#F1F1F1"/>
<path d="M31.92 31.6L31.76 80.24L22.96 75.28L23.12 26.64L31.92 31.6Z" fill="#55B8E8"/>
<path d="M25.52 73.84V50.16L29.52 52.4L29.36 76.08L25.52 73.84Z" fill="white"/>
<path d="M25.52 40.24V32.88L29.52 35.12L29.36 42.64L25.52 40.24Z" fill="#0092BF"/>
<path d="M57.84 16.56L57.68 65.2L31.76 80.24L31.92 31.6L57.84 16.56Z" fill="#0092BF"/>
<path d="M57.84 16.56L31.92 31.6L23.12 26.64L49.04 11.44L50.8 12.4L26.48 26.64L31.92 29.68L56.08 15.6L57.84 16.56Z" fill="#7BD3F7"/>
<path d="M60.88 21.52L60.72 65.84L37.04 79.6L37.2 35.28L60.88 21.52Z" fill="#B98E2E"/>
<path d="M66 25.68L42.48 39.44L37.2 36.4L60.88 22.64L66 25.68Z" fill="#F1F1F1"/>
<path d="M42.48 38.32L42.32 82.64L37.04 79.6L37.2 35.28L42.48 38.32Z" fill="#F1F1F1"/>
<path d="M42.48 40.24L42.32 84.56L33.84 79.6L34 35.28L42.48 40.24Z" fill="#EBC143"/>
<path d="M36.24 78.16L36.4 58.96L40.08 61.04L39.92 80.4L36.24 78.16Z" fill="white"/>
<path d="M36.24 50L36.4 40.4L40.08 42.48L39.92 52.08L36.24 50Z" fill="#B98E2E"/>
<path d="M67.6 25.52V69.84L42.32 84.56L42.48 40.24L67.6 25.52Z" fill="#B98E2E"/>
<path d="M67.6 25.52L42.48 40.24L34 35.28L59.12 20.56L60.88 21.52L37.2 35.28L42.48 38.32L66 24.56L67.6 25.52Z" fill="#F6D341"/>
<path d="M70.32 30.16L70.16 70.32L47.28 83.76V43.6L70.32 30.16Z" fill="#BC2B3B"/>
<path d="M75.44 34.16L52.4 47.6L47.28 44.56L70.32 31.28L75.44 34.16Z" fill="#F1F1F1"/>
<path d="M52.4 46.48L52.24 86.64L47.28 83.76V43.6L52.4 46.48Z" fill="#F1F1F1"/>
<path d="M52.4 48.4L52.24 88.56L44.08 83.76L44.24 43.6L52.4 48.4Z" fill="#DD454D"/>
<path d="M46.48 82.32V67.28L50 69.2L49.84 84.4L46.48 82.32Z" fill="white"/>
<path d="M46.48 55.28V47.6L50 49.52L49.84 57.36L46.48 55.28Z" fill="#A72433"/>
<path d="M77.04 34L76.88 74.32L52.24 88.56L52.4 48.4L77.04 34Z" fill="#BC2B3B"/>
<path d="M77.04 34L52.4 48.4L44.24 43.6L68.72 29.36L70.32 30.16L47.28 43.6L52.4 46.48L75.44 33.2L77.04 34Z" fill="#EF5A5A"/>
</svg>
