<svg width="100" height="100" viewBox="0 0 100 100" fill="none" xmlns="http://www.w3.org/2000/svg">
<rect width="100" height="100" fill="white"/>
<path d="M67.296 31.2295L38.168 14.4129C36.7231 13.5797 35.4012 13.4345 34.3803 13.8603L34.3797 13.8591L34.3594 13.8708C34.171 13.9521 33.9921 14.0538 33.8259 14.1742L28.2142 17.3569L32.3446 25.5649V61.3403C32.3446 65.0406 34.9649 69.5797 38.1686 71.4295L62.4892 85.4702L65.7169 91.8849L71.2492 88.7212C71.3502 88.6695 71.448 88.6142 71.5428 88.5532L71.6117 88.5138L71.6086 88.5077C72.5446 87.8542 73.1206 86.6105 73.1206 84.8825V41.3194C73.1206 37.6191 70.5003 33.0788 67.296 31.2295V31.2295Z" fill="#83ACB5"/>
<path d="M67.296 31.2295L38.168 14.4129C36.7231 13.5797 35.4012 13.4345 34.3803 13.8603L34.3797 13.8591L34.3594 13.8708C34.171 13.9521 33.9921 14.0538 33.8259 14.1742L28.2142 17.3569L32.3446 25.5649V34.8049L56.6702 59.8868C56.6702 61.6252 57.9022 62.3354 59.4092 56.8523L73.1206 48.9335V41.3194C73.1206 37.6191 70.5003 33.0788 67.296 31.2295V31.2295Z" fill="#DE2C3E"/>
<path d="M32.2825 17.7772L61.4117 34.5926C64.6148 36.4431 67.2357 40.9828 67.2357 44.6825V88.2449C67.2357 91.9446 64.6148 93.4579 61.4117 91.608L32.2825 74.7926C29.0806 72.9434 26.4585 68.4019 26.4585 64.7022V21.1391C26.4585 17.4394 29.0806 15.9286 32.2825 17.7772V17.7772Z" fill="#D1E8F1"/>
<path d="M26.4585 21.1391C26.4585 17.4394 29.0806 15.9286 32.2825 17.7772L61.4117 34.5926C64.6148 36.4431 67.2357 40.9828 67.2357 44.6825V88.2449C67.2357 91.9446 64.6148 93.4579 61.4117 91.608" fill="#C7E2EA"/>
<path d="M61.4117 34.5926L32.2825 17.7772C29.0806 15.9286 26.4585 17.4394 26.4585 21.1391V28.8308L67.2357 52.3735V44.6818C67.2357 40.9828 64.6148 36.4431 61.4117 34.5926V34.5926Z" fill="#F74457" fill-opacity="0.8"/>
<path d="M61.4117 34.5926L32.2825 17.7772C29.0806 15.9286 26.4585 17.4394 26.4585 21.1391L35.0111 33.7686L67.2351 52.3729V44.6818C67.2357 40.9828 64.6148 36.4431 61.4117 34.5926V34.5926Z" fill="#F74457"/>
<path d="M52.6806 54.7225V61.7465L49.8991 60.1415V48.3003L47.1163 46.6954V64.9711L49.8991 66.5766V66.5674L52.6806 68.1717V78.864L55.464 80.4708V56.328L52.6806 54.7225Z" fill="#577278"/>
<path d="M52.6806 61.7465L49.8991 60.1415V48.3003L47.1163 46.6954V60.2209L50.4111 66.8621L52.6806 68.1717V71.4388L55.464 77.0498V56.328L52.6806 54.7225V61.7465Z" fill="#465D61"/>
<path d="M38.9557 58.0388L44.5194 61.2523L44.52 45.1883L36.1452 40.3846V46.8098L41.7378 50.0074V53.2203L36.1452 50.0234V69.304L44.52 74.1385V67.6782L38.9557 64.4652V58.0388Z" fill="#577278"/>
<path d="M44.5194 54.9858L44.52 45.1883L37.728 41.2929L44.5194 54.9858Z" fill="#465D61"/>
<path d="M44.5883 28.5502L48.1815 34.7735L48.7065 34.4708C48.6729 34.4893 48.6397 34.5084 48.6068 34.528L48.6615 34.496L48.7705 34.4277C49.1957 34.1483 49.4597 33.5957 49.4597 32.8252C49.4597 31.2105 48.3145 29.2271 46.9151 28.4178C46.2462 28.0332 45.6375 27.9877 45.1828 28.2148L45.0689 28.2738L44.5883 28.5502V28.5502Z" fill="#334A3F"/>
<path d="M49.4591 32.8252C49.4591 31.2105 48.3139 29.2271 46.9145 28.4178C46.2455 28.0332 45.6369 27.9877 45.1822 28.2148L45.0683 28.2738L44.5883 28.5502L47.656 33.8665L49.4591 32.8252Z" fill="#455F54"/>
<path d="M48.8591 33.1711C48.8591 31.5551 47.7138 29.5735 46.3157 28.7662C44.9169 27.9575 43.7711 28.6185 43.7723 30.2345C43.7711 31.8505 44.9163 33.832 46.3157 34.64C47.7132 35.4468 48.8591 34.7858 48.8591 33.1711Z" fill="#5B786D"/>
<path d="M43.7852 30.2363C43.7852 31.8505 44.9286 33.8326 46.3286 34.6406C47.7268 35.4492 48.8714 34.7883 48.8714 33.1717" fill="#455F54"/>
</svg>
