<svg width="100" height="100" viewBox="0 0 100 100" fill="none" xmlns="http://www.w3.org/2000/svg">
<path d="M64.0788 62.64C71.9483 67.44 71.9483 75.12 64.2301 79.92C56.5119 84.72 43.7995 84.72 36.0812 79.92C28.2117 75.12 28.2117 67.44 35.9299 62.64C43.6481 57.84 56.2092 57.84 64.0788 62.64Z" fill="#F3AC7E"/>
<path d="M69.9809 71.28L69.6783 76.24C69.6783 79.28 67.7109 82.48 63.9274 84.88C56.2092 89.68 43.4968 89.68 35.7786 84.88C31.8438 82.48 30.1791 79.44 30.3304 76.24L30.1791 71.28C30.1791 74.48 32.1465 77.52 36.0812 79.92C43.9508 84.72 56.5119 84.72 64.2301 79.92C68.0136 77.52 69.9809 74.48 69.9809 71.28Z" fill="#DD9A76"/>
<path d="M62 65.84V65.52C62 65.36 60.72 48.24 60.88 49.36L59.92 36.56L57.04 41.36L48.56 42.64L39.76 37.84L38.8 49.36L38.64 52.08L38.16 58.8L38 61.2L37.84 65.52V66.32V66.48C37.84 72.88 51.12 75.92 58.64 71.44C61.04 69.84 62.16 67.92 62 65.84Z" fill="#EAEAEC"/>
<path d="M60.08 35.44L59.92 37.84C59.92 45.52 39.76 45.52 39.76 37.84V35.44C39.6 42.96 59.92 43.28 60.08 35.44Z" fill="#DD9A76"/>
<path d="M60.08 35.44C60.08 36.72 59.92 37.68 59.92 37.84C60.08 35.28 60.08 35.44 60.08 35.44Z" fill="#DD9A76"/>
<path d="M57.04 31.28C61.04 33.52 61.04 37.36 57.04 39.6C53.04 41.84 46.64 41.84 42.64 39.6C38.64 37.36 38.64 33.52 42.64 31.28C46.64 28.88 53.04 28.88 57.04 31.28Z" fill="#FDC68D"/>
<path d="M61.68 61.04C61.2 62.32 60.08 63.6 58.32 64.72C51.6 68.56 39.6 66.8 37.84 61.2L38 57.2C41.52 63.92 58 63.92 61.36 57.36C61.52 57.52 61.68 61.36 61.68 61.04Z" fill="#FF5766"/>
<path d="M61.04 51.76C57.04 57.52 42.8 57.52 38.64 52.08L38.8 47.76C43.12 53.2 56.56 53.04 60.72 47.76L61.04 51.76Z" fill="#FF5766"/>
<path d="M28.88 17.2L31.76 15.6L45.68 26.96L42.8 28.56L28.88 17.2Z" fill="#F8D770"/>
<path d="M42.8 28.56L45.68 26.96V30.16L42.8 31.76V28.56Z" fill="#454C50"/>
<path d="M28.88 17.2L42.8 28.56V31.76L28.88 26.96V17.2Z" fill="#F2CA5C"/>
<path d="M57.04 24.4L56.88 26C56.88 27.12 56.24 28.08 54.8 28.88C52.08 30.48 47.44 30.48 44.72 28.88C43.28 28.08 42.8 26.96 42.8 26V24.24C42.8 25.36 43.44 26.32 44.88 27.12C47.6 28.72 52.24 28.72 54.96 27.12C56.24 26.48 57.04 25.36 57.04 24.4Z" fill="#DD9A76"/>
<path d="M57.04 24.4L56.88 26L57.04 24.4Z" fill="#DD9A76"/>
<path d="M54.96 21.36C57.68 22.96 57.84 25.52 54.96 27.28C52.24 28.88 47.6 28.88 44.88 27.28C42.16 25.68 42 23.12 44.88 21.36C47.6 19.76 52.08 19.76 54.96 21.36Z" fill="#F3AC7E"/>
<path d="M57.04 33.2L56.88 34.8C56.88 40.24 42.8 40.24 42.8 34.8V33.04C42.8 34.16 43.44 35.12 44.88 35.92C49.2 38.64 57.04 36.88 57.04 33.2Z" fill="#DD9A76"/>
<path d="M57.04 33.2C57.04 34.16 56.88 34.8 56.88 34.96C56.88 34.96 57.04 33.36 57.04 33.2Z" fill="#DD9A76"/>
<path d="M54.96 30.32C61.68 34.16 51.6 40.08 44.88 36.24C42.16 34.64 42 32.08 44.88 30.32C47.6 28.72 52.08 28.72 54.96 30.32Z" fill="#DD9A76"/>
<path d="M56.88 26.48L57.04 33.2L42.8 33.36V26.16L48.88 29.04C48.88 29.04 52.72 29.04 52.72 28.88L56.88 26.48Z" fill="#DD9A76"/>
<path d="M46.64 29.84C45.36 29.52 44.24 30.64 44.24 32.08V35.44C44.24 35.92 44.56 36.24 44.88 36.4C46 36.88 47.28 37.2 48.4 37.04C48.72 37.04 49.04 36.72 49.04 36.24V32.88C49.04 31.6 47.92 30.16 46.64 29.84Z" fill="#5A6268"/>
<path d="M60.56 25.68C58.48 22.32 54.64 16.56 52.08 12.88C50.96 11.12 48.56 11.12 47.44 12.88L39.12 25.68C38.16 27.12 38.64 29.04 40.24 29.84C46.96 33.04 53.36 33.04 59.6 29.84C61.04 29.04 61.52 27.12 60.56 25.68Z" fill="#F74457"/>
<path d="M50.8 12.88C50.32 11.28 49.2 11.28 48.56 12.56C48.56 12.72 48.24 13.36 48.24 13.36L42.48 25.68C42 27.12 42.32 29.04 42.96 29.84C44.56 31.28 46 31.92 47.6 32.08C49.36 32.24 50.96 31.6 52.56 30C53.2 29.36 53.36 28.08 53.2 26.96C53.2 26.32 51.92 16.56 50.8 12.88Z" fill="#FF5766"/>
<path d="M66.96 37.84L70 36.24V46.32L66.96 48.08V37.84Z" fill="#E2B647"/>
<path d="M52.56 33.36L55.44 31.6L70 36.24L66.96 37.84L52.56 33.36Z" fill="#F8D770"/>
<path d="M66.96 37.84V48.08L52.56 36.08V33.36L66.96 37.84Z" fill="#F2CA5C"/>
<path d="M62 65.52C62 65.68 62 65.84 62 65.84C61.68 67.28 60.4 68.72 58.64 69.84C51.12 74.16 39.6 71.12 38 66.48C37.84 66.16 37.84 65.84 37.84 65.52V66.32V66.48V69.36C37.84 71.12 38.8 73.04 41.2 74.32C46 77.04 53.68 77.04 58.48 74.32C60.88 72.88 62 71.12 62 69.36L62.16 66L62 65.52Z" fill="#FF5766"/>
</svg>
