<svg width="25" height="25" viewBox="0 0 25 25" version="1.1" xmlns="http://www.w3.org/2000/svg" xmlns:xlink="http://www.w3.org/1999/xlink">
<title>icon_search</title>
<desc>Created using Figma</desc>
<g id="Canvas" transform="translate(1472 -579)">
<g id="icon_search">
<g id="Vector">
<use xlink:href="#path0_fill" transform="translate(-1472 579)"/>
</g>
</g>
</g>
<defs>
<path id="path0_fill" d="M 18.2617 15.2344C 19.2383 13.6979 19.8112 11.875 19.8112 9.91536C 19.8112 4.4401 15.3776 0 9.90885 0C 4.43359 0 0 4.4401 0 9.91536C 0 15.3906 4.43359 19.8307 9.90234 19.8307C 11.888 19.8307 13.737 19.2448 15.2865 18.2422L 15.7357 17.9297L 22.806 25L 25 22.7669L 17.9362 15.6966L 18.2617 15.2344ZM 15.4557 4.375C 16.9336 5.85286 17.7474 7.81901 17.7474 9.90885C 17.7474 11.9987 16.9336 13.9648 15.4557 15.4427C 13.9779 16.9206 12.0117 17.7344 9.92187 17.7344C 7.83203 17.7344 5.86588 16.9206 4.38802 15.4427C 2.91016 13.9648 2.09635 11.9987 2.09635 9.90885C 2.09635 7.81901 2.91016 5.85286 4.38802 4.375C 5.86588 2.89714 7.83203 2.08333 9.92187 2.08333C 12.0117 2.08333 13.9779 2.89714 15.4557 4.375Z"/>
</defs>
</svg>
