<svg width="22" height="19" viewBox="0 0 22 19" fill="none" xmlns="http://www.w3.org/2000/svg">
<path d="M8.8125 0.726562V4.3125C7.6875 4.375 6.83594 4.58594 6.25781 4.94531C5.67969 5.28906 5.27344 5.85938 5.03906 6.65625C4.80469 7.4375 4.6875 8.5625 4.6875 10.0312H8.8125V18.5859H0.351562V10.4531C0.351562 7.09375 1.0625 4.63281 2.48438 3.07031C3.92188 1.50781 6.03125 0.726562 8.8125 0.726562ZM21.5859 0.726562V4.3125C20.4609 4.375 19.6094 4.57812 19.0312 4.92188C18.4531 5.25 18.0312 5.82031 17.7656 6.63281C17.5156 7.42969 17.3906 8.5625 17.3906 10.0312H21.5859V18.5859H13.0781V10.4531C13.0781 7.09375 13.7891 4.63281 15.2109 3.07031C16.6328 1.50781 18.7578 0.726562 21.5859 0.726562Z" fill="#1078FF" fill-opacity="0.3"/>
</svg>
