<svg width="20" height="20" viewBox="0 0 20 20" version="1.1" xmlns="http://www.w3.org/2000/svg" xmlns:xlink="http://www.w3.org/1999/xlink">
<title>icon_link</title>
<desc>Created using Figma</desc>
<g id="Canvas" transform="translate(1425 -582)">
<rect x="-1425" y="582" width="20" height="20" fill="#E5E5E5"/>
<clipPath id="clip-0" clip-rule="evenodd">
<path d="M -1582 522L -695 522L -695 1025L -1582 1025L -1582 522Z" fill="#FFFFFF"/>
</clipPath>
<g id="Frame" clip-path="url(#clip-0)">
<path d="M -1582 522L -695 522L -695 1025L -1582 1025L -1582 522Z" fill="#EDEDED"/>
<g id="icon_link">
<g id="Rectangle">
<use xlink:href="#path0_fill" transform="matrix(1 -2.22045e-16 2.22045e-16 1 -1425 582)" fill="#FFFFFF"/>
</g>
<g id="Vector">
<use xlink:href="#path1_fill" transform="matrix(1 -2.22045e-16 2.22045e-16 1 -1420 587)" fill="#2F80ED"/>
<use xlink:href="#path2_fill" transform="matrix(1 -2.22045e-16 2.22045e-16 1 -1420 587)" fill="#2F80ED"/>
<use xlink:href="#path3_fill" transform="matrix(1 -2.22045e-16 2.22045e-16 1 -1420 587)" fill="#2F80ED"/>
</g>
</g>
</g>
</g>
<defs>
<path id="path0_fill" d="M 0 0L 20 0L 20 20L 0 20L 0 0Z"/>
<path id="path1_fill" d="M 4.05318 3.9669L 4.04273 3.97718C 4.04691 3.97307 4.049 3.97101 4.05318 3.9669Z"/>
<path id="path2_fill" d="M 5.45507 0.65024L 4.43336 1.639C 4.43336 1.639 5.32022 1.47493 6.05662 2.02814L 6.41264 1.6836C 6.7834 1.32479 7.35352 1.34066 7.70463 1.71956L 8.34301 2.40847C 8.69411 2.78737 8.69854 3.39152 8.32777 3.75033L 5.96834 6.03366C 5.59758 6.39247 4.98644 6.37546 4.63534 5.99656L 4.00693 5.31841L 2.99575 6.29698L 3.62415 6.97513C 3.85357 7.2227 4.12568 7.40855 4.41786 7.53413C 5.24587 7.88436 6.23704 7.73367 6.92591 7.06702L 9.28534 4.78369C 10.2165 3.88259 10.2359 2.38145 9.35419 1.4299L 8.71581 0.740989C 7.83405 -0.210565 6.3862 -0.250861 5.45507 0.65024Z"/>
<path id="path3_fill" d="M 5.59321 2.4766C 4.77374 2.11403 3.79088 2.26075 3.09569 2.93352L 0.736268 5.21685C -0.194863 6.11795 -0.25536 7.61795 0.6264 8.5695L 1.26478 9.25841C 2.14654 10.21 3.6354 10.2514 4.56653 9.3503L 5.56718 8.38192C 5.56718 8.38192 4.68453 8.54192 3.93339 8.00298L 3.60897 8.31694C 3.2382 8.67575 2.62707 8.65874 2.27596 8.27984L 1.63758 7.59093C 1.28647 7.21203 1.32307 6.60902 1.69383 6.25021L 4.04273 3.97718L 4.05318 3.9669C 4.42395 3.60809 4.99414 3.62394 5.34525 4.00284L 5.98363 4.69175C 5.98762 4.69605 5.98961 4.69821 5.9936 4.70251L 7.00479 3.72394C 7.0008 3.71964 6.9988 3.71748 6.99481 3.71318L 6.35643 3.02427C 6.133 2.78315 5.87109 2.59969 5.59321 2.4766Z"/>
</defs>
</svg>
