<svg width="28" height="28" viewBox="0 0 28 28" version="1.1" xmlns="http://www.w3.org/2000/svg" xmlns:xlink="http://www.w3.org/1999/xlink">
<title>icon_twitter</title>
<desc>Created using Figma</desc>
<g id="Canvas" transform="translate(1475 -625)">
<g id="icon_twitter">
<g id="social-twitter">
<g id="Vector">
<use xlink:href="#path0_fill" transform="translate(-1468 633)" fill="#1DA1F2"/>
</g>
</g>
<g id="Ellipse">
<mask id="mask0_outline_ins">
<use xlink:href="#path1_fill" fill="white" transform="translate(-1475 625)"/>
</mask>
<g mask="url(#mask0_outline_ins)">
<use xlink:href="#path2_stroke_2x" transform="translate(-1475 625)" fill="#1DA1F2"/>
</g>
</g>
</g>
</g>
<defs>
<path id="path0_fill" d="M 15 1.42188C 14.4469 1.6625 13.8557 1.825 13.2327 1.9C 13.8684 1.525 14.3579 0.93125 14.5868 0.225C 13.9924 0.571875 13.3344 0.825 12.6319 0.959375C 12.0693 0.36875 11.2683 0 10.3846 0C 8.68404 0 7.30769 1.35625 7.30769 3.02812C 7.30769 3.26562 7.33312 3.49688 7.38716 3.71875C 4.82835 3.59375 2.55881 2.3875 1.04259 0.553125C 0.778767 1 0.626192 1.52187 0.626192 2.075C 0.626192 3.125 1.17292 4.05313 1.99936 4.59688C 1.49078 4.58438 1.01399 4.44688 0.600763 4.21875C 0.600763 4.23125 0.600763 4.24375 0.600763 4.25625C 0.600763 5.725 1.66243 6.94688 3.07057 7.225C 2.8131 7.29375 2.53973 7.33125 2.26001 7.33125C 2.06294 7.33125 1.86904 7.3125 1.6815 7.275C 2.07247 8.47812 3.21043 9.35313 4.55817 9.37813C 3.50604 10.1906 2.17737 10.675 0.734266 10.675C 0.486332 10.675 0.241577 10.6594 1.21255e-08 10.6313C 1.35728 11.5 2.97521 12 4.71074 12C 10.3783 12 13.4743 7.38438 13.4743 3.38125C 13.4743 3.25 13.4711 3.11875 13.4647 2.99062C 14.0655 2.5625 14.5868 2.03125 15 1.42188Z"/>
<path id="path1_fill" d="M 28 14C 28 21.732 21.732 28 14 28C 6.26801 28 0 21.732 0 14C 0 6.26801 6.26801 0 14 0C 21.732 0 28 6.26801 28 14Z"/>
<path id="path2_stroke_2x" d="M 27 14C 27 21.1797 21.1797 27 14 27L 14 29C 22.2843 29 29 22.2843 29 14L 27 14ZM 14 27C 6.8203 27 1 21.1797 1 14L -1 14C -1 22.2843 5.71573 29 14 29L 14 27ZM 1 14C 1 6.8203 6.8203 1 14 1L 14 -1C 5.71573 -1 -1 5.71573 -1 14L 1 14ZM 14 1C 21.1797 1 27 6.8203 27 14L 29 14C 29 5.71573 22.2843 -1 14 -1L 14 1Z"/>
</defs>
</svg>
