<svg width="28" height="28" viewBox="0 0 28 28" version="1.1" xmlns="http://www.w3.org/2000/svg" xmlns:xlink="http://www.w3.org/1999/xlink">
<title>icon_fb</title>
<desc>Created using Figma</desc>
<g id="Canvas" transform="translate(1518 -625)">
<g id="icon_fb">
<g id="Group 7">
<g id="Ellipse">
<mask id="mask0_outline_ins">
<use xlink:href="#path0_fill" fill="white" transform="translate(-1518 625)"/>
</mask>
<g mask="url(#mask0_outline_ins)">
<use xlink:href="#path1_stroke_2x" transform="translate(-1518 625)" fill="#3B5998"/>
</g>
</g>
</g>
<g id="social-facebook-outline">
<g id="Vector">
<use xlink:href="#path2_fill" transform="translate(-1508 631)" fill="#3B5998"/>
<use xlink:href="#path3_fill" transform="translate(-1508 631)" fill="#3B5998"/>
</g>
</g>
</g>
</g>
<defs>
<path id="path0_fill" d="M 28 14C 28 21.732 21.732 28 14 28C 6.26801 28 0 21.732 0 14C 0 6.26801 6.26801 0 14 0C 21.732 0 28 6.26801 28 14Z"/>
<path id="path1_stroke_2x" d="M 27 14C 27 21.1797 21.1797 27 14 27L 14 29C 22.2843 29 29 22.2843 29 14L 27 14ZM 14 27C 6.8203 27 1 21.1797 1 14L -1 14C -1 22.2843 5.71573 29 14 29L 14 27ZM 1 14C 1 6.8203 6.8203 1 14 1L 14 -1C 5.71573 -1 -1 5.71573 -1 14L 1 14ZM 14 1C 21.1797 1 27 6.8203 27 14L 29 14C 29 5.71573 22.2843 -1 14 -1L 14 1Z"/>
<path id="path2_fill" d="M 6.20521 7.79167L 4.70677 7.79167L 4.08333 7.79167L 4.08333 8.47786L 4.08333 16.2917L 2.22396 16.2917L 2.22396 8.47786L 2.22396 7.79167L 1.68073 7.79167L 0.583333 7.79167L 0.583333 6.375L 1.68073 6.375L 2.22396 6.375L 2.22396 5.64453L 2.22396 3.7763C 2.22396 2.69167 2.42083 1.95234 2.78906 1.48307C 3.1974 0.951823 3.92292 0.708333 4.96198 0.708333L 6.41667 0.708333L 6.41667 2.125L 5.77865 2.125C 5.34115 2.125 4.77604 2.1737 4.42604 2.64297C 4.13073 3.04141 4.08333 3.53281 4.08333 3.97552L 4.08333 5.6401L 4.08333 6.375L 4.70677 6.375L 6.34375 6.375L 6.20521 7.79167Z"/>
<path id="path3_fill" fill-rule="evenodd" d="M 4.66667 5.66667L 4.66667 3.97995C 4.66667 3.21849 4.80521 2.83333 5.77865 2.83333L 7 2.83333L 7 0L 4.96198 0C 2.46458 0 1.64062 1.3901 1.64062 3.7763L 1.64062 5.66667L -1.03621e-15 5.66667L -1.03621e-15 8.5L 1.64062 8.5L 1.64062 17L 4.66667 17L 4.66667 8.5L 6.72292 8.5L 7 5.66667L 4.66667 5.66667ZM 4.70677 7.79167L 6.20521 7.79167L 6.34375 6.375L 4.70677 6.375L 4.08333 6.375L 4.08333 5.6401L 4.08333 3.97552C 4.08333 3.53281 4.13073 3.04141 4.42604 2.64297C 4.77604 2.1737 5.34115 2.125 5.77865 2.125L 6.41667 2.125L 6.41667 0.708333L 4.96198 0.708333C 3.92292 0.708333 3.1974 0.951823 2.78906 1.48307C 2.42083 1.95234 2.22396 2.69167 2.22396 3.7763L 2.22396 5.64453L 2.22396 6.375L 1.68073 6.375L 0.583333 6.375L 0.583333 7.79167L 1.68073 7.79167L 2.22396 7.79167L 2.22396 8.47786L 2.22396 16.2917L 4.08333 16.2917L 4.08333 8.47786L 4.08333 7.79167L 4.70677 7.79167Z"/>
</defs>
</svg>
