<svg width="25" height="25" viewBox="0 0 25 25" fill="none" xmlns="http://www.w3.org/2000/svg">
<path d="M18.2617 15.2344C19.2383 13.6979 19.8112 11.875 19.8112 9.91536C19.8112 4.4401 15.3776 0 9.90885 0C4.43359 0 0 4.4401 0 9.91536C0 15.3906 4.43359 19.8307 9.90234 19.8307C11.888 19.8307 13.737 19.2448 15.2865 18.2422L15.7357 17.9297L22.806 25L25 22.7669L17.9362 15.6966L18.2617 15.2344ZM15.4557 4.375C16.9336 5.85286 17.7474 7.81901 17.7474 9.90885C17.7474 11.9987 16.9336 13.9648 15.4557 15.4427C13.9779 16.9206 12.0117 17.7344 9.92187 17.7344C7.83203 17.7344 5.86588 16.9206 4.38802 15.4427C2.91016 13.9648 2.09635 11.9987 2.09635 9.90885C2.09635 7.81901 2.91016 5.85286 4.38802 4.375C5.86588 2.89714 7.83203 2.08333 9.92187 2.08333C12.0117 2.08333 13.9779 2.89714 15.4557 4.375Z" fill="white"/>
</svg>
