<svg width="90" height="45" viewBox="0 0 90 45" version="1.1" xmlns="http://www.w3.org/2000/svg" xmlns:xlink="http://www.w3.org/1999/xlink">
<title>icon_email</title>
<desc>Created using Figma</desc>
<g id="Canvas" transform="translate(1527 -688)">
<g id="icon_email">
<g id="Group">
<g id="Vector">
<use xlink:href="#path0_fill" transform="translate(-1495.09 703.6)" fill="#CCE7FF"/>
</g>
<g id="Vector">
<use xlink:href="#path1_stroke" transform="translate(-1525 690)" fill="#1078FF"/>
</g>
</g>
</g>
</g>
<defs>
<path id="path0_fill" d="M 2.94144 0L -3.26565e-15 29.3997L 55.152 29.3997L 58.0934 0L 2.94144 0Z"/>
<path id="path1_stroke" d="M 80.8896 36.7497L 80.8896 38.7497C 81.917 38.7497 82.7774 37.9711 82.8796 36.9488L 80.8896 36.7497ZM 25.7376 36.7497L 23.7475 36.5506C 23.6913 37.1128 23.8755 37.6726 24.2547 38.0916C 24.6338 38.5106 25.1725 38.7497 25.7376 38.7497L 25.7376 36.7497ZM 29.4144 0L 29.4144 -2C 28.3869 -2 27.5266 -1.22147 27.4243 -0.199106L 29.4144 0ZM 84.5664 0L 86.5564 0.199106C 86.6127 -0.363162 86.4285 -0.922988 86.0493 -1.34197C 85.6702 -1.76096 85.1315 -2 84.5664 -2L 84.5664 0ZM 0 27.3997C -1.10457 27.3997 -2 28.2952 -2 29.3997C -2 30.5043 -1.10457 31.3997 0 31.3997L 0 27.3997ZM 18.384 31.3997C 19.4886 31.3997 20.384 30.5043 20.384 29.3997C 20.384 28.2952 19.4886 27.3997 18.384 27.3997L 18.384 31.3997ZM 7.35359 16.3748C 6.24902 16.3748 5.35359 17.2703 5.35359 18.3748C 5.35359 19.4794 6.24902 20.3748 7.35359 20.3748L 7.35359 16.3748ZM 20.2224 20.3748C 21.327 20.3748 22.2224 19.4794 22.2224 18.3748C 22.2224 17.2703 21.327 16.3748 20.2224 16.3748L 20.2224 20.3748ZM 14.7072 5.34994C 13.6026 5.34994 12.7072 6.24537 12.7072 7.34994C 12.7072 8.45451 13.6026 9.34994 14.7072 9.34994L 14.7072 5.34994ZM 22.0608 9.34994C 23.1654 9.34994 24.0608 8.45451 24.0608 7.34994C 24.0608 6.24537 23.1654 5.34994 22.0608 5.34994L 22.0608 9.34994ZM 56.9904 22.0498L 55.7414 23.6118C 56.4717 24.1958 57.5091 24.1958 58.2394 23.6118L 56.9904 22.0498ZM 80.8896 34.7497L 25.7376 34.7497L 25.7376 38.7497L 80.8896 38.7497L 80.8896 34.7497ZM 27.7277 36.9488L 31.4045 0.199106L 27.4243 -0.199106L 23.7475 36.5506L 27.7277 36.9488ZM 29.4144 2L 84.5664 2L 84.5664 -2L 29.4144 -2L 29.4144 2ZM 82.5763 -0.199106L 78.8995 36.5506L 82.8796 36.9488L 86.5564 0.199106L 82.5763 -0.199106ZM 0 31.3997L 18.384 31.3997L 18.384 27.3997L 0 27.3997L 0 31.3997ZM 7.35359 20.3748L 20.2224 20.3748L 20.2224 16.3748L 7.35359 16.3748L 7.35359 20.3748ZM 14.7072 9.34994L 22.0608 9.34994L 22.0608 5.34994L 14.7072 5.34994L 14.7072 9.34994ZM 28.1654 1.56204L 55.7414 23.6118L 58.2394 20.4878L 30.6634 -1.56204L 28.1654 1.56204ZM 58.2394 23.6118L 85.8154 1.56204L 83.3174 -1.56204L 55.7414 20.4878L 58.2394 23.6118Z"/>
</defs>
</svg>
