<svg width="300" height="80" viewBox="0 0 300 80" fill="none" xmlns="http://www.w3.org/2000/svg">
<mask id="mask0" mask-type="alpha" maskUnits="userSpaceOnUse" x="0" y="0" width="80" height="80">
<circle cx="40" cy="40" r="40" fill="#08295E"/>
</mask>
<g mask="url(#mask0)">
<circle cx="40" cy="40" r="40" fill="#08295E"/>
<path fill-rule="evenodd" clip-rule="evenodd" d="M18.9114 39.142C18.9114 27.4925 28.3551 18.0487 40.0046 18.0487C51.6541 18.0487 61.0979 27.4925 61.0979 39.142C61.0979 50.3447 54.213 55.6337 49.6349 57.6867L48.5605 55.2911C52.521 53.515 58.4724 48.9948 58.4724 39.142C58.4724 28.9425 50.2041 20.6742 40.0046 20.6742C29.8052 20.6742 21.5369 28.9425 21.5369 39.142C21.5369 44.1567 23.996 48.1929 26.5567 51.0331C27.831 52.4465 29.108 53.5377 30.0654 54.2742C30.5432 54.6418 30.9388 54.9191 31.2112 55.1021C31.3473 55.1936 31.4524 55.2615 31.5213 55.3051C31.5558 55.3269 31.5811 55.3427 31.5968 55.3524L31.613 55.3623L31.6148 55.3634C31.6148 55.3634 31.6141 55.363 30.9392 56.4889C30.2643 57.6149 30.2634 57.6143 30.2634 57.6143L30.2622 57.6136L30.259 57.6117L30.2499 57.6062C30.2425 57.6017 30.2325 57.5956 30.2201 57.588C30.1952 57.5726 30.1605 57.551 30.1164 57.5231C30.0284 57.4674 29.9033 57.3866 29.7464 57.2811C29.4328 57.0703 28.9913 56.7604 28.4645 56.3552C27.4129 55.5461 26.0111 54.3489 24.6067 52.7911C21.8098 49.6889 18.9114 45.0516 18.9114 39.142Z" fill="#51C7E3"/>
<path fill-rule="evenodd" clip-rule="evenodd" d="M8.74119 41.3616C8.03688 31.5574 12.555 23.4026 18.2074 17.7502C30.4652 5.49245 50.3389 5.49245 62.5967 17.7502C68.8531 24.0067 71.6737 33.5321 71.4639 41.303C71.3683 44.8423 70.0707 50.2259 67.354 55.1719C63.8931 61.4732 57.7811 66.0314 53.6366 67.5421L52.7374 65.0754C56.2927 63.7794 61.9024 59.6438 65.0528 53.908C67.5845 49.2987 68.7559 44.3212 68.8393 41.2321C69.0339 34.0247 66.3854 25.252 60.7402 19.6067C49.5077 8.37427 31.2964 8.37428 20.0639 19.6067C14.7834 24.8873 10.7251 32.3365 11.3599 41.1735C11.7296 46.3187 13.5277 51.8437 16.5124 55.9495C19.4967 60.0547 23.4882 62.8374 27.9236 65.1441L26.7122 67.4734C22.0922 65.0708 17.7065 62.0573 14.3887 57.4933C11.0737 52.933 9.14047 46.9198 8.74119 41.3616Z" fill="#E1B729"/>
<path fill-rule="evenodd" clip-rule="evenodd" d="M28.4003 39.7958C28.2679 36.583 29.3229 33.1988 31.6922 30.8295C36.3376 26.1841 43.8693 26.1841 48.5147 30.8295C50.9206 33.2354 51.8382 36.8372 51.6086 40.1076C51.3808 43.3537 49.9873 46.6619 47.2825 48.2937L45.9262 46.0456C47.6319 45.0166 48.7958 42.6852 48.9896 39.9238C49.1817 37.1866 48.3851 34.4129 46.6582 32.686C43.0381 29.0659 37.1688 29.0659 33.5487 32.686C31.7853 34.4495 30.9159 37.0756 31.0236 39.6877C31.1313 42.3024 32.2069 44.7123 34.084 46.1191L32.5095 48.2201C29.8616 46.2356 28.5326 43.006 28.4003 39.7958Z" fill="white"/>
<path fill-rule="evenodd" clip-rule="evenodd" d="M37.0913 38.9786L41.9613 39.8373L34.671 80.3679L29.7755 80.4689L37.0913 38.9786Z" fill="white"/>
<path fill-rule="evenodd" clip-rule="evenodd" d="M38.103 39.7775L42.973 38.9188L50.2776 80.3452L45.3161 80.2444L38.103 39.7775Z" fill="white"/>
<path fill-rule="evenodd" clip-rule="evenodd" d="M33.0815 50.4167H46.9279V55.3619H33.0815V50.4167Z" fill="white"/>
<path fill-rule="evenodd" clip-rule="evenodd" d="M30.1145 59.318H49.895V64.2631H30.1145V59.318Z" fill="white"/>
<path fill-rule="evenodd" clip-rule="evenodd" d="M27.1475 68.2191H52.8621V73.1642H27.1475V68.2191Z" fill="white"/>
<path fill-rule="evenodd" clip-rule="evenodd" d="M40.1034 43.6914C42.5615 43.6914 44.5541 41.6988 44.5541 39.2408C44.5541 36.7828 42.5615 34.7902 40.1034 34.7902C37.6454 34.7902 35.6528 36.7828 35.6528 39.2408C35.6528 41.6988 37.6454 43.6914 40.1034 43.6914Z" fill="white"/>
</g>
<path d="M125.484 33.0469H119.984V52H116.266V33.0469H110.75V29.7188H125.484V33.0469ZM137.047 35.9844C138.755 35.9844 140.094 36.4792 141.062 37.4688C142.042 38.4479 142.531 39.875 142.531 41.75V52H138.906V42.375C138.906 41.1771 138.615 40.3021 138.031 39.75C137.458 39.1979 136.708 38.9219 135.781 38.9219C134.74 38.9219 133.87 39.25 133.172 39.9062C132.474 40.5521 132.12 41.5729 132.109 42.9688V52H128.516V28H132.109V38.25C132.651 37.5312 133.344 36.974 134.188 36.5781C135.031 36.1823 135.984 35.9844 137.047 35.9844ZM161.516 44.7812H149.562C149.604 45.7917 149.833 46.6458 150.25 47.3438C150.667 48.0312 151.208 48.5469 151.875 48.8906C152.542 49.2344 153.286 49.4062 154.109 49.4062C154.984 49.4062 155.76 49.1927 156.438 48.7656C157.125 48.3385 157.646 47.7292 158 46.9375L161.281 47.5C160.74 49.0104 159.833 50.1875 158.562 51.0312C157.292 51.875 155.818 52.2969 154.141 52.2969C152.526 52.2969 151.109 51.974 149.891 51.3281C148.672 50.6823 147.724 49.7448 147.047 48.5156C146.37 47.2865 146.031 45.8281 146.031 44.1406C146.031 42.4531 146.37 40.9948 147.047 39.7656C147.734 38.5365 148.682 37.599 149.891 36.9531C151.099 36.2969 152.479 35.9688 154.031 35.9688C155.51 35.9688 156.812 36.2604 157.938 36.8438C159.062 37.4271 159.948 38.3125 160.594 39.5C161.24 40.6771 161.562 42.1354 161.562 43.875L161.516 44.7812ZM154.047 38.6406C152.911 38.6406 151.964 38.9271 151.203 39.5C150.453 40.0625 149.958 40.9271 149.719 42.0938H157.953C157.818 40.9583 157.401 40.099 156.703 39.5156C156.005 38.9323 155.12 38.6406 154.047 38.6406ZM181.5 52.2969C179.927 52.2969 178.505 52.0573 177.234 51.5781C175.964 51.0885 174.922 50.3802 174.109 49.4531C173.297 48.5156 172.771 47.401 172.531 46.1094L176.375 45.2188C176.573 46.4792 177.146 47.4583 178.094 48.1562C179.052 48.8438 180.234 49.1875 181.641 49.1875C182.818 49.1875 183.797 48.9271 184.578 48.4062C185.359 47.875 185.75 47.0677 185.75 45.9844C185.75 45.2135 185.5 44.5833 185 44.0938C184.5 43.5938 183.885 43.2083 183.156 42.9375C182.438 42.6562 181.417 42.3281 180.094 41.9531C178.635 41.526 177.443 41.1042 176.516 40.6875C175.589 40.2604 174.812 39.651 174.188 38.8594C173.562 38.0573 173.25 37.0208 173.25 35.75C173.25 34.4062 173.583 33.2604 174.25 32.3125C174.927 31.3542 175.844 30.6302 177 30.1406C178.156 29.651 179.453 29.4062 180.891 29.4062C182.255 29.4062 183.526 29.6042 184.703 30C185.88 30.3958 186.88 31.0156 187.703 31.8594C188.536 32.7031 189.089 33.7656 189.359 35.0469L185.75 35.9531C185.51 34.8073 184.974 33.9531 184.141 33.3906C183.318 32.8177 182.297 32.5312 181.078 32.5312C179.932 32.5312 178.969 32.7917 178.188 33.3125C177.417 33.8333 177.031 34.625 177.031 35.6875C177.031 36.3333 177.25 36.8646 177.688 37.2812C178.125 37.6979 178.672 38.0312 179.328 38.2812C179.984 38.5208 180.906 38.8073 182.094 39.1406C183.656 39.5781 184.943 40.0156 185.953 40.4531C186.964 40.8906 187.823 41.5417 188.531 42.4062C189.25 43.2604 189.609 44.3802 189.609 45.7656C189.609 47.2344 189.24 48.4583 188.5 49.4375C187.76 50.4167 186.781 51.1406 185.562 51.6094C184.344 52.0677 182.99 52.2969 181.5 52.2969ZM193.766 36.2812H197.375V52H193.766V36.2812ZM195.609 33.2812C195.214 33.2812 194.844 33.1823 194.5 32.9844C194.156 32.7865 193.885 32.5208 193.688 32.1875C193.49 31.8438 193.391 31.474 193.391 31.0781C193.391 30.6823 193.49 30.3177 193.688 29.9844C193.885 29.6406 194.156 29.3698 194.5 29.1719C194.844 28.974 195.214 28.875 195.609 28.875C195.995 28.875 196.354 28.974 196.688 29.1719C197.031 29.3698 197.302 29.6406 197.5 29.9844C197.708 30.3177 197.812 30.6823 197.812 31.0781C197.812 31.474 197.708 31.8438 197.5 32.1875C197.302 32.5208 197.031 32.7865 196.688 32.9844C196.354 33.1823 195.995 33.2812 195.609 33.2812ZM217.031 36.2812V51.0156C217.031 53.8073 216.323 55.9062 214.906 57.3125C213.5 58.7292 211.542 59.4375 209.031 59.4375C205.062 59.4375 202.438 57.8229 201.156 54.5938L204.141 53.25C204.599 54.3646 205.214 55.1927 205.984 55.7344C206.755 56.2865 207.724 56.5625 208.891 56.5625C210.38 56.5625 211.505 56.099 212.266 55.1719C213.026 54.2552 213.406 52.9479 213.406 51.25V48.9219C212.927 49.6927 212.224 50.3177 211.297 50.7969C210.38 51.2656 209.375 51.5 208.281 51.5C206.979 51.5 205.781 51.1719 204.688 50.5156C203.594 49.8594 202.724 48.9427 202.078 47.7656C201.432 46.5781 201.109 45.2292 201.109 43.7188C201.109 42.2083 201.432 40.8698 202.078 39.7031C202.724 38.526 203.594 37.6146 204.688 36.9688C205.792 36.3125 207 35.9844 208.312 35.9844C209.448 35.9844 210.474 36.2396 211.391 36.75C212.318 37.25 213.01 37.9167 213.469 38.75L213.562 36.2812H217.031ZM209.156 48.5312C210 48.5312 210.771 48.3177 211.469 47.8906C212.167 47.4531 212.719 46.8646 213.125 46.125C213.531 45.3854 213.734 44.5833 213.734 43.7188C213.734 42.8438 213.531 42.0417 213.125 41.3125C212.729 40.5729 212.177 39.9844 211.469 39.5469C210.771 39.1094 210 38.8906 209.156 38.8906C208.312 38.8906 207.542 39.099 206.844 39.5156C206.146 39.9323 205.594 40.5104 205.188 41.25C204.792 41.9896 204.594 42.8125 204.594 43.7188C204.594 44.6146 204.797 45.4323 205.203 46.1719C205.609 46.901 206.161 47.4792 206.859 47.9062C207.557 48.3229 208.323 48.5312 209.156 48.5312ZM230.469 35.9844C232.24 35.9844 233.625 36.4583 234.625 37.4062C235.625 38.3438 236.125 39.6823 236.125 41.4219V52H232.5V42.2031C232.5 41.0885 232.208 40.2656 231.625 39.7344C231.052 39.1927 230.312 38.9219 229.406 38.9219C228.323 38.9219 227.438 39.2552 226.75 39.9219C226.062 40.5781 225.714 41.5938 225.703 42.9688V52H222.109V36.2812H225.703V38.1406C226.234 37.4531 226.906 36.9219 227.719 36.5469C228.542 36.1719 229.458 35.9844 230.469 35.9844ZM244.625 52.2969C243.729 52.2969 242.917 52.151 242.188 51.8594C241.458 51.5573 240.875 51.0885 240.438 50.4531C240 49.8073 239.781 48.9948 239.781 48.0156C239.781 46.9531 240.042 46.0885 240.562 45.4219C241.083 44.7552 241.776 44.2448 242.641 43.8906C243.505 43.5365 244.557 43.2448 245.797 43.0156L248.172 42.5781C248.682 42.474 249.052 42.3073 249.281 42.0781C249.51 41.849 249.625 41.5417 249.625 41.1562C249.625 40.2604 249.333 39.6094 248.75 39.2031C248.167 38.7865 247.432 38.5781 246.547 38.5781C245.63 38.5781 244.875 38.8021 244.281 39.25C243.688 39.6875 243.333 40.3854 243.219 41.3438L239.984 40.75C240.516 37.5833 242.776 36 246.766 36C248.599 36 250.109 36.4167 251.297 37.25C252.484 38.0833 253.078 39.5156 253.078 41.5469V47.6406C253.078 48.1406 253.125 48.526 253.219 48.7969C253.312 49.0677 253.464 49.2604 253.672 49.375C253.891 49.4896 254.188 49.5469 254.562 49.5469H254.812V52H253.109C252.214 52 251.5 51.8333 250.969 51.5C250.448 51.1667 250.099 50.6406 249.922 49.9219H249.75C249.177 50.7344 248.432 51.3333 247.516 51.7188C246.609 52.1042 245.646 52.2969 244.625 52.2969ZM245.469 49.4688C246.292 49.4688 247.036 49.276 247.703 48.8906C248.37 48.5052 248.896 47.9583 249.281 47.25C249.667 46.5312 249.859 45.7031 249.859 44.7656L245.844 45.6562C244.979 45.8229 244.333 46.0677 243.906 46.3906C243.479 46.7031 243.266 47.1458 243.266 47.7188C243.266 48.3021 243.469 48.7396 243.875 49.0312C244.281 49.3229 244.812 49.4688 245.469 49.4688ZM258.297 28H261.922V52H258.297V28Z" fill="black"/>
</svg>
