<svg width="304" height="89" viewBox="0 0 304 89" fill="none" xmlns="http://www.w3.org/2000/svg">
<path fill-rule="evenodd" clip-rule="evenodd" d="M22.9114 44.142C22.9114 32.4925 32.3551 23.0487 44.0046 23.0487C55.6541 23.0487 65.0979 32.4925 65.0979 44.142C65.0979 55.3447 58.213 60.6337 53.6349 62.6867L52.5605 60.2911C56.521 58.515 62.4724 53.9948 62.4724 44.142C62.4724 33.9425 54.2041 25.6742 44.0046 25.6742C33.8052 25.6742 25.5369 33.9425 25.5369 44.142C25.5369 49.1567 27.996 53.1929 30.5567 56.0331C31.831 57.4465 33.108 58.5377 34.0654 59.2742C34.5432 59.6418 34.9388 59.9191 35.2112 60.1021C35.3473 60.1936 35.4524 60.2615 35.5213 60.3051C35.5558 60.3269 35.5811 60.3427 35.5968 60.3524L35.613 60.3623L35.6148 60.3634C35.6148 60.3634 35.6141 60.363 34.9392 61.4889C34.2643 62.6149 34.2634 62.6143 34.2634 62.6143L34.2622 62.6136L34.259 62.6117L34.2499 62.6062C34.2425 62.6017 34.2325 62.5956 34.2201 62.588C34.1952 62.5726 34.1605 62.551 34.1164 62.5231C34.0284 62.4674 33.9033 62.3866 33.7464 62.2811C33.4328 62.0703 32.9913 61.7604 32.4645 61.3552C31.4129 60.5461 30.0111 59.3489 28.6067 57.7911C25.8098 54.6889 22.9114 50.0516 22.9114 44.142Z" fill="white"/>
<path fill-rule="evenodd" clip-rule="evenodd" d="M12.7412 46.3616C12.0369 36.5574 16.555 28.4026 22.2074 22.7502C34.4652 10.4925 54.3389 10.4924 66.5967 22.7502C72.8531 29.0067 75.6737 38.5321 75.4639 46.303C75.3683 49.8423 74.0707 55.2259 71.354 60.1719C67.8931 66.4732 61.7811 71.0314 57.6366 72.5421L56.7374 70.0754C60.2927 68.7794 65.9024 64.6438 69.0528 58.908C71.5845 54.2987 72.7559 49.3212 72.8393 46.2321C73.0339 39.0247 70.3854 30.252 64.7402 24.6067C53.5077 13.3743 35.2964 13.3743 24.0639 24.6067C18.7834 29.8873 14.7251 37.3365 15.3599 46.1735C15.7296 51.3187 17.5277 56.8437 20.5124 60.9495C23.4967 65.0547 27.4882 67.8374 31.9236 70.1441L30.7122 72.4734C26.0922 70.0708 21.7065 67.0573 18.3887 62.4933C15.0737 57.933 13.1405 51.9198 12.7412 46.3616Z" fill="white"/>
<path fill-rule="evenodd" clip-rule="evenodd" d="M32.4003 44.7958C32.2679 41.583 33.3229 38.1988 35.6922 35.8295C40.3376 31.1841 47.8693 31.1841 52.5147 35.8295C54.9206 38.2354 55.8382 41.8372 55.6086 45.1076C55.3808 48.3537 53.9873 51.6619 51.2825 53.2937L49.9262 51.0456C51.6319 50.0166 52.7958 47.6852 52.9896 44.9238C53.1817 42.1866 52.3851 39.4129 50.6582 37.686C47.0381 34.0659 41.1688 34.0659 37.5487 37.686C35.7853 39.4495 34.9159 42.0756 35.0236 44.6877C35.1313 47.3024 36.2069 49.7123 38.084 51.1191L36.5095 53.2201C33.8616 51.2356 32.5326 48.006 32.4003 44.7958Z" fill="white"/>
<path fill-rule="evenodd" clip-rule="evenodd" d="M41.0913 43.9786L45.9613 44.8373L38.671 85.3679L33.7755 85.4689L41.0913 43.9786Z" fill="white"/>
<path fill-rule="evenodd" clip-rule="evenodd" d="M42.103 44.7775L46.973 43.9188L54.2776 85.3452L49.3161 85.2444L42.103 44.7775Z" fill="white"/>
<path fill-rule="evenodd" clip-rule="evenodd" d="M37.0815 55.4167H50.9279V60.3619H37.0815V55.4167Z" fill="white"/>
<path fill-rule="evenodd" clip-rule="evenodd" d="M34.1145 64.318H53.895V69.2631H34.1145V64.318Z" fill="white"/>
<path fill-rule="evenodd" clip-rule="evenodd" d="M31.1475 73.2191H56.8621V78.1642H31.1475V73.2191Z" fill="white"/>
<path fill-rule="evenodd" clip-rule="evenodd" d="M44.1034 48.6914C46.5615 48.6914 48.5541 46.6988 48.5541 44.2408C48.5541 41.7828 46.5615 39.7902 44.1034 39.7902C41.6454 39.7902 39.6528 41.7828 39.6528 44.2408C39.6528 46.6988 41.6454 48.6914 44.1034 48.6914Z" fill="white"/>
<path d="M129.484 38.0469H123.984V57H120.266V38.0469H114.75V34.7188H129.484V38.0469ZM141.047 40.9844C142.755 40.9844 144.094 41.4792 145.062 42.4688C146.042 43.4479 146.531 44.875 146.531 46.75V57H142.906V47.375C142.906 46.1771 142.615 45.3021 142.031 44.75C141.458 44.1979 140.708 43.9219 139.781 43.9219C138.74 43.9219 137.87 44.25 137.172 44.9062C136.474 45.5521 136.12 46.5729 136.109 47.9688V57H132.516V33H136.109V43.25C136.651 42.5312 137.344 41.974 138.188 41.5781C139.031 41.1823 139.984 40.9844 141.047 40.9844ZM165.516 49.7812H153.562C153.604 50.7917 153.833 51.6458 154.25 52.3438C154.667 53.0312 155.208 53.5469 155.875 53.8906C156.542 54.2344 157.286 54.4062 158.109 54.4062C158.984 54.4062 159.76 54.1927 160.438 53.7656C161.125 53.3385 161.646 52.7292 162 51.9375L165.281 52.5C164.74 54.0104 163.833 55.1875 162.562 56.0312C161.292 56.875 159.818 57.2969 158.141 57.2969C156.526 57.2969 155.109 56.974 153.891 56.3281C152.672 55.6823 151.724 54.7448 151.047 53.5156C150.37 52.2865 150.031 50.8281 150.031 49.1406C150.031 47.4531 150.37 45.9948 151.047 44.7656C151.734 43.5365 152.682 42.599 153.891 41.9531C155.099 41.2969 156.479 40.9688 158.031 40.9688C159.51 40.9688 160.812 41.2604 161.938 41.8438C163.062 42.4271 163.948 43.3125 164.594 44.5C165.24 45.6771 165.562 47.1354 165.562 48.875L165.516 49.7812ZM158.047 43.6406C156.911 43.6406 155.964 43.9271 155.203 44.5C154.453 45.0625 153.958 45.9271 153.719 47.0938H161.953C161.818 45.9583 161.401 45.099 160.703 44.5156C160.005 43.9323 159.12 43.6406 158.047 43.6406ZM185.5 57.2969C183.927 57.2969 182.505 57.0573 181.234 56.5781C179.964 56.0885 178.922 55.3802 178.109 54.4531C177.297 53.5156 176.771 52.401 176.531 51.1094L180.375 50.2188C180.573 51.4792 181.146 52.4583 182.094 53.1562C183.052 53.8438 184.234 54.1875 185.641 54.1875C186.818 54.1875 187.797 53.9271 188.578 53.4062C189.359 52.875 189.75 52.0677 189.75 50.9844C189.75 50.2135 189.5 49.5833 189 49.0938C188.5 48.5938 187.885 48.2083 187.156 47.9375C186.438 47.6562 185.417 47.3281 184.094 46.9531C182.635 46.526 181.443 46.1042 180.516 45.6875C179.589 45.2604 178.812 44.651 178.188 43.8594C177.562 43.0573 177.25 42.0208 177.25 40.75C177.25 39.4062 177.583 38.2604 178.25 37.3125C178.927 36.3542 179.844 35.6302 181 35.1406C182.156 34.651 183.453 34.4062 184.891 34.4062C186.255 34.4062 187.526 34.6042 188.703 35C189.88 35.3958 190.88 36.0156 191.703 36.8594C192.536 37.7031 193.089 38.7656 193.359 40.0469L189.75 40.9531C189.51 39.8073 188.974 38.9531 188.141 38.3906C187.318 37.8177 186.297 37.5312 185.078 37.5312C183.932 37.5312 182.969 37.7917 182.188 38.3125C181.417 38.8333 181.031 39.625 181.031 40.6875C181.031 41.3333 181.25 41.8646 181.688 42.2812C182.125 42.6979 182.672 43.0312 183.328 43.2812C183.984 43.5208 184.906 43.8073 186.094 44.1406C187.656 44.5781 188.943 45.0156 189.953 45.4531C190.964 45.8906 191.823 46.5417 192.531 47.4062C193.25 48.2604 193.609 49.3802 193.609 50.7656C193.609 52.2344 193.24 53.4583 192.5 54.4375C191.76 55.4167 190.781 56.1406 189.562 56.6094C188.344 57.0677 186.99 57.2969 185.5 57.2969ZM197.766 41.2812H201.375V57H197.766V41.2812ZM199.609 38.2812C199.214 38.2812 198.844 38.1823 198.5 37.9844C198.156 37.7865 197.885 37.5208 197.688 37.1875C197.49 36.8438 197.391 36.474 197.391 36.0781C197.391 35.6823 197.49 35.3177 197.688 34.9844C197.885 34.6406 198.156 34.3698 198.5 34.1719C198.844 33.974 199.214 33.875 199.609 33.875C199.995 33.875 200.354 33.974 200.688 34.1719C201.031 34.3698 201.302 34.6406 201.5 34.9844C201.708 35.3177 201.812 35.6823 201.812 36.0781C201.812 36.474 201.708 36.8438 201.5 37.1875C201.302 37.5208 201.031 37.7865 200.688 37.9844C200.354 38.1823 199.995 38.2812 199.609 38.2812ZM221.031 41.2812V56.0156C221.031 58.8073 220.323 60.9062 218.906 62.3125C217.5 63.7292 215.542 64.4375 213.031 64.4375C209.062 64.4375 206.438 62.8229 205.156 59.5938L208.141 58.25C208.599 59.3646 209.214 60.1927 209.984 60.7344C210.755 61.2865 211.724 61.5625 212.891 61.5625C214.38 61.5625 215.505 61.099 216.266 60.1719C217.026 59.2552 217.406 57.9479 217.406 56.25V53.9219C216.927 54.6927 216.224 55.3177 215.297 55.7969C214.38 56.2656 213.375 56.5 212.281 56.5C210.979 56.5 209.781 56.1719 208.688 55.5156C207.594 54.8594 206.724 53.9427 206.078 52.7656C205.432 51.5781 205.109 50.2292 205.109 48.7188C205.109 47.2083 205.432 45.8698 206.078 44.7031C206.724 43.526 207.594 42.6146 208.688 41.9688C209.792 41.3125 211 40.9844 212.312 40.9844C213.448 40.9844 214.474 41.2396 215.391 41.75C216.318 42.25 217.01 42.9167 217.469 43.75L217.562 41.2812H221.031ZM213.156 53.5312C214 53.5312 214.771 53.3177 215.469 52.8906C216.167 52.4531 216.719 51.8646 217.125 51.125C217.531 50.3854 217.734 49.5833 217.734 48.7188C217.734 47.8438 217.531 47.0417 217.125 46.3125C216.729 45.5729 216.177 44.9844 215.469 44.5469C214.771 44.1094 214 43.8906 213.156 43.8906C212.312 43.8906 211.542 44.099 210.844 44.5156C210.146 44.9323 209.594 45.5104 209.188 46.25C208.792 46.9896 208.594 47.8125 208.594 48.7188C208.594 49.6146 208.797 50.4323 209.203 51.1719C209.609 51.901 210.161 52.4792 210.859 52.9062C211.557 53.3229 212.323 53.5312 213.156 53.5312ZM234.469 40.9844C236.24 40.9844 237.625 41.4583 238.625 42.4062C239.625 43.3438 240.125 44.6823 240.125 46.4219V57H236.5V47.2031C236.5 46.0885 236.208 45.2656 235.625 44.7344C235.052 44.1927 234.312 43.9219 233.406 43.9219C232.323 43.9219 231.438 44.2552 230.75 44.9219C230.062 45.5781 229.714 46.5938 229.703 47.9688V57H226.109V41.2812H229.703V43.1406C230.234 42.4531 230.906 41.9219 231.719 41.5469C232.542 41.1719 233.458 40.9844 234.469 40.9844ZM248.625 57.2969C247.729 57.2969 246.917 57.151 246.188 56.8594C245.458 56.5573 244.875 56.0885 244.438 55.4531C244 54.8073 243.781 53.9948 243.781 53.0156C243.781 51.9531 244.042 51.0885 244.562 50.4219C245.083 49.7552 245.776 49.2448 246.641 48.8906C247.505 48.5365 248.557 48.2448 249.797 48.0156L252.172 47.5781C252.682 47.474 253.052 47.3073 253.281 47.0781C253.51 46.849 253.625 46.5417 253.625 46.1562C253.625 45.2604 253.333 44.6094 252.75 44.2031C252.167 43.7865 251.432 43.5781 250.547 43.5781C249.63 43.5781 248.875 43.8021 248.281 44.25C247.688 44.6875 247.333 45.3854 247.219 46.3438L243.984 45.75C244.516 42.5833 246.776 41 250.766 41C252.599 41 254.109 41.4167 255.297 42.25C256.484 43.0833 257.078 44.5156 257.078 46.5469V52.6406C257.078 53.1406 257.125 53.526 257.219 53.7969C257.312 54.0677 257.464 54.2604 257.672 54.375C257.891 54.4896 258.188 54.5469 258.562 54.5469H258.812V57H257.109C256.214 57 255.5 56.8333 254.969 56.5C254.448 56.1667 254.099 55.6406 253.922 54.9219H253.75C253.177 55.7344 252.432 56.3333 251.516 56.7188C250.609 57.1042 249.646 57.2969 248.625 57.2969ZM249.469 54.4688C250.292 54.4688 251.036 54.276 251.703 53.8906C252.37 53.5052 252.896 52.9583 253.281 52.25C253.667 51.5312 253.859 50.7031 253.859 49.7656L249.844 50.6562C248.979 50.8229 248.333 51.0677 247.906 51.3906C247.479 51.7031 247.266 52.1458 247.266 52.7188C247.266 53.3021 247.469 53.7396 247.875 54.0312C248.281 54.3229 248.812 54.4688 249.469 54.4688ZM262.297 33H265.922V57H262.297V33Z" fill="white"/>
</svg>
