<svg width="162" height="166" viewBox="0 0 162 166" fill="none" xmlns="http://www.w3.org/2000/svg">
<path fill-rule="evenodd" clip-rule="evenodd" d="M47.7853 82.6484C47.7853 64.3005 62.6592 49.4266 81.0072 49.4266C99.3551 49.4266 114.229 64.3005 114.229 82.6484C114.229 100.293 103.385 108.623 96.1748 111.856L94.4827 108.083C100.721 105.286 110.094 98.1667 110.094 82.6484C110.094 66.5843 97.0713 53.5617 81.0072 53.5617C64.943 53.5617 51.9205 66.5843 51.9205 82.6484C51.9205 90.5467 55.7936 96.9037 59.8266 101.377C61.8337 103.603 63.845 105.322 65.3529 106.482C66.1054 107.061 66.7285 107.497 67.1575 107.786C67.3718 107.93 67.5374 108.037 67.6459 108.105C67.7002 108.14 67.7402 108.165 67.7649 108.18L67.7904 108.195L67.7932 108.197C67.7932 108.197 67.7921 108.197 66.7291 109.97C65.6662 111.743 65.6647 111.742 65.6647 111.742L65.6628 111.741L65.6579 111.738L65.6434 111.73C65.6318 111.723 65.6161 111.713 65.5965 111.701C65.5574 111.677 65.5026 111.643 65.4333 111.599C65.2947 111.511 65.0976 111.384 64.8505 111.218C64.3566 110.886 63.6612 110.398 62.8315 109.759C61.1751 108.485 58.9674 106.599 56.7554 104.146C52.3503 99.2599 47.7853 91.9562 47.7853 82.6484Z" fill="white"/>
<path fill-rule="evenodd" clip-rule="evenodd" d="M62.7305 83.6784C62.5219 78.6182 64.1836 73.2881 67.9152 69.5565C75.2317 62.24 87.0942 62.24 94.4107 69.5565C98.1999 73.3457 99.6451 79.0185 99.2836 84.1694C98.9248 89.282 96.7299 94.4924 92.4699 97.0625L90.3338 93.5218C93.0202 91.9011 94.8533 88.2292 95.1586 83.8799C95.4611 79.5689 94.2065 75.2003 91.4867 72.4805C85.785 66.7788 76.5409 66.7788 70.8392 72.4805C68.0618 75.2579 66.6926 79.394 66.8621 83.5081C67.0318 87.6263 68.7259 91.4219 71.6823 93.6376L69.2024 96.9466C65.032 93.8211 62.9389 88.7344 62.7305 83.6784Z" fill="white"/>
<path fill-rule="evenodd" clip-rule="evenodd" d="M31.7673 86.1445C30.6581 70.7028 37.7741 57.8591 46.6767 48.9565C65.9826 29.6506 97.2838 29.6506 116.59 48.9565C126.444 58.8105 130.886 73.813 130.556 86.0521C130.405 91.6265 128.361 100.106 124.083 107.896C118.632 117.82 109.005 124.999 102.478 127.379L101.061 123.494C106.661 121.453 115.496 114.939 120.458 105.905C124.446 98.6454 126.291 90.8059 126.422 85.9405C126.728 74.5888 122.557 60.7718 113.666 51.8805C95.9746 34.1894 67.2917 34.1894 49.6007 51.8805C41.2838 60.1974 34.892 71.93 35.8919 85.8482C36.474 93.9519 39.306 102.654 44.007 109.12C48.7072 115.586 54.9939 119.969 61.9796 123.602L60.0717 127.271C52.7951 123.486 45.8877 118.74 40.6622 111.552C35.441 104.369 32.3962 94.8986 31.7673 86.1445Z" fill="white"/>
<path fill-rule="evenodd" clip-rule="evenodd" d="M76.4186 82.3913L84.0888 83.7438L73.8222 140.685H66.1398L76.4186 82.3913Z" fill="white"/>
<path fill-rule="evenodd" clip-rule="evenodd" d="M78.0123 83.6495L85.6825 82.297L95.9613 140.591L88.1749 140.591L78.0123 83.6495Z" fill="white"/>
<path fill-rule="evenodd" clip-rule="evenodd" d="M70.1032 100.406H91.9112V108.195H70.1032V100.406Z" fill="white"/>
<path fill-rule="evenodd" clip-rule="evenodd" d="M65.43 114.426H96.5843V122.214H65.43V114.426Z" fill="white"/>
<path fill-rule="evenodd" clip-rule="evenodd" d="M60.7569 128.445H101.257V136.234H60.7569V128.445Z" fill="white"/>
<path fill-rule="evenodd" clip-rule="evenodd" d="M81.1629 89.8139C85.0343 89.8139 88.1727 86.6756 88.1727 82.8042C88.1727 78.9328 85.0343 75.7945 81.1629 75.7945C77.2916 75.7945 74.1532 78.9328 74.1532 82.8042C74.1532 86.6756 77.2916 89.8139 81.1629 89.8139Z" fill="white"/>
</svg>
