<svg width="162" height="166" viewBox="0 0 162 166" fill="none" xmlns="http://www.w3.org/2000/svg">
<path fill-rule="evenodd" clip-rule="evenodd" d="M47.7854 82.6485C47.7854 64.3006 62.6593 49.4266 81.0073 49.4266C99.3552 49.4266 114.229 64.3006 114.229 82.6485C114.229 100.293 103.385 108.623 96.1749 111.857L94.4828 108.083C100.721 105.286 110.094 98.1668 110.094 82.6485C110.094 66.5844 97.0714 53.5618 81.0073 53.5618C64.9431 53.5618 51.9206 66.5844 51.9206 82.6485C51.9206 90.5468 55.7937 96.9038 59.8267 101.377C61.8338 103.603 63.8451 105.322 65.353 106.482C66.1055 107.061 66.7286 107.497 67.1575 107.786C67.3719 107.93 67.5374 108.037 67.646 108.105C67.7003 108.14 67.7403 108.165 67.765 108.18L67.7905 108.196L67.7933 108.197C67.7933 108.197 67.7922 108.197 66.7292 109.97C65.6663 111.743 65.6648 111.743 65.6648 111.743L65.6629 111.741L65.658 111.738L65.6435 111.73C65.6319 111.723 65.6162 111.713 65.5966 111.701C65.5575 111.677 65.5027 111.643 65.4334 111.599C65.2948 111.511 65.0977 111.384 64.8506 111.218C64.3567 110.886 63.6613 110.398 62.8316 109.759C61.1752 108.485 58.9675 106.599 56.7555 104.146C52.3504 99.26 47.7854 91.9562 47.7854 82.6485Z" fill="#51C7E3"/>
<path fill-rule="evenodd" clip-rule="evenodd" d="M31.7674 86.1445C30.6582 70.7028 37.7742 57.8591 46.6768 48.9565C65.9827 29.6506 97.2839 29.6506 116.59 48.9565C126.444 58.8105 130.886 73.813 130.556 86.0521C130.405 91.6265 128.361 100.106 124.083 107.896C118.632 117.82 109.005 124.999 102.478 127.379L101.062 123.494C106.661 121.453 115.496 114.939 120.458 105.905C124.446 98.6454 126.291 90.8059 126.422 85.9405C126.729 74.5888 122.557 60.7718 113.666 51.8805C95.9748 34.1894 67.2919 34.1894 49.6008 51.8805C41.2839 60.1974 34.8921 71.93 35.892 85.8482C36.4741 93.9519 39.3062 102.654 44.0071 109.12C48.7073 115.586 54.994 119.969 61.9797 123.602L60.0718 127.271C52.7953 123.486 45.8878 118.74 40.6624 111.552C35.4411 104.369 32.3963 94.8986 31.7674 86.1445Z" fill="#E1B729"/>
<path fill-rule="evenodd" clip-rule="evenodd" d="M62.7306 83.6783C62.5221 78.6182 64.1837 73.2881 67.9154 69.5564C75.2319 62.2399 87.0943 62.2399 94.4108 69.5564C98.2001 73.3456 99.6453 79.0185 99.2837 84.1694C98.9249 89.2819 96.7301 94.4924 92.47 97.0624L90.3339 93.5217C93.0204 91.901 94.8535 88.2291 95.1587 83.8798C95.4613 79.5689 94.2067 75.2003 91.4868 72.4804C85.7852 66.7788 76.541 66.7788 70.8394 72.4804C68.0619 75.2578 66.6927 79.394 66.8623 83.508C67.032 87.6263 68.726 91.4219 71.6825 93.6376L69.2026 96.9466C65.0321 93.8211 62.939 88.7344 62.7306 83.6783Z" fill="white"/>
<path fill-rule="evenodd" clip-rule="evenodd" d="M76.4187 82.3914L84.0889 83.7438L73.8223 140.685L66.1399 140.685L76.4187 82.3914Z" fill="white"/>
<path fill-rule="evenodd" clip-rule="evenodd" d="M78.0125 83.6494L85.6827 82.2969L95.9615 140.591L88.175 140.591L78.0125 83.6494Z" fill="white"/>
<path fill-rule="evenodd" clip-rule="evenodd" d="M70.1033 100.406H91.9113V108.195H70.1033V100.406Z" fill="white"/>
<path fill-rule="evenodd" clip-rule="evenodd" d="M65.4302 114.426H96.5845V122.214H65.4302V114.426Z" fill="white"/>
<path fill-rule="evenodd" clip-rule="evenodd" d="M60.7571 128.445H101.258V136.234H60.7571V128.445Z" fill="white"/>
<path fill-rule="evenodd" clip-rule="evenodd" d="M81.1632 89.8139C85.0345 89.8139 88.1729 86.6755 88.1729 82.8041C88.1729 78.9328 85.0345 75.7944 81.1632 75.7944C77.2918 75.7944 74.1534 78.9328 74.1534 82.8041C74.1534 86.6755 77.2918 89.8139 81.1632 89.8139Z" fill="white"/>
</svg>
