<?xml version="1.0" standalone="no"?>
<!DOCTYPE svg PUBLIC "-//W3C//DTD SVG 1.1//EN" "http://www.w3.org/Graphics/SVG/1.1/DTD/svg11.dtd" >
<svg xmlns="http://www.w3.org/2000/svg" xmlns:xlink="http://www.w3.org/1999/xlink" version="1.1">
<metadata>
Created by FontForge 20170731 at Wed Dec 13 18:56:53 2017
 By ,,,
Copyright (c)2017 HK CartaTM by Alfredo Marco Pradil
</metadata>
<defs>
<font id="HKCarta-SemiBold" horiz-adv-x="0" >
  <font-face 
    font-family="HK Carta SemiBold"
    font-weight="600"
    font-stretch="normal"
    units-per-em="2048"
    panose-1="0 0 7 0 0 0 0 0 0 0"
    ascent="1393"
    descent="-655"
    x-height="874"
    cap-height="1354"
    bbox="-1197 -605 2386 1817"
    underline-thickness="50"
    underline-position="-200"
    unicode-range="U+0020-FB02"
  />
<missing-glyph horiz-adv-x="1024" 
d="M136 0v1352h751v-1352h-751zM203 68h618v1215h-618v-1215z" />
    <glyph glyph-name="fi" unicode="fi" horiz-adv-x="1226" 
d="M1135 87h59v-87h-1147v87h84q66 0 86 27t20 86v586h-190v88h190v141q0 93 32.5 165t90 116.5t132 67t161.5 22.5q371 0 383 -218q1 -45 -29.5 -78t-73.5 -34q-27 0 -45 6.5t-29 21t-16 26t-11.5 34.5t-10.5 33q-30 119 -165 119q-107 0 -149 -63t-42 -182v-177h583v-674
q0 -56 17.5 -84.5t69.5 -28.5zM721 87q59 0 78.5 24.5t19.5 88.5v586h-354v-586q0 -58 19.5 -85.5t86.5 -27.5h150z" />
    <glyph glyph-name="fl" unicode="fl" horiz-adv-x="1230" 
d="M47 0v87h84q66 0 86 27t20 86v586h-190v88h190v141q0 93 32.5 165t90 116.5t132 67t161.5 22.5q136 0 215 -54l183 61v-1193q0 -57 17 -85t70 -28h58v-87h-1149zM571 87h153q59 0 79 24.5t20 88.5v851q0 60 -6 100.5t-23 75.5t-52 52t-89 17q-105 0 -147 -63t-41 -182
v-177h231v-88h-231v-586q0 -58 19.5 -85.5t86.5 -27.5z" />
    <glyph glyph-name="f_f" unicode="ff" horiz-adv-x="1319" 
d="M1521 1168q1 -45 -30 -78t-74 -34q-40 0 -71 28.5t-38 73.5q-23 138 -127 138q-70 0 -103.5 -65.5t-33.5 -179.5v-177h232v-88h-232v-586q0 -58 19.5 -85.5t86.5 -27.5h126v-87h-1229v87h84q66 0 86 27t20 86v586h-190v88h190v141q0 92 32.5 164.5t88.5 117t128 67
t154 22.5q85 0 158 -28.5t111 -87.5q112 116 310 116q75 0 139 -20.5t111 -71.5t52 -126zM816 874v141q0 15 2 43q-34 7 -58.5 34t-30.5 66q-23 138 -128 138q-136 0 -136 -245v-177h351zM816 200v586h-351v-586q0 -58 19.5 -85.5t86.5 -27.5h139q66 0 86 27t20 86z" />
    <glyph glyph-name="f_f_i" unicode="ffi" horiz-adv-x="1805" 
d="M1715 87h58v-87h-1726v87h84q66 0 86 27t20 86v586h-190v88h190v141q0 92 32.5 164.5t88.5 117t128 67t154 22.5q85 0 158 -29t111 -88q114 117 324 117q369 0 383 -218q1 -46 -29.5 -78.5t-74.5 -33.5q-22 0 -39 5.5t-26.5 13t-17.5 21.5t-11 24.5t-8.5 29t-8.5 27.5
q-31 119 -166 119q-107 0 -149 -63t-42 -182v-177h583v-674q0 -56 17.5 -84.5t70.5 -28.5zM816 874v141q0 15 2 43q-34 7 -58.5 34t-30.5 66q-23 138 -128 138q-136 0 -136 -245v-177h351zM816 200v586h-351v-586q0 -58 19.5 -85.5t86.5 -27.5h139q66 0 86 27t20 86z
M1300 87q60 0 79.5 24.5t19.5 88.5v586h-355v-586q0 -58 19.5 -85.5t86.5 -27.5h150z" />
    <glyph glyph-name="f_f_l" unicode="ffl" horiz-adv-x="1810" 
d="M1717 87h59v-87h-1729v87h84q66 0 86 27t20 86v586h-190v88h190v141q0 92 32.5 164.5t88.5 117t128 67t154 22.5q85 0 158 -29t111 -88q114 117 324 117q135 0 215 -54l182 61v-1193q0 -56 17.5 -84.5t69.5 -28.5zM816 874v141q0 15 2 43q-34 7 -58.5 34t-30.5 66
q-23 138 -128 138q-136 0 -136 -245v-177h351zM1403 200v851q0 60 -6 100.5t-23.5 75.5t-52.5 52t-88 17q-105 0 -147 -63t-42 -182v-177h232v-88h-232v-586q0 -58 19.5 -85.5t86.5 -27.5h153q59 0 79.5 24.5t20.5 88.5zM816 200v586h-351v-586q0 -58 19.5 -85.5t86.5 -27.5
h139q66 0 86 27t20 86z" />
    <glyph glyph-name=".notdef" horiz-adv-x="1024" 
d="M136 0v1352h751v-1352h-751zM203 68h618v1215h-618v-1215z" />
    <glyph glyph-name=".null" 
 />
    <glyph glyph-name="nonmarkingreturn" horiz-adv-x="682" 
 />
    <glyph glyph-name="space" unicode=" " horiz-adv-x="498" 
 />
    <glyph glyph-name="exclam" unicode="!" horiz-adv-x="577" 
d="M246 446l-59 668q0 2 -5.5 63t-5.5 90q0 21 2.5 36t12.5 34.5t34.5 30t62.5 10.5q37 0 61.5 -10.5t34.5 -30t13 -34.5t3 -36q0 -15 -12 -140l-56 -681h-86zM289 -33q-60 0 -103 43.5t-43 105.5q0 61 42.5 104t103.5 43q60 0 102.5 -43t42.5 -104q0 -62 -42.5 -105.5
t-102.5 -43.5z" />
    <glyph glyph-name="quotedbl" unicode="&#x22;" horiz-adv-x="912" 
d="M214 714l-69 427q-14 79 -14 126q0 48 30.5 79.5t74.5 31.5q48 0 77 -31.5t29 -76.5q0 -19 -3 -44.5t-7.5 -51.5t-5.5 -33l-65 -427h-47zM654 714l-69 427q-14 79 -14 126q0 48 30.5 79.5t74.5 31.5q48 0 77.5 -31.5t29.5 -76.5q0 -19 -3.5 -44.5t-8 -51.5t-5.5 -33
l-65 -427h-47z" />
    <glyph glyph-name="numbersign" unicode="#" horiz-adv-x="1405" 
d="M213 -40l85 403h-202v140h230l74 351h-304v141h332l85 400h140l-86 -400h404l85 400h140l-85 -400h196v-141h-222l-73 -351h295v-140h-323l-86 -403h-140l86 403h-406l-85 -403h-140zM466 503h407l71 351h-404z" />
    <glyph glyph-name="dollar" unicode="$" horiz-adv-x="1152" 
d="M670 803q69 -29 118.5 -54t102.5 -63t85.5 -79.5t53.5 -100t21 -128.5q0 -96 -38.5 -175t-100 -127.5t-134.5 -75t-146 -26.5q-84 0 -161 20l-31 -156h-69l35 178q-152 61 -277 222v187q0 29 12.5 45.5t33.5 16.5q46 0 58 -55q18 -101 67.5 -182.5t127.5 -127.5l92 465
q-67 31 -110.5 53.5t-92 52.5t-77 59.5t-54 67.5t-36.5 83.5t-11 100.5q0 160 115.5 267t272.5 107q79 0 148 -16l22 111h68l-26 -132q59 -24 107.5 -63.5t105.5 -100.5v-159q0 -29 -11.5 -45.5t-31.5 -16.5q-43 0 -58 56q-36 137 -135 213l-81 -407zM331 1093
q0 -90 53 -139.5t188 -108.5l83 415q-54 24 -110 24q-104 0 -159 -59t-55 -132zM609 75q97 0 165 62.5t68 161.5q0 87 -60.5 145t-186.5 109q-8 4 -12 5l-92 -465q59 -18 118 -18z" />
    <glyph glyph-name="percent" unicode="%" horiz-adv-x="1736" 
d="M379 670q-70 0 -125.5 25t-87.5 63t-53 87t-28.5 91t-7.5 82q0 167 79.5 263.5t219.5 96.5q55 0 100.5 -14t76.5 -36.5t54.5 -54t37.5 -63.5t22.5 -68t11.5 -64.5t3 -55.5q0 -59 -15.5 -117t-49 -112.5t-95 -88.5t-143.5 -34zM479 0l692 1352h113l-694 -1352h-111z
M382 730q116 0 116 266q0 98 -8.5 163.5t-26 99t-38 46.5t-49.5 13q-62 0 -88.5 -69t-26.5 -223q0 -63 4.5 -109.5t16 -92t37 -70t63.5 -24.5zM1356 -26q-59 0 -107.5 17t-80 47t-55 65.5t-35.5 76t-17.5 75t-5.5 67.5q0 167 79 263t219 96q76 0 133.5 -26.5t89.5 -65
t51.5 -90t25.5 -92.5t6 -81q0 -47 -9 -93t-31.5 -93.5t-56 -83.5t-87 -59t-119.5 -23zM1359 34q116 0 116 266q0 129 -16.5 202t-41.5 96t-64 23q-62 0 -88 -68.5t-26 -222.5q0 -63 4 -109.5t16 -92.5t37 -70t63 -24z" />
    <glyph glyph-name="ampersand" unicode="&#x26;" horiz-adv-x="1573" 
d="M466 -26q-168 0 -282 100t-114 243q0 70 26 131.5t78 113.5t114 95t148 88q-38 48 -56 72.5t-42 65t-34 77.5t-10 78q0 129 87.5 203.5t228.5 74.5q136 0 215.5 -65.5t79.5 -171.5q0 -181 -226 -304q190 -218 302 -390q60 82 111.5 177t66.5 164q10 63 -61 63h-61v85h418
v-85h-49q-13 0 -24.5 -2.5t-21 -6t-20 -12t-18 -14t-18 -19.5t-16 -21.5t-17.5 -26.5t-17 -28t-19 -33t-20 -34q-96 -186 -177 -286q74 -114 115.5 -155t101.5 -41q133 0 143 186h88q0 -90 -27.5 -155.5t-73 -100t-95 -50t-104.5 -15.5q-43 0 -80 10.5t-62 23t-55.5 41.5
t-47 48t-48.5 59q-45 -43 -100 -80t-145.5 -70t-181.5 -33zM616 854q161 101 161 233q0 63 -43.5 102.5t-119.5 39.5q-70 0 -110 -35.5t-37 -92.5q6 -99 149 -247zM571 110q140 0 258 120q-77 118 -152 213.5t-184 220.5q-81 -46 -123 -77.5t-69.5 -75.5t-27.5 -100
q0 -64 35 -132t106 -118.5t157 -50.5z" />
    <glyph glyph-name="quotesingle" unicode="'" horiz-adv-x="475" 
d="M216 714l-70 427q-13 73 -13 126q0 48 30 79.5t75 31.5q47 0 76.5 -31.5t29.5 -76.5q0 -19 -3.5 -44.5t-8 -51.5t-5.5 -33l-65 -427h-46z" />
    <glyph glyph-name="parenleft" unicode="(" horiz-adv-x="507" 
d="M379 -494q-147 199 -223.5 437.5t-76.5 492.5q0 105 14 216t46 237t93.5 253.5t146.5 233.5h121q-132 -180 -215.5 -415.5t-83.5 -522.5q0 -260 72 -481t227 -451h-121z" />
    <glyph glyph-name="parenright" unicode=")" horiz-adv-x="507" 
d="M128 -494h-121q155 230 227 451t72 481q0 287 -83.5 522.5t-215.5 415.5h121q85 -106 146.5 -233.5t93.5 -253.5t46 -237t14 -216q0 -254 -76.5 -492.5t-223.5 -437.5z" />
    <glyph glyph-name="asterisk" unicode="*" horiz-adv-x="1082" 
d="M314 442q-42 0 -77 31.5t-35 70.5q0 11 3 21.5t7 19.5t13.5 20t16 18t21.5 19.5t22.5 18.5t26.5 21t27 21q25 18 47.5 37.5t48 43.5t38.5 36q15 15 10 27q-3 11 -23 17q-48 11 -131 19q-17 2 -78.5 3t-78.5 3q-52 1 -81 25.5t-29 69.5q0 42 27.5 76t66.5 34q31 0 70 -20
t102 -69q69 -49 147 -86q21 -10 30 -1q10 10 7 26q-25 136 -37 175q-33 102 -36 158q-1 37 24.5 65.5t75.5 28.5q47 0 73.5 -26t25.5 -66q-1 -57 -31 -151q-20 -65 -39 -184q-2 -16 9 -27q7 -8 28 1q36 17 87 51.5t57 37.5q15 10 41 27.5t35.5 24t26.5 16.5t26 13.5
t20.5 6.5t22.5 3q44 0 71.5 -35t27.5 -77q0 -45 -31 -69t-69 -25q-19 -3 -80.5 -4.5t-77.5 -3.5q-99 -9 -139 -19q-18 -4 -23 -16q-5 -16 9 -29q122 -105 171 -141q2 -2 15 -13t16 -14.5t14 -13.5t15 -15t12 -14t11.5 -15.5t8 -15.5t6 -17t1.5 -16q0 -40 -36 -71.5
t-77 -31.5q-32 0 -55 23t-31.5 46t-16.5 56q-28 75 -39 97q-39 86 -61 125q-10 18 -22 18q-14 0 -23 -18q-35 -65 -60 -132q-15 -39 -47 -117q-28 -98 -97 -98z" />
    <glyph glyph-name="plus" unicode="+" horiz-adv-x="1239" 
d="M543 121v479h-479v152h479v479h153v-479h478v-152h-478v-479h-153z" />
    <glyph glyph-name="comma" unicode="," horiz-adv-x="621" 
d="M156 -373l-6 92q108 18 167 83.5t59 129.5q0 21 -9.5 33t-24.5 10q-8 0 -26.5 -5t-35.5 -5q-47 0 -87 38t-40 101q0 59 39.5 105t110.5 46q86 0 136 -66t50 -177q0 -87 -30.5 -159t-80 -118t-106.5 -73t-116 -35z" />
    <glyph glyph-name="hyphen" unicode="-" horiz-adv-x="864" 
d="M136 310v194h592v-194h-592z" />
    <glyph glyph-name="period" unicode="." horiz-adv-x="598" 
d="M299 -33q-60 0 -103 43.5t-43 105.5q0 61 43 104t103 43t102.5 -43t42.5 -104q0 -62 -42.5 -105.5t-102.5 -43.5z" />
    <glyph glyph-name="slash" unicode="/" horiz-adv-x="846" 
d="M-39 -33l717 1387h205l-715 -1387h-207z" />
    <glyph glyph-name="zero" unicode="0" horiz-adv-x="1038" 
d="M518 -26q-37 0 -75 8t-81.5 30t-82 55.5t-75 89.5t-62.5 128t-42 174.5t-16 224.5q0 174 34 308.5t94.5 217t137.5 124t168 41.5q65 0 124.5 -21t117.5 -72.5t100 -129.5t68 -200t26 -276q0 -350 -119.5 -526t-316.5 -176zM524 64q106 0 150.5 138t44.5 444
q0 341 -45 490t-157 149q-56 0 -95.5 -43.5t-61 -127t-31 -188.5t-9.5 -245q0 -320 45.5 -468.5t158.5 -148.5z" />
    <glyph glyph-name="one" unicode="1" horiz-adv-x="1038" 
d="M760 87h145v-87h-732v87h156q59 0 81 25t22 77v1008q-60 -31 -116.5 -42.5t-161.5 -11.5v84q154 5 245 35.5t167 112.5h94v-1182q0 -53 18.5 -79.5t81.5 -26.5z" />
    <glyph glyph-name="two" unicode="2" horiz-adv-x="1038" 
d="M914 300h83l-116 -349h-86q9 25 2 37t-43 12h-672v88q280 253 411 461q168 244 168 453q0 120 -56.5 200t-159.5 80q-91 0 -150.5 -59.5t-59.5 -145.5q0 -62 42 -142l-133 -61q-56 97 -56 176q0 96 57 171t149.5 114.5t201.5 39.5q174 0 287 -100t113 -264
q0 -113 -58.5 -220.5t-175.5 -247.5q-132 -155 -198.5 -227t-163.5 -166h476q47 0 72.5 12.5t37.5 51.5z" />
    <glyph glyph-name="three" unicode="3" horiz-adv-x="1038" 
d="M415 -26q-147 0 -242.5 62t-107.5 150q-3 46 25 71t64 25q22 1 38.5 -7t28 -24t17.5 -28.5t12 -30.5q58 -128 184 -128q136 0 208 99t72 258q0 270 -176 270q-48 0 -91 -29l-62 -50l-57 70l140 96q217 141 217 309q0 97 -60 145.5t-142 48.5q-85 0 -146.5 -49.5
t-61.5 -124.5q0 -50 44 -118l-145 -64q-53 71 -53 147q0 87 60.5 157.5t156 108t203.5 37.5q66 0 129.5 -15.5t117 -45.5t86 -79.5t32.5 -112.5q0 -190 -293 -341q66 2 125 -17.5t107 -58t76.5 -104t28.5 -150.5q0 -107 -45 -198t-120 -151t-171 -94t-199 -34z" />
    <glyph glyph-name="four" unicode="4" horiz-adv-x="1038" 
d="M364 0v87h90q68 0 87 26t19 90v266h-510v125l602 777h136v-796h188v-106h-188v-269q0 -27 2.5 -43t12.5 -34.5t33.5 -27t60.5 -8.5h80v-87h-613zM155 575h405v536h-10l-395 -521v-15z" />
    <glyph glyph-name="five" unicode="5" horiz-adv-x="1038" 
d="M524 901q74 0 146 -25.5t135 -75.5t102 -137t39 -198q0 -103 -33 -188.5t-86.5 -140t-122.5 -92.5t-137.5 -54t-136.5 -16q-80 0 -154 20.5t-130.5 66.5t-69.5 108q-2 35 23 61.5t59 28.5q37 2 60 -21t43 -68q30 -44 82 -74.5t111 -30.5q84 0 142.5 58.5t83.5 146
t25 195.5q0 66 -10 120.5t-34 106.5t-71.5 81.5t-115.5 29.5q-129 0 -192 -120h-102l24 669h690l-61 -182h-549l-14 -368q42 49 111.5 74t142.5 25z" />
    <glyph glyph-name="six" unicode="6" horiz-adv-x="1038" 
d="M538 -26q-68 0 -131.5 20t-121.5 65.5t-101 112.5t-68.5 167t-25.5 223q0 163 30 299t82 230t122.5 159t151 95t168.5 30q111 0 188 -43.5t95 -112.5q2 -33 -19.5 -60.5t-57.5 -29.5q-28 -2 -50 12.5t-46 53.5q-65 86 -164 86q-240 0 -260 -558q69 133 234 133
q54 0 107 -13.5t106 -45.5t93 -79.5t65 -122.5t25 -168q0 -107 -36.5 -195t-96.5 -143.5t-134.5 -85t-154.5 -29.5zM535 64q189 0 189 327q0 181 -47 278t-158 97q-54 0 -92 -26t-59.5 -75.5t-32 -105.5t-15.5 -133q9 -181 61 -271.5t154 -90.5z" />
    <glyph glyph-name="seven" unicode="7" horiz-adv-x="1038" 
d="M414 -24q-46 1 -70 16.5t-26 46t9 67.5t35 87l449 977h-518q-48 0 -73 -12t-37 -52l-28 -85h-83l121 380h86q-9 -25 -1.5 -37t43.5 -12h646l-431 -1246q-22 -71 -48.5 -101t-73.5 -29z" />
    <glyph glyph-name="eight" unicode="8" horiz-adv-x="1038" 
d="M522 -26q-64 0 -125.5 12t-122.5 40.5t-107 71.5t-74.5 110.5t-28.5 151.5q0 74 22.5 134.5t54.5 97.5t78 64.5t83.5 40.5t79.5 22q-274 77 -274 311q0 73 24.5 132.5t64.5 98t93.5 65t110.5 38t117 11.5q63 0 121.5 -12t111.5 -39t92.5 -66.5t63 -98t23.5 -129.5
q0 -59 -19 -109t-47 -82t-66 -58t-69.5 -39.5t-64.5 -22.5q45 -11 82 -24t81.5 -41t75 -64.5t51.5 -95.5t21 -132q0 -98 -38.5 -174.5t-103.5 -122t-144 -68.5t-167 -23zM520 758q98 0 141.5 69.5t43.5 206.5q0 114 -44 184t-143 70q-53 0 -90.5 -20.5t-58 -57t-29.5 -78.5
t-9 -94q0 -65 9 -114t30 -87.5t58.5 -58.5t91.5 -20zM520 61q61 0 105.5 24t68.5 67t34.5 93.5t10.5 112.5q0 159 -51 235.5t-172 76.5q-216 0 -216 -290q0 -151 49.5 -235t170.5 -84z" />
    <glyph glyph-name="nine" unicode="9" horiz-adv-x="1038" 
d="M394 -26q-111 0 -186.5 43.5t-94.5 112.5q-3 32 18.5 60t56.5 30q27 2 48.5 -12.5t47.5 -53.5q67 -86 165 -86q239 0 259 558q-69 -133 -233 -133q-54 0 -107 13.5t-106 45.5t-93 79.5t-65 122.5t-25 168q0 107 36 195t96 143.5t134.5 85t154.5 29.5q86 0 164 -33.5
t143 -101t103.5 -184.5t38.5 -269q0 -203 -46 -362t-124 -255.5t-176 -146t-209 -49.5zM520 583q44 0 77 18t54 47.5t35 75t21 92t11 107.5q-9 181 -60.5 271.5t-154.5 90.5q-189 0 -189 -327q0 -119 18 -199t65 -128t123 -48z" />
    <glyph glyph-name="colon" unicode=":" horiz-adv-x="599" 
d="M300 605q-61 0 -105 43.5t-44 105.5q0 61 43.5 104t105.5 43q60 0 103 -43.5t43 -103.5q0 -62 -43 -105.5t-103 -43.5zM300 -33q-61 0 -105 43.5t-44 105.5q0 61 43.5 104t105.5 43q60 0 103 -43t43 -104q0 -62 -43 -105.5t-103 -43.5z" />
    <glyph glyph-name="semicolon" unicode=";" horiz-adv-x="613" 
d="M300 605q-60 0 -103 43.5t-43 105.5q0 61 42.5 104t103.5 43q59 0 102 -43t43 -104q0 -63 -42.5 -106t-102.5 -43zM156 -373l-5 92q108 18 167 83.5t59 129.5q0 21 -9.5 33t-24.5 10q-8 0 -26.5 -5t-35.5 -5q-47 0 -87 38t-40 101q0 59 39.5 105t110.5 46q86 0 135.5 -66
t49.5 -177q0 -70 -20 -131t-53 -104t-77 -75.5t-90 -50.5t-93 -24z" />
    <glyph glyph-name="less" unicode="&#x3c;" horiz-adv-x="1209" 
d="M1087 1190v-167l-830 -349l830 -349v-165l-1018 437v155z" />
    <glyph glyph-name="equal" unicode="=" horiz-adv-x="1542" 
d="M216 837v153h1110v-153h-1110zM216 362v153h1110v-153h-1110z" />
    <glyph glyph-name="greater" unicode="&#x3e;" horiz-adv-x="1209" 
d="M122 1190l1018 -438v-155l-1018 -437v165l830 349l-830 349v167z" />
    <glyph glyph-name="question" unicode="?" horiz-adv-x="867" 
d="M401 1378q187 0 298 -114t111 -279q0 -85 -29.5 -154t-77 -112t-105 -66t-116.5 -23q-56 0 -114 19v-200h-97v313h77q29 -28 75 -28q45 0 78 25t50 64.5t24.5 76t7.5 70.5q0 45 -10 95.5t-31 103t-62.5 86.5t-97.5 34q-55 0 -101 -32.5t-64 -98.5q-4 -18 -8 -28
t-13.5 -26t-26 -23.5t-39.5 -7.5q-29 2 -53.5 23t-23.5 54q12 90 107.5 159t240.5 69zM320 263q59 0 101.5 -43t42.5 -104q0 -62 -42.5 -105.5t-101.5 -43.5q-60 0 -103 43.5t-43 105.5q0 61 43 104t103 43z" />
    <glyph glyph-name="at" unicode="@" horiz-adv-x="1923" 
d="M982 -449q-185 0 -348.5 63.5t-282.5 175.5t-188 274t-69 350q0 157 42 302t124.5 265t196.5 209t266 138.5t324 49.5q174 0 312.5 -52t226 -142.5t133.5 -209.5t46 -257q0 -133 -41.5 -262.5t-114 -233t-182 -167.5t-234.5 -64q-131 0 -168 68t-10 210
q-33 -53 -62 -92.5t-72.5 -87t-92.5 -73.5t-100 -26q-69 0 -113.5 45.5t-59.5 115.5t-5 152q7 128 57.5 251t121 208.5t151.5 138t149 52.5q45 0 78 -17t51.5 -47t28 -63.5t12.5 -73.5l48 169l176 7l-197 -677q-55 -199 82 -199q66 0 143.5 50.5t145 135t113 210t45.5 259.5
q0 131 -45 243.5t-127 195.5t-206 130.5t-275 47.5q-160 0 -301 -48.5t-246.5 -135.5t-182 -203.5t-115.5 -255.5t-39 -289q0 -175 63 -324t172 -250.5t256 -158t313 -56.5q117 0 235 33t228.5 98t202 173.5t143.5 246.5h55q-42 -106 -101 -194t-122 -149t-136 -108
t-140.5 -75t-137.5 -46t-123.5 -24t-103.5 -6zM789 124q59 0 131 82t126.5 207.5t63.5 241.5q14 109 -15 172.5t-85 63.5q-55 0 -112 -65t-97.5 -157t-68.5 -183t-36 -153q-14 -92 14 -150.5t79 -58.5z" />
    <glyph glyph-name="A" unicode="A" horiz-adv-x="1337" 
d="M1293 90l47 -3v-87h-576v87l95 3q30 1 46.5 17.5t7.5 43.5l-94 258h-470l-87 -239q-13 -39 12 -59.5t63 -21.5l88 -2v-87h-428v87l37 7q110 50 150 155l431 1129h105l424 -1129q27 -71 58 -109.5t91 -49.5zM382 499h405l-186 512h-33z" />
    <glyph glyph-name="B" unicode="B" horiz-adv-x="1329" 
d="M890 722q45 -9 88.5 -23.5t95 -44t89.5 -67.5t63.5 -97.5t24.5 -131.5q-1 -64 -21 -117t-52 -89.5t-77 -64t-91 -43.5t-98.5 -26t-94.5 -13.5t-84 -3.5h-672v87h83q55 0 74.5 33t19.5 98v913q0 60 -18 94.5t-66 34.5h-93v93l744 -3q184 -1 286.5 -88.5t100.5 -230.5
q-1 -59 -23 -109t-54 -82t-75.5 -58t-78.5 -39t-71 -22zM672 1269h-186v-502h174q137 0 199 59t64 187q2 125 -64 190.5t-187 65.5zM979 380q1 73 -16.5 126.5t-46 85t-72.5 50t-88 25t-100 6.5h-170v-457q0 -121 80 -121h147q71 0 124 24t82.5 65.5t44 90t15.5 105.5z" />
    <glyph glyph-name="C" unicode="C" horiz-adv-x="1475" 
d="M730 -26q-152 0 -278.5 59.5t-207.5 158.5t-125.5 222.5t-44.5 255.5q0 133 45 258.5t126.5 226t209.5 162t281 61.5q269 0 451 -240l28 190h86l8 -484h-85q-10 53 -32.5 109.5t-62 115t-90 104.5t-121 75t-149.5 29q-92 0 -165 -37t-118.5 -97t-75.5 -143.5t-42 -170
t-12 -182.5q0 -264 108 -418t313 -154q102 0 193 48.5t162.5 150t102.5 241.5h87v-492h-87l-38 197q-23 -43 -64.5 -84.5t-99 -79t-137 -60t-166.5 -22.5z" />
    <glyph glyph-name="D" unicode="D" horiz-adv-x="1539" 
d="M55 0v87h95q54 0 73.5 33.5t19.5 97.5v918q0 65 -19.5 98t-75.5 33h-93v85h573q836 0 836 -680q0 -183 -58.5 -314t-170.5 -209t-261.5 -113.5t-345.5 -35.5h-573zM623 94h162q127 0 218.5 79.5t135 209t43.5 291.5q0 130 -28 233t-75 170t-111.5 111.5t-134.5 63.5
t-147 19h-195v-1027q0 -39 3 -61t15.5 -45.5t40 -33.5t73.5 -10z" />
    <glyph glyph-name="E" unicode="E" horiz-adv-x="1353" 
d="M1172 446l86 -2l-20 -444h-1185v87h82q63 0 85.5 33t22.5 98v916q0 70 -24.5 100t-99.5 30h-66v88h1116l20 -350l-86 -1l-31 145q-26 71 -63 91.5t-108 20.5h-410v-504h249q120 0 120 82v97h89v-460h-89v92q0 56 -30.5 75.5t-86.5 19.5h-252v-417q0 -39 3 -61.5t14 -45
t35.5 -32.5t63.5 -10h306q104 0 146 27.5t63 96.5z" />
    <glyph glyph-name="F" unicode="F" horiz-adv-x="1207" 
d="M55 0v87h67q72 0 96.5 30t24.5 101v916q0 72 -25 101t-102 29h-63v88h1105l13 -355l-89 -2l-21 134q-14 46 -36 74.5t-52 39t-47.5 13t-47.5 2.5h-387v-501h236q56 0 84.5 24t28.5 84v69h87v-464h-87v74q0 61 -26 90t-89 29h-234v-445q0 -67 25.5 -99t104.5 -32h76v-87
h-642z" />
    <glyph glyph-name="G" unicode="G" horiz-adv-x="1534" 
d="M755 -26q-129 0 -240 38t-191 103.5t-137 153.5t-85 188.5t-28 206.5q0 139 49 269t134.5 228.5t210.5 157.5t267 59q157 0 273.5 -68.5t180.5 -166.5l26 204h83l8 -466h-84q-14 51 -35.5 100t-59 102.5t-84.5 93.5t-115 66t-147 26q-96 0 -171.5 -38t-122 -98.5
t-77 -143.5t-42.5 -165.5t-12 -172.5t11.5 -169t41.5 -155t76.5 -130.5t120.5 -88t169 -33.5q304 0 334 299q0 71 -29.5 101t-101.5 30h-220v87h732v-87h-50q-50 0 -67 -33.5t-17 -104.5v-393h-94l-89 165q-90 -92 -188.5 -128.5t-229.5 -36.5z" />
    <glyph glyph-name="H" unicode="H" horiz-adv-x="1671" 
d="M57 0v87h87q70 0 93.5 31.5t23.5 99.5v916q0 68 -22.5 99t-94.5 31h-87v88h652v-88h-86q-70 0 -92 -31.5t-22 -98.5v-371h653v371q0 67 -22.5 98.5t-91.5 31.5h-87v88h654v-88h-88q-71 0 -94 -31t-23 -99v-916q0 -68 23.5 -99.5t93.5 -31.5h88v-87h-654v87h96q63 0 84 33
t21 98v447h-653v-447q0 -65 20.5 -98t84.5 -33h95v-87h-652z" />
    <glyph glyph-name="I" unicode="I" horiz-adv-x="771" 
d="M55 0v87h79q78 0 102.5 30.5t24.5 100.5v918q0 70 -24.5 100.5t-102.5 30.5h-79v87h661v-87h-78q-79 0 -104 -29t-25 -102v-918q0 -73 25 -102t104 -29h78v-87h-661z" />
    <glyph glyph-name="J" unicode="J" horiz-adv-x="763" 
d="M54 -490q-93 0 -169.5 25t-127 79t-50.5 130q0 47 37 80.5t95 33.5q49 0 82 -25.5t33 -73.5q0 -16 -12 -40.5t-9 -37.5q22 -84 148 -84q124 0 171.5 99t47.5 315v1123q0 31 -3.5 50t-15 39.5t-38.5 30.5t-70 10h-149v88h713v-88h-70q-71 0 -95 -30.5t-24 -99.5v-1056
q0 -43 -1 -74.5t-6 -80t-14.5 -85t-27 -81.5t-42 -78t-62.5 -67t-85.5 -55t-112.5 -34t-143 -13z" />
    <glyph glyph-name="K" unicode="K" horiz-adv-x="1611" 
d="M54 0v87h88q65 0 89.5 28.5t24.5 102.5v916q0 72 -25 101t-98 29h-79v88h658v-88h-86q-42 0 -68 -10t-37.5 -31t-14.5 -41t-3 -53v-500l466 473q71 69 71 110q0 25 -19 38.5t-46 13.5h-82v88h583v-88h-80q-57 0 -113 -27t-84.5 -50.5t-83.5 -77.5q-3 -2 -4.5 -3.5
l-3.5 -3.5l-4 -4l-4 -4l-208 -210l414 -631q58 -91 101 -128.5t104 -37.5h94v-87h-692v87h84q37 0 61.5 13.5t24.5 39.5q0 11 -9 29t-19 33.5t-27.5 41.5t-25.5 38l-287 439l-211 -221v-282q0 -69 21 -98.5t78 -30.5l98 -2l1 -87h-647z" />
    <glyph glyph-name="L" unicode="L" horiz-adv-x="1292" 
d="M55 0v87h87q69 0 94.5 27t25.5 104v916q0 70 -24 100t-98 30h-85v88h666v-88h-84q-77 0 -102 -28.5t-25 -101.5v-897q0 -32 1.5 -50t8.5 -38.5t20.5 -30.5t38.5 -17t61 -7h232q28 0 49.5 2t58 13t64 31t54.5 60t41 96l22 154l83 -1l-18 -449h-1171z" />
    <glyph glyph-name="M" unicode="M" horiz-adv-x="1967" 
d="M1829 87h88v-87h-669v87h80q75 0 100.5 29t25.5 102v910h-21l-506 -1128h-77l-503 1128h-14v-857q0 -184 123 -184h69v-87h-470v87h68q25 0 44.5 8t31.5 18.5t20.5 30.5t12.5 32.5t6 37t2 31.5v28v858q0 33 -3 53t-14 40.5t-36 30t-65 9.5h-67v88h454l461 -1034l469 1034
h475v-88h-85q-80 0 -103.5 -32.5t-23.5 -97.5v-916q0 -31 3.5 -50.5t15 -40t38.5 -30.5t70 -10z" />
    <glyph glyph-name="N" unicode="N" horiz-adv-x="1535" 
d="M1032 1352h472v-88h-68q-60 0 -86.5 -48t-26.5 -122v-1117h-102l-879 1110v-823q0 -34 3.5 -58.5t15.5 -55t40.5 -47t71.5 -16.5h65v-87h-485v87h67q125 0 125 177v842q0 72 -33.5 115t-99.5 43h-63v88h401l776 -980v723q0 169 -125 169h-69v88z" />
    <glyph glyph-name="O" unicode="O" horiz-adv-x="1530" 
d="M767 -26q-210 0 -368.5 92t-241 251.5t-82.5 363.5q0 103 27 202.5t83 189t135.5 157.5t193 108t246.5 40q141 0 258 -41t197 -110t135.5 -160.5t80.5 -190.5t25 -202q0 -136 -44 -259.5t-127.5 -223t-217.5 -158.5t-300 -59zM760 75q198 0 302 150t104 450
q0 305 -107.5 453.5t-296.5 148.5q-102 0 -180 -44.5t-125.5 -125t-71 -186.5t-23.5 -234q0 -89 11.5 -172t40.5 -164.5t72.5 -141.5t114 -97t159.5 -37z" />
    <glyph glyph-name="P" unicode="P" horiz-adv-x="1248" 
d="M54 0v87h71q70 0 95 30t25 101v918q0 31 -3.5 50.5t-15 40t-38.5 30.5t-70 10h-69v85h571q101 0 181 -8.5t159.5 -32.5t132.5 -63.5t85.5 -106t32.5 -155.5q0 -99 -39 -172.5t-111 -116.5t-165 -63.5t-210 -20.5h-194v-395q0 -31 3.5 -50.5t15.5 -40t39.5 -30.5t70.5 -10
h67v-87h-634zM492 707h172q279 0 279 275q0 287 -276 287h-175v-562z" />
    <glyph glyph-name="Q" unicode="Q" horiz-adv-x="1530" 
d="M767 -26q-210 0 -368.5 92t-241 251.5t-82.5 363.5q0 103 27 202.5t83 189t135.5 157.5t193 108t246.5 40q141 0 258 -41t197 -110t135.5 -160.5t80.5 -190.5t25 -202q0 -136 -44 -259.5t-127.5 -223t-217.5 -158.5t-300 -59zM760 75q198 0 302 150t104 450
q0 305 -107.5 453.5t-296.5 148.5q-102 0 -180 -44.5t-125.5 -125t-71 -186.5t-23.5 -234q0 -89 11.5 -172t40.5 -164.5t72.5 -141.5t114 -97t159.5 -37zM1348 -483q-56 0 -107 12t-82 24.5t-74 44.5t-57.5 45t-58.5 53q-133 123 -250 123q-97 0 -250 -145l-51 56
q98 94 178 138t172 44q130 0 314 -104q86 -51 158.5 -78.5t148.5 -27.5q113 0 195 65l89 -116q-118 -134 -325 -134z" />
    <glyph glyph-name="R" unicode="R" horiz-adv-x="1481" 
d="M51 0v87h67q75 0 101 29t26 102v918q0 69 -24 98.5t-95 29.5h-75v88h690q107 0 193.5 -20.5t153.5 -63t103.5 -114.5t36.5 -170q0 -129 -74 -205t-210 -122q44 -32 77 -73t84 -120l184 -281q32 -50 74 -73t76 -23h46v-87h-351l-268 440q-62 104 -107.5 138t-117.5 34
h-149v-394q0 -71 25 -101t99 -30h67v-87h-632zM492 707h172q67 0 119 13t95.5 43t67 86.5t23.5 136.5q0 273 -295 273h-182v-552z" />
    <glyph glyph-name="S" unicode="S" horiz-adv-x="1133" 
d="M632 -26q-115 0 -219 50.5t-170 151.5l-22 -154h-93v465h93q9 -79 36.5 -150.5t74 -131t118 -95t158.5 -35.5q97 0 165 62.5t68 161.5q0 87 -60 145t-186 109q-203 92 -273 137q-129 82 -166 191q-18 55 -18 123q0 160 116 267t272 107q86 0 170.5 -40.5t143.5 -116.5
l23 133h89v-398h-89q-23 154 -116 241t-203 87q-104 0 -159 -59t-55 -132q0 -100 64.5 -150t251.5 -130q15 -7 23 -10q57 -24 99.5 -45t89.5 -49.5t79 -60.5t59.5 -71.5t41 -90t13.5 -108.5q0 -96 -38.5 -175t-100.5 -127.5t-134.5 -75t-145.5 -26.5z" />
    <glyph glyph-name="T" unicode="T" horiz-adv-x="1367" 
d="M351 0v87h81q80 0 104 33.5t24 97.5v1040h-230q-29 0 -49 -2t-48 -12t-46.5 -28t-34 -54t-20.5 -86l-6 -98l-88 1l8 373h1275l7 -373l-87 -1l-9 100q-14 60 -32.5 97.5t-46 55t-53 22.5t-67.5 5h-225v-1040q0 -25 1.5 -40.5t8.5 -35t19.5 -30t37.5 -18t60 -7.5h82v-87
h-666z" />
    <glyph glyph-name="U" unicode="U" horiz-adv-x="1492" 
d="M754 -26q-270 0 -410.5 138t-140.5 408v614q0 69 -23.5 99.5t-100.5 30.5h-61v88h647v-88h-89q-75 0 -100 -29.5t-25 -100.5v-614q0 -214 85.5 -326t278.5 -112q107 0 182.5 31.5t119 93t63 144t19.5 194.5v560q0 159 -135 159h-59v88h463v-88h-56q-116 0 -116 -156v-566
q0 -281 -133 -424.5t-409 -143.5z" />
    <glyph glyph-name="V" unicode="V" horiz-adv-x="1430" 
d="M979 1352h453v-88h-49q-56 0 -90.5 -44.5t-88.5 -177.5l-416 -1071h-109l-461 1118q-47 107 -66 133q-33 42 -94 42h-61v88h646v-88h-100q-75 0 -90.5 -37t16.5 -108l344 -837l307 796q72 186 -68 186h-73v88z" />
    <glyph glyph-name="W" unicode="W" horiz-adv-x="1926" 
d="M1501 1352h424v-88h-39q-54 0 -84 -50t-61 -166l-290 -1074h-138l-353 1062l-311 -1062h-142l-338 1141q-26 89 -51 119t-77 30h-41v88h576v-88h-97q-60 0 -73 -38t11 -106l242 -819l304 1058h133l350 -1051l195 738q10 40 15 67t6 58t-6.5 49.5t-27.5 31t-52 12.5h-75
v88z" />
    <glyph glyph-name="X" unicode="X" horiz-adv-x="1613" 
d="M41 0v87h53q58 0 108.5 34.5t108.5 101.5l375 425l-363 452q-53 71 -80 101t-58 46.5t-73 16.5h-80v88h683v-88h-87q-58 0 -66 -33t35 -91l256 -316l268 305q54 63 43.5 99t-76.5 36h-91v88h524v-88h-64q-15 0 -29.5 -2.5t-25.5 -4.5t-24.5 -9.5t-21.5 -11.5t-22 -16
t-19.5 -17t-20.5 -21.5t-20 -21.5t-22 -25t-22 -26l-316 -359l383 -484q32 -43 46 -61t40 -46.5t44 -40t44 -21.5t54 -10h71v-87h-734v87h105q164 0 50 151l-272 334l-295 -338q-54 -63 -39.5 -105t88.5 -42h104v-87h-562z" />
    <glyph glyph-name="Y" unicode="Y" horiz-adv-x="1352" 
d="M344 0v87h98q75 0 98 31t23 99v299l-364 616q-41 71 -71.5 101.5t-73.5 30.5h-58v88h598v-88h-78q-58 0 -63 -39.5t29 -90.5l293 -495l271 456q44 75 31.5 122t-82.5 47h-61v88h422v-88h-37q-36 0 -71 -34t-75 -102l-361 -597l-1 -313q0 -70 23.5 -100.5t99.5 -30.5h96
v-87h-686z" />
    <glyph glyph-name="Z" unicode="Z" horiz-adv-x="1340" 
d="M1178 419l87 -2l-30 -417h-1165v91l847 1173h-445q-49 0 -82 -2.5t-66 -11t-54.5 -23.5t-39.5 -41.5t-28 -63.5l-22 -125l-86 1l28 360h1098v-90l-856 -1174h526q49 0 80.5 4.5t67.5 19t62.5 47t45.5 84.5z" />
    <glyph glyph-name="bracketleft" unicode="[" horiz-adv-x="692" 
d="M176 -476v1828h508v-85h-195q-66 0 -85.5 -25t-19.5 -76v-1466q0 -46 21 -68.5t91 -22.5h188v-85h-508z" />
    <glyph glyph-name="backslash" unicode="\" horiz-adv-x="846" 
d="M885 -33h-207l-715 1387h205z" />
    <glyph glyph-name="bracketright" unicode="]" horiz-adv-x="692" 
d="M516 -476h-508v85h188q70 0 91 22.5t21 68.5v1466q0 51 -19.5 76t-85.5 25h-195v85h508v-1828z" />
    <glyph glyph-name="asciicircum" unicode="^" horiz-adv-x="1032" 
d="M969 636h-179l-274 493l-279 -493h-174l407 718h95z" />
    <glyph glyph-name="underscore" unicode="_" horiz-adv-x="1315" 
d="M133 -211v136h1049v-136h-1049z" />
    <glyph glyph-name="grave" unicode="`" horiz-adv-x="540" 
d="M419 1030l-425 318v4h304l192 -322h-71z" />
    <glyph glyph-name="a" unicode="a" horiz-adv-x="1057" 
d="M296 -20q-63 0 -108 17t-68 47t-33 62t-10 69q0 52 20 94.5t60.5 78.5t85.5 63.5t113 60.5l268 129q-2 129 -36.5 171.5t-132.5 42.5q-51 0 -87 -12.5t-56 -35.5t-29 -42t-17 -47q-16 -88 -97 -87q-44 1 -66 26t-20 61q9 92 116 159t307 67q102 0 170 -18t107 -56t55 -90
t16 -128l-1 -383q0 -68 14.5 -103t51.5 -35q61 0 69 101h69q-3 -106 -61.5 -159t-154.5 -53q-83 0 -131.5 41t-71.5 125q-166 -166 -342 -166zM398 93q57 0 116 39.5t112 111.5l-1 265l-226 -134q-104 -60 -104 -157q0 -62 27.5 -93.5t75.5 -31.5z" />
    <glyph glyph-name="b" unicode="b" horiz-adv-x="1138" 
d="M658 -25q-90 0 -174 39t-150 110l-118 -139h-70v1147q0 60 -18 88.5t-71 22.5l-65 -13l-4 86l387 73v-603q122 118 289 118q171 0 292.5 -130.5t121.5 -332.5q0 -206 -125 -336t-295 -130zM596 84q64 0 113 35t75 90.5t39 113.5t13 115q0 68 -15 130.5t-43 113t-74.5 81
t-105.5 30.5q-71 0 -129 -36.5t-94 -86.5v-454q93 -132 221 -132z" />
    <glyph glyph-name="c" unicode="c" horiz-adv-x="954" 
d="M519 -30q-202 0 -332 125.5t-130 329.5q0 140 65.5 250.5t176.5 169.5t246 59q76 0 146 -18.5t126.5 -66.5t65.5 -119q2 -43 -21 -73.5t-65 -31.5q-26 0 -45.5 10.5t-30.5 29.5t-16.5 35t-9.5 35q-48 111 -161 111q-53 0 -95.5 -24t-68 -60t-42.5 -83.5t-23.5 -91
t-6.5 -85.5q0 -195 69 -296.5t197 -101.5q55 0 101 18t77 48.5t50.5 61t32.5 63.5l79 -37q-25 -55 -54 -96t-74 -80.5t-110 -60.5t-147 -21z" />
    <glyph glyph-name="d" unicode="d" horiz-adv-x="1167" 
d="M453 -25q-118 0 -207 61.5t-134.5 164.5t-45.5 229q0 108 30 194t75.5 137t103 84.5t106.5 46t93 12.5q67 0 147.5 -28.5t141.5 -93.5v347q0 58 -20 87.5t-76 23.5l-59 -13l-4 86l386 76v-1187q0 -26 2.5 -43t10.5 -34t25 -25.5t43 -8.5h61v-91h-343l-13 113
q-40 -32 -65.5 -50t-67.5 -42t-89 -35t-101 -11zM537 91q58 0 122 33.5t104 104.5v450q-89 109 -216 109q-62 0 -109 -28t-75 -76.5t-42 -108.5t-14 -129q0 -156 61.5 -255.5t168.5 -99.5z" />
    <glyph glyph-name="e" unicode="e" horiz-adv-x="972" 
d="M507 -30q-193 0 -320.5 131t-127.5 339t127.5 336t312.5 128q74 0 145 -25.5t134.5 -77t103 -142.5t40.5 -209h-622q0 -49 6.5 -97t25 -101t47 -92t77.5 -65t111 -26q76 0 140 44t108 123l75 -44q-57 -101 -158 -161.5t-225 -60.5zM301 534h401q-3 39 -10.5 75.5
t-23 74.5t-37.5 66t-56 46t-75 18q-51 0 -90 -26.5t-61 -70.5t-33.5 -89.5t-14.5 -93.5z" />
    <glyph glyph-name="f" unicode="f" horiz-adv-x="740" 
d="M47 0v87h84q66 0 86 27t20 86v586h-190v88h190v141q0 92 32.5 164.5t88.5 117t128 67t154 22.5q75 0 138.5 -20.5t111 -71.5t51.5 -126q1 -45 -29.5 -78t-73.5 -34q-40 0 -71 28.5t-38 73.5q-23 138 -128 138q-136 0 -136 -245v-177h231v-88h-231v-586q0 -58 19.5 -85.5
t86.5 -27.5h125v-87h-649z" />
    <glyph glyph-name="g" unicode="g" horiz-adv-x="1065" 
d="M485 -528q-41 0 -80.5 3t-92 11t-95.5 26t-81 43.5t-59.5 67.5t-21.5 95q0 157 198 204q-75 21 -115 64t-40 120q0 85 52.5 137.5t159.5 81.5q-65 19 -112 55.5t-68 78.5t-30 76.5t-9 66.5q0 135 108.5 217.5t291.5 82.5q192 0 305 -106q47 52 88 79t85 27q40 0 66 -24
t32 -67q2 -29 -10.5 -48t-38.5 -20q-27 0 -47 27q-23 31 -50 31q-44 0 -79 -62q37 -65 37 -138q0 -68 -25.5 -122t-65.5 -88t-94.5 -57t-108 -33t-110.5 -12q-227 -4 -227 -116q0 -38 32 -56.5t95 -24.5q28 -3 66.5 -3.5t97.5 0.5t82 1q67 0 119.5 -6.5t103.5 -24
t84.5 -46.5t54 -77.5t20.5 -113.5q0 -151 -131.5 -250.5t-386.5 -99.5zM487 384q82 0 128.5 57.5t46.5 165.5q0 30 -9.5 63.5t-28.5 67t-55 55.5t-83 22t-83 -21.5t-55 -55t-28.5 -67.5t-9.5 -65q0 -33 9.5 -69t28.5 -71.5t55.5 -58.5t83.5 -23zM494 -441q169 0 270.5 53.5
t101.5 158.5q0 34 -12 57.5t-44.5 43t-96.5 28.5t-161 9q-190 -1 -275 -46t-85 -139q0 -165 302 -165z" />
    <glyph glyph-name="h" unicode="h" horiz-adv-x="1186" 
d="M27 0v87h59q58 0 76 27.5t18 85.5v927q0 57 -18.5 86t-70.5 23l-64 -13l-5 86l387 80v-707q64 98 149 160t177 62q136 0 211 -79.5t75 -239.5v-385q0 -113 90 -113h60v-87h-518v87h63q44 0 61 29.5t17 85.5v379q0 93 -32.5 143t-108.5 50q-73 0 -136 -70t-108 -169v-335
q0 -113 72 -113h64v-87h-518z" />
    <glyph glyph-name="i" unicode="i" horiz-adv-x="628" 
d="M339 1145q-62 0 -101 45t-39 99q0 58 41.5 100t98.5 42q58 0 99 -42t41 -100q0 -64 -41.5 -104t-98.5 -40zM57 0v87h67q59 0 78.5 24.5t19.5 88.5v447q0 66 -19.5 91.5t-78.5 19.5l-67 -13l-4 86l398 76v-707q0 -57 17 -85t70 -28h58v-87h-539z" />
    <glyph glyph-name="j" unicode="j" horiz-adv-x="564" 
d="M295 1145q-62 0 -100.5 45t-38.5 99q0 58 41 100t98 42q58 0 98.5 -42t40.5 -100q0 -64 -41 -104t-98 -40zM12 -531q-108 0 -180 49t-79 139q-1 39 25 66t63 28q32 1 55.5 -18.5t32.5 -55.5q26 -117 122 -117q52 0 83.5 39t42.5 98t11 145v804q0 61 -21 89t-88 21
l-63 -13l-3 86l404 78v-957q0 -250 -90.5 -365.5t-314.5 -115.5z" />
    <glyph glyph-name="k" unicode="k" horiz-adv-x="1208" 
d="M24 0v87h66q55 0 72.5 26.5t17.5 86.5v931q0 60 -19 88t-74 22l-63 -13l-4 86l389 75v-967l316 260q53 45 53 74.5t-58 29.5h-39v88h438v-88h-48q-48 0 -88.5 -17.5t-87.5 -61.5l-147 -121l276 -370q22 -33 34.5 -50t31 -38.5t34.5 -31t32 -9.5h45v-87h-500v87h76
q28 0 36 15t0 37.5t-27 50.5l-203 273l-174 -149v-114q0 -113 68 -113h73v-87h-526z" />
    <glyph glyph-name="l" unicode="l" horiz-adv-x="584" 
d="M24 0v87h66q55 0 72.5 26.5t17.5 86.5v931q0 60 -19 88t-74 22l-63 -13l-4 86l389 75v-1189q0 -113 68 -113h73v-87h-526z" />
    <glyph glyph-name="m" unicode="m" horiz-adv-x="1913" 
d="M61 0v87h59q58 0 76 27.5t18 85.5v435q0 58 -17.5 86t-71.5 23l-64 -13l-4 86l386 81v-216q72 95 172.5 158.5t194.5 63.5q229 0 271 -227q74 98 178 162.5t202 64.5q136 0 211.5 -80t75.5 -239v-385q0 -57 20.5 -85t69.5 -28h58v-87h-518v87h63q43 0 60 29.5t17 85.5
v379q0 94 -32 143.5t-108 49.5q-82 0 -160 -68.5t-122 -158.5v-347q0 -113 90 -113h60v-87h-518v87h63q78 0 78 115v379q0 93 -33 143t-109 50q-84 0 -163.5 -73t-120.5 -166v-335q0 -113 72 -113h77v-87h-531z" />
    <glyph glyph-name="n" unicode="n" horiz-adv-x="1220" 
d="M61 0v87h59q58 0 76 27.5t18 85.5v435q0 58 -17.5 86t-71.5 23l-64 -13l-4 86l386 81v-216q64 98 148.5 160t177.5 62q136 0 211 -79.5t75 -239.5v-385q0 -113 90 -113h60v-87h-518v87h63q43 0 60.5 29.5t17.5 85.5v379q0 93 -33 143t-109 50q-73 0 -136.5 -70.5
t-106.5 -168.5v-335q0 -113 72 -113h64v-87h-518z" />
    <glyph glyph-name="o" unicode="o" horiz-adv-x="1050" 
d="M525 -30q-48 0 -101.5 10t-120.5 41.5t-119 80.5t-88 136.5t-36 200.5q0 97 29 177.5t76 132.5t108.5 88t124 51.5t126.5 15.5q58 0 118 -14t123.5 -48.5t112.5 -85.5t80.5 -133.5t31.5 -183.5t-30 -183t-77.5 -134t-110 -87.5t-124.5 -50t-123 -14.5zM526 60
q102 0 162.5 105t60.5 273q0 106 -22 188t-74 135t-128 53t-128 -53.5t-74 -134t-22 -180.5q0 -174 60 -280t165 -106z" />
    <glyph glyph-name="p" unicode="p" horiz-adv-x="1174" 
d="M27 -516v87h68q53 0 70 27.5t17 85.5v966q0 59 -20 85.5t-85 23.5l-50 -11l-4 84l371 75l13 -148q62 67 142.5 106t165.5 39q104 0 194.5 -55.5t147.5 -162t57 -242.5q0 -105 -34.5 -195t-92 -150.5t-132 -94.5t-154.5 -34q-162 0 -290 126v-412q0 -58 19.5 -85.5
t87.5 -27.5h70v-87h-561zM627 86q54 0 97.5 24.5t70.5 61.5t45.5 85t25.5 92t7 84q0 67 -15 129.5t-43 113.5t-75 81.5t-105 30.5q-65 0 -125.5 -40.5t-98.5 -103.5v-443q44 -55 103 -85t113 -30z" />
    <glyph glyph-name="q" unicode="q" horiz-adv-x="1136" 
d="M586 -516v87h69q66 0 86 27t20 86v407q-129 -121 -290 -121q-179 0 -294 129t-115 330q0 112 35.5 203.5t94.5 149.5t133 89t154 31q178 0 319 -143l121 136h70v-1211q0 -59 19 -86t76 -27h62v-87h-560zM537 82q48 0 109 28t115 94v458q-99 134 -222 134
q-107 0 -171.5 -93.5t-64.5 -265.5q0 -62 13 -121.5t39 -113.5t73 -87t109 -33z" />
    <glyph glyph-name="r" unicode="r" horiz-adv-x="908" 
d="M61 0v87h68q52 0 68.5 28t16.5 85v439q0 60 -17 87.5t-65 23.5l-73 -13l-4 86l358 84l20 -249q117 246 305 246q78 0 121 -45.5t55 -108.5q3 -41 -19.5 -75.5t-70.5 -35.5q-50 -1 -85 53q-37 59 -102 59q-43 0 -78 -26t-56 -66t-35 -92t-19.5 -100t-5.5 -94v-173
q0 -63 20 -88t82 -25h53v-87h-537z" />
    <glyph glyph-name="s" unicode="s" horiz-adv-x="982" 
d="M513 562q46 -8 78.5 -14t77 -18.5t75 -26t64 -36t53.5 -49t33 -64.5t13 -83q0 -97 -55 -166.5t-141 -102t-191 -32.5q-91 0 -166 23.5t-121 58.5l-46 -82h-69l-4 280h78q126 -191 333 -191q93 0 155 40t62 108q0 28 -13 49t-31 34t-53 24t-62 16t-76 13q-53 9 -85.5 15.5
t-80.5 19t-78.5 26t-65 35.5t-54 47.5t-32.5 62t-13 80.5q0 127 95 201t264 74q166 0 277 -80l38 80h64l6 -264h-65q-45 82 -126 128.5t-195 46.5q-90 0 -145 -30t-55 -91q0 -22 7 -38.5t24.5 -29.5t35 -21.5t52.5 -16.5t61.5 -13t76.5 -13z" />
    <glyph glyph-name="t" unicode="t" horiz-adv-x="751" 
d="M445 -30q-125 0 -195.5 73.5t-70.5 226.5v516h-160v88h85q95 0 157 58.5t62 153.5v105h84v-317h287v-88h-287v-482q0 -117 25.5 -171t88.5 -54q45 0 78 29.5t41 90.5h71q-3 -52 -22.5 -93t-47 -66t-63.5 -41.5t-68.5 -22.5t-64.5 -6z" />
    <glyph glyph-name="u" unicode="u" horiz-adv-x="1190" 
d="M453 -30q-136 0 -212 80t-76 239v384q0 57 -21 85t-69 28h-58v88h377v-581q0 -94 32.5 -144t109.5 -50q72 0 135 70.5t107 169.5v334q0 113 -70 113h-66v88h366v-673q0 -57 17.5 -85t71.5 -23l64 13l3 -87l-386 -45v217q-62 -97 -147 -159t-178 -62z" />
    <glyph glyph-name="v" unicode="v" horiz-adv-x="1018" 
d="M730 874h306v-88h-26q-35 0 -59 -30.5t-61 -112.5l-308 -661h-139l-305 680q-35 77 -57.5 100.5t-57.5 23.5h-41v88h488v-88h-61q-19 0 -31.5 -4t-19.5 -9t-8.5 -15.5t-1 -18.5t6.5 -24t9.5 -25t12.5 -28l207 -473l214 471q9 20 13.5 31.5t10 28.5t5 27t-4.5 20t-16 14.5
t-31 4.5h-45v88z" />
    <glyph glyph-name="w" unicode="w" horiz-adv-x="1583" 
d="M1251 874h348v-88h-40q-37 0 -59 -27.5t-42 -82.5l-263 -695h-141l-256 669l-253 -669h-143l-261 696q-24 63 -45.5 86t-58.5 23h-53v88h505v-88h-63q-53 0 -64.5 -23t10.5 -79l172 -473l258 671h134l258 -673l158 438q30 73 21 106t-76 33h-46v88z" />
    <glyph glyph-name="x" unicode="x" horiz-adv-x="1105" 
d="M36 0v87h32q68 0 160 92l224 229l-241 266q-93 112 -143 112h-37v88h511v-88h-54q-31 0 -41 -10.5t-3.5 -28.5t27.5 -45l137 -154l143 149q82 89 -16 89h-32v88h337v-88h-37q-53 0 -150 -101l-194 -196l226 -248q126 -154 174 -154h29v-87h-513v87h56q36 0 49.5 10
t8.5 28t-26 45l-155 178l-163 -167q-27 -30 -37.5 -49.5t-1 -32t45.5 -12.5h54v-87h-370z" />
    <glyph glyph-name="y" unicode="y" horiz-adv-x="1023" 
d="M218 -511q-49 -1 -78.5 26.5t-30.5 69.5q0 72 98 95q88 21 149 65t106 143l39 90l-381 704q-34 65 -52.5 84.5t-52.5 19.5h-35v88h471v-88h-52q-25 0 -38 -7.5t-13.5 -23t5.5 -32.5t18 -42l241 -472l187 432q14 36 20.5 58.5t7 44.5t-13.5 32t-43 10h-56v88h327v-88h-22
q-35 0 -60 -28.5t-60 -111.5l-365 -823q-77 -173 -145 -249.5t-171 -84.5z" />
    <glyph glyph-name="z" unicode="z" horiz-adv-x="982" 
d="M817 292l83 -1l-26 -291h-808v87l540 699h-310q-37 0 -56 -16.5t-39 -77.5l-22 -90l-85 3l25 269h770v-93l-541 -694h320q42 0 70 18.5t53 82.5z" />
    <glyph glyph-name="braceleft" unicode="{" horiz-adv-x="572" 
d="M552 1333q-120 -12 -181 -72.5t-62 -156.5q-1 -65 27 -185.5t28 -174.5q0 -52 -16 -100.5t-49.5 -93t-94 -76.5t-141.5 -43q136 -24 219.5 -104t83.5 -210q0 -50 -29 -165.5t-28 -188.5q0 -61 22.5 -107t59 -72t77 -39t84.5 -15v-47q-99 -3 -178.5 26.5t-126.5 79.5
t-72 108.5t-25 118.5q0 68 30 189.5t30 175.5q0 57 -18 99.5t-47.5 64.5t-58 33t-59.5 14v76q47 7 82.5 26t54 41.5t29.5 52.5t14 52.5t3 46.5q0 57 -30 174.5t-29 180.5q0 31 8.5 67.5t35 85t68 87t117 66.5t172.5 30v-45z" />
    <glyph glyph-name="bar" unicode="|" horiz-adv-x="628" 
d="M219 -483v1835h190v-1835h-190z" />
    <glyph glyph-name="braceright" unicode="}" horiz-adv-x="572" 
d="M545 392q-31 -3 -59.5 -14t-58 -33t-47.5 -64.5t-18 -99.5q0 -54 30 -175.5t30 -189.5q0 -60 -25 -118.5t-72 -108.5t-126.5 -79.5t-178.5 -26.5v47q44 2 84.5 15t77 39t59 72t22.5 107q1 73 -28 188.5t-29 165.5q0 130 83.5 210t219.5 104q-81 11 -141.5 43t-94 76.5
t-49.5 93t-16 100.5q0 54 28 174.5t27 185.5q-1 96 -62 156.5t-181 72.5v45q97 -2 172.5 -30t117 -66.5t68 -87t35 -85t8.5 -67.5q1 -63 -29 -180.5t-30 -174.5q0 -24 3 -46.5t14 -52.5t29.5 -52.5t54 -41.5t82.5 -26v-76z" />
    <glyph glyph-name="asciitilde" unicode="~" horiz-adv-x="1334" 
d="M156 509q1 38 6.5 76t24 89t46.5 88.5t80 64t119 26.5q57 0 122.5 -21.5t199.5 -86.5q80 -44 115.5 -58t76.5 -14q72 0 116.5 48t50.5 135h67q0 -68 -17 -129t-50 -110t-88 -77.5t-125 -28.5q-52 0 -103.5 14.5t-90 32.5t-132.5 66q-64 36 -104.5 51t-80.5 15
q-75 0 -117 -46.5t-49 -134.5h-67z" />
    <glyph glyph-name="uni00A0" unicode="&#xa0;" horiz-adv-x="540" 
 />
    <glyph glyph-name="exclamdown" unicode="&#xa1;" horiz-adv-x="577" 
d="M289 907q60 0 102.5 -43.5t42.5 -105.5q0 -61 -42.5 -104t-102.5 -43q-61 0 -103.5 43t-42.5 104q0 62 43 105.5t103 43.5zM246 428h86l56 -681q12 -125 12 -140q0 -21 -3 -36t-13 -34.5t-34.5 -30t-61.5 -10.5q-38 0 -62.5 10.5t-34.5 30t-12.5 34.5t-2.5 36
q0 29 5.5 90t5.5 63z" />
    <glyph glyph-name="cent" unicode="&#xa2;" horiz-adv-x="1019" 
d="M853 470l79 -37q-19 -43 -40.5 -77.5t-54.5 -69.5t-72 -58.5t-95 -38t-122 -14.5q-16 0 -44 2l-72 -359h-68l73 368q-159 33 -255 151.5t-96 292.5q0 140 65 250t176 169t246 59q16 0 48 -2l69 346h68l-71 -356q90 -18 151.5 -65.5t72.5 -125.5q2 -43 -21 -73.5
t-64 -31.5q-26 0 -45.5 10.5t-31 30t-17 34.5t-9.5 35q-23 53 -57 79l-141 -703q34 -8 67 -8q55 0 101.5 18.5t77 49t50 61t32.5 63.5zM327 676q0 -276 136 -363l140 704q-16 4 -41 4q-65 0 -114 -35t-73.5 -90.5t-36 -110.5t-11.5 -109z" />
    <glyph glyph-name="sterling" unicode="&#xa3;" horiz-adv-x="1475" 
d="M183 -38q-33 0 -63 25q-31 26 -27 62q5 22 19.5 46.5t30 43t40.5 41.5t39 34.5t38.5 30t27.5 20.5q80 152 129 353h-315l31 117h311q52 200 78 270q33 91 75 157.5t87 107t101 64.5t110 32.5t121 8.5q126 0 208 -52.5t96 -137.5q1 -38 -24.5 -64.5t-60.5 -27.5
q-62 -1 -102 77q-55 111 -163 111q-46 0 -82.5 -16t-60.5 -39t-45.5 -67t-33.5 -80.5t-30 -98.5q-7 -23 -21.5 -74t-27 -92.5t-26.5 -78.5h346l-28 -117h-365q-53 -148 -135 -273q62 32 127 32q41 0 77 -11.5t73 -38t58.5 -45.5t62.5 -59q76 -74 123.5 -103.5t104.5 -29.5
q55 0 90 33.5t44 77.5q4 27 -10.5 87t-16.5 86q-2 41 18 66.5t57 26.5q45 1 71.5 -29.5t28.5 -75.5q6 -60 -16 -124q-34 -113 -135.5 -192.5t-226.5 -79.5q-57 0 -105 13.5t-89 42t-65 50t-60 58.5q-37 38 -59 58t-54 37t-63 17q-61 0 -119 -54q-13 -21 -35.5 -62.5t-36 -64
t-34 -49t-42 -38.5t-46.5 -12z" />
    <glyph glyph-name="currency" unicode="&#xa4;" horiz-adv-x="1230" 
d="M233 283l-67 69l131 129q-82 129 -82 243q0 117 84 245l-133 131l67 69l136 -131q126 84 245 84q123 0 247 -84l136 131l67 -69l-132 -131q84 -129 84 -245q0 -111 -83 -243l131 -129l-67 -69l-136 131q-124 -84 -247 -84q-122 0 -245 84zM614 425q125 0 214.5 88.5
t89.5 211.5q0 126 -91 214t-213 88q-123 0 -211 -89t-88 -213t88 -212t211 -88z" />
    <glyph glyph-name="yen" unicode="&#xa5;" horiz-adv-x="1472" 
d="M417 0v87h102q65 0 88 31.5t23 99.5v123h-437v81h437v94l-36 62h-401v80h356l-274 477q-21 38 -33 57t-29 39t-35 28t-41 8h-56v87h565v-87h-74q-57 0 -65 -38t26 -93l290 -497l274 470q38 65 25 111.5t-78 46.5h-69v87h408v-87h-26q-70 0 -144 -133l-280 -476h368v-80
h-409l-33 -53v-103h442v-81h-442v-123q0 -69 21.5 -100t83.5 -31h107v-87h-654z" />
    <glyph glyph-name="brokenbar" unicode="&#xa6;" horiz-adv-x="1045" 
d="M428 566v788h189v-788h-189zM428 -483v791h189v-791h-189z" />
    <glyph glyph-name="section" unicode="&#xa7;" horiz-adv-x="1090" 
d="M526 -500q-148 0 -247 68.5t-102 179.5q-1 50 29 74.5t63 24.5q71 0 93 -88q16 -87 61.5 -128.5t134.5 -41.5q85 0 136.5 44t51.5 121q0 29 -6.5 53t-24 47.5t-33.5 40t-51 41t-59 39.5t-75 46.5t-83 51.5q-167 106 -244.5 199t-77.5 211q0 46 12.5 88.5t41 84t82 72
t127.5 41.5q-177 121 -177 286q0 150 110 235t277 85q153 0 249.5 -70.5t99.5 -173.5q1 -44 -28.5 -70.5t-67.5 -26.5q-41 0 -60 24t-33 72q-15 76 -60.5 117t-133.5 41q-93 0 -144 -46t-51 -121q0 -54 40 -103.5t80.5 -76.5t147.5 -89q15 -9 23 -14q76 -45 122.5 -75.5
t98.5 -74t80 -83.5t46.5 -94t18.5 -117q0 -75 -22.5 -131t-61.5 -88t-80 -49t-89 -24q81 -56 125 -131.5t44 -156.5q0 -100 -55.5 -173t-140.5 -107t-187 -34zM663 181q85 -8 134.5 33t49.5 108q0 65 -68 145t-166.5 143t-188.5 88q-90 8 -138.5 -32.5t-48.5 -109.5
q0 -62 65 -141.5t165 -144.5t196 -89z" />
    <glyph glyph-name="dieresis" unicode="&#xa8;" horiz-adv-x="821" 
d="M213 1114q-47 0 -80.5 34t-33.5 79q0 47 33.5 80.5t80.5 33.5q48 0 81 -33.5t33 -80.5q0 -48 -33.5 -80.5t-80.5 -32.5zM607 1114q-47 0 -80.5 33t-33.5 80q0 48 33.5 81t80.5 33t80.5 -33.5t33.5 -80.5q0 -48 -33.5 -80.5t-80.5 -32.5z" />
    <glyph glyph-name="copyright" unicode="&#xa9;" horiz-adv-x="1611" 
d="M804 -31q-143 0 -273 55.5t-224.5 150t-150 225t-55.5 274.5q0 192 95 354t256.5 256t351.5 94q143 0 273.5 -55.5t225.5 -149.5t151.5 -224.5t56.5 -274.5q0 -191 -95 -353.5t-258 -257t-354 -94.5zM804 41q172 0 317.5 85t230.5 230.5t85 317.5q0 129 -50.5 246
t-135.5 201t-202 134t-245 50q-170 0 -315 -84t-230 -229.5t-85 -317.5t84.5 -318t229.5 -230.5t316 -84.5zM806 250q-83 0 -157.5 28t-133 79.5t-92.5 131.5t-34 177q0 128 58 228.5t156 154t216 53.5q40 0 81.5 -8t62.5 -15t58 -21.5t39 -15.5q27 -7 39.5 6.5t13.5 35.5
h39v-228h-39q-16 57 -48.5 98.5t-72 62t-75 29.5t-70.5 9q-64 0 -115.5 -23.5t-84 -61.5t-54.5 -87.5t-31 -99.5t-9 -100q0 -174 76 -277t215 -103q101 0 175 51t110 116l12 -53q-56 -81 -144 -124t-191 -43z" />
    <glyph glyph-name="guillemotleft" unicode="&#xab;" horiz-adv-x="1046" 
d="M373 0l-356 440l354 441h92l-237 -441l238 -440h-91zM885 0l-357 440l354 441h93l-236 -441l236 -440h-90z" />
    <glyph glyph-name="logicalnot" unicode="&#xac;" horiz-adv-x="1383" 
d="M1014 334v503h-929v153h1082v-656h-153z" />
    <glyph glyph-name="uni00AD" unicode="&#xad;" horiz-adv-x="864" 
d="M136 310v194h592v-194h-592z" />
    <glyph glyph-name="registered" unicode="&#xae;" horiz-adv-x="1611" 
d="M804 1380q143 0 273.5 -55.5t225.5 -149.5t151.5 -224t56.5 -274q0 -192 -95 -354.5t-258 -257t-354 -94.5q-143 0 -273 56t-224.5 150.5t-150 225t-55.5 274.5q0 143 56 273.5t150.5 224.5t224.5 149.5t272 55.5zM804 44q172 0 317.5 85t230.5 230.5t85 317.5
q0 129 -50.5 246t-135.5 201t-202 134t-245 50q-127 0 -243.5 -50t-201 -134t-135 -201t-50.5 -246q0 -172 84.5 -318t229.5 -230.5t316 -84.5zM1149 390q29 -43 62 -43h36v-49h-167l-163 256q-35 55 -60.5 74t-65.5 19h-108v-240q0 -34 11.5 -47t45.5 -13h54v-49h-341v49
h52q37 0 48.5 12.5t11.5 47.5v551q0 33 -11.5 47.5t-43.5 14.5h-57v47h391q120 0 193.5 -51t73.5 -157q0 -141 -163 -191q38 -30 81 -96zM811 696q179 0 179 159q0 155 -175 155h-132v-314h128z" />
    <glyph glyph-name="macron" unicode="&#xaf;" horiz-adv-x="994" 
d="M135 1082v164h725v-164h-725z" />
    <glyph glyph-name="degree" unicode="&#xb0;" horiz-adv-x="983" 
d="M490 655q-150 0 -256 106.5t-106 256.5t106 256t256 106t256.5 -106t106.5 -256t-106.5 -256.5t-256.5 -106.5zM490 773q102 0 174 71.5t72 173.5t-72 173.5t-174 71.5t-173.5 -71.5t-71.5 -173.5t71.5 -173.5t173.5 -71.5z" />
    <glyph glyph-name="plusminus" unicode="&#xb1;" horiz-adv-x="1301" 
d="M574 358v479h-478v153h478v478h153v-478h479v-153h-479v-479h-153zM96 0v153h1110v-153h-1110z" />
    <glyph glyph-name="acute" unicode="&#xb4;" horiz-adv-x="553" 
d="M121 1030h-71l192 322h304v-4z" />
    <glyph glyph-name="uni00B5" unicode="&#xb5;" horiz-adv-x="1314" 
d="M240 -423v1096q0 57 -20.5 85t-69.5 28h-58v88h377v-581q0 -94 32.5 -144t109.5 -50q72 0 135 70.5t107 169.5v334q0 113 -70 113h-66v88h366v-673q0 -57 17.5 -85t71.5 -23l64 13l3 -87l-386 -45v217q-44 -72 -102 -124.5t-121 -66.5q-101 -24 -161 7v-430h-229z" />
    <glyph glyph-name="paragraph" unicode="&#xb6;" horiz-adv-x="1154" 
d="M541 -510v1029q-29 11 -80 28.5t-84 29t-79.5 32t-77 39.5t-64 49.5t-53 64t-32.5 80.5t-13 102q0 99 28 171.5t77 118t128.5 72t169 36.5t211.5 10h441v-43h-45q-53 0 -87 -14t-50.5 -43.5t-22 -62.5t-5.5 -85v-1614h-79v1798h-202v-1798h-81z" />
    <glyph glyph-name="periodcentered" unicode="&#xb7;" horiz-adv-x="601" 
d="M301 527q-61 0 -105 43t-44 107q0 61 43 103t106 42q61 0 104 -42t43 -103q0 -64 -43 -107t-104 -43z" />
    <glyph glyph-name="cedilla" unicode="&#xb8;" horiz-adv-x="589" 
d="M228 -486q-108 0 -201 24l16 87q68 -14 155 -14q108 0 161.5 29t53.5 71q0 17 -10.5 30t-34 20t-40.5 11.5t-53.5 6t-47 1.5h-44.5l46 250l99 -7l-29 -139q109 -2 176.5 -43.5t67.5 -121.5q0 -82 -79 -143.5t-236 -61.5z" />
    <glyph glyph-name="guillemotright" unicode="&#xbb;" horiz-adv-x="1046" 
d="M161 0h-90l236 440l-236 441h93l354 -441zM673 0h-91l238 440l-237 441h92l354 -441z" />
    <glyph glyph-name="questiondown" unicode="&#xbf;" horiz-adv-x="867" 
d="M547 611q-59 0 -101.5 43t-42.5 104q0 62 42.5 105.5t101.5 43.5q60 0 103 -43.5t43 -105.5q0 -61 -43 -104t-103 -43zM737 -199q29 -2 53.5 -23t23.5 -54q-12 -90 -107.5 -159t-240.5 -69q-187 0 -298 114t-111 279q0 85 29.5 154t77 112t105 66t116.5 23q56 0 114 -19
v200h97v-313h-77q-29 28 -75 28q-45 0 -78 -25t-50 -64.5t-24.5 -76t-7.5 -70.5q0 -45 10 -95.5t31 -103t62.5 -86.5t97.5 -34q55 0 101 32.5t64 98.5q4 18 8 28t13.5 26t26 23.5t39.5 7.5z" />
    <glyph glyph-name="Agrave" unicode="&#xc0;" horiz-adv-x="1337" 
d="M706 1438h-71l-425 317v4h304zM1293 90l47 -3v-87h-576v87l95 3q30 1 46.5 17.5t7.5 43.5l-94 258h-470l-87 -239q-13 -39 12 -59.5t63 -21.5l88 -2v-87h-428v87l37 7q110 50 150 155l431 1129h105l424 -1129q27 -71 58 -109.5t91 -49.5zM382 499h405l-186 512h-33z" />
    <glyph glyph-name="Aacute" unicode="&#xc1;" horiz-adv-x="1337" 
d="M1132 1755l-425 -317h-71l192 321h304v-4zM1293 90l47 -3v-87h-576v87l95 3q30 1 46.5 17.5t7.5 43.5l-94 258h-470l-87 -239q-13 -39 12 -59.5t63 -21.5l88 -2v-87h-428v87l37 7q110 50 150 155l431 1129h105l424 -1129q27 -71 58 -109.5t91 -49.5zM382 499h405
l-186 512h-33z" />
    <glyph glyph-name="Acircumflex" unicode="&#xc2;" horiz-adv-x="1337" 
d="M671 1689l-285 -219h-71l233 322h245l233 -322h-71zM1293 90l47 -3v-87h-576v87l95 3q30 1 46.5 17.5t7.5 43.5l-94 258h-470l-87 -239q-13 -39 12 -59.5t63 -21.5l88 -2v-87h-428v87l37 7q110 50 150 155l431 1129h105l424 -1129q27 -71 58 -109.5t91 -49.5zM382 499
h405l-186 512h-33z" />
    <glyph glyph-name="Atilde" unicode="&#xc3;" horiz-adv-x="1337" 
d="M393 1440h-68q-3 126 51 198.5t155 72.5q14 0 27 -1.5t29 -6t24.5 -6.5t28 -10t23.5 -10t28 -13t25 -12q7 -4 26.5 -14.5t26.5 -13.5t21 -8.5t25.5 -7.5t25.5 -2q43 0 71.5 31t31.5 93h71q6 -119 -47 -204t-155 -85q-74 0 -189 62q-83 46 -133 46q-46 0 -70.5 -32.5
t-27.5 -76.5zM1293 90l47 -3v-87h-576v87l95 3q30 1 46.5 17.5t7.5 43.5l-94 258h-470l-87 -239q-13 -39 12 -59.5t63 -21.5l88 -2v-87h-428v87l37 7q110 50 150 155l431 1129h105l424 -1129q27 -71 58 -109.5t91 -49.5zM382 499h405l-186 512h-33z" />
    <glyph glyph-name="Adieresis" unicode="&#xc4;" horiz-adv-x="1337" 
d="M474 1492q-47 0 -80.5 34t-33.5 80q0 47 33.5 80t80.5 33q48 0 81 -33t33 -80q0 -49 -33.5 -81.5t-80.5 -32.5zM868 1492q-47 0 -80.5 33.5t-33.5 80.5q0 48 33 80.5t81 32.5q47 0 80.5 -33.5t33.5 -79.5q0 -48 -33.5 -81t-80.5 -33zM1293 90l47 -3v-87h-576v87l95 3
q30 1 46.5 17.5t7.5 43.5l-94 258h-470l-87 -239q-13 -39 12 -59.5t63 -21.5l88 -2v-87h-428v87l37 7q110 50 150 155l431 1129h105l424 -1129q27 -71 58 -109.5t91 -49.5zM382 499h405l-186 512h-33z" />
    <glyph glyph-name="Aring" unicode="&#xc5;" horiz-adv-x="1337" 
d="M671 1438q-79 0 -134 55.5t-55 134.5t55 134t134 55q78 0 134 -55.5t56 -133.5t-56 -134t-134 -56zM671 1752q-51 0 -86.5 -36t-35.5 -88t35.5 -88t86.5 -36q52 0 88 36t36 88t-36 88t-88 36zM1293 90l47 -3v-87h-576v87l95 3q30 1 46.5 17.5t7.5 43.5l-94 258h-470
l-87 -239q-13 -39 12 -59.5t63 -21.5l88 -2v-87h-428v87l37 7q110 50 150 155l431 1129h105l424 -1129q27 -71 58 -109.5t91 -49.5zM382 499h405l-186 512h-33z" />
    <glyph glyph-name="AE" unicode="&#xc6;" horiz-adv-x="1957" 
d="M1775 446l86 -2l-19 -444h-1186v87h83q63 0 85.5 33t22.5 98v191h-467l-118 -239q-19 -38 8.5 -59t66.5 -22l88 -2v-87h-428v87l37 7q44 21 77 52t44 50t29 53l550 1103h1038l20 -350l-86 -1l-30 145q-27 71 -63.5 91.5t-107.5 20.5h-410v-504h249q120 0 120 82v97h88
v-460h-88v92q0 56 -30.5 75.5t-86.5 19.5h-252v-417q0 -39 3 -61.5t14 -45t35 -32.5t63 -10h307q104 0 146 27.5t62 96.5zM424 499h423l-3 759h-47z" />
    <glyph glyph-name="Ccedilla" unicode="&#xc7;" horiz-adv-x="1475" 
d="M1235 515h87v-492h-87l-38 197q-50 -92 -167.5 -166t-277.5 -80l-19 -90q109 -2 176.5 -43.5t67.5 -121.5q0 -82 -79 -143.5t-236 -61.5q-108 0 -201 24l16 87q68 -14 155 -14q108 0 161.5 29t53.5 71q0 17 -10.5 30t-34 20t-40.5 11.5t-53.5 6t-47 1.5h-44.5l36 198
q-135 15 -246.5 79t-183 160t-110.5 213t-39 240q0 133 45 258.5t126.5 226t209.5 162t281 61.5q269 0 451 -240l28 190h86l8 -484h-85q-10 53 -32.5 109.5t-62 115t-90 104.5t-121 75t-149.5 29q-92 0 -165 -37t-118.5 -97t-75.5 -143.5t-42 -170t-12 -182.5
q0 -264 108 -418t313 -154q102 0 193 48.5t162.5 150t102.5 241.5z" />
    <glyph glyph-name="Egrave" unicode="&#xc8;" horiz-adv-x="1353" 
d="M712 1438h-71l-425 317v4h304zM1172 446l86 -2l-20 -444h-1185v87h82q63 0 85.5 33t22.5 98v916q0 70 -24.5 100t-99.5 30h-66v88h1116l20 -350l-86 -1l-31 145q-26 71 -63 91.5t-108 20.5h-410v-504h249q120 0 120 82v97h89v-460h-89v92q0 56 -30.5 75.5t-86.5 19.5
h-252v-417q0 -39 3 -61.5t14 -45t35.5 -32.5t63.5 -10h306q104 0 146 27.5t63 96.5z" />
    <glyph glyph-name="Eacute" unicode="&#xc9;" horiz-adv-x="1353" 
d="M1138 1755l-425 -317h-71l192 321h304v-4zM1172 446l86 -2l-20 -444h-1185v87h82q63 0 85.5 33t22.5 98v916q0 70 -24.5 100t-99.5 30h-66v88h1116l20 -350l-86 -1l-31 145q-26 71 -63 91.5t-108 20.5h-410v-504h249q120 0 120 82v97h89v-460h-89v92q0 56 -30.5 75.5
t-86.5 19.5h-252v-417q0 -39 3 -61.5t14 -45t35.5 -32.5t63.5 -10h306q104 0 146 27.5t63 96.5z" />
    <glyph glyph-name="Ecircumflex" unicode="&#xca;" horiz-adv-x="1353" 
d="M677 1689l-285 -219h-71l233 322h245l233 -322h-71zM1172 446l86 -2l-20 -444h-1185v87h82q63 0 85.5 33t22.5 98v916q0 70 -24.5 100t-99.5 30h-66v88h1116l20 -350l-86 -1l-31 145q-26 71 -63 91.5t-108 20.5h-410v-504h249q120 0 120 82v97h89v-460h-89v92
q0 56 -30.5 75.5t-86.5 19.5h-252v-417q0 -39 3 -61.5t14 -45t35.5 -32.5t63.5 -10h306q104 0 146 27.5t63 96.5z" />
    <glyph glyph-name="Edieresis" unicode="&#xcb;" horiz-adv-x="1353" 
d="M480 1492q-47 0 -80.5 34t-33.5 80q0 47 33.5 80t80.5 33q48 0 81 -33t33 -80q0 -49 -33.5 -81.5t-80.5 -32.5zM874 1492q-47 0 -80.5 33.5t-33.5 80.5q0 48 33 80.5t81 32.5q47 0 80.5 -33.5t33.5 -79.5q0 -48 -33.5 -81t-80.5 -33zM1172 446l86 -2l-20 -444h-1185v87
h82q63 0 85.5 33t22.5 98v916q0 70 -24.5 100t-99.5 30h-66v88h1116l20 -350l-86 -1l-31 145q-26 71 -63 91.5t-108 20.5h-410v-504h249q120 0 120 82v97h89v-460h-89v92q0 56 -30.5 75.5t-86.5 19.5h-252v-417q0 -39 3 -61.5t14 -45t35.5 -32.5t63.5 -10h306
q104 0 146 27.5t63 96.5z" />
    <glyph glyph-name="Igrave" unicode="&#xcc;" horiz-adv-x="771" 
d="M350 1438l-425 317v4h304l192 -321h-71zM55 0v87h79q78 0 102.5 30.5t24.5 100.5v918q0 70 -24.5 100.5t-102.5 30.5h-79v87h661v-87h-78q-79 0 -104 -29t-25 -102v-918q0 -73 25 -102t104 -29h78v-87h-661z" />
    <glyph glyph-name="Iacute" unicode="&#xcd;" horiz-adv-x="771" 
d="M351 1438l192 321h304v-4l-425 -317h-71zM55 0v87h79q78 0 102.5 30.5t24.5 100.5v918q0 70 -24.5 100.5t-102.5 30.5h-79v87h661v-87h-78q-79 0 -104 -29t-25 -102v-918q0 -73 25 -102t104 -29h78v-87h-661z" />
    <glyph glyph-name="Icircumflex" unicode="&#xce;" horiz-adv-x="771" 
d="M30 1470l233 322h245l233 -322h-71l-284 219l-285 -219h-71zM55 0v87h79q78 0 102.5 30.5t24.5 100.5v918q0 70 -24.5 100.5t-102.5 30.5h-79v87h661v-87h-78q-79 0 -104 -29t-25 -102v-918q0 -73 25 -102t104 -29h78v-87h-661z" />
    <glyph glyph-name="Idieresis" unicode="&#xcf;" horiz-adv-x="771" 
d="M189 1492q-47 0 -80.5 34t-33.5 80q0 47 33.5 80t80.5 33q48 0 81 -33t33 -80q0 -49 -33.5 -81.5t-80.5 -32.5zM583 1492q-47 0 -80.5 33.5t-33.5 80.5q0 48 33 80.5t81 32.5q47 0 80.5 -33.5t33.5 -79.5q0 -48 -33.5 -81t-80.5 -33zM55 0v87h79q78 0 102.5 30.5
t24.5 100.5v918q0 70 -24.5 100.5t-102.5 30.5h-79v87h661v-87h-78q-79 0 -104 -29t-25 -102v-918q0 -73 25 -102t104 -29h78v-87h-661z" />
    <glyph glyph-name="Eth" unicode="&#xd0;" horiz-adv-x="1539" 
d="M628 1352q836 0 836 -680q0 -183 -58.5 -314t-170.5 -209t-261.5 -113.5t-345.5 -35.5h-573v87h95q54 0 73.5 33.5t19.5 97.5v411h-183v94h183v413q0 65 -19.5 98t-75.5 33h-93v85h573zM785 94q127 0 218.5 79.5t135 209t43.5 291.5q0 130 -28 233t-75 170t-111.5 111.5
t-134.5 63.5t-147 19h-195v-548h387v-94h-387v-385q0 -39 3 -61t15.5 -45.5t40 -33.5t73.5 -10h162z" />
    <glyph glyph-name="Ntilde" unicode="&#xd1;" horiz-adv-x="1535" 
d="M498 1440h-68q-3 126 51 198.5t155 72.5q14 0 27 -1.5t29 -6t24.5 -6.5t28 -10t23.5 -10t28 -13t25 -12q7 -4 26.5 -14.5t26.5 -13.5t21 -8.5t25.5 -7.5t25.5 -2q43 0 71.5 31t31.5 93h71q6 -119 -47 -204t-155 -85q-74 0 -189 62q-83 46 -133 46q-46 0 -70.5 -32.5
t-27.5 -76.5zM1032 1352h472v-88h-68q-60 0 -86.5 -48t-26.5 -122v-1117h-102l-879 1110v-823q0 -34 3.5 -58.5t15.5 -55t40.5 -47t71.5 -16.5h65v-87h-485v87h67q125 0 125 177v842q0 72 -33.5 115t-99.5 43h-63v88h401l776 -980v723q0 169 -125 169h-69v88z" />
    <glyph glyph-name="Ograve" unicode="&#xd2;" horiz-adv-x="1530" 
d="M729 1438l-425 317v4h304l192 -321h-71zM767 -26q-210 0 -368.5 92t-241 251.5t-82.5 363.5q0 103 27 202.5t83 189t135.5 157.5t193 108t246.5 40q141 0 258 -41t197 -110t135.5 -160.5t80.5 -190.5t25 -202q0 -136 -44 -259.5t-127.5 -223t-217.5 -158.5t-300 -59z
M760 75q198 0 302 150t104 450q0 305 -107.5 453.5t-296.5 148.5q-102 0 -180 -44.5t-125.5 -125t-71 -186.5t-23.5 -234q0 -89 11.5 -172t40.5 -164.5t72.5 -141.5t114 -97t159.5 -37z" />
    <glyph glyph-name="Oacute" unicode="&#xd3;" horiz-adv-x="1530" 
d="M730 1438l192 321h304v-4l-425 -317h-71zM767 -26q-210 0 -368.5 92t-241 251.5t-82.5 363.5q0 103 27 202.5t83 189t135.5 157.5t193 108t246.5 40q141 0 258 -41t197 -110t135.5 -160.5t80.5 -190.5t25 -202q0 -136 -44 -259.5t-127.5 -223t-217.5 -158.5t-300 -59z
M760 75q198 0 302 150t104 450q0 305 -107.5 453.5t-296.5 148.5q-102 0 -180 -44.5t-125.5 -125t-71 -186.5t-23.5 -234q0 -89 11.5 -172t40.5 -164.5t72.5 -141.5t114 -97t159.5 -37z" />
    <glyph glyph-name="Ocircumflex" unicode="&#xd4;" horiz-adv-x="1530" 
d="M409 1470l233 322h245l233 -322h-71l-284 219l-285 -219h-71zM767 -26q-210 0 -368.5 92t-241 251.5t-82.5 363.5q0 103 27 202.5t83 189t135.5 157.5t193 108t246.5 40q141 0 258 -41t197 -110t135.5 -160.5t80.5 -190.5t25 -202q0 -136 -44 -259.5t-127.5 -223
t-217.5 -158.5t-300 -59zM760 75q198 0 302 150t104 450q0 305 -107.5 453.5t-296.5 148.5q-102 0 -180 -44.5t-125.5 -125t-71 -186.5t-23.5 -234q0 -89 11.5 -172t40.5 -164.5t72.5 -141.5t114 -97t159.5 -37z" />
    <glyph glyph-name="Otilde" unicode="&#xd5;" horiz-adv-x="1530" 
d="M419 1440q-3 126 51 198.5t155 72.5q14 0 27 -1.5t29 -6t24.5 -6.5t28 -10t23.5 -10t28 -13t25 -12q7 -4 26.5 -14.5t26.5 -13.5t21 -8.5t25.5 -7.5t25.5 -2q43 0 71.5 31t31.5 93h71q6 -119 -47 -204t-155 -85q-74 0 -189 62q-83 46 -133 46q-46 0 -70.5 -32.5
t-27.5 -76.5h-68zM767 -26q-210 0 -368.5 92t-241 251.5t-82.5 363.5q0 103 27 202.5t83 189t135.5 157.5t193 108t246.5 40q141 0 258 -41t197 -110t135.5 -160.5t80.5 -190.5t25 -202q0 -136 -44 -259.5t-127.5 -223t-217.5 -158.5t-300 -59zM760 75q198 0 302 150
t104 450q0 305 -107.5 453.5t-296.5 148.5q-102 0 -180 -44.5t-125.5 -125t-71 -186.5t-23.5 -234q0 -89 11.5 -172t40.5 -164.5t72.5 -141.5t114 -97t159.5 -37z" />
    <glyph glyph-name="Odieresis" unicode="&#xd6;" horiz-adv-x="1530" 
d="M568 1492q-47 0 -80.5 34t-33.5 80q0 47 33.5 80t80.5 33q48 0 81 -33t33 -80q0 -49 -33.5 -81.5t-80.5 -32.5zM962 1492q-47 0 -80.5 33.5t-33.5 80.5q0 48 33 80.5t81 32.5q47 0 80.5 -33.5t33.5 -79.5q0 -48 -33.5 -81t-80.5 -33zM767 -26q-210 0 -368.5 92
t-241 251.5t-82.5 363.5q0 103 27 202.5t83 189t135.5 157.5t193 108t246.5 40q141 0 258 -41t197 -110t135.5 -160.5t80.5 -190.5t25 -202q0 -136 -44 -259.5t-127.5 -223t-217.5 -158.5t-300 -59zM760 75q198 0 302 150t104 450q0 305 -107.5 453.5t-296.5 148.5
q-102 0 -180 -44.5t-125.5 -125t-71 -186.5t-23.5 -234q0 -89 11.5 -172t40.5 -164.5t72.5 -141.5t114 -97t159.5 -37z" />
    <glyph glyph-name="multiply" unicode="&#xd7;" horiz-adv-x="1071" 
d="M197 216l-108 109l338 337l-338 339l108 108l339 -339l338 339l108 -108l-338 -339l338 -337l-108 -109l-338 339z" />
    <glyph glyph-name="Oslash" unicode="&#xd8;" horiz-adv-x="1530" 
d="M1266 1178q94 -99 142 -231.5t48 -272.5q0 -136 -44 -259.5t-127.5 -223t-217.5 -158.5t-300 -59q-257 0 -438 138l-117 -133l-68 57l119 135q-91 96 -139.5 226.5t-48.5 283.5q0 103 27 202.5t83 189t135.5 157.5t193 108t246.5 40q263 0 442 -141l120 136l64 -58z
M362 687q0 -196 54 -343l663 753q-104 180 -317 180q-102 0 -180 -44.5t-125.5 -125t-71 -186.5t-23.5 -234zM760 75q198 0 302 150t104 450q0 199 -48 335l-662 -753q104 -182 304 -182z" />
    <glyph glyph-name="Ugrave" unicode="&#xd9;" horiz-adv-x="1492" 
d="M708 1438l-425 317v4h304l192 -321h-71zM754 -26q-270 0 -410.5 138t-140.5 408v614q0 69 -23.5 99.5t-100.5 30.5h-61v88h647v-88h-89q-75 0 -100 -29.5t-25 -100.5v-614q0 -214 85.5 -326t278.5 -112q107 0 182.5 31.5t119 93t63 144t19.5 194.5v560q0 159 -135 159
h-59v88h463v-88h-56q-116 0 -116 -156v-566q0 -281 -133 -424.5t-409 -143.5z" />
    <glyph glyph-name="Uacute" unicode="&#xda;" horiz-adv-x="1492" 
d="M709 1438l192 321h304v-4l-425 -317h-71zM754 -26q-270 0 -410.5 138t-140.5 408v614q0 69 -23.5 99.5t-100.5 30.5h-61v88h647v-88h-89q-75 0 -100 -29.5t-25 -100.5v-614q0 -214 85.5 -326t278.5 -112q107 0 182.5 31.5t119 93t63 144t19.5 194.5v560q0 159 -135 159
h-59v88h463v-88h-56q-116 0 -116 -156v-566q0 -281 -133 -424.5t-409 -143.5z" />
    <glyph glyph-name="Ucircumflex" unicode="&#xdb;" horiz-adv-x="1492" 
d="M388 1470l233 322h245l233 -322h-71l-284 219l-285 -219h-71zM754 -26q-270 0 -410.5 138t-140.5 408v614q0 69 -23.5 99.5t-100.5 30.5h-61v88h647v-88h-89q-75 0 -100 -29.5t-25 -100.5v-614q0 -214 85.5 -326t278.5 -112q107 0 182.5 31.5t119 93t63 144t19.5 194.5
v560q0 159 -135 159h-59v88h463v-88h-56q-116 0 -116 -156v-566q0 -281 -133 -424.5t-409 -143.5z" />
    <glyph glyph-name="Udieresis" unicode="&#xdc;" horiz-adv-x="1492" 
d="M547 1492q-47 0 -80.5 34t-33.5 80q0 47 33.5 80t80.5 33q48 0 81 -33t33 -80q0 -49 -33.5 -81.5t-80.5 -32.5zM941 1492q-47 0 -80.5 33.5t-33.5 80.5q0 48 33 80.5t81 32.5q47 0 80.5 -33.5t33.5 -79.5q0 -48 -33.5 -81t-80.5 -33zM754 -26q-270 0 -410.5 138
t-140.5 408v614q0 69 -23.5 99.5t-100.5 30.5h-61v88h647v-88h-89q-75 0 -100 -29.5t-25 -100.5v-614q0 -214 85.5 -326t278.5 -112q107 0 182.5 31.5t119 93t63 144t19.5 194.5v560q0 159 -135 159h-59v88h463v-88h-56q-116 0 -116 -156v-566q0 -281 -133 -424.5
t-409 -143.5z" />
    <glyph glyph-name="Yacute" unicode="&#xdd;" horiz-adv-x="1352" 
d="M642 1438l192 321h304v-4l-425 -317h-71zM344 0v87h98q75 0 98 31t23 99v299l-364 616q-41 71 -71.5 101.5t-73.5 30.5h-58v88h598v-88h-78q-58 0 -63 -39.5t29 -90.5l293 -495l271 456q44 75 31.5 122t-82.5 47h-61v88h422v-88h-37q-36 0 -71 -34t-75 -102l-361 -597
l-1 -313q0 -70 23.5 -100.5t99.5 -30.5h96v-87h-686z" />
    <glyph glyph-name="Thorn" unicode="&#xde;" horiz-adv-x="1248" 
d="M54 0v87h60q78 0 102 30.5t24 100.5v918q0 70 -24 100.5t-102 30.5h-59v87h620v-87h-57q-130 0 -130 -83v-58h170q96 0 173.5 -10t150 -35t121.5 -65t78.5 -105t29.5 -150q0 -100 -39 -173t-111 -116t-165 -63.5t-210 -20.5h-194v-170q0 -31 3.5 -50.5t15.5 -40
t39.5 -30.5t70.5 -10h67v-87h-634zM492 482h172q279 0 279 275q0 286 -276 286h-175v-561z" />
    <glyph glyph-name="germandbls" unicode="&#xdf;" horiz-adv-x="1216" 
d="M827 -20q-48 0 -85 12.5t-58 30.5t-34.5 41.5t-18 42.5t-4.5 37q0 23 11 37t28 14q13 0 21 -9.5t9 -23.5q8 -101 91 -101q71 0 100.5 74.5t29.5 218.5q0 155 -72 238t-245 80v87q41 1 70.5 6t65 21.5t57.5 44t37 77.5t15 119q0 127 -52.5 201.5t-167.5 74.5
q-67 0 -112 -23t-68.5 -69t-32.5 -101t-9 -134l3 -791q0 -48 12.5 -73t52.5 -25h87v-87h-526v87h55q56 0 73 27t17 85l-3 671q0 60 3 107t14 103.5t30 99t53 84.5t80.5 69t116 43.5t155.5 16.5q114 0 200.5 -27.5t138 -77t76.5 -112.5t25 -140q0 -72 -27.5 -131t-71 -95.5
t-82.5 -57.5t-76 -32q164 -12 254.5 -98t90.5 -253q0 -176 -92 -282.5t-235 -106.5z" />
    <glyph glyph-name="agrave" unicode="&#xe0;" horiz-adv-x="1057" 
d="M502 1030l-425 318v4h304l192 -322h-71zM296 -20q-63 0 -108 17t-68 47t-33 62t-10 69q0 52 20 94.5t60.5 78.5t85.5 63.5t113 60.5l268 129q-2 129 -36.5 171.5t-132.5 42.5q-51 0 -87 -12.5t-56 -35.5t-29 -42t-17 -47q-16 -88 -97 -87q-44 1 -66 26t-20 61
q9 92 116 159t307 67q102 0 170 -18t107 -56t55 -90t16 -128l-1 -383q0 -68 14.5 -103t51.5 -35q61 0 69 101h69q-3 -106 -61.5 -159t-154.5 -53q-83 0 -131.5 41t-71.5 125q-166 -166 -342 -166zM398 93q57 0 116 39.5t112 111.5l-1 265l-226 -134q-104 -60 -104 -157
q0 -62 27.5 -93.5t75.5 -31.5z" />
    <glyph glyph-name="aacute" unicode="&#xe1;" horiz-adv-x="1057" 
d="M502 1030h-71l192 322h304v-4zM296 -20q-63 0 -108 17t-68 47t-33 62t-10 69q0 52 20 94.5t60.5 78.5t85.5 63.5t113 60.5l268 129q-2 129 -36.5 171.5t-132.5 42.5q-51 0 -87 -12.5t-56 -35.5t-29 -42t-17 -47q-16 -88 -97 -87q-44 1 -66 26t-20 61q9 92 116 159t307 67
q102 0 170 -18t107 -56t55 -90t16 -128l-1 -383q0 -68 14.5 -103t51.5 -35q61 0 69 101h69q-3 -106 -61.5 -159t-154.5 -53q-83 0 -131.5 41t-71.5 125q-166 -166 -342 -166zM398 93q57 0 116 39.5t112 111.5l-1 265l-226 -134q-104 -60 -104 -157q0 -62 27.5 -93.5
t75.5 -31.5z" />
    <glyph glyph-name="acircumflex" unicode="&#xe2;" horiz-adv-x="1057" 
d="M146 1030l246 322h219l246 -322h-71l-284 219l-285 -219h-71zM296 -20q-63 0 -108 17t-68 47t-33 62t-10 69q0 52 20 94.5t60.5 78.5t85.5 63.5t113 60.5l268 129q-2 129 -36.5 171.5t-132.5 42.5q-51 0 -87 -12.5t-56 -35.5t-29 -42t-17 -47q-16 -88 -97 -87
q-44 1 -66 26t-20 61q9 92 116 159t307 67q102 0 170 -18t107 -56t55 -90t16 -128l-1 -383q0 -68 14.5 -103t51.5 -35q61 0 69 101h69q-3 -106 -61.5 -159t-154.5 -53q-83 0 -131.5 41t-71.5 125q-166 -166 -342 -166zM398 93q57 0 116 39.5t112 111.5l-1 265l-226 -134
q-104 -60 -104 -157q0 -62 27.5 -93.5t75.5 -31.5z" />
    <glyph glyph-name="atilde" unicode="&#xe3;" horiz-adv-x="1057" 
d="M156 1023q-3 126 51 198.5t155 72.5q14 0 27 -1.5t29 -6t24.5 -6.5t28 -10t23.5 -10t28 -13t25 -12q7 -4 26.5 -14.5t26.5 -13.5t21 -8.5t25.5 -7.5t25.5 -2q43 0 71.5 31t31.5 93h71q6 -119 -47 -204t-155 -85q-34 0 -71.5 11t-58.5 20.5t-59 29.5q-81 47 -133 47
q-46 0 -70.5 -32.5t-27.5 -76.5h-68zM296 -20q-63 0 -108 17t-68 47t-33 62t-10 69q0 52 20 94.5t60.5 78.5t85.5 63.5t113 60.5l268 129q-2 129 -36.5 171.5t-132.5 42.5q-51 0 -87 -12.5t-56 -35.5t-29 -42t-17 -47q-16 -88 -97 -87q-44 1 -66 26t-20 61q9 92 116 159
t307 67q102 0 170 -18t107 -56t55 -90t16 -128l-1 -383q0 -68 14.5 -103t51.5 -35q61 0 69 101h69q-3 -106 -61.5 -159t-154.5 -53q-83 0 -131.5 41t-71.5 125q-166 -166 -342 -166zM398 93q57 0 116 39.5t112 111.5l-1 265l-226 -134q-104 -60 -104 -157q0 -62 27.5 -93.5
t75.5 -31.5z" />
    <glyph glyph-name="adieresis" unicode="&#xe4;" horiz-adv-x="1057" 
d="M302 1114q-47 0 -80.5 34t-33.5 79q0 47 33.5 80.5t80.5 33.5q48 0 81 -33.5t33 -80.5q0 -48 -33.5 -80.5t-80.5 -32.5zM696 1114q-47 0 -80.5 33t-33.5 80q0 48 33.5 81t80.5 33t80.5 -33.5t33.5 -80.5q0 -48 -33.5 -80.5t-80.5 -32.5zM296 -20q-63 0 -108 17t-68 47
t-33 62t-10 69q0 52 20 94.5t60.5 78.5t85.5 63.5t113 60.5l268 129q-2 129 -36.5 171.5t-132.5 42.5q-51 0 -87 -12.5t-56 -35.5t-29 -42t-17 -47q-16 -88 -97 -87q-44 1 -66 26t-20 61q9 92 116 159t307 67q102 0 170 -18t107 -56t55 -90t16 -128l-1 -383q0 -68 14.5 -103
t51.5 -35q61 0 69 101h69q-3 -106 -61.5 -159t-154.5 -53q-83 0 -131.5 41t-71.5 125q-166 -166 -342 -166zM398 93q57 0 116 39.5t112 111.5l-1 265l-226 -134q-104 -60 -104 -157q0 -62 27.5 -93.5t75.5 -31.5z" />
    <glyph glyph-name="aring" unicode="&#xe5;" horiz-adv-x="1057" 
d="M502 973q-79 0 -134.5 56t-55.5 135t55.5 134t134.5 55t135 -55t56 -134t-56 -135t-135 -56zM502 1039q52 0 88.5 36.5t36.5 88.5t-36.5 88.5t-88.5 36.5t-87.5 -36t-35.5 -89t35.5 -89t87.5 -36zM296 -20q-63 0 -108 17t-68 47t-33 62t-10 69q0 52 20 94.5t60.5 78.5
t85.5 63.5t113 60.5l268 129q-2 129 -36.5 171.5t-132.5 42.5q-51 0 -87 -12.5t-56 -35.5t-29 -42t-17 -47q-16 -88 -97 -87q-44 1 -66 26t-20 61q9 92 116 159t307 67q102 0 170 -18t107 -56t55 -90t16 -128l-1 -383q0 -68 14.5 -103t51.5 -35q61 0 69 101h69
q-3 -106 -61.5 -159t-154.5 -53q-83 0 -131.5 41t-71.5 125q-166 -166 -342 -166zM398 93q57 0 116 39.5t112 111.5l-1 265l-226 -134q-104 -60 -104 -157q0 -62 27.5 -93.5t75.5 -31.5z" />
    <glyph glyph-name="ae" unicode="&#xe6;" horiz-adv-x="1548" 
d="M1143 69q75 0 140 44.5t108 122.5l75 -44q-57 -101 -158 -161.5t-225 -60.5t-225.5 57.5t-160.5 160.5q-127 -121 -209.5 -164.5t-191.5 -43.5q-63 0 -108 17t-68 47t-33 62t-10 69q0 52 20 94.5t60.5 78.5t85.5 63.5t113 60.5l268 129q-2 129 -36.5 171.5t-132.5 42.5
q-51 0 -87 -12.5t-56 -35.5t-29 -42t-17 -47q-16 -88 -97 -87q-44 1 -66 26t-20 61q9 92 116 159t307 67q220 0 295 -93q116 93 274 93q73 0 144 -25.5t134.5 -77t103 -142.5t40.5 -209h-621q0 -49 6.5 -97t25 -101t47 -92t77.5 -65t111 -26zM1076 814q-52 0 -91 -26.5
t-61 -70.5t-33.5 -89t-14.5 -94h402q-3 39 -10.5 75.5t-23 74.5t-37.5 66t-56 46t-75 18zM402 93q51 0 110.5 38.5t113.5 112.5l-1 265l-226 -134q-104 -60 -104 -157q0 -58 28 -91.5t79 -33.5z" />
    <glyph glyph-name="ccedilla" unicode="&#xe7;" horiz-adv-x="954" 
d="M519 -30h-17l-18 -86q109 -2 176.5 -43.5t67.5 -121.5q0 -82 -79 -143.5t-236 -61.5q-108 0 -201 24l16 87q68 -14 155 -14q108 0 161.5 29t53.5 71q0 17 -10.5 30t-34 20t-40.5 11.5t-53.5 6t-47 1.5h-44.5l37 202q-158 33 -253 152t-95 291q0 140 65.5 250.5
t176.5 169.5t246 59q76 0 146 -18.5t126.5 -66.5t65.5 -119q2 -43 -21 -73.5t-65 -31.5q-26 0 -45.5 10.5t-30.5 29.5t-16.5 35t-9.5 35q-48 111 -161 111q-53 0 -95.5 -24t-68 -60t-42.5 -83.5t-23.5 -91t-6.5 -85.5q0 -195 69 -296.5t197 -101.5q55 0 101 18t77 48.5
t50.5 61t32.5 63.5l79 -37q-25 -55 -54 -96t-74 -80.5t-110 -60.5t-147 -21z" />
    <glyph glyph-name="egrave" unicode="&#xe8;" horiz-adv-x="972" 
d="M486 1030l-425 318v4h304l192 -322h-71zM507 -30q-193 0 -320.5 131t-127.5 339t127.5 336t312.5 128q74 0 145 -25.5t134.5 -77t103 -142.5t40.5 -209h-622q0 -49 6.5 -97t25 -101t47 -92t77.5 -65t111 -26q76 0 140 44t108 123l75 -44q-57 -101 -158 -161.5t-225 -60.5
zM301 534h401q-3 39 -10.5 75.5t-23 74.5t-37.5 66t-56 46t-75 18q-51 0 -90 -26.5t-61 -70.5t-33.5 -89.5t-14.5 -93.5z" />
    <glyph glyph-name="eacute" unicode="&#xe9;" horiz-adv-x="972" 
d="M486 1030h-71l192 322h304v-4zM507 -30q-193 0 -320.5 131t-127.5 339t127.5 336t312.5 128q74 0 145 -25.5t134.5 -77t103 -142.5t40.5 -209h-622q0 -49 6.5 -97t25 -101t47 -92t77.5 -65t111 -26q76 0 140 44t108 123l75 -44q-57 -101 -158 -161.5t-225 -60.5zM301 534
h401q-3 39 -10.5 75.5t-23 74.5t-37.5 66t-56 46t-75 18q-51 0 -90 -26.5t-61 -70.5t-33.5 -89.5t-14.5 -93.5z" />
    <glyph glyph-name="ecircumflex" unicode="&#xea;" horiz-adv-x="972" 
d="M130 1030l246 322h219l246 -322h-71l-284 219l-285 -219h-71zM507 -30q-193 0 -320.5 131t-127.5 339t127.5 336t312.5 128q74 0 145 -25.5t134.5 -77t103 -142.5t40.5 -209h-622q0 -49 6.5 -97t25 -101t47 -92t77.5 -65t111 -26q76 0 140 44t108 123l75 -44
q-57 -101 -158 -161.5t-225 -60.5zM301 534h401q-3 39 -10.5 75.5t-23 74.5t-37.5 66t-56 46t-75 18q-51 0 -90 -26.5t-61 -70.5t-33.5 -89.5t-14.5 -93.5z" />
    <glyph glyph-name="edieresis" unicode="&#xeb;" horiz-adv-x="972" 
d="M286 1114q-47 0 -80.5 34t-33.5 79q0 47 33.5 80.5t80.5 33.5q48 0 81 -33.5t33 -80.5q0 -48 -33.5 -80.5t-80.5 -32.5zM680 1114q-47 0 -80.5 33t-33.5 80q0 48 33.5 81t80.5 33t80.5 -33.5t33.5 -80.5q0 -48 -33.5 -80.5t-80.5 -32.5zM507 -30q-193 0 -320.5 131
t-127.5 339t127.5 336t312.5 128q74 0 145 -25.5t134.5 -77t103 -142.5t40.5 -209h-622q0 -49 6.5 -97t25 -101t47 -92t77.5 -65t111 -26q76 0 140 44t108 123l75 -44q-57 -101 -158 -161.5t-225 -60.5zM301 534h401q-3 39 -10.5 75.5t-23 74.5t-37.5 66t-56 46t-75 18
q-51 0 -90 -26.5t-61 -70.5t-33.5 -89.5t-14.5 -93.5z" />
    <glyph glyph-name="igrave" unicode="&#xec;" horiz-adv-x="633" 
d="M325 1030l-425 318v4h304l192 -322h-71zM57 0v87h67q59 0 78.5 24.5t19.5 88.5v447q0 66 -19.5 91.5t-78.5 19.5l-67 -13l-4 86l398 76v-707q0 -57 17 -85t70 -28h72v-87h-553z" />
    <glyph glyph-name="iacute" unicode="&#xed;" horiz-adv-x="633" 
d="M325 1030h-71l192 322h304v-4zM57 0v87h67q59 0 78.5 24.5t19.5 88.5v447q0 66 -19.5 91.5t-78.5 19.5l-67 -13l-4 86l398 76v-707q0 -57 17 -85t70 -28h72v-87h-553z" />
    <glyph glyph-name="icircumflex" unicode="&#xee;" horiz-adv-x="633" 
d="M-31 1030l246 322h219l246 -322h-71l-284 219l-285 -219h-71zM57 0v87h67q59 0 78.5 24.5t19.5 88.5v447q0 66 -19.5 91.5t-78.5 19.5l-67 -13l-4 86l398 76v-707q0 -57 17 -85t70 -28h72v-87h-553z" />
    <glyph glyph-name="idieresis" unicode="&#xef;" horiz-adv-x="633" 
d="M125 1114q-47 0 -80.5 34t-33.5 79q0 47 33.5 80.5t80.5 33.5q48 0 81 -33.5t33 -80.5q0 -48 -33.5 -80.5t-80.5 -32.5zM519 1114q-47 0 -80.5 33t-33.5 80q0 48 33.5 81t80.5 33t80.5 -33.5t33.5 -80.5q0 -48 -33.5 -80.5t-80.5 -32.5zM57 0v87h67q59 0 78.5 24.5
t19.5 88.5v447q0 66 -19.5 91.5t-78.5 19.5l-67 -13l-4 86l398 76v-707q0 -57 17 -85t70 -28h72v-87h-553z" />
    <glyph glyph-name="eth" unicode="&#xf0;" horiz-adv-x="1017" 
d="M946 1170l-150 -45q132 -203 132 -563q0 -123 -25.5 -223t-68.5 -167t-101 -112.5t-121.5 -65.5t-131.5 -20q-80 0 -154.5 29.5t-134.5 85t-96.5 143.5t-36.5 195q0 93 25 168t65 122.5t93 79.5t106 45.5t107 13.5q165 0 234 -133q-8 229 -61 352l-259 -78l-25 88l238 71
q-96 129 -283 125l-15 93q292 0 453 -172l186 55zM483 64q102 0 154 90.5t60 271.5q-5 77 -15 133t-31.5 105.5t-59.5 75.5t-92 26q-111 0 -158 -97t-47 -278q0 -327 189 -327z" />
    <glyph glyph-name="ntilde" unicode="&#xf1;" horiz-adv-x="1220" 
d="M264 1023q-3 126 51 198.5t155 72.5q14 0 27 -1.5t29 -6t24.5 -6.5t28 -10t23.5 -10t28 -13t25 -12q7 -4 26.5 -14.5t26.5 -13.5t21 -8.5t25.5 -7.5t25.5 -2q43 0 71.5 31t31.5 93h71q6 -119 -47 -204t-155 -85q-34 0 -71.5 11t-58.5 20.5t-59 29.5q-81 47 -133 47
q-46 0 -70.5 -32.5t-27.5 -76.5h-68zM61 0v87h59q58 0 76 27.5t18 85.5v435q0 58 -17.5 86t-71.5 23l-64 -13l-4 86l386 81v-216q64 98 148.5 160t177.5 62q136 0 211 -79.5t75 -239.5v-385q0 -113 90 -113h60v-87h-518v87h63q43 0 60.5 29.5t17.5 85.5v379q0 93 -33 143
t-109 50q-73 0 -136.5 -70.5t-106.5 -168.5v-335q0 -113 72 -113h64v-87h-518z" />
    <glyph glyph-name="ograve" unicode="&#xf2;" horiz-adv-x="1050" 
d="M526 1030l-425 318v4h304l192 -322h-71zM525 -30q-48 0 -101.5 10t-120.5 41.5t-119 80.5t-88 136.5t-36 200.5q0 97 29 177.5t76 132.5t108.5 88t124 51.5t126.5 15.5q58 0 118 -14t123.5 -48.5t112.5 -85.5t80.5 -133.5t31.5 -183.5t-30 -183t-77.5 -134t-110 -87.5
t-124.5 -50t-123 -14.5zM526 60q102 0 162.5 105t60.5 273q0 106 -22 188t-74 135t-128 53t-128 -53.5t-74 -134t-22 -180.5q0 -174 60 -280t165 -106z" />
    <glyph glyph-name="oacute" unicode="&#xf3;" horiz-adv-x="1050" 
d="M526 1030h-71l192 322h304v-4zM525 -30q-48 0 -101.5 10t-120.5 41.5t-119 80.5t-88 136.5t-36 200.5q0 97 29 177.5t76 132.5t108.5 88t124 51.5t126.5 15.5q58 0 118 -14t123.5 -48.5t112.5 -85.5t80.5 -133.5t31.5 -183.5t-30 -183t-77.5 -134t-110 -87.5t-124.5 -50
t-123 -14.5zM526 60q102 0 162.5 105t60.5 273q0 106 -22 188t-74 135t-128 53t-128 -53.5t-74 -134t-22 -180.5q0 -174 60 -280t165 -106z" />
    <glyph glyph-name="ocircumflex" unicode="&#xf4;" horiz-adv-x="1050" 
d="M170 1030l246 322h219l246 -322h-71l-284 219l-285 -219h-71zM525 -30q-48 0 -101.5 10t-120.5 41.5t-119 80.5t-88 136.5t-36 200.5q0 97 29 177.5t76 132.5t108.5 88t124 51.5t126.5 15.5q58 0 118 -14t123.5 -48.5t112.5 -85.5t80.5 -133.5t31.5 -183.5t-30 -183
t-77.5 -134t-110 -87.5t-124.5 -50t-123 -14.5zM526 60q102 0 162.5 105t60.5 273q0 106 -22 188t-74 135t-128 53t-128 -53.5t-74 -134t-22 -180.5q0 -174 60 -280t165 -106z" />
    <glyph glyph-name="otilde" unicode="&#xf5;" horiz-adv-x="1050" 
d="M180 1023q-3 126 51 198.5t155 72.5q14 0 27 -1.5t29 -6t24.5 -6.5t28 -10t23.5 -10t28 -13t25 -12q7 -4 26.5 -14.5t26.5 -13.5t21 -8.5t25.5 -7.5t25.5 -2q43 0 71.5 31t31.5 93h71q6 -119 -47 -204t-155 -85q-34 0 -71.5 11t-58.5 20.5t-59 29.5q-81 47 -133 47
q-46 0 -70.5 -32.5t-27.5 -76.5h-68zM525 -30q-48 0 -101.5 10t-120.5 41.5t-119 80.5t-88 136.5t-36 200.5q0 97 29 177.5t76 132.5t108.5 88t124 51.5t126.5 15.5q58 0 118 -14t123.5 -48.5t112.5 -85.5t80.5 -133.5t31.5 -183.5t-30 -183t-77.5 -134t-110 -87.5
t-124.5 -50t-123 -14.5zM526 60q102 0 162.5 105t60.5 273q0 106 -22 188t-74 135t-128 53t-128 -53.5t-74 -134t-22 -180.5q0 -174 60 -280t165 -106z" />
    <glyph glyph-name="odieresis" unicode="&#xf6;" horiz-adv-x="1050" 
d="M326 1114q-47 0 -80.5 34t-33.5 79q0 47 33.5 80.5t80.5 33.5q48 0 81 -33.5t33 -80.5q0 -48 -33.5 -80.5t-80.5 -32.5zM720 1114q-47 0 -80.5 33t-33.5 80q0 48 33.5 81t80.5 33t80.5 -33.5t33.5 -80.5q0 -48 -33.5 -80.5t-80.5 -32.5zM525 -30q-48 0 -101.5 10
t-120.5 41.5t-119 80.5t-88 136.5t-36 200.5q0 97 29 177.5t76 132.5t108.5 88t124 51.5t126.5 15.5q58 0 118 -14t123.5 -48.5t112.5 -85.5t80.5 -133.5t31.5 -183.5t-30 -183t-77.5 -134t-110 -87.5t-124.5 -50t-123 -14.5zM526 60q102 0 162.5 105t60.5 273
q0 106 -22 188t-74 135t-128 53t-128 -53.5t-74 -134t-22 -180.5q0 -174 60 -280t165 -106z" />
    <glyph glyph-name="divide" unicode="&#xf7;" horiz-adv-x="1253" 
d="M623 986q-46 0 -77.5 32t-31.5 78q0 45 32 77.5t77 32.5t77.5 -33t32.5 -77q0 -46 -32.5 -78t-77.5 -32zM68 600v152h1110v-152h-1110zM623 146q-46 0 -77.5 32t-31.5 78q0 45 32 77.5t77 32.5t77.5 -33t32.5 -77q0 -46 -32.5 -78t-77.5 -32z" />
    <glyph glyph-name="oslash" unicode="&#xf8;" horiz-adv-x="1050" 
d="M870 764q120 -125 120 -325q0 -101 -30 -183t-77.5 -134t-110 -87.5t-124.5 -50t-123 -14.5q-153 0 -277 81l-105 -121l-65 58l103 118q-121 123 -121 333q0 97 29 177.5t76 132.5t108.5 88t124 51.5t126.5 15.5q155 0 280 -85l107 123l64 -57zM301 446q0 -99 20 -179
l377 432q-59 115 -173 115q-76 0 -128 -53.5t-74 -134t-22 -180.5zM526 60q102 0 162.5 105t60.5 273q0 92 -18 167l-375 -430q61 -115 170 -115z" />
    <glyph glyph-name="ugrave" unicode="&#xf9;" horiz-adv-x="1190" 
d="M595 1030l-425 318v4h304l192 -322h-71zM453 -30q-136 0 -212 80t-76 239v384q0 57 -21 85t-69 28h-58v88h377v-581q0 -94 32.5 -144t109.5 -50q72 0 135 70.5t107 169.5v334q0 113 -70 113h-66v88h366v-673q0 -57 17.5 -85t71.5 -23l64 13l3 -87l-386 -45v217
q-62 -97 -147 -159t-178 -62z" />
    <glyph glyph-name="uacute" unicode="&#xfa;" horiz-adv-x="1190" 
d="M595 1030h-71l192 322h304v-4zM453 -30q-136 0 -212 80t-76 239v384q0 57 -21 85t-69 28h-58v88h377v-581q0 -94 32.5 -144t109.5 -50q72 0 135 70.5t107 169.5v334q0 113 -70 113h-66v88h366v-673q0 -57 17.5 -85t71.5 -23l64 13l3 -87l-386 -45v217q-62 -97 -147 -159
t-178 -62z" />
    <glyph glyph-name="ucircumflex" unicode="&#xfb;" horiz-adv-x="1190" 
d="M239 1030l246 322h219l246 -322h-71l-284 219l-285 -219h-71zM453 -30q-136 0 -212 80t-76 239v384q0 57 -21 85t-69 28h-58v88h377v-581q0 -94 32.5 -144t109.5 -50q72 0 135 70.5t107 169.5v334q0 113 -70 113h-66v88h366v-673q0 -57 17.5 -85t71.5 -23l64 13l3 -87
l-386 -45v217q-62 -97 -147 -159t-178 -62z" />
    <glyph glyph-name="udieresis" unicode="&#xfc;" horiz-adv-x="1190" 
d="M395 1114q-47 0 -80.5 34t-33.5 79q0 47 33.5 80.5t80.5 33.5q48 0 81 -33.5t33 -80.5q0 -48 -33.5 -80.5t-80.5 -32.5zM789 1114q-47 0 -80.5 33t-33.5 80q0 48 33.5 81t80.5 33t80.5 -33.5t33.5 -80.5q0 -48 -33.5 -80.5t-80.5 -32.5zM453 -30q-136 0 -212 80t-76 239
v384q0 57 -21 85t-69 28h-58v88h377v-581q0 -94 32.5 -144t109.5 -50q72 0 135 70.5t107 169.5v334q0 113 -70 113h-66v88h366v-673q0 -57 17.5 -85t71.5 -23l64 13l3 -87l-386 -45v217q-62 -97 -147 -159t-178 -62z" />
    <glyph glyph-name="yacute" unicode="&#xfd;" horiz-adv-x="1023" 
d="M513 1030h-71l192 322h304v-4zM218 -511q-49 -1 -78.5 26.5t-30.5 69.5q0 72 98 95q88 21 149 65t106 143l39 90l-381 704q-34 65 -52.5 84.5t-52.5 19.5h-35v88h471v-88h-52q-25 0 -38 -7.5t-13.5 -23t5.5 -32.5t18 -42l241 -472l187 432q14 36 20.5 58.5t7 44.5
t-13.5 32t-43 10h-56v88h327v-88h-22q-35 0 -60 -28.5t-60 -111.5l-365 -823q-77 -173 -145 -249.5t-171 -84.5z" />
    <glyph glyph-name="thorn" unicode="&#xfe;" horiz-adv-x="1140" 
d="M-8 -516v87h69q53 0 70 27.5t17 85.5v1441q0 60 -20 86t-85 23l-51 -11l-4 84l385 75v-623q62 67 142.5 106t165.5 39q104 0 194.5 -55.5t147.5 -162t57 -242.5q0 -105 -34.5 -195t-92 -150.5t-132 -94.5t-154.5 -34q-162 0 -290 126v-412q0 -58 19.5 -85.5t86.5 -27.5
h71v-87h-562zM592 86q67 0 117.5 36t77.5 91.5t39.5 111.5t12.5 108q0 67 -15 129.5t-43 113.5t-75 81.5t-105 30.5q-66 0 -126 -40t-98 -104v-443q44 -55 103 -85t112 -30z" />
    <glyph glyph-name="ydieresis" unicode="&#xff;" horiz-adv-x="1023" 
d="M313 1114q-47 0 -80.5 34t-33.5 79q0 47 33.5 80.5t80.5 33.5q48 0 81 -33.5t33 -80.5q0 -48 -33.5 -80.5t-80.5 -32.5zM707 1114q-47 0 -80.5 33t-33.5 80q0 48 33.5 81t80.5 33t80.5 -33.5t33.5 -80.5q0 -48 -33.5 -80.5t-80.5 -32.5zM218 -511q-49 -1 -78.5 26.5
t-30.5 69.5q0 72 98 95q88 21 149 65t106 143l39 90l-381 704q-34 65 -52.5 84.5t-52.5 19.5h-35v88h471v-88h-52q-25 0 -38 -7.5t-13.5 -23t5.5 -32.5t18 -42l241 -472l187 432q14 36 20.5 58.5t7 44.5t-13.5 32t-43 10h-56v88h327v-88h-22q-35 0 -60 -28.5t-60 -111.5
l-365 -823q-77 -173 -145 -249.5t-171 -84.5z" />
    <glyph glyph-name="dotlessi" unicode="&#x131;" horiz-adv-x="633" 
d="M57 0v87h67q59 0 78.5 24.5t19.5 88.5v447q0 66 -19.5 91.5t-78.5 19.5l-67 -13l-4 86l398 76v-707q0 -57 17 -85t70 -28h72v-87h-553z" />
    <glyph glyph-name="Lslash" unicode="&#x141;" horiz-adv-x="1292" 
d="M1161 450l83 -1l-18 -449h-1171v87h87q69 0 94.5 27t25.5 104v213l-176 -135v138l176 135v565q0 70 -24 100t-98 30h-85v88h666v-88h-84q-77 0 -102 -28.5t-25 -101.5v-375l387 297v-138l-387 -297v-384q0 -32 1.5 -50t8.5 -38.5t20.5 -30.5t38.5 -17t61 -7h232
q28 0 49.5 2t58 13t64 31t54.5 60t41 96z" />
    <glyph glyph-name="lslash" unicode="&#x142;" horiz-adv-x="584" 
d="M612 882l-203 -156v-526q0 -113 68 -113h73v-87h-526v87h66q55 0 72.5 26.5t17.5 86.5v350l-210 -162v125l210 161v457q0 60 -19 88t-74 22l-63 -13l-4 86l389 75v-539l203 156v-124z" />
    <glyph glyph-name="OE" unicode="&#x152;" horiz-adv-x="2159" 
d="M847 0q-143 0 -260.5 24t-213.5 76t-161.5 130t-101 190t-35.5 252q0 172 54 301t156 210t242 122t320 45l1127 2l20 -350l-86 -1l-31 145q-26 71 -63 91.5t-108 20.5h-356q-54 -22 -54 -122v-382h250q120 0 120 82v97h88v-460h-88v92q0 56 -31 75.5t-87 19.5h-252v-419
q0 -76 21 -111.5t95 -35.5h307q104 0 145.5 27.5t62.5 96.5l50 228l86 -2l-19 -444h-1197zM782 94h189q46 0 61.5 34t15.5 101v905q0 66 -16 98t-53 32h-166q-65 0 -127 -18t-122.5 -62t-105.5 -109.5t-73 -168.5t-28 -232q0 -121 26.5 -225t77.5 -184t133.5 -125.5
t187.5 -45.5z" />
    <glyph glyph-name="oe" unicode="&#x153;" horiz-adv-x="1682" 
d="M1277 69q76 0 140.5 44.5t107.5 122.5l75 -44q-56 -101 -157 -161.5t-226 -60.5q-102 0 -189 39t-148 111q-68 -76 -164 -113t-191 -37q-48 0 -101.5 10t-120.5 41.5t-119 80.5t-88 136.5t-36 200.5q0 97 29 177.5t76 132.5t108.5 88t124 51.5t126.5 15.5
q91 0 187.5 -36.5t165.5 -111.5q61 71 147.5 109.5t184.5 38.5q74 0 145 -25.5t134.5 -77t103 -142.5t40.5 -209h-622q0 -49 6.5 -97t25 -100.5t47.5 -92t77.5 -65.5t110.5 -26zM526 60q102 0 162.5 105t60.5 273q0 106 -22 188t-74 135t-128 53t-128 -53.5t-74 -134
t-22 -180.5q0 -174 60 -280t165 -106zM1211 814q-52 0 -91 -26.5t-61 -70.5t-33.5 -89.5t-14.5 -93.5h401q-3 49 -15 95t-34.5 89.5t-61.5 69.5t-90 26z" />
    <glyph glyph-name="Scaron" unicode="&#x160;" horiz-adv-x="1133" 
d="M465 1456l-247 322h71l285 -219l285 219h71l-247 -322h-218zM632 -26q-115 0 -219 50.5t-170 151.5l-22 -154h-93v465h93q9 -79 36.5 -150.5t74 -131t118 -95t158.5 -35.5q97 0 165 62.5t68 161.5q0 87 -60 145t-186 109q-203 92 -273 137q-129 82 -166 191
q-18 55 -18 123q0 160 116 267t272 107q86 0 170.5 -40.5t143.5 -116.5l23 133h89v-398h-89q-23 154 -116 241t-203 87q-104 0 -159 -59t-55 -132q0 -100 64.5 -150t251.5 -130q15 -7 23 -10q57 -24 99.5 -45t89.5 -49.5t79 -60.5t59.5 -71.5t41 -90t13.5 -108.5
q0 -96 -38.5 -175t-100.5 -127.5t-134.5 -75t-145.5 -26.5z" />
    <glyph glyph-name="scaron" unicode="&#x161;" horiz-adv-x="982" 
d="M601 1030h-218l-247 322h71l285 -219l285 219h71zM513 562q46 -8 78.5 -14t77 -18.5t75 -26t64 -36t53.5 -49t33 -64.5t13 -83q0 -97 -55 -166.5t-141 -102t-191 -32.5q-91 0 -166 23.5t-121 58.5l-46 -82h-69l-4 280h78q126 -191 333 -191q93 0 155 40t62 108
q0 28 -13 49t-31 34t-53 24t-62 16t-76 13q-53 9 -85.5 15.5t-80.5 19t-78.5 26t-65 35.5t-54 47.5t-32.5 62t-13 80.5q0 127 95 201t264 74q166 0 277 -80l38 80h64l6 -264h-65q-45 82 -126 128.5t-195 46.5q-90 0 -145 -30t-55 -91q0 -22 7 -38.5t24.5 -29.5t35 -21.5
t52.5 -16.5t61.5 -13t76.5 -13z" />
    <glyph glyph-name="Wcircumflex" unicode="&#x174;" horiz-adv-x="1926" 
d="M962 1689l-285 -219h-71l233 322h245l233 -322h-71zM1501 1352h424v-88h-39q-54 0 -84 -50t-61 -166l-290 -1074h-138l-353 1062l-311 -1062h-142l-338 1141q-26 89 -51 119t-77 30h-41v88h576v-88h-97q-60 0 -73 -38t11 -106l242 -819l304 1058h133l350 -1051l195 738
q10 40 15 67t6 58t-6.5 49.5t-27.5 31t-52 12.5h-75v88z" />
    <glyph glyph-name="wcircumflex" unicode="&#x175;" horiz-adv-x="1583" 
d="M792 1249l-285 -219h-71l246 322h219l246 -322h-71zM1251 874h348v-88h-40q-37 0 -59 -27.5t-42 -82.5l-263 -695h-141l-256 669l-253 -669h-143l-261 696q-24 63 -45.5 86t-58.5 23h-53v88h505v-88h-63q-53 0 -64.5 -23t10.5 -79l172 -473l258 671h134l258 -673l158 438
q30 73 21 106t-76 33h-46v88z" />
    <glyph glyph-name="Ycircumflex" unicode="&#x176;" horiz-adv-x="1352" 
d="M321 1470l233 322h245l233 -322h-71l-284 219l-285 -219h-71zM344 0v87h98q75 0 98 31t23 99v299l-364 616q-41 71 -71.5 101.5t-73.5 30.5h-58v88h598v-88h-78q-58 0 -63 -39.5t29 -90.5l293 -495l271 456q44 75 31.5 122t-82.5 47h-61v88h422v-88h-37q-36 0 -71 -34
t-75 -102l-361 -597l-1 -313q0 -70 23.5 -100.5t99.5 -30.5h96v-87h-686z" />
    <glyph glyph-name="ycircumflex" unicode="&#x177;" horiz-adv-x="1023" 
d="M157 1030l246 322h219l246 -322h-71l-284 219l-285 -219h-71zM218 -511q-49 -1 -78.5 26.5t-30.5 69.5q0 72 98 95q88 21 149 65t106 143l39 90l-381 704q-34 65 -52.5 84.5t-52.5 19.5h-35v88h471v-88h-52q-25 0 -38 -7.5t-13.5 -23t5.5 -32.5t18 -42l241 -472l187 432
q14 36 20.5 58.5t7 44.5t-13.5 32t-43 10h-56v88h327v-88h-22q-35 0 -60 -28.5t-60 -111.5l-365 -823q-77 -173 -145 -249.5t-171 -84.5z" />
    <glyph glyph-name="Ydieresis" unicode="&#x178;" horiz-adv-x="1352" 
d="M480 1492q-47 0 -80.5 34t-33.5 80q0 47 33.5 80t80.5 33q48 0 81 -33t33 -80q0 -49 -33.5 -81.5t-80.5 -32.5zM874 1492q-47 0 -80.5 33.5t-33.5 80.5q0 48 33 80.5t81 32.5q47 0 80.5 -33.5t33.5 -79.5q0 -48 -33.5 -81t-80.5 -33zM344 0v87h98q75 0 98 31t23 99v299
l-364 616q-41 71 -71.5 101.5t-73.5 30.5h-58v88h598v-88h-78q-58 0 -63 -39.5t29 -90.5l293 -495l271 456q44 75 31.5 122t-82.5 47h-61v88h422v-88h-37q-36 0 -71 -34t-75 -102l-361 -597l-1 -313q0 -70 23.5 -100.5t99.5 -30.5h96v-87h-686z" />
    <glyph glyph-name="Zcaron" unicode="&#x17d;" horiz-adv-x="1340" 
d="M774 1456h-218l-247 322h71l285 -219l285 219h71zM1178 419l87 -2l-30 -417h-1165v91l847 1173h-445q-49 0 -82 -2.5t-66 -11t-54.5 -23.5t-39.5 -41.5t-28 -63.5l-22 -125l-86 1l28 360h1098v-90l-856 -1174h526q49 0 80.5 4.5t67.5 19t62.5 47t45.5 84.5z" />
    <glyph glyph-name="zcaron" unicode="&#x17e;" horiz-adv-x="982" 
d="M601 1030h-218l-247 322h71l285 -219l285 219h71zM817 292l83 -1l-26 -291h-808v87l540 699h-310q-37 0 -56 -16.5t-39 -77.5l-22 -90l-85 3l25 269h770v-93l-541 -694h320q42 0 70 18.5t53 82.5z" />
    <glyph glyph-name="florin" unicode="&#x192;" horiz-adv-x="1085" 
d="M191 -454q-68 0 -107 33t-41 82q-2 35 19 61.5t56 25.5q23 -1 45 -20t23 -52q1 -10 1 -24.5t0.5 -20t2.5 -13.5t6.5 -10.5t12 -4.5t19.5 -2q19 0 33.5 7.5t23.5 23.5t15 33t9 44t5 49.5t4.5 55.5t4.5 55q2 30 6 61t11.5 72t13 69.5t17.5 89.5t19 95l105 524h-169l17 94
h68q75 0 111.5 41.5t71.5 149.5q45 149 111.5 229t171.5 80q59 0 103 -28.5t49 -85.5q4 -41 -17 -69.5t-57 -28.5q-31 0 -47.5 23.5t-21.5 48.5q-1 14 1.5 34t4 31.5t-5.5 20.5t-27 9q-38 0 -69.5 -31t-39.5 -94q-6 -24 -9.5 -62.5t-6.5 -86t-4 -63.5q-3 -55 -15 -118h198
l-17 -94h-200l-99 -503q-86 -428 -173 -566q-24 -61 -86 -113t-147 -52z" />
    <glyph glyph-name="oslashacute" unicode="&#x1ff;" horiz-adv-x="1050" 
d="M951 1348l-425 -318h-71l192 322h304v-4zM870 764q120 -125 120 -325q0 -101 -30 -183t-77.5 -134t-110 -87.5t-124.5 -50t-123 -14.5q-153 0 -277 81l-105 -121l-65 58l103 118q-121 123 -121 333q0 97 29 177.5t76 132.5t108.5 88t124 51.5t126.5 15.5q155 0 280 -85
l107 123l64 -57zM301 446q0 -99 20 -179l377 432q-59 115 -173 115q-76 0 -128 -53.5t-74 -134t-22 -180.5zM526 60q102 0 162.5 105t60.5 273q0 92 -18 167l-375 -430q61 -115 170 -115z" />
    <glyph glyph-name="uni0237" unicode="&#x237;" horiz-adv-x="564" 
d="M12 -531q-108 0 -180 49t-79 139q-1 39 25 66t63 28q32 1 55.5 -18.5t32.5 -55.5q26 -117 122 -117q52 0 83.5 39t42.5 98t11 145v804q0 61 -21 89t-88 21l-63 -13l-3 86l404 78v-957q0 -250 -90.5 -365.5t-314.5 -115.5z" />
    <glyph glyph-name="circumflex" unicode="&#x2c6;" horiz-adv-x="811" 
d="M50 1030l246 322h219l246 -322h-71l-284 219l-285 -219h-71z" />
    <glyph glyph-name="caron" unicode="&#x2c7;" horiz-adv-x="814" 
d="M298 1030l-247 322h71l285 -219l285 219h71l-247 -322h-218z" />
    <glyph glyph-name="breve" unicode="&#x2d8;" horiz-adv-x="884" 
d="M371 989q-67 0 -123.5 27t-92.5 70.5t-58 94t-27 102.5h61q28 -84 93 -123t150 -39q50 0 90.5 13.5t63.5 30t42 43t25.5 41t13.5 34.5h58q-2 -39 -14 -79t-36.5 -79t-57.5 -69t-82 -48.5t-106 -18.5z" />
    <glyph glyph-name="dotaccent" unicode="&#x2d9;" horiz-adv-x="429" 
d="M213 1063q-47 0 -80.5 34t-33.5 80q0 47 33.5 80.5t80.5 33.5q48 0 81.5 -33.5t33.5 -80.5q0 -48 -34 -81t-81 -33z" />
    <glyph glyph-name="ring" unicode="&#x2da;" horiz-adv-x="509" 
d="M254 981q-82 0 -139.5 57.5t-57.5 139.5q0 81 57.5 137.5t139.5 56.5q81 0 139 -56.5t58 -137.5q0 -82 -58 -139.5t-139 -57.5zM254 1059q49 0 84 35t35 84t-35 83.5t-84 34.5t-83 -34.5t-34 -83.5q0 -50 34 -84.5t83 -34.5z" />
    <glyph glyph-name="ogonek" unicode="&#x2db;" horiz-adv-x="759" 
d="M323 -371q-109 0 -172 63t-63 149q0 55 23 96.5t64 82.5l30 -20q-33 -52 -33 -106q0 -80 61.5 -137t148.5 -57q64 0 133 37l21 -31q-111 -77 -213 -77z" />
    <glyph glyph-name="tilde" unicode="&#x2dc;" horiz-adv-x="878" 
d="M92 1023q-3 126 51 198.5t155 72.5q14 0 27 -1.5t29 -6t24.5 -6.5t28 -10t23.5 -10t28 -13t25 -12q7 -4 26.5 -14.5t26.5 -13.5t21 -8.5t25.5 -7.5t25.5 -2q43 0 71.5 31t31.5 93h71q6 -119 -47 -204t-155 -85q-34 0 -71.5 11t-58.5 20.5t-59 29.5q-81 47 -133 47
q-46 0 -70.5 -32.5t-27.5 -76.5h-68z" />
    <glyph glyph-name="hungarumlaut" unicode="&#x2dd;" horiz-adv-x="981" 
d="M50 1030l192 322h304v-4l-425 -318h-71zM478 1030l192 322h304v-4l-425 -318h-71z" />
    <glyph glyph-name="gravecomb" unicode="&#x300;" 
d="M-121 1030l-425 318v4h304l192 -322h-71z" />
    <glyph glyph-name="acutecomb" unicode="&#x301;" 
d="M-419 1030h-71l192 322h304v-4z" />
    <glyph glyph-name="uni0302" unicode="&#x302;" 
d="M-761 1030l246 322h219l246 -322h-71l-284 219l-285 -219h-71z" />
    <glyph glyph-name="tildecomb" unicode="&#x303;" 
d="M-786 1023q-3 126 51 198.5t155 72.5q14 0 27 -1.5t29 -6t24.5 -6.5t28 -10t23.5 -10t28 -13t25 -12q7 -4 26.5 -14.5t26.5 -13.5t21 -8.5t25.5 -7.5t25.5 -2q43 0 71.5 31t31.5 93h71q6 -119 -47 -204t-155 -85q-34 0 -71.5 11t-58.5 20.5t-59 29.5q-81 47 -133 47
q-46 0 -70.5 -32.5t-27.5 -76.5h-68z" />
    <glyph glyph-name="uni0304" unicode="&#x304;" 
d="M-859 1082v164h725v-164h-725z" />
    <glyph glyph-name="uni0306" unicode="&#x306;" 
d="M-368 989q-67 0 -123.5 27t-92.5 70.5t-58 94t-27 102.5h61q28 -84 93 -123t150 -39q50 0 90.5 13.5t63.5 30t42 43t25.5 41t13.5 34.5h58q-2 -39 -14 -79t-36.5 -79t-57.5 -69t-82 -48.5t-106 -18.5z" />
    <glyph glyph-name="uni0307" unicode="&#x307;" 
d="M-216 1063q-47 0 -80.5 34t-33.5 80q0 47 33.5 80.5t80.5 33.5q48 0 81.5 -33.5t33.5 -80.5q0 -48 -34 -81t-81 -33z" />
    <glyph glyph-name="uni0308" unicode="&#x308;" 
d="M-608 1114q-47 0 -80.5 34t-33.5 79q0 47 33.5 80.5t80.5 33.5q48 0 81 -33.5t33 -80.5q0 -48 -33.5 -80.5t-80.5 -32.5zM-214 1114q-47 0 -80.5 33t-33.5 80q0 48 33.5 81t80.5 33t80.5 -33.5t33.5 -80.5q0 -48 -33.5 -80.5t-80.5 -32.5z" />
    <glyph glyph-name="uni030A" unicode="&#x30a;" 
d="M-277 973q-79 0 -134.5 56t-55.5 135t55.5 134t134.5 55t135 -55t56 -134t-56 -135t-135 -56zM-277 1039q53 0 89 36.5t36 88.5t-36 88.5t-89 36.5q-52 0 -87.5 -36t-35.5 -89t35.5 -89t87.5 -36z" />
    <glyph glyph-name="uni030B" unicode="&#x30b;" 
d="M-930 1030l192 322h304v-4l-425 -318h-71zM-502 1030l192 322h304v-4l-425 -318h-71z" />
    <glyph glyph-name="uni030C" unicode="&#x30c;" 
d="M-516 1030l-247 322h71l285 -219l285 219h71l-247 -322h-218z" />
    <glyph glyph-name="uni0327" unicode="&#x327;" 
d="M-361 -486q-108 0 -201 24l16 87q68 -14 155 -14q108 0 161.5 29t53.5 71q0 17 -10.5 30t-34 20t-40.5 11.5t-53.5 6t-47 1.5h-44.5l46 250l99 -7l-29 -139q109 -2 176.5 -43.5t67.5 -121.5q0 -82 -79 -143.5t-236 -61.5z" />
    <glyph glyph-name="uni0328" unicode="&#x328;" 
d="M-233 -371q-109 0 -172 63t-63 149q0 55 23 96.5t64 82.5l30 -20q-33 -52 -33 -106q0 -80 61.5 -137t148.5 -57q64 0 133 37l21 -31q-111 -77 -213 -77z" />
    <glyph glyph-name="uni0337" unicode="&#x337;" 
d="M-647 390v125l642 493v-124z" />
    <glyph glyph-name="uni0338" unicode="&#x338;" 
d="M-798 -59l-65 58l833 954l64 -57z" />
    <glyph glyph-name="uni0394" unicode="&#x394;" horiz-adv-x="1004" 
d="M616 1443l310 -1443h-847l312 1443h225zM445 1206l-248 -1119h485z" />
    <glyph glyph-name="uni03A9" unicode="&#x3a9;" horiz-adv-x="1454" 
d="M145 0v344h65v-77q0 -121 117 -121h243v122q-84 35 -151.5 84.5t-123.5 119.5t-86.5 166.5t-30.5 212.5q0 259 144.5 417.5t403.5 158.5q130 0 236 -45.5t174.5 -124t105.5 -182.5t37 -222q0 -201 -105 -356t-284 -221v-130h239q118 0 118 118v80h64v-344h-515v339
q113 66 168 206.5t55 303.5q0 504 -293 504q-148 0 -224 -132t-76 -369q0 -191 61 -329.5t177 -191.5v-331h-519z" />
    <glyph glyph-name="Wgrave" unicode="&#x1e80;" horiz-adv-x="1926" 
d="M997 1438h-71l-425 317v4h304zM1501 1352h424v-88h-39q-54 0 -84 -50t-61 -166l-290 -1074h-138l-353 1062l-311 -1062h-142l-338 1141q-26 89 -51 119t-77 30h-41v88h576v-88h-97q-60 0 -73 -38t11 -106l242 -819l304 1058h133l350 -1051l195 738q10 40 15 67t6 58
t-6.5 49.5t-27.5 31t-52 12.5h-75v88z" />
    <glyph glyph-name="wgrave" unicode="&#x1e81;" horiz-adv-x="1583" 
d="M863 1030h-71l-425 318v4h304zM1251 874h348v-88h-40q-37 0 -59 -27.5t-42 -82.5l-263 -695h-141l-256 669l-253 -669h-143l-261 696q-24 63 -45.5 86t-58.5 23h-53v88h505v-88h-63q-53 0 -64.5 -23t10.5 -79l172 -473l258 671h134l258 -673l158 438q30 73 21 106t-76 33
h-46v88z" />
    <glyph glyph-name="Wacute" unicode="&#x1e82;" horiz-adv-x="1926" 
d="M1423 1755l-425 -317h-71l192 321h304v-4zM1501 1352h424v-88h-39q-54 0 -84 -50t-61 -166l-290 -1074h-138l-353 1062l-311 -1062h-142l-338 1141q-26 89 -51 119t-77 30h-41v88h576v-88h-97q-60 0 -73 -38t11 -106l242 -819l304 1058h133l350 -1051l195 738
q10 40 15 67t6 58t-6.5 49.5t-27.5 31t-52 12.5h-75v88z" />
    <glyph glyph-name="wacute" unicode="&#x1e83;" horiz-adv-x="1583" 
d="M1217 1348l-425 -318h-71l192 322h304v-4zM1251 874h348v-88h-40q-37 0 -59 -27.5t-42 -82.5l-263 -695h-141l-256 669l-253 -669h-143l-261 696q-24 63 -45.5 86t-58.5 23h-53v88h505v-88h-63q-53 0 -64.5 -23t10.5 -79l172 -473l258 671h134l258 -673l158 438
q30 73 21 106t-76 33h-46v88z" />
    <glyph glyph-name="Wdieresis" unicode="&#x1e84;" horiz-adv-x="1926" 
d="M765 1492q-47 0 -80.5 34t-33.5 80q0 47 33.5 80t80.5 33q48 0 81 -33t33 -80q0 -49 -33.5 -81.5t-80.5 -32.5zM1159 1492q-47 0 -80.5 33.5t-33.5 80.5q0 48 33 80.5t81 32.5q47 0 80.5 -33.5t33.5 -79.5q0 -48 -33.5 -81t-80.5 -33zM1501 1352h424v-88h-39
q-54 0 -84 -50t-61 -166l-290 -1074h-138l-353 1062l-311 -1062h-142l-338 1141q-26 89 -51 119t-77 30h-41v88h576v-88h-97q-60 0 -73 -38t11 -106l242 -819l304 1058h133l350 -1051l195 738q10 40 15 67t6 58t-6.5 49.5t-27.5 31t-52 12.5h-75v88z" />
    <glyph glyph-name="wdieresis" unicode="&#x1e85;" horiz-adv-x="1583" 
d="M592 1114q-47 0 -80.5 34t-33.5 79q0 47 33.5 80.5t80.5 33.5q48 0 81 -33.5t33 -80.5q0 -48 -33.5 -80.5t-80.5 -32.5zM986 1114q-47 0 -80.5 33t-33.5 80q0 48 33.5 81t80.5 33t80.5 -33.5t33.5 -80.5q0 -48 -33.5 -80.5t-80.5 -32.5zM1251 874h348v-88h-40
q-37 0 -59 -27.5t-42 -82.5l-263 -695h-141l-256 669l-253 -669h-143l-261 696q-24 63 -45.5 86t-58.5 23h-53v88h505v-88h-63q-53 0 -64.5 -23t10.5 -79l172 -473l258 671h134l258 -673l158 438q30 73 21 106t-76 33h-46v88z" />
    <glyph glyph-name="Ygrave" unicode="&#x1ef2;" horiz-adv-x="1352" 
d="M641 1438l-425 317v4h304l192 -321h-71zM344 0v87h98q75 0 98 31t23 99v299l-364 616q-41 71 -71.5 101.5t-73.5 30.5h-58v88h598v-88h-78q-58 0 -63 -39.5t29 -90.5l293 -495l271 456q44 75 31.5 122t-82.5 47h-61v88h422v-88h-37q-36 0 -71 -34t-75 -102l-361 -597
l-1 -313q0 -70 23.5 -100.5t99.5 -30.5h96v-87h-686z" />
    <glyph glyph-name="ygrave" unicode="&#x1ef3;" horiz-adv-x="1023" 
d="M513 1030l-425 318v4h304l192 -322h-71zM218 -511q-49 -1 -78.5 26.5t-30.5 69.5q0 72 98 95q88 21 149 65t106 143l39 90l-381 704q-34 65 -52.5 84.5t-52.5 19.5h-35v88h471v-88h-52q-25 0 -38 -7.5t-13.5 -23t5.5 -32.5t18 -42l241 -472l187 432q14 36 20.5 58.5
t7 44.5t-13.5 32t-43 10h-56v88h327v-88h-22q-35 0 -60 -28.5t-60 -111.5l-365 -823q-77 -173 -145 -249.5t-171 -84.5z" />
    <glyph glyph-name="endash" unicode="&#x2013;" horiz-adv-x="1315" 
d="M133 339v136h1049v-136h-1049z" />
    <glyph glyph-name="emdash" unicode="&#x2014;" horiz-adv-x="2314" 
d="M133 339v136h2048v-136h-2048z" />
    <glyph glyph-name="quoteleft" unicode="&#x2018;" horiz-adv-x="566" 
d="M289 753q-87 0 -137.5 66t-50.5 176q0 71 20.5 131.5t54 103.5t78.5 75.5t92 50.5t95 24l5 -91q-110 -18 -170.5 -83.5t-60.5 -129.5q0 -21 10 -33.5t25 -10.5q7 1 28 6t35 5q48 0 88.5 -38t40.5 -101q0 -59 -40 -105t-113 -46z" />
    <glyph glyph-name="quoteright" unicode="&#x2019;" horiz-adv-x="568" 
d="M126 753l-5 91q111 18 171 83.5t60 129.5q0 21 -10 33.5t-25 10.5q-8 -1 -28.5 -6t-33.5 -5q-48 0 -89 38t-41 101q0 59 40 105t113 46q87 0 137.5 -66t50.5 -176q0 -71 -20.5 -131.5t-54 -103.5t-78.5 -75.5t-92 -50.5t-95 -24z" />
    <glyph glyph-name="quotesinglbase" unicode="&#x201a;" horiz-adv-x="568" 
d="M126 -373l-5 92q111 18 171 83.5t60 129.5q0 21 -10 33t-25 10q-10 0 -31.5 -5t-30.5 -5q-48 0 -89 38t-41 101q0 59 40 105t113 46q87 0 137.5 -66.5t50.5 -176.5q0 -70 -20.5 -131t-54 -104t-78.5 -75.5t-92 -50.5t-95 -24z" />
    <glyph glyph-name="quotedblleft" unicode="&#x201c;" horiz-adv-x="1036" 
d="M287 753q-86 0 -136 66t-50 176q0 71 20 131.5t53.5 103.5t77 75.5t90 50.5t93.5 24l4 -91q-108 -18 -166.5 -83.5t-58.5 -129.5q0 -21 10 -33.5t25 -10.5q7 1 27 6t34 5q47 0 87 -38t40 -101q0 -59 -39.5 -105t-110.5 -46zM761 753q-86 0 -136 66t-50 176
q0 87 30.5 159.5t80.5 118t107 72.5t116 35l6 -91q-109 -18 -168 -83.5t-59 -129.5q0 -21 10 -33.5t25 -10.5q7 1 27 6t34 5q47 0 87.5 -38t40.5 -101q0 -59 -40 -105t-111 -46z" />
    <glyph glyph-name="quotedblright" unicode="&#x201d;" horiz-adv-x="1038" 
d="M126 753l-5 91q108 18 167 83.5t59 129.5q0 22 -9.5 34t-24.5 10q-7 -1 -28 -6t-34 -5q-47 0 -87 38t-40 101q0 59 39 105t111 46q86 0 135.5 -65.5t49.5 -176.5q0 -87 -30 -159.5t-80 -118t-106.5 -72.5t-116.5 -35zM600 753l-5 91q109 18 168 83.5t59 129.5
q0 21 -10 33.5t-25 10.5q-7 -1 -27 -6t-34 -5q-47 0 -87.5 38t-40.5 101q0 59 40 105t111 46q86 0 136 -66t50 -176q0 -87 -30.5 -159.5t-80.5 -118t-107 -72.5t-117 -35z" />
    <glyph glyph-name="quotedblbase" unicode="&#x201e;" horiz-adv-x="1051" 
d="M126 -373l-5 92q111 18 171 83.5t60 129.5q0 21 -10 33t-25 10q-10 0 -31.5 -5t-30.5 -5q-48 0 -89 38t-41 101q0 59 40 105t113 46q87 0 137.5 -66.5t50.5 -176.5q0 -70 -20.5 -131t-54 -104t-78.5 -75.5t-92 -50.5t-95 -24zM610 -373l-5 92q110 18 170.5 83.5
t60.5 129.5q0 21 -10 33t-26 10q-9 0 -31 -5t-31 -5q-48 0 -88.5 38t-40.5 101q0 59 40 105t112 46q88 0 138.5 -66t50.5 -177q0 -70 -20.5 -131t-54 -104t-78.5 -75.5t-92 -50.5t-95 -24z" />
    <glyph glyph-name="dagger" unicode="&#x2020;" horiz-adv-x="949" 
d="M428 -345v145q0 116 -9 285t-19.5 306t-10.5 148q-6 156 38 230q-25 -3 -121 -35.5t-146 -32.5q-15 0 -30.5 3t-38.5 13.5t-38 36.5t-15 65q0 36 12 61.5t30.5 38t36 17.5t35.5 5q52 0 147.5 -36t127.5 -41q-2 5 -16.5 45t-21 61.5t-17 59.5t-15 72t-4.5 67
q0 48 13.5 81.5t35 47.5t38.5 19.5t34 5.5q47 0 84.5 -35t37.5 -109q0 -23 -4 -52t-8 -50.5t-14.5 -58.5t-15 -51.5t-17.5 -55.5t-15 -47q38 10 91 30t95.5 31.5t84.5 11.5q58 0 88 -35t30 -83q0 -49 -29.5 -84.5t-88.5 -35.5q-51 0 -149.5 34t-112.5 36q23 -40 28.5 -95
t2.5 -137q-1 -17 -21 -279t-20 -461v-142h-93z" />
    <glyph glyph-name="daggerdbl" unicode="&#x2021;" horiz-adv-x="1010" 
d="M824 18q59 0 88.5 -35t29.5 -85q0 -48 -30 -83t-88 -35q-56 0 -151.5 34t-119.5 40q58 -180 69 -257q4 -33 4 -59q0 -73 -37 -108t-84 -35q-17 0 -34.5 5t-38.5 19.5t-34.5 48t-13.5 81.5q0 27 4.5 58.5t8.5 53t15 57.5t14.5 47.5t17.5 48.5l13 38l2 3
q-31 -5 -127.5 -41.5t-148.5 -36.5q-18 0 -35.5 5t-36.5 17t-31 37.5t-12 61.5q0 39 15 65.5t38.5 36.5t39.5 13.5t30 3.5q49 0 144 -31.5t118 -35.5q-41 94 -33 229q4 24 4 179.5t-4 180.5q-7 134 33 229q-23 -4 -118 -35.5t-144 -31.5q-15 0 -30.5 3t-39 13.5t-38.5 36.5
t-15 65q0 67 36.5 94.5t78.5 27.5q52 0 148.5 -36.5t127.5 -41.5l-2 3q-1 2 -13.5 37.5t-17 48.5t-15 48t-15 57t-8.5 53.5t-4 58.5q0 48 13.5 81.5t34.5 47.5t38.5 19.5t34.5 5.5q47 0 84 -35t37 -109q0 -44 -14 -109t-24.5 -99.5t-34.5 -106.5q38 10 91 30t95.5 31.5
t84.5 11.5q58 0 88 -35t30 -83q0 -49 -29.5 -84.5t-88.5 -35.5q-51 0 -149.5 34t-112.5 36q37 -68 30 -232q-4 -61 -4 -180.5t4 -175.5q7 -163 -30 -233q14 2 112.5 36t149.5 34z" />
    <glyph glyph-name="bullet" unicode="&#x2022;" horiz-adv-x="793" 
d="M397 407q-110 0 -188.5 78.5t-78.5 188.5q0 112 78.5 188.5t188.5 76.5q108 0 186 -76.5t78 -188.5q0 -110 -77.5 -188.5t-186.5 -78.5z" />
    <glyph glyph-name="twodotenleader" unicode="&#x2025;" horiz-adv-x="1233" 
d="M300 -35q-61 0 -104.5 43.5t-43.5 104.5t43.5 104t104.5 43q60 0 103.5 -43t43.5 -104t-43.5 -104.5t-103.5 -43.5zM931 -35q-61 0 -104 43t-43 105q0 61 43 104t104 43t104.5 -43t43.5 -104t-43.5 -104.5t-104.5 -43.5z" />
    <glyph glyph-name="ellipsis" unicode="&#x2026;" horiz-adv-x="1865" 
d="M300 -35q-61 0 -104.5 43.5t-43.5 104.5t43.5 104t104.5 43q60 0 103.5 -43t43.5 -104t-43.5 -104.5t-103.5 -43.5zM931 -35q-61 0 -104 43t-43 105q0 61 43 104t104 43t104.5 -43t43.5 -104t-43.5 -104.5t-104.5 -43.5zM1564 -35q-62 0 -105.5 43.5t-43.5 104.5
t43.5 104t105.5 43q61 0 104 -43t43 -104t-43 -104.5t-104 -43.5z" />
    <glyph glyph-name="perthousand" unicode="&#x2030;" horiz-adv-x="2463" 
d="M379 670q-70 0 -125.5 25t-87.5 63t-53 87t-28.5 91t-7.5 82q0 167 79.5 263.5t219.5 96.5q55 0 100.5 -14t76.5 -36.5t54.5 -54t37.5 -63.5t22.5 -68t11.5 -64.5t3 -55.5q0 -59 -15.5 -117t-49 -112.5t-95 -88.5t-143.5 -34zM479 0l692 1352h113l-694 -1352h-111z
M382 730q116 0 116 266q0 98 -8.5 163.5t-26 99t-38 46.5t-49.5 13q-62 0 -88.5 -69t-26.5 -223q0 -63 4.5 -109.5t16 -92t37 -70t63.5 -24.5zM1356 -26q-59 0 -107.5 17t-80 47t-55 65.5t-35.5 76t-17.5 75t-5.5 67.5q0 167 79 263t219 96q76 0 133.5 -26.5t89.5 -65
t51.5 -90t25.5 -92.5t6 -81q0 -47 -9 -93t-31.5 -93.5t-56 -83.5t-87 -59t-119.5 -23zM2083 -26q-70 0 -125.5 25t-87.5 62.5t-53 86.5t-28.5 91.5t-7.5 82.5q0 166 79.5 262.5t219.5 96.5q75 0 133 -26.5t89.5 -65t51.5 -90t26 -92.5t6 -81q0 -47 -9 -93t-31.5 -93.5
t-56 -83.5t-87 -59t-119.5 -23zM1359 34q116 0 116 266q0 129 -16.5 202t-41.5 96t-64 23q-62 0 -88 -68.5t-26 -222.5q0 -63 4 -109.5t16 -92.5t37 -70t63 -24zM2086 34q116 0 116 266q0 129 -16.5 202t-41.5 96t-64 23q-62 0 -88.5 -68.5t-26.5 -222.5q0 -63 4.5 -109.5
t16 -92t37 -70t63.5 -24.5z" />
    <glyph glyph-name="guilsinglleft" unicode="&#x2039;" horiz-adv-x="533" 
d="M373 0l-356 440l354 441h92l-237 -441l237 -440h-90z" />
    <glyph glyph-name="guilsinglright" unicode="&#x203a;" horiz-adv-x="533" 
d="M160 0h-90l237 440l-237 441h92l354 -441z" />
    <glyph glyph-name="Euro" unicode="&#x20ac;" horiz-adv-x="1188" 
d="M651 -26q-125 0 -224.5 76.5t-157 199.5t-76.5 276h-99l13 88h80q-3 18 -3 56q0 34 3 68h-93l13 87h88q16 117 53 215.5t94 174t137.5 118t176.5 42.5q185 0 282 -158l6 121h86l2 -393l-86 -1q-60 342 -254 342q-65 0 -115 -36.5t-81 -102t-48.5 -145.5t-22.5 -177h435
l-13 -87h-423q0 -9 -0.5 -28.5t-0.5 -29.5q0 -6 -1 -29t0 -37h405l-13 -88h-390q5 -106 21.5 -187t46.5 -144t79 -96.5t115 -33.5q71 0 131.5 53t96 130.5t48.5 165.5l76 -13q-14 -96 -43 -171.5t-66 -122.5t-84 -78t-94.5 -43t-99.5 -12z" />
    <glyph glyph-name="uni2113" unicode="&#x2113;" horiz-adv-x="846" 
d="M470 -23q-115 0 -177.5 86.5t-62.5 225.5l-1 102q-12 -15 -60 -64.5t-60 -62.5l-42 60q8 9 75 76.5t86 93.5l-3 458q0 95 18.5 181.5t54.5 156.5t95 111.5t133 41.5q93 0 136 -54.5t43 -167.5q0 -240 -155 -485q-60 -101 -97 -143l2 -300q0 -199 78 -199q39 0 63.5 50
t37.5 160l75 -18q-21 -159 -79 -234t-160 -75zM452 727q18 25 65 111q48 82 81 186.5t33 187.5q0 75 -17 113t-58 38q-106 0 -106 -301z" />
    <glyph glyph-name="trademark" unicode="&#x2122;" horiz-adv-x="2170" 
d="M98 1352h765l4 -224l-54 -1l-6 58q-17 70 -43.5 89.5t-78.5 19.5h-127v-618q0 -20 1.5 -31t8.5 -24t23.5 -19t43.5 -6h46v-53h-401v53h45q26 0 42.5 6t24 18.5t9.5 24.5t2 31v618h-131q-22 0 -37 -2.5t-34.5 -12.5t-32 -34.5t-17.5 -62.5l-4 -55l-53 1zM1986 596h49v-53
h-402v53h44q45 0 60.5 18t15.5 62v538h-13l-299 -671h-45l-300 671h-8v-505q0 -113 75 -113h39v-53h-280v53h37q18 0 31 5.5t20.5 17.5t12 21t6 27t1.5 23v20v507q0 20 -2 32t-8.5 25t-22 19t-39.5 6h-36v53h275l272 -610l277 610h288v-53h-48q-50 0 -64 -20t-14 -61v-542
q0 -19 2 -30.5t9 -24.5t23.5 -19t43.5 -6z" />
    <glyph glyph-name="uni2126" unicode="&#x2126;" horiz-adv-x="1454" 
d="M145 0v344h65v-77q0 -121 117 -121h243v122q-84 35 -151.5 84.5t-123.5 119.5t-86.5 166.5t-30.5 212.5q0 259 144.5 417.5t403.5 158.5q130 0 236 -45.5t174.5 -124t105.5 -182.5t37 -222q0 -201 -105 -356t-284 -221v-130h239q118 0 118 118v80h64v-344h-515v339
q113 66 168 206.5t55 303.5q0 504 -293 504q-148 0 -224 -132t-76 -369q0 -191 61 -329.5t177 -191.5v-331h-519z" />
    <glyph glyph-name="partialdiff" unicode="&#x2202;" horiz-adv-x="1024" 
d="M389 -21q-144 0 -222.5 99t-78.5 278q0 86 20.5 171t60 159.5t93 132t125 90.5t150.5 33q101 0 154.5 -56.5t71.5 -134.5q11 79 11 197q0 71 -13.5 139.5t-39.5 127t-69.5 94t-98.5 35.5q-139 0 -240 -150l-37 40q131 246 345 246q278 0 278 -481q0 -114 -28.5 -269.5
t-67.5 -266.5q-98 -264 -193 -374t-221 -110zM468 73q50 0 95.5 48.5t80 131t60.5 177.5t43 201q-8 222 -155 222q-79 0 -146 -79t-104 -204.5t-37 -263.5q0 -113 45 -173t118 -60z" />
    <glyph glyph-name="uni2206" unicode="&#x2206;" horiz-adv-x="1004" 
d="M616 1443l310 -1443h-847l312 1443h225zM445 1206l-248 -1119h485z" />
    <glyph glyph-name="product" unicode="&#x220f;" horiz-adv-x="1311" 
d="M128 -258v64h52q63 0 63 138v1281q0 138 -61 138h-63v64h1074v-64h-61q-65 0 -65 -138v-1281q0 -138 63 -138h54v-64h-457v64h52q64 0 64 138v1394h-376v-1394q0 -138 60 -138h54v-64h-453z" />
    <glyph glyph-name="summation" unicode="&#x2211;" horiz-adv-x="976" 
d="M800 159l65 -7l-25 -411h-748v80l327 722l-319 803v81h709l24 -335l-63 -1l-16 133q-7 66 -29 89.5t-59 23.5h-364l269 -678l-340 -741h465q37 0 61 19t30 74z" />
    <glyph glyph-name="minus" unicode="&#x2212;" horiz-adv-x="1527" 
d="M208 600v152h1110v-152h-1110z" />
    <glyph glyph-name="radical" unicode="&#x221a;" horiz-adv-x="720" 
d="M515 1498h67l-163 -1514h-103l-168 666l-71 -55l-42 57l184 137l148 -636z" />
    <glyph glyph-name="infinity" unicode="&#x221e;" horiz-adv-x="1304" 
d="M910 829q105 0 173 -70.5t68 -181.5q0 -110 -67.5 -183t-170.5 -73q-84 0 -141.5 40t-106.5 124q-50 -77 -114 -122.5t-157 -45.5q-106 0 -174 71t-68 181t68 183t174 73q149 0 245 -165q103 169 271 169zM912 397q75 0 119.5 52.5t44.5 127.5q0 78 -40.5 126t-117.5 48
q-28 0 -52 -7t-45 -25t-34.5 -31t-31.5 -43.5t-24.5 -43t-24.5 -47.5q78 -157 206 -157zM390 393q23 0 45 8t37 16t34 29.5t27.5 31.5t26 40t21 36.5t19.5 38.5q-84 154 -203 154q-73 0 -121.5 -47.5t-48.5 -129.5q0 -80 42.5 -128.5t120.5 -48.5z" />
    <glyph glyph-name="integral" unicode="&#x222b;" horiz-adv-x="623" 
d="M208 -422q-55 0 -88.5 34.5t-33.5 85.5q0 32 16 53t47 21q28 0 46 -36q12 -38 51 -38q19 0 29.5 14t13.5 52q1 24 -7 75t-22 127.5t-21 133.5q-29 206 -29 448q0 220 11 402q11 317 51 427q23 70 62.5 107.5t84.5 37.5q58 0 89.5 -29.5t34.5 -77.5q2 -28 -9 -50.5
t-41 -22.5q-36 -2 -53 31q-15 29 -56 29q-37 0 -44 -38q-6 -15 -2.5 -65t8 -81.5t13.5 -96t14 -108.5q15 -83 26.5 -221.5t11.5 -240.5q0 -357 -15 -495q-23 -257 -46 -330q-20 -71 -53 -109.5t-89 -38.5z" />
    <glyph glyph-name="approxequal" unicode="&#x2248;" horiz-adv-x="1281" 
d="M214 690l-103 113q68 92 142 142t181 50q119 0 241 -65q119 -67 198 -67q53 0 96.5 36t86.5 99l102 -113q-58 -83 -125 -128.5t-156 -45.5q-112 0 -229 65q-110 66 -208 66q-69 0 -121.5 -40t-104.5 -112zM214 218l-103 114q68 92 142 141.5t181 49.5q125 0 241 -65
q119 -67 198 -67q92 0 183 136l102 -115q-59 -83 -125.5 -128.5t-155.5 -45.5q-111 0 -229 67q-116 66 -208 66q-69 0 -121.5 -40.5t-104.5 -112.5z" />
    <glyph glyph-name="notequal" unicode="&#x2260;" horiz-adv-x="1345" 
d="M1227 837h-359l-166 -322h525v-153h-604l-203 -395h-207l204 395h-300v153h379l166 322h-545v153h624l188 364h205l-187 -364h280v-153z" />
    <glyph glyph-name="lessequal" unicode="&#x2264;" horiz-adv-x="1290" 
d="M1129 1234v-166l-814 -281l814 -281v-165l-1017 369v155zM125 0v153h1004v-153h-1004z" />
    <glyph glyph-name="greaterequal" unicode="&#x2265;" horiz-adv-x="1290" 
d="M161 1234l1017 -369v-155l-1017 -369v165l814 281l-814 281v166zM161 0v153h1004v-153h-1004z" />
    <glyph glyph-name="a.sc" horiz-adv-x="1301" 
d="M1205 73l39 -3v-70h-514v70l83 3q26 1 40.5 13t5.5 29l-68 146h-437l-56 -118q-17 -35 5.5 -52t58.5 -18l75 -1v-72h-378v72l31 6q60 26 88.5 55.5t52.5 75.5l371 757h96l369 -757q18 -34 25.5 -47t25 -36.5t38.5 -35t49 -17.5zM388 334h370l-167 360h-32z" />
    <glyph glyph-name="aacute.sc" horiz-adv-x="1301" 
d="M1079 1420l-425 -318h-71l192 322h304v-4zM1205 73l39 -3v-70h-514v70l83 3q26 1 40.5 13t5.5 29l-68 146h-437l-56 -118q-17 -35 5.5 -52t58.5 -18l75 -1v-72h-378v72l31 6q60 26 88.5 55.5t52.5 75.5l371 757h96l369 -757q18 -34 25.5 -47t25 -36.5t38.5 -35t49 -17.5z
M388 334h370l-167 360h-32z" />
    <glyph glyph-name="acircumflex.sc" horiz-adv-x="1301" 
d="M654 1321l-285 -219h-71l246 322h219l246 -322h-71zM1205 73l39 -3v-70h-514v70l83 3q26 1 40.5 13t5.5 29l-68 146h-437l-56 -118q-17 -35 5.5 -52t58.5 -18l75 -1v-72h-378v72l31 6q60 26 88.5 55.5t52.5 75.5l371 757h96l369 -757q18 -34 25.5 -47t25 -36.5t38.5 -35
t49 -17.5zM388 334h370l-167 360h-32z" />
    <glyph glyph-name="adieresis.sc" horiz-adv-x="1301" 
d="M454 1186q-47 0 -80.5 34t-33.5 79q0 47 33.5 80.5t80.5 33.5q48 0 81 -33.5t33 -80.5q0 -48 -33.5 -80.5t-80.5 -32.5zM848 1186q-47 0 -80.5 33t-33.5 80q0 48 33.5 81t80.5 33t80.5 -33.5t33.5 -80.5q0 -48 -33.5 -80.5t-80.5 -32.5zM1205 73l39 -3v-70h-514v70l83 3
q26 1 40.5 13t5.5 29l-68 146h-437l-56 -118q-17 -35 5.5 -52t58.5 -18l75 -1v-72h-378v72l31 6q60 26 88.5 55.5t52.5 75.5l371 757h96l369 -757q18 -34 25.5 -47t25 -36.5t38.5 -35t49 -17.5zM388 334h370l-167 360h-32z" />
    <glyph glyph-name="agrave.sc" horiz-adv-x="1301" 
d="M725 1102h-71l-425 318v4h304zM1205 73l39 -3v-70h-514v70l83 3q26 1 40.5 13t5.5 29l-68 146h-437l-56 -118q-17 -35 5.5 -52t58.5 -18l75 -1v-72h-378v72l31 6q60 26 88.5 55.5t52.5 75.5l371 757h96l369 -757q18 -34 25.5 -47t25 -36.5t38.5 -35t49 -17.5zM388 334
h370l-167 360h-32z" />
    <glyph glyph-name="aring.sc" horiz-adv-x="1301" 
d="M654 1045q-79 0 -134.5 56t-55.5 135t55.5 134t134.5 55t135 -55t56 -134t-56 -135t-135 -56zM654 1361q-52 0 -87.5 -36t-35.5 -89t35.5 -89t87.5 -36t88.5 36.5t36.5 88.5t-36.5 88.5t-88.5 36.5zM1205 73l39 -3v-70h-514v70l83 3q26 1 40.5 13t5.5 29l-68 146h-437
l-56 -118q-17 -35 5.5 -52t58.5 -18l75 -1v-72h-378v72l31 6q60 26 88.5 55.5t52.5 75.5l371 757h96l369 -757q18 -34 25.5 -47t25 -36.5t38.5 -35t49 -17.5zM388 334h370l-167 360h-32z" />
    <glyph glyph-name="atilde.sc" horiz-adv-x="1301" 
d="M376 1095h-68q-3 126 51 198.5t155 72.5q14 0 27 -1.5t29 -6t24.5 -6.5t28 -10t23.5 -10t28 -13t25 -12q7 -4 26.5 -14.5t26.5 -13.5t21 -8.5t25.5 -7.5t25.5 -2q43 0 71.5 31t31.5 93h71q6 -119 -47 -204t-155 -85q-34 0 -71.5 11t-58.5 20.5t-59 29.5q-81 47 -133 47
q-46 0 -70.5 -32.5t-27.5 -76.5zM1205 73l39 -3v-70h-514v70l83 3q26 1 40.5 13t5.5 29l-68 146h-437l-56 -118q-17 -35 5.5 -52t58.5 -18l75 -1v-72h-378v72l31 6q60 26 88.5 55.5t52.5 75.5l371 757h96l369 -757q18 -34 25.5 -47t25 -36.5t38.5 -35t49 -17.5zM388 334h370
l-167 360h-32z" />
    <glyph glyph-name="b.sc" horiz-adv-x="1331" 
d="M867 505q40 -5 78 -13.5t84 -28t80 -46t57 -70.5t22 -98q0 -49 -18.5 -88t-46.5 -64.5t-70 -44t-80.5 -28t-88 -15.5t-82.5 -7t-74 -1h-594v70h71q50 0 67.5 27t17.5 79v590q0 106 -75 106h-81l1 75l662 -3q160 -1 249.5 -62t87.5 -157q-1 -55 -29 -97.5t-73.5 -67
t-84.5 -37.5t-80 -19zM674 879h-158v-338h146q119 0 173 39.5t56 126.5q1 85 -56 128.5t-161 43.5zM939 269q1 53 -15 90.5t-39.5 57.5t-64.5 31t-75 13.5t-87 2.5h-142v-288q0 -98 71 -98h123q117 0 172 56.5t57 134.5z" />
    <glyph glyph-name="c.sc" horiz-adv-x="1442" 
d="M711 -20q-138 0 -250 39.5t-183.5 107t-109.5 155t-38 185.5q0 95 38.5 183.5t109.5 159.5t185 113.5t253 42.5q228 0 395 -151l24 119h79l7 -346h-75q-9 31 -28 66t-53.5 77t-78 74.5t-107 54.5t-134.5 22q-83 0 -147 -26.5t-103 -69t-64 -101.5t-34.5 -117t-9.5 -122
q0 -181 91 -281.5t276 -100.5q142 0 251 76.5t150 224.5h78v-354h-78l-35 119q-146 -150 -409 -150z" />
    <glyph glyph-name="ccedilla.sc" horiz-adv-x="1442" 
d="M1155 365h78v-354h-78l-35 119q-140 -144 -386 -150l-20 -96q109 -2 176.5 -43.5t67.5 -121.5q0 -82 -79 -143.5t-236 -61.5q-108 0 -201 24l16 87q68 -14 155 -14q108 0 161.5 29t53.5 71q0 17 -10.5 30t-34 20t-40.5 11.5t-53.5 6t-47 1.5h-44.5l37 203
q-121 10 -218 53t-159 109t-95 148.5t-33 173.5q0 95 38.5 183.5t109.5 159.5t185 113.5t253 42.5q228 0 395 -151l24 119h79l7 -346h-75q-9 31 -28 66t-53.5 77t-78 74.5t-107 54.5t-134.5 22q-83 0 -147 -26.5t-103 -69t-64 -101.5t-34.5 -117t-9.5 -122q0 -181 91 -281.5
t276 -100.5q142 0 251 76.5t150 224.5z" />
    <glyph glyph-name="d.sc" horiz-adv-x="1507" 
d="M130 0v72h82q48 0 65.5 27.5t17.5 79.5v591q0 53 -17.5 80t-68.5 27h-79v69h503q176 0 307.5 -24t231.5 -78.5t151.5 -148t51.5 -225.5q0 -109 -34.5 -190.5t-96.5 -134.5t-156.5 -85.5t-204 -46t-250.5 -13.5h-503zM639 77h137q109 0 188.5 55.5t116.5 143t37 195.5
q0 95 -25 168t-65 118t-98 73.5t-117 39.5t-128 11h-164v-679q0 -32 3 -50.5t13.5 -38t35.5 -28t66 -8.5z" />
    <glyph glyph-name="e.sc" horiz-adv-x="1354" 
d="M1115 311h79l-16 -311h-1048v72h71q56 0 76 27t20 80v589q0 58 -22 82.5t-89 24.5h-56v71h986l17 -245l-78 1l-24 81q-35 54 -66 70t-92 16h-350v-337h211q50 0 79.5 12.5t29.5 50.5v57h79v-320h-79v50q0 45 -27 59t-79 14h-214v-255q0 -32 2.5 -50.5t12.5 -37t31.5 -27
t57.5 -8.5h256q64 0 102 12.5t54.5 31t35.5 56.5z" />
    <glyph glyph-name="eacute.sc" horiz-adv-x="1354" 
d="M1102 1348l-425 -318h-71l192 322h304v-4zM1115 311h79l-16 -311h-1048v72h71q56 0 76 27t20 80v589q0 58 -22 82.5t-89 24.5h-56v71h986l17 -245l-78 1l-24 81q-35 54 -66 70t-92 16h-350v-337h211q50 0 79.5 12.5t29.5 50.5v57h79v-320h-79v50q0 45 -27 59t-79 14h-214
v-255q0 -32 2.5 -50.5t12.5 -37t31.5 -27t57.5 -8.5h256q64 0 102 12.5t54.5 31t35.5 56.5z" />
    <glyph glyph-name="ecircumflex.sc" horiz-adv-x="1354" 
d="M677 1249l-285 -219h-71l246 322h219l246 -322h-71zM1115 311h79l-16 -311h-1048v72h71q56 0 76 27t20 80v589q0 58 -22 82.5t-89 24.5h-56v71h986l17 -245l-78 1l-24 81q-35 54 -66 70t-92 16h-350v-337h211q50 0 79.5 12.5t29.5 50.5v57h79v-320h-79v50q0 45 -27 59
t-79 14h-214v-255q0 -32 2.5 -50.5t12.5 -37t31.5 -27t57.5 -8.5h256q64 0 102 12.5t54.5 31t35.5 56.5z" />
    <glyph glyph-name="edieresis.sc" horiz-adv-x="1354" 
d="M477 1114q-47 0 -80.5 34t-33.5 79q0 47 33.5 80.5t80.5 33.5q48 0 81 -33.5t33 -80.5q0 -48 -33.5 -80.5t-80.5 -32.5zM871 1114q-47 0 -80.5 33t-33.5 80q0 48 33.5 81t80.5 33t80.5 -33.5t33.5 -80.5q0 -48 -33.5 -80.5t-80.5 -32.5zM1115 311h79l-16 -311h-1048v72
h71q56 0 76 27t20 80v589q0 58 -22 82.5t-89 24.5h-56v71h986l17 -245l-78 1l-24 81q-35 54 -66 70t-92 16h-350v-337h211q50 0 79.5 12.5t29.5 50.5v57h79v-320h-79v50q0 45 -27 59t-79 14h-214v-255q0 -32 2.5 -50.5t12.5 -37t31.5 -27t57.5 -8.5h256q64 0 102 12.5
t54.5 31t35.5 56.5z" />
    <glyph glyph-name="egrave.sc" horiz-adv-x="1354" 
d="M748 1030h-71l-425 318v4h304zM1115 311h79l-16 -311h-1048v72h71q56 0 76 27t20 80v589q0 58 -22 82.5t-89 24.5h-56v71h986l17 -245l-78 1l-24 81q-35 54 -66 70t-92 16h-350v-337h211q50 0 79.5 12.5t29.5 50.5v57h79v-320h-79v50q0 45 -27 59t-79 14h-214v-255
q0 -32 2.5 -50.5t12.5 -37t31.5 -27t57.5 -8.5h256q64 0 102 12.5t54.5 31t35.5 56.5z" />
    <glyph glyph-name="f.sc" horiz-adv-x="1210" 
d="M131 0v72h56q65 0 87 24.5t22 82.5v589q0 60 -22.5 83.5t-91.5 23.5h-54v71h976l11 -250h-81l-14 71q-39 63 -80 82.5t-90 19.5h-328v-333h199q50 0 75 18.5t25 67.5v31h79v-324h-79v34q0 49 -22.5 72t-79.5 23h-197v-279q0 -55 22.5 -81t93.5 -26h64v-72h-571z" />
    <glyph glyph-name="g.sc" horiz-adv-x="1489" 
d="M728 -20q-142 0 -259.5 41.5t-191 110.5t-113.5 154t-40 176q0 96 43.5 187.5t118.5 161.5t186 112.5t237 42.5q134 0 234.5 -39.5t163.5 -90.5l23 115h75l9 -328h-77q-13 29 -30 57.5t-51 65.5t-73.5 64t-100.5 46t-131 19q-84 0 -150.5 -27.5t-107 -71t-66.5 -101.5
t-36 -113t-10 -112t10 -108.5t35.5 -103.5t65.5 -89.5t105 -61t148 -23.5q263 0 288 188q0 58 -26.5 82.5t-91.5 24.5h-182v70h643v-70h-43q-44 0 -59 -28t-15 -86v-247h-84l-69 88q-87 -63 -173.5 -84.5t-204.5 -21.5z" />
    <glyph glyph-name="h.sc" horiz-adv-x="1627" 
d="M126 0v72h72q65 0 85.5 25t20.5 82v589q0 56 -20.5 81.5t-85.5 25.5h-72v71h578v-71h-71q-64 0 -83.5 -26t-19.5 -81v-228h567v228q0 55 -19.5 81t-82.5 26h-73v71h580v-71h-73q-64 0 -85 -25.5t-21 -81.5v-589q0 -57 21 -82t85 -25h73v-72h-580v72h81q58 0 76 27t18 80
v279h-567v-279q0 -53 18 -80t75 -27h81v-72h-578z" />
    <glyph glyph-name="i.sc" horiz-adv-x="837" 
d="M126 0v72h64q71 0 93 25t22 82v591q0 57 -22 82t-93 25h-64v72h585v-72h-63q-72 0 -94.5 -23t-22.5 -84v-591q0 -61 22.5 -84t94.5 -23h63v-72h-585z" />
    <glyph glyph-name="iacute.sc" horiz-adv-x="837" 
d="M419 1102h-71l192 322h304v-4zM126 0v72h64q71 0 93 25t22 82v591q0 57 -22 82t-93 25h-64v72h585v-72h-63q-72 0 -94.5 -23t-22.5 -84v-591q0 -61 22.5 -84t94.5 -23h63v-72h-585z" />
    <glyph glyph-name="icircumflex.sc" horiz-adv-x="837" 
d="M63 1102l246 322h219l246 -322h-71l-284 219l-285 -219h-71zM126 0v72h64q71 0 93 25t22 82v591q0 57 -22 82t-93 25h-64v72h585v-72h-63q-72 0 -94.5 -23t-22.5 -84v-591q0 -61 22.5 -84t94.5 -23h63v-72h-585z" />
    <glyph glyph-name="idieresis.sc" horiz-adv-x="837" 
d="M219 1186q-47 0 -80.5 34t-33.5 79q0 47 33.5 80.5t80.5 33.5q48 0 81 -33.5t33 -80.5q0 -48 -33.5 -80.5t-80.5 -32.5zM613 1186q-47 0 -80.5 33t-33.5 80q0 48 33.5 81t80.5 33t80.5 -33.5t33.5 -80.5q0 -48 -33.5 -80.5t-80.5 -32.5zM126 0v72h64q71 0 93 25t22 82
v591q0 57 -22 82t-93 25h-64v72h585v-72h-63q-72 0 -94.5 -23t-22.5 -84v-591q0 -61 22.5 -84t94.5 -23h63v-72h-585z" />
    <glyph glyph-name="igrave.sc" horiz-adv-x="837" 
d="M419 1102l-425 318v4h304l192 -322h-71zM126 0v72h64q71 0 93 25t22 82v591q0 57 -22 82t-93 25h-64v72h585v-72h-63q-72 0 -94.5 -23t-22.5 -84v-591q0 -61 22.5 -84t94.5 -23h63v-72h-585z" />
    <glyph glyph-name="j.sc" horiz-adv-x="819" 
d="M116 -340q-119 0 -196.5 44.5t-77.5 116.5q0 33 21.5 58t64.5 25q45 0 74.5 -20.5t29.5 -59.5q0 -11 -11.5 -28t-8.5 -26q19 -47 129 -47q105 0 145.5 70t40.5 217v758q0 26 -2.5 41t-12.5 32.5t-34.5 25.5t-63.5 8h-123v71h628v-71h-57q-66 0 -87 -25t-21 -82v-698
q0 -34 -1.5 -60t-10.5 -71t-25 -79t-49 -74t-78 -65.5t-115.5 -43t-158.5 -17.5z" />
    <glyph glyph-name="k.sc" horiz-adv-x="1569" 
d="M124 0v72h74q59 0 81 22.5t22 84.5v589q0 60 -22 83.5t-89 23.5h-66v71h584v-71h-71q-38 0 -61.5 -8t-34 -25.5t-13 -33.5t-2.5 -43v-294l398 280q69 39 69 84q0 20 -16.5 30t-40.5 10h-70v71h515v-71h-66q-41 0 -84 -15.5t-67 -30.5t-68.5 -47.5t-59.5 -42.5l-158 -125
l344 -405q71 -81 93 -99q47 -38 100 -38h79v-72h-614v72h71q76 0 76 40q0 36 -78 116l-242 268l-181 -130v-187q0 -58 18 -82t69 -25l82 -2l4 -70h-575z" />
    <glyph glyph-name="l.sc" horiz-adv-x="1281" 
d="M124 0v72h73q62 0 85 21.5t23 85.5v589q0 58 -21.5 82.5t-89.5 24.5h-70v71h591v-71h-70q-70 0 -92.5 -23t-22.5 -84v-573q0 -33 3 -50.5t14 -35.5t35 -25t65 -7h192q251 0 249 170l10 68h77l-15 -315h-1036z" />
    <glyph glyph-name="lslash.sc" horiz-adv-x="1281" 
d="M1098 315h77l-15 -315h-1036v72h73q62 0 85 21.5t23 85.5v90l-137 -105v125l137 105v374q0 58 -21.5 82.5t-89.5 24.5h-70v71h591v-71h-70q-70 0 -92.5 -23t-22.5 -84v-201l280 215v-124l-280 -215v-248q0 -33 3 -50.5t14 -35.5t35 -25t65 -7h192q251 0 249 170z" />
    <glyph glyph-name="m.sc" horiz-adv-x="1896" 
d="M1701 72h74v-72h-594v72h67q68 0 90.5 23t22.5 84v571h-19l-442 -750h-69l-443 750h-10v-523q0 -155 109 -155h59v-72h-415v72h58q22 0 40 7t28.5 16t18.5 26t11 27.5t5 31t2 26v22.5v538q0 27 -3 43t-12.5 33t-32.5 25t-59 8h-56v71h406l403 -679l408 679h424v-71h-71
q-72 0 -93 -27t-21 -80v-589q0 -26 3 -41.5t13.5 -32.5t34.5 -25t63 -8z" />
    <glyph glyph-name="n.sc" horiz-adv-x="1515" 
d="M993 946h417v-71h-57q-55 0 -78.5 -41t-23.5 -102v-748h-91l-774 741v-505q0 -21 1.5 -37t8 -38.5t18.5 -37t35 -25t55 -10.5h54v-72h-428v72h56q112 0 112 148v523q0 60 -30.5 96t-89.5 36h-52v71h357l681 -629v416q0 16 -1.5 31t-8.5 36.5t-18.5 37t-33.5 26.5t-52 11
h-57v71z" />
    <glyph glyph-name="ntilde.sc" horiz-adv-x="1515" 
d="M490 1095h-68q-3 126 51 198.5t155 72.5q14 0 27 -1.5t29 -6t24.5 -6.5t28 -10t23.5 -10t28 -13t25 -12q7 -4 26.5 -14.5t26.5 -13.5t21 -8.5t25.5 -7.5t25.5 -2q43 0 71.5 31t31.5 93h71q6 -119 -47 -204t-155 -85q-34 0 -71.5 11t-58.5 20.5t-59 29.5q-81 47 -133 47
q-46 0 -70.5 -32.5t-27.5 -76.5zM993 946h417v-71h-57q-55 0 -78.5 -41t-23.5 -102v-748h-91l-774 741v-505q0 -21 1.5 -37t8 -38.5t18.5 -37t35 -25t55 -10.5h54v-72h-428v72h56q112 0 112 148v523q0 60 -30.5 96t-89.5 36h-52v71h357l681 -629v416q0 16 -1.5 31t-8.5 36.5
t-18.5 37t-33.5 26.5t-52 11h-57v71z" />
    <glyph glyph-name="o.sc" horiz-adv-x="1479" 
d="M741 -20q-281 0 -448 140t-167 358q0 68 23.5 136t74 131.5t120.5 112.5t171.5 78.5t219.5 29.5q125 0 230 -30.5t175 -80.5t119 -115t71 -133t22 -136q0 -72 -24 -142t-74 -133.5t-121 -111t-172 -76t-220 -28.5zM735 64q175 0 263.5 98t88.5 310q0 217 -91 313.5
t-259 96.5q-90 0 -158 -30.5t-109 -85.5t-61 -126t-20 -157q0 -56 9.5 -110.5t34.5 -111.5t63 -99.5t99.5 -70t139.5 -27.5z" />
    <glyph glyph-name="oacute.sc" horiz-adv-x="1479" 
d="M739 1102h-71l192 322h304v-4zM741 -20q-281 0 -448 140t-167 358q0 68 23.5 136t74 131.5t120.5 112.5t171.5 78.5t219.5 29.5q125 0 230 -30.5t175 -80.5t119 -115t71 -133t22 -136q0 -72 -24 -142t-74 -133.5t-121 -111t-172 -76t-220 -28.5zM735 64q175 0 263.5 98
t88.5 310q0 217 -91 313.5t-259 96.5q-90 0 -158 -30.5t-109 -85.5t-61 -126t-20 -157q0 -56 9.5 -110.5t34.5 -111.5t63 -99.5t99.5 -70t139.5 -27.5z" />
    <glyph glyph-name="ocircumflex.sc" horiz-adv-x="1479" 
d="M383 1102l246 322h219l246 -322h-71l-284 219l-285 -219h-71zM741 -20q-281 0 -448 140t-167 358q0 68 23.5 136t74 131.5t120.5 112.5t171.5 78.5t219.5 29.5q125 0 230 -30.5t175 -80.5t119 -115t71 -133t22 -136q0 -72 -24 -142t-74 -133.5t-121 -111t-172 -76
t-220 -28.5zM735 64q175 0 263.5 98t88.5 310q0 217 -91 313.5t-259 96.5q-90 0 -158 -30.5t-109 -85.5t-61 -126t-20 -157q0 -56 9.5 -110.5t34.5 -111.5t63 -99.5t99.5 -70t139.5 -27.5z" />
    <glyph glyph-name="odieresis.sc" horiz-adv-x="1479" 
d="M539 1186q-47 0 -80.5 34t-33.5 79q0 47 33.5 80.5t80.5 33.5q48 0 81 -33.5t33 -80.5q0 -48 -33.5 -80.5t-80.5 -32.5zM933 1186q-47 0 -80.5 33t-33.5 80q0 48 33.5 81t80.5 33t80.5 -33.5t33.5 -80.5q0 -48 -33.5 -80.5t-80.5 -32.5zM741 -20q-281 0 -448 140
t-167 358q0 68 23.5 136t74 131.5t120.5 112.5t171.5 78.5t219.5 29.5q125 0 230 -30.5t175 -80.5t119 -115t71 -133t22 -136q0 -72 -24 -142t-74 -133.5t-121 -111t-172 -76t-220 -28.5zM735 64q175 0 263.5 98t88.5 310q0 217 -91 313.5t-259 96.5q-90 0 -158 -30.5
t-109 -85.5t-61 -126t-20 -157q0 -56 9.5 -110.5t34.5 -111.5t63 -99.5t99.5 -70t139.5 -27.5z" />
    <glyph glyph-name="ograve.sc" horiz-adv-x="1479" 
d="M739 1102l-425 318v4h304l192 -322h-71zM741 -20q-281 0 -448 140t-167 358q0 68 23.5 136t74 131.5t120.5 112.5t171.5 78.5t219.5 29.5q125 0 230 -30.5t175 -80.5t119 -115t71 -133t22 -136q0 -72 -24 -142t-74 -133.5t-121 -111t-172 -76t-220 -28.5zM735 64
q175 0 263.5 98t88.5 310q0 217 -91 313.5t-259 96.5q-90 0 -158 -30.5t-109 -85.5t-61 -126t-20 -157q0 -56 9.5 -110.5t34.5 -111.5t63 -99.5t99.5 -70t139.5 -27.5z" />
    <glyph glyph-name="oslash.sc" horiz-adv-x="1479" 
d="M1134 859q107 -72 162.5 -177t55.5 -211q0 -72 -24 -142t-74 -133.5t-121 -111t-172 -76t-220 -28.5q-180 0 -319 61l-66 -75l-65 58l52 60q-104 67 -160.5 169t-56.5 225q0 68 23.5 136t74 131.5t120.5 112.5t171.5 78.5t219.5 29.5q186 0 322 -65l67 77l64 -57z
M389 483q0 -157 68 -269l517 593q-85 75 -237 75q-90 0 -158 -30.5t-109 -85.5t-61 -126t-20 -157zM735 64q175 0 263.5 98t88.5 310q0 169 -58 267l-517 -594q88 -81 223 -81z" />
    <glyph glyph-name="oslashacute.sc" horiz-adv-x="1479" 
d="M1164 1420l-425 -318h-71l192 322h304v-4zM1134 859q107 -72 162.5 -177t55.5 -211q0 -72 -24 -142t-74 -133.5t-121 -111t-172 -76t-220 -28.5q-180 0 -319 61l-66 -75l-65 58l52 60q-104 67 -160.5 169t-56.5 225q0 68 23.5 136t74 131.5t120.5 112.5t171.5 78.5
t219.5 29.5q186 0 322 -65l67 77l64 -57zM389 483q0 -157 68 -269l517 593q-85 75 -237 75q-90 0 -158 -30.5t-109 -85.5t-61 -126t-20 -157zM735 64q175 0 263.5 98t88.5 310q0 169 -58 267l-517 -594q88 -81 223 -81z" />
    <glyph glyph-name="otilde.sc" horiz-adv-x="1479" 
d="M393 1095q-3 126 51 198.5t155 72.5q14 0 27 -1.5t29 -6t24.5 -6.5t28 -10t23.5 -10t28 -13t25 -12q7 -4 26.5 -14.5t26.5 -13.5t21 -8.5t25.5 -7.5t25.5 -2q43 0 71.5 31t31.5 93h71q6 -119 -47 -204t-155 -85q-34 0 -71.5 11t-58.5 20.5t-59 29.5q-81 47 -133 47
q-46 0 -70.5 -32.5t-27.5 -76.5h-68zM741 -20q-281 0 -448 140t-167 358q0 68 23.5 136t74 131.5t120.5 112.5t171.5 78.5t219.5 29.5q125 0 230 -30.5t175 -80.5t119 -115t71 -133t22 -136q0 -72 -24 -142t-74 -133.5t-121 -111t-172 -76t-220 -28.5zM735 64
q175 0 263.5 98t88.5 310q0 217 -91 313.5t-259 96.5q-90 0 -158 -30.5t-109 -85.5t-61 -126t-20 -157q0 -56 9.5 -110.5t34.5 -111.5t63 -99.5t99.5 -70t139.5 -27.5z" />
    <glyph glyph-name="p.sc" horiz-adv-x="1255" 
d="M131 0v72h59q64 0 86 24t22 83v591q0 25 -3 40.5t-13 33t-34.5 25.5t-62.5 8h-59v69h502q67 0 116 -1.5t107.5 -8t99.5 -17t82.5 -30t66.5 -46t40.5 -65.5t15.5 -89q0 -76 -34.5 -129t-100 -82.5t-146.5 -42t-187 -12.5h-163v-244q0 -26 3 -41.5t13.5 -32.5t35 -25
t63.5 -8h57v-72h-566zM525 500h143q54 0 91.5 6t75.5 24t57.5 57t19.5 98q0 109 -62.5 151.5t-178.5 42.5h-146v-379z" />
    <glyph glyph-name="q.sc" horiz-adv-x="1397" 
d="M698 -20q-280 0 -447 140t-167 358q0 68 23.5 136t74 131.5t120.5 112.5t171.5 78.5t219.5 29.5q125 0 229.5 -30.5t175 -80.5t119.5 -115t71 -133t22 -136q0 -91 -39 -177t-112.5 -157t-193 -114t-267.5 -43zM693 64q174 0 263 98.5t89 309.5q0 217 -91.5 313.5
t-259.5 96.5q-175 0 -261.5 -110.5t-86.5 -288.5q0 -56 9.5 -110.5t35 -111.5t63 -99.5t99.5 -70t140 -27.5zM868 -93q65 -7 131 -36t127 -54t121 -25q98 0 171 39l81 -100q-104 -88 -287 -88q-76 0 -140.5 20t-99 41.5t-84.5 59.5q-9 7 -14 11q-114 87 -202 87
q-52 0 -105.5 -25t-131.5 -79l-47 44q140 98 246 117q103 21 234 -12z" />
    <glyph glyph-name="r.sc" horiz-adv-x="1440" 
d="M128 0v72h57q68 0 90.5 23t22.5 84v591q0 58 -21.5 81.5t-85.5 23.5h-63v71h611q97 0 171.5 -12.5t135 -41t93 -80.5t32.5 -126q0 -96 -70 -156.5t-180 -65.5q20 -13 39 -30.5t31.5 -30.5t37 -41t39.5 -44l151 -171q76 -75 120 -75h40v-72h-298l-232 298q-57 75 -97 99.5
t-103 24.5h-124v-243q0 -59 22 -83t89 -24h55v-72h-563zM525 500h143q61 0 103.5 6.5t82.5 25.5t60.5 58.5t20.5 98.5q0 101 -65.5 141.5t-192.5 40.5h-152v-371z" />
    <glyph glyph-name="s.sc" horiz-adv-x="1148" 
d="M631 -20q-102 0 -192 30t-148 95l-21 -89h-83v325h83q8 -49 33 -95.5t67.5 -88.5t109.5 -67.5t150 -25.5q76 0 128.5 30t52.5 94q0 58 -48 92.5t-163 76.5q-196 81 -254 113q-113 64 -141 147q-11 34 -11 74q0 117 103 195.5t240 78.5q77 0 151 -22.5t125 -69.5l21 76h80
v-279h-80q-21 107 -101.5 162.5t-178.5 55.5q-89 0 -137 -38t-48 -79q0 -25 10.5 -45t28 -35.5t52 -32t71 -31t95.5 -36.5q9 -3 14 -5l12.5 -5t14.5 -5q61 -22 105 -41.5t90 -47.5t74.5 -57.5t46.5 -70.5t18 -88q0 -87 -58 -155.5t-141.5 -102t-170.5 -33.5z" />
    <glyph glyph-name="scaron.sc" horiz-adv-x="1148" 
d="M471 1102l-247 322h71l285 -219l285 219h71l-247 -322h-218zM631 -20q-102 0 -192 30t-148 95l-21 -89h-83v325h83q8 -49 33 -95.5t67.5 -88.5t109.5 -67.5t150 -25.5q76 0 128.5 30t52.5 94q0 58 -48 92.5t-163 76.5q-196 81 -254 113q-113 64 -141 147q-11 34 -11 74
q0 117 103 195.5t240 78.5q77 0 151 -22.5t125 -69.5l21 76h80v-279h-80q-21 107 -101.5 162.5t-178.5 55.5q-89 0 -137 -38t-48 -79q0 -25 10.5 -45t28 -35.5t52 -32t71 -31t95.5 -36.5q9 -3 14 -5l12.5 -5t14.5 -5q61 -22 105 -41.5t90 -47.5t74.5 -57.5t46.5 -70.5
t18 -88q0 -87 -58 -155.5t-141.5 -102t-170.5 -33.5z" />
    <glyph glyph-name="t.sc" horiz-adv-x="1335" 
d="M372 0v72h67q39 0 63.5 8t35.5 25t14.5 33t3.5 41v690h-195q-20 0 -32 -0.5t-32.5 -3.5t-33.5 -8.5t-29.5 -17t-26.5 -27t-18 -40.5t-10 -57l-3 -36l-79 1l6 266h1128l7 -266l-79 -1l-2 39q-9 52 -26 84t-44.5 46t-51.5 17.5t-64 3.5h-191v-690q0 -26 3 -41t13.5 -32.5
t35 -25.5t64.5 -8h68v-72h-592z" />
    <glyph glyph-name="u.sc" horiz-adv-x="1457" 
d="M735 -20q-239 0 -362.5 99t-123.5 295v394q0 57 -22 82t-91 25h-51v71h575v-71h-73q-68 0 -90.5 -24t-22.5 -83v-394q0 -146 75 -224.5t243 -78.5q183 0 259.5 84t76.5 243v344q0 59 -29 96t-93 37h-50v71h410v-71h-48q-54 0 -79 -36.5t-25 -94.5v-349q0 -415 -479 -415z
" />
    <glyph glyph-name="uacute.sc" horiz-adv-x="1457" 
d="M729 1103h-71l192 322h304v-4zM735 -20q-239 0 -362.5 99t-123.5 295v394q0 57 -22 82t-91 25h-51v71h575v-71h-73q-68 0 -90.5 -24t-22.5 -83v-394q0 -146 75 -224.5t243 -78.5q183 0 259.5 84t76.5 243v344q0 59 -29 96t-93 37h-50v71h410v-71h-48q-54 0 -79 -36.5
t-25 -94.5v-349q0 -415 -479 -415z" />
    <glyph glyph-name="ucircumflex.sc" horiz-adv-x="1457" 
d="M373 1103l246 322h219l246 -322h-71l-284 219l-285 -219h-71zM735 -20q-239 0 -362.5 99t-123.5 295v394q0 57 -22 82t-91 25h-51v71h575v-71h-73q-68 0 -90.5 -24t-22.5 -83v-394q0 -146 75 -224.5t243 -78.5q183 0 259.5 84t76.5 243v344q0 59 -29 96t-93 37h-50v71
h410v-71h-48q-54 0 -79 -36.5t-25 -94.5v-349q0 -415 -479 -415z" />
    <glyph glyph-name="udieresis.sc" horiz-adv-x="1457" 
d="M529 1187q-47 0 -80.5 34t-33.5 79q0 47 33.5 80.5t80.5 33.5q48 0 81 -33.5t33 -80.5q0 -48 -33.5 -80.5t-80.5 -32.5zM923 1187q-47 0 -80.5 33t-33.5 80q0 48 33.5 81t80.5 33t80.5 -33.5t33.5 -80.5q0 -48 -33.5 -80.5t-80.5 -32.5zM735 -20q-239 0 -362.5 99
t-123.5 295v394q0 57 -22 82t-91 25h-51v71h575v-71h-73q-68 0 -90.5 -24t-22.5 -83v-394q0 -146 75 -224.5t243 -78.5q183 0 259.5 84t76.5 243v344q0 59 -29 96t-93 37h-50v71h410v-71h-48q-54 0 -79 -36.5t-25 -94.5v-349q0 -415 -479 -415z" />
    <glyph glyph-name="ugrave.sc" horiz-adv-x="1457" 
d="M729 1103l-425 318v4h304l192 -322h-71zM735 -20q-239 0 -362.5 99t-123.5 295v394q0 57 -22 82t-91 25h-51v71h575v-71h-73q-68 0 -90.5 -24t-22.5 -83v-394q0 -146 75 -224.5t243 -78.5q183 0 259.5 84t76.5 243v344q0 59 -29 96t-93 37h-50v71h410v-71h-48
q-54 0 -79 -36.5t-25 -94.5v-349q0 -415 -479 -415z" />
    <glyph glyph-name="v.sc" horiz-adv-x="1383" 
d="M925 946h400v-71h-42q-46 0 -72.5 -30t-81.5 -132q-3 -6 -5 -9t-5 -8.5t-5 -9.5l-356 -707h-101l-399 748q-8 15 -25 46t-22.5 39.5t-18.5 26t-22.5 22t-25 9.5t-35.5 5h-52v71h574v-71h-84q-132 0 -61 -114l295 -528l259 490q25 41 30 74.5t-15.5 55.5t-68.5 22h-61v71z
" />
    <glyph glyph-name="w.sc" horiz-adv-x="1822" 
d="M1385 946h374v-71h-33q-46 0 -71 -39t-61 -138q-1 -3 -1.5 -5t-1.5 -4l-249 -709h-123l-312 701l-273 -701h-126l-294 771q-29 76 -50.5 100t-67.5 24h-34v71h509v-71h-79q-55 0 -66.5 -30.5t14.5 -84.5l205 -504l267 692h119l308 -686l159 431q15 36 22 66.5t4.5 57.5
t-21.5 42.5t-55 15.5h-63v71z" />
    <glyph glyph-name="wacute.sc" horiz-adv-x="1822" 
d="M1335 1420l-425 -318h-71l192 322h304v-4zM1385 946h374v-71h-33q-46 0 -71 -39t-61 -138q-1 -3 -1.5 -5t-1.5 -4l-249 -709h-123l-312 701l-273 -701h-126l-294 771q-29 76 -50.5 100t-67.5 24h-34v71h509v-71h-79q-55 0 -66.5 -30.5t14.5 -84.5l205 -504l267 692h119
l308 -686l159 431q15 36 22 66.5t4.5 57.5t-21.5 42.5t-55 15.5h-63v71z" />
    <glyph glyph-name="wcircumflex.sc" horiz-adv-x="1822" 
d="M910 1321l-285 -219h-71l246 322h219l246 -322h-71zM1385 946h374v-71h-33q-46 0 -71 -39t-61 -138q-1 -3 -1.5 -5t-1.5 -4l-249 -709h-123l-312 701l-273 -701h-126l-294 771q-29 76 -50.5 100t-67.5 24h-34v71h509v-71h-79q-55 0 -66.5 -30.5t14.5 -84.5l205 -504
l267 692h119l308 -686l159 431q15 36 22 66.5t4.5 57.5t-21.5 42.5t-55 15.5h-63v71z" />
    <glyph glyph-name="wdieresis.sc" horiz-adv-x="1822" 
d="M710 1186q-47 0 -80.5 34t-33.5 79q0 47 33.5 80.5t80.5 33.5q48 0 81 -33.5t33 -80.5q0 -48 -33.5 -80.5t-80.5 -32.5zM1104 1186q-47 0 -80.5 33t-33.5 80q0 48 33.5 81t80.5 33t80.5 -33.5t33.5 -80.5q0 -48 -33.5 -80.5t-80.5 -32.5zM1385 946h374v-71h-33
q-46 0 -71 -39t-61 -138q-1 -3 -1.5 -5t-1.5 -4l-249 -709h-123l-312 701l-273 -701h-126l-294 771q-29 76 -50.5 100t-67.5 24h-34v71h509v-71h-79q-55 0 -66.5 -30.5t14.5 -84.5l205 -504l267 692h119l308 -686l159 431q15 36 22 66.5t4.5 57.5t-21.5 42.5t-55 15.5h-63
v71z" />
    <glyph glyph-name="wgrave.sc" horiz-adv-x="1822" 
d="M981 1102h-71l-425 318v4h304zM1385 946h374v-71h-33q-46 0 -71 -39t-61 -138q-1 -3 -1.5 -5t-1.5 -4l-249 -709h-123l-312 701l-273 -701h-126l-294 771q-29 76 -50.5 100t-67.5 24h-34v71h509v-71h-79q-55 0 -66.5 -30.5t14.5 -84.5l205 -504l267 692h119l308 -686
l159 431q15 36 22 66.5t4.5 57.5t-21.5 42.5t-55 15.5h-63v71z" />
    <glyph glyph-name="x.sc" horiz-adv-x="1572" 
d="M113 0v72h44q63 0 204 110l321 265l-311 292q-22 20 -51.5 49.5t-41.5 40.5t-31 24.5t-35.5 17.5t-39.5 4h-67v71h607v-71h-74q-51 0 -57.5 -25.5t36.5 -65.5l215 -197l224 189q54 43 45.5 71t-68.5 28h-76v71h462v-71h-44q-76 0 -224 -115l-264 -224l326 -314
q17 -17 44.5 -46t42 -43t36 -31t43 -23.5t46.5 -6.5h60v-72h-652v72h87q74 0 84.5 29t-46.5 84l-226 210l-248 -213q-53 -44 -40.5 -77t79.5 -33h87v-72h-497z" />
    <glyph glyph-name="y.sc" horiz-adv-x="1314" 
d="M362 0v72h82q68 0 88.5 25.5t20.5 79.5v200l-312 390q-6 7 -21 26t-20 24.5t-17 18.5t-18 17.5t-17 11t-20.5 8.5t-21.5 2h-49v71h549v-71h-83q-35 0 -48.5 -15.5t-6 -38.5t29.5 -47l249 -293l226 263q49 50 36.5 90.5t-76.5 40.5h-67v71h391v-71h-23q-19 0 -36 -6.5
t-38.5 -26.5t-32 -31.5t-40.5 -46.5l-306 -372l-1 -213q-2 -57 19 -82t90 -25h80v-72h-607z" />
    <glyph glyph-name="yacute.sc" horiz-adv-x="1314" 
d="M658 1102h-71l192 322h304v-4zM362 0v72h82q68 0 88.5 25.5t20.5 79.5v200l-312 390q-6 7 -21 26t-20 24.5t-17 18.5t-18 17.5t-17 11t-20.5 8.5t-21.5 2h-49v71h549v-71h-83q-35 0 -48.5 -15.5t-6 -38.5t29.5 -47l249 -293l226 263q49 50 36.5 90.5t-76.5 40.5h-67v71
h391v-71h-23q-19 0 -36 -6.5t-38.5 -26.5t-32 -31.5t-40.5 -46.5l-306 -372l-1 -213q-2 -57 19 -82t90 -25h80v-72h-607z" />
    <glyph glyph-name="ycircumflex.sc" horiz-adv-x="1314" 
d="M302 1102l246 322h219l246 -322h-71l-284 219l-285 -219h-71zM362 0v72h82q68 0 88.5 25.5t20.5 79.5v200l-312 390q-6 7 -21 26t-20 24.5t-17 18.5t-18 17.5t-17 11t-20.5 8.5t-21.5 2h-49v71h549v-71h-83q-35 0 -48.5 -15.5t-6 -38.5t29.5 -47l249 -293l226 263
q49 50 36.5 90.5t-76.5 40.5h-67v71h391v-71h-23q-19 0 -36 -6.5t-38.5 -26.5t-32 -31.5t-40.5 -46.5l-306 -372l-1 -213q-2 -57 19 -82t90 -25h80v-72h-607z" />
    <glyph glyph-name="ydieresis.sc" horiz-adv-x="1314" 
d="M458 1186q-47 0 -80.5 34t-33.5 79q0 47 33.5 80.5t80.5 33.5q48 0 81 -33.5t33 -80.5q0 -48 -33.5 -80.5t-80.5 -32.5zM852 1186q-47 0 -80.5 33t-33.5 80q0 48 33.5 81t80.5 33t80.5 -33.5t33.5 -80.5q0 -48 -33.5 -80.5t-80.5 -32.5zM362 0v72h82q68 0 88.5 25.5
t20.5 79.5v200l-312 390q-6 7 -21 26t-20 24.5t-17 18.5t-18 17.5t-17 11t-20.5 8.5t-21.5 2h-49v71h549v-71h-83q-35 0 -48.5 -15.5t-6 -38.5t29.5 -47l249 -293l226 263q49 50 36.5 90.5t-76.5 40.5h-67v71h391v-71h-23q-19 0 -36 -6.5t-38.5 -26.5t-32 -31.5t-40.5 -46.5
l-306 -372l-1 -213q-2 -57 19 -82t90 -25h80v-72h-607z" />
    <glyph glyph-name="ygrave.sc" horiz-adv-x="1314" 
d="M658 1102l-425 318v4h304l192 -322h-71zM362 0v72h82q68 0 88.5 25.5t20.5 79.5v200l-312 390q-6 7 -21 26t-20 24.5t-17 18.5t-18 17.5t-17 11t-20.5 8.5t-21.5 2h-49v71h549v-71h-83q-35 0 -48.5 -15.5t-6 -38.5t29.5 -47l249 -293l226 263q49 50 36.5 90.5t-76.5 40.5
h-67v71h391v-71h-23q-19 0 -36 -6.5t-38.5 -26.5t-32 -31.5t-40.5 -46.5l-306 -372l-1 -213q-2 -57 19 -82t90 -25h80v-72h-607z" />
    <glyph glyph-name="z.sc" horiz-adv-x="1326" 
d="M1109 286h80l-26 -286h-1030v62l726 809h-362q-92 0 -142 -23t-87 -67l-35 -86l-77 1l23 252h971v-64l-734 -807h434q35 0 49 0.5t41.5 2.5t41 8t33.5 16t34.5 27t27.5 40z" />
    <glyph glyph-name="zcaron.sc" horiz-adv-x="1326" 
d="M769 1102h-218l-247 322h71l285 -219l285 219h71zM1109 286h80l-26 -286h-1030v62l726 809h-362q-92 0 -142 -23t-87 -67l-35 -86l-77 1l23 252h971v-64l-734 -807h434q35 0 49 0.5t41.5 2.5t41 8t33.5 16t34.5 27t27.5 40z" />
    <glyph glyph-name="zero.sc" horiz-adv-x="1109" 
d="M554 -20q-41 0 -81.5 5.5t-87 21t-87 39t-78.5 63t-65 90t-43 123t-16 159.5q0 112 35.5 203.5t97.5 152t145.5 93.5t179.5 33q69 0 133.5 -16t124.5 -53.5t104.5 -93t71 -139.5t26.5 -188q0 -231 -127.5 -362t-332.5 -131zM559 59q120 0 168.5 87t48.5 296
q0 243 -49 343t-175 100q-219 0 -219 -406q0 -220 50.5 -320t175.5 -100z" />
    <glyph glyph-name="one.sc" horiz-adv-x="1109" 
d="M796 76h182v-76h-816v76h202q59 0 80.5 20t21.5 64v665q-111 -22 -304 -22v73q178 5 271 22t170 65h93v-799q0 -45 18.5 -66.5t81.5 -21.5z" />
    <glyph glyph-name="two.sc" horiz-adv-x="1109" 
d="M954 238h84l-125 -275h-86q9 19 1 28t-43 9h-664v66q88 43 199.5 129.5t209.5 185.5q68 66 114.5 149.5t46.5 165.5q0 76 -55.5 131t-155.5 55q-89 0 -147.5 -35t-58.5 -85t42 -96l-134 -56q-28 33 -42 60.5t-14 64.5q0 69 57 121.5t148 79.5t200 27q173 0 285 -70
t112 -187q0 -35 -13.5 -70.5t-28.5 -60.5t-53 -65t-58 -59t-74 -67q-35 -32 -64 -58t-57 -48t-45 -35.5t-44 -31t-37 -23.5t-42 -25t-41 -24h437q89 0 117 44z" />
    <glyph glyph-name="three.sc" horiz-adv-x="1109" 
d="M450 -20q-146 0 -240 42t-105 104q-3 41 25 64.5t65 23.5q11 0 21 -3t17.5 -6t15.5 -10.5t12 -12t10 -14.5t8 -13.5t7.5 -14.5t6.5 -12q45 -69 177 -69q134 0 203.5 64t69.5 169q0 186 -170 186q-42 0 -90 -24l-61 -39l-57 59l138 73q97 47 154.5 96t57.5 110
q0 47 -31 77.5t-72.5 40.5t-93.5 10q-81 0 -142 -28t-61 -67q0 -35 44 -79l-146 -61q-53 46 -53 103q0 93 125.5 153.5t291.5 60.5q67 0 128 -9.5t115 -29t86 -54.5t32 -81q0 -39 -23.5 -76t-58.5 -63t-76.5 -47t-74.5 -32t-56 -15q89 2 161.5 -19.5t121.5 -77t49 -137.5
q0 -104 -77 -183.5t-196 -119t-258 -39.5z" />
    <glyph glyph-name="four.sc" horiz-adv-x="1109" 
d="M398 0v76h87q69 0 88 22t19 76v150h-502v105l595 530h136v-539h185v-96h-185v-153q0 -22 2.5 -35t12.5 -29t33.5 -23.5t60.5 -7.5h78v-76h-610zM196 420h396v349h-11l-385 -340v-9z" />
    <glyph glyph-name="five.sc" horiz-adv-x="1109" 
d="M560 641q58 0 114.5 -10t112 -33.5t97.5 -58.5t68 -89.5t26 -121.5q0 -91 -46 -161t-121.5 -109t-159.5 -58.5t-172 -19.5q-133 0 -239.5 39.5t-124.5 108.5q-2 31 24 55t60 24q21 0 39.5 -9t28 -18t26.5 -29q86 -89 210 -89q105 0 171 72t66 180q0 102 -61.5 170
t-169.5 68q-114 0 -188 -74h-103l24 468h645l-62 -142h-502l-14 -235q42 35 110.5 53.5t140.5 18.5z" />
    <glyph glyph-name="six.sc" horiz-adv-x="1109" 
d="M573 -20q-68 0 -129.5 12.5t-120.5 43t-101.5 76.5t-68 118.5t-25.5 163.5q0 117 30 212.5t82 161t123 110t150.5 65t166.5 20.5q109 0 185.5 -32t93.5 -79q2 -30 -20 -54.5t-58 -25.5q-9 0 -18.5 2.5t-20.5 9.5t-18 11.5t-22 15.5t-20 15q-70 55 -157 55q-73 0 -127 -34
t-83.5 -92t-45 -117.5t-20.5 -129.5q87 108 261 103q160 -5 270.5 -89.5t110.5 -217.5q0 -80 -36 -143.5t-96 -102t-133 -58.5t-153 -20zM570 59q183 0 183 209q0 122 -45.5 190t-153.5 68q-53 0 -90.5 -19t-58 -54.5t-30 -72t-14.5 -85.5q17 -236 209 -236z" />
    <glyph glyph-name="seven.sc" horiz-adv-x="1109" 
d="M452 -20q-62 0 -85.5 28.5t-10 73t56.5 96.5l428 599h-509q-90 0 -117 -45l-28 -55h-83l129 306h86q-9 -19 -2 -28t43 -9h638l-417 -844q-31 -68 -57.5 -95t-71.5 -27z" />
    <glyph glyph-name="eight.sc" horiz-adv-x="1108" 
d="M557 -20q-64 0 -123 6.5t-121 25.5t-107 48.5t-73.5 79t-28.5 113.5q0 59 22.5 104t54 70.5t78 42.5t81.5 23.5t78 10.5q-30 4 -54 9t-58.5 15t-60 25.5t-49.5 37.5t-37 54.5t-13 73.5q0 68 36 118t97.5 76t129 38t144.5 12q80 0 150 -13t129.5 -40t94.5 -76t35 -115
q0 -46 -19 -82.5t-47 -59t-66 -39t-69 -23.5t-63 -11q39 -5 67 -10t67.5 -16t67 -28.5t53.5 -43t39.5 -64t13.5 -86.5q0 -74 -38 -129.5t-103.5 -86.5t-142.5 -45.5t-165 -14.5zM556 537q95 0 137 47t42 141q0 69 -43.5 116t-138.5 47q-97 0 -139 -47t-42 -112
q0 -91 41 -141.5t143 -50.5zM556 56q113 0 162.5 57t49.5 139q0 110 -49 159.5t-167 49.5q-114 0 -162 -52.5t-48 -134.5q0 -102 48 -160t166 -58z" />
    <glyph glyph-name="nine.sc" horiz-adv-x="1109" 
d="M429 -20q-108 0 -183 32t-94 79q-3 29 18.5 54t57.5 26q7 0 14 -1t14.5 -4.5t13 -6t14 -9t12.5 -9.5t13.5 -10.5t12.5 -10.5q70 -57 162 -57q73 0 128 32.5t85 88t44 117t14 129.5q-80 -99 -239 -99q-107 0 -197.5 37.5t-145.5 109t-55 161.5q0 80 36 143.5t96 102
t133.5 58.5t153.5 20q68 0 129.5 -12.5t120 -42.5t101 -76t68 -118.5t25.5 -163.5q0 -117 -30 -212.5t-82 -161t-122.5 -110.5t-150.5 -65.5t-167 -20.5zM556 418q53 0 90 19t57.5 54.5t30 72t14.5 85.5q-17 236 -209 236q-183 0 -183 -209q0 -123 46 -190.5t154 -67.5z" />
    <glyph glyph-name="uni0308.case" 
d="M-608 1492q-47 0 -80.5 34t-33.5 80q0 47 33.5 80t80.5 33q48 0 81 -33t33 -80q0 -49 -33.5 -81.5t-80.5 -32.5zM-214 1492q-47 0 -80.5 33.5t-33.5 80.5q0 48 33 80.5t81 32.5q47 0 80.5 -33.5t33.5 -79.5q0 -48 -33.5 -81t-80.5 -33z" />
    <glyph glyph-name="gravecomb.case" 
d="M-121 1438l-425 317v4h304l192 -321h-71z" />
    <glyph glyph-name="acutecomb.case" 
d="M-503 1438l192 321h304v-4l-425 -317h-71z" />
    <glyph glyph-name="uni0302.case" 
d="M-761 1470l233 322h245l233 -322h-71l-284 219l-285 -219h-71z" />
    <glyph glyph-name="uni030C.case" 
d="M-516 1456l-247 322h71l285 -219l285 219h71l-247 -322h-218z" />
    <glyph glyph-name="uni030A.case" 
d="M-276 1438q-79 0 -134 55.5t-55 134.5t55 134t134 55q78 0 134 -55.5t56 -133.5t-56 -134t-134 -56zM-276 1504q52 0 88 36t36 88t-36 88t-88 36q-51 0 -86.5 -36t-35.5 -88t35.5 -88t86.5 -36z" />
    <glyph glyph-name="tildecomb.case" 
d="M-786 1440q-3 126 51 198.5t155 72.5q14 0 27 -1.5t29 -6t24.5 -6.5t28 -10t23.5 -10t28 -13t25 -12q7 -4 26.5 -14.5t26.5 -13.5t21 -8.5t25.5 -7.5t25.5 -2q43 0 71.5 31t31.5 93h71q6 -119 -47 -204t-155 -85q-74 0 -189 62q-83 46 -133 46q-46 0 -70.5 -32.5
t-27.5 -76.5h-68z" />
    <glyph glyph-name="uni0335.case" 
d="M-948 638v94h818v-94h-818z" />
    <glyph glyph-name="uni0337.case" 
d="M-809 312v138l811 622v-138z" />
    <glyph glyph-name="uni0338.case" 
d="M-1129 -7l-68 57l1178 1337l64 -58z" />
    </font>
</defs>
</svg>
