<?xml version="1.0" standalone="no"?>
<!DOCTYPE svg PUBLIC "-//W3C//DTD SVG 1.1//EN" "http://www.w3.org/Graphics/SVG/1.1/DTD/svg11.dtd" >
<svg xmlns="http://www.w3.org/2000/svg" xmlns:xlink="http://www.w3.org/1999/xlink" version="1.1">
<metadata>
Created by FontForge 20170731 at Wed Dec 13 18:56:51 2017
 By ,,,
Copyright (c)2017 HK CartaTM by Alfredo Marco Pradil
</metadata>
<defs>
<font id="HKCarta-Light" horiz-adv-x="0" >
  <font-face 
    font-family="HK Carta Light"
    font-weight="300"
    font-stretch="normal"
    units-per-em="2048"
    panose-1="0 0 4 0 0 0 0 0 0 0"
    ascent="1393"
    descent="-655"
    x-height="846"
    cap-height="1353"
    bbox="-1201 -529 2259 1810"
    underline-thickness="50"
    underline-position="-200"
    unicode-range="U+0020-FB02"
  />
<missing-glyph horiz-adv-x="1024" 
d="M130 0v1352h762v-1352h-762zM184 54h655v1243h-655v-1243z" />
    <glyph glyph-name="fi" unicode="fi" horiz-adv-x="1151" 
d="M1030 64h83v-64h-1062v64h135q47 0 65 21.5t18 65.5v631h-218v64h218v195q0 163 96 250.5t253 87.5q142 0 228 -56t101 -167q1 -30 -16 -50t-44 -22q-13 0 -22.5 3.5t-15 6.5t-11.5 14t-7.5 14t-6 19t-5.5 18q-32 155 -200 155q-216 0 -216 -255v-213h552v-695
q0 -87 75 -87zM742 64q44 0 61.5 20t17.5 67v631h-418v-631q0 -43 18 -65t65 -22h256z" />
    <glyph glyph-name="fl" unicode="fl" horiz-adv-x="1134" 
d="M51 0v64h135q47 0 65 21.5t18 65.5v631h-218v64h218v195q-1 162 95 250t254 88q133 0 209 -65l126 79v-1242q0 -87 74 -87h83v-64h-1059zM486 64h253q44 0 62 20t18 67v908q0 126 -46 190.5t-155 64.5q-218 0 -215 -255v-213h283v-64h-283v-631q0 -43 18 -65t65 -22z" />
    <glyph glyph-name="f_f" unicode="ff" horiz-adv-x="1283" 
d="M1446 1156q1 -30 -16 -50t-44 -22q-24 -1 -42.5 17t-23.5 49q-14 77 -59.5 120.5t-121.5 43.5q-94 0 -142 -67t-48 -188v-213h283v-64h-283v-631q0 -43 18 -65t66 -22h199v-64h-1181v64h135q47 0 65 21.5t18 65.5v631h-218v64h218v195q0 162 94.5 250t247.5 88
q88 0 157 -34t104 -100q90 134 286 134q115 0 194.5 -57t93.5 -166zM816 846v195q0 18 2 46q-38 15 -45 63q-14 77 -59.5 120.5t-121.5 43.5q-93 0 -141 -67t-48 -188v-213h413zM816 151v631h-413v-631q0 -43 18 -65t65 -22h246q48 0 66 21.5t18 65.5z" />
    <glyph glyph-name="f_f_i" unicode="ffi" horiz-adv-x="1697" 
d="M1576 64h84v-64h-1609v64h135q47 0 65 21.5t18 65.5v631h-218v64h218v195q0 162 94.5 250t247.5 88q88 0 157 -34t104 -100q90 134 293 134q142 0 228 -56t100 -167q2 -29 -15.5 -49.5t-44.5 -22.5q-11 0 -19.5 1.5t-15 7t-10.5 8.5t-8 13t-5 13t-4.5 16t-4.5 16
q-34 155 -200 155q-217 0 -217 -255v-213h553v-695q0 -87 74 -87zM816 846v195q0 18 2 46q-38 15 -45 63q-14 77 -59.5 120.5t-121.5 43.5q-93 0 -141 -67t-48 -188v-213h413zM816 151v631h-413v-631q0 -43 18 -65t65 -22h246q48 0 66 21.5t18 65.5zM1288 64q44 0 62 20
t18 67v631h-419v-631q0 -43 18 -65t66 -22h255z" />
    <glyph glyph-name="f_f_l" unicode="ffl" horiz-adv-x="1680" 
d="M1573 64h84v-64h-1606v64h135q47 0 65 21.5t18 65.5v631h-218v64h218v195q0 162 94.5 250t247.5 88q88 0 157 -34t104 -100q90 134 293 134q132 0 208 -65l126 79v-1242q0 -87 74 -87zM816 846v195q0 18 2 46q-38 15 -45 63q-14 77 -59.5 120.5t-121.5 43.5
q-93 0 -141 -67t-48 -188v-213h413zM1366 151v908q0 125 -46.5 190t-154.5 65q-216 0 -216 -255v-213h283v-64h-283v-631q0 -43 18 -65t66 -22h252q44 0 62.5 20.5t18.5 66.5zM816 151v631h-413v-631q0 -43 18 -65t65 -22h246q48 0 66 21.5t18 65.5z" />
    <glyph glyph-name=".notdef" horiz-adv-x="1024" 
d="M130 0v1352h762v-1352h-762zM184 54h655v1243h-655v-1243z" />
    <glyph glyph-name=".null" 
 />
    <glyph glyph-name="nonmarkingreturn" horiz-adv-x="682" 
 />
    <glyph glyph-name="space" unicode=" " horiz-adv-x="505" 
 />
    <glyph glyph-name="exclam" unicode="!" horiz-adv-x="567" 
d="M252 446l-29 725q0 10 -2.5 60.5t-2.5 76.5q0 67 65 67q66 0 66 -67q0 -37 -6 -131l-28 -731h-63zM283 -33q-47 0 -80.5 33.5t-33.5 81.5t33.5 81.5t80.5 33.5q46 0 79 -33.5t33 -81.5t-33 -81.5t-79 -33.5z" />
    <glyph glyph-name="quotedbl" unicode="&#x22;" horiz-adv-x="864" 
d="M212 713l-35 471q-7 75 -7 124q0 30 18 48.5t45 18.5q28 0 45.5 -18.5t17.5 -47.5q0 -24 -4 -68t-4 -57l-33 -471h-43zM610 713l-34 471q-7 75 -7 124q0 30 18 48.5t45 18.5q28 0 45.5 -18.5t17.5 -47.5q0 -24 -4 -68t-4 -57l-33 -471h-44z" />
    <glyph glyph-name="numbersign" unicode="#" horiz-adv-x="1421" 
d="M248 -36l90 425h-233v91h251l84 401h-335v90h353l89 419h90l-88 -419h453l89 419h91l-89 -419h222v-90h-239l-84 -401h323v-91h-341l-90 -425h-91l90 425h-454l-90 -425h-91zM447 480h454l83 401h-453z" />
    <glyph glyph-name="dollar" unicode="$" horiz-adv-x="1190" 
d="M651 771q53 -18 88.5 -32t82 -36t77.5 -43t64 -52t52.5 -65.5t32 -80t12.5 -97.5q0 -79 -26.5 -145.5t-69 -110t-96.5 -74.5t-107.5 -44.5t-104.5 -13.5q-94 0 -177 23l-32 -162h-54l36 180q-163 68 -279 262v160q0 21 9 33.5t24 12.5q33 0 39 -43q12 -122 68.5 -213.5
t152.5 -138.5l111 558q-76 29 -124 50.5t-102.5 55.5t-85 70.5t-51 89.5t-20.5 119q0 147 109 244.5t266 97.5q82 0 149 -21l23 118h55l-27 -137q121 -54 227 -205v-128q0 -47 -32 -47q-31 0 -40 43q-14 85 -59 152.5t-112 107.5l-96 -482zM287 1078q0 -59 19.5 -102
t63.5 -76t89.5 -54.5t123.5 -50.5l98 489q-62 25 -126 25q-122 0 -195 -67.5t-73 -163.5zM645 47q49 0 99 17t93.5 49.5t71 88t27.5 124.5q0 52 -17.5 94t-43.5 70.5t-72.5 55t-88 43.5t-105.5 39q-1 0 -2 1t-2 1l-112 -560q71 -23 152 -23z" />
    <glyph glyph-name="percent" unicode="%" horiz-adv-x="1691" 
d="M377 673q-62 0 -111 25t-77.5 63t-47 86.5t-25 90t-6.5 80.5q0 166 70.5 261.5t194.5 95.5q73 0 128 -31.5t84.5 -84.5t43.5 -112.5t14 -126.5q0 -42 -7.5 -86t-27 -91.5t-48.5 -84.5t-77 -61t-108 -24zM472 0l693 1352h80l-695 -1352h-78zM378 724q45 0 77.5 27
t48.5 72.5t22.5 90t6.5 93.5q0 317 -158 317q-154 0 -154 -302q0 -55 6.5 -102t22 -94t48.5 -74.5t80 -27.5zM1314 -23q-62 0 -111 25t-77.5 62.5t-47.5 86t-25.5 90.5t-6.5 81q0 166 71 261.5t195 95.5q73 0 128 -31.5t84.5 -84.5t43.5 -112.5t14 -126.5q0 -42 -7.5 -86
t-27 -91.5t-48.5 -84.5t-77 -61t-108 -24zM1315 27q45 0 77.5 27.5t48.5 73t22.5 90t6.5 93.5q0 317 -158 317q-154 0 -154 -302q0 -43 3.5 -81t14 -79.5t27 -71t45.5 -48.5t67 -19z" />
    <glyph glyph-name="ampersand" unicode="&#x26;" horiz-adv-x="1610" 
d="M487 -23q-170 0 -279 91.5t-109 230.5q0 138 94.5 234.5t324.5 216.5q-46 47 -71 74.5t-55 68.5t-43.5 81t-13.5 83q0 112 81.5 179t211.5 67q129 0 206 -62t77 -164q0 -182 -237 -316q116 -120 186.5 -207.5t141.5 -210.5q62 81 117 182.5t86 190.5q10 31 -4.5 49.5
t-48.5 18.5h-92v62h400v-62h-69q-41 0 -67.5 -28t-63.5 -94q-109 -242 -221 -379q65 -122 93 -156q52 -62 130 -62q83 0 126 59.5t45 171.5h65q0 -160 -76.5 -239.5t-194.5 -79.5q-43 0 -79.5 12t-60 27t-51 49.5t-41 56t-42.5 70.5q-87 -93 -205.5 -154t-260.5 -61z
M625 815q97 57 149.5 121.5t52.5 144.5q0 72 -53 115t-144 43q-86 0 -138.5 -41.5t-50.5 -109.5q1 -65 47.5 -127t136.5 -146zM539 65q208 0 373 182q-80 139 -150.5 227t-198.5 222q-180 -103 -232 -143q-87 -67 -105 -147q-6 -28 -6 -60q0 -111 89.5 -196t229.5 -85z" />
    <glyph glyph-name="quotesingle" unicode="'" horiz-adv-x="471" 
d="M214 713l-34 471q-7 75 -7 124q0 30 17.5 48.5t44.5 18.5q29 0 46.5 -18.5t17.5 -47.5q0 -25 -4.5 -72.5t-4.5 -52.5l-32 -471h-44z" />
    <glyph glyph-name="parenleft" unicode="(" horiz-adv-x="513" 
d="M398 -489q-145 197 -220.5 434t-75.5 491q0 105 14 215t45.5 235.5t92 252.5t144.5 233h85q-145 -186 -222.5 -432.5t-77.5 -502.5q0 -502 300 -926h-85z" />
    <glyph glyph-name="parenright" unicode=")" horiz-adv-x="513" 
d="M115 -489h-85q300 424 300 926q0 256 -77.5 502.5t-222.5 432.5h85q84 -106 144.5 -233t92 -252.5t45.5 -235.5t14 -215q0 -254 -75.5 -491t-220.5 -434z" />
    <glyph glyph-name="asterisk" unicode="*" horiz-adv-x="1097" 
d="M309 462q-28 0 -51 21t-23 48q0 9 2.5 18t9 19t13 18.5t19.5 21.5l23 23t29 28.5t33 31.5q40 37 128 132q20 21 14 34q-5 14 -30 20q-65 17 -162 33q-23 4 -81.5 11t-81.5 11q-33 2 -51.5 19.5t-18.5 46.5q0 28 19 51t47 23q39 0 172 -79q68 -39 166 -83q26 -12 37 -1
q12 12 9 33q-3 20 -8 56.5t-9.5 66.5t-9.5 57q-20 90 -25 171q-1 29 17 48.5t51 19.5q31 0 50 -18.5t18 -48.5q-4 -69 -23 -163q-9 -47 -27 -189q-4 -21 9 -34q8 -8 36 3q33 14 88 43.5t73 37.5q23 12 55 29.5t45 24t30.5 15t27 11t18.5 2.5q31 0 50 -23t19 -52t-19.5 -46
t-46.5 -19q-23 -5 -82.5 -12.5t-82.5 -12.5q-122 -20 -163 -31q-25 -7 -30 -20q-6 -16 11 -35q19 -19 47.5 -48t53 -53.5t51.5 -48.5q77 -78 93 -104q14 -22 14 -39q0 -27 -23.5 -47.5t-51.5 -20.5q-47 0 -69 72q-40 83 -62 121q-54 105 -80 149q-14 24 -28 24
q-15 0 -28 -24q-50 -91 -77 -147q-39 -79 -69 -136q-25 -59 -65 -59z" />
    <glyph glyph-name="plus" unicode="+" horiz-adv-x="1277" 
d="M590 121v507h-507v96h507v507h97v-507h507v-96h-507v-507h-97z" />
    <glyph glyph-name="comma" unicode="," horiz-adv-x="609" 
d="M172 -348l-11 64q97 26 150.5 94t53.5 127q0 20 -8 29.5t-21 6.5q-3 0 -18 -3.5t-26 -3.5q-41 0 -73 31t-32 79q0 46 32 81.5t84 35.5q68 0 106 -51.5t38 -135.5q0 -130 -80.5 -228t-194.5 -126z" />
    <glyph glyph-name="hyphen" unicode="-" horiz-adv-x="898" 
d="M153 348v116h592v-116h-592z" />
    <glyph glyph-name="period" unicode="." horiz-adv-x="602" 
d="M301 -33q-47 0 -80.5 33.5t-33.5 81.5t33.5 81.5t80.5 33.5q46 0 79 -33.5t33 -81.5t-33 -81.5t-79 -33.5z" />
    <glyph glyph-name="slash" unicode="/" horiz-adv-x="808" 
d="M-18 -33l717 1386h125l-715 -1386h-127z" />
    <glyph glyph-name="zero" unicode="0" horiz-adv-x="1051" 
d="M526 -23q-64 0 -122 23t-111.5 76t-92.5 132.5t-62 200.5t-23 271q0 337 111.5 515.5t299.5 178.5q87 0 160.5 -41.5t130.5 -124.5t89 -219t32 -313q0 -341 -110.5 -520t-301.5 -179zM529 42q271 0 271 619q0 326 -67.5 486.5t-206.5 160.5q-138 0 -205.5 -164.5
t-67.5 -464.5q0 -637 276 -637z" />
    <glyph glyph-name="one" unicode="1" horiz-adv-x="1051" 
d="M707 64h207v-64h-735v64h230q83 0 83 82v1102q-62 -62 -132.5 -86.5t-203.5 -24.5v62q160 2 241.5 38.5t143.5 136.5h85v-1226q0 -84 81 -84z" />
    <glyph glyph-name="two" unicode="2" horiz-adv-x="1051" 
d="M942 288h62l-112 -333h-63q8 23 2.5 34t-34.5 11h-686v82q295 254 447 465q198 256 198 461q0 132 -72 215.5t-195 83.5q-115 0 -192 -70.5t-77 -173.5q0 -70 41 -145l-85 -41q-50 93 -50 172q0 141 113 233t275 92q167 0 273.5 -99.5t106.5 -262.5q0 -109 -59 -225
t-176 -257q-107 -128 -197.5 -219t-228.5 -216h573q36 0 58 12.5t32 44.5z" />
    <glyph glyph-name="three" unicode="3" horiz-adv-x="1051" 
d="M446 -23q-140 0 -240.5 63.5t-126.5 150.5q-6 33 8 49t37 18q14 1 24.5 -3t18.5 -14t11 -16.5t10 -20.5q17 -31 36 -55t50 -50.5t76.5 -41.5t100.5 -15q161 0 264 110t103 273q0 69 -19 121t-47 80.5t-66.5 46t-70 22.5t-65.5 5q-58 0 -102 -24l-65 -41l-37 53l147 85
q275 154 275 326q0 97 -73.5 152t-187.5 55q-119 0 -196 -59.5t-77 -157.5q0 -57 36 -123l-90 -40q-43 71 -43 148q0 132 115 216t284 84q152 0 257 -69.5t105 -188.5q0 -191 -307 -351q163 2 263.5 -82t100.5 -241q0 -133 -72.5 -241t-188.5 -166t-248 -58z" />
    <glyph glyph-name="four" unicode="4" horiz-adv-x="1051" 
d="M424 0v64h138q48 0 65.5 21.5t17.5 66.5v323h-588v100l616 796h106v-822h208v-74h-208v-324q0 -41 18 -64t67 -23h123v-64h-563zM129 549h516v673h-12l-504 -656v-17z" />
    <glyph glyph-name="five" unicode="5" horiz-adv-x="1051" 
d="M533 889q83 0 156.5 -27.5t130.5 -79t90.5 -134.5t33.5 -187q0 -102 -32 -186t-82.5 -138t-116 -91t-130 -53t-127.5 -16q-111 0 -212.5 45t-142.5 132q-6 23 6 41t33 22q22 4 38 -9t31 -42q45 -58 116 -90.5t143 -32.5q139 0 237.5 113.5t98.5 304.5q0 103 -30 181.5
t-98 127.5t-168 49q-169 0 -241 -136h-82l27 669h646l-35 -111h-552l-20 -474q44 59 119.5 90.5t162.5 31.5z" />
    <glyph glyph-name="six" unicode="6" horiz-adv-x="1051" 
d="M552 -23q-196 0 -316 149t-120 434q0 397 136.5 605.5t358.5 208.5q106 0 186.5 -40.5t118.5 -111.5q6 -22 -4.5 -40.5t-32.5 -22.5q-34 -9 -65 38q-88 109 -230 109q-64 0 -115.5 -28t-86 -79t-59.5 -114t-38.5 -142.5t-20 -154t-7.5 -157.5q36 105 111 161t186 56
q83 0 154 -26t127 -77t88 -135t32 -192q0 -201 -116.5 -321t-286.5 -120zM550 42q127 0 197.5 97t70.5 261q0 184 -71 283.5t-215 99.5q-238 0 -276 -353q35 -388 294 -388z" />
    <glyph glyph-name="seven" unicode="7" horiz-adv-x="1051" 
d="M394 -19q-87 4 -29 126l503 1134h-597q-73 0 -89 -56l-46 -137h-62l114 349h63q-8 -23 -2.5 -34t34.5 -11h693l-506 -1297q-14 -41 -31.5 -58.5t-44.5 -15.5z" />
    <glyph glyph-name="eight" unicode="8" horiz-adv-x="1051" 
d="M527 -23q-90 0 -170 23.5t-143.5 69.5t-101 120.5t-37.5 168.5q0 79 26 143.5t71 106.5t96.5 69t111.5 41q-48 15 -89.5 39.5t-78.5 61.5t-58.5 91.5t-21.5 120.5q0 110 55 189.5t142.5 116t195.5 36.5q171 0 282.5 -90t111.5 -252q0 -65 -21 -119t-57.5 -91.5
t-77.5 -62.5t-88 -40q61 -15 112.5 -42t95.5 -69t69 -105.5t25 -142.5q0 -181 -128 -282t-322 -101zM526 747q127 0 194 75.5t67 211.5q0 126 -67.5 201t-194.5 75t-194.5 -75.5t-67.5 -198.5q0 -135 66.5 -212t196.5 -77zM526 41q151 0 232 88t81 229q0 155 -81 240
t-234 85q-151 0 -231 -86t-80 -228q0 -150 80 -239t233 -89z" />
    <glyph glyph-name="nine" unicode="9" horiz-adv-x="1051" 
d="M442 -23q-107 0 -186.5 40t-118.5 111q-6 22 4.5 41t32.5 23q33 8 65 -39q89 -109 230 -109q76 0 134.5 41.5t93.5 106.5t57.5 157t31.5 180.5t10 189.5q-73 -216 -297 -216q-83 0 -154 25.5t-127 76.5t-88 135t-32 192q0 201 116.5 321.5t286.5 120.5q196 0 316 -149.5
t120 -434.5q0 -396 -136.5 -604.5t-358.5 -208.5zM521 568q238 0 276 352q-35 388 -295 388q-127 0 -197 -97t-70 -261q0 -183 71 -282.5t215 -99.5z" />
    <glyph glyph-name="colon" unicode=":" horiz-adv-x="595" 
d="M298 641q-47 0 -81 33.5t-34 81.5q0 47 34 80.5t81 33.5t80 -33.5t33 -80.5q0 -48 -33 -81.5t-80 -33.5zM298 -33q-47 0 -81 33.5t-34 81.5t34 81.5t81 33.5t80 -33.5t33 -81.5t-33 -81.5t-80 -33.5z" />
    <glyph glyph-name="semicolon" unicode=";" horiz-adv-x="605" 
d="M300 641q-47 0 -80 33.5t-33 81.5q0 47 33 80.5t80 33.5t80 -33.5t33 -80.5q0 -48 -33 -81.5t-80 -33.5zM172 -348l-11 64q97 26 150 94t53 127q0 20 -7.5 29.5t-21.5 6.5q-3 0 -17.5 -3.5t-26.5 -3.5q-40 0 -72 31t-32 79q0 46 31.5 81.5t83.5 35.5q68 0 106 -51.5
t38 -135.5q0 -130 -80 -228t-194 -126z" />
    <glyph glyph-name="less" unicode="&#x3c;" horiz-adv-x="1152" 
d="M1020 1146v-105l-832 -366l832 -367v-105l-922 412v119z" />
    <glyph glyph-name="equal" unicode="=" horiz-adv-x="1593" 
d="M241 865v97h1110v-97h-1110zM241 390v96h1110v-96h-1110z" />
    <glyph glyph-name="greater" unicode="&#x3e;" horiz-adv-x="1152" 
d="M132 1146l922 -412v-119l-922 -412v105l832 367l-832 366v105z" />
    <glyph glyph-name="question" unicode="?" horiz-adv-x="880" 
d="M412 1375q168 0 276 -109.5t108 -265.5q0 -158 -93.5 -255t-223.5 -97q-54 0 -103 16v-218h-69v295h56q36 -21 86 -21q100 0 157 83t57 189q0 74 -29 145t-90.5 122t-140.5 51t-144 -45t-90 -126q-14 -56 -57 -53q-19 2 -33 17t-11 38q26 100 120.5 167t223.5 67z
M342 197q45 0 78 -33.5t33 -81.5t-33 -81.5t-78 -33.5q-47 0 -80.5 33.5t-33.5 81.5t33.5 81.5t80.5 33.5z" />
    <glyph glyph-name="at" unicode="@" horiz-adv-x="1965" 
d="M1011 -449q-246 0 -448.5 107t-321 302t-118.5 439q0 209 69 389.5t191 309.5t297.5 203t381.5 74q334 0 526 -176t192 -470q0 -107 -26 -214.5t-76 -202t-115.5 -168t-151.5 -116t-178 -42.5q-220 0 -176 235q-155 -237 -307 -237q-115 0 -167 118t-21 283
q19 150 90 281.5t165.5 206.5t186.5 75q93 0 141 -66t54 -173l61 212l109 3l-204 -704q-24 -86 1 -134.5t104 -48.5q80 0 164 58t150 151t108 221t42 259q0 276 -181.5 438.5t-482.5 162.5q-194 0 -359.5 -71.5t-280.5 -196.5t-180 -298.5t-65 -373.5q0 -172 65 -321
t176.5 -251t263 -160t321.5 -58q166 0 321.5 62t283.5 188t195 299h48q-48 -125 -124 -227t-162.5 -169.5t-185.5 -113t-192 -65.5t-184 -20zM801 72q66 0 140 70.5t130.5 184.5t75.5 233q28 149 -7.5 243t-123.5 94q-58 0 -116 -49.5t-102 -126.5t-76.5 -161.5
t-47.5 -162.5q-27 -138 10.5 -231.5t116.5 -93.5z" />
    <glyph glyph-name="A" unicode="A" horiz-adv-x="1390" 
d="M1296 65l74 -1v-64h-496v64l121 1q32 1 47 18.5t5 47.5l-116 321h-565l-118 -311q-13 -35 6.5 -55.5t55.5 -20.5l132 -1v-64h-423v64l54 3q83 28 110 102l465 1206h97l441 -1206q17 -46 42 -72t68 -32zM390 517h518l-236 656h-33z" />
    <glyph glyph-name="B" unicode="B" horiz-adv-x="1335" 
d="M902 724q65 -15 121.5 -43t106 -70.5t77 -106.5t26.5 -141q-2 -78 -32.5 -140.5t-79.5 -103.5t-114.5 -68t-134.5 -38.5t-143 -11.5h-659v64h106q78 0 78 96v1029q0 95 -72 95h-112v67l674 -2q208 0 321 -86.5t108 -237.5q-3 -126 -81 -201t-190 -101zM678 1289h-280
v-533h296q166 0 243.5 62.5t82.5 198.5q4 133 -85 202.5t-257 69.5zM1077 373q2 84 -25.5 145.5t-80.5 98.5t-123 54.5t-158 17.5h-292v-529q0 -38 16.5 -64.5t54.5 -26.5h250q170 0 261.5 84t96.5 220z" />
    <glyph glyph-name="C" unicode="C" horiz-adv-x="1510" 
d="M738 -23q-185 0 -333 97.5t-227 256t-79 343.5t79.5 344.5t228 258t334.5 98.5q152 0 286 -82.5t220 -233.5l13 260h63l4 -468h-62q-19 86 -64 166t-108.5 144.5t-151 103.5t-184.5 39q-93 0 -174 -34.5t-139.5 -94.5t-100.5 -141t-63 -176t-21 -196q0 -177 62 -317
t177 -219t263 -79q178 0 320.5 125.5t188.5 336.5h64v-476h-64l-19 264q-63 -138 -201 -229t-312 -91z" />
    <glyph glyph-name="D" unicode="D" horiz-adv-x="1553" 
d="M62 0v64h128q77 0 77 96v1033q0 96 -78 96h-127v63h623q234 0 406 -76t268.5 -229.5t96.5 -371.5q0 -221 -97 -374t-268 -227t-406 -74h-623zM507 67h256q162 0 284 79.5t185.5 217t63.5 312.5q0 150 -45 268.5t-124.5 193.5t-184.5 114t-228 39h-303v-1118
q0 -53 19.5 -79.5t76.5 -26.5z" />
    <glyph glyph-name="E" unicode="E" horiz-adv-x="1388" 
d="M1209 447l63 -3l-32 -444h-1180v64h119q84 0 84 96v1032q0 49 -20 72.5t-72 23.5h-111v64h1125l21 -349l-63 -3l-23 199q-14 50 -40.5 67.5t-76.5 17.5h-596v-541h392q90 0 90 71v119h65v-460h-65v124q0 78 -89 78h-393v-503q0 -52 18.5 -78.5t69.5 -26.5h535
q66 0 95.5 21.5t40.5 69.5z" />
    <glyph glyph-name="F" unicode="F" horiz-adv-x="1256" 
d="M62 0v64h110q51 0 71 23.5t20 72.5v1032q0 50 -20.5 73t-73.5 23h-109v64h1119l18 -352l-65 -3l-17 194q-10 39 -32 61t-42.5 27t-48.5 5h-585v-540h385q87 0 87 84v106h64v-462h-64v115q0 90 -88 90h-384v-517q0 -48 20.5 -72t74.5 -24h135v-64h-575z" />
    <glyph glyph-name="G" unicode="G" horiz-adv-x="1563" 
d="M761 -23q-147 0 -272.5 56t-210 151t-132 221t-47.5 266q0 190 83 351t231 257t327 96q169 0 303.5 -88t203.5 -226l13 268h62l4 -459h-63q-21 84 -64 159.5t-105 136.5t-148 97.5t-183 36.5q-118 0 -215.5 -53.5t-159.5 -143t-95.5 -203t-33.5 -236.5
q0 -124 33.5 -234.5t96 -196.5t161.5 -136t221 -50q112 0 201 35.5t152 116t83 199.5q0 50 -22.5 73t-72.5 23h-388v64h780v-64h-81q-72 0 -72 -99v-418h-67l-45 240q-91 -132 -207.5 -186t-270.5 -54z" />
    <glyph glyph-name="H" unicode="H" horiz-adv-x="1679" 
d="M62 0v64h152q49 0 69 24t20 72v1032q0 48 -19.5 72t-69.5 24h-152v64h623v-64h-151q-49 0 -68.5 -24.5t-19.5 -71.5v-442h787v442q0 47 -19.5 71.5t-68.5 24.5h-151v64h623v-64h-151q-50 0 -69.5 -24t-19.5 -72v-1032q0 -49 19.5 -72.5t69.5 -23.5h151v-64h-623v64h156
q46 0 64.5 25t18.5 71v521h-787v-521q0 -46 18.5 -71t64.5 -25h156v-64h-623z" />
    <glyph glyph-name="I" unicode="I" horiz-adv-x="750" 
d="M62 0v64h147q53 0 73.5 23.5t20.5 72.5v1033q0 49 -20.5 72.5t-73.5 23.5h-147v64h627v-64h-147q-54 0 -75 -22.5t-21 -73.5v-1033q0 -51 21 -73.5t75 -22.5h147v-64h-627z" />
    <glyph glyph-name="J" unicode="J" horiz-adv-x="787" 
d="M92 -497q-50 0 -99.5 9t-97 29.5t-84 50.5t-58.5 75.5t-22 101.5q0 34 25.5 58t64.5 24q35 0 59 -20t24 -55q0 -16 -19 -42.5t-12 -45.5q24 -64 89.5 -92.5t142.5 -28.5q159 0 229.5 107.5t70.5 332.5v1185q0 46 -19.5 71t-74.5 25h-280v64h724v-64h-116
q-50 0 -70.5 -23.5t-20.5 -72.5v-1151q0 -89 -10.5 -161.5t-41 -145t-80 -121.5t-132 -79.5t-192.5 -30.5z" />
    <glyph glyph-name="K" unicode="K" horiz-adv-x="1629" 
d="M61 0v64h142q47 0 67 22t20 74v1032q0 50 -20.5 73t-71.5 23h-137v64h615v-64h-151q-53 0 -72.5 -25t-19.5 -73v-632l594 611q45 45 45 75q0 21 -16 32.5t-42 11.5h-123v64h590v-64h-155q-54 0 -95 -26t-90 -75l-305 -314l473 -707q35 -55 65.5 -78.5t73.5 -23.5h153v-64
h-628v64h126q31 0 50 11.5t19 33.5q0 17 -47 89l-387 580l-301 -314v-304q0 -49 18.5 -71.5t61.5 -23.5l157 -1l1 -64h-610z" />
    <glyph glyph-name="L" unicode="L" horiz-adv-x="1315" 
d="M62 0v64h151q49 0 70 21.5t21 74.5v1032q0 49 -20 72.5t-72 23.5h-150v64h629v-64h-150q-53 0 -73.5 -22.5t-20.5 -73.5v-1023q0 -53 19.5 -77.5t75.5 -24.5h447q136 0 166 129l28 253l62 -3l-32 -446h-1151z" />
    <glyph glyph-name="M" unicode="M" horiz-adv-x="1984" 
d="M1773 64h152v-64h-620v64h137q52 0 73 22.5t21 73.5v1060h-22l-552 -1220h-79l-540 1220h-15v-1034q0 -122 92 -122h112v-64h-470v64h111q89 0 89 123v1004q0 47 -19 72t-71 25h-110v64h374l528 -1189l539 1189h421v-64h-151q-54 0 -74 -24.5t-20 -71.5v-1032
q0 -46 19.5 -71t74.5 -25z" />
    <glyph glyph-name="N" unicode="N" horiz-adv-x="1560" 
d="M1049 1352h476v-64h-111q-44 0 -65.5 -32.5t-21.5 -83.5v-1195h-76l-919 1245v-1039q0 -119 96 -119h109v-64h-478v64h111q29 0 49.5 13t29 34t11.5 37.5t3 34.5v995q0 51 -24.5 80.5t-72.5 29.5h-109v64h358l844 -1149v970q0 27 -7 51t-29 44t-58 20h-116v64z" />
    <glyph glyph-name="O" unicode="O" horiz-adv-x="1496" 
d="M749 -23q-193 0 -340.5 90t-227 249.5t-79.5 362.5q0 112 27.5 216t82.5 191t131.5 151.5t179.5 101t222 36.5q123 0 228 -37t181.5 -102t131 -153t81.5 -191.5t27 -215.5q0 -144 -44.5 -271t-125.5 -222t-204 -150.5t-271 -55.5zM745 47q224 0 354.5 167t130.5 463
t-132 461.5t-351 165.5q-150 0 -260 -80.5t-166 -220t-56 -320.5q0 -128 31 -241.5t89 -202t151 -140.5t209 -52z" />
    <glyph glyph-name="P" unicode="P" horiz-adv-x="1225" 
d="M61 0v64h112q50 0 70.5 23t20.5 73v1033q0 46 -19.5 71t-74.5 25h-112v63h620q227 0 355 -88.5t128 -271.5q0 -177 -117.5 -271.5t-332.5 -94.5h-304v-466q0 -46 20 -71t75 -25h111v-64h-552zM407 693h293q150 0 229 74t79 223q0 147 -77 223.5t-230 76.5h-294v-597z" />
    <glyph glyph-name="Q" unicode="Q" horiz-adv-x="1496" 
d="M749 -23q-193 0 -340.5 90t-227 249.5t-79.5 362.5q0 112 27.5 216t82.5 191t131.5 151.5t179.5 101t222 36.5q123 0 228 -37t181.5 -102t131 -153t81.5 -191.5t27 -215.5q0 -144 -44.5 -271t-125.5 -222t-204 -150.5t-271 -55.5zM745 47q224 0 354.5 167t130.5 463
t-132 461.5t-351 165.5q-150 0 -260 -80.5t-166 -220t-56 -320.5q0 -128 31 -241.5t89 -202t151 -140.5t209 -52zM1291 -444q-48 0 -92.5 10.5t-75.5 23.5t-69 39t-57.5 42.5t-55.5 48.5q-139 123 -244 123q-54 0 -117.5 -35t-150.5 -108l-38 44q99 85 174 124.5t155 39.5
q124 0 290 -116q87 -60 154.5 -91.5t146.5 -31.5q168 0 258 104l61 -69q-117 -148 -339 -148z" />
    <glyph glyph-name="R" unicode="R" horiz-adv-x="1493" 
d="M59 0v64h111q52 0 73 22.5t21 73.5v1033q0 49 -20 72t-70 23h-115v64h679q208 0 328 -94t120 -267q0 -133 -81 -220.5t-225 -119.5q38 -26 70.5 -63t73.5 -100l241 -357q21 -34 64 -50.5t78 -16.5h67v-64h-283l-302 464q-61 96 -111.5 128.5t-124.5 32.5h-246v-465
q0 -50 20.5 -73t72.5 -23h110v-64h-551zM407 693h293q159 0 248 76t89 223q0 141 -86 217t-246 76h-298v-592z" />
    <glyph glyph-name="S" unicode="S" horiz-adv-x="1161" 
d="M649 -23q-143 0 -256.5 62t-172.5 179l-11 -197h-67v465h67q9 -193 121.5 -316t306.5 -123q50 0 99.5 17t93 49.5t71 88t27.5 124.5q0 52 -17.5 94t-43.5 70.5t-72.5 55t-87.5 43.5t-105 39q-187 70 -257 111q-139 80 -171 202q-11 42 -11 93q0 147 109.5 244.5
t266.5 97.5q105 0 199.5 -53t150.5 -145l12 175h64v-397h-64q-12 156 -115 254.5t-238 98.5q-123 0 -196 -67.5t-73 -163.5q0 -51 20 -93t38.5 -66t80 -55.5t88 -42t119.5 -43.5q4 -2 6 -2.5t5.5 -2t6.5 -2.5q53 -18 88.5 -32t82.5 -36t78 -43t64 -52t52.5 -65.5t32 -80
t12.5 -97.5q0 -79 -26.5 -145.5t-69 -110t-96.5 -74.5t-107.5 -44.5t-104.5 -13.5z" />
    <glyph glyph-name="T" unicode="T" horiz-adv-x="1392" 
d="M393 0v64h137q54 0 74.5 25t20.5 71v1124h-360q-54 0 -89 -24t-41 -96l-11 -175l-64 2l15 361h1242l15 -361l-64 -2l-12 177q-14 71 -44.5 94.5t-86.5 23.5h-357v-1124q0 -47 19.5 -71.5t74.5 -24.5h138v-64h-607z" />
    <glyph glyph-name="U" unicode="U" horiz-adv-x="1521" 
d="M766 -23q-264 0 -400 132t-136 386v697q0 48 -20 72t-73 24h-108v64h600v-64h-163q-52 0 -72.5 -23t-20.5 -73v-697q0 -444 423 -444q229 0 334 115.5t105 340.5v671q0 50 -24 80t-74 30h-98v64h440v-64h-87q-45 0 -67 -30t-22 -79v-673q0 -529 -537 -529z" />
    <glyph glyph-name="V" unicode="V" horiz-adv-x="1456" 
d="M991 1352h446v-64h-76q-41 0 -67.5 -28.5t-57.5 -106.5l-436 -1178h-100l-479 1201q-27 65 -49.5 88.5t-65.5 23.5h-87v64h593v-64h-180q-105 0 -61 -108l419 -1050l381 1030q47 128 -60 128h-120v64z" />
    <glyph glyph-name="W" unicode="W" horiz-adv-x="2006" 
d="M1554 1352h431v-64h-59q-40 0 -63.5 -32t-42.5 -102l-319 -1177h-126l-364 1230l-336 -1230h-127l-361 1211q-16 57 -37.5 78.5t-60.5 21.5h-68v64h558v-64h-187q-89 0 -57 -107l313 -1057h5l336 1241h113l368 -1239l2 -2l274 1021q38 143 -59 143h-133v64z" />
    <glyph glyph-name="X" unicode="X" horiz-adv-x="1663" 
d="M64 0v64h74q75 0 146 84l471 525l-439 516q-45 58 -73.5 78.5t-69.5 20.5h-125v64h621v-64h-139q-49 0 -57.5 -28t26.5 -72l354 -412l364 406q40 46 29.5 76t-63.5 30h-152v64h527v-64h-90q-45 0 -76.5 -22t-74.5 -72l-421 -470l469 -554q42 -55 74.5 -80.5t76.5 -25.5
h110v-64h-662v64h175q60 0 71.5 30t-29.5 83l-383 443l-399 -445q-40 -46 -27 -78.5t70 -32.5h172v-64h-550z" />
    <glyph glyph-name="Y" unicode="Y" horiz-adv-x="1410" 
d="M394 0v64h172q52 0 71.5 23.5t19.5 71.5v318l-440 725q-26 45 -51 65.5t-59 20.5h-88v64h536v-64h-127q-47 0 -56 -31t19 -71l382 -626l372 607q31 53 18.5 87t-65.5 34h-102v64h395v-64h-39q-58 0 -109 -88l-442 -716v-324q0 -49 19.5 -72.5t71.5 -23.5h172v-64h-670z
" />
    <glyph glyph-name="Z" unicode="Z" horiz-adv-x="1383" 
d="M1225 434l64 -3l-37 -431h-1160v94l985 1203h-715q-74 0 -113.5 -20.5t-53.5 -78.5l-27 -196l-63 3l36 359h1097v-90l-992 -1207h786q63 0 101.5 21.5t58.5 84.5z" />
    <glyph glyph-name="bracketleft" unicode="[" horiz-adv-x="661" 
d="M195 -474v1826h441v-63h-234q-47 0 -65 -20.5t-18 -60.5v-1544q0 -37 19 -56.5t68 -19.5h230v-62h-441z" />
    <glyph glyph-name="backslash" unicode="\" horiz-adv-x="808" 
d="M826 -33h-127l-715 1386h125z" />
    <glyph glyph-name="bracketright" unicode="]" horiz-adv-x="661" 
d="M466 -474h-441v62h230q49 0 68 19.5t19 56.5v1544q0 40 -18 60.5t-65 20.5h-234v63h441v-1826z" />
    <glyph glyph-name="asciicircum" unicode="^" horiz-adv-x="1072" 
d="M981 636h-113l-331 595l-336 -595h-110l404 717h85z" />
    <glyph glyph-name="underscore" unicode="_" horiz-adv-x="1352" 
d="M152 -177v88h1048v-88h-1048z" />
    <glyph glyph-name="grave" unicode="`" horiz-adv-x="510" 
d="M404 1030l-385 318v4h202l239 -322h-56z" />
    <glyph glyph-name="a" unicode="a" horiz-adv-x="1036" 
d="M300 -20q-104 0 -154 51t-50 136q0 93 58.5 152.5t174.5 115.5l340 166q-7 118 -55 162t-156 44q-59 0 -103.5 -13t-72 -37t-43.5 -49t-27 -58q-12 -57 -63 -53q-27 1 -39 18.5t-8 41.5q10 41 34 76.5t67 67.5t115 51t166 19q158 0 239.5 -64.5t80.5 -227.5l-1 -356
q0 -89 19 -128t60 -39q78 0 82 128h55q-1 -101 -48.5 -152.5t-128.5 -51.5q-79 0 -117 49.5t-49 153.5q-183 -203 -376 -203zM349 56q82 0 164.5 55t156.5 153v270l-310 -164q-76 -41 -105.5 -83.5t-29.5 -97.5q0 -133 124 -133z" />
    <glyph glyph-name="b" unicode="b" horiz-adv-x="1088" 
d="M590 -23q-88 0 -169 36t-144 101l-59 -121h-55v1202q0 46 -18.5 67.5t-60.5 14.5l-96 -24l-9 63l318 70v-635q124 120 295 120q173 0 295.5 -128t122.5 -318q0 -127 -58 -230.5t-154 -160.5t-208 -57zM559 52q93 0 165.5 56.5t109 140.5t36.5 175q0 152 -87.5 262
t-222.5 110q-79 0 -148 -37.5t-115 -95.5v-472q46 -62 114.5 -100.5t147.5 -38.5z" />
    <glyph glyph-name="c" unicode="c" horiz-adv-x="954" 
d="M513 -25q-189 0 -311.5 124t-122.5 319q0 198 128 325.5t319 127.5q116 0 212.5 -50t127.5 -145q5 -28 -7.5 -48.5t-36.5 -22.5q-29 -2 -43.5 16t-24.5 48q-74 138 -233 138q-95 0 -166 -55.5t-103.5 -137t-32.5 -173.5q0 -182 86 -288t231 -106q108 0 184 58.5
t112 147.5l58 -26q-50 -115 -143 -183.5t-234 -68.5z" />
    <glyph glyph-name="d" unicode="d" horiz-adv-x="1116" 
d="M485 -23q-176 0 -290.5 128.5t-114.5 314.5q0 110 39 199t101 142.5t133 81.5t142 28q77 0 156 -30t139 -92v445q0 44 -19.5 67t-62.5 15l-94 -24l-8 63l318 71v-1250q0 -70 55 -70h92v-66h-268l-6 108q-146 -131 -312 -131zM526 56q74 0 146 35.5t118 104.5v472
q-46 59 -113.5 92t-144.5 33q-139 0 -225.5 -106.5t-86.5 -258.5q0 -158 87 -265t219 -107z" />
    <glyph glyph-name="e" unicode="e" horiz-adv-x="978" 
d="M502 -25q-182 0 -301.5 126.5t-119.5 324.5q0 196 119.5 320.5t297.5 124.5q78 0 150 -28.5t129.5 -81t92.5 -136.5t37 -187h-686q0 -76 19.5 -145t56.5 -125.5t97.5 -89.5t137.5 -33q93 0 167.5 51t117.5 140l56 -30q-52 -106 -150 -168.5t-221 -62.5zM222 500h556
q-14 128 -87 217t-192 89q-80 0 -142 -44.5t-94.5 -112.5t-40.5 -149z" />
    <glyph glyph-name="f" unicode="f" horiz-adv-x="737" 
d="M51 0v64h135q47 0 65 21.5t18 65.5v631h-218v64h218v195q0 162 94.5 250t247.5 88q115 0 194.5 -57t93.5 -166q2 -29 -15.5 -49.5t-43.5 -22.5q-25 -1 -43.5 17t-23.5 49q-14 77 -59.5 120.5t-121.5 43.5q-93 0 -141 -67t-48 -188v-213h283v-64h-283v-631q0 -43 18 -65
t65 -22h200v-64h-635z" />
    <glyph glyph-name="g" unicode="g" horiz-adv-x="1057" 
d="M482 -501q-412 0 -412 232q0 88 55 140t163 74q-88 17 -134.5 57t-46.5 116q0 156 218 204q-108 34 -159.5 108.5t-51.5 152.5q0 125 103 206.5t266 81.5q185 0 294 -115q83 111 171 111q73 0 98 -77q5 -21 -2.5 -35.5t-25.5 -15.5q-21 -1 -39 25q-21 33 -55 33
q-29 0 -60.5 -24.5t-52.5 -62.5q34 -58 34 -127q0 -92 -55 -160t-137 -99.5t-178 -33.5q-128 -1 -200.5 -35.5t-72.5 -103.5q0 -44 31.5 -66.5t93.5 -31.5q54 -8 268 -8q194 0 288 -50.5t94 -177.5q0 -143 -133.5 -230.5t-361.5 -87.5zM481 357q104 0 170 63t66 166
q0 82 -65.5 151.5t-170.5 69.5q-107 0 -172 -69t-65 -153q0 -86 65 -157t172 -71zM487 -438q175 0 288.5 59.5t113.5 169.5q0 51 -27 81t-99.5 46t-201.5 16q-213 -1 -308 -50.5t-95 -148.5q0 -93 85.5 -133t243.5 -40z" />
    <glyph glyph-name="h" unicode="h" horiz-adv-x="1159" 
d="M25 0v64h97q43 0 60.5 22t17.5 65v1042q0 44 -19 66t-61 15l-95 -24l-9 63l318 73v-781q65 113 159 189.5t199 76.5q140 0 209.5 -77t69.5 -239v-404q0 -87 75 -87h95v-64h-483v64h110q69 0 69 88v401q0 121 -42.5 177.5t-143.5 56.5q-53 0 -104 -29t-91.5 -76t-71 -99.5
t-50.5 -106.5v-325q0 -39 16.5 -63t50.5 -24h106v-64h-482z" />
    <glyph glyph-name="i" unicode="i" horiz-adv-x="573" 
d="M312 1153q-44 0 -72 31.5t-28 69.5q0 41 29.5 71t70.5 30t70 -30t29 -71q0 -45 -29.5 -73t-69.5 -28zM62 0v64h102q44 0 61.5 20t17.5 67v536q0 48 -19.5 68t-64.5 13l-97 -24l-8 63l323 71v-727q0 -87 75 -87h83v-64h-473z" />
    <glyph glyph-name="j" unicode="j" horiz-adv-x="504" 
d="M269 1153q-44 0 -71.5 31.5t-27.5 69.5q0 41 29.5 71t69.5 30q41 0 70 -30t29 -71q0 -45 -29 -73t-70 -28zM-4 -511q-110 0 -181 54t-85 154q-2 26 13 43.5t39 19.5q44 2 56 -51q32 -154 178 -154q96 0 143 72.5t47 200.5v858q0 46 -20.5 67.5t-69.5 13.5l-95 -24l-7 64
l326 71v-997q0 -197 -82.5 -294.5t-261.5 -97.5z" />
    <glyph glyph-name="k" unicode="k" horiz-adv-x="1225" 
d="M23 0v64h101q42 0 59 21.5t17 65.5v1044q0 96 -82 81l-95 -24l-8 64l319 70v-1029l430 335q44 35 40 62.5t-55 27.5h-56v64h422v-64h-73q-66 0 -126 -53l-217 -168l344 -416q58 -81 103 -81h62v-64h-474v64h124q40 0 44.5 27t-23.5 62l-278 335l-267 -211v-126
q0 -87 64 -87h112v-64h-487z" />
    <glyph glyph-name="l" unicode="l" horiz-adv-x="533" 
d="M23 0v64h101q42 0 59 21.5t17 65.5v1044q0 96 -82 81l-95 -24l-8 64l319 70v-1235q0 -87 64 -87h112v-64h-487z" />
    <glyph glyph-name="m" unicode="m" horiz-adv-x="1873" 
d="M64 0v64h98q43 0 60 21.5t17 65.5v529q0 45 -18.5 67t-60.5 14l-96 -24l-8 64l317 73v-269q71 112 172.5 189t206.5 77q126 0 192.5 -63t78.5 -198q72 111 174 186t207 75q140 0 209.5 -77t69.5 -239v-404q0 -87 76 -87h94v-64h-483v64h110q69 0 69 88v401
q0 121 -43 177.5t-144 56.5t-192.5 -89.5t-138.5 -203.5v-343q0 -87 75 -87h95v-64h-483v64h110q69 0 69 88v401q0 121 -43 177.5t-144 56.5q-72 0 -143.5 -50.5t-119.5 -119t-74 -141.5v-325q0 -39 16.5 -63t50.5 -24h114v-64h-490z" />
    <glyph glyph-name="n" unicode="n" horiz-adv-x="1200" 
d="M64 0v64h98q43 0 60 21.5t17 65.5v529q0 45 -18.5 67t-60.5 14l-96 -24l-8 64l317 73v-269q64 113 158.5 189.5t199.5 76.5q140 0 210 -77t70 -239v-404q0 -87 75 -87h95v-64h-483v64h110q69 0 69 88v401q0 121 -43 177.5t-144 56.5q-69 0 -135.5 -50.5t-111 -118.5
t-70.5 -142v-325q0 -39 16.5 -63t50.5 -24h107v-64h-483z" />
    <glyph glyph-name="o" unicode="o" horiz-adv-x="1035" 
d="M517 -25q-30 0 -63.5 4.5t-77 18t-83.5 34.5t-79 56.5t-68 80.5t-46.5 111t-17.5 145q0 93 27 170t71.5 127t102 84.5t116.5 49.5t118 15q56 0 113.5 -14t116.5 -48t104 -83.5t73.5 -127.5t28.5 -173q0 -102 -31 -183.5t-78 -130t-107.5 -80.5t-114.5 -44t-105 -12z
M518 40q49 0 98.5 22.5t94.5 66.5t73 121t28 174q0 176 -84 279t-211 103q-125 0 -210 -103t-85 -274q0 -99 28 -177t73 -122.5t95 -67t100 -22.5z" />
    <glyph glyph-name="p" unicode="p" horiz-adv-x="1129" 
d="M29 -500v64h102q41 0 57.5 22t16.5 65v1037q0 45 -20 66t-67 15l-89 -24l-9 63l310 70l7 -140q61 63 140 98t165 35q168 0 289 -127t121 -318q0 -192 -123.5 -321.5t-293.5 -129.5q-169 0 -296 125v-449q0 -43 18 -65t66 -22h110v-64h-504zM598 53q94 0 168 57.5t110 140
t36 170.5q0 98 -38 182.5t-110 137t-162 52.5q-77 0 -147 -39t-116 -104v-467q49 -62 118.5 -96t140.5 -34z" />
    <glyph glyph-name="q" unicode="q" horiz-adv-x="1087" 
d="M596 -500v64h110q47 0 65 22t18 65v447q-125 -123 -295 -123q-176 0 -296 127.5t-120 316.5q0 100 34.5 185.5t92.5 143.5t134 90.5t159 32.5q175 0 310 -133l60 119h55v-1206q0 -43 17.5 -65t60.5 -22h99v-64h-504zM526 51q69 0 139.5 33.5t123.5 100.5v474
q-48 63 -115.5 100.5t-145.5 37.5q-133 0 -221.5 -104t-88.5 -270q0 -94 36.5 -178t108.5 -139t163 -55z" />
    <glyph glyph-name="r" unicode="r" horiz-adv-x="879" 
d="M64 0v64h102q40 0 56.5 22.5t16.5 64.5v531q0 46 -18 67.5t-57 14.5l-100 -24l-9 63l303 75l11 -259q111 252 316 252q70 0 115.5 -35.5t66.5 -92.5q6 -26 -6 -48.5t-40 -24.5q-34 -4 -59 35q-44 70 -127 70q-84 0 -145.5 -61.5t-89 -149.5t-27.5 -185v-228q0 -45 18 -66
t64 -21h81v-64h-472z" />
    <glyph glyph-name="s" unicode="s" horiz-adv-x="998" 
d="M509 514q56 -7 95 -14t89.5 -20t84 -31.5t64.5 -45.5t46.5 -66t15.5 -88q0 -131 -105.5 -202.5t-267.5 -71.5q-109 0 -194.5 31t-132.5 81l-29 -112h-49l-2 264h60q43 -98 135 -149t215 -51q118 0 192.5 47t74.5 131q0 37 -17.5 65t-41.5 44t-68.5 28.5t-78 18
t-91.5 12.5q-51 7 -81.5 11.5t-76.5 14.5t-74 21t-60.5 29.5t-50.5 40.5t-30.5 54.5t-12.5 71.5q0 115 91.5 179t252.5 64q202 0 304 -105l23 105h48l3 -254h-52q-30 89 -114 139.5t-215 50.5q-111 0 -176.5 -37t-65.5 -109q0 -27 9 -47.5t30 -35t42 -24t61 -17.5t68.5 -12
t81.5 -11z" />
    <glyph glyph-name="t" unicode="t" horiz-adv-x="765" 
d="M473 -25q-121 0 -187.5 76.5t-66.5 225.5v505h-203v64h135q62 0 100.5 37.5t38.5 99.5v158h62v-295h332v-64h-332v-488q0 -122 38 -183t121 -61q58 0 98.5 34t49.5 102h56q-7 -74 -46.5 -123.5t-89 -68.5t-106.5 -19z" />
    <glyph glyph-name="u" unicode="u" horiz-adv-x="1167" 
d="M469 -25q-140 0 -210 77t-70 239v404q0 87 -75 87h-94v64h303v-553q0 -121 43 -177t144 -56q53 0 104 28.5t91.5 75.5t71 99.5t50.5 106.5v325q0 39 -16.5 63t-49.5 24h-108v64h308v-694q0 -43 18.5 -65t60.5 -15l96 24l8 -64l-317 -55v265q-64 -113 -158.5 -190
t-199.5 -77z" />
    <glyph glyph-name="v" unicode="v" horiz-adv-x="1045" 
d="M747 846h300v-64h-31q-30 0 -51.5 -21.5t-43.5 -71.5l-344 -707h-97l-325 716q-22 50 -42 67t-51 17h-66v64h445v-64h-100q-85 0 -39 -98l262 -585l281 583q45 100 -34 100h-64v64z" />
    <glyph glyph-name="w" unicode="w" horiz-adv-x="1615" 
d="M1273 846h344v-64h-58q-57 0 -86 -79l-274 -723h-110l-268 748l-274 -748h-109l-266 723q-16 44 -36 61.5t-52 17.5h-86v64h465v-64h-100q-44 0 -56 -21t4 -65l217 -593l280 758h98l273 -760l216 576q21 53 10 79t-62 26h-70v64z" />
    <glyph glyph-name="x" unicode="x" horiz-adv-x="1131" 
d="M47 0v64h39q55 0 118 61l296 292l-291 294q-66 71 -109 71h-58v64h457v-64h-83q-44 0 -49.5 -23t25.5 -57l200 -202l202 200q22 23 27 41.5t-8 29.5t-43 11h-51v64h336v-64h-45q-47 0 -113 -66l-264 -259l299 -302q80 -91 126 -91h44v-64h-447v64h82q47 0 54.5 23
t-23.5 56l-225 230l-229 -225q-35 -35 -31 -59.5t51 -24.5h80v-64h-367z" />
    <glyph glyph-name="y" unicode="y" horiz-adv-x="1056" 
d="M214 -469q-32 -2 -51 13.5t-20 41.5q-1 27 17 40t45 19q96 22 166.5 78.5t127.5 179.5l41 88l-404 718q-23 42 -41.5 57.5t-47.5 15.5h-52v64h413v-64h-79q-42 0 -50 -26t14 -63l313 -563l251 544q45 108 -37 108h-92v64h330v-64h-26q-32 0 -53 -19.5t-44 -72.5
l-381 -827q-75 -163 -153.5 -239t-186.5 -93z" />
    <glyph glyph-name="z" unicode="z" horiz-adv-x="967" 
d="M811 277l62 -3l-27 -274h-767v83l632 699h-440q-32 0 -50 -15t-31 -60l-22 -126l-63 4l30 261h730v-83l-632 -699h463q34 0 56 16.5t36 62.5z" />
    <glyph glyph-name="braceleft" unicode="{" horiz-adv-x="589" 
d="M558 -524q-92 -3 -167 22.5t-123.5 71.5t-74.5 107t-27 130q-1 82 32.5 200t33.5 170q0 193 -170 204v89q170 18 170 207q0 55 -33.5 171.5t-31.5 194.5q1 46 14 91.5t42.5 89.5t73.5 77.5t111 53.5t150 20v-43q-137 -3 -213.5 -71.5t-78.5 -186.5q-2 -76 30.5 -195.5
t32.5 -173.5q0 -109 -55.5 -181.5t-174.5 -90.5v-13q109 -20 170 -88.5t61 -185.5q0 -56 -33 -170t-31 -196q2 -127 84.5 -194.5t207.5 -65.5v-44z" />
    <glyph glyph-name="bar" unicode="|" horiz-adv-x="603" 
d="M244 -483v1835h115v-1835h-115z" />
    <glyph glyph-name="braceright" unicode="}" horiz-adv-x="589" 
d="M31 -524v44q125 -2 207.5 65.5t84.5 194.5q2 82 -31 196t-33 170q0 117 61 185.5t170 88.5v13q-119 18 -174.5 90.5t-55.5 181.5q0 54 32.5 173.5t30.5 195.5q-2 118 -78.5 186.5t-213.5 71.5v43q83 0 150 -20t111 -53.5t73.5 -77.5t42.5 -89.5t14 -91.5
q2 -78 -31.5 -194.5t-33.5 -171.5q0 -189 170 -207v-89q-170 -11 -170 -204q0 -52 33.5 -170t32.5 -200q-1 -69 -27 -130t-74.5 -107t-123.5 -71.5t-167 -22.5z" />
    <glyph glyph-name="asciitilde" unicode="~" horiz-adv-x="1299" 
d="M189 544q0 40 7.5 78.5t25.5 77.5t45 68t70 47.5t97 18.5q42 0 84.5 -14t75 -31t101.5 -59q45 -33 65.5 -46t53 -24.5t68.5 -11.5q78 0 124 50t49 141h54q2 -127 -63.5 -209.5t-186.5 -82.5q-50 0 -95.5 14t-74 30t-83.5 52q-13 9 -20 13q-54 41 -90 58.5t-83 17.5
q-79 0 -123 -49t-47 -139h-54z" />
    <glyph glyph-name="uni00A0" unicode="&#xa0;" horiz-adv-x="548" 
 />
    <glyph glyph-name="exclamdown" unicode="&#xa1;" horiz-adv-x="567" 
d="M283 879q46 0 79 -33.5t33 -81.5t-33 -81.5t-79 -33.5q-47 0 -80.5 33.5t-33.5 81.5t33.5 81.5t80.5 33.5zM252 400h63l28 -731q6 -94 6 -131q0 -67 -66 -67q-65 0 -65 67q0 26 2.5 76.5t2.5 60.5z" />
    <glyph glyph-name="cent" unicode="&#xa2;" horiz-adv-x="1038" 
d="M869 458l58 -27q-49 -115 -142.5 -183t-234.5 -68q-30 0 -57 3l-73 -365h-55l75 374q-146 34 -235 150t-89 281q0 198 128 325.5t319 127.5q27 0 52 -3l76 379h54l-77 -387q85 -18 148 -65t87 -120q5 -28 -7.5 -48.5t-37.5 -21.5q-28 -2 -42.5 15.5t-24.5 47.5
q-48 89 -137 123l-146 -738q30 -6 65 -6q108 0 184 58.5t112 147.5zM256 646q0 -141 53 -238t147 -135l147 736q-22 3 -45 3q-95 0 -166 -55.5t-103.5 -137t-32.5 -173.5z" />
    <glyph glyph-name="sterling" unicode="&#xa3;" horiz-adv-x="1484" 
d="M165 -35q-26 0 -41 21q-15 19 -8 42q19 34 50.5 71t74.5 78t46 45q108 167 171 408h-330l20 78h328q8 27 28 100t35 122t32 93q68 184 177.5 267.5t279.5 83.5q110 0 184.5 -50t101.5 -140q3 -25 -10.5 -43t-35.5 -20q-42 -3 -65 50q-62 135 -198 135q-70 0 -122.5 -22
t-89 -66.5t-61 -93.5t-48.5 -122q-14 -44 -42 -143.5t-45 -150.5h367l-19 -78h-377q-56 -182 -137 -318q68 41 144 41q38 0 71.5 -11t67 -37.5t51 -43.5t54.5 -56q39 -41 60 -61t53.5 -44.5t66 -34.5t73.5 -10q61 0 107 40t64 97q13 52 -11 173q-6 59 41 65q26 3 43 -15
t22 -48q12 -49 0 -107q-17 -115 -106.5 -201t-207.5 -86q-57 0 -104.5 14t-87.5 43.5t-63.5 52.5t-57.5 62q-37 42 -58 63t-55 39.5t-68 18.5q-94 0 -183 -96q-20 -28 -47 -68.5t-40.5 -59.5t-31 -40t-32 -29t-31.5 -8z" />
    <glyph glyph-name="currency" unicode="&#xa4;" horiz-adv-x="1265" 
d="M247 295l-48 49l129 128q-90 122 -90 250q0 134 93 255l-132 131l48 49l133 -130q120 93 252 93q135 0 254 -93l133 130l47 -49l-130 -130q92 -125 92 -256q0 -127 -91 -249l129 -129l-47 -49l-133 130q-119 -93 -254 -93t-253 92zM632 400q134 0 230.5 95.5t96.5 227.5
q0 136 -97 232.5t-230 96.5t-228.5 -97.5t-95.5 -231.5t95 -228.5t229 -94.5z" />
    <glyph glyph-name="yen" unicode="&#xa5;" horiz-adv-x="1546" 
d="M463 0v64h175q46 0 65.5 23.5t19.5 72.5v185h-484v60h484v72l-61 101h-423v60h387l-339 565q-26 46 -49 66t-57 20h-87v64h519v-64h-124q-47 0 -57 -29.5t17 -72.5l381 -627l373 614q28 47 16 81t-63 34h-117v64h399v-64h-34q-58 0 -109 -87l-344 -564h395v-60h-428
l-61 -97v-76h489v-60h-489v-185q0 -48 19 -72t64 -24h177v-64h-654z" />
    <glyph glyph-name="brokenbar" unicode="&#xa6;" horiz-adv-x="809" 
d="M347 567v786h115v-786h-115zM347 -482v791h115v-791h-115z" />
    <glyph glyph-name="section" unicode="&#xa7;" horiz-adv-x="1106" 
d="M543 -498q-147 0 -237.5 68t-96.5 186q-1 32 16 48.5t38 16.5q44 0 58 -59q24 -195 237 -195q111 0 171.5 55t60.5 159q0 23 -5 44t-12 38.5t-22 36.5t-27 32.5t-36 31.5t-40 29t-47 29.5t-49.5 28.5t-55.5 31t-57 32q-78 45 -131 82.5t-100.5 84.5t-71 102t-23.5 119
q0 116 70.5 192.5t211.5 87.5q-182 119 -182 280q0 149 95.5 230.5t255.5 81.5q150 0 239 -69t95 -183q1 -30 -16 -47t-41 -17q-25 0 -37.5 16t-19.5 47q-24 189 -237 189q-115 0 -175 -56t-60 -159q0 -40 18 -76.5t35.5 -59.5t70.5 -58.5t75 -48.5t96 -53q24 -13 36 -20
q68 -37 111 -63.5t93 -66t78 -77t47 -88.5t19 -109q0 -137 -77 -207t-200 -76q177 -120 177 -281q0 -149 -96 -229t-252 -80zM632 156q126 -17 196 33t70 150q0 201 -426 383q-128 17 -197.5 -33t-69.5 -151q0 -204 427 -382z" />
    <glyph glyph-name="dieresis" unicode="&#xa8;" horiz-adv-x="788" 
d="M213 1138q-36 0 -61 26t-25 60q0 36 25 61t61 25t61 -25t25 -61q0 -37 -25.5 -61.5t-60.5 -24.5zM574 1138q-36 0 -61 26t-25 60q0 36 25.5 61t60.5 25q36 0 61.5 -25t25.5 -61q0 -37 -25.5 -61.5t-61.5 -24.5z" />
    <glyph glyph-name="copyright" unicode="&#xa9;" horiz-adv-x="1660" 
d="M828 -26q-142 0 -271.5 55.5t-223 149.5t-149 224t-55.5 273q0 142 56 271.5t149.5 223t223 149t270.5 55.5q190 0 352 -93.5t256.5 -254.5t94.5 -351t-94.5 -352t-256.5 -256t-352 -94zM828 31q175 0 324 86.5t235.5 235t86.5 323.5q0 174 -87 322t-235.5 234t-323.5 86
q-130 0 -248.5 -50.5t-204.5 -136.5t-137 -205t-51 -250q0 -176 86 -324.5t233.5 -234.5t321.5 -86zM828 248q-175 0 -293.5 117.5t-118.5 306.5t119.5 310.5t298.5 121.5q128 0 240 -66q58 -29 60 32h40v-193h-40q-26 63 -75 106t-101.5 60t-108.5 17q-104 0 -181 -55.5
t-113.5 -140t-36.5 -183.5q0 -172 89.5 -279t239.5 -107q107 0 188.5 55t119.5 139l25 -35q-52 -98 -144.5 -152t-207.5 -54z" />
    <glyph glyph-name="guillemotleft" unicode="&#xab;" horiz-adv-x="1000" 
d="M364 0l-314 440l314 441h68l-254 -441l254 -440h-68zM849 0l-316 440l314 441h69l-253 -441l253 -440h-67z" />
    <glyph glyph-name="logicalnot" unicode="&#xac;" horiz-adv-x="1396" 
d="M1057 334v531h-957v97h1054v-628h-97z" />
    <glyph glyph-name="uni00AD" unicode="&#xad;" horiz-adv-x="898" 
d="M153 348v116h592v-116h-592z" />
    <glyph glyph-name="registered" unicode="&#xae;" horiz-adv-x="1660" 
d="M828 1376q190 0 352 -93.5t256.5 -254.5t94.5 -351t-94.5 -352t-256.5 -256t-352 -94q-189 0 -350 94t-255 255.5t-94 352.5q0 142 56 271.5t149.5 223t223 149t270.5 55.5zM828 32q175 0 324 86.5t235.5 235t86.5 323.5q0 174 -87 322.5t-235.5 234.5t-323.5 86
q-174 0 -321.5 -86t-233.5 -234t-86 -323q0 -176 86 -324.5t233.5 -234.5t321.5 -86zM1174 364q21 -31 50 -31h47v-43h-134l-179 272q-34 51 -62.5 69.5t-69.5 18.5h-151v-273q0 -24 9.5 -34t33.5 -10h75v-43h-313v43h74q26 0 35 10t9 34v609q0 24 -9.5 35t-32.5 11h-76v41
h393q115 0 185 -54t70 -155q0 -79 -46 -130t-125 -70q36 -30 70 -83zM855 693q91 0 142.5 42.5t51.5 126.5q0 80 -50.5 123t-139.5 43h-184v-335h180z" />
    <glyph glyph-name="macron" unicode="&#xaf;" horiz-adv-x="1030" 
d="M152 1117v102h725v-102h-725z" />
    <glyph glyph-name="degree" unicode="&#xb0;" horiz-adv-x="1033" 
d="M516 660q-148 0 -253.5 105t-105.5 253t105.5 253t253.5 105t253 -105t105 -253t-105 -253t-253 -105zM516 738q116 0 197.5 82t81.5 198t-81.5 197.5t-197.5 81.5t-198 -81.5t-82 -197.5t82 -198t198 -82z" />
    <glyph glyph-name="plusminus" unicode="&#xb1;" horiz-adv-x="1329" 
d="M616 358v507h-507v97h507v506h97v-506h506v-97h-506v-507h-97zM109 0v96h1110v-96h-1110z" />
    <glyph glyph-name="acute" unicode="&#xb4;" horiz-adv-x="519" 
d="M106 1030h-56l239 322h202v-4z" />
    <glyph glyph-name="uni00B5" unicode="&#xb5;" horiz-adv-x="1309" 
d="M268 -427v1122q0 87 -76 87h-94v64h304v-553q0 -121 43 -177t144 -56q52 0 103.5 28.5t91.5 75.5t71 99.5t50 106.5v325q0 39 -16 63t-49 24h-109v64h309v-694q0 -43 18.5 -65t60.5 -15l96 24l7 -64l-317 -55v265q-53 -100 -134.5 -172.5t-172.5 -79.5q-135 -12 -196 57
v-474h-134z" />
    <glyph glyph-name="paragraph" unicode="&#xb6;" horiz-adv-x="1143" 
d="M513 -510v1121q-28 38 -84 68t-112.5 51.5t-110.5 50.5t-88 81.5t-34 127.5q0 88 25.5 152.5t70.5 104.5t117.5 63.5t154 32.5t192.5 9h440v-42h-45q-102 0 -142.5 -52.5t-40.5 -153.5v-1614h-60v1809h-222v-1809h-61z" />
    <glyph glyph-name="periodcentered" unicode="&#xb7;" horiz-adv-x="605" 
d="M303 561q-47 0 -81 33t-34 83q0 48 32.5 80t82.5 32q47 0 80 -32.5t33 -79.5q0 -50 -32.5 -83t-80.5 -33z" />
    <glyph glyph-name="cedilla" unicode="&#xb8;" horiz-adv-x="603" 
d="M231 -489q-101 0 -198 25l14 64q83 -20 169 -20q111 0 174.5 36.5t63.5 90.5q0 14 -4.5 25.5t-15 19t-21 13.5t-28.5 9.5t-31.5 6t-37 3.5t-37.5 1t-39.5 0.5t-37.5 0.5l46 237l69 -7l-32 -158q55 0 97 -6.5t79.5 -21.5t58 -45t20.5 -74q0 -83 -83 -141.5t-226 -58.5z
" />
    <glyph glyph-name="guillemotright" unicode="&#xbb;" horiz-adv-x="1000" 
d="M151 0h-67l253 440l-253 441h69l314 -441zM636 0h-68l254 440l-254 441h68l314 -441z" />
    <glyph glyph-name="questiondown" unicode="&#xbf;" horiz-adv-x="880" 
d="M538 649q-45 0 -78 33.5t-33 81.5t33 81.5t78 33.5q47 0 80.5 -33.5t33.5 -81.5t-33.5 -81.5t-80.5 -33.5zM768 -240q19 -2 33 -17t11 -38q-26 -100 -120.5 -167t-223.5 -67q-168 0 -276 109.5t-108 265.5q0 158 93.5 255t223.5 97q54 0 103 -16v218h69v-295h-56
q-36 21 -86 21q-100 0 -157 -83t-57 -189q0 -74 29 -145t90.5 -122t140.5 -51t144 45t90 126q14 56 57 53z" />
    <glyph glyph-name="Agrave" unicode="&#xc0;" horiz-adv-x="1390" 
d="M727 1438h-56l-385 317v4h202zM1296 65l74 -1v-64h-496v64l121 1q32 1 47 18.5t5 47.5l-116 321h-565l-118 -311q-13 -35 6.5 -55.5t55.5 -20.5l132 -1v-64h-423v64l54 3q83 28 110 102l465 1206h97l441 -1206q17 -46 42 -72t68 -32zM390 517h518l-236 656h-33z" />
    <glyph glyph-name="Aacute" unicode="&#xc1;" horiz-adv-x="1390" 
d="M1113 1755l-386 -317h-55l238 321h203v-4zM1296 65l74 -1v-64h-496v64l121 1q32 1 47 18.5t5 47.5l-116 321h-565l-118 -311q-13 -35 6.5 -55.5t55.5 -20.5l132 -1v-64h-423v64l54 3q83 28 110 102l465 1206h97l441 -1206q17 -46 42 -72t68 -32zM390 517h518l-236 656
h-33z" />
    <glyph glyph-name="Acircumflex" unicode="&#xc2;" horiz-adv-x="1390" 
d="M699 1723l-300 -253h-55l259 322h191l259 -322h-55zM1296 65l74 -1v-64h-496v64l121 1q32 1 47 18.5t5 47.5l-116 321h-565l-118 -311q-13 -35 6.5 -55.5t55.5 -20.5l132 -1v-64h-423v64l54 3q83 28 110 102l465 1206h97l441 -1206q17 -46 42 -72t68 -32zM390 517h518
l-236 656h-33z" />
    <glyph glyph-name="Atilde" unicode="&#xc3;" horiz-adv-x="1390" 
d="M408 1440h-54q-2 118 49.5 186t144.5 68q35 0 70.5 -14t52.5 -26t53 -40q3 -2 13 -11t13 -11t12 -9.5t12.5 -9.5t12 -7.5t13.5 -7.5t13 -5t15 -4.5t16 -2.5t18 -1q57 0 90.5 42t34.5 121h56q3 -116 -48.5 -191t-145.5 -75q-40 0 -78.5 15.5t-56 28t-52.5 41.5
q-38 33 -67 49.5t-67 16.5q-57 0 -87.5 -42t-32.5 -111zM1296 65l74 -1v-64h-496v64l121 1q32 1 47 18.5t5 47.5l-116 321h-565l-118 -311q-13 -35 6.5 -55.5t55.5 -20.5l132 -1v-64h-423v64l54 3q83 28 110 102l465 1206h97l441 -1206q17 -46 42 -72t68 -32zM390 517h518
l-236 656h-33z" />
    <glyph glyph-name="Adieresis" unicode="&#xc4;" horiz-adv-x="1390" 
d="M518 1519q-36 0 -61 26.5t-25 60.5q0 35 25 60.5t61 25.5t61 -25.5t25 -60.5q0 -37 -25.5 -62t-60.5 -25zM879 1519q-36 0 -61 26t-25 61q0 36 25.5 61t60.5 25q36 0 61.5 -25.5t25.5 -60.5q0 -38 -25.5 -62.5t-61.5 -24.5zM1296 65l74 -1v-64h-496v64l121 1
q32 1 47 18.5t5 47.5l-116 321h-565l-118 -311q-13 -35 6.5 -55.5t55.5 -20.5l132 -1v-64h-423v64l54 3q83 28 110 102l465 1206h97l441 -1206q17 -46 42 -72t68 -32zM390 517h518l-236 656h-33z" />
    <glyph glyph-name="Aring" unicode="&#xc5;" horiz-adv-x="1390" 
d="M699 1445q-76 0 -129 53.5t-53 129.5t53 129t129 53q75 0 129 -53.5t54 -128.5t-54 -129t-129 -54zM699 1758q-53 0 -90.5 -37.5t-37.5 -92.5q0 -54 37.5 -92t90.5 -38q54 0 91.5 38t37.5 92q0 55 -37.5 92.5t-91.5 37.5zM1296 65l74 -1v-64h-496v64l121 1q32 1 47 18.5
t5 47.5l-116 321h-565l-118 -311q-13 -35 6.5 -55.5t55.5 -20.5l132 -1v-64h-423v64l54 3q83 28 110 102l465 1206h97l441 -1206q17 -46 42 -72t68 -32zM390 517h518l-236 656h-33z" />
    <glyph glyph-name="AE" unicode="&#xc6;" horiz-adv-x="2001" 
d="M1822 447l63 -3l-32 -444h-1180v64h119q84 0 84 96v292h-473l-155 -311q-18 -35 3.5 -55.5t58.5 -20.5l132 -1v-64h-423v64l54 3q45 16 67.5 40t42.5 62l591 1183h1024l21 -349l-63 -3l-23 199q-14 50 -40.5 67.5t-76.5 17.5h-596v-541h392q90 0 90 71v119h65v-460h-65
v124q0 78 -89 78h-393v-503q0 -52 18.5 -78.5t69.5 -26.5h535q66 0 95.5 21.5t41.5 69.5zM436 517h440l-1 767h-56z" />
    <glyph glyph-name="Ccedilla" unicode="&#xc7;" horiz-adv-x="1510" 
d="M1270 509h64v-476h-64l-19 264q-61 -132 -191 -222t-296 -97l-24 -120q55 0 97 -6.5t79.5 -21.5t58 -45t20.5 -74q0 -83 -83 -141.5t-226 -58.5q-101 0 -198 25l14 64q83 -20 169 -20q111 0 174.5 36.5t63.5 90.5q0 14 -4.5 25.5t-15 19t-21 13.5t-28.5 9.5t-31.5 6
t-37 3.5t-37.5 1t-39.5 0.5t-37.5 0.5l37 192q-131 9 -243 69t-188.5 154.5t-120 217t-43.5 255.5q0 185 79.5 344.5t228 258t334.5 98.5q152 0 286 -82.5t220 -233.5l13 260h63l4 -468h-62q-19 86 -64 166t-108.5 144.5t-151 103.5t-184.5 39q-93 0 -174 -34.5
t-139.5 -94.5t-100.5 -141t-63 -176t-21 -196q0 -177 62 -317t177 -219t263 -79q178 0 320.5 125.5t188.5 336.5z" />
    <glyph glyph-name="Egrave" unicode="&#xc8;" horiz-adv-x="1388" 
d="M722 1438h-56l-385 317v4h202zM1209 447l63 -3l-32 -444h-1180v64h119q84 0 84 96v1032q0 49 -20 72.5t-72 23.5h-111v64h1125l21 -349l-63 -3l-23 199q-14 50 -40.5 67.5t-76.5 17.5h-596v-541h392q90 0 90 71v119h65v-460h-65v124q0 78 -89 78h-393v-503
q0 -52 18.5 -78.5t69.5 -26.5h535q66 0 95.5 21.5t40.5 69.5z" />
    <glyph glyph-name="Eacute" unicode="&#xc9;" horiz-adv-x="1388" 
d="M1108 1755l-386 -317h-55l238 321h203v-4zM1209 447l63 -3l-32 -444h-1180v64h119q84 0 84 96v1032q0 49 -20 72.5t-72 23.5h-111v64h1125l21 -349l-63 -3l-23 199q-14 50 -40.5 67.5t-76.5 17.5h-596v-541h392q90 0 90 71v119h65v-460h-65v124q0 78 -89 78h-393v-503
q0 -52 18.5 -78.5t69.5 -26.5h535q66 0 95.5 21.5t40.5 69.5z" />
    <glyph glyph-name="Ecircumflex" unicode="&#xca;" horiz-adv-x="1388" 
d="M694 1723l-300 -253h-55l259 322h191l259 -322h-55zM1209 447l63 -3l-32 -444h-1180v64h119q84 0 84 96v1032q0 49 -20 72.5t-72 23.5h-111v64h1125l21 -349l-63 -3l-23 199q-14 50 -40.5 67.5t-76.5 17.5h-596v-541h392q90 0 90 71v119h65v-460h-65v124q0 78 -89 78
h-393v-503q0 -52 18.5 -78.5t69.5 -26.5h535q66 0 95.5 21.5t40.5 69.5z" />
    <glyph glyph-name="Edieresis" unicode="&#xcb;" horiz-adv-x="1388" 
d="M513 1519q-36 0 -61 26.5t-25 60.5q0 35 25 60.5t61 25.5t61 -25.5t25 -60.5q0 -37 -25.5 -62t-60.5 -25zM874 1519q-36 0 -61 26t-25 61q0 36 25.5 61t60.5 25q36 0 61.5 -25.5t25.5 -60.5q0 -38 -25.5 -62.5t-61.5 -24.5zM1209 447l63 -3l-32 -444h-1180v64h119
q84 0 84 96v1032q0 49 -20 72.5t-72 23.5h-111v64h1125l21 -349l-63 -3l-23 199q-14 50 -40.5 67.5t-76.5 17.5h-596v-541h392q90 0 90 71v119h65v-460h-65v124q0 78 -89 78h-393v-503q0 -52 18.5 -78.5t69.5 -26.5h535q66 0 95.5 21.5t40.5 69.5z" />
    <glyph glyph-name="Igrave" unicode="&#xcc;" horiz-adv-x="750" 
d="M347 1438l-385 317v4h202l239 -321h-56zM62 0v64h147q53 0 73.5 23.5t20.5 72.5v1033q0 49 -20.5 72.5t-73.5 23.5h-147v64h627v-64h-147q-54 0 -75 -22.5t-21 -73.5v-1033q0 -51 21 -73.5t75 -22.5h147v-64h-627z" />
    <glyph glyph-name="Iacute" unicode="&#xcd;" horiz-adv-x="750" 
d="M348 1438l238 321h203v-4l-386 -317h-55zM62 0v64h147q53 0 73.5 23.5t20.5 72.5v1033q0 49 -20.5 72.5t-73.5 23.5h-147v64h627v-64h-147q-54 0 -75 -22.5t-21 -73.5v-1033q0 -51 21 -73.5t75 -22.5h147v-64h-627z" />
    <glyph glyph-name="Icircumflex" unicode="&#xce;" horiz-adv-x="750" 
d="M20 1470l259 322h191l259 -322h-55l-299 253l-300 -253h-55zM62 0v64h147q53 0 73.5 23.5t20.5 72.5v1033q0 49 -20.5 72.5t-73.5 23.5h-147v64h627v-64h-147q-54 0 -75 -22.5t-21 -73.5v-1033q0 -51 21 -73.5t75 -22.5h147v-64h-627z" />
    <glyph glyph-name="Idieresis" unicode="&#xcf;" horiz-adv-x="750" 
d="M194 1519q-36 0 -61 26.5t-25 60.5q0 35 25 60.5t61 25.5t61 -25.5t25 -60.5q0 -37 -25.5 -62t-60.5 -25zM555 1519q-36 0 -61 26t-25 61q0 36 25.5 61t60.5 25q36 0 61.5 -25.5t25.5 -60.5q0 -38 -25.5 -62.5t-61.5 -24.5zM62 0v64h147q53 0 73.5 23.5t20.5 72.5v1033
q0 49 -20.5 72.5t-73.5 23.5h-147v64h627v-64h-147q-54 0 -75 -22.5t-21 -73.5v-1033q0 -51 21 -73.5t75 -22.5h147v-64h-627z" />
    <glyph glyph-name="Eth" unicode="&#xd0;" horiz-adv-x="1553" 
d="M685 1352q234 0 406 -76t268.5 -229.5t96.5 -371.5q0 -221 -97 -374t-268 -227t-406 -74h-623v64h128q77 0 77 96v482h-207v67h207v484q0 96 -78 96h-127v63h623zM763 67q162 0 284 79.5t185.5 217t63.5 312.5q0 150 -45 268.5t-124.5 193.5t-184.5 114t-228 39h-303
v-582h467v-67h-467v-469q0 -53 19.5 -79.5t76.5 -26.5h256z" />
    <glyph glyph-name="Ntilde" unicode="&#xd1;" horiz-adv-x="1560" 
d="M498 1440h-54q-2 118 49.5 186t144.5 68q35 0 70.5 -14t52.5 -26t53 -40q3 -2 13 -11t13 -11t12 -9.5t12.5 -9.5t12 -7.5t13.5 -7.5t13 -5t15 -4.5t16 -2.5t18 -1q57 0 90.5 42t34.5 121h56q3 -116 -48.5 -191t-145.5 -75q-40 0 -78.5 15.5t-56 28t-52.5 41.5
q-38 33 -67 49.5t-67 16.5q-57 0 -87.5 -42t-32.5 -111zM1049 1352h476v-64h-111q-44 0 -65.5 -32.5t-21.5 -83.5v-1195h-76l-919 1245v-1039q0 -119 96 -119h109v-64h-478v64h111q29 0 49.5 13t29 34t11.5 37.5t3 34.5v995q0 51 -24.5 80.5t-72.5 29.5h-109v64h358
l844 -1149v970q0 27 -7 51t-29 44t-58 20h-116v64z" />
    <glyph glyph-name="Ograve" unicode="&#xd2;" horiz-adv-x="1496" 
d="M720 1438l-385 317v4h202l239 -321h-56zM749 -23q-193 0 -340.5 90t-227 249.5t-79.5 362.5q0 112 27.5 216t82.5 191t131.5 151.5t179.5 101t222 36.5q123 0 228 -37t181.5 -102t131 -153t81.5 -191.5t27 -215.5q0 -144 -44.5 -271t-125.5 -222t-204 -150.5t-271 -55.5z
M745 47q224 0 354.5 167t130.5 463t-132 461.5t-351 165.5q-150 0 -260 -80.5t-166 -220t-56 -320.5q0 -128 31 -241.5t89 -202t151 -140.5t209 -52z" />
    <glyph glyph-name="Oacute" unicode="&#xd3;" horiz-adv-x="1496" 
d="M721 1438l238 321h203v-4l-386 -317h-55zM749 -23q-193 0 -340.5 90t-227 249.5t-79.5 362.5q0 112 27.5 216t82.5 191t131.5 151.5t179.5 101t222 36.5q123 0 228 -37t181.5 -102t131 -153t81.5 -191.5t27 -215.5q0 -144 -44.5 -271t-125.5 -222t-204 -150.5t-271 -55.5
zM745 47q224 0 354.5 167t130.5 463t-132 461.5t-351 165.5q-150 0 -260 -80.5t-166 -220t-56 -320.5q0 -128 31 -241.5t89 -202t151 -140.5t209 -52z" />
    <glyph glyph-name="Ocircumflex" unicode="&#xd4;" horiz-adv-x="1496" 
d="M393 1470l259 322h191l259 -322h-55l-299 253l-300 -253h-55zM749 -23q-193 0 -340.5 90t-227 249.5t-79.5 362.5q0 112 27.5 216t82.5 191t131.5 151.5t179.5 101t222 36.5q123 0 228 -37t181.5 -102t131 -153t81.5 -191.5t27 -215.5q0 -144 -44.5 -271t-125.5 -222
t-204 -150.5t-271 -55.5zM745 47q224 0 354.5 167t130.5 463t-132 461.5t-351 165.5q-150 0 -260 -80.5t-166 -220t-56 -320.5q0 -128 31 -241.5t89 -202t151 -140.5t209 -52z" />
    <glyph glyph-name="Otilde" unicode="&#xd5;" horiz-adv-x="1496" 
d="M403 1440q-2 118 49.5 186t144.5 68q35 0 70.5 -14t52.5 -26t53 -40q3 -2 13 -11t13 -11t12 -9.5t12.5 -9.5t12 -7.5t13.5 -7.5t13 -5t15 -4.5t16 -2.5t18 -1q57 0 90.5 42t34.5 121h56q3 -116 -48.5 -191t-145.5 -75q-40 0 -78.5 15.5t-56 28t-52.5 41.5
q-38 33 -67 49.5t-67 16.5q-57 0 -87.5 -42t-32.5 -111h-54zM749 -23q-193 0 -340.5 90t-227 249.5t-79.5 362.5q0 112 27.5 216t82.5 191t131.5 151.5t179.5 101t222 36.5q123 0 228 -37t181.5 -102t131 -153t81.5 -191.5t27 -215.5q0 -144 -44.5 -271t-125.5 -222
t-204 -150.5t-271 -55.5zM745 47q224 0 354.5 167t130.5 463t-132 461.5t-351 165.5q-150 0 -260 -80.5t-166 -220t-56 -320.5q0 -128 31 -241.5t89 -202t151 -140.5t209 -52z" />
    <glyph glyph-name="Odieresis" unicode="&#xd6;" horiz-adv-x="1496" 
d="M567 1519q-36 0 -61 26.5t-25 60.5q0 35 25 60.5t61 25.5t61 -25.5t25 -60.5q0 -37 -25.5 -62t-60.5 -25zM928 1519q-36 0 -61 26t-25 61q0 36 25.5 61t60.5 25q36 0 61.5 -25.5t25.5 -60.5q0 -38 -25.5 -62.5t-61.5 -24.5zM749 -23q-193 0 -340.5 90t-227 249.5
t-79.5 362.5q0 112 27.5 216t82.5 191t131.5 151.5t179.5 101t222 36.5q123 0 228 -37t181.5 -102t131 -153t81.5 -191.5t27 -215.5q0 -144 -44.5 -271t-125.5 -222t-204 -150.5t-271 -55.5zM745 47q224 0 354.5 167t130.5 463t-132 461.5t-351 165.5q-150 0 -260 -80.5
t-166 -220t-56 -320.5q0 -128 31 -241.5t89 -202t151 -140.5t209 -52z" />
    <glyph glyph-name="multiply" unicode="&#xd7;" horiz-adv-x="1079" 
d="M181 222l-68 69l358 358l-358 359l68 68l359 -359l358 359l68 -68l-358 -359l358 -358l-68 -69l-358 359z" />
    <glyph glyph-name="Oslash" unicode="&#xd8;" horiz-adv-x="1496" 
d="M1225 1167q82 -95 125.5 -222t43.5 -269q0 -144 -44.5 -271t-125.5 -222t-204 -150.5t-271 -55.5q-259 0 -432 159l-132 -151l-50 43l136 155q-169 194 -169 496q0 112 27.5 216t82.5 191t131.5 151.5t179.5 101t222 36.5q262 0 434 -161l133 151l48 -44zM265 683
q0 -234 94 -401l746 848q-130 174 -358 174q-150 0 -260 -80.5t-166 -220t-56 -320.5zM745 47q224 0 354.5 167t130.5 463q0 237 -88 396l-746 -848q131 -178 349 -178z" />
    <glyph glyph-name="Ugrave" unicode="&#xd9;" horiz-adv-x="1521" 
d="M727 1438l-385 317v4h202l239 -321h-56zM766 -23q-264 0 -400 132t-136 386v697q0 48 -20 72t-73 24h-108v64h600v-64h-163q-52 0 -72.5 -23t-20.5 -73v-697q0 -444 423 -444q229 0 334 115.5t105 340.5v671q0 50 -24 80t-74 30h-98v64h440v-64h-87q-45 0 -67 -30
t-22 -79v-673q0 -529 -537 -529z" />
    <glyph glyph-name="Uacute" unicode="&#xda;" horiz-adv-x="1521" 
d="M728 1438l238 321h203v-4l-386 -317h-55zM766 -23q-264 0 -400 132t-136 386v697q0 48 -20 72t-73 24h-108v64h600v-64h-163q-52 0 -72.5 -23t-20.5 -73v-697q0 -444 423 -444q229 0 334 115.5t105 340.5v671q0 50 -24 80t-74 30h-98v64h440v-64h-87q-45 0 -67 -30
t-22 -79v-673q0 -529 -537 -529z" />
    <glyph glyph-name="Ucircumflex" unicode="&#xdb;" horiz-adv-x="1521" 
d="M400 1470l259 322h191l259 -322h-55l-299 253l-300 -253h-55zM766 -23q-264 0 -400 132t-136 386v697q0 48 -20 72t-73 24h-108v64h600v-64h-163q-52 0 -72.5 -23t-20.5 -73v-697q0 -444 423 -444q229 0 334 115.5t105 340.5v671q0 50 -24 80t-74 30h-98v64h440v-64h-87
q-45 0 -67 -30t-22 -79v-673q0 -529 -537 -529z" />
    <glyph glyph-name="Udieresis" unicode="&#xdc;" horiz-adv-x="1521" 
d="M574 1519q-36 0 -61 26.5t-25 60.5q0 35 25 60.5t61 25.5t61 -25.5t25 -60.5q0 -37 -25.5 -62t-60.5 -25zM935 1519q-36 0 -61 26t-25 61q0 36 25.5 61t60.5 25q36 0 61.5 -25.5t25.5 -60.5q0 -38 -25.5 -62.5t-61.5 -24.5zM766 -23q-264 0 -400 132t-136 386v697
q0 48 -20 72t-73 24h-108v64h600v-64h-163q-52 0 -72.5 -23t-20.5 -73v-697q0 -444 423 -444q229 0 334 115.5t105 340.5v671q0 50 -24 80t-74 30h-98v64h440v-64h-87q-45 0 -67 -30t-22 -79v-673q0 -529 -537 -529z" />
    <glyph glyph-name="Yacute" unicode="&#xdd;" horiz-adv-x="1410" 
d="M681 1438l238 321h203v-4l-386 -317h-55zM394 0v64h172q52 0 71.5 23.5t19.5 71.5v318l-440 725q-26 45 -51 65.5t-59 20.5h-88v64h536v-64h-127q-47 0 -56 -31t19 -71l382 -626l372 607q31 53 18.5 87t-65.5 34h-102v64h395v-64h-39q-58 0 -109 -88l-442 -716v-324
q0 -49 19.5 -72.5t71.5 -23.5h172v-64h-670z" />
    <glyph glyph-name="Thorn" unicode="&#xde;" horiz-adv-x="1225" 
d="M61 0v64h107q53 0 73.5 23.5t20.5 72.5v1033q0 49 -20.5 72.5t-73.5 23.5h-106v64h544v-64h-106q-95 0 -95 -72v-76h292q220 -1 342 -91t122 -269q0 -176 -117.5 -271t-332.5 -95h-304v-255q0 -46 20 -71t75 -25h111v-64h-552zM407 483h293q150 0 229 73.5t79 222.5
q0 147 -77 223.5t-230 76.5h-294v-596z" />
    <glyph glyph-name="germandbls" unicode="&#xdf;" horiz-adv-x="1212" 
d="M822 -20q-58 0 -99.5 17t-60.5 44t-27 52t-8 50q0 19 8.5 30t21.5 11q23 0 25 -33q2 -46 28.5 -78t91.5 -32q95 0 143 80t48 229q0 343 -410 340v64q56 1 97.5 6.5t84 23.5t69 47.5t43.5 80t17 119.5q0 137 -69 212t-211 75q-151 0 -219 -96.5t-68 -283.5l3 -794
q0 -80 64 -80h158v-64h-519v64h88q43 0 59 21.5t16 64.5l-3 736q-1 87 10.5 158.5t40.5 136t76 108.5t122 69.5t173 25.5q205 0 307 -93t102 -256q0 -125 -67.5 -202t-164.5 -105q162 -23 251 -116.5t89 -253.5q0 -174 -85 -276t-225 -102z" />
    <glyph glyph-name="agrave" unicode="&#xe0;" horiz-adv-x="1036" 
d="M470 1030l-385 318v4h202l239 -322h-56zM300 -20q-104 0 -154 51t-50 136q0 93 58.5 152.5t174.5 115.5l340 166q-7 118 -55 162t-156 44q-59 0 -103.5 -13t-72 -37t-43.5 -49t-27 -58q-12 -57 -63 -53q-27 1 -39 18.5t-8 41.5q10 41 34 76.5t67 67.5t115 51t166 19
q158 0 239.5 -64.5t80.5 -227.5l-1 -356q0 -89 19 -128t60 -39q78 0 82 128h55q-1 -101 -48.5 -152.5t-128.5 -51.5q-79 0 -117 49.5t-49 153.5q-183 -203 -376 -203zM349 56q82 0 164.5 55t156.5 153v270l-310 -164q-76 -41 -105.5 -83.5t-29.5 -97.5q0 -133 124 -133z" />
    <glyph glyph-name="aacute" unicode="&#xe1;" horiz-adv-x="1036" 
d="M470 1030h-56l239 322h202v-4zM300 -20q-104 0 -154 51t-50 136q0 93 58.5 152.5t174.5 115.5l340 166q-7 118 -55 162t-156 44q-59 0 -103.5 -13t-72 -37t-43.5 -49t-27 -58q-12 -57 -63 -53q-27 1 -39 18.5t-8 41.5q10 41 34 76.5t67 67.5t115 51t166 19
q158 0 239.5 -64.5t80.5 -227.5l-1 -356q0 -89 19 -128t60 -39q78 0 82 128h55q-1 -101 -48.5 -152.5t-128.5 -51.5q-79 0 -117 49.5t-49 153.5q-183 -203 -376 -203zM349 56q82 0 164.5 55t156.5 153v270l-310 -164q-76 -41 -105.5 -83.5t-29.5 -97.5q0 -133 124 -133z" />
    <glyph glyph-name="acircumflex" unicode="&#xe2;" horiz-adv-x="1036" 
d="M115 1030l265 322h179l265 -322h-55l-299 253l-300 -253h-55zM300 -20q-104 0 -154 51t-50 136q0 93 58.5 152.5t174.5 115.5l340 166q-7 118 -55 162t-156 44q-59 0 -103.5 -13t-72 -37t-43.5 -49t-27 -58q-12 -57 -63 -53q-27 1 -39 18.5t-8 41.5q10 41 34 76.5
t67 67.5t115 51t166 19q158 0 239.5 -64.5t80.5 -227.5l-1 -356q0 -89 19 -128t60 -39q78 0 82 128h55q-1 -101 -48.5 -152.5t-128.5 -51.5q-79 0 -117 49.5t-49 153.5q-183 -203 -376 -203zM349 56q82 0 164.5 55t156.5 153v270l-310 -164q-76 -41 -105.5 -83.5
t-29.5 -97.5q0 -133 124 -133z" />
    <glyph glyph-name="atilde" unicode="&#xe3;" horiz-adv-x="1036" 
d="M125 1007q-2 118 49.5 186t144.5 68q35 0 70.5 -14t52.5 -26t53 -40q3 -2 13 -11t13 -11t12 -9.5t12.5 -9.5t12 -7.5t13.5 -7.5t13 -5t15 -4.5t16 -2.5t18 -1q57 0 90.5 42t34.5 121h56q3 -116 -48 -190.5t-146 -74.5q-40 0 -78 15t-56.5 28t-52.5 41q-38 33 -67 49.5
t-67 16.5q-57 0 -87.5 -42t-32.5 -111h-54zM300 -20q-104 0 -154 51t-50 136q0 93 58.5 152.5t174.5 115.5l340 166q-7 118 -55 162t-156 44q-59 0 -103.5 -13t-72 -37t-43.5 -49t-27 -58q-12 -57 -63 -53q-27 1 -39 18.5t-8 41.5q10 41 34 76.5t67 67.5t115 51t166 19
q158 0 239.5 -64.5t80.5 -227.5l-1 -356q0 -89 19 -128t60 -39q78 0 82 128h55q-1 -101 -48.5 -152.5t-128.5 -51.5q-79 0 -117 49.5t-49 153.5q-183 -203 -376 -203zM349 56q82 0 164.5 55t156.5 153v270l-310 -164q-76 -41 -105.5 -83.5t-29.5 -97.5q0 -133 124 -133z" />
    <glyph glyph-name="adieresis" unicode="&#xe4;" horiz-adv-x="1036" 
d="M287 1138q-36 0 -61 26t-25 60q0 36 25 61t61 25t61 -25t25 -61q0 -37 -25.5 -61.5t-60.5 -24.5zM648 1138q-36 0 -61 26t-25 60q0 36 25.5 61t60.5 25q36 0 61.5 -25t25.5 -61q0 -37 -25.5 -61.5t-61.5 -24.5zM300 -20q-104 0 -154 51t-50 136q0 93 58.5 152.5
t174.5 115.5l340 166q-7 118 -55 162t-156 44q-59 0 -103.5 -13t-72 -37t-43.5 -49t-27 -58q-12 -57 -63 -53q-27 1 -39 18.5t-8 41.5q10 41 34 76.5t67 67.5t115 51t166 19q158 0 239.5 -64.5t80.5 -227.5l-1 -356q0 -89 19 -128t60 -39q78 0 82 128h55
q-1 -101 -48.5 -152.5t-128.5 -51.5q-79 0 -117 49.5t-49 153.5q-183 -203 -376 -203zM349 56q82 0 164.5 55t156.5 153v270l-310 -164q-76 -41 -105.5 -83.5t-29.5 -97.5q0 -133 124 -133z" />
    <glyph glyph-name="aring" unicode="&#xe5;" horiz-adv-x="1036" 
d="M470 966q-76 0 -129.5 53.5t-53.5 130.5t53.5 130.5t129.5 53.5q77 0 131 -54t54 -130t-54 -130t-131 -54zM470 1019q56 0 94 38t38 93t-38 93t-94 38q-54 0 -91.5 -38t-37.5 -93t37.5 -93t91.5 -38zM300 -20q-104 0 -154 51t-50 136q0 93 58.5 152.5t174.5 115.5
l340 166q-7 118 -55 162t-156 44q-59 0 -103.5 -13t-72 -37t-43.5 -49t-27 -58q-12 -57 -63 -53q-27 1 -39 18.5t-8 41.5q10 41 34 76.5t67 67.5t115 51t166 19q158 0 239.5 -64.5t80.5 -227.5l-1 -356q0 -89 19 -128t60 -39q78 0 82 128h55q-1 -101 -48.5 -152.5
t-128.5 -51.5q-79 0 -117 49.5t-49 153.5q-183 -203 -376 -203zM349 56q82 0 164.5 55t156.5 153v270l-310 -164q-76 -41 -105.5 -83.5t-29.5 -97.5q0 -133 124 -133z" />
    <glyph glyph-name="ae" unicode="&#xe6;" horiz-adv-x="1574" 
d="M1128 45q93 0 167.5 51t117.5 140l56 -30q-51 -106 -149 -168.5t-221 -62.5q-129 0 -229.5 65.5t-150.5 179.5q-128 -135 -217.5 -187.5t-201.5 -52.5q-104 0 -154 51t-50 136q0 93 58.5 152.5t174.5 115.5l340 166q-7 118 -55 162t-156 44q-59 0 -103.5 -13t-72 -37
t-43.5 -49t-27 -58q-12 -57 -63 -53q-27 1 -39 18.5t-8 41.5q10 41 34 76.5t67 67.5t115 51t166 19q115 0 189 -32.5t107 -110.5q58 68 139.5 105.5t175.5 37.5q78 0 149.5 -28.5t129 -81t92.5 -136.5t37 -187h-686q0 -76 19.5 -145t56.5 -125.5t97.5 -89.5t137.5 -33z
M1095 806q-118 0 -191 -89.5t-85 -216.5h555q-14 128 -87 217t-192 89zM670 264v270l-310 -164q-76 -41 -105.5 -83.5t-29.5 -97.5q0 -64 32.5 -98.5t93.5 -34.5q79 0 162 54.5t157 153.5z" />
    <glyph glyph-name="ccedilla" unicode="&#xe7;" horiz-adv-x="954" 
d="M513 -25h-16l-24 -117q55 0 97 -6.5t79.5 -21.5t58 -45t20.5 -74q0 -83 -83 -141.5t-226 -58.5q-101 0 -198 25l14 64q83 -20 169 -20q111 0 174.5 36.5t63.5 90.5q0 14 -4.5 25.5t-15 19t-21 13.5t-28.5 9.5t-31.5 6t-37 3.5t-37.5 1t-39.5 0.5t-37.5 0.5l38 196
q-156 27 -252.5 145.5t-96.5 290.5q0 198 128 325.5t319 127.5q116 0 212.5 -50t127.5 -145q5 -28 -7.5 -48.5t-36.5 -22.5q-29 -2 -43.5 16t-24.5 48q-74 138 -233 138q-95 0 -166 -55.5t-103.5 -137t-32.5 -173.5q0 -182 86 -288t231 -106q108 0 184 58.5t112 147.5
l58 -26q-50 -115 -143 -183.5t-234 -68.5z" />
    <glyph glyph-name="egrave" unicode="&#xe8;" horiz-adv-x="978" 
d="M489 1030l-385 318v4h202l239 -322h-56zM502 -25q-182 0 -301.5 126.5t-119.5 324.5q0 196 119.5 320.5t297.5 124.5q78 0 150 -28.5t129.5 -81t92.5 -136.5t37 -187h-686q0 -76 19.5 -145t56.5 -125.5t97.5 -89.5t137.5 -33q93 0 167.5 51t117.5 140l56 -30
q-52 -106 -150 -168.5t-221 -62.5zM222 500h556q-14 128 -87 217t-192 89q-80 0 -142 -44.5t-94.5 -112.5t-40.5 -149z" />
    <glyph glyph-name="eacute" unicode="&#xe9;" horiz-adv-x="978" 
d="M489 1030h-56l239 322h202v-4zM502 -25q-182 0 -301.5 126.5t-119.5 324.5q0 196 119.5 320.5t297.5 124.5q78 0 150 -28.5t129.5 -81t92.5 -136.5t37 -187h-686q0 -76 19.5 -145t56.5 -125.5t97.5 -89.5t137.5 -33q93 0 167.5 51t117.5 140l56 -30q-52 -106 -150 -168.5
t-221 -62.5zM222 500h556q-14 128 -87 217t-192 89q-80 0 -142 -44.5t-94.5 -112.5t-40.5 -149z" />
    <glyph glyph-name="ecircumflex" unicode="&#xea;" horiz-adv-x="978" 
d="M134 1030l265 322h179l265 -322h-55l-299 253l-300 -253h-55zM502 -25q-182 0 -301.5 126.5t-119.5 324.5q0 196 119.5 320.5t297.5 124.5q78 0 150 -28.5t129.5 -81t92.5 -136.5t37 -187h-686q0 -76 19.5 -145t56.5 -125.5t97.5 -89.5t137.5 -33q93 0 167.5 51
t117.5 140l56 -30q-52 -106 -150 -168.5t-221 -62.5zM222 500h556q-14 128 -87 217t-192 89q-80 0 -142 -44.5t-94.5 -112.5t-40.5 -149z" />
    <glyph glyph-name="edieresis" unicode="&#xeb;" horiz-adv-x="978" 
d="M306 1138q-36 0 -61 26t-25 60q0 36 25 61t61 25t61 -25t25 -61q0 -37 -25.5 -61.5t-60.5 -24.5zM667 1138q-36 0 -61 26t-25 60q0 36 25.5 61t60.5 25q36 0 61.5 -25t25.5 -61q0 -37 -25.5 -61.5t-61.5 -24.5zM502 -25q-182 0 -301.5 126.5t-119.5 324.5
q0 196 119.5 320.5t297.5 124.5q78 0 150 -28.5t129.5 -81t92.5 -136.5t37 -187h-686q0 -76 19.5 -145t56.5 -125.5t97.5 -89.5t137.5 -33q93 0 167.5 51t117.5 140l56 -30q-52 -106 -150 -168.5t-221 -62.5zM222 500h556q-14 128 -87 217t-192 89q-80 0 -142 -44.5
t-94.5 -112.5t-40.5 -149z" />
    <glyph glyph-name="igrave" unicode="&#xec;" horiz-adv-x="581" 
d="M297 1030l-385 318v4h202l239 -322h-56zM62 0v64h102q44 0 61.5 20t17.5 67v536q0 48 -19.5 68t-64.5 13l-97 -24l-8 63l323 71v-727q0 -87 75 -87h111v-64h-501z" />
    <glyph glyph-name="iacute" unicode="&#xed;" horiz-adv-x="581" 
d="M297 1030h-56l239 322h202v-4zM62 0v64h102q44 0 61.5 20t17.5 67v536q0 48 -19.5 68t-64.5 13l-97 -24l-8 63l323 71v-727q0 -87 75 -87h111v-64h-501z" />
    <glyph glyph-name="icircumflex" unicode="&#xee;" horiz-adv-x="581" 
d="M-58 1030l265 322h179l265 -322h-55l-299 253l-300 -253h-55zM62 0v64h102q44 0 61.5 20t17.5 67v536q0 48 -19.5 68t-64.5 13l-97 -24l-8 63l323 71v-727q0 -87 75 -87h111v-64h-501z" />
    <glyph glyph-name="idieresis" unicode="&#xef;" horiz-adv-x="581" 
d="M114 1138q-36 0 -61 26t-25 60q0 36 25 61t61 25t61 -25t25 -61q0 -37 -25.5 -61.5t-60.5 -24.5zM475 1138q-36 0 -61 26t-25 60q0 36 25.5 61t60.5 25q36 0 61.5 -25t25.5 -61q0 -37 -25.5 -61.5t-61.5 -24.5zM62 0v64h102q44 0 61.5 20t17.5 67v536q0 48 -19.5 68
t-64.5 13l-97 -24l-8 63l323 71v-727q0 -87 75 -87h111v-64h-501z" />
    <glyph glyph-name="eth" unicode="&#xf0;" horiz-adv-x="1032" 
d="M959 1200l-167 -55q131 -199 131 -585q0 -285 -120 -434t-316 -149q-170 0 -286.5 120t-116.5 321q0 108 32 192t88 135t127 77t153 26q225 0 298 -217q-4 326 -88 481l-308 -102l-20 62l291 96q-114 145 -339 138l-7 67q290 0 440 -174l189 63zM488 42q259 0 295 388
q-40 353 -276 353q-144 0 -215 -99.5t-71 -283.5q0 -164 70 -261t197 -97z" />
    <glyph glyph-name="ntilde" unicode="&#xf1;" horiz-adv-x="1200" 
d="M253 1007q-2 118 49.5 186t144.5 68q35 0 70.5 -14t52.5 -26t53 -40q3 -2 13 -11t13 -11t12 -9.5t12.5 -9.5t12 -7.5t13.5 -7.5t13 -5t15 -4.5t16 -2.5t18 -1q57 0 90.5 42t34.5 121h56q3 -116 -48 -190.5t-146 -74.5q-40 0 -78 15t-56.5 28t-52.5 41q-38 33 -67 49.5
t-67 16.5q-57 0 -87.5 -42t-32.5 -111h-54zM64 0v64h98q43 0 60 21.5t17 65.5v529q0 45 -18.5 67t-60.5 14l-96 -24l-8 64l317 73v-269q64 113 158.5 189.5t199.5 76.5q140 0 210 -77t70 -239v-404q0 -87 75 -87h95v-64h-483v64h110q69 0 69 88v401q0 121 -43 177.5
t-144 56.5q-69 0 -135.5 -50.5t-111 -118.5t-70.5 -142v-325q0 -39 16.5 -63t50.5 -24h107v-64h-483z" />
    <glyph glyph-name="ograve" unicode="&#xf2;" horiz-adv-x="1035" 
d="M518 1030l-385 318v4h202l239 -322h-56zM517 -25q-30 0 -63.5 4.5t-77 18t-83.5 34.5t-79 56.5t-68 80.5t-46.5 111t-17.5 145q0 93 27 170t71.5 127t102 84.5t116.5 49.5t118 15q56 0 113.5 -14t116.5 -48t104 -83.5t73.5 -127.5t28.5 -173q0 -102 -31 -183.5t-78 -130
t-107.5 -80.5t-114.5 -44t-105 -12zM518 40q49 0 98.5 22.5t94.5 66.5t73 121t28 174q0 176 -84 279t-211 103q-125 0 -210 -103t-85 -274q0 -99 28 -177t73 -122.5t95 -67t100 -22.5z" />
    <glyph glyph-name="oacute" unicode="&#xf3;" horiz-adv-x="1035" 
d="M518 1030h-56l239 322h202v-4zM517 -25q-30 0 -63.5 4.5t-77 18t-83.5 34.5t-79 56.5t-68 80.5t-46.5 111t-17.5 145q0 93 27 170t71.5 127t102 84.5t116.5 49.5t118 15q56 0 113.5 -14t116.5 -48t104 -83.5t73.5 -127.5t28.5 -173q0 -102 -31 -183.5t-78 -130
t-107.5 -80.5t-114.5 -44t-105 -12zM518 40q49 0 98.5 22.5t94.5 66.5t73 121t28 174q0 176 -84 279t-211 103q-125 0 -210 -103t-85 -274q0 -99 28 -177t73 -122.5t95 -67t100 -22.5z" />
    <glyph glyph-name="ocircumflex" unicode="&#xf4;" horiz-adv-x="1035" 
d="M163 1030l265 322h179l265 -322h-55l-299 253l-300 -253h-55zM517 -25q-30 0 -63.5 4.5t-77 18t-83.5 34.5t-79 56.5t-68 80.5t-46.5 111t-17.5 145q0 93 27 170t71.5 127t102 84.5t116.5 49.5t118 15q56 0 113.5 -14t116.5 -48t104 -83.5t73.5 -127.5t28.5 -173
q0 -102 -31 -183.5t-78 -130t-107.5 -80.5t-114.5 -44t-105 -12zM518 40q49 0 98.5 22.5t94.5 66.5t73 121t28 174q0 176 -84 279t-211 103q-125 0 -210 -103t-85 -274q0 -99 28 -177t73 -122.5t95 -67t100 -22.5z" />
    <glyph glyph-name="otilde" unicode="&#xf5;" horiz-adv-x="1035" 
d="M173 1007q-2 118 49.5 186t144.5 68q35 0 70.5 -14t52.5 -26t53 -40q3 -2 13 -11t13 -11t12 -9.5t12.5 -9.5t12 -7.5t13.5 -7.5t13 -5t15 -4.5t16 -2.5t18 -1q57 0 90.5 42t34.5 121h56q3 -116 -48 -190.5t-146 -74.5q-40 0 -78 15t-56.5 28t-52.5 41q-38 33 -67 49.5
t-67 16.5q-57 0 -87.5 -42t-32.5 -111h-54zM517 -25q-30 0 -63.5 4.5t-77 18t-83.5 34.5t-79 56.5t-68 80.5t-46.5 111t-17.5 145q0 93 27 170t71.5 127t102 84.5t116.5 49.5t118 15q56 0 113.5 -14t116.5 -48t104 -83.5t73.5 -127.5t28.5 -173q0 -102 -31 -183.5t-78 -130
t-107.5 -80.5t-114.5 -44t-105 -12zM518 40q49 0 98.5 22.5t94.5 66.5t73 121t28 174q0 176 -84 279t-211 103q-125 0 -210 -103t-85 -274q0 -99 28 -177t73 -122.5t95 -67t100 -22.5z" />
    <glyph glyph-name="odieresis" unicode="&#xf6;" horiz-adv-x="1035" 
d="M335 1138q-36 0 -61 26t-25 60q0 36 25 61t61 25t61 -25t25 -61q0 -37 -25.5 -61.5t-60.5 -24.5zM696 1138q-36 0 -61 26t-25 60q0 36 25.5 61t60.5 25q36 0 61.5 -25t25.5 -61q0 -37 -25.5 -61.5t-61.5 -24.5zM517 -25q-30 0 -63.5 4.5t-77 18t-83.5 34.5t-79 56.5
t-68 80.5t-46.5 111t-17.5 145q0 93 27 170t71.5 127t102 84.5t116.5 49.5t118 15q56 0 113.5 -14t116.5 -48t104 -83.5t73.5 -127.5t28.5 -173q0 -102 -31 -183.5t-78 -130t-107.5 -80.5t-114.5 -44t-105 -12zM518 40q49 0 98.5 22.5t94.5 66.5t73 121t28 174
q0 176 -84 279t-211 103q-125 0 -210 -103t-85 -274q0 -99 28 -177t73 -122.5t95 -67t100 -22.5z" />
    <glyph glyph-name="divide" unicode="&#xf7;" horiz-adv-x="1302" 
d="M645 1001q-40 0 -67.5 27.5t-27.5 67.5q0 38 28 66t67 28q38 0 66 -28t28 -66q0 -40 -27.5 -67.5t-66.5 -27.5zM90 628v96h1110v-96h-1110zM645 161q-40 0 -67.5 27.5t-27.5 67.5q0 39 28 67t67 28q38 0 66 -28.5t28 -66.5q0 -40 -27.5 -67.5t-66.5 -27.5z" />
    <glyph glyph-name="oslash" unicode="&#xf8;" horiz-adv-x="1035" 
d="M837 739q116 -118 116 -314q0 -102 -31 -183.5t-78 -130t-107.5 -80.5t-114.5 -44t-105 -12q-60 0 -133.5 20t-137.5 67l-109 -125l-49 42l109 125q-115 118 -115 321q0 93 27 170t71.5 127t102 84.5t116.5 49.5t118 15q152 0 272 -89l111 127l48 -43zM222 429
q0 -137 54 -234l448 513q-81 98 -207 98q-125 0 -210 -103t-85 -274zM518 40q49 0 98.5 22.5t94.5 66.5t73 121t28 174q0 132 -51 228l-447 -512q42 -50 96.5 -75t107.5 -25z" />
    <glyph glyph-name="ugrave" unicode="&#xf9;" horiz-adv-x="1167" 
d="M583 1030l-385 318v4h202l239 -322h-56zM469 -25q-140 0 -210 77t-70 239v404q0 87 -75 87h-94v64h303v-553q0 -121 43 -177t144 -56q53 0 104 28.5t91.5 75.5t71 99.5t50.5 106.5v325q0 39 -16.5 63t-49.5 24h-108v64h308v-694q0 -43 18.5 -65t60.5 -15l96 24l8 -64
l-317 -55v265q-64 -113 -158.5 -190t-199.5 -77z" />
    <glyph glyph-name="uacute" unicode="&#xfa;" horiz-adv-x="1167" 
d="M583 1030h-56l239 322h202v-4zM469 -25q-140 0 -210 77t-70 239v404q0 87 -75 87h-94v64h303v-553q0 -121 43 -177t144 -56q53 0 104 28.5t91.5 75.5t71 99.5t50.5 106.5v325q0 39 -16.5 63t-49.5 24h-108v64h308v-694q0 -43 18.5 -65t60.5 -15l96 24l8 -64l-317 -55v265
q-64 -113 -158.5 -190t-199.5 -77z" />
    <glyph glyph-name="ucircumflex" unicode="&#xfb;" horiz-adv-x="1167" 
d="M228 1030l265 322h179l265 -322h-55l-299 253l-300 -253h-55zM469 -25q-140 0 -210 77t-70 239v404q0 87 -75 87h-94v64h303v-553q0 -121 43 -177t144 -56q53 0 104 28.5t91.5 75.5t71 99.5t50.5 106.5v325q0 39 -16.5 63t-49.5 24h-108v64h308v-694q0 -43 18.5 -65
t60.5 -15l96 24l8 -64l-317 -55v265q-64 -113 -158.5 -190t-199.5 -77z" />
    <glyph glyph-name="udieresis" unicode="&#xfc;" horiz-adv-x="1167" 
d="M400 1138q-36 0 -61 26t-25 60q0 36 25 61t61 25t61 -25t25 -61q0 -37 -25.5 -61.5t-60.5 -24.5zM761 1138q-36 0 -61 26t-25 60q0 36 25.5 61t60.5 25q36 0 61.5 -25t25.5 -61q0 -37 -25.5 -61.5t-61.5 -24.5zM469 -25q-140 0 -210 77t-70 239v404q0 87 -75 87h-94v64
h303v-553q0 -121 43 -177t144 -56q53 0 104 28.5t91.5 75.5t71 99.5t50.5 106.5v325q0 39 -16.5 63t-49.5 24h-108v64h308v-694q0 -43 18.5 -65t60.5 -15l96 24l8 -64l-317 -55v265q-64 -113 -158.5 -190t-199.5 -77z" />
    <glyph glyph-name="yacute" unicode="&#xfd;" horiz-adv-x="1056" 
d="M529 1030h-56l239 322h202v-4zM214 -469q-32 -2 -51 13.5t-20 41.5q-1 27 17 40t45 19q96 22 166.5 78.5t127.5 179.5l41 88l-404 718q-23 42 -41.5 57.5t-47.5 15.5h-52v64h413v-64h-79q-42 0 -50 -26t14 -63l313 -563l251 544q45 108 -37 108h-92v64h330v-64h-26
q-32 0 -53 -19.5t-44 -72.5l-381 -827q-75 -163 -153.5 -239t-186.5 -93z" />
    <glyph glyph-name="thorn" unicode="&#xfe;" horiz-adv-x="1090" 
d="M-11 -500v64h102q41 0 57.5 22t16.5 65v1541q0 45 -19.5 66t-67.5 15l-89 -23l-8 62l316 70v-644q61 62 140.5 97.5t164.5 35.5q168 0 289 -127t121 -318q0 -192 -123.5 -321.5t-293.5 -129.5t-295 125v-449q0 -43 17.5 -65t65.5 -22h111v-64h-505zM558 53
q95 0 168.5 57.5t109.5 140t36 170.5q0 98 -38 182.5t-110 137t-162 52.5q-77 0 -146.5 -39t-115.5 -104v-467q48 -62 117.5 -96t140.5 -34z" />
    <glyph glyph-name="ydieresis" unicode="&#xff;" horiz-adv-x="1056" 
d="M346 1138q-36 0 -61 26t-25 60q0 36 25 61t61 25t61 -25t25 -61q0 -37 -25.5 -61.5t-60.5 -24.5zM707 1138q-36 0 -61 26t-25 60q0 36 25.5 61t60.5 25q36 0 61.5 -25t25.5 -61q0 -37 -25.5 -61.5t-61.5 -24.5zM214 -469q-32 -2 -51 13.5t-20 41.5q-1 27 17 40t45 19
q96 22 166.5 78.5t127.5 179.5l41 88l-404 718q-23 42 -41.5 57.5t-47.5 15.5h-52v64h413v-64h-79q-42 0 -50 -26t14 -63l313 -563l251 544q45 108 -37 108h-92v64h330v-64h-26q-32 0 -53 -19.5t-44 -72.5l-381 -827q-75 -163 -153.5 -239t-186.5 -93z" />
    <glyph glyph-name="dotlessi" unicode="&#x131;" horiz-adv-x="581" 
d="M62 0v64h102q44 0 61.5 20t17.5 67v536q0 48 -19.5 68t-64.5 13l-97 -24l-8 63l323 71v-727q0 -87 75 -87h111v-64h-501z" />
    <glyph glyph-name="Lslash" unicode="&#x141;" horiz-adv-x="1315" 
d="M1183 449l62 -3l-32 -446h-1151v64h151q49 0 70 21.5t21 74.5v330l-221 -170v95l221 170v607q0 49 -20 72.5t-72 23.5h-150v64h629v-64h-150q-53 0 -73.5 -22.5t-20.5 -73.5v-497l438 336v-94l-438 -337v-431q0 -53 19.5 -77.5t75.5 -24.5h447q136 0 166 129z" />
    <glyph glyph-name="lslash" unicode="&#x142;" horiz-adv-x="533" 
d="M588 901l-254 -195v-555q0 -87 64 -87h112v-64h-487v64h101q42 0 59 21.5t17 65.5v452l-255 -196v88l255 196v504q0 96 -82 81l-95 -24l-8 64l319 70v-593l254 195v-87z" />
    <glyph glyph-name="OE" unicode="&#x152;" horiz-adv-x="2267" 
d="M836 0q-340 0 -539.5 176t-199.5 499q0 319 199.5 495.5t539.5 180.5l1228 1l21 -349l-63 -3l-22 199q-14 50 -40.5 67.5t-76.5 17.5h-540q-57 -11 -57 -91v-450h392q91 0 91 71v119h64v-460h-64v124q0 78 -90 78h-393v-504q0 -52 18.5 -78t69.5 -26h535q66 0 95.5 21.5
t41.5 69.5l42 289l63 -3l-32 -444h-1283zM804 67h269q69 0 69 98v1027q0 96 -65 96h-258q-116 0 -216.5 -38.5t-178 -112.5t-122 -192.5t-44.5 -268.5q0 -176 63.5 -313t188.5 -216.5t294 -79.5z" />
    <glyph glyph-name="oe" unicode="&#x153;" horiz-adv-x="1721" 
d="M1277 45q93 0 167.5 51t117.5 140l55 -30q-51 -106 -149 -168.5t-221 -62.5q-114 0 -207.5 53t-149.5 146q-63 -104 -168.5 -151.5t-204.5 -47.5q-30 0 -63.5 4.5t-77 18t-83.5 34.5t-79 56.5t-68 80.5t-46.5 111t-17.5 145q0 93 27 170t71.5 127t102 84.5t116.5 49.5
t118 15q65 0 131 -19t132.5 -65t108.5 -114q55 93 148 145.5t206 52.5q78 0 150 -28.5t129.5 -81t92.5 -136.5t37 -187h-687q0 -103 32.5 -190t105 -145t174.5 -58zM518 40q49 0 98.5 22.5t94.5 66.5t73 121t28 174q0 176 -84 279t-211 103q-125 0 -210 -103t-85 -274
q0 -99 28 -177t73 -122.5t95 -67t100 -22.5zM1244 806q-80 0 -142 -44.5t-94.5 -112.5t-40.5 -149h555q-13 128 -86.5 217t-191.5 89z" />
    <glyph glyph-name="Scaron" unicode="&#x160;" horiz-adv-x="1161" 
d="M497 1456l-266 322h56l299 -253l299 253h56l-266 -322h-178zM649 -23q-143 0 -256.5 62t-172.5 179l-11 -197h-67v465h67q9 -193 121.5 -316t306.5 -123q50 0 99.5 17t93 49.5t71 88t27.5 124.5q0 52 -17.5 94t-43.5 70.5t-72.5 55t-87.5 43.5t-105 39q-187 70 -257 111
q-139 80 -171 202q-11 42 -11 93q0 147 109.5 244.5t266.5 97.5q105 0 199.5 -53t150.5 -145l12 175h64v-397h-64q-12 156 -115 254.5t-238 98.5q-123 0 -196 -67.5t-73 -163.5q0 -51 20 -93t38.5 -66t80 -55.5t88 -42t119.5 -43.5q4 -2 6 -2.5t5.5 -2t6.5 -2.5
q53 -18 88.5 -32t82.5 -36t78 -43t64 -52t52.5 -65.5t32 -80t12.5 -97.5q0 -79 -26.5 -145.5t-69 -110t-96.5 -74.5t-107.5 -44.5t-104.5 -13.5z" />
    <glyph glyph-name="scaron" unicode="&#x161;" horiz-adv-x="998" 
d="M589 1030h-178l-266 322h56l299 -253l299 253h56zM509 514q56 -7 95 -14t89.5 -20t84 -31.5t64.5 -45.5t46.5 -66t15.5 -88q0 -131 -105.5 -202.5t-267.5 -71.5q-109 0 -194.5 31t-132.5 81l-29 -112h-49l-2 264h60q43 -98 135 -149t215 -51q118 0 192.5 47t74.5 131
q0 37 -17.5 65t-41.5 44t-68.5 28.5t-78 18t-91.5 12.5q-51 7 -81.5 11.5t-76.5 14.5t-74 21t-60.5 29.5t-50.5 40.5t-30.5 54.5t-12.5 71.5q0 115 91.5 179t252.5 64q202 0 304 -105l23 105h48l3 -254h-52q-30 89 -114 139.5t-215 50.5q-111 0 -176.5 -37t-65.5 -109
q0 -27 9 -47.5t30 -35t42 -24t61 -17.5t68.5 -12t81.5 -11z" />
    <glyph glyph-name="Wcircumflex" unicode="&#x174;" horiz-adv-x="2006" 
d="M1001 1723l-300 -253h-55l259 322h191l259 -322h-55zM1554 1352h431v-64h-59q-40 0 -63.5 -32t-42.5 -102l-319 -1177h-126l-364 1230l-336 -1230h-127l-361 1211q-16 57 -37.5 78.5t-60.5 21.5h-68v64h558v-64h-187q-89 0 -57 -107l313 -1057h5l336 1241h113l368 -1239
l2 -2l274 1021q38 143 -59 143h-133v64z" />
    <glyph glyph-name="wcircumflex" unicode="&#x175;" horiz-adv-x="1615" 
d="M808 1283l-300 -253h-55l265 322h179l265 -322h-55zM1273 846h344v-64h-58q-57 0 -86 -79l-274 -723h-110l-268 748l-274 -748h-109l-266 723q-16 44 -36 61.5t-52 17.5h-86v64h465v-64h-100q-44 0 -56 -21t4 -65l217 -593l280 758h98l273 -760l216 576q21 53 10 79
t-62 26h-70v64z" />
    <glyph glyph-name="Ycircumflex" unicode="&#x176;" horiz-adv-x="1410" 
d="M353 1470l259 322h191l259 -322h-55l-299 253l-300 -253h-55zM394 0v64h172q52 0 71.5 23.5t19.5 71.5v318l-440 725q-26 45 -51 65.5t-59 20.5h-88v64h536v-64h-127q-47 0 -56 -31t19 -71l382 -626l372 607q31 53 18.5 87t-65.5 34h-102v64h395v-64h-39q-58 0 -109 -88
l-442 -716v-324q0 -49 19.5 -72.5t71.5 -23.5h172v-64h-670z" />
    <glyph glyph-name="ycircumflex" unicode="&#x177;" horiz-adv-x="1056" 
d="M174 1030l265 322h179l265 -322h-55l-299 253l-300 -253h-55zM214 -469q-32 -2 -51 13.5t-20 41.5q-1 27 17 40t45 19q96 22 166.5 78.5t127.5 179.5l41 88l-404 718q-23 42 -41.5 57.5t-47.5 15.5h-52v64h413v-64h-79q-42 0 -50 -26t14 -63l313 -563l251 544
q45 108 -37 108h-92v64h330v-64h-26q-32 0 -53 -19.5t-44 -72.5l-381 -827q-75 -163 -153.5 -239t-186.5 -93z" />
    <glyph glyph-name="Ydieresis" unicode="&#x178;" horiz-adv-x="1410" 
d="M527 1519q-36 0 -61 26.5t-25 60.5q0 35 25 60.5t61 25.5t61 -25.5t25 -60.5q0 -37 -25.5 -62t-60.5 -25zM888 1519q-36 0 -61 26t-25 61q0 36 25.5 61t60.5 25q36 0 61.5 -25.5t25.5 -60.5q0 -38 -25.5 -62.5t-61.5 -24.5zM394 0v64h172q52 0 71.5 23.5t19.5 71.5v318
l-440 725q-26 45 -51 65.5t-59 20.5h-88v64h536v-64h-127q-47 0 -56 -31t19 -71l382 -626l372 607q31 53 18.5 87t-65.5 34h-102v64h395v-64h-39q-58 0 -109 -88l-442 -716v-324q0 -49 19.5 -72.5t71.5 -23.5h172v-64h-670z" />
    <glyph glyph-name="Zcaron" unicode="&#x17d;" horiz-adv-x="1383" 
d="M770 1456h-178l-266 322h56l299 -253l299 253h56zM1225 434l64 -3l-37 -431h-1160v94l985 1203h-715q-74 0 -113.5 -20.5t-53.5 -78.5l-27 -196l-63 3l36 359h1097v-90l-992 -1207h786q63 0 101.5 21.5t58.5 84.5z" />
    <glyph glyph-name="zcaron" unicode="&#x17e;" horiz-adv-x="967" 
d="M574 1030h-178l-266 322h56l299 -253l299 253h56zM811 277l62 -3l-27 -274h-767v83l632 699h-440q-32 0 -50 -15t-31 -60l-22 -126l-63 4l30 261h730v-83l-632 -699h463q34 0 56 16.5t36 62.5z" />
    <glyph glyph-name="florin" unicode="&#x192;" horiz-adv-x="1113" 
d="M215 -453q-64 0 -99 31t-40 83q-3 35 11 55.5t37 19.5q15 -2 28.5 -21.5t15.5 -45.5q5 -44 18 -59.5t49 -15.5q28 0 46.5 12t32.5 46.5t20.5 61t18.5 89.5q3 13 4 20q8 45 41 198.5t53 255.5l100 510h-195l8 67h88q78 0 109 33t54 122q14 60 27 104.5t35.5 96t49 84.5
t66.5 55.5t88 22.5q54 0 93.5 -25.5t48.5 -73.5q8 -34 -4.5 -57.5t-35.5 -23.5q-15 0 -26 13t-14.5 21.5t-9.5 27.5q-1 6 -5 23t-6.5 22t-8 14.5t-15.5 12.5t-24 3q-40 0 -73 -27.5t-50 -82.5q-6 -13 -11 -28.5t-9.5 -36t-7.5 -33.5t-7 -40.5t-5 -36t-5 -40t-5 -35.5
q-7 -68 -16 -115h242l-9 -67h-247l-99 -505q-77 -391 -144 -544q-60 -191 -213 -191z" />
    <glyph glyph-name="oslashacute" unicode="&#x1ff;" horiz-adv-x="1035" 
d="M903 1348l-385 -318h-56l239 322h202v-4zM837 739q116 -118 116 -314q0 -102 -31 -183.5t-78 -130t-107.5 -80.5t-114.5 -44t-105 -12q-60 0 -133.5 20t-137.5 67l-109 -125l-49 42l109 125q-115 118 -115 321q0 93 27 170t71.5 127t102 84.5t116.5 49.5t118 15
q152 0 272 -89l111 127l48 -43zM222 429q0 -137 54 -234l448 513q-81 98 -207 98q-125 0 -210 -103t-85 -274zM518 40q49 0 98.5 22.5t94.5 66.5t73 121t28 174q0 132 -51 228l-447 -512q42 -50 96.5 -75t107.5 -25z" />
    <glyph glyph-name="uni0237" unicode="&#x237;" horiz-adv-x="504" 
d="M-4 -511q-110 0 -181 54t-85 154q-2 26 13 43.5t39 19.5q44 2 56 -51q32 -154 178 -154q96 0 143 72.5t47 200.5v858q0 46 -20.5 67.5t-69.5 13.5l-95 -24l-7 64l326 71v-997q0 -197 -82.5 -294.5t-261.5 -97.5z" />
    <glyph glyph-name="circumflex" unicode="&#x2c6;" horiz-adv-x="811" 
d="M51 1030l265 322h179l265 -322h-55l-299 253l-300 -253h-55z" />
    <glyph glyph-name="caron" unicode="&#x2c7;" horiz-adv-x="816" 
d="M319 1030l-266 322h56l299 -253l299 253h56l-266 -322h-178z" />
    <glyph glyph-name="breve" unicode="&#x2d8;" horiz-adv-x="1058" 
d="M387 1006q-119 0 -196.5 69.5t-100.5 174.5h53q57 -158 245 -158q177 0 236 158h51q-4 -28 -14.5 -57.5t-33 -64t-53.5 -61t-79.5 -44t-107.5 -17.5z" />
    <glyph glyph-name="dotaccent" unicode="&#x2d9;" horiz-adv-x="427" 
d="M213 1113q-36 0 -61 26.5t-25 59.5q0 36 25 61t61 25t61.5 -25t25.5 -61q0 -37 -26 -61.5t-61 -24.5z" />
    <glyph glyph-name="ring" unicode="&#x2da;" horiz-adv-x="500" 
d="M250 981q-82 0 -139.5 57.5t-57.5 139.5q0 81 57.5 137.5t139.5 56.5q81 0 138.5 -56.5t57.5 -137.5q0 -82 -57.5 -139.5t-138.5 -57.5zM250 1059q49 0 84 35t35 84t-35 83.5t-84 34.5t-83 -34.5t-34 -83.5q0 -50 34 -84.5t83 -34.5z" />
    <glyph glyph-name="ogonek" unicode="&#x2db;" horiz-adv-x="996" 
d="M351 -364q-109 0 -175.5 67.5t-66.5 156.5q0 90 75 163l27 -23q-41 -47 -41 -107q0 -80 61.5 -141t148.5 -61q74 0 144 48l23 -31q-93 -72 -196 -72z" />
    <glyph glyph-name="tilde" unicode="&#x2dc;" horiz-adv-x="921" 
d="M115 1007q-2 118 49.5 186t144.5 68q35 0 70.5 -14t52.5 -26t53 -40q3 -2 13 -11t13 -11t12 -9.5t12.5 -9.5t12 -7.5t13.5 -7.5t13 -5t15 -4.5t16 -2.5t18 -1q57 0 90.5 42t34.5 121h56q3 -116 -48 -190.5t-146 -74.5q-40 0 -78 15t-56.5 28t-52.5 41q-38 33 -67 49.5
t-67 16.5q-57 0 -87.5 -42t-32.5 -111h-54z" />
    <glyph glyph-name="hungarumlaut" unicode="&#x2dd;" horiz-adv-x="902" 
d="M51 1030l239 322h202v-4l-385 -318h-56zM433 1030l239 322h203v-4l-386 -318h-56z" />
    <glyph glyph-name="gravecomb" unicode="&#x300;" 
d="M-106 1030l-385 318v4h202l239 -322h-56z" />
    <glyph glyph-name="acutecomb" unicode="&#x301;" 
d="M-404 1030h-56l239 322h202v-4z" />
    <glyph glyph-name="uni0302" unicode="&#x302;" 
d="M-760 1030l265 322h179l265 -322h-55l-299 253l-300 -253h-55z" />
    <glyph glyph-name="tildecomb" unicode="&#x303;" 
d="M-806 1007q-2 118 49.5 186t144.5 68q35 0 70.5 -14t52.5 -26t53 -40q3 -2 13 -11t13 -11t12 -9.5t12.5 -9.5t12 -7.5t13.5 -7.5t13 -5t15 -4.5t16 -2.5t18 -1q57 0 90.5 42t34.5 121h56q3 -116 -48 -190.5t-146 -74.5q-40 0 -78 15t-56.5 28t-52.5 41q-38 33 -67 49.5
t-67 16.5q-57 0 -87.5 -42t-32.5 -111h-54z" />
    <glyph glyph-name="uni0304" unicode="&#x304;" 
d="M-878 1117v102h725v-102h-725z" />
    <glyph glyph-name="uni0306" unicode="&#x306;" 
d="M-380 1006q-119 0 -196.5 69.5t-100.5 174.5h53q57 -158 245 -158q177 0 236 158h51q-4 -28 -14.5 -57.5t-33 -64t-53.5 -61t-79.5 -44t-107.5 -17.5z" />
    <glyph glyph-name="uni0307" unicode="&#x307;" 
d="M-214 1113q-36 0 -61 26.5t-25 59.5q0 36 25 61t61 25t61.5 -25t25.5 -61q0 -37 -26 -61.5t-61 -24.5z" />
    <glyph glyph-name="uni0308" unicode="&#x308;" 
d="M-575 1138q-36 0 -61 26t-25 60q0 36 25 61t61 25t61 -25t25 -61q0 -37 -25.5 -61.5t-60.5 -24.5zM-214 1138q-36 0 -61 26t-25 60q0 36 25.5 61t60.5 25q36 0 61.5 -25t25.5 -61q0 -37 -25.5 -61.5t-61.5 -24.5z" />
    <glyph glyph-name="uni030A" unicode="&#x30a;" 
d="M-293 966q-76 0 -129.5 53.5t-53.5 130.5t53.5 130.5t129.5 53.5q77 0 131 -54t54 -130t-54 -130t-131 -54zM-293 1019q56 0 94 38t38 93t-38 93t-94 38q-54 0 -91.5 -38t-37.5 -93t37.5 -93t91.5 -38z" />
    <glyph glyph-name="uni030B" unicode="&#x30b;" 
d="M-850 1030l239 322h202v-4l-385 -318h-56zM-468 1030l239 322h203v-4l-386 -318h-56z" />
    <glyph glyph-name="uni030C" unicode="&#x30c;" 
d="M-497 1030l-266 322h56l299 -253l299 253h56l-266 -322h-178z" />
    <glyph glyph-name="uni0327" unicode="&#x327;" 
d="M-372 -489q-101 0 -198 25l14 64q83 -20 169 -20q111 0 174.5 36.5t63.5 90.5q0 14 -4.5 25.5t-15 19t-21 13.5t-28.5 9.5t-31.5 6t-37 3.5t-37.5 1t-39.5 0.5t-37.5 0.5l46 237l69 -7l-32 -158q55 0 97 -6.5t79.5 -21.5t58 -45t20.5 -74q0 -83 -83 -141.5t-226 -58.5z
" />
    <glyph glyph-name="uni0328" unicode="&#x328;" 
d="M-236 -364q-109 0 -175.5 67.5t-66.5 156.5q0 90 75 163l27 -23q-41 -47 -41 -107q0 -80 61.5 -141t148.5 -61q74 0 144 48l23 -31q-93 -72 -196 -72z" />
    <glyph glyph-name="uni0337" unicode="&#x337;" 
d="M-658 436v88l643 493v-87z" />
    <glyph glyph-name="uni0338" unicode="&#x338;" 
d="M-798 -39l-49 42l812 930l48 -43z" />
    <glyph glyph-name="uni0394" unicode="&#x394;" horiz-adv-x="1011" 
d="M106 0l310 1428h182l307 -1428h-799zM190 64h569l-268 1249h-27z" />
    <glyph glyph-name="uni03A9" unicode="&#x3a9;" horiz-adv-x="1464" 
d="M156 0v290h52v-106q0 -91 89 -91h301v175q-388 178 -388 585q0 263 137 415t385 152q247 0 385.5 -155t138.5 -410q0 -201 -100 -351.5t-287 -231.5v-179h299q46 0 68 24.5t22 65.5v107h52v-290h-508v316q153 78 228.5 218.5t75.5 318.5q0 256 -97 383t-277 127
q-184 0 -281 -133t-97 -376q0 -194 78 -332.5t234 -209.5v-312h-510z" />
    <glyph glyph-name="Wgrave" unicode="&#x1e80;" horiz-adv-x="2006" 
d="M1029 1438h-56l-385 317v4h202zM1554 1352h431v-64h-59q-40 0 -63.5 -32t-42.5 -102l-319 -1177h-126l-364 1230l-336 -1230h-127l-361 1211q-16 57 -37.5 78.5t-60.5 21.5h-68v64h558v-64h-187q-89 0 -57 -107l313 -1057h5l336 1241h113l368 -1239l2 -2l274 1021
q38 143 -59 143h-133v64z" />
    <glyph glyph-name="wgrave" unicode="&#x1e81;" horiz-adv-x="1615" 
d="M864 1030h-56l-385 318v4h202zM1273 846h344v-64h-58q-57 0 -86 -79l-274 -723h-110l-268 748l-274 -748h-109l-266 723q-16 44 -36 61.5t-52 17.5h-86v64h465v-64h-100q-44 0 -56 -21t4 -65l217 -593l280 758h98l273 -760l216 576q21 53 10 79t-62 26h-70v64z" />
    <glyph glyph-name="Wacute" unicode="&#x1e82;" horiz-adv-x="2006" 
d="M1415 1755l-386 -317h-55l238 321h203v-4zM1554 1352h431v-64h-59q-40 0 -63.5 -32t-42.5 -102l-319 -1177h-126l-364 1230l-336 -1230h-127l-361 1211q-16 57 -37.5 78.5t-60.5 21.5h-68v64h558v-64h-187q-89 0 -57 -107l313 -1057h5l336 1241h113l368 -1239l2 -2
l274 1021q38 143 -59 143h-133v64z" />
    <glyph glyph-name="wacute" unicode="&#x1e83;" horiz-adv-x="1615" 
d="M1193 1348l-385 -318h-56l239 322h202v-4zM1273 846h344v-64h-58q-57 0 -86 -79l-274 -723h-110l-268 748l-274 -748h-109l-266 723q-16 44 -36 61.5t-52 17.5h-86v64h465v-64h-100q-44 0 -56 -21t4 -65l217 -593l280 758h98l273 -760l216 576q21 53 10 79t-62 26h-70v64
z" />
    <glyph glyph-name="Wdieresis" unicode="&#x1e84;" horiz-adv-x="2006" 
d="M820 1519q-36 0 -61 26.5t-25 60.5q0 35 25 60.5t61 25.5t61 -25.5t25 -60.5q0 -37 -25.5 -62t-60.5 -25zM1181 1519q-36 0 -61 26t-25 61q0 36 25.5 61t60.5 25q36 0 61.5 -25.5t25.5 -60.5q0 -38 -25.5 -62.5t-61.5 -24.5zM1554 1352h431v-64h-59q-40 0 -63.5 -32
t-42.5 -102l-319 -1177h-126l-364 1230l-336 -1230h-127l-361 1211q-16 57 -37.5 78.5t-60.5 21.5h-68v64h558v-64h-187q-89 0 -57 -107l313 -1057h5l336 1241h113l368 -1239l2 -2l274 1021q38 143 -59 143h-133v64z" />
    <glyph glyph-name="wdieresis" unicode="&#x1e85;" horiz-adv-x="1615" 
d="M625 1138q-36 0 -61 26t-25 60q0 36 25 61t61 25t61 -25t25 -61q0 -37 -25.5 -61.5t-60.5 -24.5zM986 1138q-36 0 -61 26t-25 60q0 36 25.5 61t60.5 25q36 0 61.5 -25t25.5 -61q0 -37 -25.5 -61.5t-61.5 -24.5zM1273 846h344v-64h-58q-57 0 -86 -79l-274 -723h-110
l-268 748l-274 -748h-109l-266 723q-16 44 -36 61.5t-52 17.5h-86v64h465v-64h-100q-44 0 -56 -21t4 -65l217 -593l280 758h98l273 -760l216 576q21 53 10 79t-62 26h-70v64z" />
    <glyph glyph-name="Ygrave" unicode="&#x1ef2;" horiz-adv-x="1410" 
d="M680 1438l-385 317v4h202l239 -321h-56zM394 0v64h172q52 0 71.5 23.5t19.5 71.5v318l-440 725q-26 45 -51 65.5t-59 20.5h-88v64h536v-64h-127q-47 0 -56 -31t19 -71l382 -626l372 607q31 53 18.5 87t-65.5 34h-102v64h395v-64h-39q-58 0 -109 -88l-442 -716v-324
q0 -49 19.5 -72.5t71.5 -23.5h172v-64h-670z" />
    <glyph glyph-name="ygrave" unicode="&#x1ef3;" horiz-adv-x="1056" 
d="M529 1030l-385 318v4h202l239 -322h-56zM214 -469q-32 -2 -51 13.5t-20 41.5q-1 27 17 40t45 19q96 22 166.5 78.5t127.5 179.5l41 88l-404 718q-23 42 -41.5 57.5t-47.5 15.5h-52v64h413v-64h-79q-42 0 -50 -26t14 -63l313 -563l251 544q45 108 -37 108h-92v64h330v-64
h-26q-32 0 -53 -19.5t-44 -72.5l-381 -827q-75 -163 -153.5 -239t-186.5 -93z" />
    <glyph glyph-name="endash" unicode="&#x2013;" horiz-adv-x="1352" 
d="M152 362v88h1048v-88h-1048z" />
    <glyph glyph-name="emdash" unicode="&#x2014;" horiz-adv-x="2352" 
d="M152 362v88h2048v-88h-2048z" />
    <glyph glyph-name="quoteleft" unicode="&#x2018;" horiz-adv-x="546" 
d="M274 840q-69 0 -107 51t-38 135q0 130 81 228.5t196 125.5l11 -64q-68 -17 -117 -59t-69 -84t-20 -78q0 -20 8 -29.5t22 -6.5q40 8 44 8q41 0 73.5 -31t32.5 -80q0 -46 -32 -81t-85 -35z" />
    <glyph glyph-name="quoteright" unicode="&#x2019;" horiz-adv-x="548" 
d="M140 840l-11 64q99 26 153 94t54 127q0 19 -8 29t-22 7q-35 -7 -44 -7q-41 0 -73.5 31t-32.5 79q0 46 32 81t85 35q68 0 106.5 -51t38.5 -135q0 -130 -81.5 -228t-196.5 -126z" />
    <glyph glyph-name="quotesinglbase" unicode="&#x201a;" horiz-adv-x="548" 
d="M140 -348l-11 64q99 26 153 94t54 127q0 19 -8 29t-22 7q-5 -1 -21 -4t-23 -3q-41 0 -73.5 31t-32.5 79q0 46 32 81.5t85 35.5q68 0 106.5 -51.5t38.5 -135.5q0 -130 -81.5 -228t-196.5 -126z" />
    <glyph glyph-name="quotedblleft" unicode="&#x201c;" horiz-adv-x="953" 
d="M272 840q-68 0 -105.5 51t-37.5 135q0 130 80.5 228.5t194.5 125.5l10 -64q-97 -25 -150.5 -93.5t-53.5 -127.5q0 -19 8 -29t22 -7q37 8 44 8q40 0 72 -31t32 -80q0 -46 -31.5 -81t-84.5 -35zM682 840q-68 0 -106 51t-38 135q0 130 80.5 228.5t194.5 125.5l11 -64
q-67 -17 -115.5 -59t-68.5 -84t-20 -78q0 -20 8 -29.5t22 -6.5q40 8 43 8q41 0 73 -31t32 -80q0 -46 -32 -81t-84 -35z" />
    <glyph glyph-name="quotedblright" unicode="&#x201d;" horiz-adv-x="956" 
d="M140 840l-11 64q97 26 150.5 94t53.5 127q0 20 -8 29.5t-21 6.5q-35 -7 -44 -7q-41 0 -73 31t-32 79q0 46 32 81t84 35q68 0 106 -51t38 -135q0 -130 -80.5 -228t-194.5 -126zM550 840l-11 64q98 26 151 94t53 127q0 20 -8 29.5t-22 6.5q-35 -7 -43 -7q-41 0 -73 31
t-32 79q0 46 32 81t84 35q68 0 106 -51t38 -135q0 -130 -80.5 -228t-194.5 -126z" />
    <glyph glyph-name="quotedblbase" unicode="&#x201e;" horiz-adv-x="962" 
d="M140 -348l-11 64q99 26 153 94t54 127q0 19 -8 29t-22 7q-5 -1 -21 -4t-23 -3q-41 0 -73.5 31t-32.5 79q0 46 32 81.5t85 35.5q68 0 106.5 -51.5t38.5 -135.5q0 -130 -81.5 -228t-196.5 -126zM554 -348l-11 64q99 26 153 94t54 127q0 19 -8 29t-22 7q-4 -1 -20 -4t-24 -3
q-41 0 -73.5 31t-32.5 79q0 46 32 81.5t85 35.5q69 0 107 -51t38 -136q0 -130 -81 -228t-197 -126z" />
    <glyph glyph-name="dagger" unicode="&#x2020;" horiz-adv-x="902" 
d="M418 -193v127q0 283 -29 646q-12 148 27 207q-25 -3 -111 -28t-129 -25q-13 0 -26.5 2.5t-34 10.5t-33.5 28t-13 50q0 52 31.5 73t68.5 21q45 0 130.5 -28t116.5 -32q-2 9 -12.5 43t-16 54.5t-13 53t-11 63t-3.5 58.5q0 42 10 71t26 41.5t29 17t26 4.5q35 0 63 -30.5
t28 -94.5q0 -24 -3 -51t-10.5 -62t-12 -54t-16 -62t-13.5 -52q36 8 84 23.5t85 24.5t74 9q51 0 77 -27t26 -64q0 -38 -25.5 -65t-77.5 -27q-44 0 -131.5 26t-103.5 28q23 -38 25.5 -89.5t-5.5 -119.5q0 -8 -10 -138t-15.5 -253.5t-5.5 -255.5v-124h-66z" />
    <glyph glyph-name="daggerdbl" unicode="&#x2021;" horiz-adv-x="955" 
d="M756 16q52 0 77.5 -27t25.5 -65q0 -37 -26 -64t-77 -27q-37 0 -73.5 8.5t-84.5 24t-83 23.5q2 -10 11 -43.5t13 -49.5t11 -46.5t10 -50.5t6 -45t3 -45q0 -63 -28 -94t-63 -31q-13 0 -26 4.5t-29.5 17t-26.5 41.5t-10 71q0 28 3.5 58t11.5 63t13 53t16 56t13 43
q-29 -5 -115 -32.5t-132 -27.5q-22 0 -42 6t-39 28.5t-19 58.5q0 30 13 50.5t33.5 28.5t34.5 10.5t26 2.5q43 0 127.5 -25t109.5 -28q-39 72 -24 206q7 41 7 205t-7 206q-8 69 -2.5 118t26.5 89q-23 -3 -108.5 -28t-128.5 -25q-13 0 -26.5 2.5t-34 10.5t-33.5 28t-13 50
q0 52 31.5 73t68.5 21q45 0 131 -28t116 -33q-1 5 -13 43t-16.5 56t-12.5 52t-11.5 63.5t-3.5 58.5q0 42 10 71t26.5 41.5t29.5 17t26 4.5q35 0 63 -30.5t28 -94.5q0 -20 -3 -45t-6 -45t-10 -50.5t-11 -46.5t-13 -49.5t-11 -43.5q35 8 83 23.5t84.5 24t73.5 8.5
q51 0 77 -26.5t26 -64.5t-25.5 -65t-77.5 -27q-44 0 -130.5 26t-104.5 28q23 -38 25.5 -90t-5.5 -119q-9 -88 -8.5 -207.5t8.5 -199.5q8 -67 5.5 -119t-25.5 -90q18 2 104.5 28t130.5 26z" />
    <glyph glyph-name="bullet" unicode="&#x2022;" horiz-adv-x="817" 
d="M408 427q-101 0 -174 72.5t-73 174.5q0 104 73 174.5t174 70.5q100 0 172.5 -70.5t72.5 -174.5q0 -102 -71.5 -174.5t-173.5 -72.5z" />
    <glyph glyph-name="twodotenleader" unicode="&#x2025;" horiz-adv-x="1185" 
d="M302 -34q-48 0 -81.5 34t-33.5 81t33.5 80.5t81.5 33.5q46 0 79.5 -34t33.5 -80q0 -47 -33.5 -81t-79.5 -34zM883 -34q-47 0 -80.5 34t-33.5 81t33.5 80.5t80.5 33.5q46 0 79.5 -33.5t33.5 -80.5t-33.5 -81t-79.5 -34z" />
    <glyph glyph-name="ellipsis" unicode="&#x2026;" horiz-adv-x="1767" 
d="M302 -34q-48 0 -81.5 34t-33.5 81t33.5 80.5t81.5 33.5q46 0 79.5 -34t33.5 -80q0 -47 -33.5 -81t-79.5 -34zM883 -34q-47 0 -80.5 34t-33.5 81t33.5 80.5t80.5 33.5q46 0 79.5 -33.5t33.5 -80.5t-33.5 -81t-79.5 -34zM1465 -34q-47 0 -81 34t-34 81t34 80.5t81 33.5
q46 0 79.5 -33.5t33.5 -80.5t-33.5 -81t-79.5 -34z" />
    <glyph glyph-name="perthousand" unicode="&#x2030;" horiz-adv-x="2368" 
d="M377 673q-62 0 -111 25t-77.5 63t-47 86.5t-25 90t-6.5 80.5q0 166 70.5 261.5t194.5 95.5q73 0 128 -31.5t84.5 -84.5t43.5 -112.5t14 -126.5q0 -42 -7.5 -86t-27 -91.5t-48.5 -84.5t-77 -61t-108 -24zM472 0l693 1352h80l-695 -1352h-78zM378 724q45 0 77.5 27
t48.5 72.5t22.5 90t6.5 93.5q0 317 -158 317q-154 0 -154 -302q0 -55 6.5 -102t22 -94t48.5 -74.5t80 -27.5zM1314 -23q-62 0 -111 25t-77.5 62.5t-47.5 86t-25.5 90.5t-6.5 81q0 166 71 261.5t195 95.5q73 0 128 -31.5t84.5 -84.5t43.5 -112.5t14 -126.5q0 -42 -7.5 -86
t-27 -91.5t-48.5 -84.5t-77 -61t-108 -24zM1991 -23q-62 0 -111 25t-77.5 62.5t-47 86t-25 90.5t-6.5 81q0 166 70.5 261.5t195.5 95.5q73 0 127.5 -31.5t84 -84.5t43.5 -112.5t14 -126.5q0 -42 -7.5 -86t-27 -91.5t-48.5 -84.5t-77 -61t-108 -24zM1315 27q45 0 77.5 27.5
t48.5 73t22.5 90t6.5 93.5q0 317 -158 317q-154 0 -154 -302q0 -43 3.5 -81t14 -79.5t27 -71t45.5 -48.5t67 -19zM1992 27q45 0 77.5 27.5t48.5 73t22.5 90t6.5 93.5q0 317 -157 317q-154 0 -154 -302q0 -55 6 -102t22 -94.5t48.5 -75t79.5 -27.5z" />
    <glyph glyph-name="guilsinglleft" unicode="&#x2039;" horiz-adv-x="515" 
d="M364 0l-314 440l314 441h68l-254 -441l254 -440h-68z" />
    <glyph glyph-name="guilsinglright" unicode="&#x203a;" horiz-adv-x="515" 
d="M151 0h-68l254 440l-254 441h68l314 -441z" />
    <glyph glyph-name="Euro" unicode="&#x20ac;" horiz-adv-x="1231" 
d="M671 -23q-120 0 -217.5 75t-156 201t-76.5 286h-99l9 64h84q-2 22 -2 70q0 26 4 78h-95l9 64h90q31 247 151.5 403t300.5 156q100 0 180 -53t128 -153l3 171h63l2 -396l-63 -1q-22 167 -99 267t-196 100q-94 0 -166.5 -66.5t-114 -176t-54.5 -251.5h515l-9 -64h-507
q-3 -72 -3 -73q0 -62 1 -75h485l-9 -64h-473q19 -226 105 -361t227 -135q119 0 203 107t101 262l59 -9q-26 -209 -131 -317.5t-249 -108.5z" />
    <glyph glyph-name="uni2113" unicode="&#x2113;" horiz-adv-x="879" 
d="M495 -22q-99 0 -154.5 87.5t-55.5 231.5l-3 138q-18 -19 -86 -82t-82 -78l-35 44q16 18 98 94t103 99l-6 460q0 200 69.5 328t197.5 128q89 0 129.5 -57t40.5 -182q0 -258 -197 -510q-58 -81 -101 -126l4 -254q0 -115 29 -178.5t80 -63.5q55 0 87 59t44 186l58 -10
q-17 -159 -70.5 -236.5t-149.5 -77.5zM411 646q30 35 80 106q72 98 117.5 210.5t45.5 221.5q0 97 -22.5 140t-75.5 43q-72 0 -111 -88t-39 -253z" />
    <glyph glyph-name="trademark" unicode="&#x2122;" horiz-adv-x="2207" 
d="M126 1352h744l8 -217l-40 -1l-8 99q-9 47 -28.5 61.5t-56.5 14.5h-199v-663q0 -29 12 -44.5t47 -15.5h76v-40h-367v40h77q34 0 46.5 15.5t12.5 44.5v663h-202q-34 0 -56 -15.5t-27 -62.5l-6 -97l-41 1zM1975 1312q-35 0 -47 -15.5t-12 -46.5v-604q0 -29 12 -44.5
t47 -15.5h84v-40h-375v40h77q33 0 45.5 14t12.5 46v619h-13l-324 -719h-47l-319 719h-8v-601q0 -78 58 -78h62v-40h-279v40h61q55 0 55 79v585q0 31 -11.5 46.5t-44.5 15.5h-60v40h230l309 -694l314 694h257v-40h-84z" />
    <glyph glyph-name="uni2126" unicode="&#x2126;" horiz-adv-x="1464" 
d="M156 0v290h52v-106q0 -91 89 -91h301v175q-388 178 -388 585q0 263 137 415t385 152q247 0 385.5 -155t138.5 -410q0 -201 -100 -351.5t-287 -231.5v-179h299q46 0 68 24.5t22 65.5v107h52v-290h-508v316q153 78 228.5 218.5t75.5 318.5q0 256 -97 383t-277 127
q-184 0 -281 -133t-97 -376q0 -194 78 -332.5t234 -209.5v-312h-510z" />
    <glyph glyph-name="partialdiff" unicode="&#x2202;" horiz-adv-x="1065" 
d="M636 1471q91 0 153.5 -63t91 -171t28.5 -256q0 -120 -23.5 -265t-61.5 -260q-81 -236 -179 -355t-226 -119q-145 0 -225.5 94t-80.5 262q0 139 57 274t165 226.5t238 91.5q106 0 162.5 -59.5t75.5 -147.5q16 113 16 232q0 181 -60 304.5t-164 123.5q-153 0 -256 -177
l-37 30q126 235 326 235zM790 589q2 46 -4.5 89t-25 88t-59.5 72t-101 27q-99 0 -183 -83.5t-130 -210t-46 -258.5q0 -126 58 -194.5t159 -68.5q78 0 146 79.5t112.5 196t73.5 263.5z" />
    <glyph glyph-name="uni2206" unicode="&#x2206;" horiz-adv-x="1011" 
d="M106 0l310 1428h182l307 -1428h-799zM190 64h569l-268 1249h-27z" />
    <glyph glyph-name="product" unicode="&#x220f;" horiz-adv-x="1296" 
d="M128 -248v53h85q62 0 62 99v1364q0 99 -61 99h-102v53h1073v-53h-101q-63 0 -63 -99v-1364q0 -44 15.5 -71.5t46.5 -27.5h86v-53h-427v53h84q63 0 63 99v1451h-482v-1451q0 -44 15 -71.5t46 -27.5h85v-53h-425z" />
    <glyph glyph-name="summation" unicode="&#x2211;" horiz-adv-x="1013" 
d="M825 156l53 -5l-28 -401h-734v73l334 745l-328 779v74h689l34 -324l-52 -3l-23 177q-6 48 -25.5 66.5t-51.5 18.5h-454l310 -731l-347 -767h528q71 0 77 76z" />
    <glyph glyph-name="minus" unicode="&#x2212;" horiz-adv-x="1579" 
d="M234 628v96h1110v-96h-1110z" />
    <glyph glyph-name="radical" unicode="&#x221a;" horiz-adv-x="762" 
d="M546 1505h54l-167 -1513h-80l-168 686l-90 -68l-33 45l170 127l159 -667z" />
    <glyph glyph-name="infinity" unicode="&#x221e;" horiz-adv-x="1363" 
d="M946 826q105 0 169.5 -68t64.5 -180q0 -108 -66.5 -179t-170.5 -71q-79 0 -140.5 44.5t-114.5 134.5q-50 -84 -114 -135.5t-157 -51.5q-105 0 -169.5 68.5t-64.5 179.5q0 109 66.5 179.5t172.5 70.5q147 0 253 -180q107 188 271 188zM942 387q82 0 131 54t49 137
q0 87 -45 138t-127 51q-43 0 -78.5 -16.5t-64.5 -51t-46 -62t-41 -73.5q93 -177 222 -177zM415 379q34 0 65 13.5t52.5 31t44.5 48.5t36 53.5t31 57.5q-96 176 -221 176q-80 0 -131.5 -52t-51.5 -138q0 -88 46 -139t129 -51z" />
    <glyph glyph-name="integral" unicode="&#x222b;" horiz-adv-x="624" 
d="M218 -412q-60 0 -88.5 36t-28.5 85q0 52 41 52q24 0 33 -33q8 -59 62 -59q25 0 38 17t18 63q2 27 -0.5 70.5t-11 134t-12.5 136.5q-18 195 -18 439q0 342 1 405q0 377 42 475q41 106 127 106q101 0 117 -94q3 -20 -5.5 -36t-27.5 -17q-27 -2 -39 30q-14 37 -63 37
q-43 0 -59 -44q-7 -22 -10.5 -50.5t-2.5 -75t3 -80t7 -106.5t7 -113q23 -236 23 -436q0 -384 -3 -461q-5 -262 -26 -348q-29 -133 -124 -133z" />
    <glyph glyph-name="approxequal" unicode="&#x2248;" horiz-adv-x="1304" 
d="M206 709l-67 68q68 93 143.5 143.5t184.5 50.5q123 0 245 -65q117 -66 194 -66q88 0 177 132l67 -69q-110 -159 -242 -159q-99 0 -220 67q-112 64 -218 64q-79 0 -141 -41t-123 -125zM206 241l-67 69q68 93 143.5 143.5t184.5 50.5q129 0 245 -65q117 -66 194 -66
q89 0 177 132l67 -69q-111 -160 -242 -160q-97 0 -220 68q-115 64 -218 64q-80 0 -141.5 -41.5t-122.5 -125.5z" />
    <glyph glyph-name="notequal" unicode="&#x2260;" horiz-adv-x="1359" 
d="M1234 865h-384l-196 -379h580v-96h-629l-218 -423h-128l219 423h-354v96h403l197 379h-600v97h650l202 391h125l-201 -391h334v-97z" />
    <glyph glyph-name="lessequal" unicode="&#x2264;" horiz-adv-x="1216" 
d="M1047 1225v-105l-829 -333l829 -333v-104l-922 378v119zM152 0v96h895v-96h-895z" />
    <glyph glyph-name="greaterequal" unicode="&#x2265;" horiz-adv-x="1216" 
d="M169 1225l922 -378v-119l-922 -378v104l829 333l-829 333v105zM169 0v96h895v-96h-895z" />
    <glyph glyph-name="a.sc" horiz-adv-x="1343" 
d="M1195 52l62 -2v-50h-437v50l101 2q28 0 41 13t4 32l-79 177h-520l-77 -162q-14 -29 4 -44.5t50 -15.5l110 -1v-51h-367v51l45 4q42 13 64 33t38 52l395 823h87l378 -823q18 -38 40.5 -60t60.5 -28zM392 326h471l-214 479h-30z" />
    <glyph glyph-name="aacute.sc" horiz-adv-x="1343" 
d="M1060 1448l-385 -318h-56l239 322h202v-4zM1195 52l62 -2v-50h-437v50l101 2q28 0 41 13t4 32l-79 177h-520l-77 -162q-14 -29 4 -44.5t50 -15.5l110 -1v-51h-367v51l45 4q42 13 64 33t38 52l395 823h87l378 -823q18 -38 40.5 -60t60.5 -28zM392 326h471l-214 479h-30z
" />
    <glyph glyph-name="acircumflex.sc" horiz-adv-x="1343" 
d="M675 1383l-300 -253h-55l265 322h179l265 -322h-55zM1195 52l62 -2v-50h-437v50l101 2q28 0 41 13t4 32l-79 177h-520l-77 -162q-14 -29 4 -44.5t50 -15.5l110 -1v-51h-367v51l45 4q42 13 64 33t38 52l395 823h87l378 -823q18 -38 40.5 -60t60.5 -28zM392 326h471
l-214 479h-30z" />
    <glyph glyph-name="adieresis.sc" horiz-adv-x="1343" 
d="M492 1238q-36 0 -61 26t-25 60q0 36 25 61t61 25t61 -25t25 -61q0 -37 -25.5 -61.5t-60.5 -24.5zM853 1238q-36 0 -61 26t-25 60q0 36 25.5 61t60.5 25q36 0 61.5 -25t25.5 -61q0 -37 -25.5 -61.5t-61.5 -24.5zM1195 52l62 -2v-50h-437v50l101 2q28 0 41 13t4 32l-79 177
h-520l-77 -162q-14 -29 4 -44.5t50 -15.5l110 -1v-51h-367v51l45 4q42 13 64 33t38 52l395 823h87l378 -823q18 -38 40.5 -60t60.5 -28zM392 326h471l-214 479h-30z" />
    <glyph glyph-name="agrave.sc" horiz-adv-x="1343" 
d="M731 1130h-56l-385 318v4h202zM1195 52l62 -2v-50h-437v50l101 2q28 0 41 13t4 32l-79 177h-520l-77 -162q-14 -29 4 -44.5t50 -15.5l110 -1v-51h-367v51l45 4q42 13 64 33t38 52l395 823h87l378 -823q18 -38 40.5 -60t60.5 -28zM392 326h471l-214 479h-30z" />
    <glyph glyph-name="aring.sc" horiz-adv-x="1343" 
d="M675 1066q-76 0 -129.5 53.5t-53.5 130.5t53.5 130.5t129.5 53.5q77 0 131 -54t54 -130t-54 -130t-131 -54zM675 1381q-54 0 -91.5 -38t-37.5 -93t37.5 -93t91.5 -38q56 0 94 38t38 93t-38 93t-94 38zM1195 52l62 -2v-50h-437v50l101 2q28 0 41 13t4 32l-79 177h-520
l-77 -162q-14 -29 4 -44.5t50 -15.5l110 -1v-51h-367v51l45 4q42 13 64 33t38 52l395 823h87l378 -823q18 -38 40.5 -60t60.5 -28zM392 326h471l-214 479h-30z" />
    <glyph glyph-name="atilde.sc" horiz-adv-x="1343" 
d="M384 1107h-54q-2 118 49.5 186t144.5 68q35 0 70.5 -14t52.5 -26t53 -40q3 -2 13 -11t13 -11t12 -9.5t12.5 -9.5t12 -7.5t13.5 -7.5t13 -5t15 -4.5t16 -2.5t18 -1q57 0 90.5 42t34.5 121h56q3 -116 -48 -190.5t-146 -74.5q-40 0 -78 15t-56.5 28t-52.5 41
q-38 33 -67 49.5t-67 16.5q-57 0 -87.5 -42t-32.5 -111zM1195 52l62 -2v-50h-437v50l101 2q28 0 41 13t4 32l-79 177h-520l-77 -162q-14 -29 4 -44.5t50 -15.5l110 -1v-51h-367v51l45 4q42 13 64 33t38 52l395 823h87l378 -823q18 -38 40.5 -60t60.5 -28zM392 326h471
l-214 479h-30z" />
    <glyph glyph-name="b.sc" horiz-adv-x="1339" 
d="M876 507q44 -8 83.5 -20.5t78.5 -33.5t67 -48.5t44.5 -66.5t15.5 -85q-1 -71 -41 -123t-106.5 -78.5t-138 -38.5t-153.5 -12h-571v51h89q39 0 54.5 19t15.5 56v690q0 76 -64 76h-95l1 53l590 -1q177 -1 274 -61.5t93 -163.5q-2 -64 -40 -110.5t-87 -69t-110 -33.5z
M682 897h-233v-365h244q141 0 207 42.5t70 135.5q3 92 -72 139.5t-216 47.5zM1018 263q1 61 -22 103.5t-68.5 66.5t-103.5 34.5t-134 10.5h-241v-352q0 -28 14 -49.5t48 -21.5h207q143 0 220 59t80 149z" />
    <glyph glyph-name="c.sc" horiz-adv-x="1475" 
d="M719 -17q-128 0 -233.5 38.5t-175.5 105t-108 155.5t-38 189q0 98 38.5 186.5t108 157t176.5 108.5t235 40q275 0 433 -209l12 172h59l3 -332h-56q-16 56 -52 109t-89.5 99.5t-130.5 75t-164 28.5q-105 0 -187.5 -37.5t-132.5 -101t-76 -142t-26 -165.5
q0 -189 112.5 -304.5t313.5 -115.5q159 0 277.5 84.5t159.5 233.5h57v-338h-57l-18 173q-141 -210 -441 -210z" />
    <glyph glyph-name="ccedilla.sc" horiz-adv-x="1475" 
d="M1178 358h57v-338h-57l-18 173q-135 -201 -416 -210l-25 -125q55 0 97 -6.5t79.5 -21.5t58 -45t20.5 -74q0 -83 -83 -141.5t-226 -58.5q-101 0 -198 25l14 64q83 -20 169 -20q111 0 174.5 36.5t63.5 90.5q0 14 -4.5 25.5t-15 19t-21 13.5t-28.5 9.5t-31.5 6t-37 3.5
t-37.5 1t-39.5 0.5t-37.5 0.5l38 198q-234 13 -372 151.5t-138 335.5q0 98 38.5 186.5t108 157t176.5 108.5t235 40q275 0 433 -209l12 172h59l3 -332h-56q-16 56 -52 109t-89.5 99.5t-130.5 75t-164 28.5q-105 0 -187.5 -37.5t-132.5 -101t-76 -142t-26 -165.5
q0 -189 112.5 -304.5t313.5 -115.5q159 0 277.5 84.5t159.5 233.5z" />
    <glyph glyph-name="d.sc" horiz-adv-x="1516" 
d="M145 0v51h109q68 0 68 77v692q0 77 -70 77h-107v49h535q316 0 495.5 -119.5t179.5 -354.5q0 -121 -48 -212t-137.5 -147.5t-212 -84.5t-277.5 -28h-535zM543 54h212q205 0 327 118.5t122 300.5q0 108 -38.5 191t-107 133.5t-157 76t-193.5 25.5h-251v-760q0 -42 17 -63.5
t69 -21.5z" />
    <glyph glyph-name="e.sc" horiz-adv-x="1385" 
d="M1138 312l58 -1l-27 -311h-1022v51h99q76 0 76 77v690q0 40 -18.5 58.5t-64.5 18.5h-92v51h974l18 -244l-57 -1l-19 126q-18 39 -41.5 52.5t-66.5 13.5h-498v-371h325q82 0 82 54v77h58v-321h-58v77q0 34 -21 46.5t-59 12.5h-327v-329q0 -43 16 -64t62 -21h442
q59 0 85 17t41 55z" />
    <glyph glyph-name="eacute.sc" horiz-adv-x="1385" 
d="M1078 1348l-385 -318h-56l239 322h202v-4zM1138 312l58 -1l-27 -311h-1022v51h99q76 0 76 77v690q0 40 -18.5 58.5t-64.5 18.5h-92v51h974l18 -244l-57 -1l-19 126q-18 39 -41.5 52.5t-66.5 13.5h-498v-371h325q82 0 82 54v77h58v-321h-58v77q0 34 -21 46.5t-59 12.5
h-327v-329q0 -43 16 -64t62 -21h442q59 0 85 17t41 55z" />
    <glyph glyph-name="ecircumflex.sc" horiz-adv-x="1385" 
d="M693 1283l-300 -253h-55l265 322h179l265 -322h-55zM1138 312l58 -1l-27 -311h-1022v51h99q76 0 76 77v690q0 40 -18.5 58.5t-64.5 18.5h-92v51h974l18 -244l-57 -1l-19 126q-18 39 -41.5 52.5t-66.5 13.5h-498v-371h325q82 0 82 54v77h58v-321h-58v77q0 34 -21 46.5
t-59 12.5h-327v-329q0 -43 16 -64t62 -21h442q59 0 85 17t41 55z" />
    <glyph glyph-name="edieresis.sc" horiz-adv-x="1385" 
d="M510 1138q-36 0 -61 26t-25 60q0 36 25 61t61 25t61 -25t25 -61q0 -37 -25.5 -61.5t-60.5 -24.5zM871 1138q-36 0 -61 26t-25 60q0 36 25.5 61t60.5 25q36 0 61.5 -25t25.5 -61q0 -37 -25.5 -61.5t-61.5 -24.5zM1138 312l58 -1l-27 -311h-1022v51h99q76 0 76 77v690
q0 40 -18.5 58.5t-64.5 18.5h-92v51h974l18 -244l-57 -1l-19 126q-18 39 -41.5 52.5t-66.5 13.5h-498v-371h325q82 0 82 54v77h58v-321h-58v77q0 34 -21 46.5t-59 12.5h-327v-329q0 -43 16 -64t62 -21h442q59 0 85 17t41 55z" />
    <glyph glyph-name="egrave.sc" horiz-adv-x="1385" 
d="M749 1030h-56l-385 318v4h202zM1138 312l58 -1l-27 -311h-1022v51h99q76 0 76 77v690q0 40 -18.5 58.5t-64.5 18.5h-92v51h974l18 -244l-57 -1l-19 126q-18 39 -41.5 52.5t-66.5 13.5h-498v-371h325q82 0 82 54v77h58v-321h-58v77q0 34 -21 46.5t-59 12.5h-327v-329
q0 -43 16 -64t62 -21h442q59 0 85 17t41 55z" />
    <glyph glyph-name="f.sc" horiz-adv-x="1255" 
d="M148 0v51h92q45 0 63 18.5t18 58.5v690q0 41 -18.5 59t-65.5 18h-91v51h968l16 -247l-58 -1l-15 121q-21 44 -49 59t-65 15h-487v-368h319q77 0 77 65v63h58v-323h-58v70q0 70 -77 70h-319v-342q0 -38 18.5 -57.5t67.5 -19.5h111v-51h-505z" />
    <glyph glyph-name="g.sc" horiz-adv-x="1516" 
d="M735 -17q-129 0 -238.5 40t-182.5 106.5t-114 154.5t-41 184q0 132 72 245.5t200.5 181.5t284.5 68q144 0 259.5 -56.5t175.5 -142.5l11 171h56l5 -323h-56q-19 53 -55 103t-89 92.5t-127 68t-158 25.5q-102 0 -185.5 -38t-135.5 -101t-79.5 -140.5t-27.5 -159.5
q0 -83 28 -158t80 -134.5t136.5 -94.5t188.5 -35q147 0 245.5 58t123.5 175q0 40 -20 58t-66 18h-320v51h671v-51h-67q-63 0 -63 -80v-277h-60l-38 150q-83 -89 -182 -124t-232 -35z" />
    <glyph glyph-name="h.sc" horiz-adv-x="1621" 
d="M137 0v51h124q46 0 63.5 18.5t17.5 58.5v690q0 39 -17.5 58t-63.5 19h-124v51h543v-51h-124q-46 0 -62.5 -19t-16.5 -58v-289h667v289q0 38 -17 57.5t-61 19.5h-124v51h542v-51h-125q-45 0 -62.5 -19t-17.5 -58v-690q0 -39 17.5 -58t62.5 -19h125v-51h-542v51h128
q42 0 58 20t16 57v344h-667v-344q0 -37 15.5 -57t56.5 -20h131v-51h-543z" />
    <glyph glyph-name="i.sc" horiz-adv-x="820" 
d="M137 0v51h120q49 0 67 18.5t18 58.5v692q0 40 -18 58.5t-67 18.5h-120v51h546v-51h-120q-50 0 -68 -17.5t-18 -59.5v-692q0 -42 18 -59.5t68 -17.5h120v-51h-546z" />
    <glyph glyph-name="iacute.sc" horiz-adv-x="820" 
d="M410 1130h-56l239 322h202v-4zM137 0v51h120q49 0 67 18.5t18 58.5v692q0 40 -18 58.5t-67 18.5h-120v51h546v-51h-120q-50 0 -68 -17.5t-18 -59.5v-692q0 -42 18 -59.5t68 -17.5h120v-51h-546z" />
    <glyph glyph-name="icircumflex.sc" horiz-adv-x="820" 
d="M55 1130l265 322h179l265 -322h-55l-299 253l-300 -253h-55zM137 0v51h120q49 0 67 18.5t18 58.5v692q0 40 -18 58.5t-67 18.5h-120v51h546v-51h-120q-50 0 -68 -17.5t-18 -59.5v-692q0 -42 18 -59.5t68 -17.5h120v-51h-546z" />
    <glyph glyph-name="idieresis.sc" horiz-adv-x="820" 
d="M227 1238q-36 0 -61 26t-25 60q0 36 25 61t61 25t61 -25t25 -61q0 -37 -25.5 -61.5t-60.5 -24.5zM588 1238q-36 0 -61 26t-25 60q0 36 25.5 61t60.5 25q36 0 61.5 -25t25.5 -61q0 -37 -25.5 -61.5t-61.5 -24.5zM137 0v51h120q49 0 67 18.5t18 58.5v692q0 40 -18 58.5
t-67 18.5h-120v51h546v-51h-120q-50 0 -68 -17.5t-18 -59.5v-692q0 -42 18 -59.5t68 -17.5h120v-51h-546z" />
    <glyph glyph-name="igrave.sc" horiz-adv-x="820" 
d="M410 1130l-385 318v4h202l239 -322h-56zM137 0v51h120q49 0 67 18.5t18 58.5v692q0 40 -18 58.5t-67 18.5h-120v51h546v-51h-120q-50 0 -68 -17.5t-18 -59.5v-692q0 -42 18 -59.5t68 -17.5h120v-51h-546z" />
    <glyph glyph-name="j.sc" horiz-adv-x="843" 
d="M151 -346q-74 0 -139 18.5t-111 61.5t-46 103q0 25 17.5 43t48.5 18q32 0 53.5 -16t21.5 -44q0 -10 -16.5 -28.5t-10.5 -31.5q38 -77 196 -77q132 0 191 75.5t59 230.5v811q0 38 -17 57.5t-67 19.5h-229v51h625v-51h-95q-47 0 -64.5 -18.5t-17.5 -58.5v-780
q0 -384 -399 -384z" />
    <glyph glyph-name="k.sc" horiz-adv-x="1572" 
d="M136 0v51h117q44 0 61.5 17t17.5 60v690q0 42 -18 59.5t-65 17.5h-113v51h537v-51h-124q-49 0 -66 -20t-17 -58v-408l499 396q45 28 45 58q0 32 -51 32h-103v51h511v-51h-127q-18 0 -36 -4t-30.5 -8.5t-31 -15.5t-26.5 -16.5t-28 -19.5t-25 -18l-244 -204l394 -473
q41 -47 67.5 -66t64.5 -19h126v-51h-550v51h106q60 0 60 33q0 26 -46 74l-323 379l-252 -203v-206q0 -40 16 -58t54 -19l130 -1l3 -50h-533z" />
    <glyph glyph-name="l.sc" horiz-adv-x="1297" 
d="M136 0v51h125q44 0 62.5 17t18.5 60v690q0 40 -18 58.5t-65 18.5h-123v51h549v-51h-123q-49 0 -67 -17.5t-18 -59.5v-682q0 -43 17 -62.5t68 -19.5h367q154 0 156 108l20 152l57 -1l-26 -313h-1000z" />
    <glyph glyph-name="lslash.sc" horiz-adv-x="1297" 
d="M1105 314l57 -1l-26 -313h-1000v51h125q44 0 62.5 17t18.5 60v190l-177 -136v88l177 136v412q0 40 -18 58.5t-65 18.5h-123v51h549v-51h-123q-49 0 -67 -17.5t-18 -59.5v-309l331 254v-87l-331 -254v-286q0 -43 17 -62.5t68 -19.5h367q154 0 156 108z" />
    <glyph glyph-name="m.sc" horiz-adv-x="1896" 
d="M1636 51h126v-51h-542v51h114q48 0 65.5 17.5t17.5 59.5v702h-18l-474 -830h-68l-465 830h-12v-677q0 -102 83 -102h91v-51h-406v51h92q80 0 80 102v665q0 37 -16.5 57t-63.5 20h-92v51h332l451 -800l459 800h370v-51h-124q-49 0 -66.5 -20t-17.5 -57v-690q0 -37 17 -57
t67 -20z" />
    <glyph glyph-name="n.sc" horiz-adv-x="1537" 
d="M1004 946h412v-51h-93q-40 0 -59 -27t-19 -69v-815h-68l-793 846v-681q0 -98 87 -98h91v-51h-415v51h92q27 0 45 11.5t25.5 29.5t10 31t2.5 26v657q0 41 -22.5 65t-64.5 24h-90v51h314l724 -763v617q0 36 -18.5 65.5t-65.5 29.5h-95v51z" />
    <glyph glyph-name="ntilde.sc" horiz-adv-x="1537" 
d="M487 1107h-54q-2 118 49.5 186t144.5 68q35 0 70.5 -14t52.5 -26t53 -40q3 -2 13 -11t13 -11t12 -9.5t12.5 -9.5t12 -7.5t13.5 -7.5t13 -5t15 -4.5t16 -2.5t18 -1q57 0 90.5 42t34.5 121h56q3 -116 -48 -190.5t-146 -74.5q-40 0 -78 15t-56.5 28t-52.5 41
q-38 33 -67 49.5t-67 16.5q-57 0 -87.5 -42t-32.5 -111zM1004 946h412v-51h-93q-40 0 -59 -27t-19 -69v-815h-68l-793 846v-681q0 -98 87 -98h91v-51h-415v51h92q27 0 45 11.5t25.5 29.5t10 31t2.5 26v657q0 41 -22.5 65t-64.5 24h-90v51h314l724 -763v617q0 36 -18.5 65.5
t-65.5 29.5h-95v51z" />
    <glyph glyph-name="o.sc" horiz-adv-x="1454" 
d="M728 -17q-255 0 -410 138t-155 355q0 95 38.5 182.5t108 155.5t177.5 108.5t238 40.5q134 0 243.5 -41t178.5 -110.5t106.5 -156.5t37.5 -182q0 -98 -38.5 -186.5t-108.5 -156t-178 -107.5t-238 -40zM725 40q192 0 301.5 113t109.5 321q0 210 -110.5 321t-299.5 111
q-192 0 -300.5 -119t-108.5 -308q0 -84 25.5 -161.5t74.5 -140t128.5 -100t179.5 -37.5z" />
    <glyph glyph-name="oacute.sc" horiz-adv-x="1454" 
d="M727 1130h-56l239 322h202v-4zM728 -17q-255 0 -410 138t-155 355q0 95 38.5 182.5t108 155.5t177.5 108.5t238 40.5q134 0 243.5 -41t178.5 -110.5t106.5 -156.5t37.5 -182q0 -98 -38.5 -186.5t-108.5 -156t-178 -107.5t-238 -40zM725 40q192 0 301.5 113t109.5 321
q0 210 -110.5 321t-299.5 111q-192 0 -300.5 -119t-108.5 -308q0 -84 25.5 -161.5t74.5 -140t128.5 -100t179.5 -37.5z" />
    <glyph glyph-name="ocircumflex.sc" horiz-adv-x="1454" 
d="M372 1130l265 322h179l265 -322h-55l-299 253l-300 -253h-55zM728 -17q-255 0 -410 138t-155 355q0 95 38.5 182.5t108 155.5t177.5 108.5t238 40.5q134 0 243.5 -41t178.5 -110.5t106.5 -156.5t37.5 -182q0 -98 -38.5 -186.5t-108.5 -156t-178 -107.5t-238 -40zM725 40
q192 0 301.5 113t109.5 321q0 210 -110.5 321t-299.5 111q-192 0 -300.5 -119t-108.5 -308q0 -84 25.5 -161.5t74.5 -140t128.5 -100t179.5 -37.5z" />
    <glyph glyph-name="odieresis.sc" horiz-adv-x="1454" 
d="M544 1238q-36 0 -61 26t-25 60q0 36 25 61t61 25t61 -25t25 -61q0 -37 -25.5 -61.5t-60.5 -24.5zM905 1238q-36 0 -61 26t-25 60q0 36 25.5 61t60.5 25q36 0 61.5 -25t25.5 -61q0 -37 -25.5 -61.5t-61.5 -24.5zM728 -17q-255 0 -410 138t-155 355q0 95 38.5 182.5
t108 155.5t177.5 108.5t238 40.5q134 0 243.5 -41t178.5 -110.5t106.5 -156.5t37.5 -182q0 -98 -38.5 -186.5t-108.5 -156t-178 -107.5t-238 -40zM725 40q192 0 301.5 113t109.5 321q0 210 -110.5 321t-299.5 111q-192 0 -300.5 -119t-108.5 -308q0 -84 25.5 -161.5
t74.5 -140t128.5 -100t179.5 -37.5z" />
    <glyph glyph-name="ograve.sc" horiz-adv-x="1454" 
d="M727 1130l-385 318v4h202l239 -322h-56zM728 -17q-255 0 -410 138t-155 355q0 95 38.5 182.5t108 155.5t177.5 108.5t238 40.5q134 0 243.5 -41t178.5 -110.5t106.5 -156.5t37.5 -182q0 -98 -38.5 -186.5t-108.5 -156t-178 -107.5t-238 -40zM725 40q192 0 301.5 113
t109.5 321q0 210 -110.5 321t-299.5 111q-192 0 -300.5 -119t-108.5 -308q0 -84 25.5 -161.5t74.5 -140t128.5 -100t179.5 -37.5z" />
    <glyph glyph-name="oslash.sc" horiz-adv-x="1454" 
d="M1100 851q93 -69 142 -168.5t49 -209.5q0 -98 -38.5 -186.5t-108.5 -156t-178 -107.5t-238 -40q-182 0 -320 75l-62 -71l-49 42l56 64q-91 66 -140.5 165t-49.5 218q0 95 38.5 182.5t108 155.5t177.5 108.5t238 40.5q184 0 320 -77l64 73l48 -43zM317 479
q0 -184 105 -307l570 653q-104 81 -266 81q-192 0 -300.5 -119t-108.5 -308zM725 40q192 0 301.5 113t109.5 321q0 195 -97 306l-571 -654q104 -86 257 -86z" />
    <glyph glyph-name="oslashacute.sc" horiz-adv-x="1454" 
d="M1112 1448l-385 -318h-56l239 322h202v-4zM1100 851q93 -69 142 -168.5t49 -209.5q0 -98 -38.5 -186.5t-108.5 -156t-178 -107.5t-238 -40q-182 0 -320 75l-62 -71l-49 42l56 64q-91 66 -140.5 165t-49.5 218q0 95 38.5 182.5t108 155.5t177.5 108.5t238 40.5
q184 0 320 -77l64 73l48 -43zM317 479q0 -184 105 -307l570 653q-104 81 -266 81q-192 0 -300.5 -119t-108.5 -308zM725 40q192 0 301.5 113t109.5 321q0 195 -97 306l-571 -654q104 -86 257 -86z" />
    <glyph glyph-name="otilde.sc" horiz-adv-x="1454" 
d="M382 1107q-2 118 49.5 186t144.5 68q35 0 70.5 -14t52.5 -26t53 -40q3 -2 13 -11t13 -11t12 -9.5t12.5 -9.5t12 -7.5t13.5 -7.5t13 -5t15 -4.5t16 -2.5t18 -1q57 0 90.5 42t34.5 121h56q3 -116 -48 -190.5t-146 -74.5q-40 0 -78 15t-56.5 28t-52.5 41q-38 33 -67 49.5
t-67 16.5q-57 0 -87.5 -42t-32.5 -111h-54zM728 -17q-255 0 -410 138t-155 355q0 95 38.5 182.5t108 155.5t177.5 108.5t238 40.5q134 0 243.5 -41t178.5 -110.5t106.5 -156.5t37.5 -182q0 -98 -38.5 -186.5t-108.5 -156t-178 -107.5t-238 -40zM725 40q192 0 301.5 113
t109.5 321q0 210 -110.5 321t-299.5 111q-192 0 -300.5 -119t-108.5 -308q0 -84 25.5 -161.5t74.5 -140t128.5 -100t179.5 -37.5z" />
    <glyph glyph-name="p.sc" horiz-adv-x="1237" 
d="M148 0v51h93q45 0 63 18t18 59v692q0 36 -17.5 56.5t-66.5 20.5h-93v49h533q133 0 224.5 -22.5t147.5 -80t56 -149.5q0 -130 -103 -194.5t-294 -64.5h-252v-307q0 -37 17.5 -57t67.5 -20h91v-51h-485zM457 489h242q128 0 195.5 48t67.5 155q0 205 -262 205h-243v-408z
" />
    <glyph glyph-name="q.sc" horiz-adv-x="1353" 
d="M676 -17q-255 0 -410 138t-155 355q0 95 38.5 182.5t108 155.5t177.5 108.5t238 40.5q134 0 243.5 -41t178.5 -110.5t106.5 -156.5t37.5 -182q0 -98 -38.5 -186.5t-108.5 -156t-178 -107.5t-238 -40zM673 40q192 0 301.5 113t109.5 321q0 210 -110.5 321t-299.5 111
q-192 0 -300.5 -119t-108.5 -308q0 -84 25.5 -161.5t74.5 -140t128.5 -100t179.5 -37.5zM852 -131q43 -12 100 -40.5t108.5 -47t105.5 -18.5q145 0 219 68l56 -61q-101 -99 -293 -99q-52 0 -96 9t-85 30.5t-63 36t-63 44.5q-118 85 -211 85q-53 0 -106 -25t-124 -76l-35 34
q76 52 132.5 79t115.5 31q106 13 239 -50z" />
    <glyph glyph-name="r.sc" horiz-adv-x="1429" 
d="M146 0v51h92q47 0 65.5 17.5t18.5 59.5v692q0 40 -18 57.5t-62 17.5h-96v51h590q183 0 287 -64t104 -190q0 -96 -71.5 -160t-191.5 -74q22 -13 44 -33t36.5 -35.5t46.5 -52.5l200 -233q50 -53 92 -53h57v-51h-219l-257 318q-54 69 -97.5 92.5t-106.5 23.5h-203v-306
q0 -41 18 -59t65 -18h91v-51h-485zM457 489h242q288 0 288 205q0 98 -73 148.5t-211 50.5h-246v-404z" />
    <glyph glyph-name="s.sc" horiz-adv-x="1181" 
d="M649 -17q-122 0 -218 40t-148 119l-12 -127h-60v326h60q10 -129 108.5 -215t269.5 -86q40 0 79.5 9.5t76 29t59 55t22.5 82.5q0 25 -8 47t-19 38t-33.5 31.5t-40.5 25.5t-53 23t-57 20t-65 20q-179 60 -238 91q-120 62 -139 158q-5 22 -5 46q0 107 95.5 177.5t231.5 70.5
q90 0 171 -34t129 -93l12 111h58v-278h-58q-12 108 -100 174t-203 66q-104 0 -165.5 -45.5t-61.5 -106.5q0 -53 41 -91.5t86.5 -56.5t157.5 -53q19 -6 28 -9q66 -20 107 -35t92.5 -40.5t81 -53t50 -69t20.5 -91.5q0 -68 -34.5 -123t-88 -87t-113 -49t-116.5 -17z" />
    <glyph glyph-name="scaron.sc" horiz-adv-x="1181" 
d="M507 1130l-266 322h56l299 -253l299 253h56l-266 -322h-178zM649 -17q-122 0 -218 40t-148 119l-12 -127h-60v326h60q10 -129 108.5 -215t269.5 -86q40 0 79.5 9.5t76 29t59 55t22.5 82.5q0 25 -8 47t-19 38t-33.5 31.5t-40.5 25.5t-53 23t-57 20t-65 20q-179 60 -238 91
q-120 62 -139 158q-5 22 -5 46q0 107 95.5 177.5t231.5 70.5q90 0 171 -34t129 -93l12 111h58v-278h-58q-12 108 -100 174t-203 66q-104 0 -165.5 -45.5t-61.5 -106.5q0 -53 41 -91.5t86.5 -56.5t157.5 -53q19 -6 28 -9q66 -20 107 -35t92.5 -40.5t81 -53t50 -69t20.5 -91.5
q0 -68 -34.5 -123t-88 -87t-113 -49t-116.5 -17z" />
    <glyph glyph-name="t.sc" horiz-adv-x="1357" 
d="M413 0v51h114q50 0 67.5 20t17.5 57v765h-300q-24 0 -41 -3t-36 -12.5t-30 -31.5t-13 -55l-8 -102l-57 1l12 256h1079l12 -256l-58 -1l-7 104q-8 60 -38.5 80t-83.5 20h-298v-765q0 -37 17.5 -57t68.5 -20h114v-51h-532z" />
    <glyph glyph-name="u.sc" horiz-adv-x="1482" 
d="M746 -17q-230 0 -348 94t-118 276v465q0 40 -18 58.5t-65 18.5h-90v51h525v-51h-135q-46 0 -64.5 -18t-18.5 -59v-465q0 -310 361 -310q196 0 285.5 82.5t89.5 240.5v440q0 39 -22 64t-67 25h-81v51h384v-51h-73q-40 0 -60 -24.5t-20 -63.5v-443q0 -381 -465 -381z" />
    <glyph glyph-name="uacute.sc" horiz-adv-x="1482" 
d="M742 1132h-56l239 322h202v-4zM746 -17q-230 0 -348 94t-118 276v465q0 40 -18 58.5t-65 18.5h-90v51h525v-51h-135q-46 0 -64.5 -18t-18.5 -59v-465q0 -310 361 -310q196 0 285.5 82.5t89.5 240.5v440q0 39 -22 64t-67 25h-81v51h384v-51h-73q-40 0 -60 -24.5t-20 -63.5
v-443q0 -381 -465 -381z" />
    <glyph glyph-name="ucircumflex.sc" horiz-adv-x="1482" 
d="M387 1132l265 322h179l265 -322h-55l-299 253l-300 -253h-55zM746 -17q-230 0 -348 94t-118 276v465q0 40 -18 58.5t-65 18.5h-90v51h525v-51h-135q-46 0 -64.5 -18t-18.5 -59v-465q0 -310 361 -310q196 0 285.5 82.5t89.5 240.5v440q0 39 -22 64t-67 25h-81v51h384v-51
h-73q-40 0 -60 -24.5t-20 -63.5v-443q0 -381 -465 -381z" />
    <glyph glyph-name="udieresis.sc" horiz-adv-x="1482" 
d="M559 1240q-36 0 -61 26t-25 60q0 36 25 61t61 25t61 -25t25 -61q0 -37 -25.5 -61.5t-60.5 -24.5zM920 1240q-36 0 -61 26t-25 60q0 36 25.5 61t60.5 25q36 0 61.5 -25t25.5 -61q0 -37 -25.5 -61.5t-61.5 -24.5zM746 -17q-230 0 -348 94t-118 276v465q0 40 -18 58.5
t-65 18.5h-90v51h525v-51h-135q-46 0 -64.5 -18t-18.5 -59v-465q0 -310 361 -310q196 0 285.5 82.5t89.5 240.5v440q0 39 -22 64t-67 25h-81v51h384v-51h-73q-40 0 -60 -24.5t-20 -63.5v-443q0 -381 -465 -381z" />
    <glyph glyph-name="ugrave.sc" horiz-adv-x="1482" 
d="M742 1132l-385 318v4h202l239 -322h-56zM746 -17q-230 0 -348 94t-118 276v465q0 40 -18 58.5t-65 18.5h-90v51h525v-51h-135q-46 0 -64.5 -18t-18.5 -59v-465q0 -310 361 -310q196 0 285.5 82.5t89.5 240.5v440q0 39 -22 64t-67 25h-81v51h384v-51h-73q-40 0 -60 -24.5
t-20 -63.5v-443q0 -381 -465 -381z" />
    <glyph glyph-name="v.sc" horiz-adv-x="1400" 
d="M928 946h387v-51h-63q-37 0 -59 -23t-58 -92l-371 -798h-90l-410 820q-22 40 -32.5 55t-28.5 26.5t-45 11.5h-73v51h519v-51h-149q-99 0 -51 -83l353 -694l319 674q25 42 13.5 72.5t-61.5 30.5h-100v51z" />
    <glyph glyph-name="w.sc" horiz-adv-x="1876" 
d="M1413 946h373v-51h-48q-35 0 -56 -26.5t-42 -87.5l-272 -798h-110l-316 829l-288 -829h-111l-309 830q-17 48 -35.5 65t-53.5 17h-57v51h485v-51h-153q-84 0 -48 -83l264 -697l291 839h100l317 -835l227 658q13 33 14.5 58t-14 42.5t-48.5 17.5h-110v51z" />
    <glyph glyph-name="wacute.sc" horiz-adv-x="1876" 
d="M1321 1448l-385 -318h-56l239 322h202v-4zM1413 946h373v-51h-48q-35 0 -56 -26.5t-42 -87.5l-272 -798h-110l-316 829l-288 -829h-111l-309 830q-17 48 -35.5 65t-53.5 17h-57v51h485v-51h-153q-84 0 -48 -83l264 -697l291 839h100l317 -835l227 658q13 33 14.5 58
t-14 42.5t-48.5 17.5h-110v51z" />
    <glyph glyph-name="wcircumflex.sc" horiz-adv-x="1876" 
d="M936 1383l-300 -253h-55l265 322h179l265 -322h-55zM1413 946h373v-51h-48q-35 0 -56 -26.5t-42 -87.5l-272 -798h-110l-316 829l-288 -829h-111l-309 830q-17 48 -35.5 65t-53.5 17h-57v51h485v-51h-153q-84 0 -48 -83l264 -697l291 839h100l317 -835l227 658
q13 33 14.5 58t-14 42.5t-48.5 17.5h-110v51z" />
    <glyph glyph-name="wdieresis.sc" horiz-adv-x="1876" 
d="M753 1238q-36 0 -61 26t-25 60q0 36 25 61t61 25t61 -25t25 -61q0 -37 -25.5 -61.5t-60.5 -24.5zM1114 1238q-36 0 -61 26t-25 60q0 36 25.5 61t60.5 25q36 0 61.5 -25t25.5 -61q0 -37 -25.5 -61.5t-61.5 -24.5zM1413 946h373v-51h-48q-35 0 -56 -26.5t-42 -87.5
l-272 -798h-110l-316 829l-288 -829h-111l-309 830q-17 48 -35.5 65t-53.5 17h-57v51h485v-51h-153q-84 0 -48 -83l264 -697l291 839h100l317 -835l227 658q13 33 14.5 58t-14 42.5t-48.5 17.5h-110v51z" />
    <glyph glyph-name="wgrave.sc" horiz-adv-x="1876" 
d="M992 1130h-56l-385 318v4h202zM1413 946h373v-51h-48q-35 0 -56 -26.5t-42 -87.5l-272 -798h-110l-316 829l-288 -829h-111l-309 830q-17 48 -35.5 65t-53.5 17h-57v51h485v-51h-153q-84 0 -48 -83l264 -697l291 839h100l317 -835l227 658q13 33 14.5 58t-14 42.5
t-48.5 17.5h-110v51z" />
    <glyph glyph-name="x.sc" horiz-adv-x="1603" 
d="M137 0v51h63q51 0 137 69l395 346l-370 347q-5 5 -18.5 17.5t-17.5 16t-14 12.5t-14 11.5t-12.5 8.5t-13.5 7.5t-13 4.5t-15 3.5t-16 0.5h-104v51h545v-51h-116q-43 0 -50.5 -20.5t25.5 -52.5l295 -271l303 267q39 32 30.5 54.5t-55.5 22.5h-126v51h455v-51h-69
q-58 0 -148 -71l-350 -310l394 -373q5 -5 24 -23.5t24 -23t20 -16.5t23.5 -15.5t22 -7.5t27.5 -4h93v-51h-580v51h143q55 0 65 23t-31 62l-318 293l-332 -294q-38 -33 -27 -58.5t62 -25.5h142v-51h-478z" />
    <glyph glyph-name="y.sc" horiz-adv-x="1358" 
d="M407 0v51h142q48 0 65.5 19.5t17.5 56.5v216l-373 482q-30 38 -51 54t-49 16h-74v51h505v-51h-140q-42 0 -49 -24.5t19 -52.5l321 -405l309 388q34 37 22.5 65.5t-60.5 28.5h-118v51h379v-51h-29q-29 0 -52 -17t-54 -54l-371 -473l-1 -223q0 -39 18 -58t65 -19h140v-51
h-582z" />
    <glyph glyph-name="yacute.sc" horiz-adv-x="1358" 
d="M682 1130h-56l239 322h202v-4zM407 0v51h142q48 0 65.5 19.5t17.5 56.5v216l-373 482q-30 38 -51 54t-49 16h-74v51h505v-51h-140q-42 0 -49 -24.5t19 -52.5l321 -405l309 388q34 37 22.5 65.5t-60.5 28.5h-118v51h379v-51h-29q-29 0 -52 -17t-54 -54l-371 -473l-1 -223
q0 -39 18 -58t65 -19h140v-51h-582z" />
    <glyph glyph-name="ycircumflex.sc" horiz-adv-x="1358" 
d="M327 1130l265 322h179l265 -322h-55l-299 253l-300 -253h-55zM407 0v51h142q48 0 65.5 19.5t17.5 56.5v216l-373 482q-30 38 -51 54t-49 16h-74v51h505v-51h-140q-42 0 -49 -24.5t19 -52.5l321 -405l309 388q34 37 22.5 65.5t-60.5 28.5h-118v51h379v-51h-29
q-29 0 -52 -17t-54 -54l-371 -473l-1 -223q0 -39 18 -58t65 -19h140v-51h-582z" />
    <glyph glyph-name="ydieresis.sc" horiz-adv-x="1358" 
d="M499 1238q-36 0 -61 26t-25 60q0 36 25 61t61 25t61 -25t25 -61q0 -37 -25.5 -61.5t-60.5 -24.5zM860 1238q-36 0 -61 26t-25 60q0 36 25.5 61t60.5 25q36 0 61.5 -25t25.5 -61q0 -37 -25.5 -61.5t-61.5 -24.5zM407 0v51h142q48 0 65.5 19.5t17.5 56.5v216l-373 482
q-30 38 -51 54t-49 16h-74v51h505v-51h-140q-42 0 -49 -24.5t19 -52.5l321 -405l309 388q34 37 22.5 65.5t-60.5 28.5h-118v51h379v-51h-29q-29 0 -52 -17t-54 -54l-371 -473l-1 -223q0 -39 18 -58t65 -19h140v-51h-582z" />
    <glyph glyph-name="ygrave.sc" horiz-adv-x="1358" 
d="M682 1130l-385 318v4h202l239 -322h-56zM407 0v51h142q48 0 65.5 19.5t17.5 56.5v216l-373 482q-30 38 -51 54t-49 16h-74v51h505v-51h-140q-42 0 -49 -24.5t19 -52.5l321 -405l309 388q34 37 22.5 65.5t-60.5 28.5h-118v51h379v-51h-29q-29 0 -52 -17t-54 -54l-371 -473
l-1 -223q0 -39 18 -58t65 -19h140v-51h-582z" />
    <glyph glyph-name="z.sc" horiz-adv-x="1366" 
d="M1142 300l59 -2l-32 -298h-1005v65l833 834h-586q-60 0 -93.5 -17t-53.5 -50l-31 -132l-57 1l30 252h952v-63l-841 -836h650q58 0 91 13t53 56z" />
    <glyph glyph-name="zcaron.sc" horiz-adv-x="1366" 
d="M764 1130h-178l-266 322h56l299 -253l299 253h56zM1142 300l59 -2l-32 -298h-1005v65l833 834h-586q-60 0 -93.5 -17t-53.5 -50l-31 -132l-57 1l30 252h952v-63l-841 -836h650q58 0 91 13t53 56z" />
    <glyph glyph-name="zero.sc" horiz-adv-x="1113" 
d="M556 -17q-68 0 -129.5 16t-118.5 53t-98.5 92.5t-66.5 140.5t-25 192q0 228 120.5 356.5t317.5 128.5q93 0 171.5 -29.5t139 -88t95 -154t34.5 -217.5q0 -232 -119 -361t-321 -129zM559 37q295 0 295 420q0 230 -73.5 340.5t-224.5 110.5q-148 0 -222.5 -115.5
t-74.5 -316.5q0 -439 300 -439z" />
    <glyph glyph-name="one.sc" horiz-adv-x="1111" 
d="M739 53h239v-53h-821v53h279q82 0 82 65v743q-61 -36 -135.5 -49.5t-225.5 -13.5v52q183 2 268 24.5t147 87.5h85v-842q0 -67 82 -67z" />
    <glyph glyph-name="two.sc" horiz-adv-x="1111" 
d="M967 216h62l-114 -249h-64q8 17 2.5 25t-34.5 8h-671v59q241 136 437 322q190 172 190 322q0 88 -69 145.5t-188 57.5q-111 0 -185.5 -45.5t-74.5 -111.5q0 -50 40 -100l-86 -36q-50 66 -50 121q0 100 111 164t271 64q164 0 268.5 -70t104.5 -185q0 -76 -56 -153
t-172 -180q-27 -25 -54.5 -48t-47.5 -40t-50.5 -38.5t-44.5 -31.5t-49.5 -33t-46 -30t-54.5 -34t-55 -34h542q71 0 93 40z" />
    <glyph glyph-name="three.sc" horiz-adv-x="1111" 
d="M476 -17q-139 0 -236.5 44t-122.5 105q-6 28 9.5 42.5t38.5 15.5q7 0 13.5 -1.5t11.5 -3.5t10 -6t7.5 -6.5t7 -8.5l6 -8t5.5 -9t5 -8q81 -102 250 -102q157 0 255 74t98 185q0 48 -18 84t-44.5 56t-63.5 32t-67 15.5t-63 3.5q-51 0 -99 -19l-63 -31l-37 43l143 63
q120 50 192.5 103t72.5 119q0 68 -70.5 104t-181.5 36q-114 0 -187.5 -37.5t-73.5 -99.5q0 -41 36 -83l-93 -37q-43 48 -43 102q0 94 113 153t279 59q150 0 252.5 -47t102.5 -131q0 -46 -30.5 -87t-80 -71t-95 -50t-93.5 -35q159 2 257 -56.5t98 -171.5q0 -96 -71.5 -173
t-185.5 -117t-244 -40z" />
    <glyph glyph-name="four.sc" horiz-adv-x="1111" 
d="M453 0v53h130q49 0 66.5 17t17.5 54v206h-571v80l603 550h106v-566h202v-64h-202v-207q0 -33 18 -51.5t67 -18.5h118v-53h-555zM170 394h497v452h-12l-485 -440v-12z" />
    <glyph glyph-name="five.sc" horiz-adv-x="1111" 
d="M563 631q109 0 198.5 -32.5t147 -103.5t57.5 -171q0 -90 -40.5 -158t-107.5 -106.5t-144.5 -57.5t-160.5 -19q-128 0 -232.5 33t-143.5 97q-5 20 8 35.5t35 18.5q20 2 33 -6.5t32 -27.5q95 -91 280 -91q130 0 216.5 74.5t86.5 200.5q0 112 -78 181.5t-214 69.5
q-157 0 -232 -89h-82l25 467h617l-37 -87h-519l-19 -317q42 43 115.5 66t158.5 23z" />
    <glyph glyph-name="six.sc" horiz-adv-x="1111" 
d="M580 -17q-93 0 -169.5 24t-134.5 72.5t-90.5 128.5t-32.5 185q0 142 37 252t103.5 178.5t154.5 103.5t194 35q104 0 183 -29t114 -79q6 -18 -4.5 -34t-33.5 -19q-22 -3 -68 32q-88 72 -219 72q-74 0 -131 -27.5t-92.5 -71t-58.5 -105.5t-33 -123t-12 -131q81 155 303 152
q173 -2 280 -83.5t107 -220.5q0 -97 -55 -169t-144 -107.5t-198 -35.5zM579 37q123 0 189.5 65t66.5 175q0 126 -67.5 195.5t-205.5 69.5q-227 0 -265 -243q34 -262 282 -262z" />
    <glyph glyph-name="seven.sc" horiz-adv-x="1111" 
d="M428 -15q-51 1 -55 36t33 78l481 746h-579q-70 0 -93 -40l-44 -91h-62l117 265h63q-8 -17 -2.5 -25t34.5 -8h676l-487 -891q-19 -39 -36.5 -55t-45.5 -15z" />
    <glyph glyph-name="eight.sc" horiz-adv-x="1110" 
d="M557 -17q-89 0 -166 15.5t-140.5 46.5t-100.5 84.5t-37 123.5q0 205 300 251q-246 47 -246 217q0 81 55 137t140.5 80t192.5 24q169 0 278.5 -61.5t109.5 -179.5q0 -48 -21.5 -87.5t-58 -64.5t-76.5 -40.5t-86 -24.5q296 -48 296 -250q0 -132 -124 -201.5t-316 -69.5z
M556 526q122 0 186 52t64 147q0 81 -65 132.5t-186 51.5q-122 0 -186.5 -52t-64.5 -130q0 -93 63.5 -147t188.5 -54zM556 36q144 0 222 61.5t78 154.5q0 108 -77 164.5t-225 56.5q-145 0 -222 -58.5t-77 -151.5q0 -104 77 -165.5t224 -61.5z" />
    <glyph glyph-name="nine.sc" horiz-adv-x="1111" 
d="M471 -17q-104 0 -182 29t-115 79q-6 18 5 34t33 19q27 3 65 -31q88 -74 222 -74q74 0 131.5 27t93 70.5t58.5 104.5t32 122.5t9 131.5q-78 -150 -292 -150q-176 0 -285.5 82t-109.5 222q0 145 114.5 229t281.5 84q94 0 170.5 -24t135 -73t90.5 -128.5t32 -184.5
q0 -142 -37 -252t-103.5 -178.5t-154.5 -103.5t-194 -35zM552 403q226 0 264 243q-34 262 -282 262q-122 0 -189 -65t-67 -175q0 -126 68 -195.5t206 -69.5z" />
    <glyph glyph-name="uni0308.case" 
d="M-575 1519q-36 0 -61 26.5t-25 60.5q0 35 25 60.5t61 25.5t61 -25.5t25 -60.5q0 -37 -25.5 -62t-60.5 -25zM-214 1519q-36 0 -61 26t-25 61q0 36 25.5 61t60.5 25q36 0 61.5 -25.5t25.5 -60.5q0 -38 -25.5 -62.5t-61.5 -24.5z" />
    <glyph glyph-name="gravecomb.case" 
d="M-106 1438l-385 317v4h202l239 -321h-56z" />
    <glyph glyph-name="acutecomb.case" 
d="M-468 1438l238 321h203v-4l-386 -317h-55z" />
    <glyph glyph-name="uni0302.case" 
d="M-760 1470l259 322h191l259 -322h-55l-299 253l-300 -253h-55z" />
    <glyph glyph-name="uni030C.case" 
d="M-497 1456l-266 322h56l299 -253l299 253h56l-266 -322h-178z" />
    <glyph glyph-name="uni030A.case" 
d="M-291 1445q-76 0 -129 53.5t-53 129.5t53 129t129 53q75 0 129 -53.5t54 -128.5t-54 -129t-129 -54zM-291 1498q54 0 91.5 38t37.5 92q0 55 -37.5 92.5t-91.5 37.5q-53 0 -90.5 -37.5t-37.5 -92.5q0 -54 37.5 -92t90.5 -38z" />
    <glyph glyph-name="tildecomb.case" 
d="M-806 1440q-2 118 49.5 186t144.5 68q35 0 70.5 -14t52.5 -26t53 -40q3 -2 13 -11t13 -11t12 -9.5t12.5 -9.5t12 -7.5t13.5 -7.5t13 -5t15 -4.5t16 -2.5t18 -1q57 0 90.5 42t34.5 121h56q3 -116 -48.5 -191t-145.5 -75q-40 0 -78.5 15.5t-56 28t-52.5 41.5
q-38 33 -67 49.5t-67 16.5q-57 0 -87.5 -42t-32.5 -111h-54z" />
    <glyph glyph-name="uni0335.case" 
d="M-968 651v67h818v-67h-818z" />
    <glyph glyph-name="uni0337.case" 
d="M-814 367v95l802 616v-94z" />
    <glyph glyph-name="uni0338.case" 
d="M-1151 12l-50 43l1177 1337l48 -44z" />
    </font>
</defs>
</svg>
