<?xml version="1.0" standalone="no"?>
<!DOCTYPE svg PUBLIC "-//W3C//DTD SVG 1.1//EN" "http://www.w3.org/Graphics/SVG/1.1/DTD/svg11.dtd" >
<svg xmlns="http://www.w3.org/2000/svg" xmlns:xlink="http://www.w3.org/1999/xlink" version="1.1">
<metadata>
Created by FontForge 20170731 at Wed Dec 13 18:56:51 2017
 By ,,,
Copyright (c)2017 HK CartaTM by Alfredo Marco Pradil
</metadata>
<defs>
<font id="HKCarta-Thin" horiz-adv-x="0" >
  <font-face 
    font-family="HK Carta Thin"
    font-weight="100"
    font-stretch="normal"
    units-per-em="2048"
    panose-1="0 0 2 0 0 0 0 0 0 0"
    ascent="1393"
    descent="-655"
    x-height="828"
    cap-height="1352"
    bbox="-1205 -545 2212 1806"
    underline-thickness="50"
    underline-position="-200"
    unicode-range="U+0020-FB02"
  />
<missing-glyph horiz-adv-x="1024" 
d="M127 0v1352h769v-1352h-769zM172 45h678v1261h-678v-1261z" />
    <glyph glyph-name="fi" unicode="fi" horiz-adv-x="1101" 
d="M959 48h101v-48h-1006v48h168q69 0 69 70v662h-237v48h237v231q0 150 81.5 232.5t222.5 82.5q121 0 197 -57.5t95 -167.5q2 -20 -6.5 -32t-24.5 -14q-17 -1 -24.5 9.5t-13.5 34.5q-17 86 -74 132.5t-149 46.5q-115 0 -174 -68t-59 -194v-236h532v-710q0 -70 65 -70z
M755 48q68 0 68 70v662h-461v-662q0 -70 68 -70h325z" />
    <glyph glyph-name="fl" unicode="fl" horiz-adv-x="1069" 
d="M54 0v48h168q69 0 69 70v662h-237v48h237v231q-1 149 80.5 232t223.5 83q132 0 204 -72l88 91v-1275q0 -70 66 -70h100v-48h-999zM430 48h319q67 0 67 70v946q0 262 -221 262q-115 0 -175 -68t-58 -194v-236h317v-48h-317v-662q0 -70 68 -70z" />
    <glyph glyph-name="f_f" unicode="ff" horiz-adv-x="1259" 
d="M1396 1149q3 -19 -6 -31.5t-24 -14.5q-14 -2 -24.5 9.5t-13.5 31.5q-17 87 -72 134.5t-145 47.5q-109 0 -167 -68.5t-58 -193.5v-236h318v-48h-318v-662q0 -70 69 -70h249v-48h-1150v48h168q69 0 69 70v662h-237v48h237v231q0 150 81 232.5t221 82.5q91 0 157.5 -38.5
t98.5 -111.5q36 73 105 111.5t163 38.5q113 0 186.5 -58t92.5 -167zM815 828v231q0 28 3 52q-10 12 -15 33q-16 87 -71.5 134.5t-144.5 47.5q-109 0 -167 -68.5t-58 -193.5v-236h453zM815 118v662h-453v-662q0 -70 68 -70h317q68 0 68 70z" />
    <glyph glyph-name="f_f_i" unicode="ffi" horiz-adv-x="1625" 
d="M1484 48h100v-48h-1530v48h168q69 0 69 70v662h-237v48h237v231q0 150 81 232.5t221 82.5q91 0 157.5 -38.5t98.5 -111.5q36 73 105.5 111.5t164.5 38.5q121 0 197 -57.5t95 -167.5q3 -19 -6 -31.5t-24 -14.5q-17 -1 -25 9.5t-14 34.5q-17 86 -73.5 132.5t-148.5 46.5
q-115 0 -174.5 -68t-59.5 -194v-236h532v-710q0 -70 66 -70zM815 828v231q0 28 3 52q-10 12 -15 33q-16 87 -71.5 134.5t-144.5 47.5q-109 0 -167 -68.5t-58 -193.5v-236h453zM815 118v662h-453v-662q0 -70 68 -70h317q68 0 68 70zM1280 48q67 0 67 70v662h-461v-662
q0 -70 69 -70h325z" />
    <glyph glyph-name="f_f_l" unicode="ffl" horiz-adv-x="1593" 
d="M1477 48h101v-48h-1524v48h168q69 0 69 70v662h-237v48h237v231q0 150 81 232.5t221 82.5q91 0 157.5 -38.5t98.5 -111.5q36 73 105.5 111.5t164.5 38.5q131 0 205 -72l88 91v-1275q0 -70 65 -70zM815 828v231q0 28 3 52q-10 12 -15 33q-16 87 -71.5 134.5t-144.5 47.5
q-109 0 -167 -68.5t-58 -193.5v-236h453zM1341 118v946q0 262 -222 262q-114 0 -173.5 -68t-59.5 -194v-236h318v-48h-318v-662q0 -70 69 -70h318q68 0 68 70zM815 118v662h-453v-662q0 -70 68 -70h317q68 0 68 70z" />
    <glyph glyph-name=".notdef" horiz-adv-x="1024" 
d="M127 0v1352h769v-1352h-769zM172 45h678v1261h-678v-1261z" />
    <glyph glyph-name=".null" 
 />
    <glyph glyph-name="nonmarkingreturn" horiz-adv-x="682" 
 />
    <glyph glyph-name="space" unicode=" " horiz-adv-x="510" 
 />
    <glyph glyph-name="exclam" unicode="!" horiz-adv-x="560" 
d="M256 446l-9 763q-2 78 -2 126q0 38 35 38t35 -38t-2 -124l-9 -765h-48zM278 -33q-38 0 -65 27.5t-27 65.5t27 65t65 27q37 0 64 -27t27 -65t-27 -65.5t-64 -27.5z" />
    <glyph glyph-name="quotedbl" unicode="&#x22;" horiz-adv-x="832" 
d="M210 713l-11 500q-2 42 -2 122q0 38 33 38q35 0 35 -38q0 -21 -1.5 -62t-1.5 -60l-10 -500h-42zM581 713l-11 500q-2 84 -2 122t34 38t34 -38q0 -8 -3 -122l-10 -500h-42z" />
    <glyph glyph-name="numbersign" unicode="#" horiz-adv-x="1432" 
d="M272 -34l92 441h-254v57h266l91 435h-357v57h368l91 430h58l-91 -430h486l91 430h59l-91 -430h239v-57h-250l-91 -435h341v-57h-352l-93 -441h-59l93 441h-486l-93 -441h-58zM434 464h487l90 435h-486z" />
    <glyph glyph-name="dollar" unicode="$" horiz-adv-x="1215" 
d="M639 750q44 -14 70 -22t67 -23.5t66.5 -28t59.5 -32t55 -39t44 -46.5t35.5 -56.5t21 -67t8.5 -79.5q0 -80 -27.5 -145.5t-69.5 -107.5t-96 -71t-104.5 -41t-96.5 -12q-106 0 -187 26l-33 -167h-45l36 182q-169 70 -280 288v142q0 36 25 36q24 0 26 -35q8 -136 70 -234
t169 -146l124 619q-59 19 -99.5 34t-89 38t-80 49t-60 61t-42 81t-13.5 101q0 139 104.5 230t261.5 91q79 0 150 -24l24 122h45l-28 -140q132 -64 237 -233v-108q0 -36 -24 -36q-23 0 -29 35q-10 94 -62 170t-132 120l-106 -530q1 0 2.5 -0.5t2.5 -0.5zM258 1068
q0 -54 18 -97.5t45 -73t74 -55.5t89.5 -42t107.5 -36l106 536q-66 25 -136 25q-135 0 -219.5 -73t-84.5 -184zM669 29q40 0 82.5 10t87.5 34t79.5 59t57 90t22.5 122q0 39 -7.5 73t-24 61t-34.5 49t-48.5 41.5t-55.5 33t-65.5 28.5t-69 24t-74.5 23l-124 -622
q80 -26 174 -26z" />
    <glyph glyph-name="percent" unicode="%" horiz-adv-x="1661" 
d="M375 675q-57 0 -101.5 25t-70.5 62.5t-43 86t-23 90t-6 79.5q0 165 65 260t179 95q119 0 182 -98t63 -256q0 -39 -6.5 -81.5t-23.5 -90.5t-43.5 -85t-71 -62t-100.5 -25zM467 0l694 1352h58l-695 -1352h-57zM376 719q42 0 75 20.5t52.5 51.5t31.5 72t16.5 77.5t4.5 73.5
q0 155 -47.5 235t-133.5 80t-133 -80.5t-47 -229.5q0 -49 7.5 -96t26 -95.5t56.5 -78.5t91 -30zM1285 -21q-57 0 -101.5 25t-70.5 62.5t-43 86t-23 90t-6 79.5q0 165 65 260t179 95q119 0 182 -98t63 -257q0 -39 -6.5 -81t-23.5 -90t-43.5 -85.5t-71 -62t-100.5 -24.5z
M1286 23q42 0 75 20.5t52.5 51.5t31.5 72t16.5 77.5t4.5 73.5q0 154 -47.5 234.5t-133.5 80.5t-133 -81t-47 -229q0 -50 7.5 -96.5t26 -95.5t56.5 -78.5t91 -29.5z" />
    <glyph glyph-name="ampersand" unicode="&#x26;" horiz-adv-x="1635" 
d="M501 -21q-170 0 -276.5 86t-106.5 223q0 139 94.5 232.5t359.5 233.5q-51 46 -81 75.5t-64 71t-49.5 83t-15.5 85.5q0 101 77.5 163t199.5 62q125 0 201 -60t76 -158q0 -101 -64.5 -179t-180.5 -145q128 -125 199.5 -213t144.5 -224q118 150 222 395q12 31 -1.5 50.5
t-48.5 19.5h-111v48h387v-48h-82q-31 0 -52 -17t-39 -54q-121 -283 -250 -442q58 -124 82 -157q48 -69 126 -74q9 -1 18 -1q93 0 141.5 67t49.5 195h49q0 -155 -67 -236.5t-184 -81.5q-25 0 -47 4.5t-39 9t-35 18.5t-28.5 21.5t-26.5 29.5t-22.5 31t-22 38.5t-20 38.5
t-21.5 44q-213 -235 -492 -235zM632 789q110 64 169.5 131t59.5 157q0 77 -59.5 123t-161.5 46q-96 0 -156.5 -46t-59.5 -121q0 -38 15 -74t48.5 -75t63 -67t81.5 -74zM518 35q256 0 449 224q-82 152 -149 235t-209 223q-214 -122 -260 -153q-108 -72 -141 -144
q-23 -50 -23 -117q0 -116 92 -192t241 -76z" />
    <glyph glyph-name="quotesingle" unicode="'" horiz-adv-x="468" 
d="M213 713l-11 500q-2 84 -2 122t34 38t34 -38q0 -21 -1 -62t-1 -60l-11 -500h-42z" />
    <glyph glyph-name="parenleft" unicode="(" horiz-adv-x="516" 
d="M410 -487q-142 197 -217 433.5t-75 489.5q0 104 14 214t45 234.5t90.5 251.5t142.5 233h62q-107 -132 -177 -303.5t-96.5 -324.5t-26.5 -305q0 -514 300 -923h-62z" />
    <glyph glyph-name="parenright" unicode=")" horiz-adv-x="516" 
d="M106 -487h-62q300 409 300 923q0 152 -26.5 305t-96.5 324.5t-177 303.5h62q83 -106 142.5 -233t90.5 -251.5t45 -234.5t14 -214q0 -253 -75 -489.5t-217 -433.5z" />
    <glyph glyph-name="asterisk" unicode="*" horiz-adv-x="1107" 
d="M305 475q-18 0 -33.5 14.5t-15.5 32.5q0 7 2 14t8 16t12 17t18 21.5t22.5 25t29 31.5t33.5 37q42 45 125 140q20 27 15 39q-6 16 -34 24q-86 22 -183 40l-87 18t-79 16q-21 3 -32.5 15.5t-11.5 30.5q0 19 13.5 35t32.5 16q22 0 172 -73q55 -26 180 -81q29 -14 41 -2
q13 13 10 39q-2 19 -8.5 83t-11.5 99q-12 91 -17 181q-1 23 12 37t34 14q22 0 35 -14t12 -37q-2 -43 -17 -172q-5 -36 -11 -102t-9 -89q-3 -26 10 -39q9 -9 41 4q31 13 88.5 39t84.5 37q20 9 44.5 20.5t37.5 18t29.5 13.5t25 11t17.5 7.5t15 4.5t10 1q21 0 34.5 -15.5
t13.5 -34.5t-12 -31.5t-31 -14.5q-26 -6 -84.5 -17.5t-85.5 -18.5q-160 -34 -179 -39q-29 -8 -35 -24t14 -39q12 -13 61 -69t78 -86q31 -33 46.5 -50.5t33.5 -39t25 -35t7 -23.5q0 -19 -15.5 -32.5t-35.5 -13.5q-28 0 -45 37q-15 26 -40.5 72.5t-36.5 65.5q-68 121 -94 164
q-16 27 -31 27q-17 0 -31 -27q-67 -116 -89 -157q-58 -105 -83 -149q-19 -33 -45 -33z" />
    <glyph glyph-name="plus" unicode="+" horiz-adv-x="1303" 
d="M622 121v525h-526v59h526v526h59v-526h525v-59h-525v-525h-59z" />
    <glyph glyph-name="comma" unicode="," horiz-adv-x="602" 
d="M183 -331l-14 45q90 31 139.5 101.5t49.5 125.5q0 18 -6.5 26.5t-19.5 4.5q-15 -5 -33 -5q-35 0 -62 26.5t-27 64.5t26.5 65.5t66.5 27.5q56 0 86 -41.5t30 -107.5q0 -106 -66.5 -202.5t-169.5 -130.5z" />
    <glyph glyph-name="hyphen" unicode="-" horiz-adv-x="921" 
d="M165 373v65h591v-65h-591z" />
    <glyph glyph-name="period" unicode="." horiz-adv-x="605" 
d="M302 -33q-38 0 -65 27.5t-27 65.5t27 65t65 27q37 0 64 -27t27 -65t-27 -65.5t-64 -27.5z" />
    <glyph glyph-name="slash" unicode="/" horiz-adv-x="782" 
d="M-4 -33l716 1385h73l-715 -1385h-74z" />
    <glyph glyph-name="zero" unicode="0" horiz-adv-x="1061" 
d="M532 -21q-183 0 -289.5 178t-106.5 520q0 335 104.5 515.5t291.5 180.5q184 0 289.5 -180.5t105.5 -516.5q0 -335 -104 -516t-291 -181zM533 27q156 0 239 166t83 478q0 317 -83.5 485t-239.5 168q-158 0 -241 -169t-83 -478q0 -316 83 -483t242 -167z" />
    <glyph glyph-name="one" unicode="1" horiz-adv-x="1061" 
d="M672 48h249v-48h-738v48h279q32 0 51 19.5t19 50.5v1187q-57 -98 -136.5 -135.5t-238.5 -37.5v48q165 1 240.5 41t126.5 152h79v-1254q0 -30 18.5 -50.5t50.5 -20.5z" />
    <glyph glyph-name="two" unicode="2" horiz-adv-x="1061" 
d="M852 -42q8 20 3 31t-29 11h-696v78q296 247 472 467q218 269 218 467q0 140 -82 225.5t-219 85.5q-132 0 -220.5 -78t-88.5 -192q0 -74 41 -146l-53 -27q-46 89 -46 169q0 139 108 231.5t267 92.5q162 0 263.5 -99.5t101.5 -260.5q0 -208 -236 -491q-169 -205 -463 -458
l-10 -6h643q61 0 76 52l58 170h48l-108 -322h-48z" />
    <glyph glyph-name="three" unicode="3" horiz-adv-x="1061" 
d="M467 -21q-136 0 -239.5 65t-139.5 151q-15 42 16 46q16 3 24.5 -4.5t18.5 -25.5q16 -27 32 -48t44.5 -48t60 -45t78.5 -30.5t100 -12.5q178 0 301.5 117t123.5 285q0 58 -16 104.5t-45 76t-61.5 49.5t-72.5 29.5t-71.5 13.5t-63.5 4q-65 0 -109 -20l-66 -36l-23 42
l151 78q314 159 314 336q0 98 -82.5 157.5t-218.5 59.5q-142 0 -229 -66.5t-87 -179.5q0 -63 31 -126l-54 -24q-36 72 -36 148q0 133 107 215.5t277 82.5q159 0 260 -72t101 -189q0 -49 -20 -95t-50 -82t-74.5 -71t-84 -59.5t-88.5 -49.5q179 0 281 -83.5t102 -236.5
q0 -127 -69.5 -233t-182 -164.5t-240.5 -58.5z" />
    <glyph glyph-name="four" unicode="4" horiz-adv-x="1061" 
d="M464 0v48h170q68 0 68 70v361h-641v82l627 811h85v-841h221v-52h-221v-361q0 -70 69 -70h152v-48h-530zM112 531h590v765h-14l-576 -746v-19z" />
    <glyph glyph-name="five" unicode="5" horiz-adv-x="1061" 
d="M538 880q182 0 293.5 -112.5t111.5 -309.5q0 -101 -31 -184t-80 -136.5t-112 -90.5t-125 -52.5t-122 -15.5q-100 0 -200.5 40.5t-155.5 124.5q-17 32 12 45q22 10 45 -26q55 -68 138 -101.5t165 -33.5q55 0 109 15t105.5 49t91 82.5t63.5 122t24 161.5q0 172 -89 272
t-251 100q-196 0 -273 -146h-68l28 668h618l-19 -64h-554l-22 -543q45 66 123 100.5t175 34.5z" />
    <glyph glyph-name="six" unicode="6" horiz-adv-x="1061" 
d="M561 -21q-204 0 -316 151t-112 430q0 398 120.5 605.5t334.5 207.5q104 0 187 -38.5t134 -110.5q17 -33 -11 -46q-22 -11 -44 21q-102 124 -275 124q-73 0 -131.5 -30t-98 -85.5t-68 -125t-44 -157.5t-22.5 -173.5t-7 -181.5q38 134 124.5 203t215.5 69q187 0 295.5 -111
t108.5 -319q0 -194 -110 -313.5t-281 -119.5zM560 27q146 0 233 104t87 276q0 186 -86.5 286.5t-252.5 100.5q-140 0 -222 -93t-106 -268q47 -406 347 -406z" />
    <glyph glyph-name="seven" unicode="7" horiz-adv-x="1061" 
d="M381 -16q-41 6 -13 66l538 1238h-649q-60 0 -76 -51l-58 -170h-48l109 327h48q-8 -21 -3 -31.5t29 -10.5h724l-556 -1330q-16 -44 -45 -38z" />
    <glyph glyph-name="eight" unicode="8" horiz-adv-x="1061" 
d="M531 -21q-198 0 -323 102t-125 278q0 140 81 232.5t215 127.5q-105 35 -168 115.5t-63 199.5q0 158 105.5 248.5t276.5 90.5q172 0 277.5 -91t105.5 -248q0 -118 -63 -199t-167 -116q134 -34 214.5 -127t80.5 -233q0 -175 -124 -277.5t-323 -102.5zM531 741
q146 0 228.5 78t82.5 215q0 134 -82.5 212t-229.5 78q-146 0 -229 -78t-83 -211q0 -137 82.5 -215.5t230.5 -78.5zM531 27q173 0 274 91t101 240q0 154 -101 244t-275 90q-173 0 -274 -90t-101 -240q0 -153 101 -244t275 -91z" />
    <glyph glyph-name="nine" unicode="9" horiz-adv-x="1061" 
d="M474 -21q-216 0 -320 148q-17 32 10 46q22 11 45 -21q102 -124 274 -124q72 0 130.5 30t98.5 85.5t68.5 125t44 157t23 173.5t7.5 182q-38 -134 -124.5 -203t-215.5 -69q-187 0 -295.5 111t-108.5 319q0 195 109.5 314.5t281.5 119.5q204 0 315.5 -150.5t111.5 -430.5
q0 -398 -120.5 -605.5t-334.5 -207.5zM522 558q140 0 221.5 92.5t105.5 267.5q-47 406 -347 406q-146 0 -232.5 -104t-86.5 -275q0 -186 86.5 -286.5t252.5 -100.5z" />
    <glyph glyph-name="colon" unicode=":" horiz-adv-x="593" 
d="M297 665q-38 0 -65 27t-27 65t27 65t65 27q37 0 64 -27t27 -65t-27 -65t-64 -27zM297 -33q-38 0 -65 27.5t-27 65.5t27 65t65 27q37 0 64 -27t27 -65t-27 -65.5t-64 -27.5z" />
    <glyph glyph-name="semicolon" unicode=";" horiz-adv-x="600" 
d="M301 665q-38 0 -65 27t-27 65t27 65t65 27q37 0 63.5 -27t26.5 -65t-26.5 -65t-63.5 -27zM182 -331l-15 45q62 21 107.5 65.5t63.5 86.5t18 75q0 18 -6.5 26.5t-19.5 4.5q-15 -5 -32 -5q-36 0 -62.5 26.5t-26.5 64.5t26 65.5t66 27.5q56 0 86 -41t30 -108
q0 -106 -66 -202.5t-169 -130.5z" />
    <glyph glyph-name="less" unicode="&#x3c;" horiz-adv-x="1114" 
d="M976 232l-860 395v95l860 396v-65l-808 -369v-19l808 -369v-64z" />
    <glyph glyph-name="equal" unicode="=" horiz-adv-x="1626" 
d="M258 884v59h1110v-59h-1110zM258 409v59h1110v-59h-1110z" />
    <glyph glyph-name="greater" unicode="&#x3e;" horiz-adv-x="1114" 
d="M138 232v64l808 369v19l-808 369v65l860 -396v-95z" />
    <glyph glyph-name="question" unicode="?" horiz-adv-x="889" 
d="M420 1373q154 0 260.5 -107t106.5 -257q0 -154 -89 -251.5t-222 -97.5q-47 0 -95 13v-228h-50v282h43q42 -16 93 -16q111 0 180 85t69 211q0 127 -86 222t-213 95q-95 0 -172.5 -53.5t-106.5 -144.5q-11 -37 -38 -32q-13 2 -19.5 13.5t-1.5 27.5q35 106 128.5 172
t212.5 66zM356 152q36 0 63 -27t27 -65t-27 -65.5t-63 -27.5q-38 0 -65 27.5t-27 65.5t27 65t65 27z" />
    <glyph glyph-name="at" unicode="@" horiz-adv-x="1994" 
d="M1031 -449q-183 0 -346.5 62.5t-283 171.5t-189.5 266t-70 337q0 216 70 400.5t193 312.5t295.5 200t371.5 72q216 0 377 -74t250.5 -218.5t89.5 -343.5q0 -134 -42 -270t-111.5 -243t-169.5 -174t-207 -67q-102 0 -147 54.5t-28 151.5q-63 -94 -139.5 -151t-153.5 -57
q-82 0 -136.5 63.5t-68.5 165.5t10 231q40 211 160 357.5t257 146.5q99 0 153 -72t60 -192l70 240l64 1l-209 -722q-23 -83 7.5 -128t112.5 -45q90 0 178 62.5t153 162t105 229.5t40 258q0 188 -87 323t-237 201.5t-348 66.5q-190 0 -354 -69t-281 -192t-183.5 -300
t-66.5 -385q0 -227 113 -409t305 -281.5t423 -99.5q260 0 478 148t316 399h43q-70 -184 -203 -319.5t-296.5 -203t-337.5 -67.5zM809 37q107 0 216 138t147 322q38 175 -2.5 289.5t-149.5 114.5q-79 0 -154.5 -68.5t-127.5 -172t-78 -221.5q-37 -168 7.5 -285t141.5 -117z
" />
    <glyph glyph-name="A" unicode="A" horiz-adv-x="1425" 
d="M1298 49l93 -1v-48h-443v48l137 1q33 0 47.5 18.5t4.5 49.5l-130 363h-630l-139 -358q-12 -33 3.5 -53t49.5 -20l162 -1v-48h-419v48l66 1q62 10 82 67l488 1257h92l451 -1257q24 -64 85 -67zM395 529h594l-270 751h-33z" />
    <glyph glyph-name="B" unicode="B" horiz-adv-x="1339" 
d="M910 725q145 -36 229.5 -128.5t80.5 -231.5q-5 -174 -142 -268.5t-352 -94.5h-649v48h121q67 0 67 73v1106q0 72 -65 72h-123v49h626q223 0 343 -86t115 -242q-4 -122 -70.5 -196.5t-180.5 -100.5zM682 1302h-343v-553h377q185 0 273.5 65t94.5 205q5 138 -99 210.5
t-303 72.5zM1142 369q6 159 -109.5 245t-320.5 86h-373v-578q0 -32 16.5 -51.5t48.5 -19.5h319q194 0 304 85.5t115 232.5z" />
    <glyph glyph-name="C" unicode="C" horiz-adv-x="1533" 
d="M743 -21q-175 0 -319.5 93.5t-226.5 253.5t-82 351q0 190 82.5 349.5t227.5 253t319 93.5q170 0 316 -98.5t226 -268.5l4 308h48l2 -458h-48q-49 201 -199.5 334t-343.5 133q-156 0 -284 -87.5t-199.5 -236.5t-71.5 -326q0 -181 73 -329t200.5 -231.5t282.5 -83.5
q192 0 345 132t198 343h49v-464h-49l-6 308q-71 -165 -218 -267t-326 -102z" />
    <glyph glyph-name="D" unicode="D" horiz-adv-x="1562" 
d="M66 0v48h151q66 0 66 73v1110q0 73 -67 73h-150v48h657q216 0 381 -82t256 -235.5t91 -357.5q0 -311 -199.5 -494t-528.5 -183h-657zM430 49h318q282 0 452.5 174t170.5 454q0 191 -81.5 334t-225.5 218t-332 75h-375v-1179q0 -76 73 -76z" />
    <glyph glyph-name="E" unicode="E" horiz-adv-x="1410" 
d="M1233 448l49 -4l-41 -444h-1176v48h142q69 0 69 73v1110q0 72 -71 72h-140v49h1130l22 -349l-48 -3l-17 235q-6 36 -25.5 51.5t-55.5 15.5h-721v-567h488q33 0 51.5 16.5t18.5 48.5v134h49v-461h-49v146q0 66 -70 66h-488v-560q0 -76 70 -76h688q77 0 88 68z" />
    <glyph glyph-name="F" unicode="F" horiz-adv-x="1289" 
d="M66 0v48h139q71 0 71 73v1110q0 72 -72 72h-139v49h1128l21 -350l-48 -3l-16 233q-11 70 -82 70h-718v-567h485q70 0 70 69v130h48v-461h-48v142q0 71 -70 71h-485v-565q0 -73 73 -73h174v-48h-531z" />
    <glyph glyph-name="G" unicode="G" horiz-adv-x="1582" 
d="M764 -21q-185 0 -334 93t-232 252.5t-83 351.5q0 143 49.5 272t133.5 222t200.5 148t245.5 55q176 0 322 -100t220 -266l4 310h48l1 -455h-48q-50 199 -198.5 329t-341.5 130q-157 0 -285.5 -87.5t-200 -235.5t-71.5 -324q0 -133 42.5 -252t116.5 -205.5t181.5 -137
t232.5 -50.5q123 0 224.5 38.5t178.5 127t103 219.5q0 73 -72 73h-500v48h812v-48h-101q-65 0 -65 -74v-434h-49l-15 289q-92 -158 -220 -223.5t-299 -65.5z" />
    <glyph glyph-name="H" unicode="H" horiz-adv-x="1685" 
d="M66 0v48h194q71 0 71 73v1110q0 72 -71 72h-194v49h603v-49h-194q-70 0 -70 -72v-490h875v490q0 72 -70 72h-194v49h603v-49h-195q-70 0 -70 -72v-1110q0 -73 70 -73h195v-48h-603v48h196q68 0 68 73v570h-875v-570q0 -73 68 -73h196v-48h-603z" />
    <glyph glyph-name="I" unicode="I" horiz-adv-x="736" 
d="M66 0v48h193q72 0 72 73v1110q0 73 -72 73h-193v48h604v-48h-193q-72 0 -72 -73v-1110q0 -73 72 -73h193v-48h-604z" />
    <glyph glyph-name="J" unicode="J" horiz-adv-x="803" 
d="M117 -502q-47 0 -95.5 9t-98.5 30.5t-88.5 53t-63 82t-24.5 112.5q0 26 18 44t44 18t43.5 -17t17.5 -42q0 -17 -23.5 -45t-13.5 -50q22 -53 73 -87t104 -46.5t111 -12.5q182 0 268 112.5t86 345.5v1226q0 72 -72 72h-366v49h729v-49h-147q-70 0 -70 -72v-1215
q0 -518 -432 -518z" />
    <glyph glyph-name="K" unicode="K" horiz-adv-x="1641" 
d="M65 0v48h178q70 0 70 73v1110q0 72 -72 72h-176v49h587v-49h-194q-71 0 -71 -73v-720l678 704q29 28 29 52q0 17 -14.5 27t-39.5 10h-151v49h596v-49h-205q-58 0 -112 -54l-368 -383l511 -759q39 -59 95 -59h193v-48h-586v48h155q26 0 42 11t16 29q0 17 -25 53l-454 674
l-360 -375v-319q0 -72 67 -72l196 -1l1 -48h-586z" />
    <glyph glyph-name="L" unicode="L" horiz-adv-x="1330" 
d="M66 0v48h194q71 0 71 73v1110q0 72 -71 72h-194v49h605v-49h-194q-72 0 -72 -72v-1107q0 -75 72 -75h590q82 0 98 81l32 319l48 -4l-41 -445h-1138z" />
    <glyph glyph-name="M" unicode="M" horiz-adv-x="1995" 
d="M66 0v48h140q36 0 53 23.5t17 58.5v1100q0 73 -71 73h-139v49h322l566 -1280h11l581 1280h384v-49h-194q-72 0 -72 -72v-1110q0 -73 72 -73h195v-48h-589v48h176q72 0 72 73v1161h-22l-584 -1282h-79l-564 1282h-16v-1153q0 -36 18 -58.5t53 -22.5h140v-48h-470z" />
    <glyph glyph-name="N" unicode="N" horiz-adv-x="1577" 
d="M1061 1352h479v-49h-140q-34 0 -52 -21.5t-18 -57.5v-1247h-59l-924 1309l-22 4v-1162q0 -36 17.5 -58t54.5 -22h140v-48h-473v48h139q37 0 54.5 23.5t17.5 56.5v1098q0 36 -19 56.5t-54 20.5h-139v49h329l888 -1263v1136q0 34 -18 56t-54 22h-147v49z" />
    <glyph glyph-name="O" unicode="O" horiz-adv-x="1473" 
d="M737 -21q-182 0 -322.5 89t-217.5 248t-77 362q0 198 76 355.5t217 248.5t323 91q184 0 325.5 -91.5t216.5 -249t75 -355.5q0 -200 -76 -358.5t-217 -249t-323 -90.5zM736 29q239 0 387.5 178t148.5 470t-148 469t-388 177q-159 0 -281 -82t-188 -228.5t-66 -333.5
q0 -186 64.5 -333t187 -232t283.5 -85z" />
    <glyph glyph-name="P" unicode="P" horiz-adv-x="1210" 
d="M65 0v48h141q71 0 71 73v1110q0 73 -72 73h-140v48h652q202 0 306.5 -95t104.5 -261q0 -167 -100.5 -264t-300.5 -97h-376v-514q0 -73 72 -73h140v-48h-498zM351 684h373q167 0 247 82t80 229q0 144 -79.5 226.5t-247.5 82.5h-373v-620z" />
    <glyph glyph-name="Q" unicode="Q" horiz-adv-x="1473" 
d="M737 -21q-182 0 -322.5 89t-217.5 248t-77 362q0 198 76 355.5t217 248.5t323 91q184 0 325.5 -91.5t216.5 -249t75 -355.5q0 -200 -76 -358.5t-217 -249t-323 -90.5zM736 29q239 0 387.5 178t148.5 470t-148 469t-388 177q-159 0 -281 -82t-188 -228.5t-66 -333.5
q0 -186 64.5 -333t187 -232t283.5 -85zM1253 -418q-52 0 -99 12.5t-90.5 38t-71.5 46.5t-70 57q-72 61 -126 92t-113 31q-58 0 -123 -35t-158 -107l-29 37q101 79 172 115t144 36q116 0 274 -123q54 -43 90.5 -68t93 -46.5t113.5 -21.5q205 0 299 131l42 -37
q-111 -158 -348 -158z" />
    <glyph glyph-name="R" unicode="R" horiz-adv-x="1501" 
d="M65 0v48h140q72 0 72 73v1110q0 72 -71 72h-141v49h671q200 0 311 -98t111 -259q0 -136 -85 -230t-236 -118q66 -41 133 -143l279 -408q15 -23 59.5 -35.5t77.5 -12.5h82v-48h-239l-325 480q-61 91 -114.5 123t-127.5 32h-311v-514q0 -73 71 -73h140v-48h-497zM351 684
h373q173 0 265.5 84t92.5 228q0 139 -92 222.5t-265 83.5h-374v-618z" />
    <glyph glyph-name="S" unicode="S" horiz-adv-x="1179" 
d="M660 -21q-162 0 -281 69.5t-175 198.5l-3 -226h-50v465h50q2 -210 123 -333.5t332 -123.5q40 0 83 10t88 34t79.5 59t57 90t22.5 122q0 45 -11.5 83t-28 66t-47.5 53t-58 41.5t-72.5 34.5t-77.5 28.5t-85 26.5q-48 15 -72.5 23t-68 24t-67 27.5t-58.5 30.5t-54.5 37
t-42.5 44t-35 53.5t-20 62.5t-8 75q0 139 104.5 230t262.5 91q119 0 220 -61.5t155 -163.5l4 202h49v-396h-49q-4 157 -114 263t-262 106q-136 0 -220.5 -73t-84.5 -184q0 -37 7 -68.5t24 -57.5t34 -46t49 -39t55 -31.5t66 -28t70 -24t77 -23.5q44 -14 70 -22t67 -23.5
t66.5 -28t59.5 -32t55 -39t44 -46.5t35.5 -56.5t21 -67t8.5 -79.5q0 -80 -27.5 -145.5t-69.5 -107.5t-96 -71t-104.5 -41t-96.5 -12z" />
    <glyph glyph-name="T" unicode="T" horiz-adv-x="1409" 
d="M421 0v48h175q72 0 72 73v1181h-447q-79 0 -85 -79l-13 -227l-48 4l20 352h1219l20 -352l-48 -4l-14 228q-6 43 -26.5 60.5t-58.5 17.5h-445v-1181q0 -73 72 -73h174v-48h-567z" />
    <glyph glyph-name="U" unicode="U" horiz-adv-x="1541" 
d="M774 -21q-259 0 -392.5 128t-133.5 372v752q0 72 -72 72h-139v49h568v-49h-212q-71 0 -71 -72v-752q0 -449 462 -449q243 0 358.5 114t115.5 339v743q0 36 -18.5 56.5t-54.5 20.5h-123v49h425v-49h-109q-34 0 -52 -20.5t-18 -55.5v-745q0 -248 -133 -375.5t-401 -127.5z
" />
    <glyph glyph-name="V" unicode="V" horiz-adv-x="1474" 
d="M714 -22l-492 1256q-14 38 -32.5 53.5t-51.5 15.5h-104v49h557v-49h-232q-41 0 -55 -22.5t2 -60.5l459 -1172h17l423 1167q14 40 0 64t-54 24h-151v49h440v-49h-94q-31 0 -52 -17.5t-37 -58.5l-450 -1249h-93z" />
    <glyph glyph-name="W" unicode="W" horiz-adv-x="2059" 
d="M575 -21l-376 1257q-10 36 -29 51.5t-50 15.5h-86v49h547v-49h-248q-37 0 -50.5 -22t-2.5 -59l347 -1168h36l343 1316h100l363 -1316h34l313 1156q10 41 -3 67t-52 26h-172v49h436v-49h-72q-58 0 -80 -79l-339 -1245h-118l-364 1319l-15 1l-345 -1320h-117z" />
    <glyph glyph-name="X" unicode="X" horiz-adv-x="1696" 
d="M79 0v48h89q56 0 99 50l534 592l-490 558q-24 30 -45.5 42.5t-51.5 12.5h-156v49h581v-49h-174q-43 0 -52 -24t20 -59l419 -476l429 474q30 34 19.5 59.5t-54.5 25.5h-192v49h528v-49h-107q-55 0 -100 -52l-491 -544l526 -601q47 -58 100 -58h137v-48h-614v48h221
q46 0 56.5 25t-20.5 63l-457 516l-467 -517q-31 -35 -19.5 -61t56.5 -26h218v-48h-542z" />
    <glyph glyph-name="Y" unicode="Y" horiz-adv-x="1448" 
d="M427 0v48h222q71 0 71 73v330l-492 797q-33 55 -85 55h-109v49h494v-49h-158q-41 0 -51.5 -24.5t11.5 -58.5l441 -712l439 706q23 38 11.5 63.5t-54.5 25.5h-130v49h377v-49h-40q-53 0 -85 -56l-495 -794v-332q0 -73 71 -73h222v-48h-660z" />
    <glyph glyph-name="Z" unicode="Z" horiz-adv-x="1412" 
d="M108 0v95l1067 1207l7 17h-893q-85 0 -98 -71l-31 -242l-49 4l43 358h1096v-90l-1069 -1207l-7 -22h952q81 0 96 73l35 322l48 -4l-43 -440h-1154z" />
    <glyph glyph-name="bracketleft" unicode="[" horiz-adv-x="641" 
d="M209 -474v1826h394v-48h-258q-69 0 -69 -68v-1595q0 -67 70 -67h257v-48h-394z" />
    <glyph glyph-name="backslash" unicode="\" horiz-adv-x="782" 
d="M786 -33h-74l-715 1385h73z" />
    <glyph glyph-name="bracketright" unicode="]" horiz-adv-x="641" 
d="M432 -474h-394v48h257q70 0 70 67v1595q0 68 -69 68h-258v48h394v-1826z" />
    <glyph glyph-name="asciicircum" unicode="^" horiz-adv-x="1099" 
d="M110 635l402 717h77l400 -717h-69l-367 661h-5l-371 -661h-67z" />
    <glyph glyph-name="underscore" unicode="_" horiz-adv-x="1377" 
d="M164 -154v56h1049v-56h-1049z" />
    <glyph glyph-name="grave" unicode="`" horiz-adv-x="491" 
d="M394 1030l-359 318v4h135l270 -322h-46z" />
    <glyph glyph-name="a" unicode="a" horiz-adv-x="1022" 
d="M302 -20q-93 0 -143 47.5t-50 134.5q0 90 51.5 145t151.5 104l387 191q-11 110 -68 154.5t-171 44.5q-125 0 -190 -45.5t-93 -123.5q-12 -36 -42 -32q-32 6 -20 43q70 207 355 207q47 0 85.5 -5.5t81 -24.5t70.5 -49.5t46.5 -85t17.5 -128.5l-1 -338q0 -103 22 -145
t66 -42q89 0 90 147h45q0 -97 -40 -148t-110 -51q-76 0 -108 54.5t-34 172.5q-89 -105 -192 -166t-207 -61zM316 32q199 0 383 246l1 273l-366 -185q-89 -45 -122.5 -91.5t-33.5 -105.5q0 -137 138 -137z" />
    <glyph glyph-name="b" unicode="b" horiz-adv-x="1054" 
d="M544 -21q-85 0 -164.5 33.5t-140.5 94.5l-19 -109h-45v1239q0 37 -19 54t-54 9l-117 -31l-11 48l272 66v-655q125 122 299 122q173 0 296.5 -127t123.5 -308q0 -183 -124 -309.5t-297 -126.5zM534 31q99 0 182.5 53.5t130 141t46.5 188.5q0 158 -104.5 271t-254.5 113
q-85 0 -161 -38t-127 -102v-484q51 -66 127 -104.5t161 -38.5z" />
    <glyph glyph-name="c" unicode="c" horiz-adv-x="954" 
d="M510 -22q-181 0 -299 123t-118 313q0 189 120 312.5t301 123.5q112 0 204.5 -50t136.5 -141q7 -18 2 -31.5t-19 -16.5q-27 -4 -44 33q-43 75 -116.5 116.5t-165.5 41.5q-154 0 -250 -110t-96 -271q0 -174 98 -283t253 -109q112 0 195.5 58.5t124.5 157.5l44 -19
q-48 -115 -144.5 -181.5t-226.5 -66.5z" />
    <glyph glyph-name="d" unicode="d" horiz-adv-x="1081" 
d="M506 -21q-174 0 -295 126.5t-121 307.5q0 126 60 227.5t155.5 155.5t203.5 54q176 0 299 -123v510q0 36 -19.5 53.5t-53.5 8.5l-116 -31l-11 48l271 67v-1290q0 -44 39 -44h113v-49h-218l-2 106q-130 -127 -305 -127zM519 32q84 0 161.5 36.5t127.5 105.5v487
q-51 65 -126.5 100.5t-160.5 35.5q-151 0 -254.5 -111.5t-103.5 -270.5q0 -160 103.5 -271.5t252.5 -111.5z" />
    <glyph glyph-name="e" unicode="e" horiz-adv-x="981" 
d="M499 -22q-175 0 -289.5 124t-114.5 314q0 188 114.5 311t288.5 123q167 0 280.5 -116t118.5 -304h-729q0 -177 93 -289.5t248 -112.5q104 0 185.5 56t124.5 152l42 -21q-48 -109 -144 -173t-218 -64zM170 478h658q-17 141 -106.5 232t-223.5 91q-133 0 -223 -91
t-105 -232z" />
    <glyph glyph-name="f" unicode="f" horiz-adv-x="734" 
d="M54 0v48h168q69 0 69 70v662h-237v48h237v231q0 150 81 232.5t221 82.5q113 0 186 -58t92 -167q3 -20 -5.5 -32t-24.5 -14q-30 -3 -38 41q-16 87 -71.5 134.5t-144.5 47.5q-109 0 -167 -68.5t-58 -193.5v-236h317v-48h-317v-662q0 -70 68 -70h249v-48h-625z" />
    <glyph glyph-name="g" unicode="g" horiz-adv-x="1051" 
d="M480 -484q-193 0 -297 52t-104 172q0 91 57 144t175 76q-96 15 -146.5 52.5t-50.5 112.5q0 153 221 195q-99 32 -152 101t-53 150q0 118 99.5 198.5t248.5 80.5q89 0 163.5 -32t122.5 -89q36 54 81 84.5t89 30.5q66 0 99 -67q6 -17 1.5 -28t-16.5 -12q-18 -3 -33 23
q-21 34 -58 34q-34 0 -72.5 -29t-64.5 -74q32 -53 32 -120q0 -122 -101.5 -201t-245.5 -79q-146 -1 -224.5 -40.5t-78.5 -114.5q0 -47 31 -72t93 -37q72 -13 282 -13q204 0 293 -45.5t89 -155.5q0 -92 -63.5 -160t-171.5 -102.5t-245 -34.5zM477 340q118 0 197 66.5
t79 165.5q0 91 -79 160t-197 69q-119 0 -198.5 -68.5t-79.5 -160.5q0 -94 79 -163t199 -69zM482 -435q117 0 211 26t152.5 81.5t58.5 132.5q0 79 -73.5 112.5t-263.5 33.5q-228 0 -329.5 -53.5t-101.5 -154.5q0 -95 86 -136.5t260 -41.5z" />
    <glyph glyph-name="h" unicode="h" horiz-adv-x="1141" 
d="M23 0v48h123q67 0 67 70v1119q0 35 -19.5 52.5t-53.5 9.5l-117 -32l-11 49l272 67v-830q65 124 166 210.5t213 86.5q143 0 208.5 -75t65.5 -239v-418q0 -33 17 -51.5t49 -18.5h118v-48h-459v48h141q31 0 47.5 18.5t16.5 51.5v417q0 140 -49.5 200t-167.5 60
q-62 0 -123 -33.5t-107.5 -87.5t-81.5 -115.5t-54 -122.5v-318q0 -32 16 -51t47 -19h136v-48h-460z" />
    <glyph glyph-name="i" unicode="i" horiz-adv-x="536" 
d="M293 1159q-32 0 -52 23t-20 49q0 30 21.5 51.5t50.5 21.5q30 0 51.5 -21.5t21.5 -51.5q0 -32 -21.5 -52t-51.5 -20zM66 0v48h124q67 0 67 70v595q0 37 -19.5 54t-54.5 8l-117 -31l-11 48l273 67v-741q0 -70 66 -70h100v-48h-428z" />
    <glyph glyph-name="j" unicode="j" horiz-adv-x="464" 
d="M252 1159q-32 0 -52 23t-20 49q0 30 21 51.5t51 21.5t51 -21.5t21 -51.5q0 -32 -21.5 -52t-50.5 -20zM-14 -498q-111 0 -181.5 57.5t-89.5 163.5q-6 39 27 43q27 3 35 -36q17 -87 72 -133t144 -46q110 0 167.5 70t57.5 197v894q0 37 -19.5 54.5t-56.5 8.5l-117 -32
l-11 49l275 67v-1024q0 -161 -77.5 -247t-225.5 -86z" />
    <glyph glyph-name="k" unicode="k" horiz-adv-x="1236" 
d="M23 0v48h124q66 0 66 70v1119q0 37 -19 54t-54 9l-117 -32l-11 48l272 67v-1069l506 385q38 29 31.5 55t-52.5 26h-68v48h412v-48h-90q-49 0 -94 -36l-262 -200l388 -446q39 -50 85 -50h72v-48h-456v48h156q40 0 48 24t-19 56l-328 376l-329 -251v-135q0 -32 16 -51
t46 -19h138v-48h-461z" />
    <glyph glyph-name="l" unicode="l" horiz-adv-x="499" 
d="M23 0v48h124q66 0 66 70v1119q0 37 -19 54t-54 9l-117 -32l-11 48l272 67v-1265q0 -32 16 -51t46 -19h138v-48h-461z" />
    <glyph glyph-name="m" unicode="m" horiz-adv-x="1846" 
d="M66 0v48h123q67 0 67 70v593q0 35 -19.5 52.5t-53.5 9.5l-117 -32l-10 49l271 68v-305q67 123 170.5 210t215.5 87q135 0 200.5 -67.5t71.5 -216.5q68 120 169 202t212 82q143 0 208.5 -75t65.5 -239v-418q0 -33 17 -51.5t49 -18.5h118v-48h-459v48h140q64 0 64 70v417
q0 140 -49 200t-168 60q-59 0 -118 -31t-106 -81t-83 -107.5t-58 -116.5v-341q0 -33 17 -51.5t49 -18.5h118v-48h-459v48h141q31 0 47.5 18.5t16.5 51.5v417q0 140 -49.5 200t-168.5 60q-63 0 -124.5 -34t-109 -87.5t-83.5 -115t-55 -122.5v-318q0 -32 16.5 -51t46.5 -19
h138v-48h-462z" />
    <glyph glyph-name="n" unicode="n" horiz-adv-x="1186" 
d="M66 0v48h123q67 0 67 70v593q0 35 -19.5 52.5t-53.5 9.5l-117 -32l-10 49l271 68v-305q64 123 165 210t214 87q143 0 209 -75t66 -239v-418q0 -33 17 -51.5t49 -18.5h118v-48h-460v48h141q31 0 47.5 18.5t16.5 51.5v417q0 140 -49.5 200t-167.5 60q-62 0 -123 -33.5
t-107.5 -87.5t-81.5 -115.5t-54 -122.5v-318q0 -32 16.5 -51t46.5 -19h136v-48h-460z" />
    <glyph glyph-name="o" unicode="o" horiz-adv-x="1025" 
d="M512 -22q-42 0 -89 9.5t-107.5 39t-107 75t-79 127.5t-32.5 187q0 91 26 165.5t68.5 123.5t97.5 82.5t111 48t112 14.5q55 0 110.5 -14.5t111 -48t98 -82t69 -123.5t26.5 -166q0 -103 -31.5 -184t-77.5 -127t-105 -76.5t-108 -40.5t-93 -10zM513 27q38 0 80 10.5t89.5 38
t85 69.5t62 112.5t24.5 158.5q0 96 -30 172t-79.5 121t-109 68.5t-123.5 23.5q-63 0 -122.5 -23.5t-109.5 -69t-80 -121t-30 -170.5q0 -88 25 -159t62 -113t85 -69.5t90.5 -38t80.5 -10.5z" />
    <glyph glyph-name="p" unicode="p" horiz-adv-x="1100" 
d="M30 -489v49h125q65 0 65 70v1083q0 36 -19.5 53t-55.5 9l-115 -31l-11 48l269 67l2 -135q128 126 303 126q172 0 295 -126.5t123 -308.5t-124 -309.5t-297 -127.5q-172 0 -299 125v-473q0 -70 69 -70h137v-49h-467zM578 31q100 0 183.5 53.5t130 141t46.5 187.5
q0 158 -104 271t-254 113q-85 0 -161.5 -38t-127.5 -105v-482q52 -67 128.5 -104t158.5 -37z" />
    <glyph glyph-name="q" unicode="q" horiz-adv-x="1054" 
d="M603 -489v49h137q68 0 68 70v472q-124 -124 -299 -124t-297.5 126.5t-122.5 308.5q0 91 34 173t91 139.5t134.5 91t161.5 33.5q175 0 304 -126l19 107h46v-1201q0 -70 67 -70h123v-49h-466zM519 30q82 0 158.5 37t130.5 105v484q-52 66 -127 104t-161 38
q-149 0 -253.5 -110.5t-104.5 -273.5q0 -156 103.5 -270t253.5 -114z" />
    <glyph glyph-name="r" unicode="r" horiz-adv-x="859" 
d="M66 0v48h125q65 0 65 70v593q0 37 -19 54t-52 9l-119 -32l-11 48l267 69l4 -265q109 256 324 256q132 0 186 -111q7 -17 2 -31.5t-20 -16.5q-22 -5 -41 24q-49 76 -144 76q-94 0 -165 -58t-106 -149.5t-35 -200.5v-265q0 -70 68 -70h100v-48h-429z" />
    <glyph glyph-name="s" unicode="s" horiz-adv-x="1009" 
d="M507 482q56 -6 96.5 -12t90.5 -18t83.5 -29.5t64 -42.5t45.5 -62t15 -84q0 -123 -101.5 -189.5t-263.5 -66.5q-123 0 -215.5 38t-138.5 102l-15 -140h-37l-1 253h49q26 -94 122 -149t239 -55q135 0 218 51t83 146q0 31 -10.5 56.5t-26.5 43.5t-43.5 32t-52.5 22.5
t-64.5 16t-68 11t-72.5 7.5q-39 4 -62 6.5t-59 8t-58 11t-51.5 14.5t-47.5 19.5t-38 26t-31 34t-18 42.5t-7 52q0 108 89.5 165.5t244.5 57.5q231 0 323 -127l13 127h36l1 -249h-43q-21 95 -106 147.5t-227 52.5q-126 0 -198.5 -41.5t-72.5 -120.5q0 -26 9 -46.5t22 -35
t39 -26t47 -18.5t60 -13.5t65 -9.5t74 -8z" />
    <glyph glyph-name="t" unicode="t" horiz-adv-x="774" 
d="M491 -22q-118 0 -182 79t-64 225v498h-232v48h169q39 0 62.5 23t23.5 62v194h48v-279h361v-48h-361v-492q0 -258 187 -258q67 0 113.5 37t55.5 109h46q-13 -98 -76.5 -148t-150.5 -50z" />
    <glyph glyph-name="u" unicode="u" horiz-adv-x="1152" 
d="M480 -22q-143 0 -209 75t-66 239v418q0 70 -66 70h-117v48h254v-535q0 -140 49.5 -200t167.5 -60q62 0 123 33.5t107.5 87.5t81.5 115t54 122v319q0 32 -16 51t-47 19h-136v48h270v-708q0 -36 19.5 -53.5t53.5 -8.5l117 31l11 -48l-272 -62v296q-64 -123 -165 -210
t-214 -87z" />
    <glyph glyph-name="v" unicode="v" horiz-adv-x="1063" 
d="M504 -18l-337 740q-26 58 -79 58h-82v48h417v-48h-127q-39 0 -51 -23t6 -58l300 -658l325 656q18 35 7.5 59t-48.5 24h-77v48h297v-48h-35q-51 0 -79 -61l-366 -737h-71z" />
    <glyph glyph-name="w" unicode="w" horiz-adv-x="1636" 
d="M1287 828h342v-48h-70q-54 0 -75 -59l-283 -741h-88l-276 801l-289 -801h-86l-269 741q-22 59 -77 59h-108v48h438v-48h-125q-75 0 -50 -75l241 -665h8l291 806h75l278 -807h9l251 658q30 83 -50 83h-87v48z" />
    <glyph glyph-name="x" unicode="x" horiz-adv-x="1149" 
d="M54 0v48h43q47 0 91 41l344 334l-324 313q-46 44 -87 44h-71v48h420v-48h-103q-42 0 -50 -24t22 -54l242 -234l241 234q31 31 23 54.5t-51 23.5h-64v48h334v-48h-49q-44 0 -89 -42l-311 -302l349 -337q49 -51 93 -51h55v-48h-404v48h100q43 0 52 24t-21 53l-273 264
l-272 -262q-31 -31 -23.5 -55t50.5 -24h98v-48h-365z" />
    <glyph glyph-name="y" unicode="y" horiz-adv-x="1077" 
d="M210 -441q-42 -6 -45 27q-1 14 10 23t28 13q101 21 177.5 86t144.5 205l40 87l-418 727q-30 53 -79 53h-63v48h375v-48h-98q-38 0 -49 -23t9 -56l360 -625l293 620q18 37 7 60.5t-49 23.5h-116v48h333v-48h-30q-54 0 -81 -61l-392 -830q-74 -158 -158.5 -232.5
t-198.5 -97.5z" />
    <glyph glyph-name="z" unicode="z" horiz-adv-x="957" 
d="M88 0v79l685 690l2 11h-521q-29 0 -46.5 -15t-24.5 -49l-22 -148l-48 4l33 256h703v-77l-685 -690l-3 -13h553q60 0 73 65l20 154l48 -4l-29 -263h-738z" />
    <glyph glyph-name="braceleft" unicode="{" horiz-adv-x="601" 
d="M561 -528q-175 -6 -278.5 85t-105.5 243q-2 91 34 207t36 168q0 102 -40.5 148t-121.5 51v97q88 7 125 55t37 145q0 55 -36 170.5t-34 202.5q3 148 104 240.5t280 88.5v-42q-149 4 -235 -70.5t-89 -206.5q-2 -84 33.5 -202t35.5 -172q0 -215 -181 -246v-23
q181 -33 181 -246q0 -60 -35.5 -172.5t-33.5 -200.5q3 -135 91 -209t233 -69v-42z" />
    <glyph glyph-name="bar" unicode="|" horiz-adv-x="586" 
d="M260 -483v1835h65v-1835h-65z" />
    <glyph glyph-name="braceright" unicode="}" horiz-adv-x="601" 
d="M40 -528v42q145 -5 233 69t91 209q2 88 -33.5 200.5t-35.5 172.5q0 213 181 246v23q-181 31 -181 246q0 54 35.5 172t33.5 202q-3 132 -89 206.5t-235 70.5v42q179 4 280 -88.5t104 -240.5q2 -87 -34 -202.5t-36 -170.5q0 -97 37 -145t125 -55v-97q-81 -5 -121.5 -51
t-40.5 -148q0 -52 36 -168t34 -207q-2 -152 -105.5 -243t-278.5 -85z" />
    <glyph glyph-name="asciitilde" unicode="~" horiz-adv-x="1275" 
d="M211 567q0 111 58 182.5t167 71.5q46 0 88 -16t65.5 -33t66.5 -52q34 -32 53 -47t53.5 -28.5t76.5 -13.5q82 0 129 52t48 146h45q3 -116 -58 -187.5t-171 -71.5q-42 0 -75.5 7.5t-65.5 27.5t-47 31.5t-50 41.5q-30 29 -48.5 43.5t-49.5 27t-67 12.5q-81 0 -126.5 -51
t-46.5 -143h-45z" />
    <glyph glyph-name="uni00A0" unicode="&#xa0;" horiz-adv-x="553" 
 />
    <glyph glyph-name="exclamdown" unicode="&#xa1;" horiz-adv-x="560" 
d="M278 861q37 0 64 -27.5t27 -65.5t-27 -65t-64 -27q-38 0 -65 27t-27 65t27 65.5t65 27.5zM256 382h48l9 -765q2 -86 2 -124t-35 -38t-35 38q0 48 2 126z" />
    <glyph glyph-name="cent" unicode="&#xa2;" horiz-adv-x="1051" 
d="M880 450l43 -19q-48 -115 -144 -181.5t-227 -66.5q-30 0 -67 5l-74 -370h-45l76 379q-138 35 -222 149.5t-84 272.5q0 189 119.5 312.5t300.5 123.5q29 0 56 -3l80 400h45l-81 -408q81 -18 144.5 -64t97.5 -116q6 -18 1 -31.5t-19 -16.5q-26 -5 -43 33q-67 112 -191 145
l-151 -755q35 -5 64 -5q112 0 196 58.5t125 157.5zM209 626q0 -141 66 -241.5t177 -134.5l150 753q-22 3 -48 3q-153 0 -249 -109.5t-96 -270.5z" />
    <glyph glyph-name="sterling" unicode="&#xa3;" horiz-adv-x="1490" 
d="M153 -34q-20 0 -27 20q-4 12 6 29q26 31 82 94t73 85q126 175 198 443h-340l14 53h339q12 39 31.5 110t37 129t36.5 106q63 165 164 251.5t269 86.5q202 0 274 -189q9 -37 -20 -44q-26 -5 -40 31q-68 152 -221 152q-78 0 -138.5 -22.5t-103 -66.5t-71 -95t-54.5 -122
q-20 -58 -52 -173t-44 -154h382l-13 -53h-385q-61 -209 -139 -346q73 46 156 46q30 0 58.5 -10t46 -19t46 -36t36.5 -36t39 -44q38 -43 56.5 -62t54 -47t73.5 -39.5t85 -11.5q66 0 119 43.5t76 109.5q27 83 1 174q-9 38 17 46q29 8 42 -34q15 -41 11 -97q-5 -116 -87 -206.5
t-195 -90.5q-56 0 -104 15t-87 45.5t-62 54t-56 63.5q-35 44 -56.5 66t-56 41t-71.5 19q-60 0 -113.5 -28.5t-112.5 -93.5q-19 -25 -41.5 -55t-34 -46t-26 -34.5t-22.5 -27t-17.5 -16.5t-17 -11t-15.5 -3z" />
    <glyph glyph-name="currency" unicode="&#xa4;" horiz-adv-x="1289" 
d="M256 303l-35 35l128 128q-96 115 -96 255q0 146 99 261l-131 132l35 35l132 -130q116 100 256 100q145 0 259 -100l130 130l35 -35l-129 -130q97 -121 97 -263q0 -139 -95 -253l127 -130l-35 -35l-130 130q-114 -100 -259 -100q-144 0 -258 98zM644 383q140 0 241 100
t101 239q0 142 -101 244.5t-241 102.5q-139 0 -240 -103t-101 -244q0 -140 100 -239.5t241 -99.5z" />
    <glyph glyph-name="yen" unicode="&#xa5;" horiz-adv-x="1595" 
d="M493 0v48h223q70 0 70 73v226h-516v47h516v57l-78 127h-438v47h408l-383 623q-34 56 -84 56h-109v48h490v-48h-158q-40 0 -51.5 -24t10.5 -59l441 -713l439 709q23 36 11 61.5t-54 25.5h-148v48h392v-48h-39q-51 0 -85 -56l-387 -623h413v-47h-440l-80 -126v-58h520v-47
h-520v-226q0 -73 69 -73h223v-48h-655z" />
    <glyph glyph-name="brokenbar" unicode="&#xa6;" horiz-adv-x="652" 
d="M294 567v785h64v-785h-64zM294 -481v790h64v-790h-64z" />
    <glyph glyph-name="section" unicode="&#xa7;" horiz-adv-x="1117" 
d="M554 -496q-146 0 -231 67t-93 191q-1 20 8 30.5t22 10.5q27 0 34 -39q18 -212 265 -212q128 0 194.5 62.5t66.5 184.5q0 56 -22 101t-82 89.5t-95.5 65t-131.5 69.5q-7 4 -11.5 6.5t-11 5.5t-11.5 6q-60 31 -101.5 56t-87.5 61t-74 71.5t-46.5 83t-18.5 100.5
q0 128 76.5 201t218.5 75q-55 36 -92.5 71.5t-65 89.5t-27.5 116q0 149 85 227.5t241 78.5q148 0 232.5 -68t92.5 -190q1 -19 -8 -30t-23 -11q-28 0 -34 41q-9 102 -76 155.5t-189 53.5q-130 0 -196 -62.5t-66 -184.5q0 -55 22 -99.5t81.5 -88.5t94 -64t128.5 -68
q21 -11 32 -17q62 -32 103 -56t89.5 -60.5t76.5 -72t47.5 -85t19.5 -104.5q0 -134 -79 -205t-215 -72q184 -121 184 -276q0 -149 -86 -227t-240 -78zM612 139q153 -23 236.5 33t83.5 179q0 51 -19.5 94.5t-53 78t-88.5 70t-115 67.5t-144 74q-5 2 -7 3q-154 23 -237.5 -33
t-83.5 -179q0 -37 11 -70t26 -59t48.5 -55.5t60.5 -49t81.5 -50t91.5 -49z" />
    <glyph glyph-name="dieresis" unicode="&#xa8;" horiz-adv-x="766" 
d="M213 1154q-29 0 -48.5 21t-19.5 47q0 28 20 48t48 20t48 -20t20 -48q0 -30 -20 -49t-48 -19zM553 1154q-29 0 -48.5 21t-19.5 47q0 28 20 48t48 20t48 -20t20 -48q0 -30 -20 -49t-48 -19z" />
    <glyph glyph-name="copyright" unicode="&#xa9;" horiz-adv-x="1693" 
d="M844 -22q-141 0 -269.5 55t-222 148.5t-148.5 223t-55 272.5q0 141 55.5 270t149 222t222 148.5t268.5 55.5q190 0 351 -93.5t255 -254t94 -348.5q0 -189 -94 -350t-255 -255t-351 -94zM844 24q133 0 254 52t208.5 139.5t139.5 208t52 253.5q0 131 -52 251.5
t-139.5 207.5t-208.5 139t-254 52q-176 0 -325.5 -87t-236.5 -236.5t-87 -326.5q0 -133 51.5 -254t138.5 -208.5t207 -139t252 -51.5zM843 246q-176 0 -292.5 121t-116.5 309q0 186 117 307.5t294 121.5q139 0 238 -69q31 -21 48 -14.5t17 39.5h41v-169h-41
q-44 83 -123.5 127t-175.5 44q-158 0 -256.5 -110t-98.5 -274q0 -171 99.5 -280.5t255.5 -109.5q112 0 197.5 57.5t126.5 155.5l33 -22q-49 -110 -145 -172t-218 -62z" />
    <glyph glyph-name="guillemotleft" unicode="&#xab;" horiz-adv-x="969" 
d="M359 0l-288 440l288 441h52l-265 -441l265 -440h-52zM825 0l-288 440l287 441h53l-265 -441l265 -440h-52z" />
    <glyph glyph-name="logicalnot" unicode="&#xac;" horiz-adv-x="1405" 
d="M1086 334v550h-976v59h1035v-609h-59z" />
    <glyph glyph-name="uni00AD" unicode="&#xad;" horiz-adv-x="921" 
d="M165 373v65h591v-65h-591z" />
    <glyph glyph-name="registered" unicode="&#xae;" horiz-adv-x="1693" 
d="M844 1373q190 0 351 -93.5t255 -253.5t94 -348q0 -190 -94 -351t-255 -255t-351 -94q-141 0 -269.5 55.5t-222 149t-148.5 223t-55 272.5q0 141 55.5 269.5t149 221.5t222 148.5t268.5 55.5zM844 24q133 0 254 52t208.5 139.5t139.5 208.5t52 254q0 131 -52 251.5
t-139.5 207.5t-208.5 139t-254 52q-176 0 -325.5 -87t-236.5 -236.5t-87 -326.5q0 -178 87 -328.5t236.5 -238t325.5 -87.5zM1190 346q16 -22 43 -22h54v-39h-111l-191 282q-34 49 -63.5 67t-72.5 18h-179v-294q0 -34 33 -34h90v-39h-296v39h90q33 0 33 34v647q0 36 -33 36
h-90v36h395q112 0 179.5 -56t67.5 -154q0 -79 -47.5 -134t-129.5 -72q32 -25 64 -74zM670 691h215q96 0 150 45.5t54 129.5q0 82 -53.5 127.5t-148.5 45.5h-217v-348z" />
    <glyph glyph-name="macron" unicode="&#xaf;" horiz-adv-x="1054" 
d="M164 1140v61h725v-61h-725z" />
    <glyph glyph-name="degree" unicode="&#xb0;" horiz-adv-x="1067" 
d="M533 662q-147 0 -251.5 104.5t-104.5 251.5q0 146 104.5 250.5t251.5 104.5q146 0 250.5 -104.5t104.5 -250.5q0 -147 -104.5 -251.5t-250.5 -104.5zM533 715q126 0 214 88.5t88 214.5t-88 214t-214 88t-214.5 -88t-88.5 -214t88.5 -214.5t214.5 -88.5z" />
    <glyph glyph-name="plusminus" unicode="&#xb1;" horiz-adv-x="1347" 
d="M644 358v526h-525v59h525v525h59v-525h526v-59h-526v-526h-59zM119 0v59h1110v-59h-1110z" />
    <glyph glyph-name="acute" unicode="&#xb4;" horiz-adv-x="496" 
d="M97 1030h-46l270 322h135v-4z" />
    <glyph glyph-name="uni00B5" unicode="&#xb5;" horiz-adv-x="1306" 
d="M286 -429v1139q0 33 -17 51.5t-49 18.5h-118v48h255v-535q0 -140 49.5 -200t167.5 -60q62 0 123 33.5t107.5 87.5t81.5 115t54 122v319q0 32 -16.5 51t-46.5 19h-136v48h270v-708q0 -36 19.5 -53.5t53.5 -8.5l117 31l10 -48l-271 -62v296q-61 -119 -157.5 -204.5
t-205.5 -87.5q-160 -5 -220 90v-502h-71z" />
    <glyph glyph-name="paragraph" unicode="&#xb6;" horiz-adv-x="1136" 
d="M494 -510v1183q-7 38 -32 65t-60 43t-76 29.5t-80.5 29t-72 36.5t-52.5 57.5t-20 86.5q0 81 24 139.5t66 95.5t109.5 59t144 30t180.5 8h441v-41h-45q-197 0 -197 -207v-1614h-47v1817h-235v-1817h-48z" />
    <glyph glyph-name="periodcentered" unicode="&#xb7;" horiz-adv-x="607" 
d="M304 583q-38 0 -65 26.5t-27 68.5q0 39 25 63.5t67 24.5q39 0 65 -25t26 -63q0 -42 -26 -68.5t-65 -26.5z" />
    <glyph glyph-name="cedilla" unicode="&#xb8;" horiz-adv-x="612" 
d="M233 -491q-93 0 -196 27l13 48q88 -25 178 -25q114 0 184 41t70 104q0 16 -4.5 28.5t-13.5 21t-21.5 15t-28 10t-33 6t-37.5 3t-41.5 1t-43.5 0.5h-44l45 230l50 -8l-35 -171q39 0 65.5 -1t60 -5t55.5 -13.5t42 -23.5t30 -37t10 -54q0 -84 -85.5 -140.5t-219.5 -56.5z
" />
    <glyph glyph-name="guillemotright" unicode="&#xbb;" horiz-adv-x="969" 
d="M144 0h-52l265 440l-265 441h53l287 -441zM610 0h-52l265 440l-265 441h52l288 -441z" />
    <glyph glyph-name="questiondown" unicode="&#xbf;" horiz-adv-x="889" 
d="M533 676q-36 0 -63 27t-27 65t27 65.5t63 27.5q38 0 65 -27.5t27 -65.5t-27 -65t-65 -27zM789 -266q13 -2 19.5 -13.5t1.5 -27.5q-35 -106 -128.5 -172t-212.5 -66q-154 0 -260.5 107t-106.5 257q0 154 89 251.5t222 97.5q47 0 95 -13v228h50v-282h-43q-42 16 -93 16
q-111 0 -180 -85t-69 -211q0 -127 86 -222t213 -95q95 0 172.5 53.5t106.5 144.5q11 37 38 32z" />
    <glyph glyph-name="Agrave" unicode="&#xc0;" horiz-adv-x="1425" 
d="M741 1438h-46l-359 317v4h135zM1298 49l93 -1v-48h-443v48l137 1q33 0 47.5 18.5t4.5 49.5l-130 363h-630l-139 -358q-12 -33 3.5 -53t49.5 -20l162 -1v-48h-419v48l66 1q62 10 82 67l488 1257h92l451 -1257q24 -64 85 -67zM395 529h594l-270 751h-33z" />
    <glyph glyph-name="Aacute" unicode="&#xc1;" horiz-adv-x="1425" 
d="M1099 1755l-358 -317h-46l270 321h134v-4zM1298 49l93 -1v-48h-443v48l137 1q33 0 47.5 18.5t4.5 49.5l-130 363h-630l-139 -358q-12 -33 3.5 -53t49.5 -20l162 -1v-48h-419v48l66 1q62 10 82 67l488 1257h92l451 -1257q24 -64 85 -67zM395 529h594l-270 751h-33z" />
    <glyph glyph-name="Acircumflex" unicode="&#xc2;" horiz-adv-x="1425" 
d="M718 1746l-309 -276h-46l276 322h157l276 -322h-46zM1298 49l93 -1v-48h-443v48l137 1q33 0 47.5 18.5t4.5 49.5l-130 363h-630l-139 -358q-12 -33 3.5 -53t49.5 -20l162 -1v-48h-419v48l66 1q62 10 82 67l488 1257h92l451 -1257q24 -64 85 -67zM395 529h594l-270 751
h-33z" />
    <glyph glyph-name="Atilde" unicode="&#xc3;" horiz-adv-x="1425" 
d="M419 1440h-45q-1 113 48.5 178t137.5 65q39 0 73.5 -16.5t52 -32t45.5 -45.5q26 -30 41 -44t43.5 -27.5t62.5 -13.5q65 0 101.5 49.5t37.5 139.5h45q2 -114 -48.5 -182t-139.5 -68q-34 0 -61.5 7.5t-52.5 26.5t-35.5 29t-36.5 37q-25 28 -38.5 41t-39.5 25.5t-56 12.5
q-64 0 -99 -48t-36 -134zM1298 49l93 -1v-48h-443v48l137 1q33 0 47.5 18.5t4.5 49.5l-130 363h-630l-139 -358q-12 -33 3.5 -53t49.5 -20l162 -1v-48h-419v48l66 1q62 10 82 67l488 1257h92l451 -1257q24 -64 85 -67zM395 529h594l-270 751h-33z" />
    <glyph glyph-name="Adieresis" unicode="&#xc4;" horiz-adv-x="1425" 
d="M547 1538q-29 0 -48.5 21t-19.5 47q0 28 20 48t48 20t48 -20t20 -48q0 -30 -20 -49t-48 -19zM887 1538q-29 0 -48.5 21t-19.5 47q0 28 20 48t48 20t48 -20t20 -48q0 -30 -20 -49t-48 -19zM1298 49l93 -1v-48h-443v48l137 1q33 0 47.5 18.5t4.5 49.5l-130 363h-630
l-139 -358q-12 -33 3.5 -53t49.5 -20l162 -1v-48h-419v48l66 1q62 10 82 67l488 1257h92l451 -1257q24 -64 85 -67zM395 529h594l-270 751h-33z" />
    <glyph glyph-name="Aring" unicode="&#xc5;" horiz-adv-x="1425" 
d="M718 1450q-73 0 -124.5 52t-51.5 126q0 75 51.5 126.5t124.5 51.5q74 0 126 -52t52 -126q0 -73 -52.5 -125.5t-125.5 -52.5zM718 1762q-55 0 -93 -39t-38 -95t38 -94.5t93 -38.5q56 0 95 38.5t39 94.5t-39 95t-95 39zM1298 49l93 -1v-48h-443v48l137 1q33 0 47.5 18.5
t4.5 49.5l-130 363h-630l-139 -358q-12 -33 3.5 -53t49.5 -20l162 -1v-48h-419v48l66 1q62 10 82 67l488 1257h92l451 -1257q24 -64 85 -67zM395 529h594l-270 751h-33z" />
    <glyph glyph-name="AE" unicode="&#xc6;" horiz-adv-x="2030" 
d="M1853 448l48 -4l-41 -444h-1175v48h142q69 0 69 73v359h-477l-181 -358q-16 -32 1 -52.5t52 -20.5l162 -1v-48h-419v48l66 1q32 6 49 21t33 46l618 1236h1015l22 -349l-48 -3l-17 235q-11 67 -81 67h-721v-567h487q33 0 52 16.5t19 48.5v134h48v-461h-48v146q0 66 -70 66
h-488v-560q0 -76 70 -76h687q77 0 89 68zM444 529h452l-1 773h-60z" />
    <glyph glyph-name="Ccedilla" unicode="&#xc7;" horiz-adv-x="1533" 
d="M1293 504h49v-464h-49l-6 308q-68 -158 -206 -258.5t-308 -109.5l-29 -140q39 0 65.5 -1t60 -5t55.5 -13.5t42 -23.5t30 -37t10 -54q0 -84 -85.5 -140.5t-219.5 -56.5q-92 0 -196 27l13 48q88 -25 178 -25q114 0 184 41t70 104q0 16 -4.5 28.5t-13.5 21t-21.5 15t-28 10
t-33 6t-37.5 3t-41.5 1t-43.5 0.5h-44l37 190q-170 6 -309 101t-218 252.5t-79 344.5q0 190 82.5 349.5t227.5 253t319 93.5q170 0 316 -98.5t226 -268.5l4 308h48l2 -458h-48q-49 201 -199.5 334t-343.5 133q-156 0 -284 -87.5t-199.5 -236.5t-71.5 -326q0 -181 73 -329
t200.5 -231.5t282.5 -83.5q192 0 345 132t198 343z" />
    <glyph glyph-name="Egrave" unicode="&#xc8;" horiz-adv-x="1410" 
d="M728 1438h-46l-359 317v4h135zM1233 448l49 -4l-41 -444h-1176v48h142q69 0 69 73v1110q0 72 -71 72h-140v49h1130l22 -349l-48 -3l-17 235q-6 36 -25.5 51.5t-55.5 15.5h-721v-567h488q33 0 51.5 16.5t18.5 48.5v134h49v-461h-49v146q0 66 -70 66h-488v-560
q0 -76 70 -76h688q77 0 88 68z" />
    <glyph glyph-name="Eacute" unicode="&#xc9;" horiz-adv-x="1410" 
d="M1086 1755l-358 -317h-46l270 321h134v-4zM1233 448l49 -4l-41 -444h-1176v48h142q69 0 69 73v1110q0 72 -71 72h-140v49h1130l22 -349l-48 -3l-17 235q-6 36 -25.5 51.5t-55.5 15.5h-721v-567h488q33 0 51.5 16.5t18.5 48.5v134h49v-461h-49v146q0 66 -70 66h-488v-560
q0 -76 70 -76h688q77 0 88 68z" />
    <glyph glyph-name="Ecircumflex" unicode="&#xca;" horiz-adv-x="1410" 
d="M705 1746l-309 -276h-46l276 322h157l276 -322h-46zM1233 448l49 -4l-41 -444h-1176v48h142q69 0 69 73v1110q0 72 -71 72h-140v49h1130l22 -349l-48 -3l-17 235q-6 36 -25.5 51.5t-55.5 15.5h-721v-567h488q33 0 51.5 16.5t18.5 48.5v134h49v-461h-49v146q0 66 -70 66
h-488v-560q0 -76 70 -76h688q77 0 88 68z" />
    <glyph glyph-name="Edieresis" unicode="&#xcb;" horiz-adv-x="1410" 
d="M534 1538q-29 0 -48.5 21t-19.5 47q0 28 20 48t48 20t48 -20t20 -48q0 -30 -20 -49t-48 -19zM874 1538q-29 0 -48.5 21t-19.5 47q0 28 20 48t48 20t48 -20t20 -48q0 -30 -20 -49t-48 -19zM1233 448l49 -4l-41 -444h-1176v48h142q69 0 69 73v1110q0 72 -71 72h-140v49
h1130l22 -349l-48 -3l-17 235q-6 36 -25.5 51.5t-55.5 15.5h-721v-567h488q33 0 51.5 16.5t18.5 48.5v134h49v-461h-49v146q0 66 -70 66h-488v-560q0 -76 70 -76h688q77 0 88 68z" />
    <glyph glyph-name="Igrave" unicode="&#xcc;" horiz-adv-x="736" 
d="M345 1438l-359 317v4h135l270 -321h-46zM66 0v48h193q72 0 72 73v1110q0 73 -72 73h-193v48h604v-48h-193q-72 0 -72 -73v-1110q0 -73 72 -73h193v-48h-604z" />
    <glyph glyph-name="Iacute" unicode="&#xcd;" horiz-adv-x="736" 
d="M345 1438l270 321h134v-4l-358 -317h-46zM66 0v48h193q72 0 72 73v1110q0 73 -72 73h-193v48h604v-48h-193q-72 0 -72 -73v-1110q0 -73 72 -73h193v-48h-604z" />
    <glyph glyph-name="Icircumflex" unicode="&#xce;" horiz-adv-x="736" 
d="M13 1470l276 322h157l276 -322h-46l-308 276l-309 -276h-46zM66 0v48h193q72 0 72 73v1110q0 73 -72 73h-193v48h604v-48h-193q-72 0 -72 -73v-1110q0 -73 72 -73h193v-48h-604z" />
    <glyph glyph-name="Idieresis" unicode="&#xcf;" horiz-adv-x="736" 
d="M197 1538q-29 0 -48.5 21t-19.5 47q0 28 20 48t48 20t48 -20t20 -48q0 -30 -20 -49t-48 -19zM537 1538q-29 0 -48.5 21t-19.5 47q0 28 20 48t48 20t48 -20t20 -48q0 -30 -20 -49t-48 -19zM66 0v48h193q72 0 72 73v1110q0 73 -72 73h-193v48h604v-48h-193q-72 0 -72 -73
v-1110q0 -73 72 -73h193v-48h-604z" />
    <glyph glyph-name="Eth" unicode="&#xd0;" horiz-adv-x="1562" 
d="M723 1352q216 0 381 -82t256 -235.5t91 -357.5q0 -311 -199.5 -494t-528.5 -183h-657v48h151q66 0 66 73v530h-221v50h221v530q0 73 -67 73h-150v48h657zM748 49q282 0 452.5 174t170.5 454q0 191 -81.5 334t-225.5 218t-332 75h-375v-603h522v-50h-522v-526
q0 -76 73 -76h318z" />
    <glyph glyph-name="Ntilde" unicode="&#xd1;" horiz-adv-x="1577" 
d="M498 1440h-45q-1 113 48.5 178t137.5 65q39 0 73.5 -16.5t52 -32t45.5 -45.5q26 -30 41 -44t43.5 -27.5t62.5 -13.5q65 0 101.5 49.5t37.5 139.5h45q2 -114 -48.5 -182t-139.5 -68q-34 0 -61.5 7.5t-52.5 26.5t-35.5 29t-36.5 37q-25 28 -38.5 41t-39.5 25.5t-56 12.5
q-64 0 -99 -48t-36 -134zM1061 1352h479v-49h-140q-34 0 -52 -21.5t-18 -57.5v-1247h-59l-924 1309l-22 4v-1162q0 -36 17.5 -58t54.5 -22h140v-48h-473v48h139q37 0 54.5 23.5t17.5 56.5v1098q0 36 -19 56.5t-54 20.5h-139v49h329l888 -1263v1136q0 34 -18 56t-54 22h-147
v49z" />
    <glyph glyph-name="Ograve" unicode="&#xd2;" horiz-adv-x="1473" 
d="M714 1438l-359 317v4h135l270 -321h-46zM737 -21q-182 0 -322.5 89t-217.5 248t-77 362q0 198 76 355.5t217 248.5t323 91q184 0 325.5 -91.5t216.5 -249t75 -355.5q0 -200 -76 -358.5t-217 -249t-323 -90.5zM736 29q239 0 387.5 178t148.5 470t-148 469t-388 177
q-159 0 -281 -82t-188 -228.5t-66 -333.5q0 -186 64.5 -333t187 -232t283.5 -85z" />
    <glyph glyph-name="Oacute" unicode="&#xd3;" horiz-adv-x="1473" 
d="M714 1438l270 321h134v-4l-358 -317h-46zM737 -21q-182 0 -322.5 89t-217.5 248t-77 362q0 198 76 355.5t217 248.5t323 91q184 0 325.5 -91.5t216.5 -249t75 -355.5q0 -200 -76 -358.5t-217 -249t-323 -90.5zM736 29q239 0 387.5 178t148.5 470t-148 469t-388 177
q-159 0 -281 -82t-188 -228.5t-66 -333.5q0 -186 64.5 -333t187 -232t283.5 -85z" />
    <glyph glyph-name="Ocircumflex" unicode="&#xd4;" horiz-adv-x="1473" 
d="M382 1470l276 322h157l276 -322h-46l-308 276l-309 -276h-46zM737 -21q-182 0 -322.5 89t-217.5 248t-77 362q0 198 76 355.5t217 248.5t323 91q184 0 325.5 -91.5t216.5 -249t75 -355.5q0 -200 -76 -358.5t-217 -249t-323 -90.5zM736 29q239 0 387.5 178t148.5 470
t-148 469t-388 177q-159 0 -281 -82t-188 -228.5t-66 -333.5q0 -186 64.5 -333t187 -232t283.5 -85z" />
    <glyph glyph-name="Otilde" unicode="&#xd5;" horiz-adv-x="1473" 
d="M393 1440q-1 113 48.5 178t137.5 65q39 0 73.5 -16.5t52 -32t45.5 -45.5q26 -30 41 -44t43.5 -27.5t62.5 -13.5q65 0 101.5 49.5t37.5 139.5h45q2 -114 -48.5 -182t-139.5 -68q-34 0 -61.5 7.5t-52.5 26.5t-35.5 29t-36.5 37q-25 28 -38.5 41t-39.5 25.5t-56 12.5
q-64 0 -99 -48t-36 -134h-45zM737 -21q-182 0 -322.5 89t-217.5 248t-77 362q0 198 76 355.5t217 248.5t323 91q184 0 325.5 -91.5t216.5 -249t75 -355.5q0 -200 -76 -358.5t-217 -249t-323 -90.5zM736 29q239 0 387.5 178t148.5 470t-148 469t-388 177q-159 0 -281 -82
t-188 -228.5t-66 -333.5q0 -186 64.5 -333t187 -232t283.5 -85z" />
    <glyph glyph-name="Odieresis" unicode="&#xd6;" horiz-adv-x="1473" 
d="M566 1538q-29 0 -48.5 21t-19.5 47q0 28 20 48t48 20t48 -20t20 -48q0 -30 -20 -49t-48 -19zM906 1538q-29 0 -48.5 21t-19.5 47q0 28 20 48t48 20t48 -20t20 -48q0 -30 -20 -49t-48 -19zM737 -21q-182 0 -322.5 89t-217.5 248t-77 362q0 198 76 355.5t217 248.5t323 91
q184 0 325.5 -91.5t216.5 -249t75 -355.5q0 -200 -76 -358.5t-217 -249t-323 -90.5zM736 29q239 0 387.5 178t148.5 470t-148 469t-388 177q-159 0 -281 -82t-188 -228.5t-66 -333.5q0 -186 64.5 -333t187 -232t283.5 -85z" />
    <glyph glyph-name="multiply" unicode="&#xd7;" horiz-adv-x="1085" 
d="M170 227l-41 41l371 372l-371 372l41 41l372 -372l372 372l41 -41l-371 -372l371 -372l-41 -41l-372 371z" />
    <glyph glyph-name="Oslash" unicode="&#xd8;" horiz-adv-x="1473" 
d="M1197 1160q156 -193 156 -483q0 -200 -76 -358.5t-217 -249t-323 -90.5q-258 0 -426 174l-144 -163l-39 33l148 168q-156 194 -156 487q0 198 76 355.5t217 248.5t323 91q258 0 427 -175l143 162l38 -33zM201 679q0 -259 122 -435l798 906q-148 173 -385 173
q-159 0 -281 -82t-188 -228.5t-66 -333.5zM736 29q239 0 387.5 178t148.5 470q0 261 -120 432l-797 -906q147 -174 381 -174z" />
    <glyph glyph-name="Ugrave" unicode="&#xd9;" horiz-adv-x="1541" 
d="M739 1438l-359 317v4h135l270 -321h-46zM774 -21q-259 0 -392.5 128t-133.5 372v752q0 72 -72 72h-139v49h568v-49h-212q-71 0 -71 -72v-752q0 -449 462 -449q243 0 358.5 114t115.5 339v743q0 36 -18.5 56.5t-54.5 20.5h-123v49h425v-49h-109q-34 0 -52 -20.5t-18 -55.5
v-745q0 -248 -133 -375.5t-401 -127.5z" />
    <glyph glyph-name="Uacute" unicode="&#xda;" horiz-adv-x="1541" 
d="M739 1438l270 321h134v-4l-358 -317h-46zM774 -21q-259 0 -392.5 128t-133.5 372v752q0 72 -72 72h-139v49h568v-49h-212q-71 0 -71 -72v-752q0 -449 462 -449q243 0 358.5 114t115.5 339v743q0 36 -18.5 56.5t-54.5 20.5h-123v49h425v-49h-109q-34 0 -52 -20.5
t-18 -55.5v-745q0 -248 -133 -375.5t-401 -127.5z" />
    <glyph glyph-name="Ucircumflex" unicode="&#xdb;" horiz-adv-x="1541" 
d="M407 1470l276 322h157l276 -322h-46l-308 276l-309 -276h-46zM774 -21q-259 0 -392.5 128t-133.5 372v752q0 72 -72 72h-139v49h568v-49h-212q-71 0 -71 -72v-752q0 -449 462 -449q243 0 358.5 114t115.5 339v743q0 36 -18.5 56.5t-54.5 20.5h-123v49h425v-49h-109
q-34 0 -52 -20.5t-18 -55.5v-745q0 -248 -133 -375.5t-401 -127.5z" />
    <glyph glyph-name="Udieresis" unicode="&#xdc;" horiz-adv-x="1541" 
d="M591 1538q-29 0 -48.5 21t-19.5 47q0 28 20 48t48 20t48 -20t20 -48q0 -30 -20 -49t-48 -19zM931 1538q-29 0 -48.5 21t-19.5 47q0 28 20 48t48 20t48 -20t20 -48q0 -30 -20 -49t-48 -19zM774 -21q-259 0 -392.5 128t-133.5 372v752q0 72 -72 72h-139v49h568v-49h-212
q-71 0 -71 -72v-752q0 -449 462 -449q243 0 358.5 114t115.5 339v743q0 36 -18.5 56.5t-54.5 20.5h-123v49h425v-49h-109q-34 0 -52 -20.5t-18 -55.5v-745q0 -248 -133 -375.5t-401 -127.5z" />
    <glyph glyph-name="Yacute" unicode="&#xdd;" horiz-adv-x="1448" 
d="M705 1438l270 321h134v-4l-358 -317h-46zM427 0v48h222q71 0 71 73v330l-492 797q-33 55 -85 55h-109v49h494v-49h-158q-41 0 -51.5 -24.5t11.5 -58.5l441 -712l439 706q23 38 11.5 63.5t-54.5 25.5h-130v49h377v-49h-40q-53 0 -85 -56l-495 -794v-332q0 -73 71 -73h222
v-48h-660z" />
    <glyph glyph-name="Thorn" unicode="&#xde;" horiz-adv-x="1210" 
d="M65 0v48h139q72 0 72 73v1110q0 73 -72 73h-138v48h494v-48h-138q-72 0 -72 -65v-88h373q201 -1 303 -96t102 -261t-100.5 -263t-300.5 -97h-376v-313q0 -73 72 -73h140v-48h-498zM351 483h373q167 0 247 82t80 229q0 144 -79.5 226.5t-247.5 82.5h-373v-620z" />
    <glyph glyph-name="germandbls" unicode="&#xdf;" horiz-adv-x="1210" 
d="M819 -20q-47 0 -82.5 11.5t-55.5 28t-33 39.5t-17 43t-4 40q0 34 23 34q22 0 22 -31q1 -48 32 -83t108 -35q112 0 172.5 83.5t60.5 236.5q0 356 -472 356v48q82 0 141 11.5t110 41t77 86.5t26 143q0 144 -80 219.5t-240 75.5q-331 0 -331 -415l4 -797q0 -68 62 -68h207
v-48h-515v48h109q66 0 66 70l-4 778q-2 231 97 356t306 125q191 0 289.5 -89t98.5 -254q0 -236 -215 -301q160 -30 248 -129t88 -254q0 -173 -80.5 -271.5t-217.5 -98.5z" />
    <glyph glyph-name="agrave" unicode="&#xe0;" horiz-adv-x="1022" 
d="M448 1030l-359 318v4h135l270 -322h-46zM302 -20q-93 0 -143 47.5t-50 134.5q0 90 51.5 145t151.5 104l387 191q-11 110 -68 154.5t-171 44.5q-125 0 -190 -45.5t-93 -123.5q-12 -36 -42 -32q-32 6 -20 43q70 207 355 207q47 0 85.5 -5.5t81 -24.5t70.5 -49.5t46.5 -85
t17.5 -128.5l-1 -338q0 -103 22 -145t66 -42q89 0 90 147h45q0 -97 -40 -148t-110 -51q-76 0 -108 54.5t-34 172.5q-89 -105 -192 -166t-207 -61zM316 32q199 0 383 246l1 273l-366 -185q-89 -45 -122.5 -91.5t-33.5 -105.5q0 -137 138 -137z" />
    <glyph glyph-name="aacute" unicode="&#xe1;" horiz-adv-x="1022" 
d="M448 1030h-46l270 322h135v-4zM302 -20q-93 0 -143 47.5t-50 134.5q0 90 51.5 145t151.5 104l387 191q-11 110 -68 154.5t-171 44.5q-125 0 -190 -45.5t-93 -123.5q-12 -36 -42 -32q-32 6 -20 43q70 207 355 207q47 0 85.5 -5.5t81 -24.5t70.5 -49.5t46.5 -85
t17.5 -128.5l-1 -338q0 -103 22 -145t66 -42q89 0 90 147h45q0 -97 -40 -148t-110 -51q-76 0 -108 54.5t-34 172.5q-89 -105 -192 -166t-207 -61zM316 32q199 0 383 246l1 273l-366 -185q-89 -45 -122.5 -91.5t-33.5 -105.5q0 -137 138 -137z" />
    <glyph glyph-name="acircumflex" unicode="&#xe2;" horiz-adv-x="1022" 
d="M93 1030l279 322h151l279 -322h-46l-308 276l-309 -276h-46zM302 -20q-93 0 -143 47.5t-50 134.5q0 90 51.5 145t151.5 104l387 191q-11 110 -68 154.5t-171 44.5q-125 0 -190 -45.5t-93 -123.5q-12 -36 -42 -32q-32 6 -20 43q70 207 355 207q47 0 85.5 -5.5t81 -24.5
t70.5 -49.5t46.5 -85t17.5 -128.5l-1 -338q0 -103 22 -145t66 -42q89 0 90 147h45q0 -97 -40 -148t-110 -51q-76 0 -108 54.5t-34 172.5q-89 -105 -192 -166t-207 -61zM316 32q199 0 383 246l1 273l-366 -185q-89 -45 -122.5 -91.5t-33.5 -105.5q0 -137 138 -137z" />
    <glyph glyph-name="atilde" unicode="&#xe3;" horiz-adv-x="1022" 
d="M104 996q-1 113 48.5 178t137.5 65q39 0 73.5 -16t52.5 -32.5t45 -45.5q26 -30 40.5 -43.5t43.5 -27t63 -13.5q65 0 101.5 49t37.5 139h45q2 -113 -48.5 -181t-139.5 -68q-34 0 -61.5 7.5t-52.5 26t-36 29t-36 36.5q-24 28 -38.5 41.5t-40 26t-55.5 12.5q-64 0 -99 -48.5
t-36 -134.5h-45zM302 -20q-93 0 -143 47.5t-50 134.5q0 90 51.5 145t151.5 104l387 191q-11 110 -68 154.5t-171 44.5q-125 0 -190 -45.5t-93 -123.5q-12 -36 -42 -32q-32 6 -20 43q70 207 355 207q47 0 85.5 -5.5t81 -24.5t70.5 -49.5t46.5 -85t17.5 -128.5l-1 -338
q0 -103 22 -145t66 -42q89 0 90 147h45q0 -97 -40 -148t-110 -51q-76 0 -108 54.5t-34 172.5q-89 -105 -192 -166t-207 -61zM316 32q199 0 383 246l1 273l-366 -185q-89 -45 -122.5 -91.5t-33.5 -105.5q0 -137 138 -137z" />
    <glyph glyph-name="adieresis" unicode="&#xe4;" horiz-adv-x="1022" 
d="M277 1154q-29 0 -48.5 21t-19.5 47q0 28 20 48t48 20t48 -20t20 -48q0 -30 -20 -49t-48 -19zM617 1154q-29 0 -48.5 21t-19.5 47q0 28 20 48t48 20t48 -20t20 -48q0 -30 -20 -49t-48 -19zM302 -20q-93 0 -143 47.5t-50 134.5q0 90 51.5 145t151.5 104l387 191
q-11 110 -68 154.5t-171 44.5q-125 0 -190 -45.5t-93 -123.5q-12 -36 -42 -32q-32 6 -20 43q70 207 355 207q47 0 85.5 -5.5t81 -24.5t70.5 -49.5t46.5 -85t17.5 -128.5l-1 -338q0 -103 22 -145t66 -42q89 0 90 147h45q0 -97 -40 -148t-110 -51q-76 0 -108 54.5t-34 172.5
q-89 -105 -192 -166t-207 -61zM316 32q199 0 383 246l1 273l-366 -185q-89 -45 -122.5 -91.5t-33.5 -105.5q0 -137 138 -137z" />
    <glyph glyph-name="aring" unicode="&#xe5;" horiz-adv-x="1022" 
d="M448 961q-75 0 -126.5 52t-51.5 128t51.5 128t126.5 52q74 0 127 -53t53 -127t-53 -127t-127 -53zM448 1006q57 0 96 38.5t39 96.5t-39 96.5t-96 38.5q-56 0 -94.5 -38.5t-38.5 -96.5t38.5 -96.5t94.5 -38.5zM302 -20q-93 0 -143 47.5t-50 134.5q0 90 51.5 145t151.5 104
l387 191q-11 110 -68 154.5t-171 44.5q-125 0 -190 -45.5t-93 -123.5q-12 -36 -42 -32q-32 6 -20 43q70 207 355 207q47 0 85.5 -5.5t81 -24.5t70.5 -49.5t46.5 -85t17.5 -128.5l-1 -338q0 -103 22 -145t66 -42q89 0 90 147h45q0 -97 -40 -148t-110 -51q-76 0 -108 54.5
t-34 172.5q-89 -105 -192 -166t-207 -61zM316 32q199 0 383 246l1 273l-366 -185q-89 -45 -122.5 -91.5t-33.5 -105.5q0 -137 138 -137z" />
    <glyph glyph-name="ae" unicode="&#xe6;" horiz-adv-x="1591" 
d="M1119 28q104 0 185.5 56t123.5 152l43 -21q-48 -109 -144 -173t-218 -64q-131 0 -232 73t-144 196q-124 -146 -219.5 -206.5t-211.5 -60.5q-93 0 -143 47.5t-50 134.5q0 90 51.5 145t151.5 104l387 191q-11 110 -68 154.5t-171 44.5q-125 0 -190 -45.5t-93 -123.5
q-12 -36 -42 -32q-32 6 -20 43q70 207 355 207q52 0 93.5 -7.5t84.5 -27.5t73 -62t42 -103q52 93 143 146.5t202 53.5q167 0 280.5 -116t118.5 -304h-729q0 -177 93 -289.5t248 -112.5zM1108 801q-133 0 -223 -91t-105 -232h658q-17 141 -106.5 232t-223.5 91zM699 278
l1 273l-366 -185q-89 -45 -122.5 -91.5t-33.5 -105.5q0 -137 139 -137q98 0 196 64.5t186 181.5z" />
    <glyph glyph-name="ccedilla" unicode="&#xe7;" horiz-adv-x="954" 
d="M510 -22h-17l-28 -138q39 0 65.5 -1t60 -5t55.5 -13.5t42 -23.5t30 -37t10 -54q0 -84 -85.5 -140.5t-219.5 -56.5q-93 0 -196 27l13 48q88 -25 178 -25q114 0 184 41t70 104q0 16 -4.5 28.5t-13.5 21t-21.5 15t-28 10t-33 6t-37.5 3t-41.5 1t-43.5 0.5h-44l38 194
q-156 23 -253 141.5t-97 289.5q0 189 120 312.5t301 123.5q112 0 204.5 -50t136.5 -141q7 -18 2 -31.5t-19 -16.5q-27 -4 -44 33q-43 75 -116.5 116.5t-165.5 41.5q-154 0 -250 -110t-96 -271q0 -174 98 -283t253 -109q112 0 195.5 58.5t124.5 157.5l44 -19
q-48 -115 -144.5 -181.5t-226.5 -66.5z" />
    <glyph glyph-name="egrave" unicode="&#xe8;" horiz-adv-x="981" 
d="M491 1030l-359 318v4h135l270 -322h-46zM499 -22q-175 0 -289.5 124t-114.5 314q0 188 114.5 311t288.5 123q167 0 280.5 -116t118.5 -304h-729q0 -177 93 -289.5t248 -112.5q104 0 185.5 56t124.5 152l42 -21q-48 -109 -144 -173t-218 -64zM170 478h658
q-17 141 -106.5 232t-223.5 91q-133 0 -223 -91t-105 -232z" />
    <glyph glyph-name="eacute" unicode="&#xe9;" horiz-adv-x="981" 
d="M491 1030h-46l270 322h135v-4zM499 -22q-175 0 -289.5 124t-114.5 314q0 188 114.5 311t288.5 123q167 0 280.5 -116t118.5 -304h-729q0 -177 93 -289.5t248 -112.5q104 0 185.5 56t124.5 152l42 -21q-48 -109 -144 -173t-218 -64zM170 478h658q-17 141 -106.5 232
t-223.5 91q-133 0 -223 -91t-105 -232z" />
    <glyph glyph-name="ecircumflex" unicode="&#xea;" horiz-adv-x="981" 
d="M136 1030l279 322h151l279 -322h-46l-308 276l-309 -276h-46zM499 -22q-175 0 -289.5 124t-114.5 314q0 188 114.5 311t288.5 123q167 0 280.5 -116t118.5 -304h-729q0 -177 93 -289.5t248 -112.5q104 0 185.5 56t124.5 152l42 -21q-48 -109 -144 -173t-218 -64zM170 478
h658q-17 141 -106.5 232t-223.5 91q-133 0 -223 -91t-105 -232z" />
    <glyph glyph-name="edieresis" unicode="&#xeb;" horiz-adv-x="981" 
d="M320 1154q-29 0 -48.5 21t-19.5 47q0 28 20 48t48 20t48 -20t20 -48q0 -30 -20 -49t-48 -19zM660 1154q-29 0 -48.5 21t-19.5 47q0 28 20 48t48 20t48 -20t20 -48q0 -30 -20 -49t-48 -19zM499 -22q-175 0 -289.5 124t-114.5 314q0 188 114.5 311t288.5 123
q167 0 280.5 -116t118.5 -304h-729q0 -177 93 -289.5t248 -112.5q104 0 185.5 56t124.5 152l42 -21q-48 -109 -144 -173t-218 -64zM170 478h658q-17 141 -106.5 232t-223.5 91q-133 0 -223 -91t-105 -232z" />
    <glyph glyph-name="igrave" unicode="&#xec;" horiz-adv-x="547" 
d="M277 1030l-359 318v4h135l270 -322h-46zM66 0v48h124q67 0 67 70v595q0 37 -19.5 54t-54.5 8l-117 -31l-11 48l273 67v-741q0 -70 66 -70h137v-48h-465z" />
    <glyph glyph-name="iacute" unicode="&#xed;" horiz-adv-x="547" 
d="M277 1030h-46l270 322h135v-4zM66 0v48h124q67 0 67 70v595q0 37 -19.5 54t-54.5 8l-117 -31l-11 48l273 67v-741q0 -70 66 -70h137v-48h-465z" />
    <glyph glyph-name="icircumflex" unicode="&#xee;" horiz-adv-x="547" 
d="M-78 1030l279 322h151l279 -322h-46l-308 276l-309 -276h-46zM66 0v48h124q67 0 67 70v595q0 37 -19.5 54t-54.5 8l-117 -31l-11 48l273 67v-741q0 -70 66 -70h137v-48h-465z" />
    <glyph glyph-name="idieresis" unicode="&#xef;" horiz-adv-x="547" 
d="M106 1154q-29 0 -48.5 21t-19.5 47q0 28 20 48t48 20t48 -20t20 -48q0 -30 -20 -49t-48 -19zM446 1154q-29 0 -48.5 21t-19.5 47q0 28 20 48t48 20t48 -20t20 -48q0 -30 -20 -49t-48 -19zM66 0v48h124q67 0 67 70v595q0 37 -19.5 54t-54.5 8l-117 -31l-11 48l273 67v-741
q0 -70 66 -70h137v-48h-465z" />
    <glyph glyph-name="eth" unicode="&#xf0;" horiz-adv-x="1042" 
d="M967 1219l-177 -63q129 -195 129 -596q0 -279 -112 -430t-316 -151q-171 0 -280.5 119t-109.5 314q0 208 108 319t295 111q262 0 341 -272q-1 181 -24 323t-86 244l-337 -119l-16 45l324 114q-125 156 -374 146l-3 49q288 0 431 -176l193 68zM492 27q300 0 347 406
q-24 175 -106 268t-221 93q-166 0 -252.5 -100.5t-86.5 -286.5q0 -172 86.5 -276t232.5 -104z" />
    <glyph glyph-name="ntilde" unicode="&#xf1;" horiz-adv-x="1186" 
d="M246 996q-1 113 48.5 178t137.5 65q39 0 73.5 -16t52.5 -32.5t45 -45.5q26 -30 40.5 -43.5t43.5 -27t63 -13.5q65 0 101.5 49t37.5 139h45q2 -113 -48.5 -181t-139.5 -68q-34 0 -61.5 7.5t-52.5 26t-36 29t-36 36.5q-24 28 -38.5 41.5t-40 26t-55.5 12.5q-64 0 -99 -48.5
t-36 -134.5h-45zM66 0v48h123q67 0 67 70v593q0 35 -19.5 52.5t-53.5 9.5l-117 -32l-10 49l271 68v-305q64 123 165 210t214 87q143 0 209 -75t66 -239v-418q0 -33 17 -51.5t49 -18.5h118v-48h-460v48h141q31 0 47.5 18.5t16.5 51.5v417q0 140 -49.5 200t-167.5 60
q-62 0 -123 -33.5t-107.5 -87.5t-81.5 -115.5t-54 -122.5v-318q0 -32 16.5 -51t46.5 -19h136v-48h-460z" />
    <glyph glyph-name="ograve" unicode="&#xf2;" horiz-adv-x="1025" 
d="M513 1030l-359 318v4h135l270 -322h-46zM512 -22q-42 0 -89 9.5t-107.5 39t-107 75t-79 127.5t-32.5 187q0 91 26 165.5t68.5 123.5t97.5 82.5t111 48t112 14.5q55 0 110.5 -14.5t111 -48t98 -82t69 -123.5t26.5 -166q0 -103 -31.5 -184t-77.5 -127t-105 -76.5
t-108 -40.5t-93 -10zM513 27q38 0 80 10.5t89.5 38t85 69.5t62 112.5t24.5 158.5q0 96 -30 172t-79.5 121t-109 68.5t-123.5 23.5q-63 0 -122.5 -23.5t-109.5 -69t-80 -121t-30 -170.5q0 -88 25 -159t62 -113t85 -69.5t90.5 -38t80.5 -10.5z" />
    <glyph glyph-name="oacute" unicode="&#xf3;" horiz-adv-x="1025" 
d="M513 1030h-46l270 322h135v-4zM512 -22q-42 0 -89 9.5t-107.5 39t-107 75t-79 127.5t-32.5 187q0 91 26 165.5t68.5 123.5t97.5 82.5t111 48t112 14.5q55 0 110.5 -14.5t111 -48t98 -82t69 -123.5t26.5 -166q0 -103 -31.5 -184t-77.5 -127t-105 -76.5t-108 -40.5t-93 -10
zM513 27q38 0 80 10.5t89.5 38t85 69.5t62 112.5t24.5 158.5q0 96 -30 172t-79.5 121t-109 68.5t-123.5 23.5q-63 0 -122.5 -23.5t-109.5 -69t-80 -121t-30 -170.5q0 -88 25 -159t62 -113t85 -69.5t90.5 -38t80.5 -10.5z" />
    <glyph glyph-name="ocircumflex" unicode="&#xf4;" horiz-adv-x="1025" 
d="M158 1030l279 322h151l279 -322h-46l-308 276l-309 -276h-46zM512 -22q-42 0 -89 9.5t-107.5 39t-107 75t-79 127.5t-32.5 187q0 91 26 165.5t68.5 123.5t97.5 82.5t111 48t112 14.5q55 0 110.5 -14.5t111 -48t98 -82t69 -123.5t26.5 -166q0 -103 -31.5 -184t-77.5 -127
t-105 -76.5t-108 -40.5t-93 -10zM513 27q38 0 80 10.5t89.5 38t85 69.5t62 112.5t24.5 158.5q0 96 -30 172t-79.5 121t-109 68.5t-123.5 23.5q-63 0 -122.5 -23.5t-109.5 -69t-80 -121t-30 -170.5q0 -88 25 -159t62 -113t85 -69.5t90.5 -38t80.5 -10.5z" />
    <glyph glyph-name="otilde" unicode="&#xf5;" horiz-adv-x="1025" 
d="M169 996q-1 113 48.5 178t137.5 65q39 0 73.5 -16t52.5 -32.5t45 -45.5q26 -30 40.5 -43.5t43.5 -27t63 -13.5q65 0 101.5 49t37.5 139h45q2 -113 -48.5 -181t-139.5 -68q-34 0 -61.5 7.5t-52.5 26t-36 29t-36 36.5q-24 28 -38.5 41.5t-40 26t-55.5 12.5q-64 0 -99 -48.5
t-36 -134.5h-45zM512 -22q-42 0 -89 9.5t-107.5 39t-107 75t-79 127.5t-32.5 187q0 91 26 165.5t68.5 123.5t97.5 82.5t111 48t112 14.5q55 0 110.5 -14.5t111 -48t98 -82t69 -123.5t26.5 -166q0 -103 -31.5 -184t-77.5 -127t-105 -76.5t-108 -40.5t-93 -10zM513 27
q38 0 80 10.5t89.5 38t85 69.5t62 112.5t24.5 158.5q0 96 -30 172t-79.5 121t-109 68.5t-123.5 23.5q-63 0 -122.5 -23.5t-109.5 -69t-80 -121t-30 -170.5q0 -88 25 -159t62 -113t85 -69.5t90.5 -38t80.5 -10.5z" />
    <glyph glyph-name="odieresis" unicode="&#xf6;" horiz-adv-x="1025" 
d="M342 1154q-29 0 -48.5 21t-19.5 47q0 28 20 48t48 20t48 -20t20 -48q0 -30 -20 -49t-48 -19zM682 1154q-29 0 -48.5 21t-19.5 47q0 28 20 48t48 20t48 -20t20 -48q0 -30 -20 -49t-48 -19zM512 -22q-42 0 -89 9.5t-107.5 39t-107 75t-79 127.5t-32.5 187q0 91 26 165.5
t68.5 123.5t97.5 82.5t111 48t112 14.5q55 0 110.5 -14.5t111 -48t98 -82t69 -123.5t26.5 -166q0 -103 -31.5 -184t-77.5 -127t-105 -76.5t-108 -40.5t-93 -10zM513 27q38 0 80 10.5t89.5 38t85 69.5t62 112.5t24.5 158.5q0 96 -30 172t-79.5 121t-109 68.5t-123.5 23.5
q-63 0 -122.5 -23.5t-109.5 -69t-80 -121t-30 -170.5q0 -88 25 -159t62 -113t85 -69.5t90.5 -38t80.5 -10.5z" />
    <glyph glyph-name="divide" unicode="&#xf7;" horiz-adv-x="1334" 
d="M659 1011q-36 0 -60.5 24.5t-24.5 60.5q0 34 24.5 59t60.5 25q34 0 59.5 -25t25.5 -59q0 -35 -25.5 -60t-59.5 -25zM104 646v59h1110v-59h-1110zM659 171q-36 0 -60.5 24.5t-24.5 60.5q0 35 24.5 60t60.5 25q34 0 59.5 -25.5t25.5 -59.5q0 -35 -25.5 -60t-59.5 -25z" />
    <glyph glyph-name="oslash" unicode="&#xf8;" horiz-adv-x="1025" 
d="M930 853l-114 -131q111 -116 111 -306q0 -103 -31.5 -184t-77.5 -127t-105 -76.5t-108 -40.5t-93 -10q-58 0 -131 21t-135 70l-113 -129l-38 34l113 129q-111 116 -111 313q0 91 26 165.5t68.5 123.5t97.5 82.5t111 48t112 14.5q151 0 267 -93l114 130zM170 417
q0 -161 81 -264l489 559q-93 89 -228 89q-63 0 -122.5 -23.5t-109.5 -69t-80 -121t-30 -170.5zM854 416q0 157 -79 259l-489 -559q51 -46 112.5 -67.5t114.5 -21.5q38 0 80 10.5t89.5 38t85 69.5t62 112.5t24.5 158.5z" />
    <glyph glyph-name="ugrave" unicode="&#xf9;" horiz-adv-x="1152" 
d="M575 1030l-359 318v4h135l270 -322h-46zM480 -22q-143 0 -209 75t-66 239v418q0 70 -66 70h-117v48h254v-535q0 -140 49.5 -200t167.5 -60q62 0 123 33.5t107.5 87.5t81.5 115t54 122v319q0 32 -16 51t-47 19h-136v48h270v-708q0 -36 19.5 -53.5t53.5 -8.5l117 31l11 -48
l-272 -62v296q-64 -123 -165 -210t-214 -87z" />
    <glyph glyph-name="uacute" unicode="&#xfa;" horiz-adv-x="1152" 
d="M575 1030h-46l270 322h135v-4zM480 -22q-143 0 -209 75t-66 239v418q0 70 -66 70h-117v48h254v-535q0 -140 49.5 -200t167.5 -60q62 0 123 33.5t107.5 87.5t81.5 115t54 122v319q0 32 -16 51t-47 19h-136v48h270v-708q0 -36 19.5 -53.5t53.5 -8.5l117 31l11 -48l-272 -62
v296q-64 -123 -165 -210t-214 -87z" />
    <glyph glyph-name="ucircumflex" unicode="&#xfb;" horiz-adv-x="1152" 
d="M220 1030l279 322h151l279 -322h-46l-308 276l-309 -276h-46zM480 -22q-143 0 -209 75t-66 239v418q0 70 -66 70h-117v48h254v-535q0 -140 49.5 -200t167.5 -60q62 0 123 33.5t107.5 87.5t81.5 115t54 122v319q0 32 -16 51t-47 19h-136v48h270v-708q0 -36 19.5 -53.5
t53.5 -8.5l117 31l11 -48l-272 -62v296q-64 -123 -165 -210t-214 -87z" />
    <glyph glyph-name="udieresis" unicode="&#xfc;" horiz-adv-x="1152" 
d="M404 1154q-29 0 -48.5 21t-19.5 47q0 28 20 48t48 20t48 -20t20 -48q0 -30 -20 -49t-48 -19zM744 1154q-29 0 -48.5 21t-19.5 47q0 28 20 48t48 20t48 -20t20 -48q0 -30 -20 -49t-48 -19zM480 -22q-143 0 -209 75t-66 239v418q0 70 -66 70h-117v48h254v-535
q0 -140 49.5 -200t167.5 -60q62 0 123 33.5t107.5 87.5t81.5 115t54 122v319q0 32 -16 51t-47 19h-136v48h270v-708q0 -36 19.5 -53.5t53.5 -8.5l117 31l11 -48l-272 -62v296q-64 -123 -165 -210t-214 -87z" />
    <glyph glyph-name="yacute" unicode="&#xfd;" horiz-adv-x="1077" 
d="M540 1030h-46l270 322h135v-4zM210 -441q-42 -6 -45 27q-1 14 10 23t28 13q101 21 177.5 86t144.5 205l40 87l-418 727q-30 53 -79 53h-63v48h375v-48h-98q-38 0 -49 -23t9 -56l360 -625l293 620q18 37 7 60.5t-49 23.5h-116v48h333v-48h-30q-54 0 -81 -61l-392 -830
q-74 -158 -158.5 -232.5t-198.5 -97.5z" />
    <glyph glyph-name="thorn" unicode="&#xfe;" horiz-adv-x="1056" 
d="M-13 -489v49h124q66 0 66 70v1606q0 37 -19.5 54t-55.5 9l-115 -32l-11 48l271 67v-658q128 126 302 126q172 0 295 -126.5t123 -308.5q0 -120 -57 -221t-153.5 -158.5t-209.5 -57.5q-85 0 -163 33.5t-136 91.5v-473q0 -70 68 -70h137v-49h-466zM535 31q100 0 183.5 53.5
t130 141t46.5 187.5q0 158 -104.5 271t-254.5 113q-85 0 -160.5 -38t-127.5 -105v-482q52 -67 128 -104t159 -37z" />
    <glyph glyph-name="ydieresis" unicode="&#xff;" horiz-adv-x="1077" 
d="M369 1154q-29 0 -48.5 21t-19.5 47q0 28 20 48t48 20t48 -20t20 -48q0 -30 -20 -49t-48 -19zM709 1154q-29 0 -48.5 21t-19.5 47q0 28 20 48t48 20t48 -20t20 -48q0 -30 -20 -49t-48 -19zM210 -441q-42 -6 -45 27q-1 14 10 23t28 13q101 21 177.5 86t144.5 205l40 87
l-418 727q-30 53 -79 53h-63v48h375v-48h-98q-38 0 -49 -23t9 -56l360 -625l293 620q18 37 7 60.5t-49 23.5h-116v48h333v-48h-30q-54 0 -81 -61l-392 -830q-74 -158 -158.5 -232.5t-198.5 -97.5z" />
    <glyph glyph-name="dotlessi" unicode="&#x131;" horiz-adv-x="547" 
d="M66 0v48h124q67 0 67 70v595q0 37 -19.5 54t-54.5 8l-117 -31l-11 48l273 67v-741q0 -70 66 -70h137v-48h-465z" />
    <glyph glyph-name="Lslash" unicode="&#x141;" horiz-adv-x="1330" 
d="M1197 449l48 -4l-41 -445h-1138v48h194q71 0 71 73v408l-251 -193v65l251 193v637q0 72 -71 72h-194v49h605v-49h-194q-72 0 -72 -72v-580l473 363v-65l-473 -363v-462q0 -75 72 -75h590q82 0 98 81z" />
    <glyph glyph-name="lslash" unicode="&#x142;" horiz-adv-x="499" 
d="M571 913l-287 -220v-575q0 -32 16 -51t46 -19h138v-48h-461v48h124q66 0 66 70v521l-285 -219v63l285 219v535q0 37 -19 54t-54 9l-117 -32l-11 48l272 67v-627l287 220v-63z" />
    <glyph glyph-name="OE" unicode="&#x152;" horiz-adv-x="2339" 
d="M829 0q-324 0 -520.5 183.5t-196.5 493.5q0 306 197 489.5t520 184.5l1295 1l22 -349l-48 -3l-17 235q-6 36 -25.5 51.5t-55.5 15.5h-661q-29 -1 -44.5 -20t-15.5 -51v-496h487q71 0 71 65v134h49v-461h-49v146q0 66 -70 66h-488v-560q0 -76 70 -76h688q77 0 88 68
l37 331l48 -4l-41 -444h-1340zM818 49h323q64 0 64 74v1108q0 72 -63 72h-319q-184 0 -326.5 -75t-224 -218t-81.5 -333q0 -280 171.5 -454t455.5 -174z" />
    <glyph glyph-name="oe" unicode="&#x153;" horiz-adv-x="1747" 
d="M1276 28q104 0 185.5 56t124.5 152l43 -21q-49 -109 -145 -173t-217 -64q-128 0 -226.5 68.5t-144.5 185.5q-27 -72 -76.5 -125t-106.5 -79.5t-107 -38t-94 -11.5q-42 0 -89 9.5t-107.5 39t-107 75t-79 127.5t-32.5 187q0 91 26 165.5t68.5 123.5t97.5 82.5t111 48
t112 14.5q54 0 108.5 -14.5t107.5 -43.5t97.5 -80t70.5 -116q45 117 143.5 185.5t225.5 68.5q167 0 281 -116t119 -304h-729q0 -177 93 -289.5t247 -112.5zM513 27q38 0 80 10.5t89.5 38t85 69.5t62 112.5t24.5 158.5q0 96 -30 172t-79.5 121t-109 68.5t-123.5 23.5
q-63 0 -122.5 -23.5t-109.5 -69t-80 -121t-30 -170.5q0 -88 25 -159t62 -113t85 -69.5t90.5 -38t80.5 -10.5zM1265 801q-133 0 -222.5 -91t-104.5 -232h657q-17 141 -106.5 232t-223.5 91z" />
    <glyph glyph-name="Scaron" unicode="&#x160;" horiz-adv-x="1179" 
d="M518 1456l-278 322h45l309 -276l309 276h46l-279 -322h-152zM660 -21q-162 0 -281 69.5t-175 198.5l-3 -226h-50v465h50q2 -210 123 -333.5t332 -123.5q40 0 83 10t88 34t79.5 59t57 90t22.5 122q0 45 -11.5 83t-28 66t-47.5 53t-58 41.5t-72.5 34.5t-77.5 28.5t-85 26.5
q-48 15 -72.5 23t-68 24t-67 27.5t-58.5 30.5t-54.5 37t-42.5 44t-35 53.5t-20 62.5t-8 75q0 139 104.5 230t262.5 91q119 0 220 -61.5t155 -163.5l4 202h49v-396h-49q-4 157 -114 263t-262 106q-136 0 -220.5 -73t-84.5 -184q0 -37 7 -68.5t24 -57.5t34 -46t49 -39
t55 -31.5t66 -28t70 -24t77 -23.5q44 -14 70 -22t67 -23.5t66.5 -28t59.5 -32t55 -39t44 -46.5t35.5 -56.5t21 -67t8.5 -79.5q0 -80 -27.5 -145.5t-69.5 -107.5t-96 -71t-104.5 -41t-96.5 -12z" />
    <glyph glyph-name="scaron" unicode="&#x161;" horiz-adv-x="1009" 
d="M581 1030h-152l-278 322h45l309 -276l309 276h46zM507 482q56 -6 96.5 -12t90.5 -18t83.5 -29.5t64 -42.5t45.5 -62t15 -84q0 -123 -101.5 -189.5t-263.5 -66.5q-123 0 -215.5 38t-138.5 102l-15 -140h-37l-1 253h49q26 -94 122 -149t239 -55q135 0 218 51t83 146
q0 31 -10.5 56.5t-26.5 43.5t-43.5 32t-52.5 22.5t-64.5 16t-68 11t-72.5 7.5q-39 4 -62 6.5t-59 8t-58 11t-51.5 14.5t-47.5 19.5t-38 26t-31 34t-18 42.5t-7 52q0 108 89.5 165.5t244.5 57.5q231 0 323 -127l13 127h36l1 -249h-43q-21 95 -106 147.5t-227 52.5
q-126 0 -198.5 -41.5t-72.5 -120.5q0 -26 9 -46.5t22 -35t39 -26t47 -18.5t60 -13.5t65 -9.5t74 -8z" />
    <glyph glyph-name="Wcircumflex" unicode="&#x174;" horiz-adv-x="2059" 
d="M671 1470l276 322h157l276 -322h-46l-308 276l-309 -276h-46zM575 -21l-376 1257q-10 36 -29 51.5t-50 15.5h-86v49h547v-49h-248q-37 0 -50.5 -22t-2.5 -59l347 -1168h36l343 1316h100l363 -1316h34l313 1156q10 41 -3 67t-52 26h-172v49h436v-49h-72q-58 0 -80 -79
l-339 -1245h-118l-364 1319l-15 1l-345 -1320h-117z" />
    <glyph glyph-name="wcircumflex" unicode="&#x175;" horiz-adv-x="1636" 
d="M818 1306l-309 -276h-46l279 322h151l279 -322h-46zM1287 828h342v-48h-70q-54 0 -75 -59l-283 -741h-88l-276 801l-289 -801h-86l-269 741q-22 59 -77 59h-108v48h438v-48h-125q-75 0 -50 -75l241 -665h8l291 806h75l278 -807h9l251 658q30 83 -50 83h-87v48z" />
    <glyph glyph-name="Ycircumflex" unicode="&#x176;" horiz-adv-x="1448" 
d="M373 1470l276 322h157l276 -322h-46l-308 276l-309 -276h-46zM427 0v48h222q71 0 71 73v330l-492 797q-33 55 -85 55h-109v49h494v-49h-158q-41 0 -51.5 -24.5t11.5 -58.5l441 -712l439 706q23 38 11.5 63.5t-54.5 25.5h-130v49h377v-49h-40q-53 0 -85 -56l-495 -794
v-332q0 -73 71 -73h222v-48h-660z" />
    <glyph glyph-name="ycircumflex" unicode="&#x177;" horiz-adv-x="1077" 
d="M185 1030l279 322h151l279 -322h-46l-308 276l-309 -276h-46zM210 -441q-42 -6 -45 27q-1 14 10 23t28 13q101 21 177.5 86t144.5 205l40 87l-418 727q-30 53 -79 53h-63v48h375v-48h-98q-38 0 -49 -23t9 -56l360 -625l293 620q18 37 7 60.5t-49 23.5h-116v48h333v-48
h-30q-54 0 -81 -61l-392 -830q-74 -158 -158.5 -232.5t-198.5 -97.5z" />
    <glyph glyph-name="Ydieresis" unicode="&#x178;" horiz-adv-x="1448" 
d="M557 1538q-29 0 -48.5 21t-19.5 47q0 28 20 48t48 20t48 -20t20 -48q0 -30 -20 -49t-48 -19zM897 1538q-29 0 -48.5 21t-19.5 47q0 28 20 48t48 20t48 -20t20 -48q0 -30 -20 -49t-48 -19zM427 0v48h222q71 0 71 73v330l-492 797q-33 55 -85 55h-109v49h494v-49h-158
q-41 0 -51.5 -24.5t11.5 -58.5l441 -712l439 706q23 38 11.5 63.5t-54.5 25.5h-130v49h377v-49h-40q-53 0 -85 -56l-495 -794v-332q0 -73 71 -73h222v-48h-660z" />
    <glyph glyph-name="Zcaron" unicode="&#x17d;" horiz-adv-x="1412" 
d="M615 1456l-278 322h45l309 -276l309 276h46l-279 -322h-152zM108 0v95l1067 1207l7 17h-893q-85 0 -98 -71l-31 -242l-49 4l43 358h1096v-90l-1069 -1207l-7 -22h952q81 0 96 73l35 322l48 -4l-43 -440h-1154z" />
    <glyph glyph-name="zcaron" unicode="&#x17e;" horiz-adv-x="957" 
d="M404 1030l-278 322h45l309 -276l309 276h46l-279 -322h-152zM88 0v79l685 690l2 11h-521q-29 0 -46.5 -15t-24.5 -49l-22 -148l-48 4l33 256h703v-77l-685 -690l-3 -13h553q60 0 73 65l20 154l48 -4l-29 -263h-738z" />
    <glyph glyph-name="florin" unicode="&#x192;" horiz-adv-x="1132" 
d="M232 -453q-61 0 -95 30t-39 83q-2 24 2.5 40.5t11.5 22t15 4.5q21 -1 28 -63q7 -42 26.5 -58t57.5 -16q54 0 83 43t58 159q74 308 111 498l97 502h-212l2 50h101q81 0 108 27.5t41 102.5q8 44 14.5 74.5t18.5 76t24.5 76.5t32.5 66t42.5 56.5t54 35.5t68.5 14
q50 0 86.5 -23.5t50.5 -65.5q9 -32 2.5 -51.5t-21.5 -19.5q-6 0 -10.5 3.5t-8.5 10.5t-6.5 12.5t-6.5 16t-5 14.5q-12 30 -29.5 45.5t-50.5 15.5q-85 0 -133 -101q-41 -80 -68 -274q-1 -7 -6.5 -44.5t-11.5 -67.5h271l-3 -50h-278l-99 -507q-69 -356 -125 -529
q-32 -111 -78.5 -160t-120.5 -49z" />
    <glyph glyph-name="oslashacute" unicode="&#x1ff;" horiz-adv-x="1025" 
d="M872 1348l-359 -318h-46l270 322h135v-4zM930 853l-114 -131q111 -116 111 -306q0 -103 -31.5 -184t-77.5 -127t-105 -76.5t-108 -40.5t-93 -10q-58 0 -131 21t-135 70l-113 -129l-38 34l113 129q-111 116 -111 313q0 91 26 165.5t68.5 123.5t97.5 82.5t111 48t112 14.5
q151 0 267 -93l114 130zM170 417q0 -161 81 -264l489 559q-93 89 -228 89q-63 0 -122.5 -23.5t-109.5 -69t-80 -121t-30 -170.5zM854 416q0 157 -79 259l-489 -559q51 -46 112.5 -67.5t114.5 -21.5q38 0 80 10.5t89.5 38t85 69.5t62 112.5t24.5 158.5z" />
    <glyph glyph-name="uni0237" unicode="&#x237;" horiz-adv-x="464" 
d="M-14 -498q-111 0 -181.5 57.5t-89.5 163.5q-6 39 27 43q27 3 35 -36q17 -87 72 -133t144 -46q110 0 167.5 70t57.5 197v894q0 37 -19.5 54.5t-56.5 8.5l-117 -32l-11 49l275 67v-1024q0 -161 -77.5 -247t-225.5 -86z" />
    <glyph glyph-name="circumflex" unicode="&#x2c6;" horiz-adv-x="811" 
d="M51 1030l279 322h151l279 -322h-46l-308 276l-309 -276h-46z" />
    <glyph glyph-name="caron" unicode="&#x2c7;" horiz-adv-x="818" 
d="M333 1030l-278 322h45l309 -276l309 276h46l-279 -322h-152z" />
    <glyph glyph-name="breve" unicode="&#x2d8;" horiz-adv-x="1174" 
d="M397 1017q-113 0 -188 56.5t-105 155.5h48q58 -157 245 -157q177 0 237 157h46q-6 -23 -14.5 -44t-30.5 -53.5t-51 -56t-78 -41t-109 -17.5z" />
    <glyph glyph-name="dotaccent" unicode="&#x2d9;" horiz-adv-x="426" 
d="M213 1146q-29 0 -48.5 21t-19.5 47q0 28 20 48t48 20t48 -20t20 -48q0 -30 -20 -49t-48 -19z" />
    <glyph glyph-name="ring" unicode="&#x2da;" horiz-adv-x="494" 
d="M247 981q-81 0 -139 57.5t-58 139.5q0 81 58 137.5t139 56.5q82 0 139.5 -56.5t57.5 -137.5q0 -82 -57.5 -139.5t-139.5 -57.5zM247 1059q49 0 84 34.5t35 84.5q0 49 -35 83.5t-84 34.5t-83 -34.5t-34 -83.5q0 -50 34 -84.5t83 -34.5z" />
    <glyph glyph-name="ogonek" unicode="&#x2db;" horiz-adv-x="1154" 
d="M369 -360q-108 0 -177 71t-69 162q0 86 67 151l26 -24q-47 -43 -47 -108q0 -79 61.5 -143t147.5 -64q80 0 152 56l24 -32q-83 -69 -185 -69z" />
    <glyph glyph-name="tilde" unicode="&#x2dc;" horiz-adv-x="949" 
d="M130 996q-1 113 48.5 178t137.5 65q39 0 73.5 -16t52.5 -32.5t45 -45.5q26 -30 40.5 -43.5t43.5 -27t63 -13.5q65 0 101.5 49t37.5 139h45q2 -113 -48.5 -181t-139.5 -68q-34 0 -61.5 7.5t-52.5 26t-36 29t-36 36.5q-24 28 -38.5 41.5t-40 26t-55.5 12.5q-64 0 -99 -48.5
t-36 -134.5h-45z" />
    <glyph glyph-name="hungarumlaut" unicode="&#x2dd;" horiz-adv-x="849" 
d="M51 1030l270 322h134v-4l-358 -318h-46zM403 1030l270 322h135v-4l-359 -318h-46z" />
    <glyph glyph-name="gravecomb" unicode="&#x300;" 
d="M-97 1030l-359 318v4h135l270 -322h-46z" />
    <glyph glyph-name="acutecomb" unicode="&#x301;" 
d="M-394 1030h-46l270 322h135v-4z" />
    <glyph glyph-name="uni0302" unicode="&#x302;" 
d="M-760 1030l279 322h151l279 -322h-46l-308 276l-309 -276h-46z" />
    <glyph glyph-name="tildecomb" unicode="&#x303;" 
d="M-819 996q-1 113 48.5 178t137.5 65q39 0 73.5 -16t52.5 -32.5t45 -45.5q26 -30 40.5 -43.5t43.5 -27t63 -13.5q65 0 101.5 49t37.5 139h45q2 -113 -48.5 -181t-139.5 -68q-34 0 -61.5 7.5t-52.5 26t-36 29t-36 36.5q-24 28 -38.5 41.5t-40 26t-55.5 12.5
q-64 0 -99 -48.5t-36 -134.5h-45z" />
    <glyph glyph-name="uni0304" unicode="&#x304;" 
d="M-890 1140v61h725v-61h-725z" />
    <glyph glyph-name="uni0306" unicode="&#x306;" 
d="M-389 1017q-113 0 -188 56.5t-105 155.5h48q58 -157 245 -157q177 0 237 157h46q-6 -23 -14.5 -44t-30.5 -53.5t-51 -56t-78 -41t-109 -17.5z" />
    <glyph glyph-name="uni0307" unicode="&#x307;" 
d="M-213 1146q-29 0 -48.5 21t-19.5 47q0 28 20 48t48 20t48 -20t20 -48q0 -30 -20 -49t-48 -19z" />
    <glyph glyph-name="uni0308" unicode="&#x308;" 
d="M-553 1154q-29 0 -48.5 21t-19.5 47q0 28 20 48t48 20t48 -20t20 -48q0 -30 -20 -49t-48 -19zM-213 1154q-29 0 -48.5 21t-19.5 47q0 28 20 48t48 20t48 -20t20 -48q0 -30 -20 -49t-48 -19z" />
    <glyph glyph-name="uni030A" unicode="&#x30a;" 
d="M-304 961q-75 0 -126.5 52t-51.5 128t51.5 128t126.5 52q74 0 127 -53t53 -127t-53 -127t-127 -53zM-304 1006q57 0 96 38.5t39 96.5t-39 96.5t-96 38.5q-56 0 -94.5 -38.5t-38.5 -96.5t38.5 -96.5t94.5 -38.5z" />
    <glyph glyph-name="uni030B" unicode="&#x30b;" 
d="M-797 1030l270 322h134v-4l-358 -318h-46zM-445 1030l270 322h135v-4l-359 -318h-46z" />
    <glyph glyph-name="uni030C" unicode="&#x30c;" 
d="M-485 1030l-278 322h45l309 -276l309 276h46l-279 -322h-152z" />
    <glyph glyph-name="uni0327" unicode="&#x327;" 
d="M-379 -491q-93 0 -196 27l13 48q88 -25 178 -25q114 0 184 41t70 104q0 16 -4.5 28.5t-13.5 21t-21.5 15t-28 10t-33 6t-37.5 3t-41.5 1t-43.5 0.5h-44l45 230l50 -8l-35 -171q39 0 65.5 -1t60 -5t55.5 -13.5t42 -23.5t30 -37t10 -54q0 -84 -85.5 -140.5t-219.5 -56.5z
" />
    <glyph glyph-name="uni0328" unicode="&#x328;" 
d="M-238 -360q-108 0 -177 71t-69 162q0 86 67 151l26 -24q-47 -43 -47 -108q0 -79 61.5 -143t147.5 -64q80 0 152 56l24 -32q-83 -69 -185 -69z" />
    <glyph glyph-name="uni0337" unicode="&#x337;" 
d="M-665 467v63l643 493v-63z" />
    <glyph glyph-name="uni0338" unicode="&#x338;" 
d="M-799 -27l-38 34l798 913l37 -34z" />
    <glyph glyph-name="uni0394" unicode="&#x394;" horiz-adv-x="1016" 
d="M124 0l308 1418h153l306 -1418h-767zM185 48h626l-282 1305h-59z" />
    <glyph glyph-name="uni03A9" unicode="&#x3a9;" horiz-adv-x="1471" 
d="M163 0v253h44v-124q0 -33 18 -52t53 -19h340v210q-387 187 -387 587q0 264 132.5 412t372.5 148q239 0 371.5 -149t132.5 -410q0 -405 -385 -586v-212h339q34 0 52 19t18 51v125h45v-253h-504v300q359 172 359 555q0 251 -111 382.5t-317 131.5q-209 0 -320 -133.5
t-111 -380.5q0 -388 362 -556v-299h-504z" />
    <glyph glyph-name="Wgrave" unicode="&#x1e80;" horiz-adv-x="2059" 
d="M1003 1438l-359 317v4h135l270 -321h-46zM575 -21l-376 1257q-10 36 -29 51.5t-50 15.5h-86v49h547v-49h-248q-37 0 -50.5 -22t-2.5 -59l347 -1168h36l343 1316h100l363 -1316h34l313 1156q10 41 -3 67t-52 26h-172v49h436v-49h-72q-58 0 -80 -79l-339 -1245h-118
l-364 1319l-15 1l-345 -1320h-117z" />
    <glyph glyph-name="wgrave" unicode="&#x1e81;" horiz-adv-x="1636" 
d="M864 1030h-46l-359 318v4h135zM1287 828h342v-48h-70q-54 0 -75 -59l-283 -741h-88l-276 801l-289 -801h-86l-269 741q-22 59 -77 59h-108v48h438v-48h-125q-75 0 -50 -75l241 -665h8l291 806h75l278 -807h9l251 658q30 83 -50 83h-87v48z" />
    <glyph glyph-name="Wacute" unicode="&#x1e82;" horiz-adv-x="2059" 
d="M1003 1438l270 321h134v-4l-358 -317h-46zM575 -21l-376 1257q-10 36 -29 51.5t-50 15.5h-86v49h547v-49h-248q-37 0 -50.5 -22t-2.5 -59l347 -1168h36l343 1316h100l363 -1316h34l313 1156q10 41 -3 67t-52 26h-172v49h436v-49h-72q-58 0 -80 -79l-339 -1245h-118
l-364 1319l-15 1l-345 -1320h-117z" />
    <glyph glyph-name="wacute" unicode="&#x1e83;" horiz-adv-x="1636" 
d="M1177 1348l-359 -318h-46l270 322h135v-4zM1287 828h342v-48h-70q-54 0 -75 -59l-283 -741h-88l-276 801l-289 -801h-86l-269 741q-22 59 -77 59h-108v48h438v-48h-125q-75 0 -50 -75l241 -665h8l291 806h75l278 -807h9l251 658q30 83 -50 83h-87v48z" />
    <glyph glyph-name="Wdieresis" unicode="&#x1e84;" horiz-adv-x="2059" 
d="M855 1538q-29 0 -48.5 21t-19.5 47q0 28 20 48t48 20t48 -20t20 -48q0 -30 -20 -49t-48 -19zM1195 1538q-29 0 -48.5 21t-19.5 47q0 28 20 48t48 20t48 -20t20 -48q0 -30 -20 -49t-48 -19zM575 -21l-376 1257q-10 36 -29 51.5t-50 15.5h-86v49h547v-49h-248
q-37 0 -50.5 -22t-2.5 -59l347 -1168h36l343 1316h100l363 -1316h34l313 1156q10 41 -3 67t-52 26h-172v49h436v-49h-72q-58 0 -80 -79l-339 -1245h-118l-364 1319l-15 1l-345 -1320h-117z" />
    <glyph glyph-name="wdieresis" unicode="&#x1e85;" horiz-adv-x="1636" 
d="M647 1154q-29 0 -48.5 21t-19.5 47q0 28 20 48t48 20t48 -20t20 -48q0 -30 -20 -49t-48 -19zM987 1154q-29 0 -48.5 21t-19.5 47q0 28 20 48t48 20t48 -20t20 -48q0 -30 -20 -49t-48 -19zM1287 828h342v-48h-70q-54 0 -75 -59l-283 -741h-88l-276 801l-289 -801h-86
l-269 741q-22 59 -77 59h-108v48h438v-48h-125q-75 0 -50 -75l241 -665h8l291 806h75l278 -807h9l251 658q30 83 -50 83h-87v48z" />
    <glyph glyph-name="Ygrave" unicode="&#x1ef2;" horiz-adv-x="1448" 
d="M705 1438l-359 317v4h135l270 -321h-46zM427 0v48h222q71 0 71 73v330l-492 797q-33 55 -85 55h-109v49h494v-49h-158q-41 0 -51.5 -24.5t11.5 -58.5l441 -712l439 706q23 38 11.5 63.5t-54.5 25.5h-130v49h377v-49h-40q-53 0 -85 -56l-495 -794v-332q0 -73 71 -73h222
v-48h-660z" />
    <glyph glyph-name="ygrave" unicode="&#x1ef3;" horiz-adv-x="1077" 
d="M540 1030l-359 318v4h135l270 -322h-46zM210 -441q-42 -6 -45 27q-1 14 10 23t28 13q101 21 177.5 86t144.5 205l40 87l-418 727q-30 53 -79 53h-63v48h375v-48h-98q-38 0 -49 -23t9 -56l360 -625l293 620q18 37 7 60.5t-49 23.5h-116v48h333v-48h-30q-54 0 -81 -61
l-392 -830q-74 -158 -158.5 -232.5t-198.5 -97.5z" />
    <glyph glyph-name="endash" unicode="&#x2013;" horiz-adv-x="1377" 
d="M164 378v56h1049v-56h-1049z" />
    <glyph glyph-name="emdash" unicode="&#x2014;" horiz-adv-x="2376" 
d="M164 378v56h2048v-56h-2048z" />
    <glyph glyph-name="quoteleft" unicode="&#x2018;" horiz-adv-x="533" 
d="M263 898q-56 0 -86 41.5t-30 107.5q0 106 66.5 202.5t170.5 130.5l14 -45q-62 -21 -107.5 -65.5t-64 -86.5t-18.5 -75q0 -18 7 -26.5t19 -4.5q15 5 33 5q36 0 62.5 -26.5t26.5 -64.5t-26.5 -65.5t-66.5 -27.5z" />
    <glyph glyph-name="quoteright" unicode="&#x2019;" horiz-adv-x="535" 
d="M149 898l-14 46q62 21 107.5 65.5t64 86t18.5 74.5q0 18 -7 26.5t-20 4.5q-18 -5 -32 -5q-36 0 -62.5 26.5t-26.5 64.5t26.5 65.5t66.5 27.5q56 0 86 -41t30 -108q0 -105 -66.5 -202t-170.5 -131z" />
    <glyph glyph-name="quotesinglbase" unicode="&#x201a;" horiz-adv-x="535" 
d="M149 -331l-14 45q62 21 107.5 65.5t64 86.5t18.5 75q0 18 -7 26.5t-20 4.5q-14 -5 -32 -5q-36 0 -62.5 26.5t-26.5 64.5t26.5 65.5t66.5 27.5q56 0 86 -41.5t30 -107.5q0 -106 -66.5 -202.5t-170.5 -130.5z" />
    <glyph glyph-name="quotedblleft" unicode="&#x201c;" horiz-adv-x="899" 
d="M263 898q-56 0 -86 41.5t-30 107.5q0 106 66 202.5t170 130.5l14 -45q-90 -31 -139.5 -101.5t-49.5 -125.5q0 -18 7 -26.5t19 -4.5q15 5 32 5q36 0 62.5 -26.5t26.5 -64.5t-26 -65.5t-66 -27.5zM629 898q-56 0 -86 41.5t-30 107.5q0 106 66.5 202.5t169.5 130.5l15 -45
q-62 -21 -107.5 -65.5t-64 -86.5t-18.5 -75q0 -18 7 -26.5t20 -4.5q15 5 32 5q36 0 62.5 -26.5t26.5 -64.5t-26.5 -65.5t-66.5 -27.5z" />
    <glyph glyph-name="quotedblright" unicode="&#x201d;" horiz-adv-x="901" 
d="M149 898l-14 46q62 21 107 65.5t63.5 86t18.5 74.5q0 18 -7 26.5t-19 4.5q-20 -5 -33 -5q-35 0 -62 26.5t-27 64.5t26.5 65.5t66.5 27.5q56 0 86 -41t30 -108q0 -105 -66.5 -202t-169.5 -131zM516 898l-15 46q62 21 107.5 65.5t64 86t18.5 74.5q0 18 -7 26.5t-20 4.5
q-18 -5 -32 -5q-36 0 -62.5 26.5t-26.5 64.5t26.5 65.5t66.5 27.5q56 0 86 -41t30 -108q0 -105 -66.5 -202t-169.5 -131z" />
    <glyph glyph-name="quotedblbase" unicode="&#x201e;" horiz-adv-x="903" 
d="M149 -331l-14 45q62 21 107.5 65.5t64 86.5t18.5 75q0 18 -7 26.5t-20 4.5q-14 -5 -32 -5q-36 0 -62.5 26.5t-26.5 64.5t26.5 65.5t66.5 27.5q56 0 86 -41.5t30 -107.5q0 -106 -66.5 -202.5t-170.5 -130.5zM517 -331l-14 45q62 21 107.5 65.5t64 86.5t18.5 75
q0 18 -7 26.5t-20 4.5q-14 -5 -32 -5q-36 0 -62.5 26.5t-26.5 64.5t26.5 65.5t66.5 27.5q56 0 86 -41.5t30 -107.5q0 -106 -66.5 -202.5t-170.5 -130.5z" />
    <glyph glyph-name="dagger" unicode="&#x2020;" horiz-adv-x="871" 
d="M411 -91v114q0 142 -8.5 343t-13.5 242q-10 75 -5.5 119t25.5 72q-26 -2 -104.5 -22.5t-117.5 -20.5q-17 0 -35 3t-40 21t-22 50q0 41 28.5 57.5t62.5 16.5q40 0 118 -22.5t110 -25.5q-2 6 -10.5 40t-12.5 51.5t-10.5 48t-9 57.5t-2.5 53q0 38 8 64t20.5 37.5t22.5 15.5
t20 4q28 0 49.5 -28t21.5 -85q0 -27 -5 -63.5t-10 -62.5t-14.5 -70.5t-12.5 -61.5q34 7 78.5 19.5t78 19.5t67.5 7q45 0 68.5 -21.5t23.5 -50.5q0 -31 -22.5 -53t-69.5 -22q-39 0 -119.5 21t-98.5 23q24 -37 24 -80.5t-10 -113.5q-24 -283 -24 -584v-112h-49z" />
    <glyph glyph-name="daggerdbl" unicode="&#x2021;" horiz-adv-x="919" 
d="M711 15q47 0 70 -21.5t23 -52.5q0 -29 -24 -50.5t-69 -21.5q-33 0 -66 6.5t-78.5 19t-78.5 19.5q2 -8 13 -60.5t15 -73.5t9 -59t5 -65q0 -57 -21.5 -84.5t-49.5 -27.5q-10 0 -20 4t-22.5 15.5t-20.5 37.5t-8 64q0 26 2.5 53t8.5 57.5t10 48t12.5 51.5t10.5 41
q-28 -4 -107 -27t-120 -23q-20 0 -38.5 5t-35.5 23t-17 47q0 24 12 40.5t30 23t31 8.5t24 2q38 0 117 -20.5t104 -23.5q-38 58 -19 192q10 52 10 222t-10 223q-19 134 19 191q-25 -3 -103.5 -23t-117.5 -20q-17 0 -35 3t-40 21t-22 50q0 41 28.5 57.5t62.5 16.5
q41 0 119 -22.5t108 -26.5q-2 9 -10.5 41.5t-12.5 51.5t-10 48.5t-8.5 56.5t-2.5 53q0 38 8 64t20.5 37.5t22.5 15.5t20 4q28 0 49.5 -28t21.5 -85q0 -27 -5 -64.5t-9 -58.5t-15 -73.5t-13 -60.5q34 7 78.5 19t78 19t66.5 7q45 0 69 -21.5t24 -50.5q0 -31 -23 -53t-70 -22
q-39 0 -118.5 21t-98.5 23q24 -37 24 -80.5t-10 -113.5q-27 -218 0 -440q10 -69 10 -113t-24 -81q19 2 98.5 23t118.5 21z" />
    <glyph glyph-name="bullet" unicode="&#x2022;" horiz-adv-x="832" 
d="M416 440q-96 0 -164.5 68.5t-68.5 165.5q0 98 68.5 164.5t164.5 66.5q94 0 163 -66.5t69 -164.5q0 -97 -67.5 -165.5t-164.5 -68.5z" />
    <glyph glyph-name="twodotenleader" unicode="&#x2025;" horiz-adv-x="1154" 
d="M303 -33q-38 0 -65.5 27t-27.5 65t27.5 65.5t65.5 27.5q37 0 63.5 -27.5t26.5 -65.5t-26.5 -65t-63.5 -27zM851 -33q-38 0 -65.5 27t-27.5 65t27.5 65.5t65.5 27.5q37 0 64 -27.5t27 -65.5t-27 -65t-64 -27z" />
    <glyph glyph-name="ellipsis" unicode="&#x2026;" horiz-adv-x="1702" 
d="M303 -33q-38 0 -65.5 27t-27.5 65t27.5 65.5t65.5 27.5q37 0 63.5 -27.5t26.5 -65.5t-26.5 -65t-63.5 -27zM851 -33q-38 0 -65.5 27t-27.5 65t27.5 65.5t65.5 27.5q37 0 64 -27.5t27 -65.5t-27 -65t-64 -27zM1399 -33q-38 0 -65 27t-27 65t27 65.5t65 27.5q37 0 64 -27.5
t27 -65.5t-27 -65t-64 -27z" />
    <glyph glyph-name="perthousand" unicode="&#x2030;" horiz-adv-x="2305" 
d="M375 675q-57 0 -101.5 25t-70.5 62.5t-43 86t-23 90t-6 79.5q0 165 65 260t179 95q119 0 182 -98t63 -256q0 -39 -6.5 -81.5t-23.5 -90.5t-43.5 -85t-71 -62t-100.5 -25zM467 0l694 1352h58l-695 -1352h-57zM376 719q42 0 75 20.5t52.5 51.5t31.5 72t16.5 77.5t4.5 73.5
q0 155 -47.5 235t-133.5 80t-133 -80.5t-47 -229.5q0 -49 7.5 -96t26 -95.5t56.5 -78.5t91 -30zM1285 -21q-57 0 -101.5 25t-70.5 62.5t-43 86t-23 90t-6 79.5q0 165 65 260t179 95q119 0 182 -98t63 -257q0 -39 -6.5 -81t-23.5 -90t-43.5 -85.5t-71 -62t-100.5 -24.5z
M1930 -21q-70 0 -121.5 36.5t-76.5 93.5t-36 110t-11 103q0 165 65 260t179 95q119 0 182 -98t63 -257q0 -51 -11.5 -104.5t-36.5 -110t-76 -92.5t-120 -36zM1286 23q42 0 75 20.5t52.5 51.5t31.5 72t16.5 77.5t4.5 73.5q0 154 -47.5 234.5t-133.5 80.5t-133 -81t-47 -229
q0 -50 7.5 -96.5t26 -95.5t56.5 -78.5t91 -29.5zM1930 23q42 0 75 20.5t52.5 51.5t31.5 72t16.5 77.5t4.5 73.5q0 154 -47.5 234.5t-133.5 80.5t-133 -81t-47 -229q0 -38 4.5 -75.5t16.5 -79.5t31.5 -73t52.5 -51.5t76 -20.5z" />
    <glyph glyph-name="guilsinglleft" unicode="&#x2039;" horiz-adv-x="503" 
d="M359 0l-288 440l288 441h52l-265 -441l265 -440h-52z" />
    <glyph glyph-name="guilsinglright" unicode="&#x203a;" horiz-adv-x="503" 
d="M144 0h-52l265 440l-265 441h52l288 -441z" />
    <glyph glyph-name="Euro" unicode="&#x20ac;" horiz-adv-x="1260" 
d="M684 -21q-116 0 -211.5 73.5t-156 202t-77.5 292.5h-98l7 48h87q-2 26 -2 80q0 43 3 85h-95l7 48h91q29 250 150 407.5t296 157.5q107 0 192.5 -63t132.5 -174l1 203h48l1 -396l-48 -2q-17 172 -104.5 277.5t-217.5 105.5q-149 0 -252 -144t-127 -372h568l-7 -48h-563
q-4 -54 -4 -84q0 -54 2 -81h539l-7 -48h-529q24 -232 127 -375.5t253 -143.5q127 0 216.5 107.5t105.5 274.5l47 -5q-20 -196 -124 -311t-251 -115z" />
    <glyph glyph-name="uni2113" unicode="&#x2113;" horiz-adv-x="901" 
d="M511 -21q-89 0 -139.5 88t-50.5 236l-4 160q-18 -17 -99.5 -90t-100.5 -92l-31 34q20 21 114 105t115 105l-9 460q0 199 64 316t180 117q88 0 126.5 -59t38.5 -192q0 -266 -224 -526q-44 -53 -105 -114l5 -224q0 -125 35 -198t95 -73q130 0 152 269l46 -6
q-27 -316 -208 -316zM384 593q41 42 89 102q196 236 196 471q0 112 -26 158.5t-88 46.5q-85 0 -132 -96.5t-47 -271.5z" />
    <glyph glyph-name="trademark" unicode="&#x2122;" horiz-adv-x="2231" 
d="M145 1352h729l11 -212l-31 -1l-9 126q-4 31 -18 42t-41 11h-248v-692q0 -47 47 -47h97v-31h-345v31h97q47 0 47 47v692h-250q-52 0 -57 -54l-8 -125l-32 1zM1968 1321q-47 0 -47 -49v-646q0 -47 47 -47h107v-31h-357v31h99q46 0 46 47v673h-14l-340 -751h-47l-332 751h-8
v-664q0 -56 46 -56h77v-31h-279v31h77q46 0 46 56v637q0 49 -46 49h-77v31h201l333 -749l340 749h235v-31h-107z" />
    <glyph glyph-name="uni2126" unicode="&#x2126;" horiz-adv-x="1471" 
d="M163 0v253h44v-124q0 -33 18 -52t53 -19h340v210q-387 187 -387 587q0 264 132.5 412t372.5 148q239 0 371.5 -149t132.5 -410q0 -405 -385 -586v-212h339q34 0 52 19t18 51v125h45v-253h-504v300q359 172 359 555q0 251 -111 382.5t-317 131.5q-209 0 -320 -133.5
t-111 -380.5q0 -388 362 -556v-299h-504z" />
    <glyph glyph-name="partialdiff" unicode="&#x2202;" horiz-adv-x="1093" 
d="M646 1465q126 0 198 -135.5t72 -361.5q0 -269 -79 -517q-67 -216 -167 -341t-231 -125q-145 0 -227.5 91t-82.5 249q0 100 35.5 205.5t96 192.5t149.5 142.5t187 55.5q109 0 167.5 -61t78.5 -154q19 124 19 254q0 199 -62 324t-164 125q-78 0 -147 -50t-119 -144l-37 23
q57 107 138 167t175 60zM818 560q1 37 1 79t-14.5 83.5t-37 75t-64.5 54.5t-97 21q-85 0 -162.5 -51t-130 -131.5t-84 -179.5t-31.5 -194q0 -134 67.5 -208.5t186.5 -74.5q65 0 123.5 42t103.5 116.5t80 167t59 200.5z" />
    <glyph glyph-name="uni2206" unicode="&#x2206;" horiz-adv-x="1016" 
d="M124 0l308 1418h153l306 -1418h-767zM185 48h626l-282 1305h-59z" />
    <glyph glyph-name="product" unicode="&#x220f;" horiz-adv-x="1287" 
d="M129 -241v45h106q30 0 46 20t16 53v1420q0 34 -16 54t-45 20h-129v44h1073v-44h-128q-31 0 -46.5 -20t-15.5 -54v-1420q0 -33 16 -53t45 -20h107v-45h-407v45h106q31 0 46.5 20t15.5 53v1490h-552v-1490q0 -33 16 -53t45 -20h107v-45h-406z" />
    <glyph glyph-name="summation" unicode="&#x2211;" horiz-adv-x="1037" 
d="M132 -244v67l339 761l-335 763v70h676l40 -317l-44 -3l-28 205q-10 66 -70 66h-513l4 -11l333 -754l-347 -775l-5 -10h571q64 0 68 65l21 271l45 -4l-30 -394h-725z" />
    <glyph glyph-name="minus" unicode="&#x2212;" horiz-adv-x="1614" 
d="M252 646v59h1110v-59h-1110z" />
    <glyph glyph-name="radical" unicode="&#x221a;" horiz-adv-x="790" 
d="M568 1509h45l-171 -1512h-65l-168 699l-102 -76l-27 37l161 120l165 -692z" />
    <glyph glyph-name="infinity" unicode="&#x221e;" horiz-adv-x="1403" 
d="M970 824q104 0 166.5 -66.5t62.5 -178.5q0 -108 -66 -177t-170 -69q-149 0 -259 189q-114 -200 -271 -200q-105 0 -167.5 67t-62.5 179q0 108 66 176.5t171 68.5q149 0 259 -190q110 201 271 201zM963 380q86 0 138 55.5t52 143.5q0 93 -48 145.5t-134 52.5
q-44 0 -81.5 -17t-67.5 -50.5t-49.5 -64t-43.5 -75.5q103 -190 234 -190zM432 369q44 0 81.5 17.5t67.5 51t49.5 63.5t43.5 75q-104 190 -234 190q-85 0 -137.5 -54.5t-52.5 -143.5q0 -93 48 -146t134 -53z" />
    <glyph glyph-name="integral" unicode="&#x222b;" horiz-adv-x="624" 
d="M224 -405q-64 0 -89 36t-25 85q0 38 27 38q22 0 25 -32q2 -73 68 -73q29 0 44.5 19t21.5 71q8 70 -7 344q-11 226 -11 433q0 104 -5 407q-2 121 -2 216t8.5 172t28.5 119q38 80 113 80q94 0 113 -85q3 -15 -3 -26.5t-19 -12.5q-20 -3 -29 29q-12 41 -67 41q-47 0 -69 -47
q-22 -50 -23 -175.5t7 -298.5q13 -217 13 -419q0 -95 2.5 -250.5t2.5 -187.5q5 -269 -13 -359q-11 -63 -37.5 -93.5t-74.5 -30.5z" />
    <glyph glyph-name="approxequal" unicode="&#x2248;" horiz-adv-x="1320" 
d="M201 721l-44 39q68 93 144.5 144.5t187.5 51.5q126 0 247 -66q117 -65 192 -65q86 0 173 129l44 -38q-101 -150 -217 -150q-91 0 -214 69q-112 62 -224 62q-86 0 -153 -41.5t-136 -134.5zM201 257l-44 39q68 93 144.5 144t187.5 51q130 0 247 -65q118 -66 192 -66
q86 0 173 130l44 -39q-102 -150 -217 -150q-90 0 -214 70q-112 62 -224 62q-86 0 -153 -41.5t-136 -134.5z" />
    <glyph glyph-name="notequal" unicode="&#x2260;" horiz-adv-x="1368" 
d="M1239 884h-401l-215 -416h616v-59h-646l-228 -442h-75l229 442h-390v59h420l216 416h-636v59h666l212 409h72l-211 -409h371v-59z" />
    <glyph glyph-name="lessequal" unicode="&#x2264;" horiz-adv-x="1166" 
d="M992 356l-859 384v95l859 384v-64l-808 -358v-19l808 -358v-64zM992 0h-823v59h823v-59z" />
    <glyph glyph-name="greaterequal" unicode="&#x2265;" horiz-adv-x="1166" 
d="M174 356v64l808 358v19l-808 358v64l859 -384v-95zM174 0v59h823v-59h-823z" />
    <glyph glyph-name="a.sc" horiz-adv-x="1371" 
d="M1189 37h77v-37h-387v37h115q28 1 40 14.5t3 34.5l-87 197h-574l-91 -191q-12 -25 2 -39.5t45 -15.5h134v-37h-360v37l55 3q53 8 75 54l411 867h81l384 -867q21 -53 77 -57zM393 320h541l-246 560h-29z" />
    <glyph glyph-name="aacute.sc" horiz-adv-x="1371" 
d="M1049 1466l-359 -318h-46l270 322h135v-4zM1189 37h77v-37h-387v37h115q28 1 40 14.5t3 34.5l-87 197h-574l-91 -191q-12 -25 2 -39.5t45 -15.5h134v-37h-360v37l55 3q53 8 75 54l411 867h81l384 -867q21 -53 77 -57zM393 320h541l-246 560h-29z" />
    <glyph glyph-name="acircumflex.sc" horiz-adv-x="1371" 
d="M690 1424l-309 -276h-46l279 322h151l279 -322h-46zM1189 37h77v-37h-387v37h115q28 1 40 14.5t3 34.5l-87 197h-574l-91 -191q-12 -25 2 -39.5t45 -15.5h134v-37h-360v37l55 3q53 8 75 54l411 867h81l384 -867q21 -53 77 -57zM393 320h541l-246 560h-29z" />
    <glyph glyph-name="adieresis.sc" horiz-adv-x="1371" 
d="M519 1272q-29 0 -48.5 21t-19.5 47q0 28 20 48t48 20t48 -20t20 -48q0 -30 -20 -49t-48 -19zM859 1272q-29 0 -48.5 21t-19.5 47q0 28 20 48t48 20t48 -20t20 -48q0 -30 -20 -49t-48 -19zM1189 37h77v-37h-387v37h115q28 1 40 14.5t3 34.5l-87 197h-574l-91 -191
q-12 -25 2 -39.5t45 -15.5h134v-37h-360v37l55 3q53 8 75 54l411 867h81l384 -867q21 -53 77 -57zM393 320h541l-246 560h-29z" />
    <glyph glyph-name="agrave.sc" horiz-adv-x="1371" 
d="M736 1148h-46l-359 318v4h135zM1189 37h77v-37h-387v37h115q28 1 40 14.5t3 34.5l-87 197h-574l-91 -191q-12 -25 2 -39.5t45 -15.5h134v-37h-360v37l55 3q53 8 75 54l411 867h81l384 -867q21 -53 77 -57zM393 320h541l-246 560h-29z" />
    <glyph glyph-name="aring.sc" horiz-adv-x="1371" 
d="M690 1079q-75 0 -126.5 52t-51.5 128t51.5 128t126.5 52q74 0 127 -53t53 -127t-53 -127t-127 -53zM690 1394q-56 0 -94.5 -38.5t-38.5 -96.5t38.5 -96.5t94.5 -38.5q57 0 96 38.5t39 96.5t-39 96.5t-96 38.5zM1189 37h77v-37h-387v37h115q28 1 40 14.5t3 34.5l-87 197
h-574l-91 -191q-12 -25 2 -39.5t45 -15.5h134v-37h-360v37l55 3q53 8 75 54l411 867h81l384 -867q21 -53 77 -57zM393 320h541l-246 560h-29z" />
    <glyph glyph-name="atilde.sc" horiz-adv-x="1371" 
d="M391 1114h-45q-1 113 48.5 178t137.5 65q39 0 73.5 -16t52.5 -32.5t45 -45.5q26 -30 40.5 -43.5t43.5 -27t63 -13.5q65 0 101.5 49t37.5 139h45q2 -113 -48.5 -181t-139.5 -68q-34 0 -61.5 7.5t-52.5 26t-36 29t-36 36.5q-24 28 -38.5 41.5t-40 26t-55.5 12.5
q-64 0 -99 -48.5t-36 -134.5zM1189 37h77v-37h-387v37h115q28 1 40 14.5t3 34.5l-87 197h-574l-91 -191q-12 -25 2 -39.5t45 -15.5h134v-37h-360v37l55 3q53 8 75 54l411 867h81l384 -867q21 -53 77 -57zM393 320h541l-246 560h-29z" />
    <glyph glyph-name="b.sc" horiz-adv-x="1345" 
d="M882 507q123 -25 197.5 -89t70.5 -163q-3 -84 -62 -142.5t-151.5 -84.5t-211.5 -26h-556v37h101q60 0 60 55v756q0 57 -56 57h-105l1 38l542 -1q189 0 290.5 -60.5t95.5 -167.5q-4 -87 -61.5 -139t-154.5 -70zM688 908h-284v-383h309q156 0 230.5 45t78.5 142
q4 96 -82.5 146t-251.5 50zM1071 260q4 112 -92 169.5t-268 57.5h-307v-394q0 -22 14.5 -37.5t41.5 -15.5h263q162 0 252.5 59.5t95.5 160.5z" />
    <glyph glyph-name="c.sc" horiz-adv-x="1497" 
d="M724 -15q-240 0 -389 140t-149 349q0 100 38.5 189t107.5 155t171 104.5t222 38.5q152 0 270.5 -65t188.5 -182l4 206h45l1 -322h-43q-41 138 -164 231t-295 93q-142 0 -249 -62.5t-161.5 -164.5t-54.5 -226q0 -195 127 -320t339 -125q170 0 294.5 89.5t165.5 240.5h43
v-328h-43l-7 208q-65 -115 -183 -182t-279 -67z" />
    <glyph glyph-name="ccedilla.sc" horiz-adv-x="1497" 
d="M1193 354h43v-328h-43l-7 208q-63 -110 -173.5 -176t-260.5 -72l-30 -146q39 0 65.5 -1t60 -5t55.5 -13.5t42 -23.5t30 -37t10 -54q0 -84 -85.5 -140.5t-219.5 -56.5q-92 0 -196 27l13 48q88 -25 178 -25q114 0 184 41t70 104q0 16 -4.5 28.5t-13.5 21t-21.5 15t-28 10
t-33 6t-37.5 3t-41.5 1t-43.5 0.5h-44l38 196q-153 5 -271 72t-180.5 176t-62.5 241q0 100 38.5 189t107.5 155t171 104.5t222 38.5q152 0 270.5 -65t188.5 -182l4 206h45l1 -322h-43q-41 138 -164 231t-295 93q-142 0 -249 -62.5t-161.5 -164.5t-54.5 -226q0 -195 127 -320
t339 -125q170 0 294.5 89.5t165.5 240.5z" />
    <glyph glyph-name="d.sc" horiz-adv-x="1523" 
d="M155 0v37h127q58 0 58 57v759q0 56 -59 56h-126v37h557q286 0 458 -126.5t172 -345.5q0 -223 -172 -348.5t-458 -125.5h-557zM479 38h263q234 0 376.5 121.5t142.5 314.5q0 204 -148.5 320t-388.5 116h-310v-812q0 -60 65 -60z" />
    <glyph glyph-name="e.sc" horiz-adv-x="1405" 
d="M1154 313l43 -2l-33 -311h-1006v37h118q62 0 62 57v758q0 57 -64 57h-116v37h967l18 -244l-44 -1l-15 155q-7 28 -24.5 40t-49.5 12h-598v-393h402q64 0 64 48v90h44v-321h-44v96q0 49 -63 49h-403v-380q0 -59 62 -59h565q38 0 57 13t26 41z" />
    <glyph glyph-name="eacute.sc" horiz-adv-x="1405" 
d="M1063 1348l-359 -318h-46l270 322h135v-4zM1154 313l43 -2l-33 -311h-1006v37h118q62 0 62 57v758q0 57 -64 57h-116v37h967l18 -244l-44 -1l-15 155q-7 28 -24.5 40t-49.5 12h-598v-393h402q64 0 64 48v90h44v-321h-44v96q0 49 -63 49h-403v-380q0 -59 62 -59h565
q38 0 57 13t26 41z" />
    <glyph glyph-name="ecircumflex.sc" horiz-adv-x="1405" 
d="M704 1306l-309 -276h-46l279 322h151l279 -322h-46zM1154 313l43 -2l-33 -311h-1006v37h118q62 0 62 57v758q0 57 -64 57h-116v37h967l18 -244l-44 -1l-15 155q-7 28 -24.5 40t-49.5 12h-598v-393h402q64 0 64 48v90h44v-321h-44v96q0 49 -63 49h-403v-380q0 -59 62 -59
h565q38 0 57 13t26 41z" />
    <glyph glyph-name="edieresis.sc" horiz-adv-x="1405" 
d="M533 1154q-29 0 -48.5 21t-19.5 47q0 28 20 48t48 20t48 -20t20 -48q0 -30 -20 -49t-48 -19zM873 1154q-29 0 -48.5 21t-19.5 47q0 28 20 48t48 20t48 -20t20 -48q0 -30 -20 -49t-48 -19zM1154 313l43 -2l-33 -311h-1006v37h118q62 0 62 57v758q0 57 -64 57h-116v37h967
l18 -244l-44 -1l-15 155q-7 28 -24.5 40t-49.5 12h-598v-393h402q64 0 64 48v90h44v-321h-44v96q0 49 -63 49h-403v-380q0 -59 62 -59h565q38 0 57 13t26 41z" />
    <glyph glyph-name="egrave.sc" horiz-adv-x="1405" 
d="M750 1030h-46l-359 318v4h135zM1154 313l43 -2l-33 -311h-1006v37h118q62 0 62 57v758q0 57 -64 57h-116v37h967l18 -244l-44 -1l-15 155q-7 28 -24.5 40t-49.5 12h-598v-393h402q64 0 64 48v90h44v-321h-44v96q0 49 -63 49h-403v-380q0 -59 62 -59h565q38 0 57 13t26 41
z" />
    <glyph glyph-name="f.sc" horiz-adv-x="1284" 
d="M159 0v37h115q64 0 64 57v758q0 57 -65 57h-115v37h963l19 -245l-44 -1l-14 154q-14 54 -77 54h-593v-390h400q61 0 61 51v84h44v-322h-44v93q0 54 -61 54h-400v-384q0 -57 65 -57h143v-37h-461z" />
    <glyph glyph-name="g.sc" horiz-adv-x="1534" 
d="M739 -15q-241 0 -399 141.5t-158 344.5q0 204 156.5 347t382.5 143q149 0 272.5 -67.5t186.5 -176.5l4 208h43l3 -320h-43q-44 135 -168.5 224.5t-289.5 89.5q-134 0 -242 -62t-166.5 -164.5t-58.5 -223.5q0 -187 134 -316t346 -129q159 0 274.5 65.5t148.5 196.5
q0 57 -65 57h-412v37h690v-37h-83q-56 0 -56 -58v-297h-45l-16 191q-80 -107 -188 -150.5t-251 -43.5z" />
    <glyph glyph-name="h.sc" horiz-adv-x="1616" 
d="M144 0v37h160q63 0 63 57v758q0 57 -63 57h-160v37h519v-37h-159q-63 0 -63 -57v-330h734v330q0 57 -61 57h-160v37h518v-37h-160q-63 0 -63 -57v-758q0 -57 63 -57h160v-37h-518v37h161q60 0 60 57v387h-734v-387q0 -57 59 -57h163v-37h-519z" />
    <glyph glyph-name="i.sc" horiz-adv-x="808" 
d="M144 0v37h158q65 0 65 57v759q0 56 -65 56h-158v38h520v-38h-158q-35 0 -50 -13.5t-15 -42.5v-759q0 -57 65 -57h158v-37h-520z" />
    <glyph glyph-name="iacute.sc" horiz-adv-x="808" 
d="M404 1148h-46l270 322h135v-4zM144 0v37h158q65 0 65 57v759q0 56 -65 56h-158v38h520v-38h-158q-35 0 -50 -13.5t-15 -42.5v-759q0 -57 65 -57h158v-37h-520z" />
    <glyph glyph-name="icircumflex.sc" horiz-adv-x="808" 
d="M49 1148l279 322h151l279 -322h-46l-308 276l-309 -276h-46zM144 0v37h158q65 0 65 57v759q0 56 -65 56h-158v38h520v-38h-158q-35 0 -50 -13.5t-15 -42.5v-759q0 -57 65 -57h158v-37h-520z" />
    <glyph glyph-name="idieresis.sc" horiz-adv-x="808" 
d="M233 1272q-29 0 -48.5 21t-19.5 47q0 28 20 48t48 20t48 -20t20 -48q0 -30 -20 -49t-48 -19zM573 1272q-29 0 -48.5 21t-19.5 47q0 28 20 48t48 20t48 -20t20 -48q0 -30 -20 -49t-48 -19zM144 0v37h158q65 0 65 57v759q0 56 -65 56h-158v38h520v-38h-158q-35 0 -50 -13.5
t-15 -42.5v-759q0 -57 65 -57h158v-37h-520z" />
    <glyph glyph-name="igrave.sc" horiz-adv-x="808" 
d="M404 1148l-359 318v4h135l270 -322h-46zM144 0v37h158q65 0 65 57v759q0 56 -65 56h-158v38h520v-38h-158q-35 0 -50 -13.5t-15 -42.5v-759q0 -57 65 -57h158v-37h-520z" />
    <glyph glyph-name="j.sc" horiz-adv-x="859" 
d="M175 -350q-52 0 -103 10.5t-99 32.5t-78 62.5t-30 92.5q0 19 14.5 32t36.5 13q25 0 40.5 -12t15.5 -33q0 -11 -20 -30.5t-12 -34.5q26 -51 94 -74t147 -23q151 0 222 78.5t71 240.5v847q0 57 -65 57h-300v37h624v-37h-121q-64 0 -64 -57v-836q0 -170 -88 -268t-285 -98z
" />
    <glyph glyph-name="k.sc" horiz-adv-x="1574" 
d="M144 0v37h146q63 0 63 57v758q0 57 -64 57h-145v37h506v-37h-159q-65 0 -65 -57v-484l567 473q28 21 28 41q0 27 -47 27h-125v37h509v-37h-169q-50 0 -108 -48l-302 -255l428 -519q44 -50 91 -50h157v-37h-506v37h129q50 0 50 29q0 15 -25 44l-377 454l-300 -251v-219
q0 -56 59 -57h161l3 -37h-505z" />
    <glyph glyph-name="l.sc" horiz-adv-x="1308" 
d="M144 0v37h159q64 0 64 57v758q0 57 -64 57h-159v37h521v-37h-159q-35 0 -50 -13.5t-15 -43.5v-755q0 -59 65 -59h483q89 0 93 67l28 209l43 -2l-33 -312h-976z" />
    <glyph glyph-name="lslash.sc" horiz-adv-x="1308" 
d="M1110 314l43 -2l-33 -312h-976v37h159q64 0 64 57v258l-205 -157v63l205 157v437q0 57 -64 57h-159v37h521v-37h-159q-35 0 -50 -13.5t-15 -43.5v-380l364 279v-63l-364 -279v-312q0 -59 65 -59h483q89 0 93 67z" />
    <glyph glyph-name="m.sc" horiz-adv-x="1896" 
d="M159 0v37h116q33 0 48 20t15 47v748q0 57 -64 57h-115v37h283l481 -880h3l492 880h335v-37h-160q-64 0 -64 -57v-758q0 -57 64 -57h160v-37h-508v37h145q65 0 65 57v790h-19l-494 -884h-68l-480 884h-12v-781q0 -28 16 -47t48 -19h114v-37h-401z" />
    <glyph glyph-name="n.sc" horiz-adv-x="1552" 
d="M1010 946h410v-37h-116q-31 0 -47 -17.5t-16 -46.5v-861h-52l-791 904l-15 5v-791q0 -28 16 -46.5t50 -18.5h115v-37h-406v37h116q34 0 49.5 20.5t15.5 44.5v746q0 28 -17.5 44.5t-48.5 16.5h-115v37h286l752 -858v757q0 26 -16 45t-49 19h-121v37z" />
    <glyph glyph-name="ntilde.sc" horiz-adv-x="1552" 
d="M486 1114h-45q-1 113 48.5 178t137.5 65q39 0 73.5 -16t52.5 -32.5t45 -45.5q26 -30 40.5 -43.5t43.5 -27t63 -13.5q65 0 101.5 49t37.5 139h45q2 -113 -48.5 -181t-139.5 -68q-34 0 -61.5 7.5t-52.5 26t-36 29t-36 36.5q-24 28 -38.5 41.5t-40 26t-55.5 12.5
q-64 0 -99 -48.5t-36 -134.5zM1010 946h410v-37h-116q-31 0 -47 -17.5t-16 -46.5v-861h-52l-791 904l-15 5v-791q0 -28 16 -46.5t50 -18.5h115v-37h-406v37h116q34 0 49.5 20.5t15.5 44.5v746q0 28 -17.5 44.5t-48.5 16.5h-115v37h286l752 -858v757q0 26 -16 45t-49 19h-121
v37z" />
    <glyph glyph-name="o.sc" horiz-adv-x="1437" 
d="M719 -15q-238 0 -385 136.5t-147 354.5q0 101 38 190t106 154t168 103t219 38q240 0 386 -139.5t146 -347.5q0 -211 -146.5 -350t-384.5 -139zM718 24q203 0 326.5 123t123.5 328t-123.5 326t-326.5 121q-204 0 -326.5 -124.5t-122.5 -321.5q0 -194 122.5 -323
t326.5 -129z" />
    <glyph glyph-name="oacute.sc" horiz-adv-x="1437" 
d="M719 1148h-46l270 322h135v-4zM719 -15q-238 0 -385 136.5t-147 354.5q0 101 38 190t106 154t168 103t219 38q240 0 386 -139.5t146 -347.5q0 -211 -146.5 -350t-384.5 -139zM718 24q203 0 326.5 123t123.5 328t-123.5 326t-326.5 121q-204 0 -326.5 -124.5
t-122.5 -321.5q0 -194 122.5 -323t326.5 -129z" />
    <glyph glyph-name="ocircumflex.sc" horiz-adv-x="1437" 
d="M364 1148l279 322h151l279 -322h-46l-308 276l-309 -276h-46zM719 -15q-238 0 -385 136.5t-147 354.5q0 101 38 190t106 154t168 103t219 38q240 0 386 -139.5t146 -347.5q0 -211 -146.5 -350t-384.5 -139zM718 24q203 0 326.5 123t123.5 328t-123.5 326t-326.5 121
q-204 0 -326.5 -124.5t-122.5 -321.5q0 -194 122.5 -323t326.5 -129z" />
    <glyph glyph-name="odieresis.sc" horiz-adv-x="1437" 
d="M548 1272q-29 0 -48.5 21t-19.5 47q0 28 20 48t48 20t48 -20t20 -48q0 -30 -20 -49t-48 -19zM888 1272q-29 0 -48.5 21t-19.5 47q0 28 20 48t48 20t48 -20t20 -48q0 -30 -20 -49t-48 -19zM719 -15q-238 0 -385 136.5t-147 354.5q0 101 38 190t106 154t168 103t219 38
q240 0 386 -139.5t146 -347.5q0 -211 -146.5 -350t-384.5 -139zM718 24q203 0 326.5 123t123.5 328t-123.5 326t-326.5 121q-204 0 -326.5 -124.5t-122.5 -321.5q0 -194 122.5 -323t326.5 -129z" />
    <glyph glyph-name="ograve.sc" horiz-adv-x="1437" 
d="M719 1148l-359 318v4h135l270 -322h-46zM719 -15q-238 0 -385 136.5t-147 354.5q0 101 38 190t106 154t168 103t219 38q240 0 386 -139.5t146 -347.5q0 -211 -146.5 -350t-384.5 -139zM718 24q203 0 326.5 123t123.5 328t-123.5 326t-326.5 121q-204 0 -326.5 -124.5
t-122.5 -321.5q0 -194 122.5 -323t326.5 -129z" />
    <glyph glyph-name="oslash.sc" horiz-adv-x="1437" 
d="M1077 845q83 -67 128 -163t45 -208q0 -211 -146.5 -350t-384.5 -139q-183 0 -318 85l-62 -71l-38 34l58 67q-83 66 -127.5 162.5t-44.5 213.5q0 101 38 190t106 154t168 103t219 38q184 0 318 -87l63 72l37 -34zM269 476q0 -203 130 -331l604 691q-115 86 -285 86
q-204 0 -326.5 -124.5t-122.5 -321.5zM718 24q203 0 326.5 123t123.5 328q0 207 -127 329l-603 -692q117 -88 280 -88z" />
    <glyph glyph-name="oslashacute.sc" horiz-adv-x="1437" 
d="M1078 1466l-359 -318h-46l270 322h135v-4zM1077 845q83 -67 128 -163t45 -208q0 -211 -146.5 -350t-384.5 -139q-183 0 -318 85l-62 -71l-38 34l58 67q-83 66 -127.5 162.5t-44.5 213.5q0 101 38 190t106 154t168 103t219 38q184 0 318 -87l63 72l37 -34zM269 476
q0 -203 130 -331l604 691q-115 86 -285 86q-204 0 -326.5 -124.5t-122.5 -321.5zM718 24q203 0 326.5 123t123.5 328q0 207 -127 329l-603 -692q117 -88 280 -88z" />
    <glyph glyph-name="otilde.sc" horiz-adv-x="1437" 
d="M375 1114q-1 113 48.5 178t137.5 65q39 0 73.5 -16t52.5 -32.5t45 -45.5q26 -30 40.5 -43.5t43.5 -27t63 -13.5q65 0 101.5 49t37.5 139h45q2 -113 -48.5 -181t-139.5 -68q-34 0 -61.5 7.5t-52.5 26t-36 29t-36 36.5q-24 28 -38.5 41.5t-40 26t-55.5 12.5
q-64 0 -99 -48.5t-36 -134.5h-45zM719 -15q-238 0 -385 136.5t-147 354.5q0 101 38 190t106 154t168 103t219 38q240 0 386 -139.5t146 -347.5q0 -211 -146.5 -350t-384.5 -139zM718 24q203 0 326.5 123t123.5 328t-123.5 326t-326.5 121q-204 0 -326.5 -124.5
t-122.5 -321.5q0 -194 122.5 -323t326.5 -129z" />
    <glyph glyph-name="p.sc" horiz-adv-x="1226" 
d="M159 0v37h116q64 0 64 57v759q0 56 -65 56h-116v37h553q177 0 269.5 -64.5t92.5 -184.5t-88 -187t-262 -67h-311v-349q0 -57 65 -57h114v-37h-432zM412 481h307q277 0 277 215q0 214 -276 214h-308v-429z" />
    <glyph glyph-name="q.sc" horiz-adv-x="1323" 
d="M660 -15q-238 0 -384.5 136.5t-146.5 354.5q0 208 146.5 346.5t384.5 138.5q240 0 386 -139.5t146 -347.5q0 -211 -146.5 -350t-385.5 -139zM660 24q202 0 326 123t124 328t-123.5 326t-326.5 121q-204 0 -327 -124.5t-123 -321.5q0 -194 123 -323t327 -129zM841 -156
q16 -8 61.5 -33t68 -35.5t63 -21.5t79.5 -11q170 0 251 87l39 -33q-99 -107 -297 -107q-60 0 -117 19t-87.5 37.5t-82.5 54.5q-121 84 -216 84q-54 0 -106.5 -24.5t-119.5 -74.5l-28 28q80 53 135 79t115 27q106 5 242 -76z" />
    <glyph glyph-name="r.sc" horiz-adv-x="1421" 
d="M158 0v37h116q65 0 65 57v759q0 56 -64 56h-117v37h576q172 0 267.5 -67.5t95.5 -182.5q0 -96 -72.5 -162t-199.5 -80q47 -24 115 -104l232 -275q34 -38 74 -38h69v-37h-167l-274 332q-53 65 -98.5 88t-107.5 23h-256v-349q0 -57 65 -57h114v-37h-433zM412 481h307
q146 0 224.5 57t78.5 159q0 97 -77.5 154t-223.5 57h-309v-427z" />
    <glyph glyph-name="s.sc" horiz-adv-x="1204" 
d="M662 -15q-136 0 -236.5 47t-148.5 134l-5 -151h-44v325h44q4 -142 107 -229t283 -87q43 0 87.5 11.5t87.5 34.5t70.5 66t27.5 99q0 24 -6 45t-14 37.5t-25.5 32t-31 26t-40.5 22.5t-43 18.5t-50.5 17t-51.5 15t-56 14.5q-168 47 -229 78q-130 64 -137 177v15
q0 99 90.5 164.5t224.5 65.5q99 0 185 -41.5t133 -109.5l5 135h43v-277h-43q-5 108 -98.5 181.5t-220.5 73.5q-114 0 -184.5 -50.5t-70.5 -124.5q0 -39 16 -69t42 -51t67.5 -38.5t83 -30.5t98.5 -28q11 -3 16 -4q49 -13 77.5 -21t72 -23t69.5 -28.5t57 -35t47.5 -45
t28 -55.5t11.5 -69q0 -56 -23 -102.5t-59.5 -76t-82.5 -50.5t-90 -29.5t-84 -8.5z" />
    <glyph glyph-name="scaron.sc" horiz-adv-x="1204" 
d="M531 1148l-278 322h45l309 -276l309 276h46l-279 -322h-152zM662 -15q-136 0 -236.5 47t-148.5 134l-5 -151h-44v325h44q4 -142 107 -229t283 -87q43 0 87.5 11.5t87.5 34.5t70.5 66t27.5 99q0 24 -6 45t-14 37.5t-25.5 32t-31 26t-40.5 22.5t-43 18.5t-50.5 17t-51.5 15
t-56 14.5q-168 47 -229 78q-130 64 -137 177v15q0 99 90.5 164.5t224.5 65.5q99 0 185 -41.5t133 -109.5l5 135h43v-277h-43q-5 108 -98.5 181.5t-220.5 73.5q-114 0 -184.5 -50.5t-70.5 -124.5q0 -39 16 -69t42 -51t67.5 -38.5t83 -30.5t98.5 -28q11 -3 16 -4
q49 -13 77.5 -21t72 -23t69.5 -28.5t57 -35t47.5 -45t28 -55.5t11.5 -69q0 -56 -23 -102.5t-59.5 -76t-82.5 -50.5t-90 -29.5t-84 -8.5z" />
    <glyph glyph-name="t.sc" horiz-adv-x="1371" 
d="M440 0v37h145q65 0 65 57v814h-370q-75 0 -79 -66l-11 -147l-44 2l17 249h1046l16 -249l-44 -2l-10 148q-8 65 -80 65h-369v-814q0 -57 66 -57h144v-37h-492z" />
    <glyph glyph-name="u.sc" horiz-adv-x="1499" 
d="M752 -15q-223 0 -337 90.5t-114 263.5v513q0 57 -64 57h-115v37h491v-37h-175q-65 0 -65 -57v-513q0 -314 390 -314q206 0 303.5 80.5t97.5 238.5v504q0 28 -17 44.5t-48 16.5h-103v37h367v-37h-91q-30 0 -46.5 -16.5t-16.5 -43.5v-505q0 -359 -457 -359z" />
    <glyph glyph-name="uacute.sc" horiz-adv-x="1499" 
d="M750 1150h-46l270 322h135v-4zM752 -15q-223 0 -337 90.5t-114 263.5v513q0 57 -64 57h-115v37h491v-37h-175q-65 0 -65 -57v-513q0 -314 390 -314q206 0 303.5 80.5t97.5 238.5v504q0 28 -17 44.5t-48 16.5h-103v37h367v-37h-91q-30 0 -46.5 -16.5t-16.5 -43.5v-505
q0 -359 -457 -359z" />
    <glyph glyph-name="ucircumflex.sc" horiz-adv-x="1499" 
d="M395 1150l279 322h151l279 -322h-46l-308 276l-309 -276h-46zM752 -15q-223 0 -337 90.5t-114 263.5v513q0 57 -64 57h-115v37h491v-37h-175q-65 0 -65 -57v-513q0 -314 390 -314q206 0 303.5 80.5t97.5 238.5v504q0 28 -17 44.5t-48 16.5h-103v37h367v-37h-91
q-30 0 -46.5 -16.5t-16.5 -43.5v-505q0 -359 -457 -359z" />
    <glyph glyph-name="udieresis.sc" horiz-adv-x="1499" 
d="M579 1274q-29 0 -48.5 21t-19.5 47q0 28 20 48t48 20t48 -20t20 -48q0 -30 -20 -49t-48 -19zM919 1274q-29 0 -48.5 21t-19.5 47q0 28 20 48t48 20t48 -20t20 -48q0 -30 -20 -49t-48 -19zM752 -15q-223 0 -337 90.5t-114 263.5v513q0 57 -64 57h-115v37h491v-37h-175
q-65 0 -65 -57v-513q0 -314 390 -314q206 0 303.5 80.5t97.5 238.5v504q0 28 -17 44.5t-48 16.5h-103v37h367v-37h-91q-30 0 -46.5 -16.5t-16.5 -43.5v-505q0 -359 -457 -359z" />
    <glyph glyph-name="ugrave.sc" horiz-adv-x="1499" 
d="M750 1150l-359 318v4h135l270 -322h-46zM752 -15q-223 0 -337 90.5t-114 263.5v513q0 57 -64 57h-115v37h491v-37h-175q-65 0 -65 -57v-513q0 -314 390 -314q206 0 303.5 80.5t97.5 238.5v504q0 28 -17 44.5t-48 16.5h-103v37h367v-37h-91q-30 0 -46.5 -16.5t-16.5 -43.5
v-505q0 -359 -457 -359z" />
    <glyph glyph-name="v.sc" horiz-adv-x="1412" 
d="M685 -15l-417 866q-16 32 -32.5 45t-44.5 13h-87v37h482v-37h-192q-37 0 -48.5 -17t3.5 -46l389 -799h8l355 791q15 30 3.5 50.5t-48.5 20.5h-125v37h377v-37h-77q-29 0 -46.5 -14.5t-35.5 -51.5l-381 -858h-83z" />
    <glyph glyph-name="w.sc" horiz-adv-x="1912" 
d="M566 -15l-318 870q-11 29 -27.5 41.5t-43.5 12.5h-71v37h469v-37h-202q-33 0 -45.5 -17.5t-0.5 -45.5l290 -793h27l293 906h88l309 -905l24 -1l261 780q13 31 2 53.5t-47 22.5h-141v37h371v-37h-59q-49 0 -73 -68l-286 -856h-102l-312 908h-9l-296 -908h-101z" />
    <glyph glyph-name="wacute.sc" horiz-adv-x="1912" 
d="M952 1148h-46l270 322h135v-4zM566 -15l-318 870q-11 29 -27.5 41.5t-43.5 12.5h-71v37h469v-37h-202q-33 0 -45.5 -17.5t-0.5 -45.5l290 -793h27l293 906h88l309 -905l24 -1l261 780q13 31 2 53.5t-47 22.5h-141v37h371v-37h-59q-49 0 -73 -68l-286 -856h-102l-312 908
h-9l-296 -908h-101z" />
    <glyph glyph-name="wcircumflex.sc" horiz-adv-x="1912" 
d="M597 1148l279 322h151l279 -322h-46l-308 276l-309 -276h-46zM566 -15l-318 870q-11 29 -27.5 41.5t-43.5 12.5h-71v37h469v-37h-202q-33 0 -45.5 -17.5t-0.5 -45.5l290 -793h27l293 906h88l309 -905l24 -1l261 780q13 31 2 53.5t-47 22.5h-141v37h371v-37h-59
q-49 0 -73 -68l-286 -856h-102l-312 908h-9l-296 -908h-101z" />
    <glyph glyph-name="wdieresis.sc" horiz-adv-x="1912" 
d="M781 1272q-29 0 -48.5 21t-19.5 47q0 28 20 48t48 20t48 -20t20 -48q0 -30 -20 -49t-48 -19zM1121 1272q-29 0 -48.5 21t-19.5 47q0 28 20 48t48 20t48 -20t20 -48q0 -30 -20 -49t-48 -19zM566 -15l-318 870q-11 29 -27.5 41.5t-43.5 12.5h-71v37h469v-37h-202
q-33 0 -45.5 -17.5t-0.5 -45.5l290 -793h27l293 906h88l309 -905l24 -1l261 780q13 31 2 53.5t-47 22.5h-141v37h371v-37h-59q-49 0 -73 -68l-286 -856h-102l-312 908h-9l-296 -908h-101z" />
    <glyph glyph-name="wgrave.sc" horiz-adv-x="1912" 
d="M952 1148l-359 318v4h135l270 -322h-46zM566 -15l-318 870q-11 29 -27.5 41.5t-43.5 12.5h-71v37h469v-37h-202q-33 0 -45.5 -17.5t-0.5 -45.5l290 -793h27l293 906h88l309 -905l24 -1l261 780q13 31 2 53.5t-47 22.5h-141v37h371v-37h-59q-49 0 -73 -68l-286 -856h-102
l-312 908h-9l-296 -908h-101z" />
    <glyph glyph-name="x.sc" horiz-adv-x="1623" 
d="M154 0v37h74q44 0 93 42l445 400l-409 382q-28 27 -47 37.5t-45 10.5h-128v37h503v-37h-144q-37 0 -45.5 -17.5t18.5 -43.5l347 -321l356 320q29 25 20.5 43.5t-46.5 18.5h-159v37h451v-37h-86q-48 0 -98 -42l-407 -368l440 -412q28 -26 48 -38t46 -12h114v-37h-532v37
h180q43 0 52 19t-21 47l-379 349l-387 -349q-28 -25 -18 -45.5t50 -20.5h179v-37h-465z" />
    <glyph glyph-name="y.sc" horiz-adv-x="1387" 
d="M436 0v37h184q64 0 64 57v226l-413 544q-34 45 -77 45h-90v37h475v-37h-177q-35 0 -44 -18.5t11 -44.5l368 -478l365 472q23 27 12 48t-49 21h-152v37h370v-37h-33q-44 0 -78 -45l-414 -540v-230q0 -57 64 -57h181v-37h-567z" />
    <glyph glyph-name="yacute.sc" horiz-adv-x="1387" 
d="M697 1148h-46l270 322h135v-4zM436 0v37h184q64 0 64 57v226l-413 544q-34 45 -77 45h-90v37h475v-37h-177q-35 0 -44 -18.5t11 -44.5l368 -478l365 472q23 27 12 48t-49 21h-152v37h370v-37h-33q-44 0 -78 -45l-414 -540v-230q0 -57 64 -57h181v-37h-567z" />
    <glyph glyph-name="ycircumflex.sc" horiz-adv-x="1387" 
d="M342 1148l279 322h151l279 -322h-46l-308 276l-309 -276h-46zM436 0v37h184q64 0 64 57v226l-413 544q-34 45 -77 45h-90v37h475v-37h-177q-35 0 -44 -18.5t11 -44.5l368 -478l365 472q23 27 12 48t-49 21h-152v37h370v-37h-33q-44 0 -78 -45l-414 -540v-230
q0 -57 64 -57h181v-37h-567z" />
    <glyph glyph-name="ydieresis.sc" horiz-adv-x="1387" 
d="M526 1272q-29 0 -48.5 21t-19.5 47q0 28 20 48t48 20t48 -20t20 -48q0 -30 -20 -49t-48 -19zM866 1272q-29 0 -48.5 21t-19.5 47q0 28 20 48t48 20t48 -20t20 -48q0 -30 -20 -49t-48 -19zM436 0v37h184q64 0 64 57v226l-413 544q-34 45 -77 45h-90v37h475v-37h-177
q-35 0 -44 -18.5t11 -44.5l368 -478l365 472q23 27 12 48t-49 21h-152v37h370v-37h-33q-44 0 -78 -45l-414 -540v-230q0 -57 64 -57h181v-37h-567z" />
    <glyph glyph-name="ygrave.sc" horiz-adv-x="1387" 
d="M697 1148l-359 318v4h135l270 -322h-46zM436 0v37h184q64 0 64 57v226l-413 544q-34 45 -77 45h-90v37h475v-37h-177q-35 0 -44 -18.5t11 -44.5l368 -478l365 472q23 27 12 48t-49 21h-152v37h370v-37h-33q-44 0 -78 -45l-414 -540v-230q0 -57 64 -57h181v-37h-567z" />
    <glyph glyph-name="z.sc" horiz-adv-x="1392" 
d="M185 0v67l898 841l13 11h-743q-73 0 -92 -53l-28 -163l-43 2l35 252h938v-64l-900 -841l-13 -14h794q74 0 90 53l31 218l44 -3l-35 -306h-989z" />
    <glyph glyph-name="zcaron.sc" horiz-adv-x="1392" 
d="M609 1148l-278 322h45l309 -276l309 276h46l-279 -322h-152zM185 0v67l898 841l13 11h-743q-73 0 -92 -53l-28 -163l-43 2l35 252h938v-64l-900 -841l-13 -14h794q74 0 90 53l31 218l44 -3l-35 -306h-989z" />
    <glyph glyph-name="zero.sc" horiz-adv-x="1115" 
d="M558 -15q-192 0 -309 124t-117 365q0 232 114 359.5t312 127.5q196 0 311.5 -126.5t115.5 -361.5q0 -232 -114 -360t-313 -128zM559 23q166 0 256 113.5t90 329.5q0 223 -90 340t-257 117q-166 0 -257 -118.5t-91 -330.5q0 -218 90.5 -334.5t258.5 -116.5z" />
    <glyph glyph-name="one.sc" horiz-adv-x="1113" 
d="M700 38h279v-38h-826v38h332q31 0 49.5 14.5t18.5 38.5v811q-57 -62 -139.5 -85t-260.5 -23v38q130 1 203.5 12.5t117 38t78.5 78.5h79v-869q0 -24 18 -39t51 -15z" />
    <glyph glyph-name="two.sc" horiz-adv-x="1113" 
d="M975 202h48l-106 -232h-50q8 15 3 22.5t-29 7.5h-675v55q272 161 456 326q209 184 209 326q0 96 -78.5 155.5t-209.5 59.5q-126 0 -211 -52.5t-85 -129.5q0 -51 39 -102l-54 -23q-47 63 -47 118q0 99 106.5 163.5t261.5 64.5q158 0 257 -69.5t99 -183.5
q0 -74 -56.5 -156.5t-170.5 -183.5q-147 -131 -448 -318h609q60 0 77 36z" />
    <glyph glyph-name="three.sc" horiz-adv-x="1113" 
d="M493 -15q-133 0 -233.5 45t-134.5 105q-15 36 20 38q11 1 20 -3.5t12.5 -8.5t12.5 -15q103 -123 298 -123q172 0 289.5 80.5t117.5 196.5q0 41 -15.5 73.5t-42.5 52.5t-58 34t-68.5 21t-67.5 9.5t-61 2.5q-62 0 -106 -16l-64 -25l-23 32l146 56q62 23 109.5 45.5t94 51.5
t71.5 63.5t25 71.5q0 69 -79 109.5t-209 40.5q-135 0 -217.5 -44.5t-82.5 -120.5q0 -47 31 -86l-58 -22q-36 47 -36 102q0 94 104.5 152t269.5 58q155 0 253.5 -49t98.5 -132q0 -140 -306 -249q171 1 270.5 -58t99.5 -167q0 -90 -68 -164.5t-178 -115.5t-235 -41z" />
    <glyph glyph-name="four.sc" horiz-adv-x="1113" 
d="M489 0v38h160q68 0 68 53v243h-617v63l608 563h86v-583h213v-43h-213v-243q0 -53 69 -53h145v-38h-519zM153 377h564v520h-13l-551 -507v-13z" />
    <glyph glyph-name="five.sc" horiz-adv-x="1113" 
d="M564 624q176 0 285 -81t109 -222q0 -71 -24.5 -129t-65 -96t-96 -63.5t-114.5 -36.5t-122 -11q-124 0 -227.5 28.5t-155.5 89.5q-8 13 -3.5 23t18.5 14q20 6 46 -19q100 -92 326 -92q94 0 171 31.5t126 99t49 159.5q0 119 -88.5 189.5t-242.5 70.5q-184 0 -263 -100h-68
l26 467h599l-20 -50h-531l-23 -372q44 47 120.5 73.5t168.5 26.5z" />
    <glyph glyph-name="six.sc" horiz-adv-x="1113" 
d="M585 -15q-198 0 -307 104t-109 303q0 279 119 424t328 145q102 0 183 -27.5t127 -78.5q17 -25 -13 -35q-19 -6 -46 18q-101 84 -261 84q-83 0 -147.5 -30.5t-103.5 -79t-64 -118t-35 -138.5t-11 -150q39 92 124 139t208 46q182 0 286 -79t104 -222q0 -138 -107 -221.5
t-275 -83.5zM585 23q140 0 222.5 71.5t82.5 189.5q0 128 -82.5 198t-240.5 70q-135 0 -213 -65t-100 -185q44 -279 331 -279z" />
    <glyph glyph-name="seven.sc" horiz-adv-x="1113" 
d="M413 -12q-16 1 -22 9.5t-3 21.5t14 28l515 843h-625q-58 0 -77 -36l-54 -116h-48l108 238h48q-8 -14 -3 -22t29 -8h701l-533 -923q-21 -38 -50 -35z" />
    <glyph glyph-name="eight.sc" horiz-adv-x="1111" 
d="M557 -15q-192 0 -314.5 70.5t-122.5 196.5q0 102 79 165.5t210 86.5q-102 23 -164.5 78t-62.5 140q0 113 103.5 176t270.5 63q168 0 271 -63.5t103 -175.5q0 -85 -63 -140.5t-164 -77.5q131 -24 210 -87.5t79 -163.5q0 -125 -120.5 -196.5t-314.5 -71.5zM557 519
q139 0 218 55t79 151q0 90 -79.5 144t-218.5 54t-218 -54t-79 -143q0 -96 78.5 -151.5t219.5 -55.5zM557 23q164 0 260.5 63.5t96.5 165.5q0 107 -95.5 168t-262.5 61q-166 0 -262.5 -62t-96.5 -164q0 -106 96.5 -169t263.5 -63z" />
    <glyph glyph-name="nine.sc" horiz-adv-x="1113" 
d="M499 -15q-210 0 -310 105q-17 26 13 35q19 7 46 -16q99 -85 261 -85q83 0 147.5 30t104 78.5t64.5 117.5t34.5 138.5t9.5 149.5q-77 -184 -327 -184q-183 0 -288.5 79.5t-105.5 222.5q0 138 107.5 221.5t274.5 83.5q199 0 308 -104.5t109 -302.5q0 -279 -119.5 -424
t-328.5 -145zM550 394q133 0 211 65t100 185q-44 279 -331 279q-139 0 -222 -71.5t-83 -189.5q0 -129 83 -198.5t242 -69.5z" />
    <glyph glyph-name="uni0308.case" 
d="M-553 1538q-29 0 -48.5 21t-19.5 47q0 28 20 48t48 20t48 -20t20 -48q0 -30 -20 -49t-48 -19zM-213 1538q-29 0 -48.5 21t-19.5 47q0 28 20 48t48 20t48 -20t20 -48q0 -30 -20 -49t-48 -19z" />
    <glyph glyph-name="gravecomb.case" 
d="M-97 1438l-359 317v4h135l270 -321h-46z" />
    <glyph glyph-name="acutecomb.case" 
d="M-445 1438l270 321h134v-4l-358 -317h-46z" />
    <glyph glyph-name="uni0302.case" 
d="M-760 1470l276 322h157l276 -322h-46l-308 276l-309 -276h-46z" />
    <glyph glyph-name="uni030C.case" 
d="M-485 1456l-278 322h45l309 -276l309 276h46l-279 -322h-152z" />
    <glyph glyph-name="uni030A.case" 
d="M-302 1450q-73 0 -124.5 52t-51.5 126q0 75 51.5 126.5t124.5 51.5q74 0 126 -52t52 -126q0 -73 -52.5 -125.5t-125.5 -52.5zM-302 1495q56 0 95 38.5t39 94.5t-39 95t-95 39q-55 0 -93 -39t-38 -95t38 -94.5t93 -38.5z" />
    <glyph glyph-name="tildecomb.case" 
d="M-819 1440q-1 113 48.5 178t137.5 65q39 0 73.5 -16.5t52 -32t45.5 -45.5q26 -30 41 -44t43.5 -27.5t62.5 -13.5q65 0 101.5 49.5t37.5 139.5h45q2 -114 -48.5 -182t-139.5 -68q-34 0 -61.5 7.5t-52.5 26.5t-35.5 29t-36.5 37q-25 28 -38.5 41t-39.5 25.5t-56 12.5
q-64 0 -99 -48t-36 -134h-45z" />
    <glyph glyph-name="uni0335.case" 
d="M-981 659v50h817v-50h-817z" />
    <glyph glyph-name="uni0337.case" 
d="M-818 404v65l798 613v-65z" />
    <glyph glyph-name="uni0338.case" 
d="M-1166 25l-39 33l1178 1337l38 -33z" />
    </font>
</defs>
</svg>
