<?xml version="1.0" standalone="no"?>
<!DOCTYPE svg PUBLIC "-//W3C//DTD SVG 1.1//EN" "http://www.w3.org/Graphics/SVG/1.1/DTD/svg11.dtd" >
<svg xmlns="http://www.w3.org/2000/svg" xmlns:xlink="http://www.w3.org/1999/xlink" version="1.1">
<metadata>
Created by FontForge 20170731 at Wed Dec 13 17:12:53 2017
 By ,,,
Copyright (c)2017 HK CartaTM by Alfredo Marco Pradil
</metadata>
<defs>
<font id="HKCarta-ExtraLightItalic" horiz-adv-x="0" >
  <font-face 
    font-family="HK Carta ExtraLight Italic"
    font-weight="200"
    font-style="italic"
    font-stretch="normal"
    units-per-em="2048"
    panose-1="0 0 3 0 0 0 0 0 0 0"
    ascent="1393"
    descent="-655"
    x-height="842"
    cap-height="1353"
    bbox="-1011 -532 2240 1809"
    underline-thickness="50"
    underline-position="-200"
    slope="-12"
    unicode-range="U+0020-FB02"
  />
<missing-glyph horiz-adv-x="1175" 
d="M116 0l287 1352h764l-287 -1352h-764zM179 52h660l265 1248h-660z" />
    <glyph glyph-name="fi" unicode="fi" horiz-adv-x="1079" 
d="M784 1378q133 0 204 -61.5t57 -172.5q-11 -52 -62 -55q-10 0 -17 2t-11.5 7.5t-7.5 9.5t-4.5 13.5t-2 14t-1 16t-0.5 14.5q2 73 -38 112t-123 39q-115 0 -187 -69t-101 -193l-49 -213h541l-172 -742q-5 -23 9.5 -31.5t46.5 -8.5h92l-13 -60h-277l184 782h-426l-299 -1279
h-117l299 1279h-219l13 60h221l50 209q37 160 146 243.5t264 83.5z" />
    <glyph glyph-name="fl" unicode="fl" horiz-adv-x="1070" 
d="M10 -497l299 1279h-221l15 60h221l48 209q37 159 146 243t257 84q135 0 195 -70l137 85l-300 -1293q-5 -23 9.5 -31.5t46.5 -8.5h92l-13 -60h-277l250 1066q28 125 -3.5 188t-137.5 63q-114 0 -184.5 -71t-99.5 -191l-51 -213h290l-15 -60h-288l-299 -1279h-117z" />
    <glyph glyph-name="f_f" unicode="ff" horiz-adv-x="1192" 
d="M1309 1378q114 0 178.5 -60.5t53.5 -173.5q-4 -23 -20.5 -38t-38.5 -17q-24 -1 -36.5 18.5t-10.5 51.5q3 75 -33.5 116.5t-113.5 41.5q-97 0 -165.5 -70t-95.5 -192l-51 -213h289l-14 -60h-289l-298 -1279h-118l299 1279h-419l-299 -1279h-117l299 1279h-219l13 60h221
l50 209q36 159 144 243t254 84q87 0 146.5 -35t80.5 -103q114 138 310 138zM860 842l48 209q7 29 13 45q-26 18 -21 63q3 75 -34 116.5t-113 41.5q-97 0 -166 -70t-97 -192l-49 -213h419z" />
    <glyph glyph-name="f_f_i" unicode="ffi" horiz-adv-x="1616" 
d="M1314 1378q137 0 207 -59.5t58 -174.5q-3 -23 -19.5 -38t-38.5 -17q-17 0 -27 5t-14 20t-4.5 22t-1.5 31q2 73 -39 111.5t-125 38.5q-112 0 -183.5 -69t-99.5 -193l-51 -213h543l-172 -742q-6 -23 8.5 -31.5t46.5 -8.5h92l-12 -60h-277l183 782h-426l-298 -1279h-118
l299 1279h-419l-299 -1279h-117l299 1279h-219l13 60h221l50 209q36 159 144 243t254 84q87 0 146.5 -35t80.5 -103q115 138 315 138zM860 842l48 209q7 29 13 45q-26 18 -21 63q3 75 -34 116.5t-113 41.5q-97 0 -166 -70t-97 -192l-49 -213h419z" />
    <glyph glyph-name="f_f_l" unicode="ffl" horiz-adv-x="1607" 
d="M1344 100q-6 -23 8.5 -31.5t46.5 -8.5h92l-12 -60h-277l249 1066q29 125 -2.5 188t-137.5 63q-115 0 -186 -71.5t-98 -190.5l-51 -213h289l-14 -60h-289l-298 -1279h-118l299 1279h-419l-299 -1279h-117l299 1279h-219l13 60h221l50 209q37 158 145 242.5t251 84.5
q94 0 152 -36.5t77 -101.5q115 138 312 138q135 0 195 -70l137 85zM860 842l48 209q7 29 13 45q-26 20 -22 63q5 73 -32 115.5t-114 42.5q-97 0 -166 -70t-97 -192l-49 -213h419z" />
    <glyph glyph-name=".notdef" horiz-adv-x="1175" 
d="M116 0l287 1352h764l-287 -1352h-764zM179 52h660l265 1248h-660z" />
    <glyph glyph-name=".null" 
 />
    <glyph glyph-name="nonmarkingreturn" horiz-adv-x="682" 
 />
    <glyph glyph-name="space" unicode=" " horiz-adv-x="506" 
 />
    <glyph glyph-name="exclam" unicode="!" horiz-adv-x="564" 
d="M259 446l133 740q4 18 12 66t13 73q3 14 8 23.5t19 17.5t37 8q66 0 47 -70q-4 -20 -15.5 -66l-14.5 -58l-180 -734h-59zM210 -33q-44 0 -76.5 32.5t-32.5 77.5t32 76.5t77 31.5q44 0 75 -31.5t31 -76.5q0 -46 -31 -78t-75 -32z" />
    <glyph glyph-name="quotedbl" unicode="&#x22;" horiz-adv-x="864" 
d="M277 713l74 484q18 110 22 128q11 49 61 49q28 0 40.5 -19.5t4.5 -49.5q-4 -19 -15.5 -61.5t-15.5 -57.5l-127 -473h-44zM669 713l74 484q18 110 22 128q11 49 61 49q28 0 40.5 -19.5t4.5 -49.5q-4 -19 -15.5 -61.5t-15.5 -57.5l-127 -473h-44z" />
    <glyph glyph-name="numbersign" unicode="#" horiz-adv-x="1424" 
d="M157 -36l182 430h-238l17 82h255l173 409h-341l17 82h357l178 422h85l-178 -422h459l178 422h85l-178 -422h225l-18 -82h-241l-171 -409h325l-17 -82h-343l-182 -430h-84l182 430h-462l-181 -430h-84zM458 476h460l172 409h-461z" />
    <glyph glyph-name="dollar" unicode="$" horiz-adv-x="1195" 
d="M940 1333q110 -59 183 -214l-25 -124q-9 -39 -33 -39q-33 0 -30 52q5 85 -27.5 152.5t-94.5 107.5l-207 -502q4 -2 10 -4q37 -13 64.5 -23.5t61.5 -26t58.5 -29.5t51 -34.5t44 -41.5t33 -48.5t21.5 -58t6 -68.5t-9 -80q-16 -77 -56.5 -142t-91 -107t-110.5 -71
t-114.5 -42t-103.5 -13q-99 0 -179 26l-68 -165h-52l75 183q-148 71 -220 271l31 156q8 38 36 38q34 0 28 -52q-14 -123 24.5 -214t126.5 -136l239 579q-42 16 -72 29.5t-65 31t-58.5 35t-47.5 40t-37.5 48.5t-22.5 56.5t-8.5 67.5t9.5 79q30 141 156 233.5t281 92.5
q83 0 149 -23l49 120h53zM661 783l209 507q-55 23 -119 23q-128 0 -220.5 -72.5t-114.5 -176.5q-6 -27 -6 -50.5t3.5 -43t14 -37.5t21.5 -32t30 -28t36.5 -24.5t43.5 -23t48 -21.5t54 -21zM663 644q-1 0 -3 1t-3 1l-239 -581q66 -22 147 -22q51 0 106.5 18t109.5 52
t95.5 93.5t57.5 134.5q6 30 6 56t-4.5 47.5t-16.5 41.5t-25 35t-35 30t-40.5 26t-48 24t-51.5 21.5t-56 21.5z" />
    <glyph glyph-name="percent" unicode="%" horiz-adv-x="1685" 
d="M436 674q-62 0 -105 25.5t-63.5 64t-28.5 88.5t-5.5 93.5t11.5 83.5q35 161 122 253t207 92q57 0 99 -20.5t65 -55.5t33 -82.5t7.5 -99t-14.5 -107.5q-8 -40 -24 -81.5t-44 -88t-63.5 -82.5t-87 -59.5t-109.5 -23.5zM382 0l980 1352h77l-983 -1352h-74zM438 722
q48 0 89 29t68 76.5t44 95t28 97.5q65 306 -93 306q-81 0 -140.5 -81t-93.5 -235q-10 -51 -13 -96t3 -91.5t33 -73.5t75 -27zM1219 -23q-62 0 -105 25.5t-63.5 64.5t-28.5 88.5t-5.5 93t11.5 83.5q34 162 120.5 254t206.5 92q57 0 99 -20.5t65 -55.5t33.5 -82.5t8 -99
t-14.5 -108.5q-9 -40 -24.5 -81.5t-43.5 -88t-63 -82.5t-86.5 -59.5t-109.5 -23.5zM1219 26q39 0 73.5 20t59 50t45 71.5t32.5 79t21 76.5q64 306 -94 306q-81 0 -140.5 -81t-92.5 -234q-11 -52 -14.5 -96.5t2.5 -91t33 -73.5t75 -27z" />
    <glyph glyph-name="ampersand" unicode="&#x26;" horiz-adv-x="1619" 
d="M401 -23q-171 0 -261.5 93.5t-60.5 236.5q28 134 141.5 227.5t382.5 223.5q-51 61 -76.5 98t-43 96t-4.5 119q22 105 114 167.5t219 62.5q130 0 195 -65t42 -170q-35 -171 -306 -314q97 -111 150 -199.5t90 -216.5q83 85 160.5 189t132.5 200q17 27 7.5 42.5t-43.5 15.5
h-99l12 59h396l-12 -59h-70q-62 0 -142 -108q-193 -282 -318 -404q37 -120 57 -153q41 -59 115 -61q87 0 147 64t87 181l59 -11q-33 -158 -122 -235.5t-205 -77.5q-25 0 -47 4t-38.5 9t-32 17.5t-26 20.5t-22 27.5t-17.5 29.5t-16 35.5t-14 36t-14 39.5
q-109 -98 -241.5 -159t-275.5 -61zM704 808q115 61 185 129t88 154q15 69 -29.5 109.5t-137.5 40.5q-90 0 -155.5 -46t-79.5 -120q-12 -63 22 -124.5t107 -142.5zM450 57q221 0 439 201q-41 146 -93 233.5t-158 210.5q-219 -113 -280 -154q-108 -71 -146 -155
q-14 -32 -22 -69q-23 -107 48.5 -187t211.5 -80z" />
    <glyph glyph-name="quotesingle" unicode="'" horiz-adv-x="472" 
d="M277 713l74 484q18 110 22 128q11 49 61 49q28 0 40.5 -19.5t4.5 -49.5q-4 -19 -15.5 -61.5t-15.5 -57.5l-127 -473h-44z" />
    <glyph glyph-name="parenleft" unicode="(" horiz-adv-x="513" 
d="M208 -484q-103 198 -127.5 436t30.5 495q22 103 58.5 211.5t94 233t144.5 251.5t193 233l80 -9q-187 -187 -316 -436.5t-184 -504.5q-108 -500 102 -920z" />
    <glyph glyph-name="parenright" unicode=")" horiz-adv-x="516" 
d="M-159 -484q393 425 500 932q34 161 37 322.5t-31.5 321t-106.5 284.5l74 -9q60 -106 94 -233.5t39 -253.5t-4.5 -237.5t-31.5 -217.5q-54 -251 -178.5 -486.5t-310.5 -432.5z" />
    <glyph glyph-name="asterisk" unicode="*" horiz-adv-x="1115" 
d="M425 465q-26 0 -47 19.5t-21 44.5q0 12 4.5 23t18 27.5t23.5 27t38 38t44 44.5q28 27 128 134q18 23 14 35q-6 15 -31 22q-81 20 -168 34q-23 5 -81.5 13.5t-81.5 12.5q-30 2 -46.5 18t-16.5 42q0 27 17.5 48t42.5 21q34 0 172 -78q54 -29 170 -83q27 -12 38 -1
q12 12 9 35q-3 20 -11 83t-14 97q-18 81 -23 174q-2 26 15.5 45t46.5 19t46.5 -17.5t16.5 -46.5q-4 -65 -21 -165q-6 -35 -26 -189q-3 -23 10 -36q8 -8 37 3q29 13 84.5 41.5t79.5 38.5q19 10 42 22t35.5 18.5t28 14.5t24 12t18 7.5t16.5 5t13 1.5q28 0 45.5 -21.5
t17.5 -47.5t-17.5 -42t-42.5 -18q-24 -5 -83.5 -13.5t-83.5 -14.5q-117 -20 -166 -33q-26 -7 -32 -21q-5 -17 13 -36q123 -128 148 -151q33 -34 44 -46t31 -35t26.5 -37t6.5 -26q0 -26 -21.5 -44.5t-47.5 -18.5q-41 0 -63 64q-28 57 -65 125q-52 99 -84 153q-14 24 -29 24
t-28 -24q-42 -75 -81 -150q-39 -77 -72 -140q-5 -11 -8.5 -17t-11 -15.5t-17.5 -14.5t-23 -5z" />
    <glyph glyph-name="plus" unicode="+" horiz-adv-x="1291" 
d="M657 121v511h-511v87h511v512h87v-512h512v-87h-512v-511h-87z" />
    <glyph glyph-name="comma" unicode="," horiz-adv-x="611" 
d="M17 -344l-5 60q103 27 171 99t82 134q4 15 -1 21t-18 2q-6 -1 -19.5 -3.5t-22.5 -2.5q-41 0 -65.5 33t-15.5 83q9 40 44.5 70t82.5 30q67 0 93 -52t9 -136q-26 -119 -122 -213.5t-213 -124.5z" />
    <glyph glyph-name="hyphen" unicode="-" horiz-adv-x="905" 
d="M143 354l22 104h591l-21 -104h-592z" />
    <glyph glyph-name="period" unicode="." horiz-adv-x="603" 
d="M229 -33q-44 0 -76 32t-32 78q0 45 31.5 76.5t76.5 31.5q44 0 75.5 -31.5t31.5 -76.5q0 -46 -31.5 -78t-75.5 -32z" />
    <glyph glyph-name="slash" unicode="/" horiz-adv-x="804" 
d="M-111 -33l1011 1386h115l-1009 -1386h-117z" />
    <glyph glyph-name="zero" unicode="0" horiz-adv-x="1020" 
d="M420 -23q-76 0 -134 39.5t-96 125.5t-39 221.5t37 326.5q70 332 208.5 507.5t311.5 175.5q110 0 178.5 -76t88 -233.5t-32.5 -398.5q-72 -335 -209.5 -511.5t-312.5 -176.5zM426 38q131 0 232 161t166 475q138 638 -119 638q-133 0 -236 -169.5t-167 -475.5
q-135 -629 124 -629z" />
    <glyph glyph-name="one" unicode="1" horiz-adv-x="1020" 
d="M544 135q-17 -75 55 -75h200l-12 -60h-683l13 60h219q37 0 61.5 23.5t33.5 61.5l234 1106q-71 -65 -142 -90t-197 -25l8 58q148 2 232 41t162 142l78 -4z" />
    <glyph glyph-name="two" unicode="2" horiz-adv-x="1020" 
d="M950 1002q-22 -105 -100.5 -221.5t-216.5 -259.5q-234 -229 -492 -435h534q65 0 96 61l74 139h57l-173 -330l-56 5q12 23 9.5 31t-27.5 8h-640l17 85q339 267 516 470q243 256 288 465q27 130 -22 210.5t-163 80.5q-112 0 -203 -75.5t-114 -185.5q-13 -65 8 -140l-77 -27
q-28 95 -10 177q29 136 150 224.5t270 88.5q156 0 233.5 -102.5t41.5 -268.5z" />
    <glyph glyph-name="three" unicode="3" horiz-adv-x="1020" 
d="M344 -23q-130 0 -211 67.5t-87 158.5q-1 47 43 51q12 1 20 -1t12.5 -10t6.5 -11t5 -18t3 -17q11 -30 23.5 -53t36.5 -50t63.5 -41.5t91.5 -14.5q153 0 277.5 115t160.5 284q16 65 6 111.5t-29 75.5t-51.5 46t-61.5 23t-60 6q-56 0 -104 -24l-69 -36l-23 50l154 86
q294 155 333 336q20 93 -36.5 146t-163.5 53q-122 0 -208 -65.5t-105 -173.5q-10 -56 6 -113l-82 -27q-26 74 -10 151q28 127 148.5 209t277.5 82q144 0 227 -73t57 -196q-11 -48 -41 -94.5t-65 -80.5t-85 -69t-86.5 -55t-82.5 -44q153 2 229 -85t42 -247
q-28 -129 -116.5 -234t-206.5 -161.5t-239 -56.5z" />
    <glyph glyph-name="four" unicode="4" horiz-adv-x="1020" 
d="M329 0l14 60h130q78 0 96 89l69 327h-552l18 95l744 801h96l-176 -828h194l-14 -68h-195l-71 -339q-8 -39 3 -58t55 -19h121l-14 -60h-518zM164 544h490l148 696h-11l-623 -678z" />
    <glyph glyph-name="five" unicode="5" horiz-adv-x="1020" 
d="M949 1265h-496l-121 -494q52 57 126.5 86.5t154.5 29.5q164 0 250 -116t43 -322q-21 -100 -68 -182t-104 -134.5t-125 -88.5t-130 -51.5t-119 -15.5q-64 0 -123.5 18.5t-107.5 61.5t-62 104q-3 18 8 32t29 19q9 -1 14.5 0.5t11 -3.5t8 -6.5t6 -9t4.5 -11t4 -12t4 -12.5
q30 -61 89 -90t128 -29q85 0 168 48t152 149t97 235q33 158 -15.5 254.5t-185.5 96.5q-160 0 -263 -143l-73 4l167 669h578z" />
    <glyph glyph-name="six" unicode="6" horiz-adv-x="1020" 
d="M447 -23q-185 0 -264.5 153.5t-18.5 440.5q84 392 250.5 597t369.5 205q100 0 167 -42.5t88 -117.5q2 -17 -8 -32t-28 -19q-34 -9 -50 45q-62 103 -196 103q-73 0 -138 -42.5t-113 -110t-90.5 -162t-70 -186t-51.5 -195.5q116 232 328 232q163 0 245.5 -112.5
t38.5 -327.5q-43 -195 -173 -312t-286 -117zM449 38q123 0 212.5 102t125.5 273q39 180 -6.5 276t-180.5 96q-230 0 -347 -365q-23 -192 24.5 -287t171.5 -95z" />
    <glyph glyph-name="seven" unicode="7" horiz-adv-x="1020" 
d="M298 -17q-28 1 -37 17t-0.5 41t30.5 57l716 1155h-557q-57 0 -95 -61l-75 -139h-57l178 341h56q-12 -25 -9.5 -33.5t27.5 -8.5h651l-753 -1310q-20 -37 -36.5 -49.5t-38.5 -9.5z" />
    <glyph glyph-name="eight" unicode="8" horiz-adv-x="1020" 
d="M421 -23q-85 0 -155 25t-119.5 74t-67.5 122.5t2 171.5q31 145 129 231t228 120q-88 33 -137.5 114t-22.5 208q22 106 88 182.5t153.5 112t187.5 35.5q159 0 244 -93t50 -258q-25 -119 -106 -195.5t-184 -109.5q114 -33 173.5 -124.5t27.5 -243.5q-38 -176 -175 -274
t-316 -98zM575 746q122 0 204.5 79t112.5 220q26 123 -21.5 195.5t-166.5 72.5q-124 0 -206.5 -79t-110.5 -209q-28 -131 19 -205t169 -74zM424 37q144 0 243.5 92.5t131.5 239.5q32 151 -27 234t-202 83q-145 0 -243.5 -90.5t-129.5 -238.5q-32 -147 25.5 -233.5
t201.5 -86.5z" />
    <glyph glyph-name="nine" unicode="9" horiz-adv-x="1020" 
d="M344 -23q-100 0 -166.5 42.5t-87.5 117.5q-3 17 6.5 32t28.5 19q5 3 11 1t9 -2t7 -4t6 -5.5t5 -7t4.5 -8t4.5 -8.5t4 -9q59 -105 195 -105q72 0 137.5 43t113.5 110t90 162t70 186.5t52 195.5q-116 -233 -328 -233q-163 0 -245.5 113t-38.5 327q43 196 173 312.5
t286 116.5q185 0 264.5 -153t18.5 -440q-56 -263 -154 -446.5t-216 -270t-250 -86.5zM528 565q232 0 347 366q23 192 -25 286.5t-171 94.5t-213 -102t-125 -272q-39 -180 6.5 -276.5t180.5 -96.5z" />
    <glyph glyph-name="colon" unicode=":" horiz-adv-x="595" 
d="M368 647q-44 0 -76 31.5t-32 77.5q0 45 32 77t76 32t75.5 -32t31.5 -77q0 -46 -31.5 -77.5t-75.5 -31.5zM222 -33q-44 0 -76 32t-32 78q0 45 32 76.5t76 31.5t75.5 -31.5t31.5 -76.5q0 -46 -31.5 -78t-75.5 -32z" />
    <glyph glyph-name="semicolon" unicode=";" horiz-adv-x="604" 
d="M369 647q-45 0 -76.5 31.5t-31.5 77.5q0 45 32 77t76 32t75.5 -32t31.5 -77q0 -46 -31.5 -77.5t-75.5 -31.5zM13 -344l-5 60q103 27 171 99t81 134q4 15 -1 21t-17 2q-7 -1 -21 -3.5t-22 -2.5q-41 0 -65.5 33t-15.5 83q10 41 45 70.5t82 29.5q67 0 93.5 -52t8.5 -136
q-25 -119 -121 -213.5t-213 -124.5z" />
    <glyph glyph-name="less" unicode="&#x3c;" horiz-adv-x="1195" 
d="M1069 1139v-95l-831 -369l831 -370v-95l-907 408v113z" />
    <glyph glyph-name="equal" unicode="=" horiz-adv-x="1499" 
d="M197 870v87h1110v-87h-1110zM197 395v87h1110v-87h-1110z" />
    <glyph glyph-name="greater" unicode="&#x3e;" horiz-adv-x="1195" 
d="M233 1139l907 -408v-113l-907 -408v95l831 370l-831 369v95z" />
    <glyph glyph-name="question" unicode="?" horiz-adv-x="884" 
d="M613 1374q166 0 251 -112t52 -271q-33 -153 -143.5 -246.5t-239.5 -93.5q-55 0 -102 18l-48 -223h-64l63 292l50 -4q27 -16 82 -16q104 0 184 87t104 202q16 73 0 142t-68 117t-131 48q-85 0 -165 -50.5t-125 -138.5q-24 -40 -56 -36q-20 2 -30 19t-1 43q49 96 155 159.5
t232 63.5zM272 185q44 0 75.5 -31.5t31.5 -76.5q0 -46 -31.5 -78t-75.5 -32t-76 32t-32 78q0 45 32 76.5t76 31.5z" />
    <glyph glyph-name="at" unicode="@" horiz-adv-x="1973" 
d="M837 -449q-148 0 -275 41t-220.5 116t-154.5 181t-75.5 236.5t14.5 281.5q44 209 151 388.5t256 306.5t338.5 199.5t392.5 72.5q334 0 490 -177t94 -477q-28 -132 -98 -264t-162 -236t-207.5 -169.5t-227.5 -65.5t-144.5 62.5t12.5 165.5q-85 -101 -176 -165.5
t-171 -64.5q-79 0 -119.5 59t-36.5 156.5t49 211.5q80 219 244 378t302 159q65 0 104.5 -34.5t48 -90.5t-0.5 -126l110 225l101 3l-357 -714q-86 -176 65 -176q83 0 181.5 60t186 156.5t157.5 227t98 262.5q57 273 -90 430.5t-447 157.5q-259 0 -488.5 -123t-388 -340
t-216.5 -489q-38 -174 -2 -317.5t124.5 -246.5t228 -159.5t309.5 -56.5q168 0 338.5 64.5t324.5 191.5t257 298l47 -11q-73 -121 -167.5 -221t-194 -167t-206.5 -113t-206.5 -66.5t-192.5 -20.5zM722 63q104 0 246.5 152.5t212.5 339.5q42 99 51 177t-19 122t-89 44
q-78 0 -171.5 -83t-167 -195t-118.5 -224q-60 -142 -43 -237.5t98 -95.5z" />
    <glyph glyph-name="A" unicode="A" horiz-adv-x="1302" 
d="M1127 60h75l-13 -60h-453l13 60h111q33 0 53 20t16 53l-33 326h-533l-189 -328q-18 -37 -7 -54t43 -17h129l-12 -60h-392l12 60h52q29 0 65 32.5t56 68.5l711 1213h90l130 -1224q5 -44 21 -67t55 -23zM398 520h492l-69 679h-32z" />
    <glyph glyph-name="B" unicode="B" horiz-adv-x="1266" 
d="M1232 1014q-31 -120 -117.5 -192t-198.5 -100q56 -15 101.5 -43.5t81.5 -75t44.5 -108.5t-8.5 -144q-18 -73 -59 -133t-94.5 -99.5t-119.5 -66.5t-133.5 -39t-136.5 -12h-612l12 61h100q73 0 94 95l241 1048q18 84 -45 84h-107l13 62l615 -1q194 0 281.5 -90.5
t47.5 -245.5zM1102 1028q34 129 -34 196.5t-227 67.5h-272l-123 -538h284q145 0 239.5 62t132.5 212zM1009 387q40 155 -40.5 230t-251.5 75h-285l-125 -547q-16 -81 44 -81h243q162 0 269.5 87.5t145.5 235.5z" />
    <glyph glyph-name="C" unicode="C" horiz-adv-x="1427" 
d="M596 -23q-104 0 -189.5 37t-141.5 103t-90 155t-35.5 193.5t21.5 219.5q31 137 103.5 263t170 220t221 150t251.5 56q144 0 250.5 -88t148.5 -245l78 277h57l-104 -465l-54 5q3 120 -37 221t-126.5 165.5t-204.5 64.5q-144 0 -275 -92t-219.5 -239.5t-129.5 -323.5
q-32 -134 -22 -246t52 -193t119 -126.5t179 -45.5q168 0 333 129t256 341l56 -6l-107 -472h-56l48 271q-95 -146 -244 -237.5t-309 -91.5z" />
    <glyph glyph-name="D" unicode="D" horiz-adv-x="1465" 
d="M-31 0l13 60h121q36 0 60.5 26t33.5 69l241 1053q10 43 -0.5 64t-48.5 21h-124l12 59h581q156 0 276 -44t195.5 -130.5t99 -214.5t-14.5 -295t-121 -296t-197.5 -209.5t-251 -121.5t-288.5 -41h-587zM383 63h246q233 0 411.5 175t240.5 452q65 287 -50.5 445.5
t-355.5 158.5h-294l-262 -1139q-13 -41 -0.5 -66.5t64.5 -25.5z" />
    <glyph glyph-name="E" unicode="E" horiz-adv-x="1314" 
d="M277 1352h1044l-60 -349l-56 -3l28 214q-1 46 -20 60.5t-63 14.5h-574l-126 -548h375q35 0 63.5 18.5t37.5 56.5l27 117h57l-105 -460h-58l31 135q8 40 -7.5 55t-53.5 15h-381l-120 -523q-12 -47 0 -69.5t56 -22.5h518q56 0 88.5 22.5t53.5 67.5l106 294l57 -3l-132 -444
h-1094l13 60h111q39 0 65.5 25.5t35.5 69.5l240 1052q10 45 -2 65t-59 20h-109z" />
    <glyph glyph-name="F" unicode="F" horiz-adv-x="1194" 
d="M-30 0l13 60h105q86 0 106 95l240 1052q10 47 -2 66t-60 19h-108l13 60h1040l-63 -351l-58 -3l30 208q0 52 -23 67.5t-63 15.5h-564l-125 -547h369q37 0 63.5 21.5t35.5 64.5l25 106h57l-105 -462h-57l29 127q9 43 -4 61.5t-54 18.5h-372l-124 -534q-10 -46 3.5 -65.5
t59.5 -19.5h134l-14 -60h-527z" />
    <glyph glyph-name="G" unicode="G" horiz-adv-x="1476" 
d="M617 -23q-110 0 -199.5 37t-147.5 101.5t-93.5 153.5t-37.5 193.5t22 220.5q42 187 154.5 345.5t269.5 252t322 93.5q158 0 264 -92.5t136 -238.5l79 283h55l-101 -458l-55 5q0 87 -23 164t-67 137.5t-115.5 95.5t-160.5 35q-111 0 -215 -54t-184.5 -144.5t-140 -207
t-88.5 -244.5q-23 -100 -24 -191t22 -168t66.5 -133.5t113.5 -88t160 -31.5q163 0 298.5 92.5t207.5 277.5q9 43 -7.5 61t-59.5 18h-378l15 60h727l-13 -60h-76q-67 0 -89 -98l-96 -417h-59l22 249q-117 -138 -238.5 -193.5t-265.5 -55.5z" />
    <glyph glyph-name="H" unicode="H" horiz-adv-x="1579" 
d="M-31 0l13 60h145q85 0 105 95l240 1052q10 45 -2 65t-56 20h-149l12 60h575l-12 -60h-144q-81 0 -103 -96l-104 -448h742l107 459q10 45 -2.5 65t-55.5 20h-149l12 60h576l-13 -60h-144q-83 0 -104 -96l-241 -1051q-11 -46 2 -65.5t56 -19.5h150l-14 -60h-576l15 60h147
q39 0 65 25.5t35 69.5l120 528h-741l-124 -538q-10 -44 1.5 -64.5t51.5 -20.5h152l-13 -60h-575z" />
    <glyph glyph-name="I" unicode="I" horiz-adv-x="715" 
d="M-31 0l13 60h141q90 0 109 95l240 1053q10 46 -2.5 65.5t-59.5 19.5h-145l12 60h579l-12 -60h-141q-89 0 -109 -96l-241 -1052q-11 -47 2 -66t61 -19h144l-12 -60h-579z" />
    <glyph glyph-name="J" unicode="J" horiz-adv-x="735" 
d="M-130 -498q-59 0 -113 16t-98 48t-62.5 88.5t-2.5 129.5q7 28 32.5 47t57.5 19q34 0 51 -22.5t10 -58.5q-3 -12 -28.5 -40.5t-23.5 -50.5q9 -63 64 -89.5t128 -26.5q152 0 247 111t147 339l273 1195q9 43 -2.5 64t-59.5 21h-274l13 60h671l-13 -60h-108q-86 0 -107 -96
l-267 -1167q-21 -90 -47 -162.5t-70 -143t-99.5 -117t-137 -75.5t-181.5 -29z" />
    <glyph glyph-name="K" unicode="K" horiz-adv-x="1520" 
d="M-32 0l13 60h135q83 0 103 95l240 1052q10 47 -2.5 66t-57.5 19h-135l12 60h567l-13 -60h-144q-87 0 -106 -97l-151 -649l709 638q52 46 59 76q4 16 -8.5 24t-35.5 8h-120l12 60h549l-14 -60h-148q-31 0 -67 -16.5t-54.5 -30t-61.5 -46.5l-370 -328l278 -725
q17 -45 39 -65.5t63 -20.5h150l-14 -60h-576l13 60h118q30 0 51.5 15t26.5 39q3 16 -22 74l-230 599l-364 -329l-73 -313q-11 -46 0.5 -64.5t49.5 -19.5l153 -1l-12 -60h-562z" />
    <glyph glyph-name="L" unicode="L" horiz-adv-x="1234" 
d="M-31 0l12 60h145q87 0 106 95l240 1052q10 45 -2 65t-58 20h-148l13 60h580l-12 -60h-144q-87 0 -107 -96l-240 -1044q-13 -43 -1 -66t63 -23h435q20 0 40 4.5t45 16t48 37.5t40 63l87 265l56 -3l-132 -446h-1066z" />
    <glyph glyph-name="M" unicode="M" horiz-adv-x="1865" 
d="M1621 1352h385l-12 -60h-144q-89 0 -109 -96l-240 -1051q-9 -44 2.5 -64.5t59.5 -20.5h149l-13 -60h-571l13 60h132q87 0 107 95l248 1081h-20l-799 -1236h-73l-222 1236h-14l-246 -1069q-23 -107 56 -107h110l-13 -60h-436l12 60h106q46 0 73 37t36 81l235 1028
q10 44 -1 65t-57 21h-109l13 60h340l218 -1209z" />
    <glyph glyph-name="N" unicode="N" horiz-adv-x="1478" 
d="M1197 1352h443l-15 -60h-103q-38 0 -67.5 -32.5t-39.5 -79.5l-274 -1203h-68l-568 1266l-247 -1079q-25 -104 59 -104h108l-12 -60h-443l13 60h105q47 0 75 37.5t37 77.5l233 1021q20 96 -62 96h-107l13 60h327l520 -1175l234 1014q21 101 -58 101h-115z" />
    <glyph glyph-name="O" unicode="O" horiz-adv-x="1408" 
d="M604 -23q-134 0 -235 53t-155.5 148t-69.5 225.5t22 286.5q32 141 101 265t164.5 217.5t220 147.5t259.5 54q112 0 201 -36.5t144.5 -101.5t87.5 -154.5t31 -195t-25 -223.5q-32 -142 -101.5 -267t-165 -218t-220 -147t-259.5 -54zM606 43q213 0 377.5 175t231.5 470
q66 293 -20 457t-289 164q-212 0 -376 -177.5t-228 -460.5q-24 -102 -27 -195.5t15.5 -172.5t58 -137t105.5 -90.5t152 -32.5z" />
    <glyph glyph-name="P" unicode="P" horiz-adv-x="1162" 
d="M-30 0l13 60h106q86 0 106 95l240 1053q9 43 -2.5 64t-59.5 21h-109l12 59h578q202 0 299 -92.5t56 -278.5q-39 -172 -168.5 -262.5t-319.5 -90.5h-295l-110 -483q-9 -44 2 -64.5t60 -20.5h110l-14 -60h-504zM442 691h279q142 0 234.5 79t126.5 231q66 292 -217 292h-287
z" />
    <glyph glyph-name="Q" unicode="Q" horiz-adv-x="1410" 
d="M604 -23q-134 0 -235 53t-155.5 148t-69.5 225.5t22 286.5q32 141 101 265t164.5 217.5t220 147.5t259.5 54q113 0 202 -37t144 -102t87 -154.5t31 -194.5t-25 -221q-32 -143 -101.5 -268.5t-165 -218.5t-220 -147t-259.5 -54zM606 43q212 0 376.5 174t232.5 471
q65 289 -19.5 455t-289.5 166q-213 0 -376.5 -177.5t-227.5 -460.5q-24 -102 -27 -195.5t15.5 -172.5t58 -137t105.5 -90.5t152 -32.5zM1009 -437q-47 0 -87 12t-74 36.5t-56 45.5t-52 55q-3 4 -17 20t-18 20.5t-17 18t-19 18.5t-18.5 16t-20.5 15t-21 11t-24 9.5t-24.5 5
t-27.5 2.5q-55 0 -123 -36t-171 -112l-27 51q110 81 187 118.5t149 37.5q116 0 240 -121q35 -32 53.5 -47.5t51 -36.5t66.5 -30t74 -9q162 0 278 114l44 -68q-137 -146 -346 -146z" />
    <glyph glyph-name="R" unicode="R" horiz-adv-x="1392" 
d="M-31 0l12 60h105q88 0 109 95l240 1053q9 45 -2.5 64.5t-56.5 19.5h-112l13 60h626q190 0 279.5 -98.5t50.5 -271.5q-30 -131 -124.5 -217.5t-238.5 -120.5q27 -22 48 -57t46 -99l144 -370q11 -30 47 -44t71 -14h66l-13 -60h-256l-174 473q-33 89 -72 122t-112 33h-240
l-110 -483q-10 -46 2.5 -65.5t58.5 -19.5h110l-15 -60h-502zM441 691h279q150 0 253 81.5t137 232.5q32 137 -32.5 210.5t-210.5 73.5h-291z" />
    <glyph glyph-name="S" unicode="S" horiz-adv-x="1108" 
d="M519 -23q-136 0 -228 66t-119 187l-59 -209h-59l106 465l58 -5q-38 -197 38.5 -317.5t256.5 -120.5q48 0 100 18t102.5 52.5t90.5 94.5t58 136q8 33 8.5 61.5t-6.5 52t-17.5 43t-30 37t-38 31t-46.5 27.5t-51.5 24t-57.5 23q-45 19 -66.5 28.5t-61 28.5t-58 31.5
t-47.5 34t-42 40.5t-28.5 46t-19 55.5t-3 65t10.5 77.5q31 141 151.5 233.5t264.5 92.5q100 0 176.5 -57t105.5 -152l55 186h58l-90 -397l-56 6q26 155 -48 253t-199 98q-117 0 -204.5 -72.5t-111.5 -176.5q-11 -37 -7.5 -68.5t10.5 -55.5t27 -45.5t41 -37.5t53 -32
t63.5 -29.5t71.5 -29.5q5 -2 8 -3q39 -16 66.5 -28t62.5 -30t58 -35.5t48.5 -41.5t39 -51.5t23 -60.5t8.5 -73.5t-12 -87.5q-22 -97 -75.5 -173t-120.5 -119t-133 -64.5t-125 -21.5z" />
    <glyph glyph-name="T" unicode="T" horiz-adv-x="1307" 
d="M270 0l14 60h129q90 0 109 95l260 1134h-345q-105 0 -141 -115l-52 -184l-58 3l97 359h1148l-67 -359l-57 -3l33 196q3 64 -18 83.5t-71 19.5h-346l-263 -1144q-10 -42 2 -63.5t62 -21.5h135l-13 -60h-558z" />
    <glyph glyph-name="U" unicode="U" horiz-adv-x="1435" 
d="M617 -23q-244 0 -342 134t-41 386l164 710q10 44 -2.5 64.5t-58.5 20.5h-108l14 60h551l-14 -60h-154q-89 0 -108 -96l-163 -710q-49 -219 20.5 -329.5t271.5 -110.5q416 0 523 461l158 688q21 97 -64 97h-96l13 60h406l-14 -60h-81q-39 0 -68 -30.5t-38 -75.5l-159 -691
q-117 -518 -610 -518z" />
    <glyph glyph-name="V" unicode="V" horiz-adv-x="1360" 
d="M1122 1352h413l-12 -60h-70q-37 0 -67 -27.5t-73 -98.5l-680 -1190h-92l-168 1220q-10 57 -25 76.5t-54 19.5h-85l12 60h546l-13 -60h-172q-49 0 -70.5 -29.5t-13.5 -78.5l149 -1074l606 1069q32 49 29.5 81t-54.5 32h-119z" />
    <glyph glyph-name="W" unicode="W" horiz-adv-x="1876" 
d="M1647 1352h402l-14 -60h-53q-35 0 -65 -31.5t-61 -94.5l-571 -1189h-115l-52 1255l-601 -1255h-117l-54 1229q-3 48 -17 67t-52 19h-68l13 60h517l-28 -60h-180q-22 0 -45 -32t-20 -74l49 -1080h8l600 1261h104l52 -1259l7 -2l504 1060q28 53 25.5 89.5t-49.5 36.5h-131z
" />
    <glyph glyph-name="X" unicode="X" horiz-adv-x="1548" 
d="M-36 0l12 60h70q63 0 148 80l569 538l-290 530q-25 49 -46.5 66.5t-59.5 17.5h-123l12 60h571l-14 -60h-130q-45 0 -62 -29.5t6 -71.5l239 -423l446 428q29 28 39 49.5t-1 34t-44 12.5h-149l13 60h488l-13 -60h-82q-37 0 -71.5 -21.5t-81.5 -66.5l-514 -484l311 -571
q24 -47 48.5 -68t62.5 -21h110l-15 -60h-607l15 60h166q53 0 72.5 31t-6.5 80l-258 457l-489 -467q-45 -43 -42 -72t54 -29h168l-13 -60h-509z" />
    <glyph glyph-name="Y" unicode="Y" horiz-adv-x="1320" 
d="M264 0l13 60h164q86 0 106 95l73 315l-245 748q-14 40 -30.5 57t-48.5 17h-88l13 60h491l-12 -60h-120q-41 0 -58.5 -31t-3.5 -71l215 -643l502 637q38 46 36 77t-51 31h-102l14 60h364l-15 -60h-33q-51 0 -118 -85l-585 -731l-77 -331q-10 -46 2 -65.5t58 -19.5h169
l-13 -60h-620z" />
    <glyph glyph-name="Z" unicode="Z" horiz-adv-x="1307" 
d="M1374 1365l-20 -90l-1211 -1212h751q52 0 91.5 21t72.5 81l93 271l58 -3l-134 -433h-1075l21 94l1203 1208h-687q-124 0 -168 -97l-73 -202l-56 3l116 359h1018z" />
    <glyph glyph-name="bracketleft" unicode="[" horiz-adv-x="657" 
d="M9 -474l388 1826h428l-12 -59h-237q-82 0 -100 -83l-330 -1557q-8 -35 5.5 -51.5t59.5 -16.5h239l-12 -59h-429z" />
    <glyph glyph-name="backslash" unicode="\" horiz-adv-x="788" 
d="M606 -33l-420 1386h98l422 -1386h-100z" />
    <glyph glyph-name="bracketright" unicode="]" horiz-adv-x="657" 
d="M-161 -474l12 59h234q85 0 103 79l331 1556q7 38 -5 55.5t-57 17.5h-242l12 59h429l-388 -1826h-429z" />
    <glyph glyph-name="asciicircum" unicode="^" horiz-adv-x="1079" 
d="M1028 635h-102l-210 613l-476 -613h-99l555 718h83z" />
    <glyph glyph-name="underscore" unicode="_" horiz-adv-x="1358" 
d="M30 -171l16 80h1049l-17 -80h-1048z" />
    <glyph glyph-name="grave" unicode="`" horiz-adv-x="758" 
d="M797 1030l-379 318v4h186l246 -322h-53z" />
    <glyph glyph-name="a" unicode="a" horiz-adv-x="1052" 
d="M368 -22q-162 0 -242.5 129.5t-37.5 321.5q19 85 59.5 158.5t90.5 123.5t108 86t114.5 52.5t107.5 16.5q71 0 139 -32.5t110 -94.5l24 103h116l-166 -722q-8 -26 -0.5 -42t35.5 -16h90l-14 -62h-241l20 104q-154 -126 -313 -126zM408 50q70 0 148 38t137 108l111 475
q-29 59 -84.5 91t-126.5 32q-132 0 -241.5 -111t-146.5 -269q-35 -155 22 -259.5t181 -104.5z" />
    <glyph glyph-name="b" unicode="b" horiz-adv-x="1027" 
d="M458 -22q-81 0 -149 37t-111 102l-79 -123h-50l278 1217q10 43 -2 60.5t-52 11.5l-100 -26l5 59l302 69l-145 -635q136 116 296 116q161 0 247.5 -130t42.5 -324q-43 -188 -185 -311t-298 -123zM437 47q131 0 242.5 117.5t146.5 268.5q19 100 4.5 180.5t-71 131.5
t-140.5 51q-75 0 -150 -39.5t-132 -99.5l-111 -475q27 -61 82.5 -98t128.5 -37z" />
    <glyph glyph-name="c" unicode="c" horiz-adv-x="907" 
d="M391 -24q-176 0 -262 127t-41 325q44 192 187.5 315t318.5 123q108 0 186.5 -53t86.5 -149q1 -25 -11 -41t-34 -18q-25 -2 -35 18t-12 49q-40 134 -188 134q-134 0 -239 -114t-140 -267q-40 -178 17 -280.5t189 -102.5q103 0 189.5 61t142.5 154l46 -36
q-71 -115 -172 -180t-229 -65z" />
    <glyph glyph-name="d" unicode="d" horiz-adv-x="1053" 
d="M368 -22q-162 0 -242.5 129.5t-37.5 321.5q19 85 59.5 158.5t90.5 123.5t108 86t114.5 52.5t107.5 16.5q71 0 139 -32.5t110 -94.5l110 471q9 42 -3.5 60t-53.5 12l-98 -25l5 58l303 70l-289 -1265q-7 -26 0 -42t35 -16h90l-14 -62h-241l20 104q-154 -126 -313 -126z
M408 50q70 0 148 38t137 108l111 475q-29 59 -84.5 91t-126.5 32q-132 0 -241.5 -111t-146.5 -269q-35 -155 22 -259.5t181 -104.5z" />
    <glyph glyph-name="e" unicode="e" horiz-adv-x="902" 
d="M382 -24q-170 0 -252.5 129t-36.5 329q43 191 178 311.5t299 120.5q121 0 200.5 -58.5t79.5 -156.5q0 -47 -24 -84.5t-60.5 -62t-93.5 -42.5t-109 -27.5t-122 -15.5t-117 -7t-109 -2q-40 -176 13 -272.5t183 -96.5q90 0 174 54.5t142 144.5l46 -37
q-71 -106 -174.5 -166.5t-216.5 -60.5zM226 466q73 2 131 6.5t120.5 12.5t108 22t83.5 34t57.5 49t19.5 66q0 73 -48 111t-130 38q-113 0 -208 -96t-134 -243z" />
    <glyph glyph-name="f" unicode="f" horiz-adv-x="604" 
d="M-2 -497l297 1279h-205l12 60h205l50 209q36 158 139 242.5t240 84.5q109 0 169 -60.5t48 -173.5q-9 -50 -57 -55q-23 -1 -35.5 16.5t-11.5 48.5q0 85 -30 124t-102 39q-93 0 -157 -69.5t-92 -192.5l-49 -213h271l-14 -60h-269l-299 -1279h-110z" />
    <glyph glyph-name="g" unicode="g" horiz-adv-x="997" 
d="M253 -497q-50 0 -94 4.5t-86.5 16t-72.5 29.5t-53 44.5t-27.5 63t4.5 83.5q20 85 81.5 134t170.5 74q-159 31 -135 156q12 77 76.5 134t174.5 82q-48 17 -80 48.5t-44.5 67.5t-15.5 76.5t7 74.5q26 119 137.5 196.5t257.5 77.5q83 0 147.5 -30.5t99.5 -85.5
q104 113 183 113q34 0 54.5 -22.5t22.5 -61.5q2 -37 -28 -39q-19 -2 -27 25q-10 34 -43 34q-28 0 -66.5 -28t-73.5 -73q20 -52 3 -129q-20 -86 -83.5 -150.5t-145.5 -95.5t-170 -32q-122 -1 -200.5 -39t-92.5 -102q-10 -43 10 -64.5t77 -32.5q61 -10 258 -10q183 0 254 -54
t42 -184q-31 -137 -172.5 -219t-349.5 -82zM437 353q100 0 179.5 67t104.5 173q11 51 -3 98.5t-58 80.5t-110 33q-103 0 -183 -71.5t-102 -162.5q-19 -84 27.5 -151t144.5 -67zM262 -437q163 0 286.5 62t147.5 168q18 80 -39.5 112.5t-229.5 32.5q-382 0 -428 -202
q-22 -95 45.5 -134t217.5 -39z" />
    <glyph glyph-name="h" unicode="h" horiz-adv-x="1059" 
d="M71 0l276 1209q10 41 -2 59.5t-52 11.5l-100 -26l5 60l304 71l-182 -788q87 115 192 192t200 77q265 0 192 -321l-95 -408q-17 -77 50 -77h93l-13 -60h-275l126 554q16 74 15.5 126.5t-33 80.5t-100.5 28q-66 0 -143 -54t-136 -125.5t-102 -148.5l-104 -461h-116z" />
    <glyph glyph-name="i" unicode="i" horiz-adv-x="517" 
d="M445 1157q-39 0 -65.5 28t-26.5 65q0 38 27 65t65 27t65 -27t27 -65q0 -40 -27 -66.5t-65 -26.5zM108 0l160 698q10 45 -2.5 62t-54.5 10l-102 -26l6 59l307 70l-172 -755q-7 -33 6 -45.5t48 -12.5h92l-13 -60h-275z" />
    <glyph glyph-name="j" unicode="j" horiz-adv-x="486" 
d="M445 1157q-39 0 -65.5 28t-26.5 65q0 38 27 65t65 27t65 -27t27 -65q0 -40 -27 -66.5t-65 -26.5zM-199 -508q-104 0 -158 58t-44 164q2 21 16 33.5t34 13.5q40 3 40 -58q-3 -69 29 -109t104 -40q91 0 154.5 74.5t92.5 202.5l198 867q10 43 -2.5 60.5t-58.5 10.5l-100 -26
l7 60l309 70l-230 -1009q-42 -187 -137 -279.5t-254 -92.5z" />
    <glyph glyph-name="k" unicode="k" horiz-adv-x="1118" 
d="M70 0l277 1211q9 43 -3 61t-53 10l-99 -26l5 60l304 69l-238 -1039l673 496h172l-12 -60h-67q-51 0 -126 -52l-249 -173l225 -428q17 -35 34.5 -52t42.5 -17h61l-13 -60h-190l-257 492l-309 -221l-63 -271h-115z" />
    <glyph glyph-name="l" unicode="l" horiz-adv-x="480" 
d="M70 0l277 1211q9 43 -3 61t-53 10l-99 -26l5 60l304 69l-284 -1248q-19 -77 39 -77h110l-14 -60h-282z" />
    <glyph glyph-name="m" unicode="m" horiz-adv-x="1750" 
d="M137 0l159 693q10 41 -1.5 59t-50.5 12l-101 -26l6 60l302 72l-63 -274q91 115 201.5 192.5t207.5 77.5q238 0 195 -268q90 115 201.5 191.5t207.5 76.5q266 0 192 -321l-94 -408q-9 -39 2 -58t48 -19h92l-13 -60h-275l126 554q30 116 4.5 175.5t-121.5 59.5
q-97 0 -206 -94.5t-181 -213.5l-113 -481h-114l126 554q17 75 16.5 127t-33 80t-101.5 28q-101 0 -215.5 -103.5t-181.5 -224.5l-106 -461h-116z" />
    <glyph glyph-name="n" unicode="n" horiz-adv-x="1097" 
d="M106 0l159 693q10 41 -2 59t-51 12l-101 -26l6 60l303 72l-64 -273q85 114 190.5 191.5t201.5 77.5q266 0 192 -321l-94 -408q-9 -39 2 -58t47 -19h93l-13 -60h-274l125 554q17 75 16 127t-33.5 80t-100.5 28q-51 0 -108 -31t-107 -80.5t-92 -105t-73 -111.5l-106 -461
h-116z" />
    <glyph glyph-name="o" unicode="o" horiz-adv-x="980" 
d="M394 -24q-28 0 -58 5t-68 18.5t-69 36t-61 57t-44 82.5t-18 112.5t17 146.5q20 91 62 165.5t93 123t111.5 81.5t117 47.5t109.5 14.5q52 0 102 -15t97.5 -48.5t77 -86t40.5 -127.5t-13 -174q-24 -103 -71.5 -184t-101 -127.5t-116.5 -76.5t-112.5 -40.5t-94.5 -10.5z
M397 37q46 0 99 22.5t107 66.5t100.5 124t69.5 182q40 176 -15.5 274.5t-174.5 98.5q-120 0 -227 -106t-148 -285q-20 -85 -15 -148.5t23.5 -107t50 -70.5t64 -39t66.5 -12z" />
    <glyph glyph-name="p" unicode="p" horiz-adv-x="1065" 
d="M-5 -497l272 1197q10 42 -2.5 59t-56.5 11l-96 -25l6 59l297 69l-27 -135q69 61 150 94.5t157 33.5q159 0 243.5 -130t41.5 -324q-43 -186 -184.5 -311t-297.5 -125q-82 0 -145.5 35.5t-102.5 93.5l-139 -602h-116zM473 47q90 0 174 58.5t139 145t77 180.5q20 99 5 180
t-71 132t-140 51q-73 0 -149.5 -41t-135.5 -108l-109 -469q30 -62 87 -95.5t123 -33.5z" />
    <glyph glyph-name="q" unicode="q" horiz-adv-x="1025" 
d="M538 -497l134 592q-138 -119 -297 -119q-164 0 -248.5 129t-40.5 323q29 129 107 230.5t177 154t200 52.5q166 0 260 -135l78 121h50l-306 -1348h-114zM407 46q65 0 141 36t142 104l112 477q-29 62 -84.5 98.5t-127.5 36.5q-127 0 -238 -109.5t-150 -278.5
q-17 -69 -10 -134.5t30.5 -116.5t72 -82t112.5 -31z" />
    <glyph glyph-name="r" unicode="r" horiz-adv-x="797" 
d="M108 0l157 695q10 42 -1.5 60t-48.5 11l-104 -25l6 59l291 73l-50 -255q157 248 346 248q67 0 102.5 -37t41.5 -95q2 -24 -10.5 -41t-36.5 -19q-12 -1 -20.5 5t-12.5 13t-10 21q-22 66 -104 66q-80 0 -153.5 -62t-121.5 -151.5t-71 -190.5l-85 -375h-115z" />
    <glyph glyph-name="s" unicode="s" horiz-adv-x="950" 
d="M524 809q-106 0 -179 -39.5t-87 -111.5q-16 -84 67 -116q44 -17 176 -33q75 -10 124.5 -22.5t101.5 -39.5t72.5 -76t9.5 -119q-21 -131 -128 -203.5t-266 -72.5q-108 0 -183 33t-106 87l-53 -120h-45l58 261l52 -2q10 -92 89.5 -147.5t201.5 -55.5q112 0 191.5 48.5
t96.5 137.5q8 40 -4.5 70.5t-32.5 47t-63 29.5t-72.5 18t-85.5 12q-75 9 -119 19t-94 33.5t-68 66.5t-8 107q18 117 116.5 181t247.5 64q198 0 265 -116l47 116h43l-55 -253l-45 1q-4 94 -73.5 144.5t-191.5 50.5z" />
    <glyph glyph-name="t" unicode="t" horiz-adv-x="713" 
d="M341 -24q-113 0 -157.5 79.5t-11.5 228.5l114 498h-193l12 60h129q52 0 96 36.5t57 92.5l36 162h56l-66 -291h312l-12 -60h-312l-114 -495q-29 -120 -7.5 -181t98.5 -61q55 0 104.5 37.5t73.5 106.5l48 -11q-22 -72 -68.5 -119.5t-95 -65t-99.5 -17.5z" />
    <glyph glyph-name="u" unicode="u" horiz-adv-x="1097" 
d="M347 -24q-137 0 -181 81.5t-8 239.5l92 407q8 41 -2.5 59.5t-45.5 18.5h-94l12 60h275l-125 -555q-31 -114 -5.5 -174t123.5 -60t205 101.5t175 225.5l76 324q18 78 -41 78h-106l12 60h281l-161 -703q-9 -42 2.5 -59t51.5 -11l102 25l-8 -60l-300 -57l62 268
q-84 -115 -189 -192t-203 -77z" />
    <glyph glyph-name="v" unicode="v" horiz-adv-x="942" 
d="M730 842h288l-588 -860h-86l-135 727q-9 44 -23.5 58.5t-44.5 14.5h-65l12 60h207l144 -756l405 605q58 91 -8 91h-119z" />
    <glyph glyph-name="w" unicode="w" horiz-adv-x="1438" 
d="M1207 842h292l-502 -862h-100l-104 758l-393 -758h-95l-79 733q-6 41 -19 55t-43 14h-86l12 60h232l80 -737l394 752h95l107 -770l345 600q28 49 23 72t-46 23h-127z" />
    <glyph glyph-name="x" unicode="x" horiz-adv-x="1031" 
d="M-32 0l501 425l-220 314q-28 43 -71 43h-76l13 60h204l234 -353l243 215q34 30 33 54t-39 24h-117l12 60h362l-466 -395l231 -336q18 -29 35.5 -40t42.5 -11h45l-15 -60h-176l-249 380l-275 -241q-21 -19 -30 -37t-0.5 -30t34.5 -12h141l-14 -60h-383z" />
    <glyph glyph-name="y" unicode="y" horiz-adv-x="924" 
d="M-34 -462q-54 -4 -54 48q0 25 15.5 37t45.5 19q93 20 173.5 80.5t168.5 188.5l98 146l-192 661q-19 64 -65 64h-82l14 60h219l189 -663l329 506q61 97 -10 97h-143l12 60h314l-643 -978q-103 -157 -191 -231.5t-198 -94.5z" />
    <glyph glyph-name="z" unicode="z" horiz-adv-x="915" 
d="M906 842l-17 -82l-756 -700h440q60 0 103 80l52 134l56 -2l-88 -272h-707l18 82l754 699l8 1h-426q-51 0 -92 -78l-49 -126l-56 4l87 260h673z" />
    <glyph glyph-name="braceleft" unicode="{" horiz-adv-x="595" 
d="M362 -525q-181 -6 -266 92t-55 249q16 79 75 197t71 175q39 182 -124 192l14 90q96 10 146 66.5t71 149.5q11 51 1.5 169t10.5 199q13 60 47 115t88.5 102.5t137.5 75.5t182 27l-5 -43q-141 -1 -236.5 -74.5t-124.5 -198.5q-17 -74 -9 -191.5t-4 -178.5
q-46 -221 -270 -256l-9 -15q100 -19 144 -89t20 -188q-11 -52 -69.5 -166t-74.5 -202q-25 -125 43 -190.5t199 -63.5z" />
    <glyph glyph-name="bar" unicode="|" horiz-adv-x="599" 
d="M56 -483l390 1835h102l-390 -1835h-102z" />
    <glyph glyph-name="braceright" unicode="}" horiz-adv-x="595" 
d="M-163 -525l3 44q130 -2 230.5 70t130.5 205q19 79 9.5 191t3.5 176q47 219 270 257l10 16q-110 17 -148.5 90.5t-13.5 185.5q10 51 68.5 170t74.5 200q23 117 -40 184t-203 68l3 42q80 1 142.5 -19t98.5 -53.5t59 -77.5t24.5 -92.5t-5.5 -98.5q-14 -77 -73 -193t-71 -175
q-18 -85 7.5 -135.5t115.5 -60.5l-14 -90q-173 -13 -215 -213q-10 -48 -1 -167t-11 -205q-33 -142 -155 -233.5t-300 -85.5z" />
    <glyph glyph-name="asciitilde" unicode="~" horiz-adv-x="1287" 
d="M250 550q0 51 13.5 98.5t40 89.5t75 67.5t111.5 25.5q43 0 86 -15t71.5 -31t93.5 -58q45 -34 63 -46.5t52 -25t71 -12.5q78 0 124.5 51t48.5 143h52q2 -124 -62 -204.5t-182 -80.5q-19 0 -35.5 1t-34 6t-28.5 7t-30 12t-26 12.5t-28 16t-25 16t-29.5 20t-28.5 19.5
q-52 41 -87.5 59t-83.5 18q-79 0 -123.5 -49t-47.5 -140h-51z" />
    <glyph glyph-name="uni00A0" unicode="&#xa0;" horiz-adv-x="549" 
 />
    <glyph glyph-name="exclamdown" unicode="&#xa1;" horiz-adv-x="563" 
d="M353 875q45 0 77 -32.5t32 -77.5t-32 -76.5t-77 -31.5q-44 0 -75 31.5t-31 76.5q0 46 31 78t75 32zM304 396l-133 -740q-4 -19 -12 -66.5t-13 -72.5q-3 -14 -8 -23.5t-19 -17.5t-37 -8q-66 0 -47 70q4 20 15.5 66.5t14.5 57.5l180 734h59z" />
    <glyph glyph-name="cent" unicode="&#xa2;" horiz-adv-x="1043" 
d="M802 1058q79 -20 131.5 -68.5t62.5 -122.5q0 -23 -12 -38.5t-33 -18.5q-27 -1 -37 17.5t-13 49.5q-35 92 -124 121l-308 -746q32 -5 59 -5q111 0 203 60.5t148 153.5l50 -35q-73 -114 -180 -180t-244 -66q-36 0 -64 4l-151 -366h-53l155 376q-137 37 -199.5 155.5
t-26.5 283.5q41 191 191.5 314.5t337.5 123.5q33 0 57 -4l159 385h53zM422 265l306 744q-26 2 -40 2q-98 0 -184 -56t-139.5 -141.5t-74.5 -183.5q-30 -139 5.5 -234t126.5 -131z" />
    <glyph glyph-name="sterling" unicode="&#xa3;" horiz-adv-x="1487" 
d="M70 -35q-26 0 -36 29q-7 22 3 40q36 42 117 111.5t89 77.5q151 168 266 410l-333 -2l35 73l329 1q9 18 71 143.5t98 188.5q103 174 227.5 255t292.5 81q109 0 172.5 -52.5t71.5 -147.5q-1 -19 -14 -32t-30 -17q-23 -1 -35.5 15.5t-15.5 41.5q-19 67 -60.5 98t-111.5 31
q-73 0 -133.5 -23t-109 -68.5t-85 -97.5t-75.5 -126q-30 -52 -84 -161t-66 -132l368 2l-32 -73l-376 -1q-106 -200 -212 -325q74 44 153 44q16 0 31.5 -3t27.5 -6t25.5 -11t22 -13.5t20.5 -17.5l18 -18t17.5 -21.5t15.5 -21t16 -23t15 -21.5q21 -30 32 -44t33.5 -37.5
t42 -34t49.5 -19.5t65 -9q78 0 138 51t86.5 124.5t20.5 149.5q-4 41 40 51q22 2 35 -12t15 -42q7 -53 -21 -120q-39 -112 -143 -194.5t-215 -82.5q-39 0 -72.5 7t-60.5 22.5t-45.5 29t-39.5 39.5t-30 39t-28 42q-20 31 -32.5 47t-32 35t-41.5 27t-49 8q-102 0 -221 -112
q-30 -31 -65.5 -69t-52.5 -56t-37 -36.5t-34.5 -25t-29.5 -6.5z" />
    <glyph glyph-name="currency" unicode="&#xa4;" horiz-adv-x="1284" 
d="M317 297l-44 46l129 127q-92 120 -92 252q0 135 95 256l-132 131l44 46l134 -130q120 95 252 95q138 0 256 -95l132 130l44 -46l-130 -129q94 -124 94 -258q0 -129 -92 -250l128 -129l-44 -46l-132 130q-118 -95 -256 -95q-137 0 -254 94zM703 396q136 0 233.5 96.5
t97.5 230.5q0 137 -98 235.5t-233 98.5q-133 0 -230.5 -99t-97.5 -235q0 -135 96 -231t232 -96z" />
    <glyph glyph-name="yen" unicode="&#xa5;" horiz-adv-x="1558" 
d="M381 0l13 60h184q85 0 105 95l40 190h-492l12 58h492l16 67l-43 108h-427l12 57h392l-225 584q-15 40 -33 57t-50 17h-95l12 60h512l-12 -60h-130q-45 0 -64 -30t-4 -72l260 -644l526 642q24 30 31 53.5t-5.5 37t-44.5 13.5h-128l13 60h397l-13 -60h-32q-55 0 -121 -84
l-479 -574h399l-12 -57h-430l-87 -104l-17 -71h496l-11 -58h-496l-44 -200q-9 -45 3.5 -65t55.5 -20h191l-12 -60h-655z" />
    <glyph glyph-name="brokenbar" unicode="&#xa6;" horiz-adv-x="600" 
d="M488 1066l-167 -786l-101 -475h-102l267 1261h103z" />
    <glyph glyph-name="section" unicode="&#xa7;" horiz-adv-x="1110" 
d="M356 -497q-149 0 -225 71t-55 195q4 25 20 36.5t33 11.5q43 0 42 -66q-9 -94 40.5 -141t160.5 -47q117 0 193 60.5t100 172.5q6 29 4.5 53.5t-11 46.5t-23.5 41.5t-34.5 38.5t-44 37t-51.5 36.5t-58 37.5q-41 26 -62 40q-33 20 -59.5 37.5t-54 39t-47.5 42t-39.5 44.5
t-30 48.5t-19 53.5t-6.5 58.5t7 65.5q26 115 112.5 188t230.5 83q-156 122 -121 287q32 145 139 222t265 77q151 0 225 -71.5t55 -192.5q-4 -23 -19.5 -35t-35.5 -12q-43 0 -41 68q8 90 -41 136.5t-160 46.5q-121 0 -197 -60.5t-99 -172.5q-4 -19 -5 -37t4.5 -35.5t9.5 -31
t17.5 -30t21.5 -27t28.5 -27t30.5 -25t36.5 -26t37 -24.5t41.5 -26q9 -6 14.5 -9.5t14 -8.5t15.5 -10q31 -18 54.5 -33t50.5 -33.5t47 -35.5t40.5 -38.5t34 -42.5t24.5 -46t16 -51.5t4.5 -57.5t-7.5 -64q-29 -133 -120 -201t-219 -74q152 -119 117 -287q-31 -144 -139 -220
t-262 -76zM565 150q131 -17 217.5 38t109.5 165q12 57 -7.5 108.5t-71.5 98t-112.5 84.5t-149.5 83q-132 18 -218.5 -37t-109.5 -166q-12 -56 7 -107t69.5 -97.5t113 -86t152.5 -83.5z" />
    <glyph glyph-name="dieresis" unicode="&#xa8;" horiz-adv-x="784" 
d="M384 1142q-35 0 -58.5 25t-23.5 56q0 34 24 58t58 24t58 -23.5t24 -58.5t-24 -58t-58 -23zM740 1142q-35 0 -58.5 24.5t-23.5 56.5q0 34 24 58t58 24t58 -24t24 -58q0 -35 -24 -58t-58 -23z" />
    <glyph glyph-name="copyright" unicode="&#xa9;" horiz-adv-x="1694" 
d="M899 -25q-142 0 -271 55.5t-222.5 149t-149 223.5t-55.5 273q0 142 56 271t149.5 222.5t222.5 149t270 55.5q190 0 351.5 -93.5t256 -254.5t94.5 -350q0 -114 -35.5 -221t-100.5 -193t-151.5 -151t-193.5 -100.5t-221 -35.5zM899 29q132 0 251.5 51.5t206 138t138 206
t51.5 251.5q0 131 -51.5 250.5t-138 206t-206.5 137.5t-251 51q-130 0 -249.5 -51t-206 -137t-137.5 -206t-51 -251q0 -176 86.5 -325t234.5 -235.5t323 -86.5zM899 247q-175 0 -293.5 118.5t-118.5 307.5q0 188 119.5 309.5t297.5 121.5q130 0 239 -66q60 -34 62 30h40
v-187h-40q-40 90 -119 135t-170 45q-104 0 -182.5 -54.5t-116.5 -140t-38 -186.5q0 -172 92.5 -279.5t243.5 -107.5q108 0 190.5 55.5t121.5 143.5l26 -31q-51 -101 -144.5 -157.5t-209.5 -56.5z" />
    <glyph glyph-name="guillemotleft" unicode="&#xab;" horiz-adv-x="992" 
d="M273 0l-214 440l400 441h66l-351 -441l163 -440h-64zM753 0l-215 440l400 441h67l-351 -441l162 -440h-63z" />
    <glyph glyph-name="logicalnot" unicode="&#xac;" horiz-adv-x="1459" 
d="M1172 334v536h-962v87h1049v-623h-87z" />
    <glyph glyph-name="uni00AD" unicode="&#xad;" horiz-adv-x="905" 
d="M143 354l22 104h591l-21 -104h-592z" />
    <glyph glyph-name="registered" unicode="&#xae;" horiz-adv-x="1694" 
d="M899 1376q142 0 272 -55.5t224 -149t150 -223t56 -271.5q0 -114 -35.5 -221t-100.5 -193t-151.5 -151t-193.5 -100.5t-221 -35.5q-142 0 -271 55.5t-222.5 149t-149 223.5t-55.5 273q0 142 56 271.5t149.5 223t222.5 149t270 55.5zM899 30q132 0 251.5 51.5t206 138
t138 206t51.5 251.5q0 131 -51.5 250.5t-138 206t-206.5 137.5t-251 51q-130 0 -249.5 -51t-206 -137t-137.5 -206t-51 -251q0 -176 86.5 -325t234.5 -235.5t323 -86.5zM1245 359q19 -28 48 -28h49v-42h-128l-183 274q-33 51 -62 69.5t-71 18.5h-157v-279q0 -22 9 -31.5
t31 -9.5h79v-42h-309v42h78q24 0 33 9.5t9 31.5v619q0 43 -40 43h-80v40h393q115 0 184.5 -55t69.5 -155q0 -78 -46.5 -130t-127.5 -70q34 -27 70 -81zM929 692q92 0 144.5 43.5t52.5 127.5q0 81 -51 124t-142 43h-192v-338h188z" />
    <glyph glyph-name="macron" unicode="&#xaf;" horiz-adv-x="898" 
d="M295 1122l37 92h587l-36 -92h-588z" />
    <glyph glyph-name="degree" unicode="&#xb0;" horiz-adv-x="1053" 
d="M653 660q-148 0 -253 105t-105 253t105 253t253 105t253 -105t105 -253t-105 -253t-253 -105zM653 733q119 0 202 83t83 202q0 118 -83 201.5t-202 83.5t-202 -83t-83 -202t83 -202t202 -83z" />
    <glyph glyph-name="plusminus" unicode="&#xb1;" horiz-adv-x="1459" 
d="M701 358v512h-512v87h512v511h87v-511h511v-87h-511v-512h-87zM189 0v87h1110v-87h-1110z" />
    <glyph glyph-name="acute" unicode="&#xb4;" horiz-adv-x="333" 
d="M115 1030h-53l246 322h186v-4z" />
    <glyph glyph-name="uni00B5" unicode="&#xb5;" horiz-adv-x="1309" 
d="M93 -427l241 1131q8 40 -4.5 59t-49.5 19h-102l12 60h291l-118 -555q-26 -126 5 -180t134 -54q107 0 220.5 101.5t183.5 225.5l70 324q17 78 -46 78h-118l12 60h299l-149 -703q-9 -41 4 -59.5t55 -10.5l110 25l-6 -60l-317 -57l58 268q-78 -106 -177 -180.5t-193 -78.5
q-142 -9 -193 68l-104 -481h-118z" />
    <glyph glyph-name="paragraph" unicode="&#xb6;" horiz-adv-x="1144" 
d="M312 -510l245 1141q-73 3 -132 18t-107.5 44t-75.5 72.5t-36.5 105t9.5 141.5q15 71 43 125.5t70 92t92 62.5t117.5 39t138 19.5t161.5 5.5h443l-9 -42h-43q-102 0 -157 -55.5t-77 -155.5l-343 -1613h-56l385 1815h-226l-385 -1815h-57z" />
    <glyph glyph-name="periodcentered" unicode="&#xb7;" horiz-adv-x="606" 
d="M358 566q-46 0 -77.5 31.5t-31.5 79.5q0 46 30.5 76t78.5 30q45 0 76 -30.5t31 -75.5q0 -48 -31 -79.5t-76 -31.5z" />
    <glyph glyph-name="cedilla" unicode="&#xb8;" horiz-adv-x="616" 
d="M85 -489q-99 0 -198 25l14 60q84 -21 171 -21q113 0 178 37.5t65 93.5q0 14 -4.5 26t-15 20t-21 14t-28.5 9.5t-32 6t-37.5 3.5t-38 1.5t-40.5 0.5h-39l46 235l64 -8l-33 -161q55 0 96.5 -5.5t80.5 -20t59.5 -44t20.5 -73.5q0 -83 -83.5 -141t-224.5 -58z" />
    <glyph glyph-name="guillemotright" unicode="&#xbb;" horiz-adv-x="990" 
d="M-5 0l351 440l-162 441h62l216 -441l-403 -440h-64zM474 0l352 440l-162 441h61l216 -441l-402 -440h-65z" />
    <glyph glyph-name="questiondown" unicode="&#xbf;" horiz-adv-x="884" 
d="M612 875q44 0 76 -32t32 -78q0 -45 -32 -76.5t-76 -31.5t-75.5 31.5t-31.5 76.5q0 46 31.5 78t75.5 32zM627 -247q20 -2 30 -19t1 -43q-49 -96 -155 -159.5t-232 -63.5q-166 0 -251 112t-52 271q33 153 143.5 246.5t239.5 93.5q55 0 102 -18l48 223h64l-63 -292l-50 4
q-27 16 -82 16q-104 0 -184 -87t-104 -202q-16 -73 0 -142t68 -117t131 -48q85 0 165 50.5t125 138.5q24 40 56 36z" />
    <glyph glyph-name="Agrave" unicode="&#xc0;" horiz-adv-x="1302" 
d="M901 1438h-53l-379 317v4h186zM1127 60h75l-13 -60h-453l13 60h111q33 0 53 20t16 53l-33 326h-533l-189 -328q-18 -37 -7 -54t43 -17h129l-12 -60h-392l12 60h52q29 0 65 32.5t56 68.5l711 1213h90l130 -1224q5 -44 21 -67t55 -23zM398 520h492l-69 679h-32z" />
    <glyph glyph-name="Aacute" unicode="&#xc1;" horiz-adv-x="1302" 
d="M1095 1759h186v-4l-379 -317h-53zM1051 150q5 -44 21 -67t55 -23h75l-13 -60h-453l13 60h111q33 0 53 20t16 53l-33 326h-533l-189 -328q-18 -37 -7 -54t43 -17h129l-12 -60h-392l12 60h52q29 0 65 32.5t56 68.5l711 1213h90zM398 520h492l-69 679h-32z" />
    <glyph glyph-name="Acircumflex" unicode="&#xc2;" horiz-adv-x="1302" 
d="M957 1729l-327 -259h-49l305 322h164l169 -322h-45zM1051 150q5 -44 21 -67t55 -23h75l-13 -60h-453l13 60h111q33 0 53 20t16 53l-33 326h-533l-189 -328q-18 -37 -7 -54t43 -17h129l-12 -60h-392l12 60h52q29 0 65 32.5t56 68.5l711 1213h90zM398 520h492l-69 679h-32z
" />
    <glyph glyph-name="Atilde" unicode="&#xc3;" horiz-adv-x="1302" 
d="M781 1600q-55 0 -95 -46t-55 -120l-46 11q23 116 81 181t140 65q33 0 61 -15t40.5 -28.5t33.5 -40.5q25 -36 48.5 -54t64.5 -18q56 0 98 46t61 128l45 -10q-22 -115 -81.5 -185.5t-142.5 -70.5q-26 0 -47 6t-40.5 22.5t-25.5 23t-25 31.5q-4 5 -6 7q-17 23 -28.5 35
t-32.5 22t-48 10zM1051 150q5 -44 21 -67t55 -23h75l-13 -60h-453l13 60h111q33 0 53 20t16 53l-33 326h-533l-189 -328q-18 -37 -7 -54t43 -17h129l-12 -60h-392l12 60h52q29 0 65 32.5t56 68.5l711 1213h90zM398 520h492l-69 679h-32z" />
    <glyph glyph-name="Adieresis" unicode="&#xc4;" horiz-adv-x="1302" 
d="M697 1524q-35 0 -58.5 25t-23.5 57q0 34 24 57.5t58 23.5t58 -23.5t24 -57.5q0 -36 -24.5 -59t-57.5 -23zM1053 1524q-35 0 -58.5 24.5t-23.5 57.5q0 34 24 57.5t58 23.5t58 -23.5t24 -57.5q0 -35 -24.5 -58.5t-57.5 -23.5zM1127 60h75l-13 -60h-453l13 60h111
q33 0 53 20t16 53l-33 326h-533l-189 -328q-18 -37 -7 -54t43 -17h129l-12 -60h-392l12 60h52q29 0 65 32.5t56 68.5l711 1213h90l130 -1224q5 -44 21 -67t55 -23zM398 520h492l-69 679h-32z" />
    <glyph glyph-name="Aring" unicode="&#xc5;" horiz-adv-x="1302" 
d="M916 1446q-75 0 -128 53t-53 129t53 128.5t128 52.5q74 0 127.5 -53t53.5 -128q0 -74 -53.5 -128t-127.5 -54zM916 1759q-54 0 -91.5 -38t-37.5 -93t37.5 -93t91.5 -38q55 0 92.5 38t37.5 93t-37.5 93t-92.5 38zM1127 60h75l-13 -60h-453l13 60h111q33 0 53 20t16 53
l-33 326h-533l-189 -328q-18 -37 -7 -54t43 -17h129l-12 -60h-392l12 60h52q29 0 65 32.5t56 68.5l711 1213h90l130 -1224q5 -44 21 -67t55 -23zM398 520h492l-69 679h-32z" />
    <glyph glyph-name="AE" unicode="&#xc6;" horiz-adv-x="1866" 
d="M1802 1003l-56 -3l21 214q-2 45 -21.5 60t-64.5 15h-574l-107 -548h376q35 0 62 19t35 56l23 117h57l-90 -460h-58l27 135q7 40 -9.5 55t-54.5 15h-380l-104 -523q-10 -48 2 -70t58 -22h518q56 0 87.5 22t51.5 68l95 294l57 -3l-118 -444h-1093l11 60h111q78 0 99 95
l58 304h-434l-215 -328q-22 -37 -10 -53.5t47 -16.5l129 -1l-11 -60h-392l12 60l50 5q43 13 68.5 36t49.5 60l788 1191h948zM833 520l149 769h-50l-505 -769h406z" />
    <glyph glyph-name="Ccedilla" unicode="&#xc7;" horiz-adv-x="1427" 
d="M1384 1318h57l-104 -465l-54 5q3 120 -37 221t-126.5 165.5t-204.5 64.5q-144 0 -275 -92t-219.5 -239.5t-129.5 -323.5q-32 -134 -22 -246t52 -193t119 -126.5t179 -45.5q168 0 333 129t256 341l56 -6l-107 -472h-56l48 271q-91 -139 -232 -230t-294 -98l-26 -125
q55 0 96.5 -5.5t80.5 -20t59.5 -44t20.5 -73.5q0 -83 -83.5 -141t-224.5 -58q-99 0 -198 25l14 60q84 -21 171 -21q113 0 178 37.5t65 93.5q0 14 -4.5 26t-15 20t-21 14t-28.5 9.5t-32 6t-37.5 3.5t-38 1.5t-40.5 0.5h-39l37 191q-96 7 -174.5 47.5t-130 106t-82 153.5
t-31.5 188.5t22 211.5q31 137 103.5 263t170 220t221 150t251.5 56q144 0 250.5 -88t148.5 -245z" />
    <glyph glyph-name="Egrave" unicode="&#xc8;" horiz-adv-x="1314" 
d="M892 1438h-53l-379 317v4h186zM277 1352h1044l-60 -349l-56 -3l28 214q-1 46 -20 60.5t-63 14.5h-574l-126 -548h375q35 0 63.5 18.5t37.5 56.5l27 117h57l-105 -460h-58l31 135q8 40 -7.5 55t-53.5 15h-381l-120 -523q-12 -47 0 -69.5t56 -22.5h518q56 0 88.5 22.5
t53.5 67.5l106 294l57 -3l-132 -444h-1094l13 60h111q39 0 65.5 25.5t35.5 69.5l240 1052q10 45 -2 65t-59 20h-109z" />
    <glyph glyph-name="Eacute" unicode="&#xc9;" horiz-adv-x="1314" 
d="M1272 1755l-379 -317h-53l246 321h186v-4zM277 1352h1044l-60 -349l-56 -3l28 214q-1 46 -20 60.5t-63 14.5h-574l-126 -548h375q35 0 63.5 18.5t37.5 56.5l27 117h57l-105 -460h-58l31 135q8 40 -7.5 55t-53.5 15h-381l-120 -523q-12 -47 0 -69.5t56 -22.5h518
q56 0 88.5 22.5t53.5 67.5l106 294l57 -3l-132 -444h-1094l13 60h111q39 0 65.5 25.5t35.5 69.5l240 1052q10 45 -2 65t-59 20h-109z" />
    <glyph glyph-name="Ecircumflex" unicode="&#xca;" horiz-adv-x="1314" 
d="M948 1729l-327 -259h-49l305 322h164l169 -322h-45zM277 1352h1044l-60 -349l-56 -3l28 214q-1 46 -20 60.5t-63 14.5h-574l-126 -548h375q35 0 63.5 18.5t37.5 56.5l27 117h57l-105 -460h-58l31 135q8 40 -7.5 55t-53.5 15h-381l-120 -523q-12 -47 0 -69.5t56 -22.5h518
q56 0 88.5 22.5t53.5 67.5l106 294l57 -3l-132 -444h-1094l13 60h111q39 0 65.5 25.5t35.5 69.5l240 1052q10 45 -2 65t-59 20h-109z" />
    <glyph glyph-name="Edieresis" unicode="&#xcb;" horiz-adv-x="1314" 
d="M688 1524q-35 0 -58.5 25t-23.5 57q0 34 24 57.5t58 23.5t58 -23.5t24 -57.5q0 -36 -24.5 -59t-57.5 -23zM1044 1524q-35 0 -58.5 24.5t-23.5 57.5q0 34 24 57.5t58 23.5t58 -23.5t24 -57.5q0 -35 -24.5 -58.5t-57.5 -23.5zM277 1352h1044l-60 -349l-56 -3l28 214
q-1 46 -20 60.5t-63 14.5h-574l-126 -548h375q35 0 63.5 18.5t37.5 56.5l27 117h57l-105 -460h-58l31 135q8 40 -7.5 55t-53.5 15h-381l-120 -523q-12 -47 0 -69.5t56 -22.5h518q56 0 88.5 22.5t53.5 67.5l106 294l57 -3l-132 -444h-1094l13 60h111q39 0 65.5 25.5
t35.5 69.5l240 1052q10 45 -2 65t-59 20h-109z" />
    <glyph glyph-name="Igrave" unicode="&#xcc;" horiz-adv-x="715" 
d="M541 1438l-379 317v4h186l246 -321h-53zM-31 0l13 60h141q90 0 109 95l240 1053q10 46 -2.5 65.5t-59.5 19.5h-145l12 60h579l-12 -60h-141q-89 0 -109 -96l-241 -1052q-11 -47 2 -66t61 -19h144l-12 -60h-579z" />
    <glyph glyph-name="Iacute" unicode="&#xcd;" horiz-adv-x="715" 
d="M542 1438l246 321h186v-4l-379 -317h-53zM-31 0l13 60h141q90 0 109 95l240 1053q10 46 -2.5 65.5t-59.5 19.5h-145l12 60h579l-12 -60h-141q-89 0 -109 -96l-241 -1052q-11 -47 2 -66t61 -19h144l-12 -60h-579z" />
    <glyph glyph-name="Icircumflex" unicode="&#xce;" horiz-adv-x="715" 
d="M274 1470l305 322h164l169 -322h-45l-217 259l-327 -259h-49zM-31 0l13 60h141q90 0 109 95l240 1053q10 46 -2.5 65.5t-59.5 19.5h-145l12 60h579l-12 -60h-141q-89 0 -109 -96l-241 -1052q-11 -47 2 -66t61 -19h144l-12 -60h-579z" />
    <glyph glyph-name="Idieresis" unicode="&#xcf;" horiz-adv-x="715" 
d="M390 1524q-35 0 -58.5 25t-23.5 57q0 34 24 57.5t58 23.5t58 -23.5t24 -57.5q0 -36 -24.5 -59t-57.5 -23zM746 1524q-35 0 -58.5 24.5t-23.5 57.5q0 34 24 57.5t58 23.5t58 -23.5t24 -57.5q0 -35 -24.5 -58.5t-57.5 -23.5zM-31 0l13 60h141q90 0 109 95l240 1053
q10 46 -2.5 65.5t-59.5 19.5h-145l12 60h579l-12 -60h-141q-89 0 -109 -96l-241 -1052q-11 -47 2 -66t61 -19h144l-12 -60h-579z" />
    <glyph glyph-name="Eth" unicode="&#xd0;" horiz-adv-x="1465" 
d="M858 1352q156 0 276 -44t195.5 -130.5t99 -214.5t-14.5 -295t-121 -296t-197.5 -209.5t-251 -121.5t-288.5 -41h-587l13 60h121q36 0 60.5 26t33.5 69l112 489h-182l12 63h184l115 501q10 43 -0.5 64t-48.5 21h-124l12 59h581zM1281 690q65 287 -50.5 445.5t-355.5 158.5
h-294l-135 -587h429l-13 -63h-431l-112 -489q-13 -41 -0.5 -66.5t64.5 -25.5h246q233 0 411.5 175t240.5 452z" />
    <glyph glyph-name="Ntilde" unicode="&#xd1;" horiz-adv-x="1478" 
d="M861 1600q-55 0 -95 -46t-55 -120l-46 11q23 116 81 181t140 65q33 0 61 -15t40.5 -28.5t33.5 -40.5q25 -36 48.5 -54t64.5 -18q56 0 98 46t61 128l45 -10q-22 -115 -81.5 -185.5t-142.5 -70.5q-26 0 -47 6t-40.5 22.5t-25.5 23t-25 31.5q-4 5 -6 7q-17 23 -28.5 35
t-32.5 22t-48 10zM1197 1352h443l-15 -60h-103q-38 0 -67.5 -32.5t-39.5 -79.5l-274 -1203h-68l-568 1266l-247 -1079q-25 -104 59 -104h108l-12 -60h-443l13 60h105q47 0 75 37.5t37 77.5l233 1021q20 96 -62 96h-107l13 60h327l520 -1175l234 1014q21 101 -58 101h-115z
" />
    <glyph glyph-name="Ograve" unicode="&#xd2;" horiz-adv-x="1408" 
d="M885 1438l-379 317v4h186l246 -321h-53zM604 -23q-134 0 -235 53t-155.5 148t-69.5 225.5t22 286.5q32 141 101 265t164.5 217.5t220 147.5t259.5 54q112 0 201 -36.5t144.5 -101.5t87.5 -154.5t31 -195t-25 -223.5q-32 -142 -101.5 -267t-165 -218t-220 -147t-259.5 -54
zM606 43q213 0 377.5 175t231.5 470q66 293 -20 457t-289 164q-212 0 -376 -177.5t-228 -460.5q-24 -102 -27 -195.5t15.5 -172.5t58 -137t105.5 -90.5t152 -32.5z" />
    <glyph glyph-name="Oacute" unicode="&#xd3;" horiz-adv-x="1408" 
d="M886 1438l246 321h186v-4l-379 -317h-53zM604 -23q-134 0 -235 53t-155.5 148t-69.5 225.5t22 286.5q32 141 101 265t164.5 217.5t220 147.5t259.5 54q112 0 201 -36.5t144.5 -101.5t87.5 -154.5t31 -195t-25 -223.5q-32 -142 -101.5 -267t-165 -218t-220 -147
t-259.5 -54zM606 43q213 0 377.5 175t231.5 470q66 293 -20 457t-289 164q-212 0 -376 -177.5t-228 -460.5q-24 -102 -27 -195.5t15.5 -172.5t58 -137t105.5 -90.5t152 -32.5z" />
    <glyph glyph-name="Ocircumflex" unicode="&#xd4;" horiz-adv-x="1408" 
d="M618 1470l305 322h164l169 -322h-45l-217 259l-327 -259h-49zM604 -23q-134 0 -235 53t-155.5 148t-69.5 225.5t22 286.5q32 141 101 265t164.5 217.5t220 147.5t259.5 54q112 0 201 -36.5t144.5 -101.5t87.5 -154.5t31 -195t-25 -223.5q-32 -142 -101.5 -267t-165 -218
t-220 -147t-259.5 -54zM606 43q213 0 377.5 175t231.5 470q66 293 -20 457t-289 164q-212 0 -376 -177.5t-228 -460.5q-24 -102 -27 -195.5t15.5 -172.5t58 -137t105.5 -90.5t152 -32.5z" />
    <glyph glyph-name="Otilde" unicode="&#xd5;" horiz-adv-x="1408" 
d="M668 1434l-46 11q23 116 81 181t140 65q33 0 61 -15t40.5 -28.5t33.5 -40.5q25 -36 48.5 -54t64.5 -18q56 0 98 46t61 128l45 -10q-22 -115 -81.5 -185.5t-142.5 -70.5q-26 0 -47 6t-40.5 22.5t-25.5 23t-25 31.5q-4 5 -6 7q-17 23 -28.5 35t-32.5 22t-48 10
q-55 0 -95 -46t-55 -120zM604 -23q-134 0 -235 53t-155.5 148t-69.5 225.5t22 286.5q32 141 101 265t164.5 217.5t220 147.5t259.5 54q112 0 201 -36.5t144.5 -101.5t87.5 -154.5t31 -195t-25 -223.5q-32 -142 -101.5 -267t-165 -218t-220 -147t-259.5 -54zM606 43
q213 0 377.5 175t231.5 470q66 293 -20 457t-289 164q-212 0 -376 -177.5t-228 -460.5q-24 -102 -27 -195.5t15.5 -172.5t58 -137t105.5 -90.5t152 -32.5z" />
    <glyph glyph-name="Odieresis" unicode="&#xd6;" horiz-adv-x="1408" 
d="M734 1524q-35 0 -58.5 25t-23.5 57q0 34 24 57.5t58 23.5t58 -23.5t24 -57.5q0 -36 -24.5 -59t-57.5 -23zM1090 1524q-35 0 -58.5 24.5t-23.5 57.5q0 34 24 57.5t58 23.5t58 -23.5t24 -57.5q0 -35 -24.5 -58.5t-57.5 -23.5zM604 -23q-134 0 -235 53t-155.5 148
t-69.5 225.5t22 286.5q32 141 101 265t164.5 217.5t220 147.5t259.5 54q112 0 201 -36.5t144.5 -101.5t87.5 -154.5t31 -195t-25 -223.5q-32 -142 -101.5 -267t-165 -218t-220 -147t-259.5 -54zM606 43q213 0 377.5 175t231.5 470q66 293 -20 457t-289 164
q-212 0 -376 -177.5t-228 -460.5q-24 -102 -27 -195.5t15.5 -172.5t58 -137t105.5 -90.5t152 -32.5z" />
    <glyph glyph-name="multiply" unicode="&#xd7;" horiz-adv-x="1162" 
d="M265 224l-61 62l362 360l-362 363l61 61l363 -361l360 361l61 -61l-360 -363l360 -360l-61 -62l-360 361z" />
    <glyph glyph-name="Oslash" unicode="&#xd8;" horiz-adv-x="1408" 
d="M1274 1214q75 -98 95 -242t-19 -309q-32 -142 -101.5 -267t-165 -218t-220 -147t-259.5 -54q-196 0 -319 112l-91 -103l-47 40l96 109q-76 96 -96 238t19 317q32 141 101 265t164.5 217.5t220 147.5t259.5 54q200 0 322 -114l91 104l46 -41zM302 671q-64 -277 16 -450
l851 967q-89 121 -263 121q-212 0 -376 -177.5t-228 -460.5zM1215 688q63 277 -13 444l-851 -968q86 -121 255 -121q213 0 377.5 175t231.5 470z" />
    <glyph glyph-name="Ugrave" unicode="&#xd9;" horiz-adv-x="1435" 
d="M888 1438l-379 317v4h186l246 -321h-53zM617 -23q-244 0 -342 134t-41 386l164 710q10 44 -2.5 64.5t-58.5 20.5h-108l14 60h551l-14 -60h-154q-89 0 -108 -96l-163 -710q-49 -219 20.5 -329.5t271.5 -110.5q416 0 523 461l158 688q21 97 -64 97h-96l13 60h406l-14 -60
h-81q-39 0 -68 -30.5t-38 -75.5l-159 -691q-117 -518 -610 -518z" />
    <glyph glyph-name="Uacute" unicode="&#xda;" horiz-adv-x="1435" 
d="M889 1438l246 321h186v-4l-379 -317h-53zM617 -23q-244 0 -342 134t-41 386l164 710q10 44 -2.5 64.5t-58.5 20.5h-108l14 60h551l-14 -60h-154q-89 0 -108 -96l-163 -710q-49 -219 20.5 -329.5t271.5 -110.5q416 0 523 461l158 688q21 97 -64 97h-96l13 60h406l-14 -60
h-81q-39 0 -68 -30.5t-38 -75.5l-159 -691q-117 -518 -610 -518z" />
    <glyph glyph-name="Ucircumflex" unicode="&#xdb;" horiz-adv-x="1435" 
d="M621 1470l305 322h164l169 -322h-45l-217 259l-327 -259h-49zM617 -23q-244 0 -342 134t-41 386l164 710q10 44 -2.5 64.5t-58.5 20.5h-108l14 60h551l-14 -60h-154q-89 0 -108 -96l-163 -710q-49 -219 20.5 -329.5t271.5 -110.5q416 0 523 461l158 688q21 97 -64 97h-96
l13 60h406l-14 -60h-81q-39 0 -68 -30.5t-38 -75.5l-159 -691q-117 -518 -610 -518z" />
    <glyph glyph-name="Udieresis" unicode="&#xdc;" horiz-adv-x="1435" 
d="M737 1524q-35 0 -58.5 25t-23.5 57q0 34 24 57.5t58 23.5t58 -23.5t24 -57.5q0 -36 -24.5 -59t-57.5 -23zM1093 1524q-35 0 -58.5 24.5t-23.5 57.5q0 34 24 57.5t58 23.5t58 -23.5t24 -57.5q0 -35 -24.5 -58.5t-57.5 -23.5zM617 -23q-244 0 -342 134t-41 386l164 710
q10 44 -2.5 64.5t-58.5 20.5h-108l14 60h551l-14 -60h-154q-89 0 -108 -96l-163 -710q-49 -219 20.5 -329.5t271.5 -110.5q416 0 523 461l158 688q21 97 -64 97h-96l13 60h406l-14 -60h-81q-39 0 -68 -30.5t-38 -75.5l-159 -691q-117 -518 -610 -518z" />
    <glyph glyph-name="Yacute" unicode="&#xdd;" horiz-adv-x="1320" 
d="M835 1438l246 321h186v-4l-379 -317h-53zM264 0l13 60h164q86 0 106 95l73 315l-245 748q-14 40 -30.5 57t-48.5 17h-88l13 60h491l-12 -60h-120q-41 0 -58.5 -31t-3.5 -71l215 -643l502 637q38 46 36 77t-51 31h-102l14 60h364l-15 -60h-33q-51 0 -118 -85l-585 -731
l-77 -331q-10 -46 2 -65.5t58 -19.5h169l-13 -60h-620z" />
    <glyph glyph-name="Thorn" unicode="&#xde;" horiz-adv-x="1133" 
d="M-95 0l12 60h102q86 0 106 95l224 1053q9 46 -3.5 65.5t-59.5 19.5h-106l13 60h498l-13 -60h-100q-41 0 -68.5 -20.5t-35.5 -55.5l-16 -74h280q200 0 291.5 -95t53.5 -274q-35 -169 -160 -261.5t-322 -92.5h-295l-57 -275q-9 -43 3 -64t61 -21h109l-13 -60h-504zM319 483
h281q140 0 232 79.5t125 231.5q30 141 -25 216t-199 75h-285z" />
    <glyph glyph-name="germandbls" unicode="&#xdf;" horiz-adv-x="1214" 
d="M734 -20q-45 0 -78.5 10.5t-50.5 28t-27.5 39t-10 43.5t2.5 42q4 39 28 39q28 0 22 -43q-5 -26 -0.5 -47t30 -38t73.5 -17q98 0 168 85t103 238q37 173 -53.5 254t-298.5 79l8 61q58 1 103.5 7.5t93 25t82 49.5t63.5 83.5t44 122.5q28 134 -27 206.5t-199 72.5
q-304 0 -388 -394l-165 -796q-8 -36 1.5 -53.5t43.5 -17.5h114l-13 -60h-458l13 60h89q77 0 96 88l155 746q23 111 61 196.5t98 153t150 103t207 35.5q203 0 285.5 -95t46.5 -263q-25 -121 -104.5 -194t-186.5 -102q155 -24 224 -122.5t34 -260.5q-36 -170 -139 -267.5
t-240 -97.5z" />
    <glyph glyph-name="agrave" unicode="&#xe0;" horiz-adv-x="1052" 
d="M623 1030l-379 318v4h186l246 -322h-53zM368 -22q-162 0 -242.5 129.5t-37.5 321.5q19 85 59.5 158.5t90.5 123.5t108 86t114.5 52.5t107.5 16.5q71 0 139 -32.5t110 -94.5l24 103h116l-166 -722q-8 -26 -0.5 -42t35.5 -16h90l-14 -62h-241l20 104q-154 -126 -313 -126z
M408 50q70 0 148 38t137 108l111 475q-29 59 -84.5 91t-126.5 32q-132 0 -241.5 -111t-146.5 -269q-35 -155 22 -259.5t181 -104.5z" />
    <glyph glyph-name="aacute" unicode="&#xe1;" horiz-adv-x="1052" 
d="M623 1030h-53l246 322h186v-4zM368 -22q-162 0 -242.5 129.5t-37.5 321.5q19 85 59.5 158.5t90.5 123.5t108 86t114.5 52.5t107.5 16.5q71 0 139 -32.5t110 -94.5l24 103h116l-166 -722q-8 -26 -0.5 -42t35.5 -16h90l-14 -62h-241l20 104q-154 -126 -313 -126zM408 50
q70 0 148 38t137 108l111 475q-29 59 -84.5 91t-126.5 32q-132 0 -241.5 -111t-146.5 -269q-35 -155 22 -259.5t181 -104.5z" />
    <glyph glyph-name="acircumflex" unicode="&#xe2;" horiz-adv-x="1052" 
d="M343 1030l311 322h154l174 -322h-47l-216 259l-326 -259h-50zM368 -22q-162 0 -242.5 129.5t-37.5 321.5q19 85 59.5 158.5t90.5 123.5t108 86t114.5 52.5t107.5 16.5q71 0 139 -32.5t110 -94.5l24 103h116l-166 -722q-8 -26 -0.5 -42t35.5 -16h90l-14 -62h-241l20 104
q-154 -126 -313 -126zM408 50q70 0 148 38t137 108l111 475q-29 59 -84.5 91t-126.5 32q-132 0 -241.5 -111t-146.5 -269q-35 -155 22 -259.5t181 -104.5z" />
    <glyph glyph-name="atilde" unicode="&#xe3;" horiz-adv-x="1052" 
d="M393 999l-46 11q25 116 82.5 181t138.5 65q33 0 62 -15.5t41 -29t35 -41.5q18 -25 29 -37t32.5 -23t49.5 -11q56 0 97.5 46t60.5 129l47 -11q-23 -115 -82 -185.5t-142 -70.5q-12 0 -22.5 1.5t-19 3.5t-18 7t-15 7t-14 10t-11.5 10.5t-12 12.5t-10 11.5t-10 13.5l-9 11
q-18 24 -29.5 36.5t-33.5 23t-50 10.5q-54 0 -94.5 -46.5t-56.5 -119.5zM368 -22q-162 0 -242.5 129.5t-37.5 321.5q19 85 59.5 158.5t90.5 123.5t108 86t114.5 52.5t107.5 16.5q71 0 139 -32.5t110 -94.5l24 103h116l-166 -722q-8 -26 -0.5 -42t35.5 -16h90l-14 -62h-241
l20 104q-154 -126 -313 -126zM408 50q70 0 148 38t137 108l111 475q-29 59 -84.5 91t-126.5 32q-132 0 -241.5 -111t-146.5 -269q-35 -155 22 -259.5t181 -104.5z" />
    <glyph glyph-name="adieresis" unicode="&#xe4;" horiz-adv-x="1052" 
d="M443 1142q-35 0 -58.5 25t-23.5 56q0 34 24 58t58 24q35 0 58.5 -23.5t23.5 -58.5t-24 -58t-58 -23zM799 1142q-35 0 -58.5 24.5t-23.5 56.5q0 34 24 58t58 24t58 -24t24 -58q0 -35 -24 -58t-58 -23zM368 -22q-162 0 -242.5 129.5t-37.5 321.5q19 85 59.5 158.5
t90.5 123.5t108 86t114.5 52.5t107.5 16.5q71 0 139 -32.5t110 -94.5l24 103h116l-166 -722q-8 -26 -0.5 -42t35.5 -16h90l-14 -62h-241l20 104q-154 -126 -313 -126zM408 50q70 0 148 38t137 108l111 475q-29 59 -84.5 91t-126.5 32q-132 0 -241.5 -111t-146.5 -269
q-35 -155 22 -259.5t181 -104.5z" />
    <glyph glyph-name="aring" unicode="&#xe5;" horiz-adv-x="1052" 
d="M623 965q-76 0 -129 53t-53 130q0 76 53 129.5t129 53.5t129.5 -53.5t53.5 -129.5t-53.5 -129.5t-129.5 -53.5zM623 1016q56 0 94 38t38 94t-38.5 94t-93.5 38t-92.5 -38t-37.5 -94t37.5 -94t92.5 -38zM368 -22q-162 0 -242.5 129.5t-37.5 321.5q19 85 59.5 158.5
t90.5 123.5t108 86t114.5 52.5t107.5 16.5q71 0 139 -32.5t110 -94.5l24 103h116l-166 -722q-8 -26 -0.5 -42t35.5 -16h90l-14 -62h-241l20 104q-154 -126 -313 -126zM408 50q70 0 148 38t137 108l111 475q-29 59 -84.5 91t-126.5 32q-132 0 -241.5 -111t-146.5 -269
q-35 -155 22 -259.5t181 -104.5z" />
    <glyph glyph-name="ae" unicode="&#xe6;" horiz-adv-x="1486" 
d="M1408 431h-642q-18 -78 -12 -148.5t29 -124t73 -85.5t121 -32q89 0 171.5 54t138.5 145l46 -37q-67 -106 -168.5 -166.5t-214.5 -60.5q-118 0 -198 65.5t-106 178.5q-146 -135 -239.5 -187.5t-197.5 -52.5q-97 0 -135 53.5t-20 143.5q18 88 81 143.5t179 110.5l359 176
q17 115 -19 156.5t-137 41.5q-108 0 -170.5 -46.5t-99.5 -123.5q-18 -42 -59 -36q-25 1 -33.5 20.5t1.5 45.5q17 38 45 71t72.5 63.5t113.5 48.5t154 18q105 0 168.5 -33.5t79.5 -113.5q66 70 150 108.5t172 38.5q74 0 136 -29t104.5 -85t58.5 -137t-2 -184zM1110 805
q-113 0 -203 -92t-129 -224l534 11q12 131 -39.5 218t-162.5 87zM255 50q77 0 167.5 58.5t183.5 164.5l55 265l-328 -171q-81 -42 -119 -88t-50 -106q-24 -123 91 -123z" />
    <glyph glyph-name="ccedilla" unicode="&#xe7;" horiz-adv-x="907" 
d="M867 664q1 -25 -11 -41t-34 -18q-25 -2 -35 18t-12 49q-40 134 -188 134q-134 0 -239 -114t-140 -267q-40 -178 17 -280.5t189 -102.5q103 0 189.5 61t142.5 154l46 -36q-71 -115 -172 -180t-229 -65h-14l-25 -123q55 0 96.5 -5.5t80.5 -20t59.5 -44t20.5 -73.5
q0 -83 -83.5 -141t-224.5 -58q-99 0 -198 25l14 60q84 -21 171 -21q113 0 178 37.5t65 93.5q0 14 -4.5 26t-15 20t-21 14t-28.5 9.5t-32 6t-37.5 3.5t-38 1.5t-40.5 0.5h-39l38 197q-139 28 -201.5 149t-23.5 295q44 192 187.5 315t318.5 123q108 0 186.5 -53t86.5 -149z
" />
    <glyph glyph-name="egrave" unicode="&#xe8;" horiz-adv-x="902" 
d="M562 1030l-379 318v4h186l246 -322h-53zM382 -24q-170 0 -252.5 129t-36.5 329q43 191 178 311.5t299 120.5q121 0 200.5 -58.5t79.5 -156.5q0 -47 -24 -84.5t-60.5 -62t-93.5 -42.5t-109 -27.5t-122 -15.5t-117 -7t-109 -2q-40 -176 13 -272.5t183 -96.5q90 0 174 54.5
t142 144.5l46 -37q-71 -106 -174.5 -166.5t-216.5 -60.5zM226 466q73 2 131 6.5t120.5 12.5t108 22t83.5 34t57.5 49t19.5 66q0 73 -48 111t-130 38q-113 0 -208 -96t-134 -243z" />
    <glyph glyph-name="eacute" unicode="&#xe9;" horiz-adv-x="902" 
d="M562 1030h-53l246 322h186v-4zM382 -24q-170 0 -252.5 129t-36.5 329q43 191 178 311.5t299 120.5q121 0 200.5 -58.5t79.5 -156.5q0 -47 -24 -84.5t-60.5 -62t-93.5 -42.5t-109 -27.5t-122 -15.5t-117 -7t-109 -2q-40 -176 13 -272.5t183 -96.5q90 0 174 54.5t142 144.5
l46 -37q-71 -106 -174.5 -166.5t-216.5 -60.5zM226 466q73 2 131 6.5t120.5 12.5t108 22t83.5 34t57.5 49t19.5 66q0 73 -48 111t-130 38q-113 0 -208 -96t-134 -243z" />
    <glyph glyph-name="ecircumflex" unicode="&#xea;" horiz-adv-x="902" 
d="M282 1030l311 322h154l174 -322h-47l-216 259l-326 -259h-50zM382 -24q-170 0 -252.5 129t-36.5 329q43 191 178 311.5t299 120.5q121 0 200.5 -58.5t79.5 -156.5q0 -47 -24 -84.5t-60.5 -62t-93.5 -42.5t-109 -27.5t-122 -15.5t-117 -7t-109 -2q-40 -176 13 -272.5
t183 -96.5q90 0 174 54.5t142 144.5l46 -37q-71 -106 -174.5 -166.5t-216.5 -60.5zM226 466q73 2 131 6.5t120.5 12.5t108 22t83.5 34t57.5 49t19.5 66q0 73 -48 111t-130 38q-113 0 -208 -96t-134 -243z" />
    <glyph glyph-name="edieresis" unicode="&#xeb;" horiz-adv-x="902" 
d="M382 1142q-35 0 -58.5 25t-23.5 56q0 34 24 58t58 24t58 -23.5t24 -58.5t-24 -58t-58 -23zM738 1142q-35 0 -58.5 24.5t-23.5 56.5q0 34 24 58t58 24t58 -24t24 -58q0 -35 -24 -58t-58 -23zM382 -24q-170 0 -252.5 129t-36.5 329q43 191 178 311.5t299 120.5
q121 0 200.5 -58.5t79.5 -156.5q0 -47 -24 -84.5t-60.5 -62t-93.5 -42.5t-109 -27.5t-122 -15.5t-117 -7t-109 -2q-40 -176 13 -272.5t183 -96.5q90 0 174 54.5t142 144.5l46 -37q-71 -106 -174.5 -166.5t-216.5 -60.5zM226 466q73 2 131 6.5t120.5 12.5t108 22t83.5 34
t57.5 49t19.5 66q0 73 -48 111t-130 38q-113 0 -208 -96t-134 -243z" />
    <glyph glyph-name="igrave" unicode="&#xec;" horiz-adv-x="517" 
d="M350 1030l-379 318v4h186l246 -322h-53zM108 0l160 698q10 45 -2.5 62t-54.5 10l-102 -26l6 59l307 70l-172 -755q-7 -33 6 -45.5t48 -12.5h92l-13 -60h-275z" />
    <glyph glyph-name="iacute" unicode="&#xed;" horiz-adv-x="517" 
d="M350 1030h-53l246 322h186v-4zM108 0l160 698q10 45 -2.5 62t-54.5 10l-102 -26l6 59l307 70l-172 -755q-7 -33 6 -45.5t48 -12.5h92l-13 -60h-275z" />
    <glyph glyph-name="icircumflex" unicode="&#xee;" horiz-adv-x="517" 
d="M70 1030l311 322h154l174 -322h-47l-216 259l-326 -259h-50zM108 0l160 698q10 45 -2.5 62t-54.5 10l-102 -26l6 59l307 70l-172 -755q-7 -33 6 -45.5t48 -12.5h92l-13 -60h-275z" />
    <glyph glyph-name="idieresis" unicode="&#xef;" horiz-adv-x="517" 
d="M170 1142q-35 0 -58.5 25t-23.5 56q0 34 24 58t58 24t58 -23.5t24 -58.5t-24 -58t-58 -23zM526 1142q-35 0 -58.5 24.5t-23.5 56.5q0 34 24 58t58 24t58 -24t24 -58q0 -35 -24 -58t-58 -23zM108 0l160 698q10 45 -2.5 62t-54.5 10l-102 -26l6 59l307 70l-172 -755
q-7 -33 6 -45.5t48 -12.5h92l-13 -60h-275z" />
    <glyph glyph-name="eth" unicode="&#xf0;" horiz-adv-x="1034" 
d="M1125 1205l-183 -58q91 -202 7 -598q-61 -280 -207.5 -426t-343.5 -146q-172 0 -262.5 123.5t-47.5 327.5q44 206 177 312t308 106q118 0 184 -58.5t80 -168.5q70 344 16 500l-340 -107l-6 57l323 102q-84 147 -317 139l2 63q288 0 400 -176l205 65zM799 442
q34 343 -209 343q-152 0 -250.5 -103t-138.5 -291q-34 -162 18 -257.5t182 -95.5q273 0 398 404z" />
    <glyph glyph-name="ntilde" unicode="&#xf1;" horiz-adv-x="1097" 
d="M397 999l-46 11q25 116 82.5 181t138.5 65q33 0 62 -15.5t41 -29t35 -41.5q18 -25 29 -37t32.5 -23t49.5 -11q56 0 97.5 46t60.5 129l47 -11q-23 -115 -82 -185.5t-142 -70.5q-12 0 -22.5 1.5t-19 3.5t-18 7t-15 7t-14 10t-11.5 10.5t-12 12.5t-10 11.5t-10 13.5l-9 11
q-18 24 -29.5 36.5t-33.5 23t-50 10.5q-54 0 -94.5 -46.5t-56.5 -119.5zM106 0l159 693q10 41 -2 59t-51 12l-101 -26l6 60l303 72l-64 -273q85 114 190.5 191.5t201.5 77.5q266 0 192 -321l-94 -408q-9 -39 2 -58t47 -19h93l-13 -60h-274l125 554q17 75 16 127t-33.5 80
t-100.5 28q-51 0 -108 -31t-107 -80.5t-92 -105t-73 -111.5l-106 -461h-116z" />
    <glyph glyph-name="ograve" unicode="&#xf2;" horiz-adv-x="980" 
d="M586 1030l-379 318v4h186l246 -322h-53zM394 -24q-28 0 -58 5t-68 18.5t-69 36t-61 57t-44 82.5t-18 112.5t17 146.5q20 91 62 165.5t93 123t111.5 81.5t117 47.5t109.5 14.5q52 0 102 -15t97.5 -48.5t77 -86t40.5 -127.5t-13 -174q-24 -103 -71.5 -184t-101 -127.5
t-116.5 -76.5t-112.5 -40.5t-94.5 -10.5zM397 37q46 0 99 22.5t107 66.5t100.5 124t69.5 182q40 176 -15.5 274.5t-174.5 98.5q-120 0 -227 -106t-148 -285q-20 -85 -15 -148.5t23.5 -107t50 -70.5t64 -39t66.5 -12z" />
    <glyph glyph-name="oacute" unicode="&#xf3;" horiz-adv-x="980" 
d="M586 1030h-53l246 322h186v-4zM394 -24q-28 0 -58 5t-68 18.5t-69 36t-61 57t-44 82.5t-18 112.5t17 146.5q20 91 62 165.5t93 123t111.5 81.5t117 47.5t109.5 14.5q52 0 102 -15t97.5 -48.5t77 -86t40.5 -127.5t-13 -174q-24 -103 -71.5 -184t-101 -127.5t-116.5 -76.5
t-112.5 -40.5t-94.5 -10.5zM397 37q46 0 99 22.5t107 66.5t100.5 124t69.5 182q40 176 -15.5 274.5t-174.5 98.5q-120 0 -227 -106t-148 -285q-20 -85 -15 -148.5t23.5 -107t50 -70.5t64 -39t66.5 -12z" />
    <glyph glyph-name="ocircumflex" unicode="&#xf4;" horiz-adv-x="980" 
d="M306 1030l311 322h154l174 -322h-47l-216 259l-326 -259h-50zM394 -24q-28 0 -58 5t-68 18.5t-69 36t-61 57t-44 82.5t-18 112.5t17 146.5q20 91 62 165.5t93 123t111.5 81.5t117 47.5t109.5 14.5q52 0 102 -15t97.5 -48.5t77 -86t40.5 -127.5t-13 -174
q-24 -103 -71.5 -184t-101 -127.5t-116.5 -76.5t-112.5 -40.5t-94.5 -10.5zM397 37q46 0 99 22.5t107 66.5t100.5 124t69.5 182q40 176 -15.5 274.5t-174.5 98.5q-120 0 -227 -106t-148 -285q-20 -85 -15 -148.5t23.5 -107t50 -70.5t64 -39t66.5 -12z" />
    <glyph glyph-name="otilde" unicode="&#xf5;" horiz-adv-x="980" 
d="M356 999l-46 11q25 116 82.5 181t138.5 65q33 0 62 -15.5t41 -29t35 -41.5q18 -25 29 -37t32.5 -23t49.5 -11q56 0 97.5 46t60.5 129l47 -11q-23 -115 -82 -185.5t-142 -70.5q-12 0 -22.5 1.5t-19 3.5t-18 7t-15 7t-14 10t-11.5 10.5t-12 12.5t-10 11.5t-10 13.5l-9 11
q-18 24 -29.5 36.5t-33.5 23t-50 10.5q-54 0 -94.5 -46.5t-56.5 -119.5zM394 -24q-28 0 -58 5t-68 18.5t-69 36t-61 57t-44 82.5t-18 112.5t17 146.5q20 91 62 165.5t93 123t111.5 81.5t117 47.5t109.5 14.5q52 0 102 -15t97.5 -48.5t77 -86t40.5 -127.5t-13 -174
q-24 -103 -71.5 -184t-101 -127.5t-116.5 -76.5t-112.5 -40.5t-94.5 -10.5zM397 37q46 0 99 22.5t107 66.5t100.5 124t69.5 182q40 176 -15.5 274.5t-174.5 98.5q-120 0 -227 -106t-148 -285q-20 -85 -15 -148.5t23.5 -107t50 -70.5t64 -39t66.5 -12z" />
    <glyph glyph-name="odieresis" unicode="&#xf6;" horiz-adv-x="980" 
d="M406 1142q-35 0 -58.5 25t-23.5 56q0 34 24 58t58 24t58 -23.5t24 -58.5t-24 -58t-58 -23zM762 1142q-35 0 -58.5 24.5t-23.5 56.5q0 34 24 58t58 24t58 -24t24 -58q0 -35 -24 -58t-58 -23zM394 -24q-28 0 -58 5t-68 18.5t-69 36t-61 57t-44 82.5t-18 112.5t17 146.5
q20 91 62 165.5t93 123t111.5 81.5t117 47.5t109.5 14.5q52 0 102 -15t97.5 -48.5t77 -86t40.5 -127.5t-13 -174q-24 -103 -71.5 -184t-101 -127.5t-116.5 -76.5t-112.5 -40.5t-94.5 -10.5zM397 37q46 0 99 22.5t107 66.5t100.5 124t69.5 182q40 176 -15.5 274.5
t-174.5 98.5q-120 0 -227 -106t-148 -285q-20 -85 -15 -148.5t23.5 -107t50 -70.5t64 -39t66.5 -12z" />
    <glyph glyph-name="divide" unicode="&#xf7;" horiz-adv-x="1318" 
d="M707 1003q-39 0 -65.5 27t-26.5 66q0 37 27 64.5t65 27.5q37 0 64.5 -27.5t27.5 -64.5q0 -39 -27 -66t-65 -27zM152 632v87h1110v-87h-1110zM707 164q-39 0 -65.5 26.5t-26.5 65.5q0 38 26.5 65t65.5 27q37 0 64.5 -27t27.5 -65q0 -39 -27 -65.5t-65 -26.5z" />
    <glyph glyph-name="oslash" unicode="&#xf8;" horiz-adv-x="980" 
d="M917 863l-87 -100q110 -126 60 -348q-24 -103 -71.5 -184t-101 -127.5t-116.5 -76.5t-112.5 -40.5t-94.5 -10.5q-110 0 -197 61l-87 -99l-46 40l87 99q-112 124 -58 357q20 91 62 165.5t93 123t111.5 81.5t117 47.5t109.5 14.5q111 0 198 -62l87 100zM208 414
q-36 -159 10 -259l513 589q-55 61 -148 61q-120 0 -227 -106t-148 -285zM773 432q36 158 -7 258l-513 -589q57 -64 144 -64q46 0 99 22.5t107 66.5t100.5 124t69.5 182z" />
    <glyph glyph-name="ugrave" unicode="&#xf9;" horiz-adv-x="1097" 
d="M642 1030l-379 318v4h186l246 -322h-53zM347 -24q-137 0 -181 81.5t-8 239.5l92 407q8 41 -2.5 59.5t-45.5 18.5h-94l12 60h275l-125 -555q-31 -114 -5.5 -174t123.5 -60t205 101.5t175 225.5l76 324q18 78 -41 78h-106l12 60h281l-161 -703q-9 -42 2.5 -59t51.5 -11
l102 25l-8 -60l-300 -57l62 268q-84 -115 -189 -192t-203 -77z" />
    <glyph glyph-name="uacute" unicode="&#xfa;" horiz-adv-x="1097" 
d="M642 1030h-53l246 322h186v-4zM347 -24q-137 0 -181 81.5t-8 239.5l92 407q8 41 -2.5 59.5t-45.5 18.5h-94l12 60h275l-125 -555q-31 -114 -5.5 -174t123.5 -60t205 101.5t175 225.5l76 324q18 78 -41 78h-106l12 60h281l-161 -703q-9 -42 2.5 -59t51.5 -11l102 25
l-8 -60l-300 -57l62 268q-84 -115 -189 -192t-203 -77z" />
    <glyph glyph-name="ucircumflex" unicode="&#xfb;" horiz-adv-x="1097" 
d="M362 1030l311 322h154l174 -322h-47l-216 259l-326 -259h-50zM347 -24q-137 0 -181 81.5t-8 239.5l92 407q8 41 -2.5 59.5t-45.5 18.5h-94l12 60h275l-125 -555q-31 -114 -5.5 -174t123.5 -60t205 101.5t175 225.5l76 324q18 78 -41 78h-106l12 60h281l-161 -703
q-9 -42 2.5 -59t51.5 -11l102 25l-8 -60l-300 -57l62 268q-84 -115 -189 -192t-203 -77z" />
    <glyph glyph-name="udieresis" unicode="&#xfc;" horiz-adv-x="1097" 
d="M462 1142q-35 0 -58.5 25t-23.5 56q0 34 24 58t58 24t58 -23.5t24 -58.5t-24 -58t-58 -23zM818 1142q-35 0 -58.5 24.5t-23.5 56.5q0 34 24 58t58 24t58 -24t24 -58q0 -35 -24 -58t-58 -23zM347 -24q-137 0 -181 81.5t-8 239.5l92 407q8 41 -2.5 59.5t-45.5 18.5h-94
l12 60h275l-125 -555q-31 -114 -5.5 -174t123.5 -60t205 101.5t175 225.5l76 324q18 78 -41 78h-106l12 60h281l-161 -703q-9 -42 2.5 -59t51.5 -11l102 25l-8 -60l-300 -57l62 268q-84 -115 -189 -192t-203 -77z" />
    <glyph glyph-name="yacute" unicode="&#xfd;" horiz-adv-x="924" 
d="M553 1030h-53l246 322h186v-4zM-34 -462q-54 -4 -54 48q0 25 15.5 37t45.5 19q93 20 173.5 80.5t168.5 188.5l98 146l-192 661q-19 64 -65 64h-82l14 60h219l189 -663l329 506q61 97 -10 97h-143l12 60h314l-643 -978q-103 -157 -191 -231.5t-198 -94.5z" />
    <glyph glyph-name="thorn" unicode="&#xfe;" horiz-adv-x="1079" 
d="M-208 -497l13 60h105q75 0 94 88l331 1558q9 42 -6 59.5t-61 10.5l-103 -25l4 59l318 69l-137 -644q151 128 326 128q171 0 267 -130t55 -323q-39 -186 -187.5 -311.5t-317.5 -125.5q-88 0 -157.5 35.5t-114.5 93.5l-102 -464q-9 -41 3 -59.5t58 -18.5h120l-13 -60h-495z
M466 47q74 0 144.5 34t124 89t91.5 123t53 137q31 149 -36 256.5t-204 107.5q-80 0 -161 -41t-144 -108l-101 -469q35 -62 98 -95.5t135 -33.5z" />
    <glyph glyph-name="ydieresis" unicode="&#xff;" horiz-adv-x="924" 
d="M373 1142q-35 0 -58.5 25t-23.5 56q0 34 24 58t58 24q35 0 58.5 -23.5t23.5 -58.5t-24 -58t-58 -23zM729 1142q-35 0 -58.5 24.5t-23.5 56.5q0 34 24 58t58 24t58 -24t24 -58q0 -35 -24 -58t-58 -23zM-34 -462q-54 -4 -54 48q0 25 15.5 37t45.5 19q93 20 173.5 80.5
t168.5 188.5l98 146l-192 661q-19 64 -65 64h-82l14 60h219l189 -663l329 506q61 97 -10 97h-143l12 60h314l-643 -978q-103 -157 -191 -231.5t-198 -94.5z" />
    <glyph glyph-name="dotlessi" unicode="&#x131;" horiz-adv-x="517" 
d="M108 0l160 698q10 45 -2.5 62t-54.5 10l-102 -26l6 59l307 70l-172 -755q-7 -33 6 -45.5t48 -12.5h92l-13 -60h-275z" />
    <glyph glyph-name="Lslash" unicode="&#x141;" horiz-adv-x="1234" 
d="M1111 449l56 -3l-132 -446h-1066l12 60h145q87 0 106 95l77 336l-231 -167l18 88l233 168l143 627q10 45 -2 65t-58 20h-148l13 60h580l-12 -60h-144q-87 0 -107 -96l-117 -509l470 340l-17 -87l-474 -342l-102 -446q-13 -43 -1 -66t63 -23h435q20 0 40 4.5t45 16
t48 37.5t40 63z" />
    <glyph glyph-name="lslash" unicode="&#x142;" horiz-adv-x="480" 
d="M347 706l-130 -569q-19 -77 39 -77h110l-14 -60h-282l139 607l-272 -196l17 81l274 198l119 521q9 43 -3 61t-53 10l-99 -26l5 60l304 69l-135 -595l271 196l-16 -82z" />
    <glyph glyph-name="OE" unicode="&#x152;" horiz-adv-x="2136" 
d="M710 0q-154 0 -271 45.5t-190 133t-97 215.5t8 292q62 312 280 487t530 178l1151 1l-48 -349l-56 -3l21 214q-2 45 -22 60t-65 15l-518 -2q-57 -11 -74 -90l-89 -456h376q36 0 62.5 19t34.5 56l23 117h58l-91 -460h-57l26 135q8 40 -9 55t-55 15h-380l-103 -524
q-10 -47 2 -69t57 -22h518q56 0 88 22t52 68l94 294l57 -3l-118 -444h-1195zM691 63h257q65 0 86 97l205 1047q17 85 -41 85h-248q-148 0 -280.5 -69.5t-234.5 -214t-141 -343.5q-28 -131 -13 -241.5t63 -190.5t137.5 -125t209.5 -45z" />
    <glyph glyph-name="oe" unicode="&#x153;" horiz-adv-x="1624" 
d="M1546 431h-642q-18 -78 -12 -148.5t29 -124t73 -85.5t121 -32q89 0 171.5 54t138.5 145l46 -37q-67 -106 -168.5 -166.5t-214.5 -60.5q-107 0 -183.5 54.5t-109.5 151.5q-40 -58 -93 -100t-106.5 -64t-100.5 -32t-88 -10q-28 0 -58.5 5t-68.5 18.5t-69.5 36t-62.5 57
t-46.5 82.5t-21 112.5t12.5 146.5q22 112 76 199t123.5 136t141 73t139.5 24q61 0 119 -19.5t110.5 -67.5t77.5 -118q68 96 165.5 150.5t203.5 54.5q74 0 136 -29t104.5 -85t58.5 -137t-2 -184zM409 37q47 0 99.5 22.5t105 67t96 124t63.5 182.5q34 175 -25.5 273.5
t-176.5 98.5q-120 0 -224 -105.5t-139 -284.5q-17 -105 -7 -177t45.5 -116.5t76.5 -64.5t86 -20zM1248 805q-113 0 -203 -92.5t-128 -223.5l533 11q12 131 -39.5 218t-162.5 87z" />
    <glyph glyph-name="Scaron" unicode="&#x160;" horiz-adv-x="1108" 
d="M714 1456l-174 322h47l215 -259l327 259h49l-310 -322h-154zM519 -23q-136 0 -228 66t-119 187l-59 -209h-59l106 465l58 -5q-38 -197 38.5 -317.5t256.5 -120.5q48 0 100 18t102.5 52.5t90.5 94.5t58 136q8 33 8.5 61.5t-6.5 52t-17.5 43t-30 37t-38 31t-46.5 27.5
t-51.5 24t-57.5 23q-45 19 -66.5 28.5t-61 28.5t-58 31.5t-47.5 34t-42 40.5t-28.5 46t-19 55.5t-3 65t10.5 77.5q31 141 151.5 233.5t264.5 92.5q100 0 176.5 -57t105.5 -152l55 186h58l-90 -397l-56 6q26 155 -48 253t-199 98q-117 0 -204.5 -72.5t-111.5 -176.5
q-11 -37 -7.5 -68.5t10.5 -55.5t27 -45.5t41 -37.5t53 -32t63.5 -29.5t71.5 -29.5q5 -2 8 -3q39 -16 66.5 -28t62.5 -30t58 -35.5t48.5 -41.5t39 -51.5t23 -60.5t8.5 -73.5t-12 -87.5q-22 -97 -75.5 -173t-120.5 -119t-133 -64.5t-125 -21.5z" />
    <glyph glyph-name="scaron" unicode="&#x161;" horiz-adv-x="950" 
d="M689 1030h-154l-174 322h46l216 -259l327 259h49zM799 750l47 116h43l-55 -253l-45 1q-4 94 -73.5 144.5t-191.5 50.5q-106 0 -179 -39.5t-87 -111.5q-16 -84 67 -116q44 -17 176 -33q75 -10 124.5 -22.5t101.5 -39.5t72.5 -76t9.5 -119q-21 -131 -128 -203.5t-266 -72.5
q-108 0 -183 33t-106 87l-53 -120h-45l58 261l52 -2q10 -92 89.5 -147.5t201.5 -55.5q112 0 191.5 48.5t96.5 137.5q8 40 -4.5 70.5t-32.5 47t-63 29.5t-72.5 18t-85.5 12q-75 9 -119 19t-94 33.5t-68 66.5t-8 107q18 117 116.5 181t247.5 64q198 0 265 -116z" />
    <glyph glyph-name="Wcircumflex" unicode="&#x174;" horiz-adv-x="1876" 
d="M1215 1729l-327 -259h-49l305 322h164l169 -322h-45zM1647 1352h402l-14 -60h-53q-35 0 -65 -31.5t-61 -94.5l-571 -1189h-115l-52 1255l-601 -1255h-117l-54 1229q-3 48 -17 67t-52 19h-68l13 60h517l-28 -60h-180q-22 0 -45 -32t-20 -74l49 -1080h8l600 1261h104
l52 -1259l7 -2l504 1060q28 53 25.5 89.5t-49.5 36.5h-131z" />
    <glyph glyph-name="wcircumflex" unicode="&#x175;" horiz-adv-x="1438" 
d="M938 1289l-326 -259h-50l311 322h154l174 -322h-47zM1207 842h292l-502 -862h-100l-104 758l-393 -758h-95l-79 733q-6 41 -19 55t-43 14h-86l12 60h232l80 -737l394 752h95l107 -770l345 600q28 49 23 72t-46 23h-127z" />
    <glyph glyph-name="Ycircumflex" unicode="&#x176;" horiz-adv-x="1320" 
d="M567 1470l305 322h164l169 -322h-45l-217 259l-327 -259h-49zM264 0l13 60h164q86 0 106 95l73 315l-245 748q-14 40 -30.5 57t-48.5 17h-88l13 60h491l-12 -60h-120q-41 0 -58.5 -31t-3.5 -71l215 -643l502 637q38 46 36 77t-51 31h-102l14 60h364l-15 -60h-33
q-51 0 -118 -85l-585 -731l-77 -331q-10 -46 2 -65.5t58 -19.5h169l-13 -60h-620z" />
    <glyph glyph-name="ycircumflex" unicode="&#x177;" horiz-adv-x="924" 
d="M273 1030l311 322h154l174 -322h-47l-216 259l-326 -259h-50zM-34 -462q-54 -4 -54 48q0 25 15.5 37t45.5 19q93 20 173.5 80.5t168.5 188.5l98 146l-192 661q-19 64 -65 64h-82l14 60h219l189 -663l329 506q61 97 -10 97h-143l12 60h314l-643 -978
q-103 -157 -191 -231.5t-198 -94.5z" />
    <glyph glyph-name="Ydieresis" unicode="&#x178;" horiz-adv-x="1320" 
d="M683 1524q-35 0 -58.5 25t-23.5 57q0 34 24 57.5t58 23.5t58 -23.5t24 -57.5q0 -36 -24.5 -59t-57.5 -23zM1039 1524q-35 0 -58.5 24.5t-23.5 57.5q0 34 24 57.5t58 23.5t58 -23.5t24 -57.5q0 -35 -24.5 -58.5t-57.5 -23.5zM264 0l13 60h164q86 0 106 95l73 315l-245 748
q-14 40 -30.5 57t-48.5 17h-88l13 60h491l-12 -60h-120q-41 0 -58.5 -31t-3.5 -71l215 -643l502 637q38 46 36 77t-51 31h-102l14 60h364l-15 -60h-33q-51 0 -118 -85l-585 -731l-77 -331q-10 -46 2 -65.5t58 -19.5h169l-13 -60h-620z" />
    <glyph glyph-name="Zcaron" unicode="&#x17d;" horiz-adv-x="1307" 
d="M954 1456h-154l-174 322h47l215 -259l327 259h49zM1374 1365l-20 -90l-1211 -1212h751q52 0 91.5 21t72.5 81l93 271l58 -3l-134 -433h-1075l21 94l1203 1208h-687q-124 0 -168 -97l-73 -202l-56 3l116 359h1018z" />
    <glyph glyph-name="zcaron" unicode="&#x17e;" horiz-adv-x="915" 
d="M673 1030h-154l-174 322h46l216 -259l327 259h49zM146 582l87 260h673l-17 -82l-756 -700h440q60 0 103 80l52 134l56 -2l-88 -272h-707l18 82l754 699l8 1h-426q-51 0 -92 -78l-49 -126z" />
    <glyph glyph-name="florin" unicode="&#x192;" horiz-adv-x="1116" 
d="M39 -453q-65 0 -94.5 34t-23.5 90q4 31 19 47.5t33 15.5q15 -2 23.5 -25t4.5 -52q-2 -39 8 -51.5t46 -12.5q55 0 90.5 51.5t90.5 181.5q12 30 79.5 186t115.5 274l206 502h-200l22 63h88q79 0 117 34.5t77 125.5q27 60 47.5 102t54.5 95t66.5 85.5t77 55.5t92.5 23
q53 0 87 -28.5t35 -78.5q2 -30 -11.5 -49t-33.5 -19q-32 0 -35 71q-1 5 -2 16t-1.5 15.5t-3.5 11.5t-7.5 10t-12.5 5.5t-19 2.5q-43 0 -84 -30t-72 -87q-41 -61 -109 -258q-17 -48 -39 -108l250 5l-22 -63h-253l-208 -511q-151 -365 -253 -544q-101 -186 -246 -186z" />
    <glyph glyph-name="oslashacute" unicode="&#x1ff;" horiz-adv-x="980" 
d="M779 1352h186v-4l-379 -318h-53zM871 904l46 -41l-87 -100q110 -126 60 -348q-24 -103 -71.5 -184t-101 -127.5t-116.5 -76.5t-112.5 -40.5t-94.5 -10.5q-110 0 -197 61l-87 -99l-46 40l87 99q-112 124 -58 357q20 91 62 165.5t93 123t111.5 81.5t117 47.5t109.5 14.5
q111 0 198 -62zM208 414q-36 -159 10 -259l513 589q-55 61 -148 61q-120 0 -227 -106t-148 -285zM773 432q36 158 -7 258l-513 -589q57 -64 144 -64q46 0 99 22.5t107 66.5t100.5 124t69.5 182z" />
    <glyph glyph-name="uni0237" unicode="&#x237;" horiz-adv-x="494" 
d="M-198 -508q-111 0 -171.5 58t-54.5 164q2 21 16 33.5t34 13.5q21 2 32.5 -14t10.5 -44q3 -149 153 -149q100 0 167 74t95 203l183 867q10 43 -4.5 61t-62.5 10l-109 -26l5 60l327 70l-215 -1009q-40 -187 -138.5 -279.5t-267.5 -92.5z" />
    <glyph glyph-name="circumflex" unicode="&#x2c6;" horiz-adv-x="737" 
d="M178 1030l311 322h154l174 -322h-47l-216 259l-326 -259h-50z" />
    <glyph glyph-name="caron" unicode="&#x2c7;" horiz-adv-x="739" 
d="M423 1030l-174 322h46l216 -259l327 259h49l-310 -322h-154z" />
    <glyph glyph-name="breve" unicode="&#x2d8;" horiz-adv-x="773" 
d="M545 1008q-117 0 -193.5 66.5t-101.5 170.5h52q57 -158 244 -158q49 0 88.5 12.5t63 28.5t43 41t27 40.5t15.5 35.5h49q-4 -26 -14 -54t-32.5 -62t-53 -60t-79.5 -43.5t-108 -17.5z" />
    <glyph glyph-name="dotaccent" unicode="&#x2d9;" horiz-adv-x="596" 
d="M545 1121q-34 0 -57.5 25t-23.5 57q0 34 23.5 57.5t57.5 23.5q35 0 59 -23.5t24 -57.5q0 -36 -24.5 -59t-58.5 -23z" />
    <glyph glyph-name="ring" unicode="&#x2da;" horiz-adv-x="612" 
d="M467 981q-81 0 -138.5 57.5t-57.5 139.5q0 81 57.5 137.5t138.5 56.5q82 0 139.5 -56.5t57.5 -137.5q0 -82 -57.5 -139.5t-139.5 -57.5zM467 1059q49 0 84 34.5t35 84.5q0 49 -35 83.5t-84 34.5t-82.5 -34.5t-33.5 -83.5q0 -50 33.5 -84.5t82.5 -34.5z" />
    <glyph glyph-name="ogonek" unicode="&#x2db;" horiz-adv-x="579" 
d="M193 -363q-108 0 -175.5 68.5t-67.5 157.5t73 160l27 -23q-43 -46 -43 -107q0 -80 61.5 -141.5t148.5 -61.5q77 0 146 50l23 -32q-90 -71 -193 -71z" />
    <glyph glyph-name="tilde" unicode="&#x2dc;" horiz-adv-x="863" 
d="M290 999l-46 11q25 116 82.5 181t138.5 65q33 0 62 -15.5t41 -29t35 -41.5q18 -25 29 -37t32.5 -23t49.5 -11q56 0 97.5 46t60.5 129l47 -11q-23 -115 -82 -185.5t-142 -70.5q-12 0 -22.5 1.5t-19 3.5t-18 7t-15 7t-14 10t-11.5 10.5t-12 12.5t-10 11.5t-10 13.5l-9 11
q-18 24 -29.5 36.5t-33.5 23t-50 10.5q-54 0 -94.5 -46.5t-56.5 -119.5z" />
    <glyph glyph-name="hungarumlaut" unicode="&#x2dd;" horiz-adv-x="961" 
d="M313 1030l247 322h185v-4l-378 -318h-54zM688 1030l247 322h185v-4l-378 -318h-54z" />
    <glyph glyph-name="gravecomb" unicode="&#x300;" 
d="M38 1030l-379 318v4h186l246 -322h-53z" />
    <glyph glyph-name="acutecomb" unicode="&#x301;" 
d="M-599 1030h-53l246 322h186v-4z" />
    <glyph glyph-name="uni0302" unicode="&#x302;" 
d="M-559 1030l311 322h154l174 -322h-47l-216 259l-326 -259h-50z" />
    <glyph glyph-name="tildecomb" unicode="&#x303;" 
d="M-573 999l-46 11q25 116 82.5 181t138.5 65q33 0 62 -15.5t41 -29t35 -41.5q18 -25 29 -37t32.5 -23t49.5 -11q56 0 97.5 46t60.5 129l47 -11q-23 -115 -82 -185.5t-142 -70.5q-12 0 -22.5 1.5t-19 3.5t-18 7t-15 7t-14 10t-11.5 10.5t-12 12.5t-10 11.5t-10 13.5l-9 11
q-18 24 -29.5 36.5t-33.5 23t-50 10.5q-54 0 -94.5 -46.5t-56.5 -119.5z" />
    <glyph glyph-name="uni0304" unicode="&#x304;" 
d="M-660 1122l19 92h653l-19 -92h-653z" />
    <glyph glyph-name="uni0306" unicode="&#x306;" 
d="M-228 1008q-117 0 -193.5 66.5t-101.5 170.5h52q57 -158 244 -158q49 0 88.5 12.5t63 28.5t43 41t27 40.5t15.5 35.5h49q-4 -26 -14 -54t-32.5 -62t-53 -60t-79.5 -43.5t-108 -17.5z" />
    <glyph glyph-name="uni0307" unicode="&#x307;" 
d="M-50 1121q-34 0 -57.5 25t-23.5 57q0 34 23.5 57.5t57.5 23.5q35 0 59 -23.5t24 -57.5q0 -36 -24.5 -59t-58.5 -23z" />
    <glyph glyph-name="uni0308" unicode="&#x308;" 
d="M-400 1142q-35 0 -58.5 25t-23.5 56q0 34 24 58t58 24t58 -23.5t24 -58.5t-24 -58t-58 -23zM-44 1142q-35 0 -58.5 24.5t-23.5 56.5q0 34 24 58t58 24t58 -24t24 -58q0 -35 -24 -58t-58 -23z" />
    <glyph glyph-name="uni030A" unicode="&#x30a;" 
d="M-142 965q-76 0 -129 53t-53 130q0 76 53 129.5t129 53.5t129.5 -53.5t53.5 -129.5t-53.5 -129.5t-129.5 -53.5zM-142 1016q56 0 94 38t38 94t-38 94t-94 38q-55 0 -92.5 -38t-37.5 -94t37.5 -94t92.5 -38z" />
    <glyph glyph-name="uni030B" unicode="&#x30b;" 
d="M-648 1030l247 322h185v-4l-378 -318h-54zM-273 1030l247 322h185v-4l-378 -318h-54z" />
    <glyph glyph-name="uni030C" unicode="&#x30c;" 
d="M-316 1030l-174 322h46l216 -259l327 259h49l-310 -322h-154z" />
    <glyph glyph-name="uni0327" unicode="&#x327;" 
d="M-531 -489q-99 0 -198 25l14 60q84 -21 171 -21q113 0 178 37.5t65 93.5q0 14 -4.5 26t-15 20t-21 14t-28.5 9.5t-32 6t-37.5 3.5t-38 1.5t-40.5 0.5h-39l46 235l64 -8l-33 -161q55 0 96.5 -5.5t80.5 -20t59.5 -44t20.5 -73.5q0 -83 -83.5 -141t-224.5 -58z" />
    <glyph glyph-name="uni0328" unicode="&#x328;" 
d="M-386 -363q-108 0 -175.5 68.5t-67.5 157.5t73 160l27 -23q-43 -46 -43 -107q0 -80 61.5 -141.5t148.5 -61.5q77 0 146 50l23 -32q-90 -71 -193 -71z" />
    <glyph glyph-name="uni0337" unicode="&#x337;" 
d="M-598 444l17 81l683 494l-16 -82z" />
    <glyph glyph-name="uni0338" unicode="&#x338;" 
d="M-705 -36l-46 40l807 926l46 -41z" />
    <glyph glyph-name="uni0394" unicode="&#x394;" horiz-adv-x="874" 
d="M-10 0l582 1425h156l-25 -1425h-713zM73 60h527l24 1263h-33z" />
    <glyph glyph-name="uni03A9" unicode="&#x3a9;" horiz-adv-x="1290" 
d="M39 0l59 280h45l-24 -115q-18 -81 56 -81h283l41 186q-313 182 -225 595q55 258 207.5 406t371.5 148q222 0 314 -157t36 -418q-41 -197 -161 -343.5t-307 -229.5l-41 -187h276q39 0 64 25.5t34 65.5l23 105h45l-61 -280h-455l64 314q162 80 264 222.5t141 327.5
q53 251 -9 375.5t-229 124.5q-173 0 -294 -136.5t-173 -383.5q-82 -389 175 -537l-63 -307h-457z" />
    <glyph glyph-name="Wgrave" unicode="&#x1e80;" horiz-adv-x="1876" 
d="M1159 1438h-53l-379 317v4h186zM1647 1352h402l-14 -60h-53q-35 0 -65 -31.5t-61 -94.5l-571 -1189h-115l-52 1255l-601 -1255h-117l-54 1229q-3 48 -17 67t-52 19h-68l13 60h517l-28 -60h-180q-22 0 -45 -32t-20 -74l49 -1080h8l600 1261h104l52 -1259l7 -2l504 1060
q28 53 25.5 89.5t-49.5 36.5h-131z" />
    <glyph glyph-name="wgrave" unicode="&#x1e81;" horiz-adv-x="1438" 
d="M895 1030h-53l-379 318v4h186zM1207 842h292l-502 -862h-100l-104 758l-393 -758h-95l-79 733q-6 41 -19 55t-43 14h-86l12 60h232l80 -737l394 752h95l107 -770l345 600q28 49 23 72t-46 23h-127z" />
    <glyph glyph-name="Wacute" unicode="&#x1e82;" horiz-adv-x="1876" 
d="M1539 1755l-379 -317h-53l246 321h186v-4zM1647 1352h402l-14 -60h-53q-35 0 -65 -31.5t-61 -94.5l-571 -1189h-115l-52 1255l-601 -1255h-117l-54 1229q-3 48 -17 67t-52 19h-68l13 60h517l-28 -60h-180q-22 0 -45 -32t-20 -74l49 -1080h8l600 1261h104l52 -1259l7 -2
l504 1060q28 53 25.5 89.5t-49.5 36.5h-131z" />
    <glyph glyph-name="wacute" unicode="&#x1e83;" horiz-adv-x="1438" 
d="M1221 1348l-379 -318h-53l246 322h186v-4zM1207 842h292l-502 -862h-100l-104 758l-393 -758h-95l-79 733q-6 41 -19 55t-43 14h-86l12 60h232l80 -737l394 752h95l107 -770l345 600q28 49 23 72t-46 23h-127z" />
    <glyph glyph-name="Wdieresis" unicode="&#x1e84;" horiz-adv-x="1876" 
d="M955 1524q-35 0 -58.5 25t-23.5 57q0 34 24 57.5t58 23.5t58 -23.5t24 -57.5q0 -36 -24.5 -59t-57.5 -23zM1311 1524q-35 0 -58.5 24.5t-23.5 57.5q0 34 24 57.5t58 23.5t58 -23.5t24 -57.5q0 -35 -24.5 -58.5t-57.5 -23.5zM1647 1352h402l-14 -60h-53q-35 0 -65 -31.5
t-61 -94.5l-571 -1189h-115l-52 1255l-601 -1255h-117l-54 1229q-3 48 -17 67t-52 19h-68l13 60h517l-28 -60h-180q-22 0 -45 -32t-20 -74l49 -1080h8l600 1261h104l52 -1259l7 -2l504 1060q28 53 25.5 89.5t-49.5 36.5h-131z" />
    <glyph glyph-name="wdieresis" unicode="&#x1e85;" horiz-adv-x="1438" 
d="M662 1142q-35 0 -58.5 25t-23.5 56q0 34 24 58t58 24t58 -23.5t24 -58.5t-24 -58t-58 -23zM1018 1142q-35 0 -58.5 24.5t-23.5 56.5q0 34 24 58t58 24t58 -24t24 -58q0 -35 -24 -58t-58 -23zM1207 842h292l-502 -862h-100l-104 758l-393 -758h-95l-79 733q-6 41 -19 55
t-43 14h-86l12 60h232l80 -737l394 752h95l107 -770l345 600q28 49 23 72t-46 23h-127z" />
    <glyph glyph-name="Ygrave" unicode="&#x1ef2;" horiz-adv-x="1320" 
d="M834 1438l-379 317v4h186l246 -321h-53zM264 0l13 60h164q86 0 106 95l73 315l-245 748q-14 40 -30.5 57t-48.5 17h-88l13 60h491l-12 -60h-120q-41 0 -58.5 -31t-3.5 -71l215 -643l502 637q38 46 36 77t-51 31h-102l14 60h364l-15 -60h-33q-51 0 -118 -85l-585 -731
l-77 -331q-10 -46 2 -65.5t58 -19.5h169l-13 -60h-620z" />
    <glyph glyph-name="ygrave" unicode="&#x1ef3;" horiz-adv-x="924" 
d="M553 1030l-379 318v4h186l246 -322h-53zM-34 -462q-54 -4 -54 48q0 25 15.5 37t45.5 19q93 20 173.5 80.5t168.5 188.5l98 146l-192 661q-19 64 -65 64h-82l14 60h219l189 -663l329 506q61 97 -10 97h-143l12 60h314l-643 -978q-103 -157 -191 -231.5t-198 -94.5z" />
    <glyph glyph-name="endash" unicode="&#x2013;" horiz-adv-x="1360" 
d="M144 366l17 80h1048l-16 -80h-1049z" />
    <glyph glyph-name="emdash" unicode="&#x2014;" horiz-adv-x="2359" 
d="M144 366l17 80h2048l-17 -80h-2048z" />
    <glyph glyph-name="quoteleft" unicode="&#x2018;" horiz-adv-x="545" 
d="M371 854q-67 0 -94 52.5t-9 135.5q25 120 121 214.5t215 123.5l5 -59q-103 -27 -173 -99t-82 -134q-3 -15 2 -21t17 -2q6 1 15 2t15.5 2t11.5 1q42 0 67.5 -33t15.5 -83q-8 -40 -44 -70t-83 -30z" />
    <glyph glyph-name="quoteright" unicode="&#x2019;" horiz-adv-x="544" 
d="M236 854l-4 60q102 27 171.5 99t82.5 134q3 15 -1.5 21t-17.5 2l-21 -3.5t-22 -2.5q-41 0 -66.5 33.5t-15.5 83.5q10 40 45 69.5t83 29.5q67 0 94 -52t9 -136q-26 -120 -122.5 -214t-214.5 -124z" />
    <glyph glyph-name="quotesinglbase" unicode="&#x201a;" horiz-adv-x="547" 
d="M-17 -344l-5 60q104 27 172.5 99t82.5 134q4 15 -1.5 21t-17.5 2q-8 -1 -23 -3.5t-20 -2.5q-41 0 -66 33t-16 83q10 40 45.5 70t82.5 30q67 0 94 -52t10 -136q-26 -119 -122.5 -213.5t-215.5 -124.5z" />
    <glyph glyph-name="quotedblleft" unicode="&#x201c;" horiz-adv-x="942" 
d="M370 854q-67 0 -94 52.5t-8 135.5q25 120 120.5 214.5t212.5 123.5l5 -59q-70 -19 -127.5 -63t-87.5 -88t-38 -82q-3 -15 2 -21t18 -2q40 5 41 5q41 0 66.5 -33t14.5 -83q-8 -40 -43 -70t-82 -30zM769 854q-67 0 -93.5 52.5t-8.5 135.5q25 120 120.5 214.5t212.5 123.5
l5 -59q-102 -27 -171 -99t-82 -134q-3 -15 2 -21t17 -2q5 1 20 3t22 2q41 0 66.5 -33t15.5 -83q-8 -40 -43.5 -70t-82.5 -30z" />
    <glyph glyph-name="quotedblright" unicode="&#x201d;" horiz-adv-x="941" 
d="M237 854l-5 60q70 19 127.5 63t87 88t37.5 82q3 15 -1.5 21t-16.5 2l-21 -3.5t-22 -2.5q-41 0 -66 33.5t-15 83.5q10 40 44.5 69.5t82.5 29.5q66 0 92.5 -52t8.5 -136q-26 -119 -121.5 -213.5t-211.5 -124.5zM636 854l-5 60q70 19 127.5 63t87.5 88t38 82q3 15 -2 21
t-18 2q-5 -1 -19.5 -3.5t-21.5 -2.5q-41 0 -67 33.5t-15 83.5q10 40 45 69.5t83 29.5q65 0 92 -52t9 -136q-26 -119 -121.5 -213.5t-212.5 -124.5z" />
    <glyph glyph-name="quotedblbase" unicode="&#x201e;" horiz-adv-x="949" 
d="M-17 -344l-5 60q104 27 172.5 99t82.5 134q4 15 -1.5 21t-17.5 2q-8 -1 -23 -3.5t-20 -2.5q-41 0 -66 33t-16 83q10 40 45.5 70t82.5 30q67 0 94 -52t10 -136q-26 -119 -122.5 -213.5t-215.5 -124.5zM386 -344l-5 60q104 27 172.5 99t82.5 134q4 15 -1.5 21t-17.5 2
q-8 -1 -23 -3.5t-20 -2.5q-41 0 -66 33t-16 83q9 40 44.5 70t83.5 30q67 0 93.5 -52t9.5 -136q-25 -119 -122 -213.5t-215 -124.5z" />
    <glyph glyph-name="dagger" unicode="&#x2020;" horiz-adv-x="893" 
d="M291 -167l27 129q30 144 64 353t44 283q16 143 69 197q-13 -3 -107.5 -29.5t-136.5 -26.5q-13 0 -27.5 3.5t-32.5 12.5t-26.5 30.5t-1.5 51.5q16 78 108 78q44 0 122 -25t113 -27q0 8 -3.5 69.5t-1.5 109t12 93.5q8 39 22 65.5t31.5 37t29 14t23.5 3.5q35 0 56 -33t7 -99
q-16 -76 -111 -269q33 8 86.5 25t89.5 25t71 8q51 0 72 -28.5t13 -67.5q-7 -32 -35 -55t-77 -23q-42 0 -121 23t-103 24q3 -9 5 -18t2.5 -20t0.5 -19t-2 -21.5t-3.5 -21t-6 -25t-7 -25t-8.5 -29.5t-9 -32q-4 -14 -28.5 -100t-41.5 -149t-43.5 -170t-48.5 -207l-24 -115h-62z
" />
    <glyph glyph-name="daggerdbl" unicode="&#x2021;" horiz-adv-x="947" 
d="M842 912q54 0 75.5 -29t13.5 -67q-7 -34 -35.5 -56t-77.5 -22q-42 0 -121 23t-103 24q4 -11 5.5 -22t2.5 -20t-0.5 -23.5t-2.5 -22.5t-6 -27t-7 -27.5t-9 -33t-10 -35.5q-60 -192 -89 -416q-2 -12 -5.5 -41.5t-5 -39t-6 -30.5t-9.5 -32t-14 -26t-21 -29q17 4 67 19.5
t95 26t76 10.5q53 0 73 -29.5t11 -69.5q-8 -31 -36 -53t-76 -22t-128 25.5t-104 30.5q0 -17 2 -63t2.5 -77.5t-2.5 -74t-10 -73.5q-13 -59 -43 -85t-59 -26q-35 0 -57.5 31.5t-5.5 110.5q7 31 21 70t24.5 62t32.5 68.5t26 53.5q-31 -4 -117.5 -29.5t-125.5 -25.5
q-41 0 -67.5 26t-16.5 73q8 41 43.5 59t72.5 17q42 0 119.5 -22t106.5 -23q-20 74 23 208q21 62 52 206.5t38 213.5q10 130 66 196q-14 -3 -107 -29t-133 -26q-15 0 -31 4.5t-33 14.5t-24.5 30.5t-1.5 48.5q17 78 107 78q46 0 127 -27.5t112 -32.5q0 8 -4 58t-4.5 76t2 69.5
t10.5 77.5q9 39 23.5 65.5t31 36.5t27 13.5t19.5 3.5q42 0 62 -33.5t6 -98.5q-4 -18 -11 -40.5t-13.5 -40.5t-19 -47.5t-19 -44t-22 -48t-19.5 -43.5q34 8 85 23t85.5 22.5t66.5 7.5z" />
    <glyph glyph-name="bullet" unicode="&#x2022;" horiz-adv-x="822" 
d="M465 430q-100 0 -171.5 72t-71.5 172q0 102 71.5 171.5t171.5 69.5q99 0 170.5 -69.5t71.5 -171.5q0 -101 -71 -172.5t-171 -71.5z" />
    <glyph glyph-name="twodotenleader" unicode="&#x2025;" horiz-adv-x="1176" 
d="M228 -34q-46 0 -78 32t-32 78q0 44 32 76t78 32q44 0 75.5 -32t31.5 -76q0 -46 -31.5 -78t-75.5 -32zM800 -34q-45 0 -76.5 32t-31.5 78q0 44 31.5 76t76.5 32q44 0 76 -32t32 -76q0 -46 -32 -78t-76 -32z" />
    <glyph glyph-name="ellipsis" unicode="&#x2026;" horiz-adv-x="1750" 
d="M228 -34q-46 0 -78 32t-32 78q0 44 32 76t78 32q44 0 75.5 -32t31.5 -76q0 -46 -31.5 -78t-75.5 -32zM800 -34q-45 0 -76.5 32t-31.5 78q0 44 31.5 76t76.5 32q44 0 76 -32t32 -76q0 -46 -32 -78t-76 -32zM1374 -34q-45 0 -77 32t-32 78q0 44 32 76t77 32q44 0 76 -32
t32 -76q0 -46 -32 -78t-76 -32z" />
    <glyph glyph-name="perthousand" unicode="&#x2030;" horiz-adv-x="2354" 
d="M436 674q-62 0 -105 25.5t-63.5 64t-28.5 88.5t-5.5 93.5t11.5 83.5q35 161 122 253t207 92q57 0 99 -20.5t65 -55.5t33 -82.5t7.5 -99t-14.5 -107.5q-8 -40 -24 -81.5t-44 -88t-63.5 -82.5t-87 -59.5t-109.5 -23.5zM382 0l980 1352h77l-983 -1352h-74zM438 722
q48 0 89 29t68 76.5t44 95t28 97.5q65 306 -93 306q-81 0 -140.5 -81t-93.5 -235q-10 -51 -13 -96t3 -91.5t33 -73.5t75 -27zM1219 -23q-62 0 -105 25.5t-63.5 64.5t-28.5 88.5t-5.5 93t11.5 83.5q34 162 120.5 254t206.5 92q57 0 99 -20.5t65 -55.5t33.5 -82.5t8 -99
t-14.5 -108.5q-9 -40 -24.5 -81.5t-43.5 -88t-63 -82.5t-86.5 -59.5t-109.5 -23.5zM1888 -23q-62 0 -105 25.5t-63.5 64.5t-28.5 88.5t-5.5 93t11.5 83.5q34 162 120.5 254t206.5 92q57 0 99 -20.5t65 -55.5t33.5 -82.5t8 -99t-14.5 -108.5q-9 -40 -24.5 -81.5t-43.5 -88
t-63 -82.5t-86.5 -59.5t-109.5 -23.5zM1219 26q39 0 73.5 20t59 50t45 71.5t32.5 79t21 76.5q64 306 -94 306q-81 0 -140.5 -81t-92.5 -234q-11 -52 -14.5 -96.5t2.5 -91t33 -73.5t75 -27zM1888 26q39 0 73.5 20t59 50t45 71.5t32.5 79t21 76.5q64 306 -93 306
q-81 0 -141 -80.5t-93 -234.5q-11 -52 -14.5 -96.5t2.5 -91t33 -73.5t75 -27z" />
    <glyph glyph-name="guilsinglleft" unicode="&#x2039;" horiz-adv-x="512" 
d="M273 0l-214 440l400 441h66l-351 -441l162 -440h-63z" />
    <glyph glyph-name="guilsinglright" unicode="&#x203a;" horiz-adv-x="511" 
d="M-5 0l351 440l-162 441h62l215 -441l-402 -440h-64z" />
    <glyph glyph-name="Euro" unicode="&#x20ac;" horiz-adv-x="1241" 
d="M586 -23q-120 0 -202 76t-114.5 204t-16.5 289l-100 -5l21 60l87 5q2 22 13 78q7 32 20 75l-97 -6l22 60l92 6q82 247 234 400.5t330 153.5q102 0 172.5 -57.5t97.5 -160.5l42 184h59l-82 -396l-58 4q15 168 -42.5 267t-177.5 99q-143 0 -266 -142t-192 -363l531 5
l-23 -60l-522 -5q-14 -50 -20 -81q-10 -41 -15 -72l502 6l-23 -60l-489 -6q-27 -227 32.5 -361.5t200.5 -134.5q123 0 234 110t161 268l52 -19q-68 -206 -193.5 -313.5t-269.5 -107.5z" />
    <glyph glyph-name="uni2113" unicode="&#x2113;" horiz-adv-x="886" 
d="M410 -22q-97 0 -134.5 90.5t-6.5 235.5l27 133q-19 -17 -104.5 -82.5t-105.5 -83.5l-28 51q23 21 125.5 99.5t126.5 98.5l91 460q42 199 134.5 322t216.5 123q91 0 119.5 -60.5t0.5 -191.5q-55 -259 -312 -514q-64 -66 -126 -117l-51 -247q-24 -119 -8.5 -181.5
t66.5 -62.5q118 0 195 257l52 -21q-49 -158 -116.5 -233.5t-161.5 -75.5zM449 638q50 45 105 106q219 222 267 446q22 96 8.5 137t-67.5 41q-77 0 -139 -93t-97 -260z" />
    <glyph glyph-name="trademark" unicode="&#x2122;" horiz-adv-x="2298" 
d="M307 1352h741l9 -215l-38 -2l-9 106q-8 43 -26 56.5t-52 13.5h-211v-670q0 -28 11.5 -42.5t44.5 -14.5h81v-37h-361v37h81q33 0 44.5 15t11.5 42v670h-214q-31 0 -51 -14t-25 -57l-7 -105l-38 2zM2150 584h90v-37h-371v37h83q30 0 42.5 13.5t12.5 43.5v632h-14l-328 -726
h-46l-322 726h-9v-616q0 -73 55 -73h66v-37h-279v37h65q53 0 53 74v597q0 29 -11.5 44t-42.5 15h-64v38h223l315 -707l320 707h251v-38h-89q-33 0 -44.5 -14.5t-11.5 -43.5v-615q0 -27 11.5 -42t44.5 -15z" />
    <glyph glyph-name="uni2126" unicode="&#x2126;" horiz-adv-x="1465" 
d="M67 0l59 280h51l-25 -115q-17 -81 65 -81h314l42 186q-352 182 -264 595q55 258 221 406t409 148q247 0 352.5 -157t49.5 -418q-41 -197 -171 -343.5t-336 -229.5l-41 -187h306q43 0 71 25.5t37 65.5l21 105h51l-60 -280h-506l64 314q178 81 288.5 223.5t148.5 326.5
q53 251 -19.5 375.5t-257.5 124.5q-192 0 -323 -136.5t-184 -383.5q-81 -389 209 -537l-63 -307h-509z" />
    <glyph glyph-name="partialdiff" unicode="&#x2202;" horiz-adv-x="1075" 
d="M857 1470q135 0 178.5 -140.5t-6.5 -362.5q-25 -116 -78 -259t-116 -264q-126 -227 -249 -344t-250 -117q-146 0 -208 96.5t-27 265.5q22 101 78 204t132.5 187.5t175.5 138t196 53.5q56 0 96 -18.5t61.5 -50t31 -66.5t9.5 -76q44 112 71 250q23 119 19.5 213
t-42.5 151.5t-107 57.5q-156 0 -300 -185l-32 38q171 228 367 228zM834 592q10 35 14.5 69t1 72.5t-17.5 67t-47 47.5t-82 19q-104 0 -210.5 -86t-182 -215t-104.5 -263q-26 -124 18.5 -190.5t147.5 -66.5q81 0 169 80t159.5 198.5t133.5 267.5z" />
    <glyph glyph-name="uni2206" unicode="&#x2206;" horiz-adv-x="1012" 
d="M20 0l612 1425h174l5 -1425h-791zM111 60h584l-2 1263h-35z" />
    <glyph glyph-name="product" unicode="&#x220f;" horiz-adv-x="1296" 
d="M-13 -246l12 51h87q31 0 54 28.5t31 69.5l293 1378q18 87 -40 87h-112l12 51h1073l-12 -51h-105q-31 0 -53.5 -28t-31.5 -70l-293 -1378q-18 -87 41 -87h93l-11 -51h-422l11 51h87q32 0 54.5 28t31.5 70l309 1455h-499l-311 -1466q-19 -87 39 -87h94l-11 -51h-421z" />
    <glyph glyph-name="summation" unicode="&#x2211;" horiz-adv-x="1021" 
d="M339 1420h686l-34 -322l-49 -3l15 189q4 44 -10 59.5t-47 15.5h-473l161 -740l-511 -771h536q69 0 93 79l68 229l51 -5l-114 -400h-732l13 72l496 749l-164 775z" />
    <glyph glyph-name="minus" unicode="&#x2212;" horiz-adv-x="1587" 
d="M293 632v87h1110v-87h-1110z" />
    <glyph glyph-name="radical" unicode="&#x221a;" horiz-adv-x="770" 
d="M783 1506h51l-489 -1513h-77l-19 689l-109 -70l-24 43l194 125l17 -673z" />
    <glyph glyph-name="infinity" unicode="&#x221e;" horiz-adv-x="1376" 
d="M985 826q105 0 169 -68t64 -180q0 -108 -66.5 -178t-170.5 -70q-150 0 -256 181q-50 -85 -114.5 -137.5t-156.5 -52.5q-105 0 -169 67.5t-64 179.5q0 109 66.5 179t171.5 70q149 0 255 -182q110 191 271 191zM981 385q82 0 132 54.5t50 138.5q0 88 -45.5 139.5
t-129.5 51.5q-43 0 -79 -16.5t-65 -50.5t-47 -62t-42 -74q95 -181 226 -181zM453 376q42 0 78 17.5t65.5 52t47.5 62.5t41 73q-98 180 -225 180q-81 0 -132.5 -53t-51.5 -140q0 -89 46.5 -140.5t130.5 -51.5z" />
    <glyph glyph-name="integral" unicode="&#x222b;" horiz-adv-x="625" 
d="M50 -410q-35 0 -58 13t-31 33t-10.5 43t4.5 42q9 38 37 38q16 0 24.5 -13t6.5 -30q-2 -24 7 -38.5t41 -13.5q29 4 47.5 24t33.5 69q17 55 54 342q26 199 77 437q14 65 42.5 202t42.5 203q59 272 86 354q26 80 56 127q59 91 141 91q102 0 97 -101q-1 -15 -9 -26.5
t-24 -12.5q-30 -3 -32 39q-11 32 -58 29q-48 -7 -74 -71q-8 -15 -15.5 -33.5t-14.5 -46.5t-12.5 -49.5t-13 -63.5t-11.5 -66t-13 -80t-14 -84q-35 -255 -72 -431q-54 -268 -95 -444q-58 -267 -107 -375q-23 -55 -54.5 -81t-78.5 -26z" />
    <glyph glyph-name="approxequal" unicode="&#x2248;" horiz-adv-x="1317" 
d="M251 581l-61 62q68 93 144 143.5t185 50.5q126 0 245 -65q115 -66 193 -66q88 0 177 131l61 -61q-49 -71 -105.5 -114t-130.5 -43q-98 0 -218 68q-113 63 -220 63q-81 0 -143.5 -41t-126.5 -128zM251 376l-61 61q68 93 144 143.5t185 50.5q129 0 245 -65q118 -66 193 -66
q88 0 177 131l61 -61q-49 -71 -105.5 -114t-130.5 -43q-95 0 -218 68q-110 63 -220 63q-81 0 -143.5 -41t-126.5 -127z" />
    <glyph glyph-name="notequal" unicode="&#x2260;" horiz-adv-x="1401" 
d="M1310 870h-389l-200 -388h589v-87h-634l-221 -428h-114l221 428h-362v87h407l201 388h-608v87h653l205 396h112l-204 -396h344v-87z" />
    <glyph glyph-name="lessequal" unicode="&#x2264;" horiz-adv-x="1278" 
d="M1085 1224v-95l-830 -341l830 -342v-95l-907 380v113zM207 0v87h878v-87h-878z" />
    <glyph glyph-name="greaterequal" unicode="&#x2265;" horiz-adv-x="1272" 
d="M219 1224l907 -380v-113l-907 -380v95l830 342l-830 341v95zM219 0v87h877v-87h-877z" />
    <glyph glyph-name="uni0308.case" 
d="M-318 1524q-35 0 -58.5 25t-23.5 57q0 34 24 57.5t58 23.5t58 -23.5t24 -57.5q0 -36 -24.5 -59t-57.5 -23zM38 1524q-35 0 -58.5 24.5t-23.5 57.5q0 34 24 57.5t58 23.5t58 -23.5t24 -57.5q0 -35 -24.5 -58.5t-57.5 -23.5z" />
    <glyph glyph-name="gravecomb.case" 
d="M126 1438l-379 317v4h186l246 -321h-53z" />
    <glyph glyph-name="acutecomb.case" 
d="M-185 1438l246 321h186v-4l-379 -317h-53z" />
    <glyph glyph-name="uni0302.case" 
d="M-466 1470l305 322h164l169 -322h-45l-217 259l-327 -259h-49z" />
    <glyph glyph-name="uni030C.case" 
d="M-226 1456l-174 322h47l215 -259l327 259h49l-310 -322h-154z" />
    <glyph glyph-name="uni030A.case" 
d="M-37 1446q-75 0 -128 53t-53 129t53 128.5t128 52.5q74 0 127.5 -53t53.5 -128q0 -74 -53.5 -128t-127.5 -54zM-37 1497q55 0 92.5 38t37.5 93t-37.5 93t-92.5 38q-54 0 -91.5 -38t-37.5 -93t37.5 -93t91.5 -38z" />
    <glyph glyph-name="tildecomb.case" 
d="M-479 1434l-46 11q23 116 81 181t140 65q33 0 61 -15t40.5 -28.5t33.5 -40.5q25 -36 48.5 -54t64.5 -18q56 0 98 46t61 128l45 -10q-22 -115 -81.5 -185.5t-142.5 -70.5q-26 0 -47 6t-40.5 22.5t-25.5 23t-25 31.5q-4 5 -6 7q-17 23 -28.5 35t-32.5 22t-48 10
q-55 0 -95 -46t-55 -120z" />
    <glyph glyph-name="uni0335.case" 
d="M-840 653l12 63h736l-13 -63h-735z" />
    <glyph glyph-name="uni0337.case" 
d="M-744 376l18 88l851 615l-17 -87z" />
    <glyph glyph-name="uni0338.case" 
d="M-964 15l-47 40l1177 1338l46 -41z" />
    </font>
</defs>
</svg>
