<?xml version="1.0" standalone="no"?>
<!DOCTYPE svg PUBLIC "-//W3C//DTD SVG 1.1//EN" "http://www.w3.org/Graphics/SVG/1.1/DTD/svg11.dtd" >
<svg xmlns="http://www.w3.org/2000/svg" xmlns:xlink="http://www.w3.org/1999/xlink" version="1.1">
<metadata>
Created by FontForge 20170731 at Wed Dec 13 17:12:55 2017
 By ,,,
Copyright (c)2017 HK CartaTM by Alfredo Marco Pradil
</metadata>
<defs>
<font id="HKCarta-SemiBoldItalic" horiz-adv-x="0" >
  <font-face 
    font-family="HK Carta SemiBold Italic"
    font-weight="600"
    font-style="italic"
    font-stretch="normal"
    units-per-em="2048"
    panose-1="0 0 7 0 0 0 0 0 0 0"
    ascent="1393"
    descent="-655"
    x-height="874"
    cap-height="1354"
    bbox="-1014 -605 2370.56 1817"
    underline-thickness="50"
    underline-position="-200"
    slope="-12"
    unicode-range="U+0020-FB02"
  />
<missing-glyph horiz-adv-x="1162" 
d="M112 0l288 1352h752l-288 -1352h-752zM194 68h618l258 1215h-618z" />
    <glyph glyph-name="fi" unicode="fi" horiz-adv-x="1164" 
d="M829 1386q164 0 255 -63t63 -175q-12 -41 -43 -66t-77 -26q-27 0 -44 9t-23.5 26.5t-8.5 33.5t-2.5 39t-2.5 33q-3 99 -128 99q-113 0 -173.5 -67.5t-88.5 -188.5l-38 -166h577l-168 -733q-7 -28 11 -41t59 -13h57l-19 -87h-371l183 786h-350l-305 -1302h-226l305 1302
h-188l21 88h188l36 151q43 182 177 271.5t324 89.5z" />
    <glyph glyph-name="fl" unicode="fl" horiz-adv-x="1174" 
d="M-34 -516l305 1302h-188l21 88h188l35 151q43 180 176 270.5t306 90.5q141 0 210 -59l201 66l-289 -1252q-13 -54 70 -54h57l-19 -87h-371l248 1061q16 73 18.5 125.5t-26.5 81t-95 28.5q-198 0 -257 -256l-39 -166h230l-21 -88h-229l-305 -1302h-226z" />
    <glyph glyph-name="f_f" unicode="ff" horiz-adv-x="1229" 
d="M1376 1386q56 0 104 -14t85.5 -42t54.5 -75t6 -107q-8 -38 -42 -64.5t-74 -27.5q-43 0 -67 34.5t-19 88.5q4 117 -92 117q-71 0 -123.5 -70.5t-78.5 -185.5l-39 -166h230l-21 -88h-229l-305 -1302h-226l304 1302h-347l-305 -1302h-226l305 1302h-188l21 88h188l36 151
q28 122 103 205.5t168.5 119.5t202.5 36q81 0 146.5 -29.5t92.5 -88.5q133 118 335 118zM866 874l35 151l9 35q-31 10 -47.5 42.5t-11.5 76.5q4 117 -92 117q-72 0 -124 -70t-79 -186l-38 -166h348z" />
    <glyph glyph-name="f_f_i" unicode="ffi" horiz-adv-x="1738" 
d="M1390 1386q175 0 263.5 -58.5t66.5 -179.5q-8 -39 -41.5 -65t-74.5 -27q-20 0 -34.5 4.5t-23 12t-14.5 18.5t-7.5 23.5t-2.5 26.5t-0.5 28.5t-0.5 28.5q-4 48 -35.5 73t-100.5 25q-197 0 -255 -256l-39 -166h578l-169 -733q-6 -28 12 -41t59 -13h57l-19 -87h-371l183 786
h-350l-305 -1302h-226l304 1302h-347l-305 -1302h-226l305 1302h-188l21 88h188l36 151q28 122 103 205.5t168.5 119.5t202.5 36q82 0 147.5 -29.5t91.5 -88.5q135 118 349 118zM866 874l35 151l9 35q-31 10 -47.5 42.5t-11.5 76.5q4 117 -92 117q-72 0 -124 -70t-79 -186
l-38 -166h348z" />
    <glyph glyph-name="f_f_l" unicode="ffl" horiz-adv-x="1748" 
d="M1505 141q-13 -54 70 -54h57l-19 -87h-371l248 1061q16 73 18.5 125.5t-26.5 81t-95 28.5q-198 0 -257 -256l-39 -166h230l-21 -88h-229l-305 -1302h-226l304 1302h-347l-305 -1302h-226l305 1302h-188l21 88h188l36 151q22 92 70 163t112.5 113.5t136.5 63.5t148 21
q97 0 159.5 -32t87.5 -86q135 118 341 118q141 0 210 -59l201 66zM866 874l35 151l9 35q-35 11 -49.5 48.5t-11.5 70.5q4 49 -16.5 83t-73.5 34q-72 0 -124 -70t-79 -186l-38 -166h348z" />
    <glyph glyph-name=".notdef" horiz-adv-x="1162" 
d="M112 0l288 1352h752l-288 -1352h-752zM194 68h618l258 1215h-618z" />
    <glyph glyph-name=".null" 
 />
    <glyph glyph-name="nonmarkingreturn" horiz-adv-x="682" 
 />
    <glyph glyph-name="space" unicode=" " horiz-adv-x="498" 
 />
    <glyph glyph-name="exclam" unicode="!" horiz-adv-x="577" 
d="M249 446l85 678q1 10 5 41t9 63.5t10 59.5q4 18 8 28.5t16.5 27.5t37 25.5t61.5 8.5q120 0 92 -131q-3 -11 -9 -31t-15.5 -50.5t-15.5 -48.5l-199 -671h-85zM222 -33q-60 0 -102.5 43.5t-42.5 105.5q0 61 42.5 104t102.5 43t103 -43t43 -104q0 -62 -43 -105.5t-103 -43.5
z" />
    <glyph glyph-name="quotedbl" unicode="&#x22;" horiz-adv-x="916" 
d="M276 714l23 437q3 76 15 137q8 40 41.5 65t75.5 25q50 0 74 -37.5t12 -90.5q-4 -19 -21 -66t-19 -53l-155 -417h-46zM716 714l23 437q3 76 15 137q8 40 41.5 65t75.5 25q50 0 74 -37.5t12 -90.5q-4 -19 -21 -66t-19 -53l-155 -417h-46z" />
    <glyph glyph-name="numbersign" unicode="#" horiz-adv-x="1405" 
d="M112 -40l170 403h-201l30 140h230l148 351h-304l30 141h331l170 400h141l-169 -400h402l169 400h142l-170 -400h194l-30 -141h-220l-146 -351h292l-30 -140h-322l-172 -403h-140l171 403h-405l-170 -403h-141zM483 503h404l145 351h-402z" />
    <glyph glyph-name="dollar" unicode="$" horiz-adv-x="1149" 
d="M928 1337q53 -25 92 -64t84 -102l-33 -163q-11 -52 -47 -52q-49 0 -47 76q-7 128 -93 199l-174 -424q18 -8 27 -13q38 -16 69 -31.5t64 -35t58 -41t47.5 -47t37 -55t23 -64t7.5 -75.5t-11 -87q-19 -92 -73 -167.5t-124.5 -121.5t-147 -70.5t-148.5 -24.5q-88 0 -163 23
l-65 -159h-70l75 182q-134 64 -226 226l37 189q11 52 51 52q24 0 36 -20t10 -56q-2 -96 31 -173.5t101 -119.5l198 480q-51 25 -87 44.5t-73 44.5t-61 49.5t-44.5 55.5t-29 65t-8.5 76.5t11 91.5q32 152 167 252.5t289 100.5q81 0 150 -18l47 113h69zM652 836l177 428
q-48 20 -98 20q-108 0 -179 -65t-89 -147q-4 -22 -5 -41t3.5 -35.5t11.5 -30.5t20.5 -27.5t27.5 -25t36.5 -25t43 -25t51.5 -26.5zM627 563l-7 3.5t-8 3.5l-197 -479q51 -16 108 -16q99 0 184 69t108 176q16 79 -29.5 133.5t-158.5 109.5z" />
    <glyph glyph-name="percent" unicode="%" horiz-adv-x="1737" 
d="M436 670q-71 0 -121.5 26.5t-75.5 66t-35.5 91t-8.5 96.5t11 88q34 160 129.5 250t233.5 90q64 0 112 -19t74 -51.5t41.5 -70.5t17.5 -83t-1 -81t-10 -71q-12 -56 -39 -110t-70 -106t-110 -84t-148 -32zM386 0l979 1352h116l-983 -1352h-112zM437 730q123 0 185 287
q20 94 25 155.5t-5 92t-26.5 42t-44.5 11.5q-64 0 -109 -75.5t-80 -236.5q-12 -60 -17.5 -102t-3.5 -85.5t21 -66t55 -22.5zM1266 -26q-71 0 -122 26.5t-75.5 66t-35 91t-8.5 96.5t11 88q34 160 129.5 249.5t233.5 89.5q55 0 98.5 -14.5t70 -38t44 -56.5t24.5 -66.5
t7.5 -71.5t-3 -68.5t-9.5 -60.5q-11 -55 -37.5 -109.5t-69.5 -106t-110 -83.5t-148 -32zM1266 34q122 0 186 286q20 94 25 155.5t-5 92.5t-26.5 42t-44.5 11q-64 0 -109 -75t-80 -237q-13 -60 -18.5 -102t-4 -85t21 -65.5t55.5 -22.5z" />
    <glyph glyph-name="ampersand" unicode="&#x26;" horiz-adv-x="1576" 
d="M375 -26q-170 0 -264 106t-62 257q11 54 39.5 103t67.5 89.5t95.5 81.5t115.5 75t137 73q-18 30 -27 46t-23 44t-20 48.5t-11.5 47.5t-4 55t7.5 59q26 121 125 189t238 68q138 0 205.5 -71.5t43.5 -185.5q-35 -164 -289 -297q144 -202 216 -377q205 226 259 361
q10 22 -1 32.5t-46 10.5h-65l18 85h418l-18 -85h-48q-24 0 -50.5 -14t-58.5 -45t-54 -56.5t-61 -71.5q-12 -16 -64 -84t-73 -94.5t-55.5 -68t-59.5 -66.5q49 -105 81 -142t91 -37q70 0 119 53t72 143l86 -21q-16 -72 -46 -128t-66 -89.5t-80.5 -55t-85 -29.5t-82.5 -8
q-52 0 -90.5 12t-69.5 42t-45.5 50t-43.5 67q-5 7 -7 11q-85 -71 -209.5 -127t-254.5 -56zM698 852q193 114 222 256q12 55 -22.5 88t-108.5 33q-73 0 -123.5 -42t-61.5 -106q-13 -93 94 -229zM493 110q140 0 295 136q-85 204 -240 421q-139 -76 -202.5 -133t-82.5 -144
q-9 -43 1 -91t37 -90.5t77.5 -70.5t114.5 -28z" />
    <glyph glyph-name="quotesingle" unicode="'" horiz-adv-x="476" 
d="M276 714l23 437q3 76 15 137q8 40 41.5 65t75.5 25q50 0 74 -37.5t12 -90.5q-4 -19 -21 -66t-19 -53l-155 -417h-46z" />
    <glyph glyph-name="parenleft" unicode="(" horiz-adv-x="508" 
d="M183 -485q-106 200 -131.5 441t30.5 501q21 101 58 209.5t95 233t146 252t195 233.5l122 -18q-108 -114 -199 -244.5t-175.5 -317.5t-127.5 -388q-54 -257 -29.5 -473.5t129.5 -445.5z" />
    <glyph glyph-name="parenright" unicode=")" horiz-adv-x="511" 
d="M-187 -485q205 232 325 454.5t176 488.5q31 146 36.5 284t-13 254t-49 210.5t-74.5 178.5l113 -18q62 -106 96.5 -234t40 -255t-3.5 -240t-32 -222q-53 -249 -179 -485t-315 -433z" />
    <glyph glyph-name="asterisk" unicode="*" horiz-adv-x="1096" 
d="M420 442q-42 0 -77 31.5t-35 70.5q0 11 3 21.5t7 19.5t13.5 20t16 18t21.5 19.5t22.5 18.5t26.5 21t27 21q26 18 47.5 37t48 44.5t37.5 35.5q16 15 11 27q-3 11 -23 17q-48 11 -131 19q-17 2 -78.5 3t-78.5 3q-52 1 -81 25.5t-29 69.5q0 42 27.5 76t66.5 34q31 0 70 -20
t102 -69q69 -49 147 -86q21 -10 29 -1q11 9 8 26t-10 55t-13 66t-14 54q-35 107 -36 158q-1 37 24.5 65.5t75.5 28.5q47 0 73.5 -26t25.5 -66q-1 -57 -31 -151q-20 -65 -39 -184q-2 -16 9 -27q6 -7 28 1q36 17 87 51.5t57 37.5q15 10 41 27.5t35.5 24t26.5 16.5t26 13.5
t20.5 6.5t22.5 3q44 0 71.5 -35t27.5 -77q0 -45 -31 -69t-69 -25q-19 -3 -80.5 -4.5t-77.5 -3.5q-99 -9 -139 -19q-18 -4 -23 -16q-5 -16 9 -29q122 -105 171 -141q3 -3 9 -8q29 -26 44 -40.5t30 -39t15 -46.5q0 -40 -35.5 -71.5t-76.5 -31.5q-25 0 -43.5 11.5t-30 33
t-17.5 38.5t-12 42q-28 75 -39 97q-34 76 -61 125q-10 18 -22 18q-14 0 -23 -18q-35 -65 -60 -132q-15 -39 -47 -117q-5 -16 -7 -21.5t-11 -24t-18 -27t-25 -17t-36 -8.5z" />
    <glyph glyph-name="plus" unicode="+" horiz-adv-x="1252" 
d="M601 121v479h-479v152h479v479h153v-479h478v-152h-478v-479h-153z" />
    <glyph glyph-name="comma" unicode="," horiz-adv-x="623" 
d="M-11 -373l6 93q113 18 188.5 89.5t90.5 142.5q4 14 -2 19.5t-19 3.5q-11 0 -30.5 -5t-34.5 -5q-49 0 -82 44.5t-18 114.5q11 51 56.5 91t114.5 40q88 0 124.5 -72.5t11.5 -190.5q-18 -83 -62 -151.5t-102 -111.5t-119.5 -68.5t-122.5 -33.5z" />
    <glyph glyph-name="hyphen" unicode="-" horiz-adv-x="864" 
d="M110 310l41 194h592l-41 -194h-592z" />
    <glyph glyph-name="period" unicode="." horiz-adv-x="599" 
d="M231 -33q-60 0 -102.5 43.5t-42.5 105.5q0 61 42.5 104t102.5 43t103 -43t43 -104q0 -62 -43 -105.5t-103 -43.5z" />
    <glyph glyph-name="slash" unicode="/" horiz-adv-x="850" 
d="M-138 -33l1011 1387h209l-1010 -1387h-210z" />
    <glyph glyph-name="zero" unicode="0" horiz-adv-x="1044" 
d="M430 -26q-36 0 -71 8.5t-73 31.5t-69 58t-55 93t-34 131.5t-3.5 178.5t32.5 229q36 171 96.5 302t135 210t156.5 119t169 40q52 0 98 -16t88 -50t71 -91.5t44 -135t10 -187t-33 -240.5q-38 -174 -97.5 -306.5t-133.5 -213.5t-157 -121t-174 -40zM440 64q103 0 178 144
t141 458q36 169 51.5 281.5t10.5 190.5t-32.5 112.5t-80.5 34.5q-55 0 -103 -45t-88 -131t-72.5 -195t-62.5 -253q-68 -300 -57 -448.5t115 -148.5z" />
    <glyph glyph-name="one" unicode="1" horiz-adv-x="1044" 
d="M614 183q-7 -30 -7.5 -51.5t18.5 -33t63 -11.5h139l-20 -87h-706l19 87h143q104 0 128 112l210 994q-61 -29 -117 -39.5t-155 -10.5l12 84q145 5 242.5 38t190.5 116l92 -6z" />
    <glyph glyph-name="two" unicode="2" horiz-adv-x="1044" 
d="M993 991q-21 -105 -97.5 -209.5t-221.5 -254.5q-270 -249 -422 -377h440q89 0 127 74l42 76h84l-186 -349l-85 10q14 25 10.5 32t-37.5 7h-652l17 96q330 261 493 471q211 229 261 455q24 112 -11 186t-130 74q-89 0 -162 -65.5t-94 -159.5q-12 -56 12 -131l-139 -43
q-34 103 -15 187q19 91 88 161.5t165 107t200 36.5q171 0 260.5 -106t52.5 -278z" />
    <glyph glyph-name="three" unicode="3" horiz-adv-x="1044" 
d="M324 -26q-144 0 -223.5 68.5t-70.5 163.5q6 39 34.5 57.5t63.5 18.5q21 1 35 -4.5t21 -18.5t9.5 -23.5t5.5 -31t5 -29.5q14 -49 46.5 -80t99.5 -31q131 0 223.5 105t128.5 272q26 126 -8 184.5t-97 58.5q-42 0 -98 -31l-70 -41l-44 70l154 102q239 146 277 323
q19 90 -26.5 132t-121.5 42q-96 0 -164 -58t-77 -145q-5 -47 15 -98l-149 -47q-41 75 -25 153q18 81 88.5 147.5t170.5 104t206 37.5q64 0 123 -17.5t105 -50t67 -86t7 -119.5q-11 -50 -45.5 -99t-72.5 -82t-90 -65.5t-82 -47.5t-63 -30q133 6 210.5 -84.5t40.5 -262.5
q-29 -136 -125.5 -242.5t-223.5 -160.5t-260 -54z" />
    <glyph glyph-name="four" unicode="4" horiz-adv-x="1044" 
d="M272 0l20 87h81q67 0 93.5 30.5t39.5 95.5l56 256h-488l24 125l746 777h135l-169 -796h180l-22 -106h-180l-60 -279q-5 -30 -7 -52.5t19 -36.5t70 -14h78l-20 -87h-596zM199 575h385l113 536h-8l-486 -521z" />
    <glyph glyph-name="five" unicode="5" horiz-adv-x="1044" 
d="M621 901q72 0 136.5 -26.5t116.5 -82t69.5 -142t-4.5 -206.5q-21 -100 -70.5 -182t-111 -134.5t-135.5 -88t-143 -50.5t-134 -15q-79 0 -147.5 23.5t-113 74t-41.5 117.5q4 28 30.5 48.5t58.5 22.5q23 1 38 -4.5t22.5 -18t11 -23t7 -30t6.5 -28.5q41 -91 157 -91
q83 0 153 61.5t113.5 153.5t67.5 205q66 318 -144 318q-123 0 -216 -129l-100 9l166 669h629l-92 -153h-492l-93 -385q97 87 255 87z" />
    <glyph glyph-name="six" unicode="6" horiz-adv-x="1044" 
d="M450 -26q-84 0 -152.5 34t-119 107.5t-61.5 189t20 277.5q34 160 91.5 293t127 224.5t151.5 154.5t165 92t167 29q110 0 175.5 -49.5t65.5 -125.5q-3 -26 -27.5 -48t-57.5 -23q-29 -2 -48 17.5t-32 66.5q-47 68 -137 68q-58 0 -111 -38t-91.5 -94.5t-73.5 -137
t-56.5 -148.5t-41.5 -145q88 138 246 138q52 0 100.5 -15t94.5 -47.5t73.5 -85t37.5 -127.5t-12 -174q-22 -104 -75 -188t-121.5 -136.5t-145 -80.5t-152.5 -28zM452 64q184 0 258 347q22 109 24.5 188t-30.5 123t-104 44q-53 0 -96.5 -27.5t-75.5 -80t-55 -112t-44 -140.5
q-30 -170 -1 -256t124 -86z" />
    <glyph glyph-name="seven" unicode="7" horiz-adv-x="1044" 
d="M332 -23q-170 1 -15 226l636 967h-490q-39 0 -68 -17.5t-57 -56.5l-43 -75h-84l198 376h84q-13 -30 -10 -37.5t38 -7.5h627l-676 -1257q-36 -69 -66 -94.5t-74 -23.5z" />
    <glyph glyph-name="eight" unicode="8" horiz-adv-x="1044" 
d="M433 -26q-61 0 -118.5 13.5t-111.5 43t-88.5 76.5t-50 115t5.5 158q15 71 49 128.5t72 92t89.5 61.5t88.5 39t82 22q-21 7 -40 15t-44.5 22.5t-43.5 32t-38 43t-27.5 56t-12 71.5t8.5 88q18 86 67 151.5t115 101.5t135.5 53.5t141.5 17.5q77 0 143.5 -22t116 -64.5
t69 -114.5t0.5 -164q-46 -218 -321 -295q27 -6 50.5 -15t52 -24t49.5 -35t41.5 -49t28.5 -64.5t11 -82.5t-11 -103q-20 -95 -72.5 -168t-123.5 -115.5t-150.5 -63.5t-163.5 -21zM585 758q181 0 243 297q50 233 -119 233q-182 0 -240 -270q-16 -79 -15.5 -136.5t33 -90.5
t98.5 -33zM436 61q60 0 108.5 25.5t81.5 71.5t55 100.5t36 120.5q34 145 2.5 218t-143.5 73q-209 0 -275 -310q-18 -88 -17.5 -154.5t38 -105.5t114.5 -39z" />
    <glyph glyph-name="nine" unicode="9" horiz-adv-x="1044" 
d="M305 -26q-109 0 -173 49.5t-66 125.5q2 25 25.5 47.5t57.5 23.5q21 1 35.5 -7.5t20.5 -18t14.5 -28t13.5 -27.5q39 -71 134 -71q48 0 93 25.5t81 71.5t66.5 100t56 121.5t43.5 124.5t34 120q-88 -138 -246 -138q-52 0 -100.5 15t-94.5 47.5t-73.5 85t-37.5 127.5t12 174
q22 104 75 188t121.5 136.5t145 80.5t152.5 28q84 0 152 -34t118.5 -107.5t61.5 -189t-20 -277.5q-42 -199 -119.5 -354.5t-173 -249.5t-199.5 -141.5t-210 -47.5zM545 583q53 0 96.5 27.5t75.5 80t55 112t44 140.5q29 169 0.5 255.5t-123.5 86.5q-184 0 -258 -347
q-22 -110 -24 -188.5t31 -122.5t103 -44z" />
    <glyph glyph-name="colon" unicode=":" horiz-adv-x="597" 
d="M365 605q-60 0 -103 43.5t-43 105.5q0 61 43 104t103 43t102.5 -43t42.5 -104q0 -63 -42.5 -106t-102.5 -43zM227 -33q-60 0 -103 43.5t-43 105.5q0 61 43 104t103 43t103 -43t43 -104q0 -62 -43 -105.5t-103 -43.5z" />
    <glyph glyph-name="semicolon" unicode=";" horiz-adv-x="613" 
d="M365 605q-60 0 -103 43t-43 106q0 61 42.5 104t103.5 43q59 0 102 -43t43 -104q0 -63 -42.5 -106t-102.5 -43zM-13 -373l6 93q113 18 188.5 89.5t90.5 142.5q4 14 -2.5 19.5t-19.5 3.5q-11 0 -30 -5t-34 -5q-49 0 -82 44.5t-19 114.5q11 51 57 91t115 40
q88 0 124.5 -72.5t11.5 -190.5q-18 -83 -62 -151.5t-102 -111.5t-119.5 -68.5t-122.5 -33.5z" />
    <glyph glyph-name="less" unicode="&#x3c;" horiz-adv-x="1257" 
d="M1145 1190v-167l-830 -349l830 -349v-165l-1017 437v155z" />
    <glyph glyph-name="equal" unicode="=" horiz-adv-x="1476" 
d="M200 837v153h1110v-153h-1110zM200 362v153h1110v-153h-1110z" />
    <glyph glyph-name="greater" unicode="&#x3e;" horiz-adv-x="1257" 
d="M212 1190l1018 -438v-155l-1018 -437v165l830 349l-830 349v167z" />
    <glyph glyph-name="question" unicode="?" horiz-adv-x="868" 
d="M594 1378q127 0 211 -58t112.5 -150.5t4.5 -204.5q-22 -107 -88.5 -185.5t-145 -114t-156.5 -35.5q-56 0 -118 24l-43 -205h-97l68 313l71 -8q18 -20 68 -20q46 0 86.5 27t67 69t43 83t24.5 78q9 41 9.5 87.5t-9 96t-43 82t-87.5 32.5q-58 0 -114.5 -38.5t-89.5 -112.5
l-5 -8q-5 -9 -6.5 -11.5t-7.5 -10.5t-10 -11t-11.5 -9t-15 -8.5t-18 -4t-21.5 -1.5q-31 1 -52.5 28.5t-11.5 68.5q30 82 136 144.5t249 62.5zM251 263q60 0 103 -43t43 -104q0 -62 -43 -105.5t-103 -43.5t-103 43.5t-43 105.5q0 61 43 104t103 43z" />
    <glyph glyph-name="at" unicode="@" horiz-adv-x="1924" 
d="M801 -449q-186 0 -337.5 64.5t-245.5 181.5t-130.5 279.5t6.5 358.5q41 193 144.5 364.5t250.5 300t342.5 203.5t409.5 75q117 0 214.5 -24.5t166.5 -69t118.5 -107t72 -138t27 -162.5t-17.5 -181q-28 -129 -95.5 -255t-161 -226.5t-215 -162.5t-245.5 -62
q-68 0 -107.5 19.5t-51 57.5t-2.5 87t37 115q-218 -280 -380 -280q-53 0 -87.5 28t-46 75.5t-7 106.5t25.5 124q33 124 108.5 243t162.5 202t177.5 133.5t157.5 50.5q45 0 76 -19t43 -49.5t16 -68.5t-3 -75l84 180l182 7l-344 -687q-22 -45 -32.5 -77.5t-9.5 -58.5t20 -39.5
t56 -13.5q53 0 122 32.5t142 95t139 143t118.5 187t76.5 217.5q19 102 12.5 192t-47 164.5t-105.5 128t-162 83t-217 29.5q-201 0 -387 -77t-327 -207.5t-241 -303t-141 -364.5q-37 -175 -4 -317.5t119 -242.5t220.5 -154.5t299.5 -54.5q118 0 244.5 34.5t251.5 101.5
t240.5 176.5t198.5 248.5l52 -20q-89 -146 -202.5 -257t-218 -172.5t-218 -100.5t-193 -50.5t-152.5 -11.5zM715 124q60 0 152 84.5t175.5 215t118.5 251.5q36 105 21.5 160.5t-68.5 55.5q-46 0 -102.5 -44.5t-108 -112t-99.5 -147t-82.5 -151.5t-51.5 -123
q-31 -87 -17 -138t62 -51z" />
    <glyph glyph-name="A" unicode="A" horiz-adv-x="1292" 
d="M1175 87h47l-19 -87h-562l19 87h87q37 0 57.5 19.5t15.5 55.5l-31 247h-448l-140 -249q-11 -21 -11 -35.5t10.5 -22.5t23.5 -11.5t30 -3.5h85l-19 -87h-413l17 87h35q40 0 96.5 61t87.5 112l661 1118h102l157 -1139q5 -32 7.5 -46.5t10.5 -39.5t18.5 -36t29.5 -20.5
t46 -9.5zM392 499h385l-65 512h-32z" />
    <glyph glyph-name="B" unicode="B" horiz-adv-x="1297" 
d="M1283 1012q-13 -56 -44.5 -103.5t-69 -77.5t-85.5 -54.5t-84 -37t-74 -21.5q27 -5 54 -14.5t59 -25.5t58 -37.5t51 -51t37 -66.5t16.5 -83.5t-9.5 -102.5q-19 -85 -70 -149t-111.5 -98.5t-137.5 -55.5t-135 -27t-118 -6h-655l19 87h76q54 0 83 37.5t43 103.5l202 913
q15 52 4.5 85.5t-56.5 33.5h-92l19 93l720 -3q176 -1 256 -95t44 -244zM1020 1034q29 117 -19 176t-162 59h-177l-111 -502h158q123 0 200 61.5t111 205.5zM936 403q11 50 11.5 89.5t-8 67.5t-27 48.5t-40 33t-52.5 19.5t-61 9.5t-67 2.5h-162l-103 -467q-4 -22 -5.5 -37
t1 -34t17 -29.5t39.5 -10.5h135q68 0 123.5 25.5t94 70.5t63.5 97.5t41 114.5z" />
    <glyph glyph-name="C" unicode="C" horiz-adv-x="1433" 
d="M614 -26q-101 0 -184.5 28t-142.5 78t-100 118t-59.5 148t-19 167t19.5 177q28 129 97 251t168.5 220t235.5 157.5t284 59.5q121 0 219.5 -62t160.5 -186l76 198h84l-98 -484l-80 11q3 53 -6 108.5t-33.5 112t-62 101t-98.5 72.5t-136 28q-90 0 -169.5 -38t-137.5 -100
t-105.5 -148.5t-78.5 -175.5t-53 -189q-56 -256 11.5 -403.5t260.5 -147.5q98 0 198.5 51t193 154.5t153.5 245.5l85 -11l-108 -492h-84l5 190q-71 -95 -204 -167t-292 -72z" />
    <glyph glyph-name="D" unicode="D" horiz-adv-x="1498" 
d="M-40 0l20 87h86q95 0 125 141l203 918q16 57 3.5 89t-66.5 32h-91l18 85h547q102 0 189.5 -11.5t166 -36.5t137 -64t103.5 -94.5t66 -127.5t23.5 -163t-23.5 -202q-24 -111 -67 -203t-98 -159t-125.5 -118t-145 -83.5t-162.5 -53t-173 -28.5t-180 -8h-556zM535 94h150
q120 0 225.5 82.5t177 217t108.5 302.5q23 105 24 192.5t-18.5 149.5t-53 108t-81 72.5t-100.5 39.5t-114 13h-186l-229 -1037q-8 -43 -10.5 -74t22.5 -48.5t85 -17.5z" />
    <glyph glyph-name="E" unicode="E" horiz-adv-x="1315" 
d="M1274 1002l-83 -1l3 156q-3 25 -8.5 42.5t-16 28.5t-19.5 17.5t-28 9t-31.5 3t-39.5 0.5h-387l-112 -504h229q50 0 90.5 21.5t50.5 70.5l19 87h88l-101 -460h-87l22 102q1 20 3 34.5t-6 24t-13.5 15t-20.5 8t-25.5 3t-29.5 0.5h-239l-95 -428q-10 -45 -11.5 -75.5
t20 -46.5t72.5 -16h281q70 0 116.5 17.5t71.5 43.5t51 73l96 218l86 -2l-115 -444h-1148l19 87h75q110 0 140 141l202 916q8 39 8 65.5t-23.5 40.5t-76.5 14h-65l19 88h1078z" />
    <glyph glyph-name="F" unicode="F" horiz-adv-x="1174" 
d="M-40 0l19 87h58q69 0 103.5 34t50.5 107l202 916q15 71 -1.5 95.5t-92.5 24.5h-63l19 88h1067l-65 -355l-87 -2l9 144q-1 19 -5 35t-8.5 27.5t-13.5 20.5t-14.5 15t-18 10t-18 6.5t-20 3.5t-18.5 1h-19h-16h-364l-111 -501h215q113 0 139 118l14 59h86l-102 -464h-86
l19 85q13 60 -5 84t-80 24h-219l-101 -455q-14 -67 2.5 -94t94.5 -27h74l-19 -87h-625z" />
    <glyph glyph-name="G" unicode="G" horiz-adv-x="1492" 
d="M638 -26q-91 0 -169 20.5t-136.5 57t-103 88t-71.5 113.5t-40 132.5t-10.5 146t19.5 153.5q29 135 103.5 261t177 221.5t234.5 153t269 57.5q105 0 188 -38.5t128 -90t69 -113.5l77 211h82l-95 -466l-80 10q-1 51 -10 99t-32.5 100t-59 90.5t-95 63.5t-135.5 25
q-94 0 -176 -39t-141 -101.5t-107 -148.5t-78 -171.5t-51 -179.5q-19 -87 -25.5 -162.5t5 -149t43 -126t94.5 -84.5t153 -32q143 0 243.5 79.5t149.5 240.5q15 65 -10 87.5t-92 22.5h-204l20 87h704l-19 -87h-44q-85 0 -116 -148l-86 -383h-91l-51 159q-106 -91 -206 -125
t-225 -34z" />
    <glyph glyph-name="H" unicode="H" horiz-adv-x="1623" 
d="M-40 0l20 87h76q65 0 100 34t50 107l203 916q9 40 8 67t-23 40t-71 13h-84l19 88h633l-19 -88h-74q-69 0 -100.5 -36t-46.5 -105l-81 -360h622l86 381q8 40 7.5 66.5t-22 40t-68.5 13.5h-84l19 88h634l-19 -88h-76q-66 0 -100 -34.5t-49 -106.5l-203 -915q-17 -63 0 -92
t85 -29h84l-20 -87h-634l20 87h86q108 0 137 141l97 437h-623l-101 -457q-17 -58 -3 -89.5t76 -31.5h91l-19 -87h-633z" />
    <glyph glyph-name="I" unicode="I" horiz-adv-x="757" 
d="M-40 0l20 87h68q72 0 108.5 34t51.5 107l202 918q18 63 0.5 92t-95.5 29h-75l18 87h641l-18 -87h-67q-75 0 -110.5 -33t-51.5 -108l-203 -918q-15 -72 1.5 -96.5t96.5 -24.5h73l-19 -87h-641z" />
    <glyph glyph-name="J" unicode="J" horiz-adv-x="735" 
d="M-155 -490q-142 0 -227 67t-59 188q9 39 49.5 66t94.5 27q51 0 79 -31.5t16 -86.5q-2 -8 -19 -35.5t-18 -43.5q2 -64 115 -64q120 0 190.5 103.5t117.5 320.5l247 1123q7 35 8.5 61.5t-23 42.5t-79.5 16h-140l19 88h688l-19 -88h-59q-70 0 -104 -35.5t-49 -105.5
l-234 -1056q-39 -175 -85 -267q-144 -290 -509 -290z" />
    <glyph glyph-name="K" unicode="K" horiz-adv-x="1558" 
d="M-42 0l19 87h79q62 0 96 33.5t49 107.5l203 916q15 72 -1 96t-90 24h-77l19 88h639l-19 -88h-74q-75 0 -108.5 -37.5t-47.5 -107.5l-112 -490l548 479q48 41 70.5 67.5t29.5 56.5q4 18 -10.5 25t-41.5 7h-81l19 88h563l-20 -88h-67q-36 0 -70.5 -9t-74.5 -32.5t-60 -37
t-69 -51.5t-60 -46l-244 -204l254 -640q33 -83 68 -120t99 -37h90l-19 -87h-673l19 87h75q35 0 65.5 20.5t37.5 53.5q2 10 -4.5 28.5t-24.5 56t-21 45.5l-174 430l-248 -221l-66 -292q-16 -68 -3 -93t69 -26l94 -2l-18 -87h-627z" />
    <glyph glyph-name="L" unicode="L" horiz-adv-x="1252" 
d="M-41 0l19 87h77q66 0 101.5 32t51.5 109l202 916q9 40 8.5 67t-23.5 40t-76 13h-81l19 88h646l-19 -88h-73q-70 0 -106.5 -31.5t-52.5 -109.5l-198 -896q-10 -44 -12 -74t22.5 -44.5t83.5 -14.5h211q215 0 315 211l51 145l82 -1l-115 -449h-1133z" />
    <glyph glyph-name="M" unicode="M" horiz-adv-x="1911" 
d="M1591 1352h464l-19 -88h-74q-77 0 -111.5 -37.5t-47.5 -103.5l-203 -915q-7 -35 -8.5 -62t23 -43t80.5 -16h84l-19 -87h-649l19 87h70q70 0 106 32t52 109l199 900h-19l-734 -1128h-75l-235 1128h-14l-193 -867q-8 -44 -10.5 -82.5t20 -65t70.5 -26.5h67l-19 -87h-454
l19 87h60q121 0 161 196l190 858q7 37 9 64.5t-20.5 43t-74.5 15.5h-65l19 88h442l214 -1028z" />
    <glyph glyph-name="N" unicode="N" horiz-adv-x="1495" 
d="M1202 1352h457l-20 -88h-58q-58 0 -98.5 -53t-56.5 -127l-243 -1107h-99l-605 1109l-184 -832q-6 -27 -8.5 -45t-1 -43.5t11 -41t31.5 -26.5t57 -11h63l-19 -87h-469l19 87h58q36 0 66 17.5t46.5 38.5t30 53t17.5 46.5t8 32.5l186 842q30 147 -95 147h-62l19 88h390
l530 -981l164 735q32 158 -85 158h-69z" />
    <glyph glyph-name="O" unicode="O" horiz-adv-x="1493" 
d="M652 -26q-124 0 -224.5 35.5t-166.5 100.5t-106.5 155.5t-44 200t21.5 235.5q22 100 68.5 196.5t119.5 184t164 153t209 104.5t246 39q115 0 208.5 -29.5t156 -81.5t104.5 -121t59 -151t16 -168.5t-21 -175.5q-23 -104 -70 -202t-120.5 -184.5t-164.5 -151t-208.5 -102
t-246.5 -37.5zM652 75q193 0 328.5 157t202.5 464q65 298 -3.5 439.5t-245.5 141.5q-100 0 -186 -46.5t-150.5 -130t-111 -192.5t-76.5 -241q-19 -87 -26.5 -166.5t2 -158.5t37.5 -137t86.5 -94t142.5 -36z" />
    <glyph glyph-name="P" unicode="P" horiz-adv-x="1222" 
d="M-40 0l19 87h62q68 0 102 34t51 107l202 918q7 35 8.5 62t-23 43t-80.5 16h-67l18 85h546q44 0 83.5 -2t82 -6.5t78.5 -12.5t72 -19t64 -28t53 -38.5t41 -50t25.5 -62t8.5 -76.5t-11 -92q-76 -352 -586 -352h-184l-89 -405q-6 -35 -8 -62t23 -43t81 -16h66l-20 -87h-618z
M546 707h154q272 0 337 295q10 55 11 96t-12 71t-31 49t-46.5 30.5t-58 16t-66.5 4.5h-165z" />
    <glyph glyph-name="Q" unicode="Q" horiz-adv-x="1493" 
d="M652 -26q-124 0 -224.5 35.5t-166.5 100.5t-106.5 155.5t-44 200t21.5 235.5q22 100 68.5 196.5t119.5 184t164 153t209 104.5t246 39q116 0 209 -29.5t155.5 -82t104.5 -121.5t59 -151t16 -168t-21 -174q-23 -105 -70 -203t-120.5 -184.5t-164.5 -151t-208.5 -102
t-246.5 -37.5zM652 75q192 0 327.5 156.5t203.5 464.5q65 295 -3 438t-246 143q-100 0 -186 -46.5t-150.5 -130t-111 -192.5t-76.5 -241q-19 -87 -26.5 -166.5t2 -158.5t37.5 -137t86.5 -94t142.5 -36zM1116 -483q-96 0 -159.5 38.5t-127.5 108.5q-5 5 -28.5 32t-31 34
t-28.5 27.5t-34 27.5t-34 18t-42.5 15t-45.5 4q-56 0 -123 -38t-167 -118l-43 71q113 91 199.5 133t174.5 42q71 0 137 -28t142 -81q49 -33 81 -51t82.5 -34t102.5 -16q110 0 214 69l67 -127q-134 -127 -336 -127z" />
    <glyph glyph-name="R" unicode="R" horiz-adv-x="1432" 
d="M-44 0l19 87h58q71 0 107 32.5t53 108.5l202 918q8 39 8 65.5t-22 39.5t-73 13h-74l19 88h664q215 0 325 -95t67 -293q-27 -122 -112 -194t-231 -124q34 -28 57 -68.5t55 -122.5l111 -281q19 -45 53.5 -66t73.5 -21h46l-19 -87h-343l-156 449q-35 97 -69.5 130t-110.5 33
h-140l-90 -404q-15 -69 2 -95t90 -26h65l-19 -87h-616zM544 707h154q85 0 154 25.5t127 94.5t81 179q16 61 9 105t-23.5 72.5t-50.5 45.5t-71 23.5t-86 6.5h-173z" />
    <glyph glyph-name="S" unicode="S" horiz-adv-x="1106" 
d="M520 -26q-109 0 -199.5 54.5t-132.5 156.5l-60 -163h-91l102 465l88 -10q-9 -79 2 -149t42 -127.5t91 -91.5t142 -34q95 0 176.5 69t106.5 177q17 79 -26 134.5t-147 104.5q-173 89 -233 134q-110 83 -124 194q-8 60 9 137q33 152 165 252.5t281 100.5q82 0 155 -43.5
t112 -120.5l57 140h89l-87 -398l-84 11q5 78 -12 140.5t-50.5 100t-76.5 57t-91 19.5q-103 0 -171 -65t-87 -148q-20 -91 39 -147q40 -40 173 -104q8 -4 47 -23q37 -18 66 -34t61 -36t55 -41t45 -47t35 -55t21 -63.5t6.5 -75t-11.5 -86.5q-20 -93 -73 -168.5t-122 -121.5
t-143.5 -70.5t-144.5 -24.5z" />
    <glyph glyph-name="T" unicode="T" horiz-adv-x="1326" 
d="M239 0l20 87h70q76 0 111.5 37t49.5 104l227 1030h-211q-26 0 -45.5 -2t-50 -13t-54 -30t-48.5 -57t-42 -91l-26 -87l-86 1l89 373h1235l-75 -373l-86 -1l15 111q0 40 -4 69.5t-15 47.5t-22.5 29t-33 16t-37.5 6t-45 1h-211l-232 -1050q-6 -26 -8 -39.5t0 -32t12.5 -27
t33 -15.5t57.5 -7h79l-19 -87h-648z" />
    <glyph glyph-name="U" unicode="U" horiz-adv-x="1449" 
d="M633 -26q-261 0 -369 143t-49 413l136 614q8 38 9 64.5t-22.5 41t-78.5 14.5h-61l20 88h628l-20 -88h-75q-72 0 -107.5 -34.5t-50.5 -106.5l-137 -613q-46 -213 9.5 -320.5t238.5 -107.5q107 0 190 35.5t138.5 102.5t90.5 148t59 187l125 560q33 149 -97 149h-59l19 88
h449l-20 -88h-47q-59 0 -99.5 -48.5t-55.5 -118.5l-125 -565q-61 -280 -216.5 -419t-422.5 -139z" />
    <glyph glyph-name="V" unicode="V" horiz-adv-x="1383" 
d="M1142 1352h439l-19 -88h-41q-55 0 -98.5 -46.5t-130.5 -185.5l-636 -1061h-106l-197 1128q-21 104 -35 128q-29 35 -83 37h-61l19 88h627l-19 -88h-87q-73 0 -100 -41t-12 -114l146 -821l469 800q17 28 27 46.5t19.5 41t9.5 36.5t-6 27t-24 19t-47 6h-73z" />
    <glyph glyph-name="W" unicode="W" horiz-adv-x="1858" 
d="M1643 1352h410l-20 -88h-32q-52 0 -95.5 -54.5t-100.5 -171.5l-513 -1064h-133l-107 1060l-533 -1060h-138l-70 1151q-6 84 -22.5 111.5t-71.5 27.5h-42l19 88h558l-54 -88h-83q-8 0 -24 -18.5t-30 -56.5t-10 -79l51 -801l523 1050h130l106 -1045l349 743
q17 36 25.5 55.5t18.5 48t10 43.5t-4 31t-20.5 22.5t-43.5 6.5h-73z" />
    <glyph glyph-name="X" unicode="X" horiz-adv-x="1556" 
d="M-59 0l19 87h47q53 0 112.5 37.5t134.5 106.5l450 417l-242 460q-48 95 -79 125.5t-93 30.5h-78l19 88h664l-20 -88h-75q-57 0 -76.5 -37t11.5 -95l171 -308l324 312q31 30 47.5 53.5t18.5 40t-14 25.5t-51 9h-88l19 88h506l-19 -88h-55q-21 0 -39.5 -3.5t-39 -14
t-34 -17.5t-37.5 -27t-34 -28.5t-39 -35.5t-39 -36l-379 -352l255 -492q45 -92 82.5 -131.5t103.5 -39.5h69l-20 -87h-714l20 87h93q80 0 105 42.5t-15 117.5l-182 325l-359 -346q-66 -64 -62 -101.5t77 -37.5h98l-19 -87h-544z" />
    <glyph glyph-name="Y" unicode="Y" horiz-adv-x="1306" 
d="M229 0l19 87h86q71 0 103.5 34.5t48.5 105.5l66 289l-209 625q-24 69 -46.5 96t-66.5 27h-58l19 88h582l-19 -88h-67q-39 0 -60 -21.5t-21 -52.5t11 -65l169 -486l361 465q27 37 41.5 64.5t17.5 50t-14.5 34t-55.5 11.5h-60l20 88h409l-20 -88h-30q-64 0 -177 -143
l-475 -590l-74 -323q-8 -39 -8.5 -66t23 -41t76.5 -14h91l-19 -87h-663z" />
    <glyph glyph-name="Z" unicode="Z" horiz-adv-x="1303" 
d="M1385 1358l-19 -90l-1078 -1174h487q46 0 76 4t69.5 19t75.5 50t72 91l67 161l86 -2l-119 -417h-1127l18 91l1068 1173h-408q-42 0 -71 -2t-66 -10.5t-64 -24t-54.5 -44.5t-48.5 -70l-46 -116l-85 1l105 360h1062z" />
    <glyph glyph-name="bracketleft" unicode="[" horiz-adv-x="693" 
d="M-19 -476l388 1828h509l-17 -85h-192q-67 0 -95 -29.5t-38 -81.5l-311 -1466q-10 -45 5 -63t86 -18h192l-18 -85h-509z" />
    <glyph glyph-name="backslash" unicode="\" horiz-adv-x="816" 
d="M578 -33l-419 1387h174l422 -1387h-177z" />
    <glyph glyph-name="bracketright" unicode="]" horiz-adv-x="691" 
d="M-186 -476l18 85h185q69 0 98 26.5t40 74.5l312 1466q6 29 5.5 49t-21.5 31t-67 11h-199l18 85h509l-389 -1828h-509z" />
    <glyph glyph-name="asciicircum" unicode="^" horiz-adv-x="1032" 
d="M1010 636h-177l-169 493l-384 -493h-175l558 718h96z" />
    <glyph glyph-name="underscore" unicode="_" horiz-adv-x="1315" 
d="M-4 -211l29 136h1048l-28 -136h-1049z" />
    <glyph glyph-name="grave" unicode="`" horiz-adv-x="800" 
d="M829 1030l-425 318v4h304l192 -322h-71z" />
    <glyph glyph-name="a" unicode="a" horiz-adv-x="1142" 
d="M348 -25q-87 0 -151.5 37t-97.5 101.5t-42.5 151t13.5 185.5q23 106 70.5 189.5t101.5 131.5t116 79.5t110 42.5t88 11q63 0 137 -31.5t119 -97.5l23 99h227l-150 -682q-5 -30 -7 -52.5t12.5 -35.5t49.5 -13h60l-21 -91h-335l14 106q-88 -62 -165 -96.5t-172 -34.5z
M441 91q55 0 127.5 38t126.5 110l103 449q-55 100 -178 100q-80 0 -146 -52.5t-106.5 -131.5t-62.5 -178q-33 -150 1.5 -242.5t134.5 -92.5z" />
    <glyph glyph-name="b" unicode="b" horiz-adv-x="1114" 
d="M553 -25q-88 0 -161.5 42t-121.5 114l-153 -146h-70l256 1157q15 54 3.5 79.5t-65.5 21.5l-67 -13l14 86l395 73l-134 -595q135 110 298 110q167 0 257.5 -136.5t44.5 -347.5q-45 -200 -190 -322.5t-306 -122.5zM499 84q63 0 119 37t95 95.5t65 120.5t40 123
q16 63 14 122.5t-16.5 106.5t-51.5 75.5t-91 28.5q-70 0 -134.5 -40t-112.5 -92l-104 -454q23 -52 67 -87.5t110 -35.5z" />
    <glyph glyph-name="c" unicode="c" horiz-adv-x="930" 
d="M411 -30q-198 0 -298 132t-53 344q45 203 206.5 330.5t360.5 127.5q43 0 84.5 -8t80.5 -25.5t67 -42.5t43 -63t10 -84q-6 -37 -31.5 -61t-65.5 -25q-27 -1 -44.5 12t-24.5 36.5t-9 41t-2 40.5q-10 42 -36.5 66.5t-85.5 24.5q-65 0 -121 -36.5t-93.5 -95t-61.5 -117
t-37 -116.5q-41 -187 2 -282t161 -95q55 0 105.5 19.5t87.5 52.5t62.5 64t44.5 65l70 -57q-36 -54 -72.5 -94.5t-87.5 -77.5t-117 -56.5t-145 -19.5z" />
    <glyph glyph-name="d" unicode="d" horiz-adv-x="1143" 
d="M348 -25q-87 0 -151.5 37t-97.5 101.5t-42.5 151t13.5 185.5q23 106 70.5 189.5t101.5 131.5t116 79.5t110 42.5t88 11q63 0 137 -31.5t119 -97.5l84 365q16 50 2.5 77t-70.5 24l-61 -11l14 83l395 76l-264 -1197q-5 -30 -7 -52.5t12.5 -35.5t49.5 -13h60l-21 -91h-335
l14 106q-88 -62 -165 -96.5t-172 -34.5zM441 91q55 0 127.5 38t126.5 110l103 449q-55 100 -178 100q-80 0 -146 -52.5t-106.5 -131.5t-62.5 -178q-33 -150 1.5 -242.5t134.5 -92.5z" />
    <glyph glyph-name="e" unicode="e" horiz-adv-x="926" 
d="M401 -30q-189 0 -285 138t-49 353q44 201 191 322t325 121q127 0 219 -68t92 -173q0 -264 -595 -272q-31 -166 11 -244t159 -78q74 0 147.5 48t131.5 127l66 -61q-76 -100 -184.5 -156.5t-228.5 -56.5zM313 474q192 8 294 58t102 140q0 63 -34.5 102.5t-94.5 39.5
q-95 0 -166.5 -97.5t-100.5 -242.5z" />
    <glyph glyph-name="f" unicode="f" horiz-adv-x="633" 
d="M-23 -516l289 1302h-181l17 88h182l35 151q40 179 168.5 270t294.5 91q55 0 102.5 -14t84.5 -42t54 -75t7 -107q-7 -38 -40.5 -64t-74.5 -28q-43 0 -67.5 33t-21.5 88q1 58 -18 88.5t-68 30.5q-144 0 -200 -256l-37 -166h228l-18 -88h-227l-290 -1302h-219z" />
    <glyph glyph-name="g" unicode="g" horiz-adv-x="1042" 
d="M270 -528q-47 0 -94 5t-105 22.5t-97.5 45t-60.5 78t-6 116.5q16 75 74.5 119.5t157.5 70.5q-130 39 -119 145q5 81 77 153t184 103q-59 19 -96 56.5t-48 82t-11 81.5t8 72q27 127 147 203.5t296 76.5q84 0 155.5 -26.5t117.5 -79.5q59 55 103 80.5t86 25.5t63 -30.5
t15 -80.5q-7 -47 -52 -48q-22 0 -33 28q-13 34 -40 34q-46 0 -108 -84q26 -51 7 -141q-18 -80 -66 -138.5t-114.5 -89.5t-132 -46t-137.5 -17q-102 -1 -170.5 -33t-77.5 -78q-8 -31 15.5 -49t79.5 -22q63 -5 264 -5q55 0 99 -6t82 -20t61.5 -37t39.5 -56t16 -78.5
t-11 -103.5q-31 -143 -176.5 -236t-392.5 -93zM459 384q80 0 140.5 64t86.5 180q8 23 4.5 55t-12.5 61.5t-38 50t-73 20.5q-46 0 -86.5 -23t-67.5 -59.5t-44.5 -74t-25.5 -72.5q-9 -27 -6 -62t12 -66t38 -52.5t72 -21.5zM285 -441q161 0 275.5 55.5t135.5 150.5
q17 78 -40 111t-225 33q-352 0 -393 -182q-11 -51 4 -86t54 -52t83.5 -23.5t105.5 -6.5z" />
    <glyph glyph-name="h" unicode="h" horiz-adv-x="1124" 
d="M51 0l250 1137q7 33 8 56.5t-15.5 35t-53.5 7.5l-66 -13l14 86l395 80l-156 -698q83 96 175.5 154.5t179.5 58.5q135 0 191 -86.5t22 -242.5l-85 -385q-12 -55 1.5 -79t60.5 -24h58l-19 -87h-369l130 591q11 55 11 95.5t-23.5 64t-72.5 23.5q-70 0 -146.5 -72.5
t-145.5 -175.5l-117 -526h-227z" />
    <glyph glyph-name="i" unicode="i" horiz-adv-x="586" 
d="M485 1150q-58 0 -98.5 41.5t-40.5 99.5t40.5 99t98.5 41q57 0 97.5 -41t40.5 -99q0 -59 -40.5 -100t-97.5 -41zM86 0l146 658q15 61 2 83t-73 17l-69 -13l15 86l407 76l-165 -743q-9 -42 7.5 -59.5t62.5 -17.5h57l-19 -87h-371z" />
    <glyph glyph-name="j" unicode="j" horiz-adv-x="559" 
d="M485 1150q-58 0 -98.5 41.5t-40.5 99.5t40.5 99t98.5 41q57 0 97.5 -41t40.5 -99q0 -59 -40.5 -100t-97.5 -41zM-188 -531q-106 0 -165.5 55t-44.5 153q5 32 32.5 52.5t62.5 21.5q34 1 53.5 -25t21.5 -69q-2 -97 85 -97q135 0 199 292l178 804q7 34 7 58t-21 35t-68 7
l-65 -13l17 86l412 78l-213 -967q-27 -125 -64 -210t-95 -145.5t-139 -88t-193 -27.5z" />
    <glyph glyph-name="k" unicode="k" horiz-adv-x="1140" 
d="M50 0l251 1141q16 55 3.5 80.5t-68.5 19.5l-66 -13l16 86l396 75l-215 -967l590 452h193l-18 -88h-41q-43 0 -87.5 -20t-105.5 -64l-166 -116l178 -379q26 -60 48 -90t52 -30h46l-19 -87h-274l-218 463l-198 -149l-70 -314h-227z" />
    <glyph glyph-name="l" unicode="l" horiz-adv-x="546" 
d="M50 0l251 1141q16 55 3.5 80.5t-68.5 19.5l-66 -13l16 86l396 75l-264 -1199q-24 -103 41 -103h71l-19 -87h-361z" />
    <glyph glyph-name="m" unicode="m" horiz-adv-x="1858" 
d="M112 0l143 645q7 33 8 56.5t-15 35t-54 7.5l-66 -13l15 86l394 81l-48 -208q91 94 199 154t197 60q108 0 164.5 -59.5t51.5 -170.5q92 103 206 166.5t207 63.5q134 0 191.5 -86t22.5 -243l-86 -385q-12 -56 0.5 -79.5t62.5 -23.5h57l-19 -87h-371l130 591q23 83 5 133
t-89 50q-78 0 -170 -72t-156 -164l-121 -538h-227l130 591q12 55 12.5 96t-23.5 64t-74 23q-81 0 -176 -77t-156 -171l-117 -526h-228z" />
    <glyph glyph-name="n" unicode="n" horiz-adv-x="1157" 
d="M82 0l143 645q15 49 4 77t-65 22l-66 -13l15 86l394 81l-48 -207q81 95 174.5 154t180.5 59q133 0 190.5 -85t22.5 -244l-85 -385q-12 -55 1 -79t61 -24h59l-20 -87h-368l129 591q11 55 11 96t-23.5 64t-73.5 23q-70 0 -148 -73.5t-143 -174.5l-116 -526h-229z" />
    <glyph glyph-name="o" unicode="o" horiz-adv-x="1026" 
d="M418 -30q-28 0 -58 4.5t-66.5 15t-69.5 28t-66 44.5t-55 63.5t-38 85.5t-14.5 110.5t16.5 137.5q21 95 65.5 172t100 127t122 83.5t129 48t123.5 14.5q56 0 112 -15.5t112 -50.5t91 -91t50 -137.5t-11 -189.5q-22 -99 -68 -178.5t-102.5 -129t-124 -83t-128.5 -46.5
t-120 -13zM424 60q101 0 183.5 110t121.5 287q20 99 21 178.5t-36.5 129t-110.5 49.5q-75 0 -138.5 -57t-103 -142t-63.5 -191q-38 -164 -5 -264t131 -100z" />
    <glyph glyph-name="p" unicode="p" horiz-adv-x="1148" 
d="M-29 -516l259 1176q16 53 2 77.5t-79 21.5l-54 -11l15 84l379 75l-20 -140q72 65 157.5 101t165.5 36q77 0 140.5 -34t104 -97t53.5 -152.5t-11 -200.5q-30 -132 -108.5 -236.5t-179 -159t-202.5 -54.5q-159 0 -255 134l-139 -620h-228zM528 86q66 0 124 38t97 97t64 118
t38 114q14 65 14 123.5t-15 106.5t-52 76.5t-92 28.5q-63 0 -132.5 -44.5t-120.5 -109.5l-100 -442q29 -52 78 -79t97 -27z" />
    <glyph glyph-name="q" unicode="q" horiz-adv-x="1110" 
d="M532 -516l132 599q-139 -113 -300 -113q-175 0 -259.5 135t-38.5 344q24 109 77 197t121.5 143t145 84t152.5 29q175 0 280 -150l155 143h68l-308 -1411h-225zM439 82q45 0 113 32t135 99l106 458q-59 125 -180 125q-104 0 -189.5 -100t-124.5 -280q-13 -58 -14 -113.5
t11 -106.5t48.5 -82.5t94.5 -31.5z" />
    <glyph glyph-name="r" unicode="r" horiz-adv-x="856" 
d="M84 0l142 649q15 55 4.5 80t-58.5 21l-74 -13l15 86l365 84l-33 -240q160 237 340 237q79 0 112 -52t27 -122q-4 -34 -30 -62.5t-72 -29.5q-17 0 -29.5 7t-17 12.5t-12 23t-9.5 21.5q-23 49 -88 49q-52 0 -99.5 -39.5t-82 -102t-58 -125t-36.5 -121.5l-78 -363h-228z" />
    <glyph glyph-name="s" unicode="s" horiz-adv-x="963" 
d="M520 825q-90 0 -151 -33t-68 -91q-2 -20 3 -36t12 -27.5t24.5 -21t30 -15t40.5 -11.5t43.5 -9t49.5 -8q17 -3 25 -4q40 -7 68.5 -13t65.5 -17.5t62.5 -24.5t51.5 -34t41 -46.5t23 -61.5t5 -79q-10 -149 -125 -236t-292 -87q-97 0 -167.5 25t-108.5 61l-66 -86h-70l58 280
h72q34 -94 120 -147.5t189 -53.5q88 0 148.5 39.5t68.5 110.5q2 20 -0.5 37t-12.5 30t-19.5 23t-29 18.5t-33 13.5t-40.5 11t-41.5 8.5t-45.5 7.5q-8 1 -12 2q-57 10 -92 18t-81 27t-71.5 44t-42 67t-12.5 98q8 141 118 220.5t277 79.5q165 0 258 -84l58 84h66l-54 -264
l-59 1q-20 89 -98 136.5t-186 47.5z" />
    <glyph glyph-name="t" unicode="t" horiz-adv-x="727" 
d="M332 -30q-122 0 -176.5 78.5t-20.5 231.5l112 506h-152l18 88h76q92 0 169 63.5t98 158.5l22 95h81l-69 -317h276l-18 -88h-275l-110 -492q-27 -107 -16 -161t70 -54q44 0 85.5 34t62.5 96l66 -20q-17 -64 -53.5 -110t-81.5 -68t-85 -31.5t-79 -9.5z" />
    <glyph glyph-name="u" unicode="u" horiz-adv-x="1158" 
d="M343 -30q-135 0 -190.5 86t-21.5 243l85 384q12 56 -1 79.5t-61 23.5h-58l18 88h370l-130 -591q-11 -54 -11.5 -95t23 -65t73.5 -24q71 0 147.5 73t144.5 176l75 335q13 44 4 73.5t-46 29.5h-64l17 88h358l-150 -683q-15 -50 -3.5 -76t65.5 -22l67 13l-17 -87l-388 -45
l48 209q-80 -96 -173 -154.5t-181 -58.5z" />
    <glyph glyph-name="v" unicode="v" horiz-adv-x="958" 
d="M749 874h313l-602 -892h-137l-141 691q-15 72 -31.5 92.5t-53.5 20.5h-41l18 88h290l142 -683l309 479q18 29 28 48.5t14 36t-4 24t-28 7.5h-94z" />
    <glyph glyph-name="w" unicode="w" horiz-adv-x="1462" 
d="M1225 874h327l-526 -893h-140l-111 666l-374 -666h-117l-96 707q-10 61 -25 79.5t-52 18.5h-53l18 88h305l85 -621l358 629h136l113 -670l248 445q28 52 36 77.5t-4 38.5t-51 13h-95z" />
    <glyph glyph-name="x" unicode="x" horiz-adv-x="1044" 
d="M-69 0l496 418l-198 307q-37 61 -88 61h-52l18 88h293l195 -333l174 162q22 21 29.5 40t-1.5 31t-33 12h-75l17 88h395l-468 -393l198 -311q29 -48 51 -65.5t50 -17.5h30l-20 -87h-277l-203 350l-194 -177q-20 -19 -31 -38t-4 -33.5t37 -14.5h87l-20 -87h-406z" />
    <glyph glyph-name="y" unicode="y" horiz-adv-x="948" 
d="M-6 -511q-45 -1 -69 24t-24 67q0 26 9 45t27 30.5t34.5 18t42.5 12.5q85 18 155.5 65t139.5 146l75 111l-200 683q-15 50 -32 72.5t-48 22.5h-50l18 88h299l170 -636l256 413q21 34 31.5 56.5t14.5 41.5t-5.5 28t-32.5 9h-101l17 88h327l-686 -1061q-55 -85 -95.5 -139
t-85 -97t-89.5 -63.5t-98 -24.5z" />
    <glyph glyph-name="z" unicode="z" horiz-adv-x="962" 
d="M963 874l-19 -93l-669 -694h295q37 0 71.5 23.5t75.5 86.5l47 95l83 -1l-89 -291h-784l17 87l669 699h-285q-32 0 -56 -20t-63 -83l-38 -81l-85 3l83 269h747z" />
    <glyph glyph-name="braceleft" unicode="{" horiz-adv-x="576" 
d="M356 -517q-67 -2 -123.5 12t-94 39.5t-66 60.5t-40 75t-16 82.5t6.5 84.5q13 60 70 181t70 183q35 173 -140 193l9 76q60 8 106 35t71.5 65t39 70t21.5 67q10 49 5.5 167.5t11.5 187.5q6 28 21 61.5t50.5 79.5t84.5 82.5t129.5 63.5t177.5 29l-2 -47
q-122 -12 -199.5 -77.5t-100.5 -169.5q-12 -57 -10 -177.5t-10 -183.5q-22 -105 -112 -188.5t-251 -104.5l-9 1q132 -24 200.5 -110t39.5 -225q-9 -42 -62.5 -157t-69.5 -196q-11 -58 1 -100.5t43 -66t68 -35t81 -13.5z" />
    <glyph glyph-name="bar" unicode="|" horiz-adv-x="626" 
d="M23 -483l390 1835h190l-391 -1835h-189z" />
    <glyph glyph-name="braceright" unicode="}" horiz-adv-x="577" 
d="M-177 -517l3 48q60 2 118 26t111 83t71 144q15 65 10.5 179.5t8.5 173.5q26 124 124 198t240 98h9q-64 9 -113 32.5t-76 56t-42.5 73t-14.5 83.5t8 86q9 46 63 167.5t68 193.5q19 88 -29.5 142.5t-164.5 66.5l1 44q81 -2 143.5 -22t98 -52.5t58 -70t29 -79t6 -73.5
t-5.5 -60q-11 -55 -65.5 -172.5t-68.5 -182.5q-36 -173 136 -199l-8 -76q-31 -3 -63.5 -15.5t-67.5 -37t-63.5 -71t-40.5 -107.5q-10 -47 -6 -167.5t-12 -196.5q-12 -57 -48 -112t-92.5 -102t-141.5 -74.5t-183 -24.5z" />
    <glyph glyph-name="asciitilde" unicode="~" horiz-adv-x="1330" 
d="M206 509q1 37 6.5 76t23.5 89t46.5 88t80.5 64.5t119 26.5q56 0 122 -21.5t200 -86.5q80 -44 115.5 -58t76.5 -14q72 0 116.5 48t50.5 135h67q0 -68 -17 -129t-50.5 -110t-88.5 -77.5t-125 -28.5q-51 0 -103 14.5t-89.5 32.5t-133.5 66q-63 36 -103.5 51t-81.5 15
q-74 0 -116 -46.5t-49 -134.5h-67z" />
    <glyph glyph-name="uni00A0" unicode="&#xa0;" horiz-adv-x="540" 
 />
    <glyph glyph-name="exclamdown" unicode="&#xa1;" horiz-adv-x="575" 
d="M353 907q60 0 102.5 -43.5t42.5 -105.5q0 -61 -42.5 -104t-102.5 -43t-103 43t-43 104q0 62 43 105.5t103 43.5zM326 428l-85 -678q-1 -10 -5 -41t-9 -63.5t-10 -59.5q-4 -18 -8 -28.5t-16.5 -27.5t-37 -25.5t-61.5 -8.5q-120 0 -92 131q3 11 9 31t15.5 50.5t15.5 48.5
l199 671h85z" />
    <glyph glyph-name="cent" unicode="&#xa2;" horiz-adv-x="1019" 
d="M826 1093q85 -21 135.5 -73.5t44.5 -134.5q-6 -35 -31.5 -59.5t-65.5 -26.5q-86 0 -81 131q-14 44 -42 66l-294 -712q27 -6 59 -6q57 0 108.5 20t90 52.5t64.5 64t46 65.5l70 -57q-35 -54 -73 -95t-89.5 -77.5t-119.5 -56t-149 -19.5q-17 0 -51 2l-148 -359h-69l153 370
q-152 36 -222 160t-31 302q43 204 208 331t369 127q27 0 54 -3l143 347h69zM434 309l292 710q-18 2 -32 2q-67 0 -125 -36.5t-96.5 -95t-63 -117t-36.5 -116.5q-58 -267 61 -347z" />
    <glyph glyph-name="sterling" unicode="&#xa3;" horiz-adv-x="1476" 
d="M89 -38q-35 0 -61 39q-25 33 -14 68q17 37 62 78t104 83.5t70 51.5q104 128 206 337l-317 -1l56 117l307 1q129 263 143 289q64 109 132 180.5t141 107.5t139.5 49t150.5 13q128 0 200 -59t65 -151q-5 -30 -32 -50.5t-59 -22.5q-69 0 -87 97q-35 92 -140 92
q-47 0 -88 -17t-71 -42.5t-61 -71t-52.5 -86t-51.5 -104.5q-21 -36 -60.5 -115.5t-56.5 -110.5l339 1l-53 -117l-358 -1q-102 -170 -203 -277q56 37 129 37q26 0 48.5 -5t43 -16.5t35 -21t33 -29.5t27.5 -30.5t28 -35t26 -33.5q30 -38 51.5 -59t60 -39t84.5 -18
q50 0 85.5 17t54 46t29 68t10.5 83v90q-1 34 23 52.5t61 20.5q40 1 61 -24.5t23 -68.5q3 -79 -49 -160q-57 -106 -172 -177t-232 -71q-70 0 -127.5 28.5t-81.5 53.5t-65 78l-12 15q-37 51 -70 76t-81 25q-63 0 -140 -75q-25 -27 -62.5 -72.5t-58.5 -69.5t-51.5 -43.5
t-60.5 -19.5z" />
    <glyph glyph-name="currency" unicode="&#xa4;" horiz-adv-x="1243" 
d="M300 283l-67 69l131 129q-82 129 -82 243q0 116 83 245l-132 131l67 69l136 -131q126 84 245 84q123 0 247 -84l136 131l67 -69l-132 -131q84 -129 84 -245q0 -112 -84 -243l132 -129l-67 -69l-136 131q-124 -84 -247 -84q-122 0 -245 84zM681 425q125 0 214.5 88.5
t89.5 211.5q0 126 -91 214t-213 88q-123 0 -211 -89t-88 -213t88 -212t211 -88z" />
    <glyph glyph-name="yen" unicode="&#xa5;" horiz-adv-x="1472" 
d="M322 0l20 87h99q64 0 96.5 35.5t48.5 105.5l23 113h-436l16 81h437l22 94l-24 62h-402l18 80h356l-170 486q-23 69 -44.5 96t-65.5 27h-59l18 87h565l-18 -87h-70q-58 0 -78 -42.5t1 -97.5l188 -488l376 479q33 44 45 77t-2.5 52.5t-58.5 19.5h-72l18 87h408l-17 -87h-23
q-68 0 -175 -142l-381 -467h366l-18 -80h-407l-44 -53l-23 -103h442l-17 -81h-442l-28 -133q-17 -63 -2.5 -92t77.5 -29h111l-20 -87h-654z" />
    <glyph glyph-name="brokenbar" unicode="&#xa6;" horiz-adv-x="629" 
d="M530 1005l-168 -791h-1l-73 -345h-189l73 345l53 251l41 192l74 348h190z" />
    <glyph glyph-name="section" unicode="&#xa7;" horiz-adv-x="1089" 
d="M334 -500q-151 0 -236.5 75t-62.5 194q8 42 38.5 60t62.5 18q30 0 52.5 -25t22.5 -83q0 -78 36 -114t123 -36t152 50.5t82 135.5q4 19 4 35.5t-3 31t-11.5 29.5t-18 27t-25 26.5t-30.5 27t-37 29t-41.5 30.5t-47 34.5t-50.5 38.5q-97 66 -153 126t-80 134t-5 160
q10 42 30 81t56 78.5t96.5 69.5t137.5 44q-151 119 -113 299q21 95 87.5 164t158 102t197.5 33q157 0 239 -77t62 -187q-8 -37 -38.5 -57t-66.5 -20q-44 0 -58 29.5t-16 86.5q-2 68 -38 103t-122 35q-95 0 -159 -52t-83 -136q-7 -35 2 -65t35.5 -58.5t58.5 -54t82 -61.5
q11 -7 16.5 -11.5t15 -11t17.5 -12.5q40 -25 69.5 -45.5t61.5 -45t54 -47t43 -50t32.5 -55.5t19 -60.5t6.5 -70t-10 -78.5q-51 -234 -312 -281q67 -55 95 -133t9 -166q-30 -141 -155.5 -217.5t-281.5 -76.5zM601 181q86 -8 148 39.5t77 122.5q19 89 -94.5 202.5
t-245.5 153.5q-90 7 -151 -40t-78 -124q-12 -57 36.5 -131.5t133.5 -136.5t174 -86z" />
    <glyph glyph-name="dieresis" unicode="&#xa8;" horiz-adv-x="824" 
d="M382 1114q-46 0 -80 34t-34 79q0 47 33.5 80.5t80.5 33.5q48 0 81 -33.5t33 -80.5q0 -48 -33.5 -80.5t-80.5 -32.5zM776 1114q-47 0 -80.5 33t-33.5 80q0 48 33.5 81t80.5 33t80.5 -33.5t33.5 -80.5q0 -48 -33.5 -80.5t-80.5 -32.5z" />
    <glyph glyph-name="copyright" unicode="&#xa9;" horiz-adv-x="1637" 
d="M867 -31q-143 0 -273.5 56t-224.5 150t-150 224.5t-56 274.5q0 191 95 353.5t257 256.5t352 94q143 0 273.5 -55.5t225.5 -149.5t151.5 -224.5t56.5 -274.5q0 -191 -95 -353.5t-258 -257t-354 -94.5zM867 41q172 0 317.5 85t230.5 230.5t85 317.5q0 129 -50.5 246
t-135.5 201t-202 134t-245 50q-170 0 -315 -84t-230 -229.5t-85 -317.5t84.5 -318t229.5 -230.5t316 -84.5zM869 250q-83 0 -157.5 28t-133 79.5t-92.5 131.5t-34 177q0 193 124 314.5t305 121.5q40 0 81.5 -8t62.5 -14.5t59 -21.5t39 -16q49 -12 53 42h39v-228h-39
q-16 57 -48.5 98.5t-72 62t-75 29.5t-70.5 9q-64 0 -115.5 -23.5t-84 -61.5t-54.5 -87.5t-31 -99.5t-9 -100q0 -174 76 -277t215 -103q101 0 175 51t109 116l13 -53q-56 -81 -144 -124t-191 -43z" />
    <glyph glyph-name="guillemotleft" unicode="&#xab;" horiz-adv-x="1046" 
d="M281 0l-264 440l447 441h95l-332 -441l144 -440h-90zM793 0l-265 440l447 441h96l-331 -441l142 -440h-89z" />
    <glyph glyph-name="logicalnot" unicode="&#xac;" horiz-adv-x="1442" 
d="M1120 334v503h-929v153h1081v-656h-152z" />
    <glyph glyph-name="uni00AD" unicode="&#xad;" horiz-adv-x="864" 
d="M110 310l41 194h592l-41 -194h-592z" />
    <glyph glyph-name="registered" unicode="&#xae;" horiz-adv-x="1635" 
d="M867 1380q143 0 273.5 -55.5t225.5 -149.5t151.5 -224t56.5 -274q0 -192 -95 -354.5t-258 -257t-354 -94.5t-353 94.5t-256.5 257t-94.5 354.5q0 143 56.5 273.5t151 224.5t224.5 149.5t272 55.5zM867 44q172 0 317.5 85t230.5 230.5t85 317.5q0 129 -50.5 246
t-135.5 201t-202 134t-245 50q-127 0 -243.5 -50t-201 -134t-135 -201t-50.5 -246q0 -172 84.5 -318t229.5 -230.5t316 -84.5zM1212 390q28 -43 62 -43h36v-49h-168l-162 256q-35 55 -60.5 74t-65.5 19h-109v-240q0 -33 12 -46.5t46 -13.5h54v-49h-341v49h52q37 0 48.5 12.5
t11.5 47.5v551q0 33 -11.5 47.5t-44.5 14.5h-56v47h391q120 0 193.5 -51t73.5 -157q0 -141 -163 -191q36 -29 81 -96zM873 696q179 0 179 159q0 155 -174 155h-133v-314h128z" />
    <glyph glyph-name="macron" unicode="&#xaf;" horiz-adv-x="859" 
d="M257 1082l66 164h589l-68 -164h-587z" />
    <glyph glyph-name="degree" unicode="&#xb0;" horiz-adv-x="994" 
d="M620 655q-150 0 -256 106.5t-106 256.5t106 256t256 106t256 -106t106 -256t-106 -256.5t-256 -106.5zM620 773q102 0 173.5 71.5t71.5 173.5t-71.5 173.5t-173.5 71.5t-173.5 -71.5t-71.5 -173.5t71.5 -173.5t173.5 -71.5z" />
    <glyph glyph-name="plusminus" unicode="&#xb1;" horiz-adv-x="1411" 
d="M645 358v479h-478v153h478v478h153v-478h479v-153h-479v-479h-153zM167 0v153h1110v-153h-1110z" />
    <glyph glyph-name="acute" unicode="&#xb4;" horiz-adv-x="368" 
d="M125 1030h-71l192 322h304v-4z" />
    <glyph glyph-name="uni00B5" unicode="&#xb5;" horiz-adv-x="1315" 
d="M58 -423l236 1106q12 56 -2 79.5t-62 23.5h-62l18 88h377l-126 -591q-22 -88 -1 -136t96 -48t155 74t147 175l73 335q12 43 2.5 73t-46.5 30h-70l17 88h367l-145 -683q-15 -49 -3 -76.5t66 -21.5l72 13l-17 -87l-395 -45l46 209q-134 -166 -254 -189q-96 -19 -166 12
l-94 -429h-229z" />
    <glyph glyph-name="paragraph" unicode="&#xb6;" horiz-adv-x="1156" 
d="M343 -510l222 1033q-85 4 -153 21.5t-123.5 51t-86 85t-41 123.5t11.5 165q21 97 63.5 166t99.5 111.5t142 67t175 33.5t213 9h444l-9 -43h-42q-100 0 -145.5 -54.5t-67.5 -160.5l-342 -1608h-79l382 1802h-202l-382 -1802h-80z" />
    <glyph glyph-name="periodcentered" unicode="&#xb7;" horiz-adv-x="603" 
d="M352 527q-62 0 -105.5 43t-43.5 107q0 61 43 103t106 42q60 0 103 -42.5t43 -102.5q0 -64 -42.5 -107t-103.5 -43z" />
    <glyph glyph-name="cedilla" unicode="&#xb8;" horiz-adv-x="597" 
d="M80 -486q-108 0 -201 24l16 87q68 -14 155 -14q108 0 161 29t53 71q0 17 -10 29.5t-30.5 19.5t-39.5 11.5t-49.5 6t-46.5 2t-44 0.5h-9l46 250l98 -7l-28 -139q109 -2 176.5 -43.5t67.5 -121.5q0 -82 -79 -143.5t-236 -61.5z" />
    <glyph glyph-name="guillemotright" unicode="&#xbb;" horiz-adv-x="1045" 
d="M-23 0l330 440l-140 441h89l263 -441l-451 -440h-91zM488 0l332 440l-141 441h88l263 -441l-449 -440h-93z" />
    <glyph glyph-name="questiondown" unicode="&#xbf;" horiz-adv-x="869" 
d="M617 907q60 0 103 -43.5t43 -105.5q0 -61 -43 -104t-103 -43t-103 43t-43 104q0 62 43 105.5t103 43.5zM595 -200q31 -1 52.5 -28.5t11.5 -68.5q-30 -82 -136 -144.5t-249 -62.5q-127 0 -211 58t-112.5 150.5t-4.5 204.5q22 107 88.5 185.5t145 114t156.5 35.5
q56 0 118 -24l43 205h97l-68 -313l-71 8q-18 20 -68 20q-46 0 -86.5 -27t-67 -69t-43 -83t-24.5 -78q-9 -41 -9.5 -87.5t9 -96t43 -82t87.5 -32.5q58 0 114.5 38.5t89.5 112.5l5 8q5 9 6.5 11.5t7.5 10.5t10 11t11.5 9t15 8.5t18 4t21.5 1.5z" />
    <glyph glyph-name="Agrave" unicode="&#xc0;" horiz-adv-x="1292" 
d="M891 1438h-71l-425 317v4h304zM1175 87h47l-19 -87h-562l19 87h87q37 0 57.5 19.5t15.5 55.5l-31 247h-448l-140 -249q-11 -21 -11 -35.5t10.5 -22.5t23.5 -11.5t30 -3.5h85l-19 -87h-413l17 87h35q40 0 96.5 61t87.5 112l661 1118h102l157 -1139q5 -32 7.5 -46.5
t10.5 -39.5t18.5 -36t29.5 -20.5t46 -9.5zM392 499h385l-65 512h-32z" />
    <glyph glyph-name="Aacute" unicode="&#xc1;" horiz-adv-x="1292" 
d="M1012 1759h304v-4l-425 -317h-71zM1063 239q5 -32 7.5 -46.5t10.5 -39.5t18.5 -36t29.5 -20.5t46 -9.5h47l-19 -87h-562l19 87h87q37 0 57.5 19.5t15.5 55.5l-31 247h-448l-140 -249q-11 -21 -11 -35.5t10.5 -22.5t23.5 -11.5t30 -3.5h85l-19 -87h-413l17 87h35
q40 0 96.5 61t87.5 112l661 1118h102zM392 499h385l-65 512h-32z" />
    <glyph glyph-name="Acircumflex" unicode="&#xc2;" horiz-adv-x="1292" 
d="M928 1689l-303 -219h-65l277 322h222l140 -322h-60zM1175 87h47l-19 -87h-562l19 87h87q37 0 57.5 19.5t15.5 55.5l-31 247h-448l-140 -249q-11 -21 -11 -35.5t10.5 -22.5t23.5 -11.5t30 -3.5h85l-19 -87h-413l17 87h35q40 0 96.5 61t87.5 112l661 1118h102l157 -1139
q5 -32 7.5 -46.5t10.5 -39.5t18.5 -36t29.5 -20.5t46 -9.5zM392 499h385l-65 512h-32z" />
    <glyph glyph-name="Atilde" unicode="&#xc3;" horiz-adv-x="1292" 
d="M742 1549q-44 0 -75 -37t-43 -82l-58 20q23 125 83.5 193t150.5 68q12 0 23.5 -1.5t23.5 -5.5t20 -7t20.5 -10.5l17.5 -10.5t18.5 -12l16.5 -11q58 -47 111 -47q45 0 80 35t53 100l60 -21q-19 -118 -82.5 -198.5t-154.5 -80.5q-19 0 -35 3t-33.5 12t-24.5 13t-28.5 19.5
t-23.5 16.5q-58 44 -120 44zM1063 239q5 -32 7.5 -46.5t10.5 -39.5t18.5 -36t29.5 -20.5t46 -9.5h47l-19 -87h-562l19 87h87q37 0 57.5 19.5t15.5 55.5l-31 247h-448l-140 -249q-11 -21 -11 -35.5t10.5 -22.5t23.5 -11.5t30 -3.5h85l-19 -87h-413l17 87h35q40 0 96.5 61
t87.5 112l661 1118h102zM392 499h385l-65 512h-32z" />
    <glyph glyph-name="Adieresis" unicode="&#xc4;" horiz-adv-x="1292" 
d="M657 1492q-46 0 -79.5 34t-33.5 80t33 79.5t80 33.5q48 0 81 -33t33 -80q0 -49 -33 -81.5t-81 -32.5zM1051 1492q-47 0 -80.5 33.5t-33.5 80.5q0 48 33 80.5t81 32.5q47 0 80.5 -33t33.5 -80q0 -48 -33.5 -81t-80.5 -33zM1175 87h47l-19 -87h-562l19 87h87
q37 0 57.5 19.5t15.5 55.5l-31 247h-448l-140 -249q-11 -21 -11 -35.5t10.5 -22.5t23.5 -11.5t30 -3.5h85l-19 -87h-413l17 87h35q40 0 96.5 61t87.5 112l661 1118h102l157 -1139q5 -32 7.5 -46.5t10.5 -39.5t18.5 -36t29.5 -20.5t46 -9.5zM392 499h385l-65 512h-32z" />
    <glyph glyph-name="Aring" unicode="&#xc5;" horiz-adv-x="1292" 
d="M896 1438q-78 0 -133.5 55.5t-55.5 134.5t55.5 134t133.5 55q79 0 134.5 -55t55.5 -134q0 -78 -55.5 -134t-134.5 -56zM896 1752q-51 0 -86.5 -36t-35.5 -88t35.5 -88t86.5 -36q52 0 88 36t36 88t-36 88t-88 36zM1175 87h47l-19 -87h-562l19 87h87q37 0 57.5 19.5
t15.5 55.5l-31 247h-448l-140 -249q-11 -21 -11 -35.5t10.5 -22.5t23.5 -11.5t30 -3.5h85l-19 -87h-413l17 87h35q40 0 96.5 61t87.5 112l661 1118h102l157 -1139q5 -32 7.5 -46.5t10.5 -39.5t18.5 -36t29.5 -20.5t46 -9.5zM392 499h385l-65 512h-32z" />
    <glyph glyph-name="AE" unicode="&#xc6;" horiz-adv-x="1892" 
d="M1846 1002l-83 -1l1 156q-5 30 -14.5 49.5t-19 30t-30.5 15t-35.5 5.5t-46.5 1h-387l-102 -504h228q50 0 90 22t50 70l17 87h87l-93 -460h-87l19 102q6 17 3.5 30.5t-3.5 22.5t-10 15t-15 9.5t-19.5 5t-23 2t-25.5 0.5h-238l-88 -428q-8 -44 -9.5 -75t20 -47t72.5 -16
h281q101 0 151 31.5t85 102.5l92 218l86 -2l-108 -444h-1148l19 87h74q62 0 93.5 37.5t45.5 103.5l36 181h-443l-167 -249q-15 -20 -15.5 -34.5t11 -22t25 -11t31.5 -3.5l85 -2l-18 -87h-413l17 87l34 11q37 16 67 36.5t52.5 45.5t33.5 40t28 40l755 1092h1006zM829 499
l153 759h-43l-510 -759h400z" />
    <glyph glyph-name="Ccedilla" unicode="&#xc7;" horiz-adv-x="1433" 
d="M1355 844l-80 11q3 53 -6 108.5t-33.5 112t-62 101t-98.5 72.5t-136 28q-90 0 -169.5 -38t-137.5 -100t-105.5 -148.5t-78.5 -175.5t-53 -189q-56 -256 11.5 -403.5t260.5 -147.5q98 0 198.5 51t193 154.5t153.5 245.5l85 -11l-108 -492h-84l5 190q-69 -92 -196.5 -163
t-281.5 -76l-18 -90q109 -2 176.5 -43.5t67.5 -121.5q0 -82 -79 -143.5t-236 -61.5q-108 0 -201 24l16 87q68 -14 155 -14q108 0 161 29t53 71q0 17 -10 29.5t-30.5 19.5t-39.5 11.5t-49.5 6t-46.5 2t-44 0.5h-9l37 199q-86 11 -157.5 44.5t-121.5 85t-84 117.5t-49.5 141.5
t-14 157.5t19.5 165q28 129 97 251t168.5 220t235.5 157.5t284 59.5q121 0 219.5 -62t160.5 -186l76 198h84z" />
    <glyph glyph-name="Egrave" unicode="&#xc8;" horiz-adv-x="1315" 
d="M893 1438h-71l-425 317v4h304zM1274 1002l-83 -1l3 156q-3 25 -8.5 42.5t-16 28.5t-19.5 17.5t-28 9t-31.5 3t-39.5 0.5h-387l-112 -504h229q50 0 90.5 21.5t50.5 70.5l19 87h88l-101 -460h-87l22 102q1 20 3 34.5t-6 24t-13.5 15t-20.5 8t-25.5 3t-29.5 0.5h-239
l-95 -428q-10 -45 -11.5 -75.5t20 -46.5t72.5 -16h281q70 0 116.5 17.5t71.5 43.5t51 73l96 218l86 -2l-115 -444h-1148l19 87h75q110 0 140 141l202 916q8 39 8 65.5t-23.5 40.5t-76.5 14h-65l19 88h1078z" />
    <glyph glyph-name="Eacute" unicode="&#xc9;" horiz-adv-x="1315" 
d="M1318 1755l-425 -317h-71l192 321h304v-4zM1274 1002l-83 -1l3 156q-3 25 -8.5 42.5t-16 28.5t-19.5 17.5t-28 9t-31.5 3t-39.5 0.5h-387l-112 -504h229q50 0 90.5 21.5t50.5 70.5l19 87h88l-101 -460h-87l22 102q1 20 3 34.5t-6 24t-13.5 15t-20.5 8t-25.5 3t-29.5 0.5
h-239l-95 -428q-10 -45 -11.5 -75.5t20 -46.5t72.5 -16h281q70 0 116.5 17.5t71.5 43.5t51 73l96 218l86 -2l-115 -444h-1148l19 87h75q110 0 140 141l202 916q8 39 8 65.5t-23.5 40.5t-76.5 14h-65l19 88h1078z" />
    <glyph glyph-name="Ecircumflex" unicode="&#xca;" horiz-adv-x="1315" 
d="M930 1689l-303 -219h-65l277 322h222l140 -322h-60zM1274 1002l-83 -1l3 156q-3 25 -8.5 42.5t-16 28.5t-19.5 17.5t-28 9t-31.5 3t-39.5 0.5h-387l-112 -504h229q50 0 90.5 21.5t50.5 70.5l19 87h88l-101 -460h-87l22 102q1 20 3 34.5t-6 24t-13.5 15t-20.5 8t-25.5 3
t-29.5 0.5h-239l-95 -428q-10 -45 -11.5 -75.5t20 -46.5t72.5 -16h281q70 0 116.5 17.5t71.5 43.5t51 73l96 218l86 -2l-115 -444h-1148l19 87h75q110 0 140 141l202 916q8 39 8 65.5t-23.5 40.5t-76.5 14h-65l19 88h1078z" />
    <glyph glyph-name="Edieresis" unicode="&#xcb;" horiz-adv-x="1315" 
d="M659 1492q-46 0 -79.5 34t-33.5 80t33 79.5t80 33.5q48 0 81 -33t33 -80q0 -49 -33 -81.5t-81 -32.5zM1053 1492q-47 0 -80.5 33.5t-33.5 80.5q0 48 33 80.5t81 32.5q47 0 80.5 -33t33.5 -80q0 -48 -33.5 -81t-80.5 -33zM1274 1002l-83 -1l3 156q-3 25 -8.5 42.5
t-16 28.5t-19.5 17.5t-28 9t-31.5 3t-39.5 0.5h-387l-112 -504h229q50 0 90.5 21.5t50.5 70.5l19 87h88l-101 -460h-87l22 102q1 20 3 34.5t-6 24t-13.5 15t-20.5 8t-25.5 3t-29.5 0.5h-239l-95 -428q-10 -45 -11.5 -75.5t20 -46.5t72.5 -16h281q70 0 116.5 17.5t71.5 43.5
t51 73l96 218l86 -2l-115 -444h-1148l19 87h75q110 0 140 141l202 916q8 39 8 65.5t-23.5 40.5t-76.5 14h-65l19 88h1078z" />
    <glyph glyph-name="Igrave" unicode="&#xcc;" horiz-adv-x="757" 
d="M545 1438l-425 317v4h304l192 -321h-71zM-40 0l20 87h68q72 0 108.5 34t51.5 107l202 918q18 63 0.5 92t-95.5 29h-75l18 87h641l-18 -87h-67q-75 0 -110.5 -33t-51.5 -108l-203 -918q-15 -72 1.5 -96.5t96.5 -24.5h73l-19 -87h-641z" />
    <glyph glyph-name="Iacute" unicode="&#xcd;" horiz-adv-x="757" 
d="M545 1438l192 321h304v-4l-425 -317h-71zM-40 0l20 87h68q72 0 108.5 34t51.5 107l202 918q18 63 0.5 92t-95.5 29h-75l18 87h641l-18 -87h-67q-75 0 -110.5 -33t-51.5 -108l-203 -918q-15 -72 1.5 -96.5t96.5 -24.5h73l-19 -87h-641z" />
    <glyph glyph-name="Icircumflex" unicode="&#xce;" horiz-adv-x="757" 
d="M285 1470l277 322h222l140 -322h-60l-211 219l-303 -219h-65zM-40 0l20 87h68q72 0 108.5 34t51.5 107l202 918q18 63 0.5 92t-95.5 29h-75l18 87h641l-18 -87h-67q-75 0 -110.5 -33t-51.5 -108l-203 -918q-15 -72 1.5 -96.5t96.5 -24.5h73l-19 -87h-641z" />
    <glyph glyph-name="Idieresis" unicode="&#xcf;" horiz-adv-x="757" 
d="M382 1492q-46 0 -79.5 34t-33.5 80t33.5 79.5t79.5 33.5q48 0 81 -33t33 -80q0 -49 -33 -81.5t-81 -32.5zM776 1492q-47 0 -80.5 33.5t-33.5 80.5q0 48 33 80.5t81 32.5q47 0 80.5 -33t33.5 -80q0 -48 -33.5 -81t-80.5 -33zM-40 0l20 87h68q72 0 108.5 34t51.5 107
l202 918q18 63 0.5 92t-95.5 29h-75l18 87h641l-18 -87h-67q-75 0 -110.5 -33t-51.5 -108l-203 -918q-15 -72 1.5 -96.5t96.5 -24.5h73l-19 -87h-641z" />
    <glyph glyph-name="Eth" unicode="&#xd0;" horiz-adv-x="1498" 
d="M805 1352q102 0 189.5 -11.5t166 -36.5t137 -64t103.5 -94.5t66 -127.5t23.5 -163t-23.5 -202q-24 -111 -67 -203t-98 -159t-125.5 -118t-145 -83.5t-162.5 -53t-173 -28.5t-180 -8h-556l20 87h86q95 0 125 141l89 401h-147l19 94h148l94 423q16 57 3.5 89t-66.5 32h-91
l18 85h547zM1196 696q23 105 24 192.5t-18.5 149.5t-53 108t-81 72.5t-100.5 39.5t-114 13h-186l-121 -548h343l-21 -94h-343l-87 -395q-8 -43 -10.5 -74t22.5 -48.5t85 -17.5h150q120 0 225.5 82.5t177 217t108.5 302.5z" />
    <glyph glyph-name="Ntilde" unicode="&#xd1;" horiz-adv-x="1495" 
d="M843 1549q-44 0 -75 -37t-43 -82l-58 20q23 125 83.5 193t150.5 68q12 0 23.5 -1.5t23.5 -5.5t20 -7t20.5 -10.5l17.5 -10.5t18.5 -12l16.5 -11q58 -47 111 -47q46 0 80.5 35t52.5 100l60 -21q-19 -118 -82.5 -198.5t-154.5 -80.5q-19 0 -35 3t-33.5 12t-24.5 13
t-28.5 19.5t-23.5 16.5q-58 44 -120 44zM1202 1352h457l-20 -88h-58q-58 0 -98.5 -53t-56.5 -127l-243 -1107h-99l-605 1109l-184 -832q-6 -27 -8.5 -45t-1 -43.5t11 -41t31.5 -26.5t57 -11h63l-19 -87h-469l19 87h58q36 0 66 17.5t46.5 38.5t30 53t17.5 46.5t8 32.5
l186 842q30 147 -95 147h-62l19 88h390l530 -981l164 735q32 158 -85 158h-69z" />
    <glyph glyph-name="Ograve" unicode="&#xd2;" horiz-adv-x="1493" 
d="M911 1438l-425 317v4h304l192 -321h-71zM652 -26q-124 0 -224.5 35.5t-166.5 100.5t-106.5 155.5t-44 200t21.5 235.5q22 100 68.5 196.5t119.5 184t164 153t209 104.5t246 39q115 0 208.5 -29.5t156 -81.5t104.5 -121t59 -151t16 -168.5t-21 -175.5q-23 -104 -70 -202
t-120.5 -184.5t-164.5 -151t-208.5 -102t-246.5 -37.5zM652 75q193 0 328.5 157t202.5 464q65 298 -3.5 439.5t-245.5 141.5q-100 0 -186 -46.5t-150.5 -130t-111 -192.5t-76.5 -241q-19 -87 -26.5 -166.5t2 -158.5t37.5 -137t86.5 -94t142.5 -36z" />
    <glyph glyph-name="Oacute" unicode="&#xd3;" horiz-adv-x="1493" 
d="M911 1438l192 321h304v-4l-425 -317h-71zM652 -26q-124 0 -224.5 35.5t-166.5 100.5t-106.5 155.5t-44 200t21.5 235.5q22 100 68.5 196.5t119.5 184t164 153t209 104.5t246 39q115 0 208.5 -29.5t156 -81.5t104.5 -121t59 -151t16 -168.5t-21 -175.5q-23 -104 -70 -202
t-120.5 -184.5t-164.5 -151t-208.5 -102t-246.5 -37.5zM652 75q193 0 328.5 157t202.5 464q65 298 -3.5 439.5t-245.5 141.5q-100 0 -186 -46.5t-150.5 -130t-111 -192.5t-76.5 -241q-19 -87 -26.5 -166.5t2 -158.5t37.5 -137t86.5 -94t142.5 -36z" />
    <glyph glyph-name="Ocircumflex" unicode="&#xd4;" horiz-adv-x="1493" 
d="M651 1470l277 322h222l140 -322h-60l-211 219l-303 -219h-65zM652 -26q-124 0 -224.5 35.5t-166.5 100.5t-106.5 155.5t-44 200t21.5 235.5q22 100 68.5 196.5t119.5 184t164 153t209 104.5t246 39q115 0 208.5 -29.5t156 -81.5t104.5 -121t59 -151t16 -168.5t-21 -175.5
q-23 -104 -70 -202t-120.5 -184.5t-164.5 -151t-208.5 -102t-246.5 -37.5zM652 75q193 0 328.5 157t202.5 464q65 298 -3.5 439.5t-245.5 141.5q-100 0 -186 -46.5t-150.5 -130t-111 -192.5t-76.5 -241q-19 -87 -26.5 -166.5t2 -158.5t37.5 -137t86.5 -94t142.5 -36z" />
    <glyph glyph-name="Otilde" unicode="&#xd5;" horiz-adv-x="1493" 
d="M715 1430l-58 20q23 125 83.5 193t150.5 68q12 0 23.5 -1.5t23.5 -5.5t20 -7t20.5 -10.5l17.5 -10.5t18.5 -12l16.5 -11q58 -47 111 -47q46 0 80.5 35t52.5 100l60 -21q-19 -118 -82.5 -198.5t-154.5 -80.5q-19 0 -35 3t-33.5 12t-24.5 13t-28.5 19.5t-23.5 16.5
q-58 44 -120 44q-44 0 -75 -37t-43 -82zM652 -26q-124 0 -224.5 35.5t-166.5 100.5t-106.5 155.5t-44 200t21.5 235.5q22 100 68.5 196.5t119.5 184t164 153t209 104.5t246 39q115 0 208.5 -29.5t156 -81.5t104.5 -121t59 -151t16 -168.5t-21 -175.5q-23 -104 -70 -202
t-120.5 -184.5t-164.5 -151t-208.5 -102t-246.5 -37.5zM652 75q193 0 328.5 157t202.5 464q65 298 -3.5 439.5t-245.5 141.5q-100 0 -186 -46.5t-150.5 -130t-111 -192.5t-76.5 -241q-19 -87 -26.5 -166.5t2 -158.5t37.5 -137t86.5 -94t142.5 -36z" />
    <glyph glyph-name="Odieresis" unicode="&#xd6;" horiz-adv-x="1493" 
d="M748 1492q-46 0 -79.5 34t-33.5 80t33.5 79.5t79.5 33.5q48 0 81 -33t33 -80q0 -49 -33 -81.5t-81 -32.5zM1142 1492q-47 0 -80.5 33.5t-33.5 80.5q0 48 33 80.5t81 32.5q47 0 80.5 -33t33.5 -80q0 -48 -33.5 -81t-80.5 -33zM652 -26q-124 0 -224.5 35.5t-166.5 100.5
t-106.5 155.5t-44 200t21.5 235.5q22 100 68.5 196.5t119.5 184t164 153t209 104.5t246 39q115 0 208.5 -29.5t156 -81.5t104.5 -121t59 -151t16 -168.5t-21 -175.5q-23 -104 -70 -202t-120.5 -184.5t-164.5 -151t-208.5 -102t-246.5 -37.5zM652 75q193 0 328.5 157
t202.5 464q65 298 -3.5 439.5t-245.5 141.5q-100 0 -186 -46.5t-150.5 -130t-111 -192.5t-76.5 -241q-19 -87 -26.5 -166.5t2 -158.5t37.5 -137t86.5 -94t142.5 -36z" />
    <glyph glyph-name="multiply" unicode="&#xd7;" horiz-adv-x="1142" 
d="M278 216l-108 109l338 337l-338 340l108 107l339 -339l338 339l107 -107l-337 -340l337 -337l-107 -109l-338 338z" />
    <glyph glyph-name="Oslash" unicode="&#xd8;" horiz-adv-x="1493" 
d="M1344 1230q67 -69 102.5 -166t37 -200t-21.5 -213q-23 -104 -70 -202t-120.5 -184.5t-164.5 -151t-208.5 -102t-246.5 -37.5q-200 0 -333 90l-74 -85l-68 57l74 84q-97 98 -128 248.5t9 332.5q22 100 68.5 196.5t119.5 184t164 153t209 104.5t246 39q206 0 339 -92l76 87
l65 -58zM410 667q-51 -228 -15 -383l771 876q-69 117 -232 117q-100 0 -186 -46.5t-150.5 -130t-111 -192.5t-76.5 -241zM1183 696q51 228 19 372l-771 -877q69 -116 221 -116q193 0 328.5 157t202.5 464z" />
    <glyph glyph-name="Ugrave" unicode="&#xd9;" horiz-adv-x="1449" 
d="M885 1438l-425 317v4h304l192 -321h-71zM633 -26q-261 0 -369 143t-49 413l136 614q8 38 9 64.5t-22.5 41t-78.5 14.5h-61l20 88h628l-20 -88h-75q-72 0 -107.5 -34.5t-50.5 -106.5l-137 -613q-46 -213 9.5 -320.5t238.5 -107.5q107 0 190 35.5t138.5 102.5t90.5 148
t59 187l125 560q33 149 -97 149h-59l19 88h449l-20 -88h-47q-59 0 -99.5 -48.5t-55.5 -118.5l-125 -565q-61 -280 -216.5 -419t-422.5 -139z" />
    <glyph glyph-name="Uacute" unicode="&#xda;" horiz-adv-x="1449" 
d="M885 1438l192 321h304v-4l-425 -317h-71zM633 -26q-261 0 -369 143t-49 413l136 614q8 38 9 64.5t-22.5 41t-78.5 14.5h-61l20 88h628l-20 -88h-75q-72 0 -107.5 -34.5t-50.5 -106.5l-137 -613q-46 -213 9.5 -320.5t238.5 -107.5q107 0 190 35.5t138.5 102.5t90.5 148
t59 187l125 560q33 149 -97 149h-59l19 88h449l-20 -88h-47q-59 0 -99.5 -48.5t-55.5 -118.5l-125 -565q-61 -280 -216.5 -419t-422.5 -139z" />
    <glyph glyph-name="Ucircumflex" unicode="&#xdb;" horiz-adv-x="1449" 
d="M625 1470l277 322h222l140 -322h-60l-211 219l-303 -219h-65zM633 -26q-261 0 -369 143t-49 413l136 614q8 38 9 64.5t-22.5 41t-78.5 14.5h-61l20 88h628l-20 -88h-75q-72 0 -107.5 -34.5t-50.5 -106.5l-137 -613q-46 -213 9.5 -320.5t238.5 -107.5q107 0 190 35.5
t138.5 102.5t90.5 148t59 187l125 560q33 149 -97 149h-59l19 88h449l-20 -88h-47q-59 0 -99.5 -48.5t-55.5 -118.5l-125 -565q-61 -280 -216.5 -419t-422.5 -139z" />
    <glyph glyph-name="Udieresis" unicode="&#xdc;" horiz-adv-x="1449" 
d="M722 1492q-46 0 -79.5 34t-33.5 80t33.5 79.5t79.5 33.5q48 0 81 -33t33 -80q0 -49 -33 -81.5t-81 -32.5zM1116 1492q-47 0 -80.5 33.5t-33.5 80.5q0 48 33 80.5t81 32.5q47 0 80.5 -33t33.5 -80q0 -48 -33.5 -81t-80.5 -33zM633 -26q-261 0 -369 143t-49 413l136 614
q8 38 9 64.5t-22.5 41t-78.5 14.5h-61l20 88h628l-20 -88h-75q-72 0 -107.5 -34.5t-50.5 -106.5l-137 -613q-46 -213 9.5 -320.5t238.5 -107.5q107 0 190 35.5t138.5 102.5t90.5 148t59 187l125 560q33 149 -97 149h-59l19 88h449l-20 -88h-47q-59 0 -99.5 -48.5
t-55.5 -118.5l-125 -565q-61 -280 -216.5 -419t-422.5 -139z" />
    <glyph glyph-name="Yacute" unicode="&#xdd;" horiz-adv-x="1306" 
d="M814 1438l192 321h304v-4l-425 -317h-71zM229 0l19 87h86q71 0 103.5 34.5t48.5 105.5l66 289l-209 625q-24 69 -46.5 96t-66.5 27h-58l19 88h582l-19 -88h-67q-39 0 -60 -21.5t-21 -52.5t11 -65l169 -486l361 465q27 37 41.5 64.5t17.5 50t-14.5 34t-55.5 11.5h-60
l20 88h409l-20 -88h-30q-64 0 -177 -143l-475 -590l-74 -323q-8 -39 -8.5 -66t23 -41t76.5 -14h91l-19 -87h-663z" />
    <glyph glyph-name="Thorn" unicode="&#xde;" horiz-adv-x="1208" 
d="M-70 0l19 87h51q76 0 109.5 35t48.5 106l195 918q15 69 -1.5 95t-94.5 26h-56l18 87h604l-18 -87h-49q-63 0 -102.5 -25.5t-48.5 -67.5l-10 -48h152q65 0 120.5 -5.5t109.5 -18t94 -33t74.5 -50t51 -69.5t22.5 -92t-10 -117q-72 -353 -583 -353h-184l-37 -180
q-6 -35 -8 -62t23 -43t82 -16h65l-19 -87h-618zM461 482h155q43 0 82 8t79.5 29t73 53.5t59.5 85t41 120.5q30 143 -26 204t-180 61h-163z" />
    <glyph glyph-name="germandbls" unicode="&#xdf;" horiz-adv-x="1219" 
d="M738 -20q-53 0 -89.5 15t-53.5 40t-23.5 50.5t-4.5 53.5q3 56 36 56q19 0 25.5 -13t4.5 -41q-6 -80 78 -80q126 0 193 314q17 67 12 122.5t-30 94.5t-83 60t-148 20l11 88q41 2 73 8t71 24t68 48t56 83t42 125q26 118 -10.5 186.5t-148.5 68.5q-68 0 -120 -24.5
t-86.5 -72t-56 -105t-38.5 -135.5l-165 -791q-13 -41 -5 -64.5t48 -23.5h63l-20 -87h-498l19 87h52q56 0 81.5 31.5t38.5 90.5l140 671q13 60 25.5 106t34.5 102t49.5 97t69.5 82.5t93.5 67.5t123 42t157.5 16q93 0 164.5 -19t115 -53.5t69 -82t27.5 -103.5t-9 -120
q-14 -68 -53 -123.5t-89.5 -89.5t-94 -54t-84.5 -30q159 -10 231.5 -102.5t35.5 -266.5q-36 -169 -146.5 -269t-251.5 -100z" />
    <glyph glyph-name="agrave" unicode="&#xe0;" horiz-adv-x="1142" 
d="M668 1030l-425 318v4h304l192 -322h-71zM348 -25q-87 0 -151.5 37t-97.5 101.5t-42.5 151t13.5 185.5q23 106 70.5 189.5t101.5 131.5t116 79.5t110 42.5t88 11q63 0 137 -31.5t119 -97.5l23 99h227l-150 -682q-5 -30 -7 -52.5t12.5 -35.5t49.5 -13h60l-21 -91h-335
l14 106q-88 -62 -165 -96.5t-172 -34.5zM441 91q55 0 127.5 38t126.5 110l103 449q-55 100 -178 100q-80 0 -146 -52.5t-106.5 -131.5t-62.5 -178q-33 -150 1.5 -242.5t134.5 -92.5z" />
    <glyph glyph-name="aacute" unicode="&#xe1;" horiz-adv-x="1142" 
d="M668 1030h-71l192 322h304v-4zM348 -25q-87 0 -151.5 37t-97.5 101.5t-42.5 151t13.5 185.5q23 106 70.5 189.5t101.5 131.5t116 79.5t110 42.5t88 11q63 0 137 -31.5t119 -97.5l23 99h227l-150 -682q-5 -30 -7 -52.5t12.5 -35.5t49.5 -13h60l-21 -91h-335l14 106
q-88 -62 -165 -96.5t-172 -34.5zM441 91q55 0 127.5 38t126.5 110l103 449q-55 100 -178 100q-80 0 -146 -52.5t-106.5 -131.5t-62.5 -178q-33 -150 1.5 -242.5t134.5 -92.5z" />
    <glyph glyph-name="acircumflex" unicode="&#xe2;" horiz-adv-x="1142" 
d="M380 1030l290 322h197l153 -322h-61l-209 219l-304 -219h-66zM348 -25q-87 0 -151.5 37t-97.5 101.5t-42.5 151t13.5 185.5q23 106 70.5 189.5t101.5 131.5t116 79.5t110 42.5t88 11q63 0 137 -31.5t119 -97.5l23 99h227l-150 -682q-5 -30 -7 -52.5t12.5 -35.5t49.5 -13
h60l-21 -91h-335l14 106q-88 -62 -165 -96.5t-172 -34.5zM441 91q55 0 127.5 38t126.5 110l103 449q-55 100 -178 100q-80 0 -146 -52.5t-106.5 -131.5t-62.5 -178q-33 -150 1.5 -242.5t134.5 -92.5z" />
    <glyph glyph-name="atilde" unicode="&#xe3;" horiz-adv-x="1142" 
d="M448 1012l-58 21q24 125 84.5 193t149.5 68q18 0 34 -3.5t33.5 -11.5t27 -13t28.5 -17.5t25 -15.5q53 -44 104 -44q45 0 80.5 35t51.5 99l60 -20q-19 -118 -81.5 -198.5t-153.5 -80.5q-13 0 -25 1.5t-24 6t-19 7t-19.5 10.5t-16 10t-17.5 12.5t-15 11.5q-23 16 -37.5 25
t-39 16.5t-51.5 7.5q-45 0 -77.5 -37t-43.5 -83zM348 -25q-87 0 -151.5 37t-97.5 101.5t-42.5 151t13.5 185.5q23 106 70.5 189.5t101.5 131.5t116 79.5t110 42.5t88 11q63 0 137 -31.5t119 -97.5l23 99h227l-150 -682q-5 -30 -7 -52.5t12.5 -35.5t49.5 -13h60l-21 -91h-335
l14 106q-88 -62 -165 -96.5t-172 -34.5zM441 91q55 0 127.5 38t126.5 110l103 449q-55 100 -178 100q-80 0 -146 -52.5t-106.5 -131.5t-62.5 -178q-33 -150 1.5 -242.5t134.5 -92.5z" />
    <glyph glyph-name="adieresis" unicode="&#xe4;" horiz-adv-x="1142" 
d="M468 1114q-46 0 -80 34t-34 79q0 47 33.5 80.5t80.5 33.5q48 0 81 -33.5t33 -80.5q0 -48 -33.5 -80.5t-80.5 -32.5zM862 1114q-47 0 -80.5 33t-33.5 80q0 48 33.5 81t80.5 33t80.5 -33.5t33.5 -80.5q0 -48 -33.5 -80.5t-80.5 -32.5zM348 -25q-87 0 -151.5 37t-97.5 101.5
t-42.5 151t13.5 185.5q23 106 70.5 189.5t101.5 131.5t116 79.5t110 42.5t88 11q63 0 137 -31.5t119 -97.5l23 99h227l-150 -682q-5 -30 -7 -52.5t12.5 -35.5t49.5 -13h60l-21 -91h-335l14 106q-88 -62 -165 -96.5t-172 -34.5zM441 91q55 0 127.5 38t126.5 110l103 449
q-55 100 -178 100q-80 0 -146 -52.5t-106.5 -131.5t-62.5 -178q-33 -150 1.5 -242.5t134.5 -92.5z" />
    <glyph glyph-name="aring" unicode="&#xe5;" horiz-adv-x="1142" 
d="M668 973q-79 0 -134.5 56t-55.5 135t55.5 134t134.5 55t134.5 -55t55.5 -134t-55.5 -135t-134.5 -56zM668 1039q52 0 88.5 36.5t36.5 88.5t-36.5 88.5t-88.5 36.5t-87.5 -36t-35.5 -89t35.5 -89t87.5 -36zM348 -25q-87 0 -151.5 37t-97.5 101.5t-42.5 151t13.5 185.5
q23 106 70.5 189.5t101.5 131.5t116 79.5t110 42.5t88 11q63 0 137 -31.5t119 -97.5l23 99h227l-150 -682q-5 -30 -7 -52.5t12.5 -35.5t49.5 -13h60l-21 -91h-335l14 106q-88 -62 -165 -96.5t-172 -34.5zM441 91q55 0 127.5 38t126.5 110l103 449q-55 100 -178 100
q-80 0 -146 -52.5t-106.5 -131.5t-62.5 -178q-33 -150 1.5 -242.5t134.5 -92.5z" />
    <glyph glyph-name="ae" unicode="&#xe6;" horiz-adv-x="1507" 
d="M1454 440h-596q-10 -50 -14 -96t2 -98t24.5 -89.5t59 -62.5t100.5 -25q73 0 146 48t131 127l66 -61q-75 -100 -182.5 -156.5t-227.5 -56.5q-118 0 -203.5 56.5t-123.5 157.5q-148 -120 -236 -162t-193 -42q-51 0 -88 12.5t-56.5 34t-30.5 49.5t-9.5 58t6.5 61q8 39 29 73
t48 60.5t69.5 53.5t83 47.5t98.5 46.5l286 135q24 130 2 167t-114 37q-50 0 -88.5 -14t-63 -40t-38.5 -49t-27 -54q-30 -68 -104 -66q-45 1 -63 31.5t-8 74.5q25 84 140 145t307 61q207 0 267 -88q128 88 279 88q72 0 136.5 -26t117.5 -82t71 -144t-3 -212zM1130 814
q-50 0 -94.5 -28t-75.5 -74t-51.5 -93t-33.5 -96l383 21q8 45 5 93t-13.5 87t-41.5 64.5t-78 25.5zM321 93q48 0 114 42t134 118l54 256l-239 -139q-116 -64 -137 -172q-10 -50 9.5 -77.5t64.5 -27.5z" />
    <glyph glyph-name="ccedilla" unicode="&#xe7;" horiz-adv-x="930" 
d="M627 904q43 0 84.5 -8t80.5 -25.5t67 -42.5t43 -63t10 -84q-6 -37 -31.5 -61t-65.5 -25q-27 -1 -44.5 12t-24.5 36.5t-9 41t-2 40.5q-10 42 -36.5 66.5t-85.5 24.5q-65 0 -121 -36.5t-93.5 -95t-61.5 -117t-37 -116.5q-41 -187 2 -282t161 -95q55 0 105.5 19.5t87.5 52.5
t62.5 64t44.5 65l70 -57q-36 -54 -72.5 -94.5t-87.5 -77.5t-117 -56.5t-145 -19.5h-18l-17 -86q109 -2 176.5 -43.5t67.5 -121.5q0 -82 -79 -143.5t-236 -61.5q-108 0 -201 24l16 87q68 -14 155 -14q108 0 161 29t53 71q0 17 -10 29.5t-30.5 19.5t-39.5 11.5t-49.5 6
t-46.5 2t-44 0.5h-9l37 203q-145 37 -210.5 161t-26.5 302q45 203 206.5 330.5t360.5 127.5z" />
    <glyph glyph-name="egrave" unicode="&#xe8;" horiz-adv-x="926" 
d="M571 1030l-425 318v4h304l192 -322h-71zM401 -30q-189 0 -285 138t-49 353q44 201 191 322t325 121q127 0 219 -68t92 -173q0 -264 -595 -272q-31 -166 11 -244t159 -78q74 0 147.5 48t131.5 127l66 -61q-76 -100 -184.5 -156.5t-228.5 -56.5zM313 474q192 8 294 58
t102 140q0 63 -34.5 102.5t-94.5 39.5q-95 0 -166.5 -97.5t-100.5 -242.5z" />
    <glyph glyph-name="eacute" unicode="&#xe9;" horiz-adv-x="926" 
d="M571 1030h-71l192 322h304v-4zM401 -30q-189 0 -285 138t-49 353q44 201 191 322t325 121q127 0 219 -68t92 -173q0 -264 -595 -272q-31 -166 11 -244t159 -78q74 0 147.5 48t131.5 127l66 -61q-76 -100 -184.5 -156.5t-228.5 -56.5zM313 474q192 8 294 58t102 140
q0 63 -34.5 102.5t-94.5 39.5q-95 0 -166.5 -97.5t-100.5 -242.5z" />
    <glyph glyph-name="ecircumflex" unicode="&#xea;" horiz-adv-x="926" 
d="M283 1030l290 322h197l153 -322h-61l-209 219l-304 -219h-66zM401 -30q-189 0 -285 138t-49 353q44 201 191 322t325 121q127 0 219 -68t92 -173q0 -264 -595 -272q-31 -166 11 -244t159 -78q74 0 147.5 48t131.5 127l66 -61q-76 -100 -184.5 -156.5t-228.5 -56.5z
M313 474q192 8 294 58t102 140q0 63 -34.5 102.5t-94.5 39.5q-95 0 -166.5 -97.5t-100.5 -242.5z" />
    <glyph glyph-name="edieresis" unicode="&#xeb;" horiz-adv-x="926" 
d="M371 1114q-46 0 -80 34t-34 79q0 47 33.5 80.5t80.5 33.5q48 0 81 -33.5t33 -80.5q0 -48 -33.5 -80.5t-80.5 -32.5zM765 1114q-47 0 -80.5 33t-33.5 80q0 48 33.5 81t80.5 33t80.5 -33.5t33.5 -80.5q0 -48 -33.5 -80.5t-80.5 -32.5zM401 -30q-189 0 -285 138t-49 353
q44 201 191 322t325 121q127 0 219 -68t92 -173q0 -264 -595 -272q-31 -166 11 -244t159 -78q74 0 147.5 48t131.5 127l66 -61q-76 -100 -184.5 -156.5t-228.5 -56.5zM313 474q192 8 294 58t102 140q0 63 -34.5 102.5t-94.5 39.5q-95 0 -166.5 -97.5t-100.5 -242.5z" />
    <glyph glyph-name="igrave" unicode="&#xec;" horiz-adv-x="586" 
d="M388 1030l-425 318v4h304l192 -322h-71zM86 0l146 658q15 61 2 83t-73 17l-69 -13l15 86l407 76l-165 -743q-9 -42 7.5 -59.5t62.5 -17.5h57l-19 -87h-371z" />
    <glyph glyph-name="iacute" unicode="&#xed;" horiz-adv-x="586" 
d="M388 1030h-71l192 322h304v-4zM86 0l146 658q15 61 2 83t-73 17l-69 -13l15 86l407 76l-165 -743q-9 -42 7.5 -59.5t62.5 -17.5h57l-19 -87h-371z" />
    <glyph glyph-name="icircumflex" unicode="&#xee;" horiz-adv-x="586" 
d="M100 1030l290 322h197l153 -322h-61l-209 219l-304 -219h-66zM86 0l146 658q15 61 2 83t-73 17l-69 -13l15 86l407 76l-165 -743q-9 -42 7.5 -59.5t62.5 -17.5h57l-19 -87h-371z" />
    <glyph glyph-name="idieresis" unicode="&#xef;" horiz-adv-x="586" 
d="M188 1114q-46 0 -80 34t-34 79q0 47 33.5 80.5t80.5 33.5q48 0 81 -33.5t33 -80.5q0 -48 -33.5 -80.5t-80.5 -32.5zM582 1114q-47 0 -80.5 33t-33.5 80q0 48 33.5 81t80.5 33t80.5 -33.5t33.5 -80.5q0 -48 -33.5 -80.5t-80.5 -32.5zM86 0l146 658q15 61 2 83t-73 17
l-69 -13l15 86l407 76l-165 -743q-9 -42 7.5 -59.5t62.5 -17.5h57l-19 -87h-371z" />
    <glyph glyph-name="eth" unicode="&#xf0;" horiz-adv-x="1017" 
d="M1099 1170l-163 -46q92 -210 14 -583q-32 -148 -94 -261t-140 -178t-160.5 -96.5t-167.5 -31.5q-81 0 -150.5 31t-118.5 91t-66 148.5t7 203.5q19 90 58.5 162t88 117t107.5 75t113.5 42t107.5 12q164 0 211 -125q43 222 19 345l-279 -79l-6 88l257 72q-67 128 -256 124
l-3 93q288 0 414 -174l202 57zM697 446q11 74 12.5 125.5t-8.5 99t-41 71.5t-84 24q-114 0 -185.5 -103t-112.5 -293q-65 -306 117 -306q202 0 302 382z" />
    <glyph glyph-name="ntilde" unicode="&#xf1;" horiz-adv-x="1157" 
d="M440 1012l-58 21q24 125 84.5 193t149.5 68q18 0 34 -3.5t33.5 -11.5t27 -13t28.5 -17.5t25 -15.5q53 -44 104 -44q45 0 80.5 35t51.5 99l60 -20q-19 -118 -81.5 -198.5t-153.5 -80.5q-13 0 -25 1.5t-24 6t-19 7t-19.5 10.5t-16 10t-17.5 12.5t-15 11.5q-23 16 -37.5 25
t-39 16.5t-51.5 7.5q-45 0 -77.5 -37t-43.5 -83zM82 0l143 645q15 49 4 77t-65 22l-66 -13l15 86l394 81l-48 -207q81 95 174.5 154t180.5 59q133 0 190.5 -85t22.5 -244l-85 -385q-12 -55 1 -79t61 -24h59l-20 -87h-368l129 591q11 55 11 96t-23.5 64t-73.5 23
q-70 0 -148 -73.5t-143 -174.5l-116 -526h-229z" />
    <glyph glyph-name="ograve" unicode="&#xf2;" horiz-adv-x="1026" 
d="M610 1030l-425 318v4h304l192 -322h-71zM418 -30q-28 0 -58 4.5t-66.5 15t-69.5 28t-66 44.5t-55 63.5t-38 85.5t-14.5 110.5t16.5 137.5q21 95 65.5 172t100 127t122 83.5t129 48t123.5 14.5q56 0 112 -15.5t112 -50.5t91 -91t50 -137.5t-11 -189.5q-22 -99 -68 -178.5
t-102.5 -129t-124 -83t-128.5 -46.5t-120 -13zM424 60q101 0 183.5 110t121.5 287q20 99 21 178.5t-36.5 129t-110.5 49.5q-75 0 -138.5 -57t-103 -142t-63.5 -191q-38 -164 -5 -264t131 -100z" />
    <glyph glyph-name="oacute" unicode="&#xf3;" horiz-adv-x="1026" 
d="M610 1030h-71l192 322h304v-4zM418 -30q-28 0 -58 4.5t-66.5 15t-69.5 28t-66 44.5t-55 63.5t-38 85.5t-14.5 110.5t16.5 137.5q21 95 65.5 172t100 127t122 83.5t129 48t123.5 14.5q56 0 112 -15.5t112 -50.5t91 -91t50 -137.5t-11 -189.5q-22 -99 -68 -178.5
t-102.5 -129t-124 -83t-128.5 -46.5t-120 -13zM424 60q101 0 183.5 110t121.5 287q20 99 21 178.5t-36.5 129t-110.5 49.5q-75 0 -138.5 -57t-103 -142t-63.5 -191q-38 -164 -5 -264t131 -100z" />
    <glyph glyph-name="ocircumflex" unicode="&#xf4;" horiz-adv-x="1026" 
d="M322 1030l290 322h197l153 -322h-61l-209 219l-304 -219h-66zM418 -30q-28 0 -58 4.5t-66.5 15t-69.5 28t-66 44.5t-55 63.5t-38 85.5t-14.5 110.5t16.5 137.5q21 95 65.5 172t100 127t122 83.5t129 48t123.5 14.5q56 0 112 -15.5t112 -50.5t91 -91t50 -137.5t-11 -189.5
q-22 -99 -68 -178.5t-102.5 -129t-124 -83t-128.5 -46.5t-120 -13zM424 60q101 0 183.5 110t121.5 287q20 99 21 178.5t-36.5 129t-110.5 49.5q-75 0 -138.5 -57t-103 -142t-63.5 -191q-38 -164 -5 -264t131 -100z" />
    <glyph glyph-name="otilde" unicode="&#xf5;" horiz-adv-x="1026" 
d="M390 1012l-58 21q24 125 84.5 193t149.5 68q18 0 34 -3.5t33.5 -11.5t27 -13t28.5 -17.5t25 -15.5q53 -44 104 -44q45 0 80.5 35t51.5 99l60 -20q-19 -118 -81.5 -198.5t-153.5 -80.5q-13 0 -25 1.5t-24 6t-19 7t-19.5 10.5t-16 10t-17.5 12.5t-15 11.5q-23 16 -37.5 25
t-39 16.5t-51.5 7.5q-45 0 -77.5 -37t-43.5 -83zM418 -30q-28 0 -58 4.5t-66.5 15t-69.5 28t-66 44.5t-55 63.5t-38 85.5t-14.5 110.5t16.5 137.5q21 95 65.5 172t100 127t122 83.5t129 48t123.5 14.5q56 0 112 -15.5t112 -50.5t91 -91t50 -137.5t-11 -189.5
q-22 -99 -68 -178.5t-102.5 -129t-124 -83t-128.5 -46.5t-120 -13zM424 60q101 0 183.5 110t121.5 287q20 99 21 178.5t-36.5 129t-110.5 49.5q-75 0 -138.5 -57t-103 -142t-63.5 -191q-38 -164 -5 -264t131 -100z" />
    <glyph glyph-name="odieresis" unicode="&#xf6;" horiz-adv-x="1026" 
d="M410 1114q-46 0 -80 34t-34 79q0 47 33.5 80.5t80.5 33.5q48 0 81 -33.5t33 -80.5q0 -48 -33.5 -80.5t-80.5 -32.5zM804 1114q-47 0 -80.5 33t-33.5 80q0 48 33.5 81t80.5 33t80.5 -33.5t33.5 -80.5q0 -48 -33.5 -80.5t-80.5 -32.5zM418 -30q-28 0 -58 4.5t-66.5 15
t-69.5 28t-66 44.5t-55 63.5t-38 85.5t-14.5 110.5t16.5 137.5q21 95 65.5 172t100 127t122 83.5t129 48t123.5 14.5q56 0 112 -15.5t112 -50.5t91 -91t50 -137.5t-11 -189.5q-22 -99 -68 -178.5t-102.5 -129t-124 -83t-128.5 -46.5t-120 -13zM424 60q101 0 183.5 110
t121.5 287q20 99 21 178.5t-36.5 129t-110.5 49.5q-75 0 -138.5 -57t-103 -142t-63.5 -191q-38 -164 -5 -264t131 -100z" />
    <glyph glyph-name="divide" unicode="&#xf7;" horiz-adv-x="1267" 
d="M681 986q-46 0 -77.5 32t-31.5 78q0 45 32 77.5t77 32.5t77.5 -33t32.5 -77q0 -46 -32.5 -78t-77.5 -32zM126 600v152h1110v-152h-1110zM681 146q-46 0 -77.5 32t-31.5 78q0 45 32 77.5t77 32.5t77.5 -33t32.5 -77q0 -46 -32.5 -78t-77.5 -32z" />
    <glyph glyph-name="oslash" unicode="&#xf8;" horiz-adv-x="1026" 
d="M884 794q130 -133 77 -374q-22 -99 -68 -178.5t-102.5 -129t-124 -83t-128.5 -46.5t-120 -13q-111 0 -205 54l-82 -94l-65 58l77 88q-131 131 -76 383q21 95 65.5 172t100 127t122 83.5t129 48t123.5 14.5q115 0 209 -57l83 95l64 -57zM298 424q-24 -110 -18 -191
l446 511q-35 70 -123 70q-75 0 -138.5 -57t-103 -142t-63.5 -191zM729 457q24 105 21 183l-444 -510q36 -70 118 -70q101 0 183.5 110t121.5 287z" />
    <glyph glyph-name="ugrave" unicode="&#xf9;" horiz-adv-x="1158" 
d="M674 1030l-425 318v4h304l192 -322h-71zM343 -30q-135 0 -190.5 86t-21.5 243l85 384q12 56 -1 79.5t-61 23.5h-58l18 88h370l-130 -591q-11 -54 -11.5 -95t23 -65t73.5 -24q71 0 147.5 73t144.5 176l75 335q13 44 4 73.5t-46 29.5h-64l17 88h358l-150 -683
q-15 -50 -3.5 -76t65.5 -22l67 13l-17 -87l-388 -45l48 209q-80 -96 -173 -154.5t-181 -58.5z" />
    <glyph glyph-name="uacute" unicode="&#xfa;" horiz-adv-x="1158" 
d="M674 1030h-71l192 322h304v-4zM343 -30q-135 0 -190.5 86t-21.5 243l85 384q12 56 -1 79.5t-61 23.5h-58l18 88h370l-130 -591q-11 -54 -11.5 -95t23 -65t73.5 -24q71 0 147.5 73t144.5 176l75 335q13 44 4 73.5t-46 29.5h-64l17 88h358l-150 -683q-15 -50 -3.5 -76
t65.5 -22l67 13l-17 -87l-388 -45l48 209q-80 -96 -173 -154.5t-181 -58.5z" />
    <glyph glyph-name="ucircumflex" unicode="&#xfb;" horiz-adv-x="1158" 
d="M386 1030l290 322h197l153 -322h-61l-209 219l-304 -219h-66zM343 -30q-135 0 -190.5 86t-21.5 243l85 384q12 56 -1 79.5t-61 23.5h-58l18 88h370l-130 -591q-11 -54 -11.5 -95t23 -65t73.5 -24q71 0 147.5 73t144.5 176l75 335q13 44 4 73.5t-46 29.5h-64l17 88h358
l-150 -683q-15 -50 -3.5 -76t65.5 -22l67 13l-17 -87l-388 -45l48 209q-80 -96 -173 -154.5t-181 -58.5z" />
    <glyph glyph-name="udieresis" unicode="&#xfc;" horiz-adv-x="1158" 
d="M474 1114q-46 0 -80 34t-34 79q0 47 33.5 80.5t80.5 33.5q48 0 81 -33.5t33 -80.5q0 -48 -33.5 -80.5t-80.5 -32.5zM868 1114q-47 0 -80.5 33t-33.5 80q0 48 33.5 81t80.5 33t80.5 -33.5t33.5 -80.5q0 -48 -33.5 -80.5t-80.5 -32.5zM343 -30q-135 0 -190.5 86t-21.5 243
l85 384q12 56 -1 79.5t-61 23.5h-58l18 88h370l-130 -591q-11 -54 -11.5 -95t23 -65t73.5 -24q71 0 147.5 73t144.5 176l75 335q13 44 4 73.5t-46 29.5h-64l17 88h358l-150 -683q-15 -50 -3.5 -76t65.5 -22l67 13l-17 -87l-388 -45l48 209q-80 -96 -173 -154.5t-181 -58.5z
" />
    <glyph glyph-name="yacute" unicode="&#xfd;" horiz-adv-x="948" 
d="M574 1030h-71l192 322h304v-4zM-6 -511q-45 -1 -69 24t-24 67q0 26 9 45t27 30.5t34.5 18t42.5 12.5q85 18 155.5 65t139.5 146l75 111l-200 683q-15 50 -32 72.5t-48 22.5h-50l18 88h299l170 -636l256 413q21 34 31.5 56.5t14.5 41.5t-5.5 28t-32.5 9h-101l17 88h327
l-686 -1061q-55 -85 -95.5 -139t-85 -97t-89.5 -63.5t-98 -24.5z" />
    <glyph glyph-name="thorn" unicode="&#xfe;" horiz-adv-x="1138" 
d="M-212 -516l19 87h64q53 0 79.5 32.5t39.5 91.5l306 1441q16 53 0.5 77.5t-81.5 20.5l-56 -11l14 84l399 75l-133 -615q74 65 160.5 101t171.5 36q79 0 145 -34t109 -97t58 -152t-8 -198q-43 -200 -190 -326.5t-311 -126.5q-161 0 -266 134l-94 -430q-7 -33 -8 -56
t19.5 -35t68.5 -12h75l-19 -87h-562zM508 86q69 0 129 37.5t100 96.5t66 118t38 115q15 62 11.5 122.5t-19.5 107.5t-55.5 76t-96.5 29q-66 0 -137.5 -44.5t-124.5 -109.5l-97 -442q32 -53 83 -79.5t103 -26.5z" />
    <glyph glyph-name="ydieresis" unicode="&#xff;" horiz-adv-x="948" 
d="M374 1114q-46 0 -80 34t-34 79q0 47 33.5 80.5t80.5 33.5q48 0 81 -33.5t33 -80.5q0 -48 -33.5 -80.5t-80.5 -32.5zM768 1114q-47 0 -80.5 33t-33.5 80q0 48 33.5 81t80.5 33t80.5 -33.5t33.5 -80.5q0 -48 -33.5 -80.5t-80.5 -32.5zM-6 -511q-45 -1 -69 24t-24 67
q0 26 9 45t27 30.5t34.5 18t42.5 12.5q85 18 155.5 65t139.5 146l75 111l-200 683q-15 50 -32 72.5t-48 22.5h-50l18 88h299l170 -636l256 413q21 34 31.5 56.5t14.5 41.5t-5.5 28t-32.5 9h-101l17 88h327l-686 -1061q-55 -85 -95.5 -139t-85 -97t-89.5 -63.5t-98 -24.5z
" />
    <glyph glyph-name="dotlessi" unicode="&#x131;" horiz-adv-x="586" 
d="M86 0l146 658q15 61 2 83t-73 17l-69 -13l15 86l407 76l-165 -743q-9 -42 7.5 -59.5t62.5 -17.5h57l-19 -87h-371z" />
    <glyph glyph-name="Lslash" unicode="&#x141;" horiz-adv-x="1252" 
d="M1125 450l82 -1l-115 -449h-1133l19 87h77q66 0 101.5 32t51.5 109l41 187l-165 -119l28 138l168 121l130 589q9 40 8.5 67t-23.5 40t-76 13h-81l19 88h646l-19 -88h-73q-70 0 -106.5 -31.5t-52.5 -109.5l-79 -356l401 289l-27 -138l-405 -292l-88 -399q-10 -44 -12 -74
t22.5 -44.5t83.5 -14.5h211q215 0 315 211z" />
    <glyph glyph-name="lslash" unicode="&#x142;" horiz-adv-x="546" 
d="M438 733l-120 -543q-24 -103 41 -103h71l-19 -87h-361l118 538l-207 -150l25 125l210 152l105 476q16 55 3.5 80.5t-68.5 19.5l-66 -13l16 86l396 75l-116 -529l201 146l-24 -124z" />
    <glyph glyph-name="OE" unicode="&#x152;" horiz-adv-x="2090" 
d="M741 0q-138 0 -247.5 25.5t-192.5 78.5t-129.5 135t-59 195t18.5 259q133 639 879 657l1087 2l-53 -350l-83 -1l1 156q-5 30 -14.5 49.5t-19 30t-30.5 15t-35.5 5.5t-46.5 1l-334 -6q-58 -22 -81 -126l-75 -372h229q50 0 90 22t50 70l17 87h87l-94 -460h-87l20 102
q6 17 3.5 30.5t-3.5 22.5t-10 15t-15 9.5t-19.5 5t-23 2t-25.5 0.5h-239l-87 -429q-9 -44 -10.5 -74.5t20 -46.5t72.5 -16h281q102 0 151.5 31.5t85.5 102.5l92 218l86 -2l-109 -444h-1147zM688 94h177q46 0 70.5 38.5t38.5 106.5l186 905q14 64 5.5 92t-44.5 28h-154
q-61 0 -124 -19t-131 -65t-125.5 -114t-106.5 -174.5t-76 -238.5q-19 -94 -21.5 -176.5t15 -153t53 -121.5t96 -79.5t141.5 -28.5z" />
    <glyph glyph-name="oe" unicode="&#x153;" horiz-adv-x="1635" 
d="M1582 440h-597q-13 -64 -14.5 -122t11.5 -117.5t57.5 -95.5t118.5 -36q73 0 146 48t130 127l66 -61q-74 -100 -182 -156.5t-227 -56.5q-96 0 -171.5 38t-121.5 108q-80 -74 -180.5 -110t-193.5 -36q-28 0 -58 4.5t-67 15t-70 28t-66.5 44.5t-56 63.5t-39 85.5
t-15.5 110.5t15 137.5q20 95 63.5 172t98 127t120.5 83.5t128.5 48t123.5 14.5q86 0 171 -36t138 -110q73 70 164 108t186 38q72 0 136.5 -26t117.5 -82t71 -144t-3 -212zM429 60q102 0 183.5 110.5t116.5 287.5q18 99 17 178t-38.5 128.5t-109.5 49.5q-110 0 -188 -112
t-112 -277q-34 -162 -0.5 -263.5t131.5 -101.5zM1257 814q-50 0 -94 -28t-75 -74t-51.5 -93t-33.5 -96l383 21q8 45 5 93t-13.5 87t-41.5 64.5t-79 25.5z" />
    <glyph glyph-name="Scaron" unicode="&#x160;" horiz-adv-x="1106" 
d="M685 1456l-154 322h62l209 -219l303 219h67l-291 -322h-196zM520 -26q-109 0 -199.5 54.5t-132.5 156.5l-60 -163h-91l102 465l88 -10q-9 -79 2 -149t42 -127.5t91 -91.5t142 -34q95 0 176.5 69t106.5 177q17 79 -26 134.5t-147 104.5q-173 89 -233 134q-110 83 -124 194
q-8 60 9 137q33 152 165 252.5t281 100.5q82 0 155 -43.5t112 -120.5l57 140h89l-87 -398l-84 11q5 78 -12 140.5t-50.5 100t-76.5 57t-91 19.5q-103 0 -171 -65t-87 -148q-20 -91 39 -147q40 -40 173 -104q8 -4 47 -23q37 -18 66 -34t61 -36t55 -41t45 -47t35 -55t21 -63.5
t6.5 -75t-11.5 -86.5q-20 -93 -73 -168.5t-122 -121.5t-143.5 -70.5t-144.5 -24.5z" />
    <glyph glyph-name="scaron" unicode="&#x161;" horiz-adv-x="963" 
d="M708 1030h-196l-155 322h63l208 -219l304 219h65zM793 820l58 84h66l-54 -264l-59 1q-20 89 -98 136.5t-186 47.5q-90 0 -151 -33t-68 -91q-2 -20 3 -36t12 -27.5t24.5 -21t30 -15t40.5 -11.5t43.5 -9t49.5 -8q17 -3 25 -4q40 -7 68.5 -13t65.5 -17.5t62.5 -24.5
t51.5 -34t41 -46.5t23 -61.5t5 -79q-10 -149 -125 -236t-292 -87q-97 0 -167.5 25t-108.5 61l-66 -86h-70l58 280h72q34 -94 120 -147.5t189 -53.5q88 0 148.5 39.5t68.5 110.5q2 20 -0.5 37t-12.5 30t-19.5 23t-29 18.5t-33 13.5t-40.5 11t-41.5 8.5t-45.5 7.5q-8 1 -12 2
q-57 10 -92 18t-81 27t-71.5 44t-42 67t-12.5 98q8 141 118 220.5t277 79.5q165 0 258 -84z" />
    <glyph glyph-name="Wcircumflex" unicode="&#x174;" horiz-adv-x="1858" 
d="M1196 1689l-303 -219h-65l277 322h222l140 -322h-60zM1643 1352h410l-20 -88h-32q-52 0 -95.5 -54.5t-100.5 -171.5l-513 -1064h-133l-107 1060l-533 -1060h-138l-70 1151q-6 84 -22.5 111.5t-71.5 27.5h-42l19 88h558l-54 -88h-83q-8 0 -24 -18.5t-30 -56.5t-10 -79
l51 -801l523 1050h130l106 -1045l349 743q17 36 25.5 55.5t18.5 48t10 43.5t-4 31t-20.5 22.5t-43.5 6.5h-73z" />
    <glyph glyph-name="wcircumflex" unicode="&#x175;" horiz-adv-x="1462" 
d="M939 1249l-304 -219h-66l290 322h197l153 -322h-61zM1225 874h327l-526 -893h-140l-111 666l-374 -666h-117l-96 707q-10 61 -25 79.5t-52 18.5h-53l18 88h305l85 -621l358 629h136l113 -670l248 445q28 52 36 77.5t-4 38.5t-51 13h-95z" />
    <glyph glyph-name="Ycircumflex" unicode="&#x176;" horiz-adv-x="1306" 
d="M554 1470l277 322h222l140 -322h-60l-211 219l-303 -219h-65zM229 0l19 87h86q71 0 103.5 34.5t48.5 105.5l66 289l-209 625q-24 69 -46.5 96t-66.5 27h-58l19 88h582l-19 -88h-67q-39 0 -60 -21.5t-21 -52.5t11 -65l169 -486l361 465q27 37 41.5 64.5t17.5 50t-14.5 34
t-55.5 11.5h-60l20 88h409l-20 -88h-30q-64 0 -177 -143l-475 -590l-74 -323q-8 -39 -8.5 -66t23 -41t76.5 -14h91l-19 -87h-663z" />
    <glyph glyph-name="ycircumflex" unicode="&#x177;" horiz-adv-x="948" 
d="M286 1030l290 322h197l153 -322h-61l-209 219l-304 -219h-66zM-6 -511q-45 -1 -69 24t-24 67q0 26 9 45t27 30.5t34.5 18t42.5 12.5q85 18 155.5 65t139.5 146l75 111l-200 683q-15 50 -32 72.5t-48 22.5h-50l18 88h299l170 -636l256 413q21 34 31.5 56.5t14.5 41.5
t-5.5 28t-32.5 9h-101l17 88h327l-686 -1061q-55 -85 -95.5 -139t-85 -97t-89.5 -63.5t-98 -24.5z" />
    <glyph glyph-name="Ydieresis" unicode="&#x178;" horiz-adv-x="1306" 
d="M651 1492q-46 0 -79.5 34t-33.5 80t33 79.5t80 33.5q48 0 81 -33t33 -80q0 -49 -33 -81.5t-81 -32.5zM1045 1492q-47 0 -80.5 33.5t-33.5 80.5q0 48 33 80.5t81 32.5q47 0 80.5 -33t33.5 -80q0 -48 -33.5 -81t-80.5 -33zM229 0l19 87h86q71 0 103.5 34.5t48.5 105.5
l66 289l-209 625q-24 69 -46.5 96t-66.5 27h-58l19 88h582l-19 -88h-67q-39 0 -60 -21.5t-21 -52.5t11 -65l169 -486l361 465q27 37 41.5 64.5t17.5 50t-14.5 34t-55.5 11.5h-60l20 88h409l-20 -88h-30q-64 0 -177 -143l-475 -590l-74 -323q-8 -39 -8.5 -66t23 -41t76.5 -14
h91l-19 -87h-663z" />
    <glyph glyph-name="Zcaron" unicode="&#x17d;" horiz-adv-x="1303" 
d="M969 1456h-196l-154 322h62l209 -219l303 219h67zM1385 1358l-19 -90l-1078 -1174h487q46 0 76 4t69.5 19t75.5 50t72 91l67 161l86 -2l-119 -417h-1127l18 91l1068 1173h-408q-42 0 -71 -2t-66 -10.5t-64 -24t-54.5 -44.5t-48.5 -70l-46 -116l-85 1l105 360h1062z" />
    <glyph glyph-name="zcaron" unicode="&#x17e;" horiz-adv-x="962" 
d="M711 1030h-196l-155 322h63l208 -219l304 219h65zM133 605l83 269h747l-19 -93l-669 -694h295q37 0 71.5 23.5t75.5 86.5l47 95l83 -1l-89 -291h-784l17 87l669 699h-285q-32 0 -56 -20t-63 -83l-38 -81z" />
    <glyph glyph-name="florin" unicode="&#x192;" horiz-adv-x="1084" 
d="M9 -454q-70 0 -103.5 39.5t-23.5 96.5q5 27 27.5 47t55.5 19q24 -1 43.5 -26.5t10.5 -66.5q-1 -11 -3.5 -23t-3.5 -16t1.5 -8.5t9 -5.5t20.5 -1q20 0 37 8t30.5 25.5t23.5 35.5t20.5 48t17.5 52.5t17.5 60t17.5 59.5q10 33 26.5 78.5t28 74t45 109.5t46.5 114l213 514
h-168l38 94h65q74 0 122 47t106 164q75 140 156.5 214.5t183.5 74.5q60 0 99 -35t31 -99q-3 -33 -26 -55.5t-56 -22.5q-35 0 -47.5 30t-8.5 63q1 10 5.5 22t9 20.5t6 16t-4.5 11.5t-21 4q-40 0 -82 -37.5t-65 -106.5q-10 -21 -21 -56.5t-25 -88t-19 -68.5q-16 -55 -37 -109
l200 11l-37 -94h-200l-208 -513q-101 -242 -168 -369t-124 -204q-37 -55 -107.5 -101.5t-153.5 -46.5z" />
    <glyph glyph-name="oslashacute" unicode="&#x1ff;" horiz-adv-x="1026" 
d="M731 1352h304v-4l-425 -318h-71zM963 885l-79 -91q130 -133 77 -374q-22 -99 -68 -178.5t-102.5 -129t-124 -83t-128.5 -46.5t-120 -13q-111 0 -205 54l-82 -94l-65 58l77 88q-131 131 -76 383q21 95 65.5 172t100 127t122 83.5t129 48t123.5 14.5q115 0 209 -57l83 95z
M298 424q-24 -110 -18 -191l446 511q-35 70 -123 70q-75 0 -138.5 -57t-103 -142t-63.5 -191zM729 457q24 105 21 183l-444 -510q36 -70 118 -70q101 0 183.5 110t121.5 287z" />
    <glyph glyph-name="uni0237" unicode="&#x237;" horiz-adv-x="564" 
d="M-187 -531q-110 0 -172.5 55t-48.5 153q5 32 32.5 52.5t61.5 21.5q35 1 55.5 -24.5t19.5 -69.5q7 -97 96 -97q144 0 206 292l171 804q7 35 7 59t-21.5 35t-69.5 6l-69 -13l15 86l420 78l-206 -967q-35 -167 -92 -267t-155.5 -152t-249.5 -52z" />
    <glyph glyph-name="circumflex" unicode="&#x2c6;" horiz-adv-x="707" 
d="M159 1030l290 322h197l153 -322h-61l-209 219l-304 -219h-66z" />
    <glyph glyph-name="caron" unicode="&#x2c7;" horiz-adv-x="709" 
d="M384 1030l-155 322h63l208 -219l304 219h65l-289 -322h-196z" />
    <glyph glyph-name="breve" unicode="&#x2d8;" horiz-adv-x="743" 
d="M528 989q-67 0 -123.5 27t-92.5 70.5t-58 94t-27 102.5h61q28 -84 93 -123t150 -39q50 0 90.5 13.5t63.5 30t42 43t25.5 41t13.5 34.5h58q-2 -39 -14 -79t-36.5 -79t-57.5 -69t-82 -48.5t-106 -18.5z" />
    <glyph glyph-name="dotaccent" unicode="&#x2d9;" horiz-adv-x="589" 
d="M529 1063q-46 0 -79.5 34t-33.5 80q0 47 33 80.5t80 33.5q48 0 82 -33.5t34 -80.5q0 -48 -34.5 -81t-81.5 -33z" />
    <glyph glyph-name="ring" unicode="&#x2da;" horiz-adv-x="563" 
d="M438 981q-81 0 -138.5 57.5t-57.5 139.5q0 81 57.5 137.5t138.5 56.5q82 0 139.5 -56.5t57.5 -137.5q0 -82 -57.5 -139.5t-139.5 -57.5zM438 1059q50 0 84.5 34.5t34.5 84.5q0 49 -35 83.5t-84 34.5t-82.5 -34.5t-33.5 -83.5q0 -50 33.5 -84.5t82.5 -34.5z" />
    <glyph glyph-name="ogonek" unicode="&#x2db;" horiz-adv-x="488" 
d="M104 -371q-110 0 -173 63t-63 149q0 55 23 96.5t64 82.5l30 -20q-33 -55 -33 -106q0 -80 61.5 -137t148.5 -57q64 0 133 37l22 -31q-113 -77 -213 -77z" />
    <glyph glyph-name="tilde" unicode="&#x2dc;" horiz-adv-x="811" 
d="M277 1012l-58 21q24 125 84.5 193t149.5 68q18 0 34 -3.5t33.5 -11.5t27 -13t28.5 -17.5t25 -15.5q53 -44 104 -44q45 0 80.5 35t51.5 99l60 -20q-19 -118 -81.5 -198.5t-153.5 -80.5q-13 0 -25 1.5t-24 6t-19 7t-19.5 10.5t-16 10t-17.5 12.5t-15 11.5q-23 16 -37.5 25
t-39 16.5t-51.5 7.5q-45 0 -77.5 -37t-43.5 -83z" />
    <glyph glyph-name="hungarumlaut" unicode="&#x2dd;" horiz-adv-x="996" 
d="M255 1030l192 322h304v-4l-425 -318h-71zM683 1030l192 322h304v-4l-425 -318h-71z" />
    <glyph glyph-name="gravecomb" unicode="&#x300;" 
d="M29 1030l-425 318v4h304l192 -322h-71z" />
    <glyph glyph-name="acutecomb" unicode="&#x301;" 
d="M-624 1030h-71l192 322h304v-4z" />
    <glyph glyph-name="uni0302" unicode="&#x302;" 
d="M-548 1030l290 322h197l153 -322h-61l-209 219l-304 -219h-66z" />
    <glyph glyph-name="tildecomb" unicode="&#x303;" 
d="M-534 1012l-58 21q24 125 84.5 193t149.5 68q18 0 34 -3.5t33.5 -11.5t27 -13t28.5 -17.5t25 -15.5q53 -44 104 -44q45 0 80.5 35t51.5 99l60 -20q-19 -118 -81.5 -198.5t-153.5 -80.5q-13 0 -25 1.5t-24 6t-19 7t-19.5 10.5t-16 10t-17.5 12.5t-15 11.5q-23 16 -37.5 25
t-39 16.5t-51.5 7.5q-45 0 -77.5 -37t-43.5 -83z" />
    <glyph glyph-name="uni0304" unicode="&#x304;" 
d="M-652 1082l35 164h654l-36 -164h-653z" />
    <glyph glyph-name="uni0306" unicode="&#x306;" 
d="M-215 989q-67 0 -123.5 27t-92.5 70.5t-58 94t-27 102.5h61q28 -84 93 -123t150 -39q50 0 90.5 13.5t63.5 30t42 43t25.5 41t13.5 34.5h58q-2 -39 -14 -79t-36.5 -79t-57.5 -69t-82 -48.5t-106 -18.5z" />
    <glyph glyph-name="uni0307" unicode="&#x307;" 
d="M-60 1063q-46 0 -79.5 34t-33.5 80q0 47 33 80.5t80 33.5q48 0 82 -33.5t34 -80.5q0 -48 -34.5 -81t-81.5 -33z" />
    <glyph glyph-name="uni0308" unicode="&#x308;" 
d="M-442 1114q-46 0 -80 34t-34 79q0 47 33.5 80.5t80.5 33.5q48 0 81 -33.5t33 -80.5q0 -48 -33.5 -80.5t-80.5 -32.5zM-48 1114q-47 0 -80.5 33t-33.5 80q0 48 33.5 81t80.5 33t80.5 -33.5t33.5 -80.5q0 -48 -33.5 -80.5t-80.5 -32.5z" />
    <glyph glyph-name="uni030A" unicode="&#x30a;" 
d="M-123 973q-79 0 -134.5 56t-55.5 135t55.5 134t134.5 55t134.5 -55t55.5 -134t-55.5 -135t-134.5 -56zM-123 1039q53 0 89 36.5t36 88.5t-36 88.5t-89 36.5q-52 0 -87.5 -36t-35.5 -89t35.5 -89t87.5 -36z" />
    <glyph glyph-name="uni030B" unicode="&#x30b;" 
d="M-741 1030l192 322h304v-4l-425 -318h-71zM-313 1030l192 322h304v-4l-425 -318h-71z" />
    <glyph glyph-name="uni030C" unicode="&#x30c;" 
d="M-325 1030l-155 322h63l208 -219l304 219h65l-289 -322h-196z" />
    <glyph glyph-name="uni0327" unicode="&#x327;" 
d="M-517 -486q-108 0 -201 24l16 87q68 -14 155 -14q108 0 161 29t53 71q0 17 -10 29.5t-30.5 19.5t-39.5 11.5t-49.5 6t-46.5 2t-44 0.5h-9l46 250l98 -7l-28 -139q109 -2 176.5 -43.5t67.5 -121.5q0 -82 -79 -143.5t-236 -61.5z" />
    <glyph glyph-name="uni0328" unicode="&#x328;" 
d="M-384 -371q-110 0 -173 63t-63 149q0 55 23 96.5t64 82.5l30 -20q-33 -55 -33 -106q0 -80 61.5 -137t148.5 -57q64 0 133 37l22 -31q-113 -77 -213 -77z" />
    <glyph glyph-name="uni0337" unicode="&#x337;" 
d="M-596 390l25 125l681 493l-24 -124z" />
    <glyph glyph-name="uni0338" unicode="&#x338;" 
d="M-708 -59l-65 58l833 954l64 -57z" />
    <glyph glyph-name="uni0394" unicode="&#x394;" horiz-adv-x="873" 
d="M550 1443h201l-27 -1443h-763zM87 87h437l24 1119z" />
    <glyph glyph-name="uni03A9" unicode="&#x3a9;" horiz-adv-x="1289" 
d="M30 0l72 344h59l-19 -87q-12 -53 4 -82t75 -29h222l29 126q-54 28 -96.5 65t-78 89.5t-53 117t-20.5 147t19 180.5q55 252 215 404t391 152q95 0 170 -30.5t122.5 -85t75.5 -129.5t28.5 -163t-18.5 -186q-41 -194 -165.5 -344t-299.5 -215l-30 -128h211q57 0 91.5 37.5
t46.5 91.5l15 69h57l-74 -344h-463l70 345q116 66 197.5 210.5t117.5 314.5q102 483 -154 483q-136 0 -236 -138t-153 -383q-40 -178 -14 -315.5t119 -189.5l-67 -327h-466z" />
    <glyph glyph-name="Wgrave" unicode="&#x1e80;" horiz-adv-x="1858" 
d="M1159 1438h-71l-425 317v4h304zM1643 1352h410l-20 -88h-32q-52 0 -95.5 -54.5t-100.5 -171.5l-513 -1064h-133l-107 1060l-533 -1060h-138l-70 1151q-6 84 -22.5 111.5t-71.5 27.5h-42l19 88h558l-54 -88h-83q-8 0 -24 -18.5t-30 -56.5t-10 -79l51 -801l523 1050h130
l106 -1045l349 743q17 36 25.5 55.5t18.5 48t10 43.5t-4 31t-20.5 22.5t-43.5 6.5h-73z" />
    <glyph glyph-name="wgrave" unicode="&#x1e81;" horiz-adv-x="1462" 
d="M928 1030h-71l-425 318v4h304zM1225 874h327l-526 -893h-140l-111 666l-374 -666h-117l-96 707q-10 61 -25 79.5t-52 18.5h-53l18 88h305l85 -621l358 629h136l113 -670l248 445q28 52 36 77.5t-4 38.5t-51 13h-95z" />
    <glyph glyph-name="Wacute" unicode="&#x1e82;" horiz-adv-x="1858" 
d="M1584 1755l-425 -317h-71l192 321h304v-4zM1643 1352h410l-20 -88h-32q-52 0 -95.5 -54.5t-100.5 -171.5l-513 -1064h-133l-107 1060l-533 -1060h-138l-70 1151q-6 84 -22.5 111.5t-71.5 27.5h-42l19 88h558l-54 -88h-83q-8 0 -24 -18.5t-30 -56.5t-10 -79l51 -801
l523 1050h130l106 -1045l349 743q17 36 25.5 55.5t18.5 48t10 43.5t-4 31t-20.5 22.5t-43.5 6.5h-73z" />
    <glyph glyph-name="wacute" unicode="&#x1e83;" horiz-adv-x="1462" 
d="M1282 1348l-425 -318h-71l192 322h304v-4zM1225 874h327l-526 -893h-140l-111 666l-374 -666h-117l-96 707q-10 61 -25 79.5t-52 18.5h-53l18 88h305l85 -621l358 629h136l113 -670l248 445q28 52 36 77.5t-4 38.5t-51 13h-95z" />
    <glyph glyph-name="Wdieresis" unicode="&#x1e84;" horiz-adv-x="1858" 
d="M925 1492q-46 0 -79.5 34t-33.5 80t33 79.5t80 33.5q48 0 81 -33t33 -80q0 -49 -33 -81.5t-81 -32.5zM1319 1492q-47 0 -80.5 33.5t-33.5 80.5q0 48 33 80.5t81 32.5q47 0 80.5 -33t33.5 -80q0 -48 -33.5 -81t-80.5 -33zM1643 1352h410l-20 -88h-32q-52 0 -95.5 -54.5
t-100.5 -171.5l-513 -1064h-133l-107 1060l-533 -1060h-138l-70 1151q-6 84 -22.5 111.5t-71.5 27.5h-42l19 88h558l-54 -88h-83q-8 0 -24 -18.5t-30 -56.5t-10 -79l51 -801l523 1050h130l106 -1045l349 743q17 36 25.5 55.5t18.5 48t10 43.5t-4 31t-20.5 22.5t-43.5 6.5
h-73z" />
    <glyph glyph-name="wdieresis" unicode="&#x1e85;" horiz-adv-x="1462" 
d="M657 1114q-46 0 -80 34t-34 79q0 47 33.5 80.5t80.5 33.5q48 0 81 -33.5t33 -80.5q0 -48 -33.5 -80.5t-80.5 -32.5zM1051 1114q-47 0 -80.5 33t-33.5 80q0 48 33.5 81t80.5 33t80.5 -33.5t33.5 -80.5q0 -48 -33.5 -80.5t-80.5 -32.5zM1225 874h327l-526 -893h-140
l-111 666l-374 -666h-117l-96 707q-10 61 -25 79.5t-52 18.5h-53l18 88h305l85 -621l358 629h136l113 -670l248 445q28 52 36 77.5t-4 38.5t-51 13h-95z" />
    <glyph glyph-name="Ygrave" unicode="&#x1ef2;" horiz-adv-x="1306" 
d="M814 1438l-425 317v4h304l192 -321h-71zM229 0l19 87h86q71 0 103.5 34.5t48.5 105.5l66 289l-209 625q-24 69 -46.5 96t-66.5 27h-58l19 88h582l-19 -88h-67q-39 0 -60 -21.5t-21 -52.5t11 -65l169 -486l361 465q27 37 41.5 64.5t17.5 50t-14.5 34t-55.5 11.5h-60l20 88
h409l-20 -88h-30q-64 0 -177 -143l-475 -590l-74 -323q-8 -39 -8.5 -66t23 -41t76.5 -14h91l-19 -87h-663z" />
    <glyph glyph-name="ygrave" unicode="&#x1ef3;" horiz-adv-x="948" 
d="M574 1030l-425 318v4h304l192 -322h-71zM-6 -511q-45 -1 -69 24t-24 67q0 26 9 45t27 30.5t34.5 18t42.5 12.5q85 18 155.5 65t139.5 146l75 111l-200 683q-15 50 -32 72.5t-48 22.5h-50l18 88h299l170 -636l256 413q21 34 31.5 56.5t14.5 41.5t-5.5 28t-32.5 9h-101
l17 88h327l-686 -1061q-55 -85 -95.5 -139t-85 -97t-89.5 -63.5t-98 -24.5z" />
    <glyph glyph-name="endash" unicode="&#x2013;" horiz-adv-x="1316" 
d="M113 339l28 136h1049l-29 -136h-1048z" />
    <glyph glyph-name="emdash" unicode="&#x2014;" horiz-adv-x="2315" 
d="M113 339l28 136h2048l-28 -136h-2048z" />
    <glyph glyph-name="quoteleft" unicode="&#x2018;" horiz-adv-x="568" 
d="M365 753q-89 0 -127 72.5t-12 190.5q14 67 46.5 125t74 98.5t92 70.5t100 47t99.5 23l-5 -92q-116 -18 -193 -89.5t-92 -142.5q-4 -14 2.5 -19.5t20.5 -3.5q12 0 32.5 5t31.5 5q50 0 84 -44.5t19 -114.5q-10 -51 -56.5 -91t-116.5 -40z" />
    <glyph glyph-name="quoteright" unicode="&#x2019;" horiz-adv-x="569" 
d="M196 753l7 92q114 18 191 89.5t93 143.5q3 14 -3.5 19t-19.5 3q-12 0 -33 -5t-32 -5q-50 0 -84 44.5t-19 114.5q12 52 58 91.5t116 39.5q89 0 126.5 -72.5t12.5 -190.5q-18 -84 -62.5 -152t-103.5 -110.5t-121.5 -68t-125.5 -33.5z" />
    <glyph glyph-name="quotesinglbase" unicode="&#x201a;" horiz-adv-x="570" 
d="M-41 -373l6 93q116 18 192.5 89t92.5 143q4 13 -3 19t-20 4q-13 -1 -36 -5.5t-29 -4.5q-50 0 -84 44.5t-19 114.5q11 51 57.5 91t116.5 40q89 0 126.5 -72.5t12.5 -190.5q-18 -84 -62.5 -152t-103.5 -111t-121.5 -68.5t-125.5 -33.5z" />
    <glyph glyph-name="quotedblleft" unicode="&#x201c;" horiz-adv-x="1038" 
d="M363 753q-89 0 -126 72.5t-11 190.5q18 84 62 152t102 110.5t119.5 68t123.5 33.5l-7 -92q-113 -18 -188.5 -89.5t-91.5 -142.5q-3 -14 3.5 -19.5t19.5 -3.5q12 0 32.5 5t31.5 5q49 0 82 -44.5t18 -114.5q-10 -51 -56 -91t-114 -40zM837 753q-88 0 -125.5 72.5
t-11.5 190.5q18 83 62 151.5t102.5 111t120 68t122.5 33.5l-6 -92q-114 -18 -189.5 -89t-91.5 -143q-3 -14 3.5 -19.5t19.5 -3.5q12 0 32.5 5t31.5 5q49 0 82.5 -44.5t18.5 -114.5q-10 -51 -56 -91t-115 -40z" />
    <glyph glyph-name="quotedblright" unicode="&#x201d;" horiz-adv-x="1039" 
d="M197 753l7 92q112 18 187.5 89.5t91.5 143.5q3 14 -2.5 19t-19.5 3q-11 0 -32.5 -5t-32.5 -5q-49 0 -82 44.5t-18 114.5q12 52 57 91.5t114 39.5q88 0 125 -72.5t12 -190.5q-18 -83 -62.5 -151.5t-102.5 -111t-119.5 -68t-122.5 -33.5zM672 753l6 92q113 18 188.5 89.5
t91.5 143.5q3 14 -3 19t-20 3q-11 0 -31.5 -5t-31.5 -5q-50 0 -83.5 44.5t-18.5 114.5q12 52 57.5 91.5t114.5 39.5q88 0 125 -72.5t12 -190.5q-18 -83 -62.5 -151.5t-102.5 -111t-119.5 -68t-122.5 -33.5z" />
    <glyph glyph-name="quotedblbase" unicode="&#x201e;" horiz-adv-x="1054" 
d="M-41 -373l6 93q116 18 192.5 89t92.5 143q4 13 -3 19t-20 4q-13 -1 -36 -5.5t-29 -4.5q-50 0 -84 44.5t-19 114.5q11 51 57.5 91t116.5 40q89 0 126.5 -72.5t12.5 -190.5q-18 -84 -62.5 -152t-103.5 -111t-121.5 -68.5t-125.5 -33.5zM443 -373l5 93q116 18 193 89.5
t92 142.5q4 14 -2.5 19.5t-20.5 3.5q-13 -1 -35.5 -5.5t-29.5 -4.5q-50 0 -83.5 44.5t-19.5 114.5q11 51 57.5 91t116.5 40q90 0 127.5 -72.5t11.5 -190.5q-18 -84 -62.5 -152t-103 -111t-121 -68.5t-125.5 -33.5z" />
    <glyph glyph-name="dagger" unicode="&#x2020;" horiz-adv-x="948" 
d="M262 -345l32 155q25 116 52 285t46.5 308.5t22.5 155.5q27 155 87 218q-23 -6 -80 -26.5t-109 -35t-90 -14.5q-15 0 -32 5t-37.5 18t-29.5 43.5t0 72.5q20 101 128 101q50 0 139 -33t127 -34q-1 15 -6.5 60t-8 78.5t-1 83.5t10.5 93q27 134 142 134q49 0 80 -42t14 -122
q-20 -98 -140 -303q30 10 77 28t74 27.5t63 17.5t68 8q62 0 85.5 -40.5t11.5 -97.5q-8 -42 -41.5 -71t-90.5 -29q-50 0 -140 30.5t-115 31.5q20 -71 -22 -245q-1 -3 -77.5 -265.5t-119.5 -464.5l-27 -131h-93z" />
    <glyph glyph-name="daggerdbl" unicode="&#x2021;" horiz-adv-x="1011" 
d="M916 937q67 0 92 -42t11 -96q-10 -44 -43 -72t-89 -28q-50 0 -140 30.5t-114 31.5q20 -69 -23 -245q-44 -171 -76 -357q-10 -53 -16.5 -82t-23 -69t-38.5 -67q8 2 71.5 26t113.5 37.5t86 13.5q64 0 86.5 -43t9.5 -97q-10 -42 -43.5 -70t-90.5 -28q-54 0 -142.5 35
t-117.5 43l-2 -14q1 -8 6 -62t7.5 -89t1 -87t-10.5 -88q-16 -68 -55 -95.5t-79 -27.5q-52 0 -84.5 40.5t-11.5 134.5q5 23 14.5 51t17.5 47.5t25 53t23 45t26 47.5t21 37q-25 -5 -127 -39.5t-146 -34.5q-55 0 -83 40.5t-13 101.5q10 47 45.5 73t90.5 25q51 -1 136.5 -29
t117.5 -28q-15 100 21 239q49 187 76 360q17 125 82 217q-20 -6 -79.5 -27.5t-107.5 -34.5t-81 -13q-51 0 -86 34.5t-19 104.5q23 101 126 101q56 0 149.5 -37.5t121.5 -44.5l-5.5 44t-7 55t-5 55.5t-2.5 62t3 57t10 57.5q11 45 30 74.5t40.5 41t34 14.5t23.5 3
q66 0 95.5 -43t12.5 -121t-132 -297q30 10 93.5 33t101 32.5t72.5 9.5z" />
    <glyph glyph-name="bullet" unicode="&#x2022;" horiz-adv-x="796" 
d="M449 407q-110 0 -188.5 78.5t-78.5 188.5q0 112 78.5 188.5t188.5 76.5q108 0 186 -76.5t78 -188.5q0 -110 -77.5 -188.5t-186.5 -78.5z" />
    <glyph glyph-name="twodotenleader" unicode="&#x2025;" horiz-adv-x="1232" 
d="M231 -35q-62 0 -105.5 43.5t-43.5 104.5t43.5 104t105.5 43q59 0 102.5 -43t43.5 -104t-43 -104.5t-103 -43.5zM861 -35q-61 0 -104 43t-43 105q0 61 43 104t104 43t104.5 -43t43.5 -104t-43.5 -104.5t-104.5 -43.5z" />
    <glyph glyph-name="ellipsis" unicode="&#x2026;" horiz-adv-x="1865" 
d="M231 -35q-62 0 -105.5 43.5t-43.5 104.5t43.5 104t105.5 43q59 0 102.5 -43t43.5 -104t-43 -104.5t-103 -43.5zM861 -35q-61 0 -104 43t-43 105q0 61 43 104t104 43t104.5 -43t43.5 -104t-43.5 -104.5t-104.5 -43.5zM1494 -35q-61 0 -104.5 43.5t-43.5 104.5t43.5 104
t104.5 43t104 -43t43 -104q0 -62 -43 -105t-104 -43z" />
    <glyph glyph-name="perthousand" unicode="&#x2030;" horiz-adv-x="2464" 
d="M436 670q-71 0 -121.5 26.5t-75.5 66t-35.5 91t-8.5 96.5t11 88q34 160 129.5 250t233.5 90q64 0 112 -19t74 -51.5t41.5 -70.5t17.5 -83t-1 -81t-10 -71q-12 -56 -39 -110t-70 -106t-110 -84t-148 -32zM386 0l979 1352h116l-983 -1352h-112zM437 730q123 0 185 287
q20 94 25 155.5t-5 92t-26.5 42t-44.5 11.5q-64 0 -109 -75.5t-80 -236.5q-12 -60 -17.5 -102t-3.5 -85.5t21 -66t55 -22.5zM1266 -26q-71 0 -122 26.5t-75.5 66t-35 91t-8.5 96.5t11 88q34 160 129.5 249.5t233.5 89.5q55 0 98.5 -14.5t70 -38t44 -56.5t24.5 -66.5
t7.5 -71.5t-3 -68.5t-9.5 -60.5q-11 -55 -37.5 -109.5t-69.5 -106t-110 -83.5t-148 -32zM1993 -26q-71 0 -122 26.5t-75.5 66t-35.5 91t-9 96.5t11 88q34 159 129.5 249t233.5 90q56 0 99 -14.5t69.5 -38t44 -56.5t25 -66.5t8 -71.5t-3 -68.5t-9.5 -60.5
q-12 -55 -38.5 -109.5t-69.5 -106t-110 -83.5t-147 -32zM1266 34q122 0 186 286q20 94 25 155.5t-5 92.5t-26.5 42t-44.5 11q-64 0 -109 -75t-80 -237q-13 -60 -18.5 -102t-4 -85t21 -65.5t55.5 -22.5zM1993 34q122 0 186 286q20 94 24.5 155.5t-5 92.5t-26 42t-44.5 11
q-65 0 -110 -75.5t-79 -236.5q-13 -60 -18.5 -102t-4 -85t20.5 -65.5t56 -22.5z" />
    <glyph glyph-name="guilsinglleft" unicode="&#x2039;" horiz-adv-x="533" 
d="M281 0l-264 440l447 441h95l-332 -441l142 -440h-88z" />
    <glyph glyph-name="guilsinglright" unicode="&#x203a;" horiz-adv-x="532" 
d="M-23 0l330 440l-140 441h88l262 -441l-449 -440h-91z" />
    <glyph glyph-name="Euro" unicode="&#x20ac;" horiz-adv-x="1190" 
d="M561 -26q-96 0 -168.5 45.5t-113.5 124t-57.5 179t-5.5 214.5l-102 -11l30 88l83 10q7 42 12 67q2 9 14 57l-96 -10l32 87l90 11q41 116 98.5 213t129 170.5t159.5 114.5t183 41q184 0 252 -167l35 130h85l-79 -393l-84 9q6 160 -35 246t-143 86q-53 0 -102 -25.5
t-89 -69t-75 -104.5t-61 -128t-47 -144l438 10l-33 -87l-425 -10q-1 -4 -6 -27.5t-9 -41.5q0 -1 -5.5 -21.5t-7.5 -34.5l408 11l-32 -88l-393 -10q-20 -137 -17 -237t46.5 -157t129.5 -57q107 0 208.5 110.5t150.5 248.5l71 -33q-151 -417 -469 -417z" />
    <glyph glyph-name="uni2113" unicode="&#x2113;" horiz-adv-x="849" 
d="M382 -23q-116 0 -162 91.5t-16 230.5l18 84q-14 -15 -72 -64.5t-73 -63.5l-33 77q9 8 56 46.5t85.5 71.5t57.5 53l97 459q20 95 56 179.5t85 153t115 108.5t139 40q187 0 134 -242q-25 -120 -95 -248.5t-163 -239.5q-64 -76 -122 -129l-64 -301q-40 -189 31 -189
q82 0 153 220l68 -38q-54 -158 -124 -228.5t-171 -70.5zM517 737q45 44 92 114q70 88 122 188t71 193q16 63 8 97t-47 34q-55 0 -101.5 -81t-78.5 -230z" />
    <glyph glyph-name="trademark" unicode="&#x2122;" horiz-adv-x="2245" 
d="M270 1352h765l4 -224l-54 -1l-6 58q-17 70 -43.5 89.5t-78.5 19.5h-127v-618q0 -20 1.5 -31t8.5 -24t23.5 -19t43.5 -6h46v-53h-401v53h45q26 0 42.5 6t24 18.5t9.5 24.5t2 31v618h-131q-22 0 -37 -2.5t-34.5 -12.5t-32 -34.5t-17.5 -62.5l-4 -55l-53 1zM2158 596h49v-53
h-402v53h44q46 0 61.5 18t15.5 62v538h-13l-300 -671h-45l-300 671h-8v-505q0 -113 75 -113h39v-53h-280v53h37q18 0 31 5.5t20.5 17.5t12 21t6 27t1.5 23v20v507q0 20 -2 32t-8.5 25t-22 19t-39.5 6h-36v53h275l272 -610l277 610h288v-53h-48q-50 0 -64 -20t-14 -61v-542
q0 -19 2 -30.5t9 -24.5t23.5 -19t43.5 -6z" />
    <glyph glyph-name="uni2126" unicode="&#x2126;" horiz-adv-x="1453" 
d="M52 0l74 344h64l-19 -87q-12 -53 6.5 -82t83.5 -29h246l31 126q-60 28 -108.5 65t-89.5 89.5t-61.5 117t-25.5 147t18 180.5q52 251 227 403.5t432 152.5q105 0 189 -30.5t138 -85t86.5 -129.5t35 -163t-15.5 -186q-41 -194 -176.5 -344t-328.5 -215l-30 -128h235
q63 0 100.5 37.5t49.5 91.5l14 69h65l-74 -344h-514l69 345q127 66 214.5 210.5t123.5 314.5q102 483 -183 483q-151 0 -259 -138.5t-159 -382.5q-41 -178 -9 -315t136 -190l-67 -327h-518z" />
    <glyph glyph-name="partialdiff" unicode="&#x2202;" horiz-adv-x="1028" 
d="M299 -21q-146 0 -204 105t-20 293q30 140 111 268t202.5 212.5t250.5 84.5q54 0 93 -19t58.5 -50.5t28 -64t8.5 -67.5l5 20q28 77 55 207q15 68 16 132.5t-12 120t-48.5 89.5t-89.5 34q-140 0 -277 -159l-29 57q176 238 389 238q285 0 179 -501q-23 -107 -83.5 -262
t-123.5 -274q-152 -255 -268.5 -359.5t-240.5 -104.5zM384 73q67 0 146 89.5t143.5 214.5t120.5 275q34 201 -106 201q-81 0 -167 -82.5t-152 -212.5t-96 -273q-22 -105 9.5 -158.5t101.5 -53.5z" />
    <glyph glyph-name="uni2206" unicode="&#x2206;" horiz-adv-x="1004" 
d="M829 1443l3 -1443h-847l619 1443h225zM123 87h484l3 1119z" />
    <glyph glyph-name="product" unicode="&#x220f;" horiz-adv-x="1313" 
d="M-19 -258l13 64h49q35 0 60.5 44t37.5 104l273 1281q9 41 10.5 66.5t-8 43.5t-33.5 18h-67l14 64h1074l-15 -64h-56q-36 0 -61 -43t-38 -105l-273 -1281q-14 -53 -8.5 -90.5t40.5 -37.5h58l-13 -64h-458l13 64h48q37 0 62.5 44t36.5 104l295 1384h-376l-299 -1404
q-14 -52 -9 -90t38 -38h58l-13 -64h-453z" />
    <glyph glyph-name="summation" unicode="&#x2211;" horiz-adv-x="980" 
d="M312 1427h709l-47 -335l-62 -1l14 143q7 66 -8.5 84.5t-54.5 18.5h-371l128 -678l-495 -741h459q82 0 116 103l42 138l66 -7l-114 -411h-748l15 80l482 722l-147 803z" />
    <glyph glyph-name="minus" unicode="&#x2212;" horiz-adv-x="1525" 
d="M259 600v152h1110v-152h-1110z" />
    <glyph glyph-name="radical" unicode="&#x221a;" horiz-adv-x="719" 
d="M740 1498h66l-484 -1514h-103l-25 666l-82 -55l-32 57l211 137l14 -639z" />
    <glyph glyph-name="infinity" unicode="&#x221e;" horiz-adv-x="1308" 
d="M941 829q105 0 173 -70.5t68 -181.5q0 -110 -67.5 -183t-170.5 -73q-85 0 -142 40t-106 124q-50 -77 -114 -122.5t-157 -45.5q-106 0 -174.5 71t-68.5 181q0 111 68 183.5t175 72.5q147 0 245 -165q103 169 271 169zM942 397q76 0 120.5 52.5t44.5 127.5q0 78 -40.5 126
t-117.5 48q-32 0 -60.5 -12t-47.5 -27.5t-39.5 -44.5t-31 -48.5t-28.5 -54.5q-2 -3 -3 -5.5t-2 -4.5q78 -157 205 -157zM421 393q27 0 50.5 8t44.5 26.5t35 33t31.5 45t24.5 43t23 44.5q-82 154 -202 154q-73 0 -122 -47.5t-49 -129.5q0 -80 43 -128.5t121 -48.5z" />
    <glyph glyph-name="integral" unicode="&#x222b;" horiz-adv-x="625" 
d="M36 -422q-64 0 -88.5 45t-12.5 95q6 22 21.5 38t36.5 16q24 0 38 -18.5t13 -35.5q11 -25 43 -20q46 17 64 86q7 30 10 75.5t5.5 122.5t7.5 139q13 194 66 446q56 257 95 401q29 114 44 168.5t42 131.5t55 125q73 129 174 129q56 0 81.5 -35.5t17.5 -91.5q-9 -53 -55 -53
q-20 -1 -32 12t-15 37q-23 20 -56 13q-40 -14 -58 -96q-9 -31 -15 -75.5t-13 -120t-12 -119.5q-14 -225 -60 -463q-53 -256 -115 -467q-75 -273 -140 -389q-50 -96 -142 -96z" />
    <glyph glyph-name="approxequal" unicode="&#x2248;" horiz-adv-x="1290" 
d="M1200 730q-40 -56 -70 -84l70 -78q-59 -83 -125.5 -128.5t-155.5 -45.5q-112 0 -229 67q-117 65 -208 65q-68 0 -121.5 -40.5t-104.5 -112.5l-102 114q35 47 70 84l-70 77q68 92 141.5 141.5t181.5 49.5q124 0 241 -64q119 -67 197 -67q53 0 96.5 36t86.5 99zM477 679
q76 0 148 -25q-76 33 -143 33q-39 0 -73 -14q32 6 68 6zM915 546q33 0 65 16q-29 -6 -61 -6q-64 0 -136 24q73 -34 132 -34z" />
    <glyph glyph-name="notequal" unicode="&#x2260;" horiz-adv-x="1369" 
d="M1290 837h-359l-166 -322h525v-153h-604l-203 -395h-208l204 395h-299v153h378l167 322h-545v153h624l188 364h205l-187 -364h280v-153z" />
    <glyph glyph-name="lessequal" unicode="&#x2264;" horiz-adv-x="1338" 
d="M1171 1234v-166l-814 -281l814 -281v-165l-1017 369v155zM167 0v153h1004v-153h-1004z" />
    <glyph glyph-name="greaterequal" unicode="&#x2265;" horiz-adv-x="1360" 
d="M207 1234l1017 -369v-155l-1017 -369v165l814 281l-814 281v166zM207 0v153h1004v-153h-1004z" />
    <glyph glyph-name="uni0308.case" 
d="M-361 1492q-46 0 -79.5 34t-33.5 80t33 79.5t80 33.5q48 0 81 -33t33 -80q0 -49 -33 -81.5t-81 -32.5zM33 1492q-47 0 -80.5 33.5t-33.5 80.5q0 48 33 80.5t81 32.5q47 0 80.5 -33t33.5 -80q0 -48 -33.5 -81t-80.5 -33z" />
    <glyph glyph-name="gravecomb.case" 
d="M116 1438l-425 317v4h304l192 -321h-71z" />
    <glyph glyph-name="acutecomb.case" 
d="M-226 1438l192 321h304v-4l-425 -317h-71z" />
    <glyph glyph-name="uni0302.case" 
d="M-459 1470l277 322h222l140 -322h-60l-211 219l-303 -219h-65z" />
    <glyph glyph-name="uni030C.case" 
d="M-235 1456l-154 322h62l209 -219l303 219h67l-291 -322h-196z" />
    <glyph glyph-name="uni030A.case" 
d="M-23 1438q-78 0 -133.5 55.5t-55.5 134.5t55.5 134t133.5 55q79 0 134.5 -55t55.5 -134q0 -78 -55.5 -134t-134.5 -56zM-23 1504q52 0 88 36t36 88t-36 88t-88 36q-51 0 -86.5 -36t-35.5 -88t35.5 -88t86.5 -36z" />
    <glyph glyph-name="tildecomb.case" 
d="M-444 1430l-58 20q23 125 83.5 193t150.5 68q12 0 23.5 -1.5t23.5 -5.5t20 -7t20.5 -10.5l17.5 -10.5t18.5 -12l16.5 -11q58 -47 111 -47q45 0 80 35t53 100l60 -21q-19 -118 -82.5 -198.5t-154.5 -80.5q-19 0 -35 3t-33.5 12t-24.5 13t-28.5 19.5t-23.5 16.5
q-58 44 -120 44q-44 0 -75 -37t-43 -82z" />
    <glyph glyph-name="uni0335.case" 
d="M-823 638l19 94h737l-21 -94h-735z" />
    <glyph glyph-name="uni0337.case" 
d="M-756 312l28 138l862 622l-27 -138z" />
    <glyph glyph-name="uni0338.case" 
d="M-946 -7l-68 57l1177 1337l65 -58z" />
    </font>
</defs>
</svg>
